<svg width="335" height="545" viewBox="0 0 335 545" fill="none" xmlns="http://www.w3.org/2000/svg">
<g clip-path="url(#clip0_424_1287)">
<path d="M50.714 136.26C80.0292 135.992 109.229 136.328 138.584 135.748C138.747 135.72 138.913 135.726 139.073 135.766C139.233 135.806 139.383 135.879 139.513 135.981C139.643 136.083 139.75 136.211 139.828 136.357C139.905 136.502 139.951 136.663 139.962 136.828C139.974 136.992 139.95 137.157 139.894 137.312C139.837 137.468 139.749 137.609 139.634 137.728C139.52 137.846 139.381 137.94 139.228 138.002C139.075 138.064 138.911 138.093 138.746 138.087C109.728 138.664 79.8808 139.323 50.8761 138.555C49.2005 138.511 48.9975 136.275 50.714 136.26ZM116.603 91.825C121.492 113.597 91.522 125.753 77.8855 111.974C71.624 105.651 70.6484 95.3595 74.0511 87.4012C82.6047 67.4047 112.412 73.1541 116.603 91.825ZM113.889 89.3737C112.964 86.9929 111.547 84.8339 109.731 83.0374C107.915 81.2409 105.74 79.8473 103.35 78.9475C90.5676 74.4706 78.19 77.0355 74.4904 91.325C72.5361 98.8682 74.6419 108.005 81.267 112.641C96.4912 123.292 121.749 108.501 113.889 89.3737ZM51.7866 70.6847C51.7866 69.9575 50.6064 69.9756 50.5398 70.6756C48.949 87.4178 49.7368 104.959 49.7959 121.796C49.805 124.319 50.6867 124.504 52.2654 124.608C77.3583 126.259 111.814 125.334 136.857 124.223C137.766 124.182 137.787 122.646 136.857 122.628C108.878 122.105 79.446 124.029 51.9169 122.378C52.3502 105.492 51.876 87.6693 51.7866 70.6847ZM139.361 122.914C139.457 123.66 140.935 123.76 140.92 122.925C140.593 105.342 140.743 87.6254 140.288 70.0984C140.226 67.6895 140.184 67.8925 137.57 67.791C110.764 66.7472 80.8686 67.2623 54.1727 68.8C53.97 68.8094 53.7794 68.899 53.6427 69.049C53.5061 69.1991 53.4346 69.3972 53.444 69.5999C53.4535 69.8026 53.5431 69.9933 53.6931 70.1299C53.8431 70.2666 54.0412 70.3381 54.2439 70.3286C82.2427 70.2317 110.543 69.1015 138.51 70.0075C137.49 83.9379 137.625 109.258 139.361 122.914ZM103.937 95.9685C100.648 94.0399 96.0261 91.019 92.3401 88.9995C89.8798 87.6527 89.6874 89.4964 91.4493 90.7145C93.9324 92.4325 98.541 94.6353 101.724 96.8578C98.0729 99.1091 94.5732 101.482 90.857 103.724C90.3252 98.8273 90.0782 94.0066 89.3768 89.0949C89.2526 88.2147 88.0284 88.4723 88.0512 89.307C88.2027 94.7459 88.9465 100.088 89.1314 105.454C89.1553 105.598 89.2119 105.736 89.2969 105.855C89.3818 105.974 89.4929 106.072 89.6217 106.142C89.7504 106.212 89.8934 106.252 90.0397 106.258C90.1861 106.264 90.3319 106.237 90.4661 106.178C95.2613 103.666 99.8437 100.766 104.168 97.5093C104.281 97.4052 104.367 97.275 104.418 97.13C104.469 96.9851 104.484 96.8298 104.461 96.6778C104.439 96.5258 104.379 96.3816 104.288 96.258C104.196 96.1343 104.076 96.0349 103.937 95.9685ZM194.775 82.4244C198.781 82.1668 198.643 79.5777 194.515 79.8656C181.892 80.7473 168.97 80.5064 156.32 80.1822C150.754 80.0398 150.201 82.3517 155.914 82.5683C168.269 83.0365 182.484 83.2137 194.775 82.4244ZM207.163 126.591C207.383 122.43 207.357 118.259 207.086 114.1C207.029 113.467 205.874 113.38 205.767 114.023C205.226 117.259 205.911 123.146 205.779 126.661C205.753 127.417 207.12 127.352 207.163 126.591ZM52.3184 39.4196C68.3137 39.3726 187.497 38.6045 193.803 38.8591C207.673 39.4211 208.498 55.6756 206.832 55.9331C205.059 56.2088 39.8484 55.1347 38.1062 54.9938C36.8911 54.8968 36.3215 39.4666 52.3184 39.4196ZM194.939 51.2745C195.386 51.2063 195.813 51.0404 196.189 50.7886C196.565 50.5369 196.881 50.2054 197.115 49.8177C197.348 49.43 197.493 48.9957 197.54 48.5456C197.586 48.0955 197.533 47.6406 197.384 47.2133C197.235 46.7861 196.994 46.3968 196.677 46.0734C196.361 45.7499 195.977 45.5 195.553 45.3416C195.129 45.1832 194.676 45.1201 194.225 45.1568C193.774 45.1935 193.336 45.329 192.944 45.5538C192.372 45.9414 191.944 46.5072 191.726 47.1633C191.509 47.8193 191.515 48.5287 191.742 49.1812C191.97 49.8337 192.407 50.3927 192.985 50.7713C193.563 51.1499 194.25 51.3268 194.939 51.2745ZM181.136 50.2579C181.6 50.8072 182.24 51.1789 182.947 51.3101C183.655 51.4412 184.385 51.3237 185.016 50.9775C185.595 50.5837 186.031 50.0137 186.26 49.352C186.489 48.6904 186.498 47.9726 186.287 47.3052C186.04 46.6418 185.577 46.081 184.972 45.7132C184.367 45.3454 183.656 45.1921 182.954 45.2781C182.419 45.362 181.917 45.5875 181.499 45.9312C181.081 46.2748 180.763 46.7241 180.578 47.2323C180.392 47.7406 180.346 48.2892 180.444 48.8213C180.542 49.3533 180.781 49.8494 181.136 50.2579ZM169.72 50.4473C170.231 50.8768 170.861 51.1389 171.526 51.198C172.19 51.2571 172.857 51.1103 173.435 50.7776C173.911 50.4982 174.299 50.0924 174.558 49.6053C174.817 49.1181 174.935 48.5688 174.901 48.0183C174.866 47.4679 174.679 46.9378 174.361 46.4872C174.043 46.0366 173.606 45.6831 173.099 45.466C172.423 45.2659 171.702 45.2777 171.033 45.4998C170.364 45.7219 169.779 46.1437 169.357 46.7083C168.968 47.2746 168.791 47.9601 168.857 48.644C168.924 49.328 169.229 49.9665 169.72 50.4473ZM205.752 59.6115C206.018 72.8966 204.843 86.1877 205.547 99.5666C205.588 100.35 206.91 100.295 206.895 99.5363C206.682 86.3558 208.071 72.7208 207.127 59.5812C207.071 58.7904 205.736 58.8328 205.752 59.6115ZM196.166 69.0636C181.275 69.759 166.681 68.7697 151.855 68.7606C151.272 68.7606 151.163 69.8211 151.731 70.062C156.29 72.0315 189.482 71.8058 196.23 71.2982C196.511 71.2685 196.77 71.1338 196.956 70.9212C197.141 70.7086 197.24 70.4337 197.232 70.1515C197.224 69.8692 197.11 69.6004 196.912 69.3987C196.715 69.197 196.448 69.0774 196.166 69.0636ZM48.6248 157.493C59.2434 157.549 70.3772 158.524 78.8354 157.906C79.605 157.85 79.7081 156.55 78.9021 156.528C68.891 156.24 59.3056 155.596 49.8323 155.387C43.4208 155.244 39.8514 152.695 39.197 146.001C37.1184 124.717 39.7196 63.0778 39.2727 57.8284C39.2619 57.6447 39.1856 57.4711 39.0577 57.3388C38.9299 57.2066 38.7589 57.1245 38.5757 57.1075C38.3925 57.0905 38.2093 57.1396 38.0593 57.246C37.9092 57.3524 37.8023 57.509 37.7577 57.6875C37.3365 59.7782 36.6881 85.2953 36.4609 105.039C36.3185 117.548 35.764 134.828 37.076 146.874C37.7729 153.261 42.0694 157.458 48.6248 157.493ZM163.892 155.428C145.721 156.547 124.82 155.811 106.075 156.284C105.269 156.305 105.266 157.684 106.084 157.705C124.648 158.2 145.383 157.362 163.906 157.382C165.015 157.379 165.016 155.358 163.892 155.428ZM154.534 93.0097C152.387 93.5187 152.669 94.9065 154.837 94.908C158.267 94.908 161.973 94.5217 165.527 94.4808C167.799 94.455 168.772 92.6628 165.072 92.3749C161.547 92.2097 158.014 92.423 154.534 93.0112V93.0097ZM212.769 184.455C211.156 179.683 208.705 175.237 205.529 171.326C205.074 170.72 205.832 169.791 206.467 170.317C210.453 173.961 213.224 178.741 214.407 184.011C219.139 182.74 224.118 182.7 228.87 183.896C233.621 185.093 237.988 187.485 241.554 190.845C242.493 166.546 222.135 150.034 201.861 148.534C198.873 155.476 185.734 158.196 183.283 151.004C173.056 153.036 158.32 160.397 153.034 169.164C158.014 168.944 163.005 169.147 167.951 169.77C169.46 169.946 170.864 170.63 171.933 171.71C173.002 172.789 173.672 174.2 173.833 175.711C174.084 181.267 174.753 186.797 175.835 192.253C178.432 185.531 184.561 183.842 190.033 183.717C194.78 183.607 206.274 186.003 212.769 184.455ZM208.877 135.725C217.763 133.865 226.886 133.414 235.912 134.387C244.732 135.312 250.314 136.481 252.397 146.16C255.504 160.607 252.268 183.843 247.291 197.749C243.007 209.718 235.159 208.586 224.687 209.381C223.883 209.442 223.668 210.828 224.553 210.857C234.515 211.183 242.93 210.789 247.499 202.676C254.542 190.174 257.095 162.226 255.03 147.922C253.676 138.551 249.697 134.04 240.139 132.795C230.34 131.518 217.891 131.241 208.444 134.293C208.254 134.352 208.095 134.483 208.002 134.658C207.908 134.833 207.889 135.038 207.947 135.228C208.005 135.418 208.136 135.577 208.311 135.67C208.487 135.763 208.692 135.783 208.881 135.725H208.877ZM253.859 138.248C260.267 140.564 267.2 143.052 271.859 148.28C282.345 160.05 276.738 179.39 274.131 193.145C271.228 208.422 268.457 223.724 265.567 239.001C264.658 243.778 266.476 245.263 267.321 240.992C270.351 225.749 273.199 210.433 276.108 195.165C278.873 180.671 284.548 161.4 274.923 148.351C270.019 141.703 261.97 139.126 254.356 136.989C253.541 136.76 253.029 137.945 253.863 138.248H253.859ZM216.817 273.537C216.458 275.026 218.688 275.446 219.056 273.875C222.365 259.825 226.858 243.12 228.458 229.182C229.726 218.141 228.822 211.028 216.338 209.842C206.315 208.891 198.022 212.917 196.198 223.454C193.813 237.227 195.236 259.481 195.731 274.183C195.737 274.362 195.813 274.532 195.941 274.657C196.069 274.782 196.241 274.853 196.42 274.855C196.6 274.857 196.773 274.79 196.904 274.668C197.035 274.545 197.114 274.377 197.124 274.198C197.548 259.493 196.878 244.363 197.758 229.798C198.364 219.82 200.752 212.433 212.302 211.849C224.989 211.21 227.525 216.047 226.412 227.866C224.992 242.863 219.156 263.874 216.822 273.534L216.817 273.537ZM278.326 251.57C279.69 248.952 284.242 244.298 286.89 244.279C289.095 244.267 287.678 248.597 288.377 251.038C294.064 251.538 295.114 251.47 298.927 255.19C299.415 255.665 300.001 255.416 299.585 254.721C298.716 253.224 297.492 251.965 296.02 251.055C297.959 248.138 301.019 246.438 301.943 246.564C303.678 246.802 301.509 252.662 302.624 257.308C303.381 260.446 304.728 264.091 303.425 267.771C302.412 270.633 300.78 273.239 295.85 274.798C291.323 276.228 282.753 275.14 278.893 272.998C284.53 269.575 282.482 261.169 273.836 263.932C262.114 267.679 256.21 268.524 243.875 266.453C243.005 266.301 242.802 267.271 243.708 267.442C253.602 269.542 263.875 268.98 273.481 265.814C278.159 264.337 281.458 267.27 279.217 270.383C276.944 273.539 270.862 274.705 267.174 275.266C257.846 276.416 248.409 276.359 239.095 275.096C229.551 273.946 234.43 249.605 259.305 246.281C265.696 245.424 272.189 246.719 277.762 249.961C275.852 253.173 274.669 256.766 274.299 260.485C274.248 261.208 275.04 261.04 275.208 260.334C275.866 257.287 276.919 254.34 278.338 251.565L278.326 251.57ZM253.366 249.244C251.245 250.358 249.205 254.589 250.174 258.442C250.37 259.216 251.15 259.292 251.148 258.475C251.148 254.839 252.474 253.362 254.153 250.615C254.704 249.729 254.247 248.784 253.379 249.24L253.366 249.244ZM260.758 247.515C258.791 248.872 257.378 250.891 256.778 253.204C256.054 255.462 255.987 257.879 256.586 260.173C256.754 260.913 257.548 260.857 257.596 260.125C257.771 257.449 258.221 253.653 260.164 251.168C260.767 250.392 261.318 249.576 261.811 248.726C262.381 247.776 261.494 247.12 260.77 247.511L260.758 247.515ZM267.033 249.002C265.596 250.252 264.493 251.842 263.826 253.627C263.16 255.412 262.95 257.335 263.215 259.222C263.367 259.979 264.168 260.107 264.259 259.278C264.678 256.019 266.206 253.004 268.586 250.739C270.739 248.565 269.033 247.246 267.045 248.997L267.033 249.002ZM296.708 262.906C297.082 262.685 297.526 262.608 297.953 262.692C298.38 262.776 298.762 263.014 299.026 263.361C299.619 264.179 300.253 263.718 299.915 262.706C299.764 262.359 299.53 262.053 299.233 261.816C298.937 261.58 298.587 261.42 298.214 261.35C297.841 261.279 297.457 261.302 297.095 261.414C296.733 261.527 296.404 261.727 296.136 261.996C296.042 262.083 295.981 262.201 295.965 262.329C295.948 262.456 295.978 262.586 296.047 262.694C296.117 262.802 296.223 262.882 296.346 262.92C296.469 262.958 296.601 262.952 296.72 262.902L296.708 262.906ZM290.785 264.741C290.881 265.45 292.141 266.894 292.94 266.862C293.878 266.818 295.193 265.835 295.1 264.893C295.008 263.95 290.658 263.696 290.792 264.736L290.785 264.741ZM286.109 262.555C286.441 262.202 286.885 261.975 287.365 261.911C287.845 261.846 288.333 261.949 288.746 262.202C289.528 262.782 290.226 262.059 289.56 261.388C289.264 261.081 288.9 260.848 288.497 260.707C288.094 260.567 287.664 260.523 287.241 260.58C286.818 260.637 286.415 260.792 286.063 261.034C285.712 261.276 285.422 261.597 285.218 261.972C284.815 262.646 285.663 262.988 286.121 262.55L286.109 262.555ZM119.416 190.618C119.736 187.944 119.898 186.629 117.047 186.491C108.857 186.094 103.035 188.158 98.0077 192.074C95.1684 194.244 92.8117 196.981 91.0874 200.11C89.3631 203.24 88.309 206.695 87.9921 210.254C87.9702 210.426 88.0155 210.6 88.1186 210.74C88.2217 210.879 88.3746 210.974 88.5456 211.003C88.7166 211.033 88.8924 210.996 89.0365 210.899C89.1806 210.802 89.2819 210.654 89.3192 210.484C90.3908 203.849 93.863 197.838 99.0758 193.595C104.465 189.388 111.288 187.461 118.081 188.226C117.59 195.322 114.675 202.034 109.825 207.238C104.068 213.372 99.2909 214.737 91.6523 216.467C91.499 216.512 91.3666 216.61 91.2791 216.744C91.1916 216.877 91.1547 217.038 91.1749 217.196C91.1952 217.355 91.2714 217.501 91.3897 217.608C91.508 217.716 91.6608 217.777 91.8205 217.782C98.4683 217.699 106.501 213.176 111.014 208.444C115.607 203.525 118.545 197.292 119.416 190.618ZM176.963 274.236C174.724 269.325 169.16 263.025 163.101 264.249C159.314 265.006 155.146 269.059 153.296 272.342C152.324 274.067 152.761 276.049 154.944 276.323C160.005 276.779 165.09 276.911 170.167 276.719C175.893 276.788 181.61 276.256 187.225 275.132C188.102 274.902 187.667 273.707 186.899 273.692C183.599 273.628 180.272 273.998 176.963 274.236ZM132.648 276.307C138.354 276.629 146.132 276.61 151.537 275.273C152.377 275.066 152.002 273.875 151.234 273.875C150.466 273.875 149.665 273.902 148.881 273.93C147.654 270.924 146.154 267.87 143.191 266.247C138.422 263.641 133.386 267.403 130.109 270.718C125.879 275.002 128.279 276.06 132.648 276.307ZM71.3483 208.851C71.5381 208.841 71.7165 208.757 71.8463 208.618C71.976 208.479 72.0471 208.296 72.0448 208.105C72.0424 207.915 71.9668 207.733 71.8337 207.598C71.7005 207.462 71.5201 207.383 71.3301 207.377C63.6962 207.58 56.1321 205.876 49.3217 202.421C39.2576 197.01 33.2415 188.891 29.5146 178.347C35.6988 177.579 45.6569 177.107 54.3606 179.583C67.5411 183.329 72.9421 192.309 75.4267 204.912C75.5782 205.686 76.9023 205.595 76.8311 204.777C74.6434 179.447 51.9063 174.209 30.1857 176.541C27.786 176.8 27.2906 176.935 28.245 179.453C30.4126 185.642 33.7824 191.342 38.1607 196.225C46.2144 204.629 59.5874 210.356 71.3483 208.851ZM322.563 277.952C287.087 277.043 51.2836 278.008 35.8382 278.57C35.1019 278.597 35.0807 279.846 35.8276 279.868C54.5015 280.446 73.2314 280.083 91.9114 280.044C110.591 280.005 301.587 280.139 322.55 279.491C323.423 279.465 323.438 277.973 322.563 277.952ZM96.8851 274.605C98.9452 264.451 100.48 254.198 101.483 243.886C103.627 243.722 103.874 243.492 104.312 241.243C104.722 239.399 105.013 237.531 105.184 235.65C105.351 232.971 105.739 231.802 102.677 231.737C90.0631 231.46 74.7086 231.341 62.2431 232.191C62.0727 232.203 61.9134 232.28 61.7985 232.406C61.6837 232.533 61.6222 232.699 61.6271 232.869C61.632 233.04 61.7029 233.202 61.8248 233.322C61.9467 233.441 62.1102 233.509 62.281 233.511C75.8675 234.367 90.3509 232.678 103.489 233.837C103.47 236.586 103.149 239.325 102.532 242.004C89.048 242.939 76.2327 242.805 62.7522 242.64C61.8601 239.838 61.1889 236.97 60.7448 234.062C60.6145 233.293 59.3162 233.32 59.3359 234.138C59.4442 237.099 59.9936 240.027 60.966 242.825C61.4553 244.292 62.5295 244.523 64.0945 244.513C76.2145 244.431 87.7436 244.775 99.9151 243.998C98.6577 255.84 96.7336 263.629 95.4459 272.664C94.9899 275.852 96.5321 276.485 96.8851 274.605ZM128.927 213.467C129.639 213.482 129.927 212.334 129.167 212.18C124.584 211.246 119.415 210.924 115.548 214.061C110.72 217.979 112.541 226.018 113.399 231.494C115.015 241.807 120.368 264.088 124.44 274.769C124.778 275.655 126.223 275.072 125.975 274.208C122.734 262.879 117.962 246.62 115.421 231.296C114.798 227.536 113.427 221.133 115.118 217.681C117.604 212.636 124.293 213.363 128.927 213.467ZM64.0505 247.137C64.452 252.936 67.3275 269.256 69.4561 274.296C69.5396 274.456 69.6765 274.582 69.8431 274.652C70.0097 274.722 70.1956 274.732 70.3684 274.679C70.5412 274.626 70.6902 274.515 70.7895 274.364C70.8888 274.213 70.9321 274.032 70.912 273.852C68.7137 264.921 67.173 258.248 65.3989 246.905C65.2656 246.052 63.996 246.3 64.0505 247.137ZM81.3215 191.459C81.4145 191.604 81.56 191.708 81.7277 191.749C81.8953 191.789 82.0722 191.764 82.2214 191.677C82.3706 191.591 82.4807 191.45 82.5287 191.284C82.5767 191.119 82.5589 190.941 82.479 190.788C78.8437 184.305 77.6608 176.73 79.146 169.448C80.2853 164.309 82.7833 159.572 86.3791 155.729C89.975 151.886 94.5367 149.079 99.5879 147.601C101.397 154.105 101.865 160.909 100.964 167.599C99.2001 179.136 94.6217 185.264 87.3649 193.634C86.8271 194.256 87.6967 195.215 88.3602 194.695C93.0446 191.083 97.3154 184.282 99.5849 178.848C103.56 169.332 104.51 157.388 101.136 147.519C100.504 145.668 100.312 145.532 98.4895 146.101C92.0216 148.152 86.387 152.232 82.4214 157.738C78.9239 162.621 76.9525 168.432 76.7561 174.435C76.5598 180.438 78.1475 186.365 81.3185 191.467L81.3215 191.459ZM81.6018 229.879C81.6185 230.728 83.0683 230.74 83.0986 229.879C83.1259 229.131 83.1552 228.382 83.1865 227.631C89.8964 213.383 96.5549 205.608 108.748 195.795C109.323 195.331 108.596 194.244 107.917 194.583C98.7016 199.208 87.63 213.866 83.388 223.416C84.3637 202.458 86.0832 187.39 91.3705 166.401C91.5645 165.634 90.2722 165.277 90.0192 166.042C85.0545 181.105 82.5032 201.426 81.7427 217.297C76.0342 204.382 64.3854 194.045 51.526 188.606C50.7155 188.264 50.2762 189.515 51.0609 189.882C64.9989 196.245 75.2282 207.666 81.6003 221.412C81.5352 224.23 81.5458 227.048 81.5988 229.879H81.6018Z" fill="#38A1FF"/>
<path d="M185.976 193.359C184.734 194.978 183.696 195.162 182.896 197.47C182.295 199.271 182.374 201.229 183.117 202.976C183.186 203.132 183.191 203.308 183.133 203.468C183.074 203.628 182.957 203.759 182.804 203.834C182.651 203.909 182.475 203.922 182.313 203.871C182.15 203.819 182.014 203.707 181.933 203.558C181.357 202.568 180.993 201.469 180.864 200.331C180.736 199.192 180.845 198.04 181.186 196.946C181.719 195.234 183.396 192.654 185.255 192.265C185.392 192.241 185.534 192.257 185.662 192.312C185.789 192.367 185.899 192.459 185.975 192.575C186.052 192.691 186.093 192.827 186.093 192.967C186.093 193.106 186.053 193.242 185.976 193.359ZM190.267 196.895C190.343 196.8 190.393 196.687 190.411 196.567C190.43 196.447 190.416 196.325 190.371 196.212C190.326 196.099 190.252 196 190.156 195.926C190.06 195.851 189.946 195.803 189.826 195.787C187.875 195.716 186.244 198.389 185.952 200.079C185.769 201.117 185.892 202.186 186.308 203.155C186.723 204.124 187.413 204.951 188.291 205.533C188.431 205.633 188.605 205.676 188.775 205.652C188.946 205.628 189.101 205.539 189.208 205.404C189.315 205.269 189.367 205.099 189.352 204.927C189.337 204.755 189.256 204.596 189.127 204.482C188.568 203.956 188.141 203.304 187.885 202.58C187.628 201.856 187.548 201.081 187.652 200.32C188.052 198.025 189.638 197.511 190.267 196.895ZM239.262 190.467C239.11 189.586 237.747 189.686 237.747 190.527C237.785 196.304 235.836 202.312 225.804 204.3C214.778 206.333 203.393 204.026 194.028 197.861C193.892 197.765 193.723 197.727 193.558 197.754C193.393 197.782 193.245 197.873 193.147 198.008C193.049 198.144 193.008 198.312 193.033 198.477C193.059 198.643 193.148 198.791 193.282 198.892C202.362 205.891 214.946 208.309 226.134 206.215C234.499 204.647 240.851 199.932 239.262 190.467ZM196.893 207.548C195.718 207.659 179.192 208.142 178.066 207.579C176.941 207.015 172.461 192.644 171.375 178.744C171.063 174.739 170.435 172.894 165.557 172.176C161.606 171.593 130.471 171.884 127.703 172.176C125.325 172.426 123.517 173.361 123.714 178.121C124.182 189.438 130.156 210.693 133.377 212.425C136.88 214.302 192.601 213.82 196.752 212.987C200.176 212.299 199.552 207.298 196.893 207.548ZM147.685 188.124C143.246 188.285 144.418 197.669 149.75 197.46C154.516 197.278 153.299 187.921 147.685 188.124ZM156.293 253.532C156.088 252.774 154.91 253.068 154.963 253.822C155.093 255.648 156.334 261.959 156.9 264.906C157.014 265.5 158.035 265.188 158.135 264.643C158.37 263.356 156.758 255.26 156.293 253.532ZM164.589 253.38C164.203 252.774 163.156 253.198 163.416 253.91C164.693 256.907 165.712 260.007 166.46 263.178C166.611 263.915 167.801 263.731 167.774 262.955C167.409 259.571 166.325 256.305 164.592 253.376L164.589 253.38ZM181.792 262.846C180.753 259.857 180.202 256.72 180.16 253.556C180.146 253.4 180.077 253.254 179.966 253.145C179.854 253.035 179.707 252.969 179.551 252.958C179.395 252.947 179.24 252.992 179.115 253.085C178.989 253.178 178.9 253.313 178.865 253.465C178.485 256.412 178.764 259.406 179.683 262.232C180.592 265.146 182.627 267.612 182.146 270.716C182.112 270.889 182.141 271.067 182.228 271.22C182.315 271.373 182.454 271.489 182.62 271.547C182.786 271.605 182.967 271.602 183.13 271.538C183.294 271.473 183.428 271.352 183.51 271.196C185.029 268.506 182.719 265.318 181.792 262.841V262.846ZM142.502 253.778C142.422 253.643 142.297 253.541 142.149 253.49C142.001 253.439 141.84 253.442 141.694 253.499C141.548 253.556 141.427 253.663 141.353 253.801C141.279 253.94 141.256 254.1 141.29 254.253C141.838 256.828 144.155 261.781 142.603 264.1C142.534 264.218 142.501 264.353 142.508 264.489C142.515 264.625 142.562 264.755 142.643 264.865C142.723 264.975 142.834 265.059 142.962 265.106C143.089 265.153 143.228 265.162 143.361 265.132C146.541 264.102 143.779 255.716 142.502 253.774V253.778ZM156.417 240.365C154.64 233.385 152.584 221.609 158.394 216.049C149.321 215.914 141.758 215.746 139.884 215.746C136.443 215.746 132.241 216.561 131.188 221.471C129.899 227.489 134.44 241.142 138.881 251.086C144.774 251.433 150.683 251.412 156.573 251.024C156.287 247.477 156.232 243.915 156.411 240.36L156.417 240.365ZM161.744 216.096C152.048 222.398 159.032 243.133 161.939 251.395C168.226 251.748 174.529 251.727 180.813 251.33C180.1 248.265 179.974 239.947 181.349 238.195C182.725 236.444 186.859 236.612 193.03 236.694C193.076 229.564 192.736 218.835 197.051 215.457C193.204 216.326 176.267 216.282 161.744 216.091V216.096ZM217.496 184.319C208.295 187.893 203.478 186.667 194.165 186.234C187.758 185.931 178.93 187.621 177.18 194.99C177.135 195.158 177.157 195.336 177.242 195.487C177.326 195.638 177.466 195.751 177.632 195.8C177.798 195.85 177.977 195.832 178.13 195.752C178.284 195.672 178.4 195.535 178.454 195.371C181.369 187.768 190.271 187.608 197.125 188.224C203.979 188.841 212.027 189.403 218.138 185.531C218.299 185.447 218.421 185.302 218.475 185.128C218.53 184.955 218.513 184.766 218.429 184.605C218.345 184.444 218.2 184.322 218.026 184.268C217.853 184.213 217.665 184.23 217.503 184.314L217.496 184.319ZM215.087 149.989C207.932 144.123 205.892 131.21 203.056 125.087C197.418 112.906 185.314 109.107 172.797 111.92C163.041 114.112 163.175 124.555 177.544 123.352C185.208 122.71 188.861 120.777 188.888 120.763C189.749 124.125 193.5 129.265 193.942 128.315C195.024 125.985 197.31 126.97 197.683 129.112C198.223 132.221 196.525 133.787 194.762 133.719C194.133 133.695 197.266 144.605 198.046 146.641C198.251 147.174 198.933 147.085 199.423 147.095C204.772 147.154 210.07 148.133 215.087 149.989ZM213.084 108.158C205.255 102.024 191.464 95.1686 181.484 94.5838C180.831 94.503 180.168 94.589 179.557 94.8338C170.467 97.3411 157.547 103.683 150.318 109.693C149.872 110.063 150.222 110.702 150.681 110.84C155.544 112.104 160.339 113.618 165.047 115.376C165.921 115.742 166.287 114.348 165.454 113.989C161.233 112.23 156.86 110.857 152.39 109.888C160.502 104.506 171.426 97.885 180.954 95.9064C190.255 96.4866 203.574 102.866 211.03 108.498C205.585 109.649 200.221 111.152 194.971 112.999C194.817 113.058 194.691 113.173 194.62 113.322C194.548 113.471 194.537 113.641 194.587 113.799C194.638 113.956 194.746 114.088 194.891 114.167C195.035 114.246 195.205 114.267 195.365 114.226C201.534 112.582 206.544 110.838 212.813 109.597C212.955 109.551 213.083 109.467 213.182 109.355C213.281 109.242 213.347 109.105 213.375 108.958C213.403 108.811 213.39 108.659 213.339 108.518C213.288 108.378 213.2 108.253 213.084 108.158ZM149.554 133.583C150.715 136.128 151.322 138.891 151.333 141.688C151.254 142.406 150.228 142.374 150.007 141.775C149.66 140.829 149.53 139.626 149.218 138.604C149.104 140.432 149.147 142.256 149.047 144.082C149.053 144.256 148.991 144.427 148.874 144.556C148.757 144.685 148.593 144.764 148.419 144.775C148.245 144.786 148.073 144.728 147.941 144.614C147.808 144.5 147.726 144.339 147.71 144.165C147.495 142.365 147.397 140.553 147.419 138.74C146.9 139.997 146.5 141.3 146.227 142.632C146.193 142.795 146.096 142.937 145.957 143.028C145.818 143.119 145.649 143.151 145.486 143.117C145.324 143.083 145.181 142.986 145.091 142.847C145 142.708 144.968 142.539 145.002 142.376C145.311 139.749 145.948 137.171 146.897 134.701C147.307 133.953 148.768 132.318 149.554 133.583ZM149.716 112.329C149.768 112.185 149.869 112.064 150.002 111.988C150.134 111.912 150.29 111.886 150.44 111.914C150.59 111.943 150.725 112.024 150.821 112.143C150.917 112.262 150.967 112.411 150.963 112.564C150.006 118.587 149.554 124.68 149.613 130.779C149.613 131.676 148.28 131.563 148.25 130.698C148.054 124.54 148.546 118.379 149.716 112.329ZM174.752 105.263C174.621 104.668 173.593 104.542 173.515 105.198C173.399 106.186 173.318 109.413 173.343 110.361C173.34 110.544 173.408 110.72 173.532 110.854C173.657 110.987 173.828 111.068 174.011 111.077C174.193 111.087 174.372 111.026 174.51 110.906C174.648 110.787 174.735 110.619 174.752 110.437C174.868 108.714 174.868 106.986 174.752 105.263ZM189.093 104.354C185.016 102.464 180.406 102.062 176.064 103.219C175.981 103.24 175.903 103.278 175.835 103.33C175.768 103.382 175.711 103.447 175.67 103.521C175.628 103.596 175.602 103.678 175.594 103.763C175.585 103.848 175.594 103.934 175.62 104.015C175.646 104.096 175.688 104.172 175.744 104.236C175.8 104.301 175.868 104.353 175.945 104.39C176.022 104.427 176.106 104.448 176.191 104.451C176.276 104.455 176.361 104.441 176.441 104.41C180.599 103.619 184.9 104.119 188.765 105.843C188.551 107.535 188.528 109.246 188.694 110.943C188.7 111.126 188.778 111.3 188.911 111.425C189.044 111.551 189.222 111.619 189.405 111.613C189.589 111.608 189.762 111.53 189.888 111.396C190.014 111.263 190.081 111.085 190.076 110.902C189.811 105.281 190.676 105.224 189.093 104.354ZM186.382 146.956C188.708 145.938 190.768 144.399 192.404 142.458C192.889 141.905 192.015 141.134 191.474 141.594C188.78 143.879 185.963 146.58 182.128 146.17C178.045 145.732 176.859 141.572 176.012 138.195C175.811 137.389 174.555 137.589 174.726 138.426C175.544 142.394 177.06 146.789 181.612 147.544C182.762 147.729 183.939 147.674 185.067 147.38C185.275 148.724 185.037 150.025 185.143 151.168C185.17 151.321 185.251 151.46 185.372 151.559C185.493 151.657 185.646 151.709 185.802 151.704C185.958 151.7 186.107 151.639 186.221 151.533C186.336 151.427 186.409 151.283 186.426 151.128C186.583 149.74 186.568 148.338 186.382 146.954V146.956ZM188.537 136.82C188.495 136.665 188.4 136.53 188.267 136.44C188.134 136.35 187.974 136.31 187.814 136.328C187.655 136.347 187.507 136.422 187.399 136.54C187.29 136.658 187.228 136.812 187.223 136.972C187.464 139.37 185.135 139.926 183.322 140.414C183.165 140.459 183.032 140.563 182.951 140.704C182.869 140.845 182.846 141.012 182.885 141.17C182.924 141.328 183.023 141.465 183.161 141.551C183.299 141.638 183.466 141.667 183.625 141.634C185.911 141.42 189.215 140.287 188.537 136.819V136.82ZM181.289 136.419C180.803 136.557 180.292 136.574 179.798 136.469C180.004 135.748 180.218 135.033 180.386 134.303C180.434 134.144 180.417 133.972 180.339 133.825C180.261 133.679 180.128 133.569 179.97 133.52C179.811 133.471 179.639 133.487 179.492 133.564C179.345 133.641 179.234 133.773 179.184 133.931C178.927 134.629 178.699 135.336 178.5 136.052C178.414 136.236 178.375 136.438 178.385 136.641C178.396 136.843 178.455 137.04 178.558 137.214C178.662 137.389 178.806 137.535 178.979 137.641C179.151 137.748 179.347 137.81 179.55 137.823C180.29 137.965 181.055 137.923 181.775 137.701C181.868 137.675 181.954 137.631 182.029 137.57C182.103 137.51 182.164 137.434 182.208 137.349C182.252 137.263 182.277 137.169 182.282 137.073C182.287 136.977 182.273 136.881 182.239 136.791C182.204 136.701 182.152 136.62 182.084 136.551C182.017 136.483 181.936 136.429 181.846 136.394C181.757 136.359 181.661 136.343 181.565 136.347C181.469 136.351 181.375 136.375 181.289 136.417V136.419ZM175.811 133.465C175.776 132.915 175.547 132.298 174.912 132.253C173.315 132.144 173.932 135.081 175.18 134.933C175.851 134.856 175.844 133.963 175.811 133.463V133.465ZM184.893 130.457C184.852 130.311 184.779 130.175 184.678 130.061C184.578 129.946 184.453 129.856 184.313 129.797C184.172 129.737 184.02 129.71 183.868 129.718C183.716 129.726 183.568 129.768 183.434 129.841C183.188 130.044 183.021 130.327 182.963 130.641C182.906 130.955 182.961 131.279 183.119 131.556C183.795 133.124 185.779 132.747 184.893 130.457ZM191.226 127.2C190.055 126.886 188.823 126.884 187.652 127.193C185.193 122.173 179.698 122.97 180.13 128.949C179.79 128.898 179.444 128.919 179.113 129.009C178.782 129.099 178.473 129.256 178.206 129.471C177.954 128.705 177.511 128.015 176.919 127.466C176.327 126.918 175.606 126.529 174.823 126.335C171.213 125.747 170.544 130.548 171.187 133.153C171.688 135.178 173.244 137.32 175.591 137.03C179.116 136.593 178.432 131.229 178.535 131.091C178.708 130.8 178.973 130.576 179.288 130.454C179.603 130.332 179.95 130.319 180.274 130.417C180.728 132.909 182.698 135.846 185.605 135.157C188.397 134.495 188.787 130.741 188.131 128.45C189.121 128.344 190.119 128.336 191.111 128.429C191.246 128.401 191.369 128.33 191.461 128.227C191.554 128.123 191.61 127.993 191.622 127.855C191.635 127.717 191.602 127.579 191.529 127.461C191.457 127.343 191.348 127.252 191.22 127.2H191.226ZM185.602 133.634C187.622 132.688 186.966 128.902 186.216 127.517C185.625 126.42 184.167 124.726 182.748 125.403C181.513 125.991 181.172 127.779 181.536 129.524C182.107 132.36 183.333 134.695 185.596 133.634H185.602ZM177.098 130.877C176.836 129.23 175.994 127.741 174.352 127.696C172.262 127.641 172.099 131.204 172.412 132.678C172.694 133.993 173.737 135.771 175.318 135.654C177.236 135.515 177.279 132.057 177.092 130.877H177.098Z" fill="#191919"/>
</g>
<path d="M113.789 362.416H108.076V359.889H113.789V362.416ZM115.583 370.301H112.483V354.054H115.583V370.301ZM116.121 375.868H100.837V373.353H116.121V375.868ZM103.962 374.635H100.837V368.653H103.962V374.635ZM103.059 355.384C104.133 355.384 105.118 355.628 106.013 356.117C106.917 356.597 107.629 357.268 108.149 358.131C108.67 358.985 108.935 359.954 108.943 361.036C108.935 362.11 108.666 363.079 108.137 363.941C107.616 364.804 106.908 365.484 106.013 365.98C105.118 366.468 104.133 366.712 103.059 366.712C101.944 366.712 100.935 366.468 100.032 365.98C99.1366 365.484 98.4285 364.808 97.9077 363.954C97.395 363.091 97.1387 362.118 97.1387 361.036C97.1387 359.954 97.395 358.985 97.9077 358.131C98.4285 357.268 99.1366 356.597 100.032 356.117C100.935 355.628 101.944 355.384 103.059 355.384ZM103.059 358.106C102.489 358.098 101.981 358.212 101.533 358.448C101.094 358.684 100.744 359.022 100.483 359.461C100.223 359.901 100.093 360.426 100.093 361.036C100.093 361.638 100.223 362.163 100.483 362.611C100.744 363.058 101.098 363.408 101.545 363.661C101.993 363.905 102.498 364.027 103.059 364.027C103.604 364.027 104.097 363.905 104.536 363.661C104.984 363.408 105.334 363.058 105.586 362.611C105.838 362.163 105.964 361.638 105.964 361.036C105.964 360.434 105.838 359.913 105.586 359.474C105.334 359.026 104.988 358.684 104.548 358.448C104.109 358.212 103.612 358.098 103.059 358.106ZM137.666 376.246H134.736V354.005H137.666V376.246ZM131.025 364.161H127.278V361.659H131.025V364.161ZM133.125 375.233H130.208V354.396H133.125V375.233ZM124.849 359.974C124.84 361.708 124.661 363.355 124.312 364.918C123.962 366.48 123.416 367.888 122.676 369.142C121.943 370.395 121.012 371.367 119.88 372.059L118 369.764C119.042 369.121 119.901 368.283 120.576 367.25C121.252 366.208 121.74 365.073 122.041 363.844C122.342 362.607 122.493 361.317 122.493 359.974V357.643H124.849V359.974ZM125.496 359.974C125.496 361.284 125.642 362.525 125.935 363.697C126.228 364.869 126.7 365.943 127.351 366.92C128.01 367.888 128.857 368.67 129.89 369.264L128.071 371.546C126.932 370.879 126 369.955 125.276 368.775C124.552 367.595 124.023 366.265 123.689 364.784C123.363 363.294 123.201 361.691 123.201 359.974V357.643H125.496V359.974ZM128.865 358.778H118.843V356.288H128.865V358.778ZM151.985 355.58C153.092 355.58 154.08 355.905 154.951 356.556C155.83 357.199 156.514 358.123 157.002 359.327C157.49 360.523 157.734 361.915 157.734 363.502C157.734 365.097 157.49 366.497 157.002 367.701C156.514 368.897 155.83 369.817 154.951 370.46C154.08 371.103 153.092 371.424 151.985 371.424C150.862 371.424 149.865 371.103 148.994 370.46C148.123 369.817 147.44 368.897 146.943 367.701C146.447 366.497 146.199 365.097 146.199 363.502C146.199 361.915 146.447 360.523 146.943 359.327C147.44 358.123 148.123 357.199 148.994 356.556C149.865 355.905 150.862 355.58 151.985 355.58ZM151.985 358.399C151.423 358.391 150.935 358.587 150.52 358.985C150.105 359.384 149.779 359.966 149.543 360.731C149.307 361.496 149.194 362.42 149.202 363.502C149.194 364.584 149.307 365.508 149.543 366.273C149.779 367.038 150.105 367.62 150.52 368.019C150.935 368.409 151.423 368.604 151.985 368.604C152.546 368.604 153.039 368.409 153.462 368.019C153.885 367.62 154.211 367.038 154.438 366.273C154.666 365.508 154.78 364.584 154.78 363.502C154.78 362.42 154.666 361.496 154.438 360.731C154.211 359.958 153.885 359.376 153.462 358.985C153.039 358.587 152.546 358.391 151.985 358.399ZM164.607 376.307H161.519V354.005H164.607V376.307ZM162.849 364.552H156.807V362.049H162.849V364.552ZM186.067 376.307H182.905V354.005H186.067V376.307ZM170.735 368.36C173.331 368.368 175.357 368.336 176.814 368.263C178.279 368.181 179.727 368.01 181.16 367.75L181.44 370.301C179.976 370.586 178.466 370.777 176.912 370.875C175.365 370.965 173.306 371.009 170.735 371.009H168.818V368.36H170.735ZM179.609 358.509H171.931V369.386H168.818V355.97H179.609V358.509ZM206.294 363.526H200.374V361.024H206.294V363.526ZM196.846 359.046C196.838 360.951 196.61 362.737 196.162 364.405C195.715 366.074 195.031 367.555 194.111 368.849C193.192 370.134 192.056 371.115 190.706 371.791L188.752 369.239C189.981 368.694 191.011 367.892 191.841 366.834C192.671 365.768 193.289 364.572 193.696 363.246C194.103 361.911 194.311 360.511 194.319 359.046V355.726H196.846V359.046ZM197.48 359.046C197.48 360.503 197.676 361.878 198.066 363.172C198.457 364.458 199.055 365.606 199.861 366.615C200.667 367.616 201.667 368.377 202.864 368.897L200.959 371.388C199.617 370.729 198.502 369.789 197.615 368.568C196.728 367.339 196.064 365.923 195.625 364.32C195.194 362.708 194.978 360.951 194.978 359.046V355.726H197.48V359.046ZM207.82 376.307H204.731V354.005H207.82V376.307ZM231.343 364.991H227.4V362.44H231.343V364.991ZM228.206 376.209H225.081V354.005H228.206V376.209ZM214.497 369.947H211.384V356.141H214.497V369.947ZM213.313 368.214C215.014 368.214 216.715 368.141 218.416 367.994C220.125 367.84 221.846 367.587 223.579 367.237L223.921 369.825C222.188 370.183 220.446 370.431 218.696 370.57C216.947 370.708 215.152 370.777 213.313 370.777H211.384V368.214H213.313ZM234.858 379.151H232.271L233.479 372.206H236.97L234.858 379.151ZM86.4331 411.246H83.4302V389.005H86.4331V411.246ZM84.248 400.138H80.4761V397.611H84.248V400.138ZM81.355 410.172H78.4375V389.408H81.355V410.172ZM71.2842 404.325H68.1714V391.495H71.2842V404.325ZM69.6606 403.128C70.9465 403.128 72.1956 403.084 73.4082 402.994C74.6289 402.905 75.8822 402.734 77.168 402.481L77.4976 405.167C76.0897 405.411 74.7428 405.586 73.457 405.692C72.1794 405.79 70.9139 405.834 69.6606 405.826H68.1714V403.128H69.6606ZM112.629 410.868H97.1143V408.353H112.629V410.868ZM100.227 409.22H97.1143V404.398H100.227V409.22ZM114.937 403.043H94.6729V400.541H114.937V403.043ZM106.306 401.542H103.218V397.403H106.306V401.542ZM105.818 390.335C105.81 391.76 105.452 393.054 104.744 394.217C104.044 395.381 103.027 396.362 101.692 397.159C100.357 397.957 98.7744 398.494 96.9434 398.771L95.7349 396.329C97.3136 396.109 98.6646 395.694 99.7876 395.084C100.911 394.474 101.753 393.757 102.314 392.936C102.884 392.114 103.169 391.247 103.169 390.335V389.664H105.818V390.335ZM106.343 390.335C106.343 391.296 106.624 392.191 107.185 393.021C107.747 393.843 108.585 394.551 109.7 395.145C110.823 395.731 112.186 396.126 113.789 396.329L112.593 398.771C110.737 398.469 109.142 397.928 107.808 397.147C106.473 396.366 105.448 395.397 104.731 394.242C104.023 393.086 103.674 391.784 103.682 390.335V389.664H106.343V390.335ZM139.68 405.216H136.567V389.042H139.68V405.216ZM142.683 397.989H138.777V395.426H142.683V397.989ZM140.474 410.868H125.264V408.353H140.474V410.868ZM128.376 409.476H125.264V403.519H128.376V409.476ZM128.291 390.458C129.414 390.458 130.439 390.698 131.367 391.178C132.303 391.658 133.035 392.329 133.564 393.192C134.093 394.055 134.362 395.023 134.37 396.097C134.362 397.171 134.093 398.14 133.564 399.002C133.035 399.857 132.303 400.528 131.367 401.017C130.439 401.505 129.414 401.749 128.291 401.749C127.168 401.749 126.143 401.505 125.215 401.017C124.287 400.528 123.551 399.857 123.005 399.002C122.468 398.14 122.2 397.171 122.2 396.097C122.2 395.023 122.468 394.055 123.005 393.192C123.551 392.329 124.283 391.658 125.203 391.178C126.13 390.698 127.16 390.458 128.291 390.458ZM128.291 393.167C127.729 393.167 127.217 393.285 126.753 393.521C126.297 393.749 125.935 394.087 125.667 394.535C125.398 394.982 125.264 395.503 125.264 396.097C125.264 396.691 125.398 397.208 125.667 397.647C125.935 398.087 126.297 398.429 126.753 398.673C127.217 398.909 127.729 399.027 128.291 399.027C128.869 399.027 129.386 398.909 129.841 398.673C130.305 398.437 130.667 398.099 130.928 397.66C131.196 397.212 131.331 396.691 131.331 396.097C131.331 395.495 131.196 394.974 130.928 394.535C130.667 394.087 130.305 393.749 129.841 393.521C129.386 393.285 128.869 393.167 128.291 393.167ZM150.862 390.506C152.017 390.506 153.063 390.742 153.999 391.214C154.943 391.678 155.68 392.325 156.208 393.155C156.746 393.985 157.014 394.921 157.014 395.963C157.014 397.013 156.746 397.953 156.208 398.783C155.68 399.605 154.943 400.252 153.999 400.724C153.063 401.188 152.017 401.419 150.862 401.419C149.698 401.419 148.644 401.188 147.7 400.724C146.764 400.252 146.028 399.605 145.491 398.783C144.954 397.953 144.685 397.013 144.685 395.963C144.685 394.921 144.954 393.985 145.491 393.155C146.028 392.325 146.764 391.678 147.7 391.214C148.644 390.742 149.698 390.506 150.862 390.506ZM150.862 393.192C150.268 393.2 149.739 393.314 149.275 393.534C148.811 393.745 148.445 394.063 148.176 394.486C147.908 394.909 147.773 395.401 147.773 395.963C147.773 396.541 147.908 397.037 148.176 397.452C148.445 397.859 148.811 398.172 149.275 398.392C149.739 398.612 150.268 398.726 150.862 398.734C151.456 398.726 151.989 398.612 152.461 398.392C152.941 398.172 153.311 397.859 153.572 397.452C153.84 397.037 153.975 396.541 153.975 395.963C153.975 395.401 153.84 394.909 153.572 394.486C153.311 394.063 152.941 393.745 152.461 393.534C151.989 393.314 151.456 393.2 150.862 393.192ZM162.324 411.307H159.236V389.005H162.324V411.307ZM143.757 404.227C146.41 404.227 148.913 404.182 151.265 404.093C153.625 404.003 155.863 403.812 157.979 403.519L158.198 405.753C156.676 406.054 155.098 406.278 153.462 406.424C151.826 406.563 150.284 406.652 148.835 406.693C147.387 406.734 145.816 406.754 144.124 406.754L143.757 404.227ZM189.778 405.301H186.677V389.054H189.778V405.301ZM187.117 398.026H182.698V395.487H187.117V398.026ZM182.905 390.677C182.897 392.655 182.49 394.457 181.685 396.085C180.879 397.704 179.707 399.108 178.169 400.296C176.631 401.476 174.779 402.404 172.615 403.08L171.333 400.589C173.042 400.052 174.515 399.361 175.752 398.514C176.997 397.66 177.945 396.687 178.596 395.597C179.255 394.506 179.589 393.334 179.597 392.081V390.677H182.905ZM181.587 393.229H172.493V390.677H181.587V393.229ZM190.352 410.868H175.117V408.353H190.352V410.868ZM178.279 409.793H175.117V403.641H178.279V409.793ZM210.286 401.932H207.173V389.005H210.286V401.932ZM213.289 396.805H209.407V394.278H213.289V396.805ZM204.109 390.482C204.109 392.451 203.706 394.221 202.9 395.792C202.103 397.354 200.931 398.697 199.385 399.82C197.847 400.935 195.975 401.802 193.77 402.42L192.5 399.906C194.282 399.434 195.792 398.803 197.029 398.014C198.266 397.224 199.198 396.325 199.824 395.316C200.451 394.307 200.764 393.216 200.764 392.044V390.482H204.109ZM202.681 392.984H193.55V390.482H202.681V392.984ZM203.022 402.201C204.52 402.201 205.834 402.384 206.965 402.75C208.105 403.108 208.984 403.629 209.602 404.312C210.221 404.996 210.53 405.798 210.53 406.717C210.53 407.645 210.221 408.451 209.602 409.134C208.984 409.818 208.109 410.343 206.978 410.709C205.846 411.075 204.528 411.258 203.022 411.258C201.525 411.258 200.207 411.075 199.067 410.709C197.936 410.343 197.057 409.818 196.431 409.134C195.812 408.451 195.503 407.645 195.503 406.717C195.503 405.806 195.816 405.008 196.443 404.325C197.069 403.633 197.948 403.108 199.08 402.75C200.219 402.384 201.533 402.201 203.022 402.201ZM203.022 404.618C202.095 404.61 201.301 404.691 200.642 404.862C199.983 405.025 199.474 405.265 199.116 405.582C198.758 405.891 198.583 406.27 198.591 406.717C198.583 407.165 198.758 407.547 199.116 407.865C199.474 408.182 199.983 408.426 200.642 408.597C201.301 408.76 202.095 408.841 203.022 408.841C203.95 408.841 204.744 408.76 205.403 408.597C206.07 408.426 206.579 408.182 206.929 407.865C207.287 407.547 207.466 407.165 207.466 406.717C207.466 406.27 207.287 405.891 206.929 405.582C206.579 405.265 206.07 405.025 205.403 404.862C204.736 404.691 203.942 404.61 203.022 404.618ZM238.655 411.307H235.493V389.005H238.655V411.307ZM224.275 396.207H229.072V390.799H232.136V406.107H221.162V390.799H224.275V396.207ZM229.072 403.568V398.624H224.275V403.568H229.072ZM258.882 398.526H252.961V396.024H258.882V398.526ZM249.434 394.046C249.425 395.951 249.198 397.737 248.75 399.405C248.302 401.074 247.619 402.555 246.699 403.849C245.78 405.134 244.644 406.115 243.293 406.791L241.34 404.239C242.569 403.694 243.599 402.892 244.429 401.834C245.259 400.768 245.877 399.572 246.284 398.246C246.691 396.911 246.899 395.511 246.907 394.046V390.726H249.434V394.046ZM250.068 394.046C250.068 395.503 250.264 396.878 250.654 398.172C251.045 399.458 251.643 400.606 252.449 401.615C253.254 402.616 254.255 403.377 255.452 403.897L253.547 406.388C252.205 405.729 251.09 404.789 250.203 403.568C249.316 402.339 248.652 400.923 248.213 399.32C247.782 397.708 247.566 395.951 247.566 394.046V390.726H250.068V394.046ZM260.408 411.307H257.319V389.005H260.408V411.307Z" fill="#01A4FC"/>
<path d="M97.7368 426.324H101.399V433.648H109.065V426.324H112.727V444H109.065V436.664H101.399V444H97.7368V426.324ZM121.663 444.256C120.32 444.256 119.152 443.98 118.159 443.426C117.174 442.873 116.418 442.083 115.889 441.058C115.36 440.033 115.095 438.828 115.095 437.445C115.095 436.086 115.36 434.885 115.889 433.844C116.426 432.802 117.174 431.996 118.135 431.427C119.103 430.857 120.23 430.572 121.516 430.572C122.704 430.572 123.766 430.825 124.702 431.329C125.638 431.826 126.375 432.578 126.912 433.587C127.457 434.597 127.729 435.829 127.729 437.286V438.299H116.572V436.041H124.324C124.316 435.512 124.194 435.036 123.958 434.613C123.73 434.19 123.408 433.86 122.993 433.624C122.578 433.388 122.106 433.27 121.577 433.27C121.016 433.27 120.515 433.4 120.076 433.661C119.636 433.913 119.29 434.263 119.038 434.71C118.794 435.158 118.668 435.646 118.66 436.175V438.299C118.66 438.967 118.786 439.544 119.038 440.033C119.299 440.513 119.657 440.887 120.112 441.156C120.568 441.424 121.101 441.559 121.711 441.559C122.118 441.55 122.489 441.489 122.822 441.375C123.156 441.262 123.437 441.111 123.665 440.924C123.892 440.729 124.071 440.501 124.202 440.24H127.644C127.465 441.054 127.111 441.762 126.582 442.364C126.053 442.966 125.369 443.434 124.531 443.768C123.693 444.094 122.737 444.256 121.663 444.256ZM137.776 438.275C137.556 438.291 137.377 438.303 137.239 438.312C137.109 438.32 136.917 438.332 136.665 438.348C135.99 438.373 135.396 438.413 134.883 438.47C134.24 438.519 133.735 438.694 133.369 438.995C133.011 439.288 132.828 439.687 132.82 440.191C132.82 440.517 132.905 440.798 133.076 441.034C133.247 441.262 133.479 441.437 133.772 441.559C134.073 441.681 134.419 441.738 134.81 441.729C135.347 441.738 135.827 441.636 136.25 441.424C136.681 441.205 137.015 440.908 137.251 440.533C137.487 440.151 137.605 439.728 137.605 439.264L137.581 434.979C137.581 434.605 137.499 434.287 137.336 434.027C137.182 433.758 136.946 433.559 136.628 433.429C136.311 433.29 135.929 433.221 135.481 433.221C134.862 433.221 134.362 433.351 133.979 433.612C133.605 433.864 133.369 434.222 133.271 434.686H129.829C129.902 433.905 130.175 433.205 130.647 432.586C131.119 431.96 131.77 431.467 132.6 431.109C133.438 430.751 134.427 430.572 135.566 430.572C136.592 430.572 137.528 430.727 138.374 431.036C139.22 431.345 139.9 431.842 140.413 432.525C140.925 433.201 141.186 434.047 141.194 435.064V444H137.764V442.169H137.666C137.324 442.812 136.828 443.32 136.177 443.695C135.534 444.061 134.732 444.244 133.772 444.244C132.917 444.244 132.161 444.098 131.501 443.805C130.842 443.504 130.321 443.056 129.939 442.462C129.556 441.868 129.365 441.148 129.365 440.301C129.365 438.926 129.821 437.925 130.732 437.298C131.644 436.664 132.832 436.301 134.297 436.212C134.696 436.179 135.127 436.155 135.591 436.139C136.063 436.114 136.514 436.09 136.946 436.065C137.214 436.057 137.483 436.049 137.751 436.041L137.776 438.275ZM147.554 444H143.94V426.324H147.554V444ZM157.344 433.453H149.409V430.743H157.344V433.453ZM154.854 427.569V439.923C154.854 440.265 154.902 440.533 155 440.729C155.106 440.916 155.248 441.05 155.427 441.131C155.614 441.213 155.842 441.253 156.111 441.253C156.233 441.262 156.383 441.262 156.562 441.253C156.742 441.245 156.921 441.237 157.1 441.229L157.527 441.192V444.049C156.973 444.138 156.343 444.183 155.635 444.183C154.74 444.183 153.962 444.049 153.303 443.78C152.644 443.504 152.131 443.089 151.765 442.535C151.407 441.974 151.228 441.27 151.228 440.423V427.569H154.854ZM163.521 444H159.907V426.324H163.423V433.062H163.569C163.879 432.273 164.367 431.663 165.034 431.231C165.71 430.792 166.54 430.572 167.524 430.572C168.452 430.572 169.262 430.772 169.954 431.17C170.645 431.569 171.178 432.143 171.553 432.892C171.927 433.64 172.114 434.527 172.114 435.553V444H168.501V436.175C168.501 435.63 168.407 435.162 168.22 434.771C168.033 434.381 167.756 434.084 167.39 433.88C167.032 433.677 166.605 433.575 166.108 433.575C165.596 433.575 165.148 433.685 164.766 433.905C164.383 434.116 164.078 434.43 163.85 434.845C163.63 435.26 163.521 435.752 163.521 436.322V444ZM185.31 426.324L190.229 438.299H190.437L195.344 426.324H199.873V444H196.309V432.416H196.162L191.548 443.915H189.094L184.492 432.391H184.346V444H180.793V426.324H185.31ZM210.554 438.275C210.334 438.291 210.155 438.303 210.017 438.312C209.887 438.32 209.696 438.332 209.443 438.348C208.768 438.373 208.174 438.413 207.661 438.47C207.018 438.519 206.514 438.694 206.147 438.995C205.789 439.288 205.606 439.687 205.598 440.191C205.598 440.517 205.684 440.798 205.854 441.034C206.025 441.262 206.257 441.437 206.55 441.559C206.851 441.681 207.197 441.738 207.588 441.729C208.125 441.738 208.605 441.636 209.028 441.424C209.46 441.205 209.793 440.908 210.029 440.533C210.265 440.151 210.383 439.728 210.383 439.264L210.359 434.979C210.359 434.605 210.278 434.287 210.115 434.027C209.96 433.758 209.724 433.559 209.407 433.429C209.089 433.29 208.707 433.221 208.259 433.221C207.641 433.221 207.14 433.351 206.758 433.612C206.383 433.864 206.147 434.222 206.05 434.686H202.607C202.681 433.905 202.953 433.205 203.425 432.586C203.897 431.96 204.548 431.467 205.378 431.109C206.217 430.751 207.205 430.572 208.345 430.572C209.37 430.572 210.306 430.727 211.152 431.036C211.999 431.345 212.678 431.842 213.191 432.525C213.704 433.201 213.964 434.047 213.972 435.064V444H210.542V442.169H210.444C210.103 442.812 209.606 443.32 208.955 443.695C208.312 444.061 207.511 444.244 206.55 444.244C205.696 444.244 204.939 444.098 204.28 443.805C203.621 443.504 203.1 443.056 202.717 442.462C202.335 441.868 202.144 441.148 202.144 440.301C202.144 438.926 202.599 437.925 203.511 437.298C204.422 436.664 205.61 436.301 207.075 436.212C207.474 436.179 207.905 436.155 208.369 436.139C208.841 436.114 209.293 436.09 209.724 436.065C209.993 436.057 210.261 436.049 210.53 436.041L210.554 438.275ZM223.701 433.453H215.767V430.743H223.701V433.453ZM221.211 427.569V439.923C221.211 440.265 221.26 440.533 221.357 440.729C221.463 440.916 221.606 441.05 221.785 441.131C221.972 441.213 222.2 441.253 222.468 441.253C222.59 441.262 222.741 441.262 222.92 441.253C223.099 441.245 223.278 441.237 223.457 441.229L223.884 441.192V444.049C223.331 444.138 222.7 444.183 221.992 444.183C221.097 444.183 220.32 444.049 219.661 443.78C219.001 443.504 218.489 443.089 218.123 442.535C217.764 441.974 217.585 441.27 217.585 440.423V427.569H221.211ZM231.843 444.256C230.5 444.256 229.333 443.98 228.34 443.426C227.355 442.873 226.598 442.083 226.069 441.058C225.54 440.033 225.276 438.828 225.276 437.445C225.276 436.086 225.54 434.885 226.069 433.844C226.606 432.802 227.355 431.996 228.315 431.427C229.284 430.857 230.411 430.572 231.697 430.572C232.885 430.572 233.947 430.825 234.883 431.329C235.819 431.826 236.555 432.578 237.092 433.587C237.638 434.597 237.91 435.829 237.91 437.286V438.299H226.753V436.041H234.504C234.496 435.512 234.374 435.036 234.138 434.613C233.91 434.19 233.589 433.86 233.174 433.624C232.759 433.388 232.287 433.27 231.758 433.27C231.196 433.27 230.696 433.4 230.256 433.661C229.817 433.913 229.471 434.263 229.219 434.71C228.975 435.158 228.848 435.646 228.84 436.175V438.299C228.84 438.967 228.966 439.544 229.219 440.033C229.479 440.513 229.837 440.887 230.293 441.156C230.749 441.424 231.282 441.559 231.892 441.559C232.299 441.55 232.669 441.489 233.003 441.375C233.337 441.262 233.617 441.111 233.845 440.924C234.073 440.729 234.252 440.501 234.382 440.24H237.825C237.646 441.054 237.292 441.762 236.763 442.364C236.234 442.966 235.55 443.434 234.712 443.768C233.874 444.094 232.917 444.256 231.843 444.256Z" fill="#1E1E1E"/>
<path d="M72.511 474.162H73.6096V478.093H78.2849V474.162H79.3958V483H78.2849V479.057H73.6096V483H72.511V474.162ZM83.9856 483.134C83.3549 483.134 82.8056 482.994 82.3376 482.713C81.8738 482.432 81.5157 482.036 81.2634 481.523C81.0111 481.01 80.885 480.416 80.885 479.741C80.885 479.065 81.0111 478.465 81.2634 477.94C81.5157 477.415 81.8677 477.008 82.3193 476.719C82.771 476.431 83.2939 476.286 83.8879 476.286C84.3884 476.286 84.8543 476.396 85.2856 476.616C85.721 476.835 86.073 477.194 86.3416 477.69C86.6101 478.186 86.7444 478.821 86.7444 479.594V480.034H81.6174V479.143H85.6824C85.6824 478.776 85.6091 478.447 85.4626 478.154C85.3162 477.861 85.1066 477.631 84.834 477.464C84.5614 477.297 84.246 477.214 83.8879 477.214C83.4973 477.214 83.1555 477.309 82.8625 477.501C82.5696 477.692 82.3417 477.948 82.179 478.27C82.0203 478.591 81.9389 478.935 81.9348 479.301V479.899C81.9348 480.388 82.0223 480.805 82.1973 481.151C82.3722 481.497 82.6123 481.759 82.9175 481.938C83.2227 482.117 83.5787 482.207 83.9856 482.207C84.2379 482.207 84.4657 482.172 84.6692 482.103C84.8726 482.034 85.0435 481.944 85.1819 481.834C85.3243 481.72 85.4382 481.592 85.5237 481.45H86.6467C86.5409 481.787 86.366 482.084 86.1218 482.341C85.8777 482.593 85.5725 482.788 85.2063 482.927C84.8401 483.065 84.4332 483.134 83.9856 483.134ZM92.1643 479.924C91.9283 479.94 91.7513 479.952 91.6333 479.96C91.5194 479.969 91.3464 479.981 91.1145 479.997C90.8785 480.013 90.6425 480.03 90.4065 480.046C89.9101 480.078 89.5256 480.186 89.2529 480.369C88.9844 480.552 88.8481 480.819 88.844 481.169C88.844 481.397 88.905 481.59 89.0271 481.749C89.1492 481.907 89.3119 482.028 89.5154 482.109C89.7229 482.186 89.963 482.223 90.2356 482.219C90.614 482.219 90.9416 482.143 91.2183 481.993C91.499 481.842 91.7126 481.643 91.8591 481.395C92.0056 481.147 92.0789 480.88 92.0789 480.595V478.532C92.0789 478.251 92.0239 478.011 91.9141 477.812C91.8042 477.609 91.6353 477.456 91.4075 477.354C91.1837 477.253 90.907 477.202 90.5774 477.202C90.1746 477.202 89.845 477.285 89.5886 477.452C89.3323 477.615 89.1654 477.828 89.0881 478.093H87.9895C88.0343 477.739 88.1726 477.425 88.4045 477.153C88.6405 476.876 88.9498 476.663 89.3323 476.512C89.7148 476.361 90.1461 476.286 90.6262 476.286C91.0087 476.286 91.3851 476.343 91.7554 476.457C92.1257 476.571 92.4451 476.803 92.7136 477.153C92.9822 477.499 93.1165 477.991 93.1165 478.63V483H92.0789V482.097H92.03C91.8958 482.373 91.6618 482.62 91.3281 482.835C90.9985 483.047 90.5733 483.155 90.0525 483.159C89.6293 483.155 89.2468 483.073 88.905 482.915C88.5632 482.752 88.2926 482.518 88.0933 482.213C87.8939 481.903 87.7942 481.539 87.7942 481.12C87.7942 480.437 88.0282 479.954 88.4961 479.674C88.9681 479.389 89.5642 479.22 90.2844 479.167C90.4757 479.151 90.6954 479.136 90.9436 479.124C91.1918 479.108 91.436 479.094 91.676 479.082C91.8347 479.077 91.9934 479.073 92.1521 479.069L92.1643 479.924ZM95.8508 483H94.801V474.162H95.8508V483ZM100.416 477.25H96.9617V476.372H100.416V477.25ZM99.0247 474.785V481.096C99.0247 481.36 99.0633 481.566 99.1406 481.712C99.2179 481.855 99.3197 481.952 99.4458 482.005C99.5719 482.058 99.7205 482.084 99.8914 482.084C99.9646 482.084 100.04 482.082 100.117 482.078C100.199 482.074 100.278 482.072 100.355 482.072L100.514 482.06V483.037C100.294 483.069 100.05 483.085 99.7815 483.085C99.4722 483.085 99.1793 483.02 98.9026 482.89C98.6259 482.76 98.4001 482.567 98.2251 482.31C98.0501 482.05 97.9626 481.735 97.9626 481.364V474.785H99.0247ZM102.968 483H101.918V474.162H102.968V477.409H103.053C103.216 477.051 103.456 476.774 103.773 476.579C104.091 476.384 104.502 476.286 105.006 476.286C105.466 476.286 105.865 476.378 106.202 476.561C106.544 476.744 106.807 477.023 106.99 477.397C107.173 477.771 107.264 478.235 107.264 478.789V483H106.215V478.862C106.215 478.516 106.154 478.221 106.031 477.977C105.909 477.729 105.734 477.541 105.507 477.415C105.279 477.289 105.006 477.226 104.689 477.226C104.355 477.226 104.06 477.295 103.804 477.434C103.547 477.572 103.344 477.777 103.193 478.05C103.043 478.323 102.968 478.646 102.968 479.021V483ZM113.539 474.162L116.517 481.438H116.627L119.606 474.162H120.924V483H119.886V476.323H119.801L117.054 483H116.078L113.331 476.323H113.258V483H112.22V474.162H113.539ZM126.796 479.924C126.56 479.94 126.383 479.952 126.265 479.96C126.151 479.969 125.978 479.981 125.746 479.997C125.51 480.013 125.274 480.03 125.038 480.046C124.541 480.078 124.157 480.186 123.884 480.369C123.616 480.552 123.479 480.819 123.475 481.169C123.475 481.397 123.536 481.59 123.658 481.749C123.781 481.907 123.943 482.028 124.147 482.109C124.354 482.186 124.594 482.223 124.867 482.219C125.245 482.219 125.573 482.143 125.85 481.993C126.13 481.842 126.344 481.643 126.49 481.395C126.637 481.147 126.71 480.88 126.71 480.595V478.532C126.71 478.251 126.655 478.011 126.545 477.812C126.436 477.609 126.267 477.456 126.039 477.354C125.815 477.253 125.538 477.202 125.209 477.202C124.806 477.202 124.476 477.285 124.22 477.452C123.964 477.615 123.797 477.828 123.719 478.093H122.621C122.666 477.739 122.804 477.425 123.036 477.153C123.272 476.876 123.581 476.663 123.964 476.512C124.346 476.361 124.777 476.286 125.258 476.286C125.64 476.286 126.016 476.343 126.387 476.457C126.757 476.571 127.076 476.803 127.345 477.153C127.614 477.499 127.748 477.991 127.748 478.63V483H126.71V482.097H126.661C126.527 482.373 126.293 482.62 125.959 482.835C125.63 483.047 125.205 483.155 124.684 483.159C124.261 483.155 123.878 483.073 123.536 482.915C123.195 482.752 122.924 482.518 122.725 482.213C122.525 481.903 122.426 481.539 122.426 481.12C122.426 480.437 122.66 479.954 123.127 479.674C123.599 479.389 124.196 479.22 124.916 479.167C125.107 479.151 125.327 479.136 125.575 479.124C125.823 479.108 126.067 479.094 126.307 479.082C126.466 479.077 126.625 479.073 126.783 479.069L126.796 479.924ZM132.325 477.25H128.871V476.372H132.325V477.25ZM130.934 474.785V481.096C130.934 481.36 130.972 481.566 131.05 481.712C131.127 481.855 131.229 481.952 131.355 482.005C131.481 482.058 131.63 482.084 131.801 482.084C131.874 482.084 131.949 482.082 132.026 482.078C132.108 482.074 132.187 482.072 132.264 482.072L132.423 482.06V483.037C132.203 483.069 131.959 483.085 131.691 483.085C131.381 483.085 131.088 483.02 130.812 482.89C130.535 482.76 130.309 482.567 130.134 482.31C129.959 482.05 129.872 481.735 129.872 481.364V474.785H130.934ZM136.39 483.134C135.76 483.134 135.21 482.994 134.742 482.713C134.279 482.432 133.92 482.036 133.668 481.523C133.416 481.01 133.29 480.416 133.29 479.741C133.29 479.065 133.416 478.465 133.668 477.94C133.92 477.415 134.272 477.008 134.724 476.719C135.176 476.431 135.699 476.286 136.293 476.286C136.793 476.286 137.259 476.396 137.69 476.616C138.126 476.835 138.478 477.194 138.746 477.69C139.015 478.186 139.149 478.821 139.149 479.594V480.034H134.022V479.143H138.087C138.087 478.776 138.014 478.447 137.867 478.154C137.721 477.861 137.511 477.631 137.239 477.464C136.966 477.297 136.651 477.214 136.293 477.214C135.902 477.214 135.56 477.309 135.267 477.501C134.974 477.692 134.747 477.948 134.584 478.27C134.425 478.591 134.344 478.935 134.34 479.301V479.899C134.34 480.388 134.427 480.805 134.602 481.151C134.777 481.497 135.017 481.759 135.322 481.938C135.627 482.117 135.983 482.207 136.39 482.207C136.643 482.207 136.871 482.172 137.074 482.103C137.277 482.034 137.448 481.944 137.587 481.834C137.729 481.72 137.843 481.592 137.928 481.45H139.052C138.946 481.787 138.771 482.084 138.527 482.341C138.282 482.593 137.977 482.788 137.611 482.927C137.245 483.065 136.838 483.134 136.39 483.134ZM146.644 478.166H144.557V477.373H146.644V478.166ZM149.415 483.989H148.488V473.137H149.415V483.989ZM147.23 483.439H146.315V473.369H147.23V483.439ZM142.579 474.052C143.047 474.052 143.456 474.207 143.806 474.516C144.16 474.825 144.435 475.265 144.63 475.834C144.825 476.4 144.923 477.063 144.923 477.824C144.923 478.585 144.825 479.25 144.63 479.82C144.435 480.386 144.16 480.823 143.806 481.132C143.456 481.442 143.047 481.596 142.579 481.596C142.111 481.596 141.702 481.442 141.353 481.132C141.007 480.823 140.736 480.386 140.541 479.82C140.345 479.25 140.248 478.585 140.248 477.824C140.248 477.063 140.345 476.4 140.541 475.834C140.736 475.265 141.007 474.825 141.353 474.516C141.702 474.207 142.111 474.052 142.579 474.052ZM142.579 474.956C142.286 474.956 142.032 475.072 141.816 475.303C141.601 475.535 141.434 475.869 141.316 476.304C141.202 476.736 141.147 477.242 141.151 477.824C141.147 478.406 141.202 478.913 141.316 479.344C141.434 479.771 141.601 480.103 141.816 480.339C142.036 480.571 142.29 480.685 142.579 480.681C142.872 480.685 143.129 480.571 143.348 480.339C143.568 480.103 143.735 479.771 143.849 479.344C143.963 478.913 144.02 478.406 144.02 477.824C144.02 477.242 143.963 476.736 143.849 476.304C143.735 475.869 143.568 475.535 143.348 475.303C143.129 475.072 142.872 474.956 142.579 474.956ZM159.462 481.987H158.522V479.265H159.462V481.987ZM158.998 473.845C159.763 473.849 160.446 473.969 161.049 474.205C161.651 474.437 162.121 474.768 162.458 475.2C162.796 475.631 162.965 476.127 162.965 476.689C162.965 477.259 162.796 477.757 162.458 478.184C162.121 478.612 161.651 478.943 161.049 479.179C160.446 479.415 159.763 479.533 158.998 479.533C158.233 479.533 157.551 479.415 156.953 479.179C156.355 478.943 155.885 478.612 155.543 478.184C155.201 477.753 155.031 477.255 155.031 476.689C155.031 476.127 155.201 475.631 155.543 475.2C155.885 474.768 156.355 474.437 156.953 474.205C157.551 473.969 158.233 473.849 158.998 473.845ZM158.998 474.638C158.416 474.638 157.893 474.724 157.429 474.895C156.969 475.065 156.609 475.308 156.349 475.621C156.088 475.93 155.958 476.286 155.958 476.689C155.958 477.1 156.088 477.462 156.349 477.775C156.609 478.085 156.969 478.327 157.429 478.502C157.889 478.673 158.412 478.76 158.998 478.764C159.584 478.76 160.107 478.673 160.566 478.502C161.026 478.327 161.386 478.085 161.647 477.775C161.907 477.462 162.037 477.1 162.037 476.689C162.037 476.286 161.907 475.93 161.647 475.621C161.386 475.308 161.024 475.065 160.56 474.895C160.101 474.724 159.58 474.638 158.998 474.638ZM163.99 482.597H154.054V481.792H163.99V482.597ZM173.817 481.108H172.865V473.149H173.817V481.108ZM174.159 483.757H166.81V482.951H174.159V483.757ZM167.762 483.342H166.81V480.375H167.762V483.342ZM168.531 474.846C168.527 475.546 168.397 476.209 168.141 476.835C167.889 477.462 167.533 478.009 167.073 478.477C166.617 478.941 166.09 479.293 165.492 479.533L164.967 478.789C165.508 478.577 165.986 478.27 166.401 477.867C166.82 477.464 167.146 477.002 167.378 476.481C167.61 475.957 167.726 475.411 167.726 474.846V473.759H168.531V474.846ZM168.702 474.846C168.698 475.387 168.81 475.908 169.038 476.408C169.27 476.905 169.594 477.34 170.009 477.714C170.424 478.089 170.9 478.374 171.437 478.569L170.936 479.338C170.334 479.106 169.805 478.77 169.349 478.331C168.894 477.887 168.538 477.366 168.281 476.768C168.025 476.17 167.897 475.529 167.897 474.846V473.759H168.702V474.846ZM187.794 480.498H186.83V473.149H187.794V480.498ZM187.037 477.006H184.449V476.201H187.037V477.006ZM184.401 474.003C184.401 474.919 184.203 475.753 183.809 476.506C183.414 477.255 182.842 477.906 182.094 478.459C181.349 479.008 180.454 479.452 179.408 479.79L178.981 479.021C179.904 478.736 180.696 478.365 181.355 477.91C182.018 477.454 182.525 476.927 182.875 476.329C183.225 475.731 183.4 475.082 183.4 474.382V474.003H184.401ZM184.071 474.785H179.518V474.003H184.071V474.785ZM184.62 480.046C184.62 480.717 184.433 481.324 184.059 481.865C183.684 482.402 183.186 482.847 182.563 483.201C181.941 483.555 181.255 483.806 180.507 483.952L180.116 483.195C180.767 483.081 181.373 482.876 181.935 482.579C182.496 482.282 182.946 481.914 183.284 481.474C183.625 481.035 183.798 480.559 183.802 480.046V479.545H184.62V480.046ZM184.742 480.046C184.742 480.555 184.911 481.024 185.249 481.456C185.587 481.883 186.032 482.245 186.586 482.542C187.139 482.835 187.741 483.041 188.392 483.159L187.99 483.928C187.253 483.785 186.576 483.537 185.957 483.183C185.343 482.833 184.85 482.39 184.48 481.853C184.11 481.315 183.925 480.713 183.925 480.046V479.545H184.742V480.046ZM194.545 473.332C195.346 473.332 196.034 473.403 196.608 473.546C197.185 473.688 197.625 473.9 197.926 474.18C198.227 474.461 198.378 474.801 198.378 475.2C198.378 475.607 198.227 475.952 197.926 476.237C197.625 476.522 197.188 476.738 196.614 476.884C196.04 477.027 195.35 477.1 194.545 477.104C193.735 477.1 193.043 477.027 192.469 476.884C191.9 476.738 191.462 476.522 191.157 476.237C190.852 475.952 190.699 475.607 190.699 475.2C190.699 474.801 190.852 474.461 191.157 474.18C191.462 473.9 191.902 473.688 192.476 473.546C193.049 473.403 193.739 473.332 194.545 473.332ZM194.545 474.052C193.947 474.052 193.434 474.099 193.007 474.193C192.583 474.286 192.258 474.418 192.03 474.589C191.806 474.76 191.696 474.964 191.7 475.2C191.696 475.448 191.806 475.662 192.03 475.841C192.258 476.016 192.583 476.148 193.007 476.237C193.434 476.327 193.947 476.372 194.545 476.372C195.143 476.372 195.656 476.327 196.083 476.237C196.514 476.148 196.842 476.016 197.065 475.841C197.289 475.666 197.401 475.452 197.401 475.2C197.401 474.964 197.289 474.76 197.065 474.589C196.842 474.418 196.514 474.286 196.083 474.193C195.651 474.099 195.139 474.052 194.545 474.052ZM199.489 478.618H189.601V477.836H199.489V478.618ZM198.219 481.987H191.774V483.305H190.822V481.279H197.279V480.29H190.797V479.558H198.219V481.987ZM198.549 483.867H190.822V483.11H198.549V483.867ZM212.013 481.633H211.049V473.137H212.013V481.633ZM213.636 477.751H211.61V476.945H213.636V477.751ZM212.404 483.757H205.116V482.951H212.404V483.757ZM206.08 483.208H205.116V481.059H206.08V483.208ZM207.386 479.924H206.434V478.447H207.386V479.924ZM203.492 479.594C204.819 479.59 206.048 479.564 207.179 479.515C208.314 479.462 209.38 479.358 210.377 479.204L210.463 479.887C209.49 480.07 208.477 480.194 207.423 480.26C206.373 480.321 205.201 480.359 203.907 480.375C203.838 480.375 203.787 480.375 203.755 480.375C203.722 480.375 203.671 480.375 203.602 480.375L203.492 479.594ZM210.048 474.931H203.761V474.211H210.048V474.931ZM206.898 475.407C207.407 475.407 207.852 475.472 208.235 475.603C208.621 475.733 208.918 475.926 209.126 476.182C209.338 476.435 209.445 476.734 209.449 477.08C209.445 477.417 209.338 477.712 209.126 477.965C208.918 478.213 208.621 478.404 208.235 478.538C207.852 478.673 207.407 478.74 206.898 478.74C206.39 478.74 205.944 478.671 205.562 478.532C205.183 478.394 204.888 478.203 204.677 477.958C204.465 477.71 204.359 477.417 204.359 477.08C204.359 476.738 204.465 476.439 204.677 476.182C204.888 475.926 205.183 475.733 205.562 475.603C205.944 475.472 206.39 475.407 206.898 475.407ZM206.898 476.091C206.569 476.091 206.28 476.129 206.031 476.207C205.787 476.284 205.6 476.398 205.47 476.549C205.34 476.699 205.275 476.876 205.275 477.08C205.275 477.275 205.34 477.446 205.47 477.592C205.6 477.739 205.787 477.853 206.031 477.934C206.28 478.015 206.569 478.056 206.898 478.056C207.228 478.056 207.515 478.015 207.759 477.934C208.007 477.853 208.198 477.739 208.333 477.592C208.467 477.446 208.534 477.275 208.534 477.08C208.534 476.876 208.469 476.699 208.339 476.549C208.208 476.398 208.017 476.284 207.765 476.207C207.517 476.129 207.228 476.091 206.898 476.091ZM207.386 474.553H206.434V473.112H207.386V474.553ZM222.67 475.493H219.349V474.711H222.67V475.493ZM222.67 478.02H219.349V477.226H222.67V478.02ZM217.335 473.796C217.864 473.796 218.342 473.904 218.77 474.119C219.197 474.335 219.53 474.64 219.771 475.035C220.015 475.426 220.139 475.871 220.143 476.372C220.139 476.868 220.015 477.309 219.771 477.696C219.53 478.083 219.197 478.386 218.77 478.605C218.342 478.825 217.864 478.935 217.335 478.935C216.798 478.935 216.316 478.825 215.889 478.605C215.461 478.386 215.126 478.083 214.882 477.696C214.637 477.309 214.515 476.868 214.515 476.372C214.515 475.871 214.637 475.426 214.882 475.035C215.126 474.64 215.461 474.335 215.889 474.119C216.316 473.904 216.798 473.796 217.335 473.796ZM217.335 474.626C216.969 474.626 216.641 474.699 216.353 474.846C216.064 474.992 215.838 475.2 215.675 475.468C215.512 475.733 215.431 476.034 215.431 476.372C215.431 476.705 215.512 477.004 215.675 477.269C215.838 477.533 216.064 477.741 216.353 477.891C216.641 478.042 216.969 478.117 217.335 478.117C217.689 478.117 218.009 478.042 218.293 477.891C218.582 477.741 218.808 477.533 218.971 477.269C219.134 477 219.215 476.701 219.215 476.372C219.215 476.034 219.134 475.733 218.971 475.468C218.808 475.2 218.582 474.992 218.293 474.846C218.009 474.699 217.689 474.626 217.335 474.626ZM223.341 479.57H222.377V473.137H223.341V479.57ZM219.74 479.826C220.489 479.826 221.136 479.908 221.681 480.07C222.226 480.233 222.645 480.469 222.938 480.778C223.231 481.088 223.378 481.458 223.378 481.889C223.378 482.325 223.231 482.697 222.938 483.006C222.645 483.319 222.226 483.557 221.681 483.72C221.136 483.883 220.489 483.964 219.74 483.964C218.991 483.964 218.344 483.883 217.799 483.72C217.254 483.557 216.835 483.319 216.542 483.006C216.249 482.697 216.102 482.325 216.102 481.889C216.102 481.458 216.249 481.088 216.542 480.778C216.835 480.469 217.254 480.233 217.799 480.07C218.344 479.908 218.991 479.826 219.74 479.826ZM219.74 480.571C219.187 480.571 218.706 480.624 218.3 480.729C217.893 480.835 217.581 480.988 217.366 481.187C217.15 481.383 217.042 481.617 217.042 481.889C217.042 482.158 217.152 482.39 217.372 482.585C217.592 482.78 217.903 482.931 218.306 483.037C218.708 483.142 219.187 483.195 219.74 483.195C220.293 483.195 220.774 483.142 221.18 483.037C221.587 482.931 221.899 482.78 222.114 482.585C222.33 482.39 222.438 482.158 222.438 481.889C222.438 481.617 222.33 481.383 222.114 481.187C221.899 480.988 221.587 480.835 221.18 480.729C220.774 480.624 220.293 480.571 219.74 480.571ZM233.632 479.448H232.679V473.137H233.632V479.448ZM235.267 476.738H233.217V475.92H235.267V476.738ZM227.723 481.083H232.679V479.924H233.632V483.842H226.771V479.924H227.723V481.083ZM232.679 483.073V481.84H227.723V483.073H232.679ZM231.642 475.053H225.172V474.26H231.642V475.053ZM228.407 475.554C228.924 475.554 229.377 475.631 229.768 475.786C230.163 475.94 230.468 476.162 230.684 476.451C230.903 476.74 231.015 477.076 231.019 477.458C231.015 477.84 230.903 478.176 230.684 478.465C230.468 478.754 230.163 478.976 229.768 479.13C229.373 479.285 228.92 479.362 228.407 479.362C227.886 479.362 227.428 479.285 227.034 479.13C226.639 478.976 226.334 478.754 226.118 478.465C225.903 478.176 225.795 477.84 225.795 477.458C225.795 477.076 225.903 476.74 226.118 476.451C226.334 476.162 226.639 475.94 227.034 475.786C227.428 475.631 227.886 475.554 228.407 475.554ZM228.407 476.298C228.069 476.294 227.772 476.341 227.516 476.439C227.264 476.532 227.066 476.669 226.924 476.848C226.781 477.023 226.71 477.226 226.71 477.458C226.71 477.69 226.779 477.895 226.918 478.074C227.056 478.249 227.253 478.386 227.51 478.483C227.77 478.581 228.069 478.63 228.407 478.63C228.741 478.63 229.038 478.581 229.298 478.483C229.559 478.386 229.758 478.249 229.896 478.074C230.039 477.895 230.112 477.69 230.116 477.458C230.112 477.226 230.037 477.023 229.89 476.848C229.748 476.669 229.548 476.532 229.292 476.439C229.036 476.341 228.741 476.294 228.407 476.298ZM228.883 474.687H227.931V473.039H228.883V474.687ZM244.899 483.989H243.947V473.137H244.899V483.989ZM237.599 480.925H236.659V474.211H237.599V480.925ZM237.538 480.363C238.441 480.359 239.322 480.319 240.181 480.241C241.043 480.16 241.912 480.026 242.787 479.838L242.921 480.656C241.997 480.847 241.098 480.986 240.223 481.071C239.353 481.153 238.457 481.193 237.538 481.193H236.659V480.363H237.538ZM255.153 484.013H254.2V473.137H255.153V484.013ZM256.971 478.239H254.933V477.434H256.971V478.239ZM248.085 480.485C249.151 480.481 250.064 480.453 250.825 480.4C251.586 480.343 252.361 480.241 253.151 480.095L253.273 480.925C252.467 481.071 251.678 481.169 250.905 481.218C250.135 481.267 249.196 481.291 248.085 481.291H247.23V480.485H248.085ZM252.296 474.992H248.182V480.852H247.23V474.199H252.296V474.992ZM259.23 480.51H258.204L258.119 474.162H259.315L259.23 480.51ZM258.717 483.073C258.575 483.073 258.442 483.037 258.32 482.963C258.202 482.89 258.107 482.795 258.033 482.677C257.964 482.554 257.932 482.422 257.936 482.28C257.932 482.141 257.964 482.011 258.033 481.889C258.107 481.767 258.202 481.671 258.32 481.602C258.442 481.533 258.575 481.499 258.717 481.499C258.859 481.499 258.99 481.533 259.108 481.602C259.23 481.671 259.325 481.767 259.395 481.889C259.464 482.011 259.498 482.141 259.498 482.28C259.498 482.422 259.464 482.554 259.395 482.677C259.325 482.795 259.23 482.89 259.108 482.963C258.99 483.037 258.859 483.073 258.717 483.073ZM77.2473 501.169H76.283V493.149H77.2473V501.169ZM76.4783 497.299H73.8782V496.494H76.4783V497.299ZM73.927 493.979C73.9229 494.895 73.7134 495.739 73.2983 496.512C72.8874 497.281 72.2994 497.954 71.5344 498.532C70.7694 499.106 69.8702 499.562 68.8367 499.899L68.4216 499.13C69.3168 498.833 70.1021 498.449 70.7776 497.977C71.453 497.501 71.9759 496.958 72.3462 496.347C72.7165 495.733 72.9016 495.074 72.9016 494.37V493.979H73.927ZM73.5242 494.785H68.9709V493.979H73.5242V494.785ZM77.5281 503.757H70.3381V502.951H77.5281V503.757ZM71.3147 503.342H70.3381V500.351H71.3147V503.342ZM87.5378 499.655H86.5857V493.137H87.5378V499.655ZM89.1736 496.762H87.2693V495.969H89.1736V496.762ZM84.5837 493.942C84.5837 494.854 84.3783 495.684 83.9673 496.433C83.5563 497.181 82.9683 497.83 82.2034 498.38C81.4384 498.925 80.5269 499.354 79.469 499.667L79.0662 498.886C79.9939 498.618 80.7955 498.26 81.4709 497.812C82.1464 497.364 82.6632 496.85 83.0212 496.268C83.3834 495.686 83.5665 495.057 83.5706 494.382V493.942H84.5837ZM84.1077 494.736H79.5422V493.942H84.1077V494.736ZM84.1077 499.777C84.8279 499.777 85.4545 499.861 85.9875 500.028C86.5247 500.194 86.9377 500.434 87.2266 500.748C87.5155 501.061 87.6599 501.433 87.6599 501.865C87.6599 502.3 87.5155 502.677 87.2266 502.994C86.9377 503.307 86.5267 503.547 85.9937 503.714C85.4606 503.881 84.8319 503.964 84.1077 503.964C83.3875 503.964 82.7588 503.881 82.2217 503.714C81.6886 503.547 81.2777 503.307 80.9888 502.994C80.6999 502.677 80.5554 502.3 80.5554 501.865C80.5554 501.438 80.6999 501.067 80.9888 500.754C81.2777 500.437 81.6907 500.194 82.2278 500.028C82.7649 499.861 83.3915 499.777 84.1077 499.777ZM84.1077 500.546C83.5787 500.546 83.1189 500.599 82.7283 500.705C82.3376 500.811 82.0345 500.963 81.8188 501.163C81.6073 501.362 81.5035 501.596 81.5076 501.865C81.5035 502.133 81.6073 502.367 81.8188 502.567C82.0345 502.766 82.3376 502.921 82.7283 503.031C83.123 503.14 83.5828 503.195 84.1077 503.195C84.6326 503.195 85.0924 503.14 85.4871 503.031C85.8858 502.921 86.193 502.766 86.4087 502.567C86.6243 502.367 86.7322 502.133 86.7322 501.865C86.7322 501.596 86.6243 501.362 86.4087 501.163C86.193 500.963 85.8879 500.811 85.4932 500.705C85.0985 500.599 84.6366 500.546 84.1077 500.546ZM98.4509 494.785H93.6047V493.979H98.4509V494.785ZM96.217 499.106H95.2649V496.384H96.217V499.106ZM99.0125 494.626C99.0084 495.163 98.9901 495.672 98.9575 496.152C98.925 496.628 98.8497 497.165 98.7317 497.763L97.7673 497.69C97.8894 497.092 97.9688 496.569 98.0054 496.121C98.042 495.674 98.0644 495.192 98.0725 494.675V494.553V493.979H99.0125V494.553V494.626ZM101.503 501.303H100.526V493.137H101.503V501.303ZM103.09 497.495H101.063V496.677H103.09V497.495ZM101.857 503.757H94.6057V502.951H101.857V503.757ZM95.5701 503.208H94.6057V500.571H95.5701V503.208ZM92.9333 498.776C94.2273 498.772 95.446 498.748 96.5894 498.703C97.7327 498.654 98.8009 498.561 99.7937 498.422L99.8547 499.13C98.8416 499.305 97.7714 499.421 96.6443 499.478C95.5172 499.535 94.3127 499.566 93.031 499.57L92.9333 498.776ZM112.758 504.013H111.805V493.137H112.758V504.013ZM105.336 500.571C106.32 500.575 107.236 500.548 108.082 500.491C108.933 500.434 109.824 500.331 110.756 500.18L110.853 500.986C109.909 501.132 109.006 501.234 108.143 501.291C107.281 501.348 106.345 501.376 105.336 501.376H104.432V500.571H105.336ZM109.462 498.007H105.409V500.876H104.432V497.226H108.497V494.943H104.408V494.15H109.462V498.007ZM118.153 493.93C118.715 493.93 119.217 494.038 119.661 494.254C120.104 494.469 120.45 494.77 120.698 495.157C120.946 495.544 121.071 495.985 121.071 496.481C121.071 496.978 120.946 497.419 120.698 497.806C120.45 498.192 120.104 498.494 119.661 498.709C119.217 498.925 118.715 499.033 118.153 499.033C117.587 499.033 117.081 498.925 116.633 498.709C116.19 498.494 115.844 498.192 115.596 497.806C115.347 497.419 115.223 496.978 115.223 496.481C115.223 495.985 115.347 495.544 115.596 495.157C115.844 494.77 116.19 494.469 116.633 494.254C117.081 494.038 117.587 493.93 118.153 493.93ZM118.153 494.772C117.771 494.772 117.429 494.844 117.128 494.986C116.827 495.128 116.591 495.332 116.42 495.596C116.249 495.857 116.163 496.152 116.163 496.481C116.163 496.815 116.249 497.11 116.42 497.366C116.591 497.623 116.827 497.824 117.128 497.971C117.429 498.117 117.771 498.19 118.153 498.19C118.531 498.19 118.871 498.117 119.172 497.971C119.478 497.824 119.714 497.623 119.88 497.366C120.047 497.11 120.131 496.815 120.131 496.481C120.131 496.152 120.047 495.857 119.88 495.596C119.714 495.332 119.478 495.128 119.172 494.986C118.871 494.844 118.531 494.772 118.153 494.772ZM123.5 504.013H122.548V493.137H123.5V504.013ZM114.662 500.803C116.017 500.807 117.284 500.786 118.464 500.742C119.644 500.697 120.765 500.595 121.827 500.437L121.901 501.145C121.136 501.287 120.34 501.393 119.514 501.462C118.688 501.527 117.915 501.57 117.195 501.59C116.479 501.61 115.679 501.621 114.796 501.621L114.662 500.803ZM131.63 496.262C131.626 497.006 131.518 497.733 131.306 498.441C131.099 499.145 130.8 499.775 130.409 500.333C130.018 500.89 129.563 501.324 129.042 501.633L128.419 500.925C128.912 500.644 129.343 500.257 129.713 499.765C130.087 499.269 130.372 498.717 130.568 498.111C130.767 497.501 130.865 496.884 130.861 496.262V494.162H131.63V496.262ZM131.788 496.201C131.788 496.799 131.882 497.389 132.069 497.971C132.256 498.549 132.523 499.069 132.869 499.533C133.215 499.997 133.623 500.355 134.095 500.607L133.522 501.364C133.001 501.067 132.553 500.652 132.179 500.119C131.805 499.582 131.518 498.976 131.318 498.3C131.123 497.625 131.027 496.925 131.031 496.201V494.162H131.788V496.201ZM137.843 503.989H136.915V493.137H137.843V503.989ZM137.269 498.3H135.145V497.507H137.269V498.3ZM135.426 503.439H134.498V493.369H135.426V503.439ZM149.281 502.646H139.344V501.84H149.281V502.646ZM144.752 502.194H143.812V499.509H144.752V502.194ZM148.024 497.226H141.542V499.423H140.59V496.445H147.084V494.736H140.565V493.942H148.024V497.226ZM148.28 499.79H140.59V498.996H148.28V499.79ZM160.072 499.448H150.135V498.654H160.072V499.448ZM155.665 501.669H154.701V499.155H155.665V501.669ZM158.961 503.757H151.417V502.939H158.961V503.757ZM152.382 503.183H151.417V500.583H152.382V503.183ZM155.092 493.417C155.861 493.417 156.532 493.505 157.106 493.68C157.684 493.855 158.129 494.109 158.442 494.443C158.756 494.772 158.912 495.159 158.912 495.603C158.912 496.042 158.756 496.424 158.442 496.75C158.129 497.076 157.684 497.326 157.106 497.501C156.532 497.676 155.861 497.763 155.092 497.763C154.323 497.763 153.649 497.676 153.071 497.501C152.498 497.326 152.052 497.076 151.735 496.75C151.417 496.424 151.259 496.042 151.259 495.603C151.259 495.159 151.415 494.772 151.729 494.443C152.042 494.109 152.487 493.855 153.065 493.68C153.647 493.505 154.323 493.417 155.092 493.417ZM155.092 494.199C154.53 494.199 154.038 494.256 153.615 494.37C153.191 494.484 152.862 494.646 152.626 494.858C152.394 495.069 152.28 495.318 152.284 495.603C152.28 495.879 152.394 496.121 152.626 496.329C152.862 496.536 153.191 496.697 153.615 496.811C154.038 496.925 154.53 496.982 155.092 496.982C155.649 496.982 156.139 496.925 156.562 496.811C156.99 496.697 157.319 496.536 157.551 496.329C157.783 496.121 157.899 495.879 157.899 495.603C157.899 495.318 157.783 495.069 157.551 494.858C157.319 494.646 156.992 494.484 156.569 494.37C156.145 494.256 155.653 494.199 155.092 494.199ZM173.988 499.277H164.088V498.508H173.988V499.277ZM169.496 498.837H168.568V496.762H169.496V498.837ZM172.828 497.238H165.345V496.457H172.828V497.238ZM172.755 494.418H166.285V496.933H165.345V493.649H172.755V494.418ZM169.032 500.07C169.805 500.07 170.47 500.148 171.028 500.302C171.585 500.457 172.013 500.681 172.31 500.974C172.611 501.263 172.763 501.612 172.767 502.023C172.763 502.438 172.613 502.79 172.316 503.079C172.023 503.368 171.595 503.59 171.034 503.745C170.472 503.903 169.805 503.985 169.032 503.989C168.251 503.985 167.579 503.903 167.018 503.745C166.456 503.59 166.027 503.366 165.73 503.073C165.433 502.784 165.284 502.434 165.284 502.023C165.284 501.612 165.433 501.263 165.73 500.974C166.027 500.681 166.456 500.457 167.018 500.302C167.579 500.148 168.251 500.07 169.032 500.07ZM169.032 500.827C168.454 500.827 167.958 500.874 167.543 500.968C167.128 501.061 166.808 501.199 166.584 501.383C166.365 501.562 166.257 501.775 166.261 502.023C166.257 502.276 166.365 502.491 166.584 502.67C166.808 502.849 167.128 502.986 167.543 503.079C167.958 503.173 168.454 503.22 169.032 503.22C169.602 503.22 170.094 503.173 170.509 503.079C170.924 502.986 171.243 502.849 171.467 502.67C171.691 502.491 171.803 502.276 171.803 502.023C171.803 501.775 171.691 501.562 171.467 501.383C171.243 501.199 170.924 501.061 170.509 500.968C170.094 500.874 169.602 500.827 169.032 500.827ZM183.375 501.12H182.423V493.149H183.375V501.12ZM185.011 497.238H183.07V496.433H185.011V497.238ZM183.876 503.757H176.588V502.951H183.876V503.757ZM177.528 503.134H176.588V500.339H177.528V503.134ZM176.295 495.761H179.457V493.93H180.409V499.289H175.355V493.93H176.295V495.761ZM179.457 498.508V496.518H176.295V498.508H179.457ZM189.186 496.469C189.186 497.206 189.047 497.938 188.771 498.667C188.494 499.391 188.118 500.04 187.642 500.614C187.166 501.187 186.651 501.617 186.097 501.901L185.511 501.145C186.028 500.892 186.508 500.514 186.952 500.009C187.399 499.505 187.756 498.939 188.02 498.312C188.289 497.686 188.425 497.071 188.429 496.469V494.675H189.186V496.469ZM189.369 496.469C189.365 497.039 189.487 497.617 189.735 498.203C189.987 498.789 190.329 499.32 190.76 499.796C191.192 500.268 191.668 500.628 192.189 500.876L191.639 501.633C191.074 501.356 190.559 500.947 190.095 500.406C189.635 499.865 189.271 499.25 189.003 498.563C188.734 497.871 188.6 497.173 188.6 496.469V494.675H189.369V496.469ZM191.81 495.053H185.902V494.26H191.81V495.053ZM194.093 503.989H193.141V493.137H194.093V503.989ZM195.912 498.349H193.873V497.531H195.912V498.349ZM206.422 498.935H196.486V498.178H206.422V498.935ZM205.177 502.109H198.658V503.403H197.694V501.45H204.225V500.522H197.682V499.802H205.177V502.109ZM205.531 503.842H197.694V503.146H205.531V503.842ZM205.14 495.712H198.732V496.909H197.78V495.053H204.176V494.162H197.743V493.466H205.14V495.712ZM205.336 497.36H197.78V496.665H205.336V497.36ZM215.919 499.118H210.902V494.125H215.919V499.118ZM211.842 498.349H214.991V494.907H211.842V498.349ZM218.922 501.096H217.97V493.137H218.922V501.096ZM220.558 497.25H218.617V496.445H220.558V497.25ZM219.423 503.757H212.135V502.951H219.423V503.757ZM213.075 503.281H212.135V500.339H213.075V503.281ZM231.398 498.276H229.396V497.47H231.398V498.276ZM229.64 503.989H228.688V493.137H229.64V503.989ZM222.645 500.925H221.693V494.211H222.645V500.925ZM222.56 500.424C223.418 500.428 224.263 500.392 225.093 500.314C225.923 500.237 226.771 500.107 227.638 499.924L227.76 500.742C226.877 500.921 226.012 501.047 225.166 501.12C224.32 501.193 223.451 501.23 222.56 501.23H221.693V500.424H222.56ZM241.981 502.597H232.045V501.804H241.981V502.597ZM237.452 502.048H236.512V499.179H237.452V502.048ZM234.181 495.871H239.821V493.906H240.76V499.46H233.217V493.906H234.181V495.871ZM239.821 498.679V496.652H234.181V498.679H239.821ZM249.293 497.849H247.157V497.031H249.293V497.849ZM245.9 496.262C245.9 497.006 245.796 497.733 245.588 498.441C245.381 499.145 245.082 499.777 244.691 500.339C244.305 500.896 243.853 501.332 243.336 501.645L242.726 500.925C243.214 500.64 243.641 500.249 244.008 499.753C244.374 499.257 244.655 498.707 244.85 498.105C245.045 497.499 245.143 496.884 245.143 496.262V494.162H245.9V496.262ZM246.071 496.225C246.071 496.807 246.162 497.387 246.345 497.965C246.528 498.538 246.791 499.063 247.133 499.539C247.478 500.015 247.885 500.392 248.353 500.668L247.804 501.413C247.291 501.104 246.848 500.675 246.473 500.125C246.099 499.576 245.814 498.964 245.619 498.288C245.428 497.613 245.334 496.925 245.338 496.225V494.162H246.071V496.225ZM252.15 503.989H251.222V493.137H252.15V503.989ZM249.904 503.439H249V493.369H249.904V503.439ZM257.057 501.987H256.117V498.74H257.057V501.987ZM261.122 501.987H260.157V498.74H261.122V501.987ZM263.588 502.597H253.651V501.792H263.588V502.597ZM258.595 493.82C259.364 493.824 260.048 493.942 260.646 494.174C261.248 494.402 261.718 494.73 262.056 495.157C262.393 495.58 262.562 496.066 262.562 496.616C262.562 497.169 262.393 497.655 262.056 498.074C261.718 498.494 261.248 498.819 260.646 499.051C260.048 499.283 259.364 499.399 258.595 499.399C257.826 499.399 257.14 499.283 256.538 499.051C255.94 498.819 255.472 498.494 255.134 498.074C254.797 497.655 254.628 497.169 254.628 496.616C254.628 496.066 254.797 495.58 255.134 495.157C255.472 494.73 255.94 494.402 256.538 494.174C257.14 493.942 257.826 493.824 258.595 493.82ZM258.595 494.614C258.005 494.61 257.478 494.691 257.014 494.858C256.554 495.021 256.196 495.255 255.94 495.56C255.684 495.865 255.555 496.217 255.555 496.616C255.555 497.014 255.684 497.366 255.94 497.672C256.196 497.977 256.554 498.215 257.014 498.386C257.478 498.557 258.005 498.642 258.595 498.642C259.181 498.642 259.704 498.557 260.164 498.386C260.623 498.215 260.983 497.977 261.244 497.672C261.504 497.366 261.635 497.014 261.635 496.616C261.635 496.217 261.504 495.865 261.244 495.56C260.983 495.255 260.623 495.021 260.164 494.858C259.704 494.691 259.181 494.61 258.595 494.614ZM265.602 503.073C265.459 503.073 265.327 503.037 265.205 502.963C265.087 502.89 264.991 502.795 264.918 502.677C264.849 502.554 264.816 502.422 264.821 502.28C264.816 502.141 264.849 502.011 264.918 501.889C264.991 501.767 265.087 501.671 265.205 501.602C265.327 501.533 265.459 501.499 265.602 501.499C265.744 501.499 265.874 501.533 265.992 501.602C266.115 501.671 266.21 501.767 266.279 501.889C266.348 502.011 266.383 502.141 266.383 502.28C266.383 502.422 266.348 502.554 266.279 502.677C266.21 502.795 266.115 502.89 265.992 502.963C265.874 503.037 265.744 503.073 265.602 503.073Z" fill="#626262"/>
<defs>
<clipPath id="clip0_424_1287">
<rect width="335" height="293" fill="white"/>
</clipPath>
</defs>
</svg>
