<svg width="335" height="510" viewBox="0 0 335 510" fill="none" xmlns="http://www.w3.org/2000/svg">
<g clip-path="url(#clip0_424_1142)">
<path d="M230.336 39.4312C223.664 31.2746 214.448 25.6859 204.22 23.5941C194.208 21.5126 181.965 21.323 172.86 26.5649C172.723 26.6423 172.604 26.75 172.512 26.8802C172.421 27.0105 172.359 27.1598 172.332 27.3174C151.445 36.6575 136.782 73.852 157.564 100.993C159.078 100.439 160.416 100.224 162.052 99.6869C160.803 96.0357 161.082 92.1724 159.765 88.5378C158.707 85.6211 158.008 82.5434 158.374 80.9496C158.658 79.7155 161.436 80.1279 162.493 80.8066C164.895 82.3493 165.438 86.4278 166.258 89.5763C166.224 88.7169 167.754 87.6198 168.617 87.6077C169.045 87.6298 169.461 87.7528 169.834 87.967C170.207 88.1812 170.525 88.4807 170.765 88.8418C171.216 89.3281 171.558 89.9084 171.767 90.5425C171.731 90.1774 171.804 89.8099 171.977 89.4878C172.149 89.1657 172.413 88.9039 172.734 88.7365C173.116 88.4709 173.566 88.3244 174.029 88.3147C174.492 88.3051 174.947 88.4329 175.339 88.6823C176.464 89.1699 176.642 89.328 177.504 90.6508C177.382 89.4348 178.067 89.4167 179.264 89.5778C180.396 89.7866 181.404 90.434 182.076 91.3838C186.484 96.6724 184.694 110.297 182.217 116.58C191.59 118.507 201.323 117.366 210.02 113.322C218.717 109.278 225.932 102.538 230.631 94.0687C240 77.6853 242.74 55.0034 230.336 39.4312ZM215.958 48.0097C214.192 51.8549 211.275 54.9537 208.706 58.2828C191.844 80.1309 196.481 85.6738 191.39 89.0631C191.036 89.2754 190.623 89.3625 190.216 89.3107C189.808 89.259 189.429 89.0714 189.137 88.7771C179.571 77.011 172.347 70.5982 170.553 67.7071C170.435 67.4946 170.389 67.2487 170.421 67.0069C170.453 66.7651 170.563 66.5408 170.733 66.3682C170.902 66.1957 171.123 66.0844 171.361 66.0514C171.598 66.0184 171.84 66.0655 172.049 66.1856C176.341 68.5755 187.243 80.8352 190.44 84.5827C191.397 82.4411 191.92 73.7678 206.453 55.1268C208.713 51.8881 211.435 49.0109 214.531 46.5905C215.468 45.9313 216.344 47.1624 215.958 48.0037V48.0097Z" fill="#38A1FF"/>
<path d="M110.049 141.314C109.205 140.731 107.977 140.761 107.829 142.208C107.681 143.654 109.641 145.419 110.751 144.498C111.861 143.577 110.893 141.895 110.049 141.314Z" fill="#191919"/>
<path d="M164.375 91.9029C163.887 88.9667 163.55 84.0438 160.785 82.3281C160.381 82.0768 159.699 82.3989 159.853 82.9301C160.307 84.5194 161.185 85.9206 161.629 87.5294C162.656 92.0398 163.386 96.6153 163.812 101.225C161.964 100.845 160.044 101.181 158.428 102.168C156.812 103.154 155.618 104.72 155.08 106.557C154.908 107.47 154.944 108.411 155.185 109.307C155.426 110.204 155.865 111.033 156.469 111.73C158.093 114.014 159.9 116.157 161.873 118.137C162.169 118.424 162.78 118.123 162.524 117.708C159.15 112.213 156.604 110.743 156.434 108.115C156.415 107.182 156.652 106.262 157.12 105.459C157.587 104.656 158.266 104.002 159.08 103.571C160.644 102.691 162.213 102.891 163.866 102.551C163.884 103.32 163.878 104.09 163.849 104.859C163.847 104.972 163.887 105.081 163.961 105.164C164.035 105.247 164.137 105.298 164.247 105.307C164.357 105.316 164.467 105.282 164.553 105.212C164.639 105.142 164.696 105.041 164.711 104.93C165.372 100.603 165.258 96.1893 164.375 91.9029Z" fill="#191919"/>
<path d="M167.685 92.815C167.743 92.6273 167.855 92.4615 168.006 92.339C168.158 92.2165 168.342 92.1429 168.535 92.1275C168.728 92.1121 168.921 92.1557 169.089 92.2528C169.258 92.3498 169.394 92.4958 169.48 92.672C170.133 93.9978 170.697 95.3669 171.169 96.7701C171.587 98.2751 171.465 100.382 172.471 101.603C172.53 101.675 172.605 101.732 172.69 101.77C172.775 101.807 172.867 101.824 172.96 101.819C173.052 101.814 173.142 101.787 173.222 101.74C173.302 101.693 173.37 101.627 173.421 101.549C174.266 100.23 173.707 98.2721 173.316 96.883C172.852 95.2009 172.159 93.593 171.257 92.1061C170.655 91.1234 169.814 90.0172 168.528 90.1496C167.98 90.2558 167.488 90.5615 167.144 91.0097C166.801 91.4578 166.63 92.0177 166.663 92.5847C166.641 93.1566 167.617 93.4576 167.685 92.815Z" fill="#191919"/>
<path d="M173.651 92.514C176.13 90.0955 176.759 95.9499 176.941 97.2382C177.573 101.765 177.089 102.126 177.909 103.162C177.962 103.225 178.028 103.274 178.103 103.307C178.177 103.34 178.258 103.356 178.34 103.352C178.421 103.349 178.5 103.326 178.572 103.287C178.644 103.248 178.706 103.193 178.754 103.126C179.661 101.886 179.158 99.8343 179.001 98.3835C178.875 96.5351 178.532 94.7086 177.98 92.9429C177.142 90.6328 174.522 89.4137 172.859 91.763C172.498 92.2672 173.192 92.9655 173.651 92.514Z" fill="#191919"/>
<path d="M179.264 93.2454C181.336 93.6337 181.301 97.1103 181.43 98.7206C181.725 102.592 181.428 106.486 180.549 110.264C179.925 111.962 179.527 113.738 179.365 115.543C179.384 116.027 179.964 116.51 180.386 116.079C181.987 114.451 182.377 111.767 182.815 109.584C183.318 107.021 183.542 104.411 183.484 101.798C183.426 98.7883 183.621 91.7705 179.207 92.064C178.507 92.1106 178.684 93.1355 179.264 93.2454Z" fill="#191919"/>
<path d="M164.429 186.93C164.519 187.003 164.537 187.022 164.429 186.93V186.93Z" fill="#191919"/>
<path d="M63.5001 254.72C65.6535 242.853 67.2563 230.64 65.507 218.624C65.3812 217.765 64.0122 217.98 64.027 218.821C64.4991 243.494 59.7024 259.95 55.3853 281.128C54.8465 283.778 53.7439 286.838 53.8194 289.556C53.8949 292.237 56.3354 291.743 56.4938 290.289L56.6891 288.465C56.4982 287.111 61.3141 266.763 63.5001 254.72Z" fill="#191919"/>
<path d="M189.84 170.912C188.461 156.633 187.052 141.965 182.96 128.196C182.535 126.765 180.318 127.121 180.654 128.647C183.057 140.165 184.872 151.801 186.093 163.509C187.462 175.302 188.628 187.275 187.237 199.122C186.041 209.287 183.294 220.293 174.442 226.287C167.069 231.281 157.866 234.357 149.417 232.068C138.382 229.078 135.549 225.964 127.454 218.145C127.342 218.019 127.187 217.942 127.02 217.93C126.854 217.918 126.689 217.972 126.561 218.081C126.433 218.191 126.352 218.346 126.335 218.515C126.317 218.684 126.365 218.853 126.468 218.987C131.256 225.67 136.64 230.425 142.729 232.983C143.049 237.159 143.607 241.312 144.401 245.422C149.069 278.389 146.589 282.468 148.026 290.93C148.152 291.665 149.26 291.594 149.435 290.93C150.678 286.209 150.274 281.017 150.086 276.181C149.547 262.335 147.022 241.808 144.823 233.767C152.655 236.381 161.537 235.582 171.539 231.12C181.918 226.488 186.131 218.495 188.609 207.89C191.436 195.787 191.032 183.244 189.84 170.912Z" fill="#191919"/>
<path d="M296.348 18.2783C295.051 14.4301 292.071 9.94065 288.235 8.90069C285.577 8.3657 282.882 8.04265 280.175 7.93448C243.216 4.11931 216.338 5.93885 186.655 6.03818C186.48 6.03321 186.308 6.08313 186.162 6.18116C154.094 7.18048 127.09 5.17732 92.332 10.5833C89.6931 10.9941 87.004 11.0995 84.8003 12.9281C81.2586 15.8749 79.5803 20.4982 78.9054 25.1502C76.3391 42.8144 77.3041 84.9408 78.3771 104.966C78.8788 114.335 79.1171 126.026 86.1382 132.079C84.7471 133.443 83.8377 135.236 83.5511 137.179C81.9853 146.146 87.041 150.441 89.887 156.99C91.1099 159.175 93.1246 160.787 95.5006 161.482C95.7581 163.881 95.4128 166.307 94.4972 168.533C79.8541 170.038 71.1739 174.193 59.4212 182.045C53.3694 185.881 47.6576 190.246 42.3509 195.09C32.6021 204.432 26.546 216.889 29.0117 230.703C31.6845 245.682 43.2004 258.863 56.0069 266.155C57.1701 266.817 58.0182 265.165 57.0281 264.383C51.9309 260.361 46.7169 256.616 42.3509 251.731C31.3841 239.459 28.8385 225.624 32.1789 214.812C36.2015 201.795 47.2171 193.102 58.3127 185.57C64.0881 181.342 70.3095 177.782 76.8615 174.958C89.5466 170.024 103.419 169.69 116.793 170.894C124.695 171.608 133.531 174.401 141.114 176.854C148.63 179.286 161.74 187.502 164.52 187.824C164.52 187.824 167.236 188.536 165.629 186.608C164.418 185.154 160.473 183.011 155.439 180.63C155.597 180.58 155.74 180.489 155.854 180.367C155.968 180.245 156.049 180.095 156.09 179.932C156.381 177.448 156.398 174.94 156.144 172.452C155.768 146.82 161.213 129.35 162.814 121.449C162.84 121.347 162.836 121.24 162.801 121.141C162.767 121.042 162.704 120.956 162.62 120.894C165.611 121.055 168.622 120.894 171.613 121.001C174.534 121.107 177.738 121.884 180.623 121.452C180.768 121.421 180.9 121.342 180.998 121.229C181.096 121.115 181.156 120.972 181.168 120.821C181.18 120.67 181.144 120.52 181.065 120.392C180.986 120.263 180.868 120.164 180.729 120.11C177.935 118.952 174.324 119.196 171.349 119.143C168.194 118.984 165.03 119.176 161.916 119.715C161.79 119.744 161.678 119.816 161.597 119.918C161.517 120.021 161.473 120.148 161.473 120.279C161.473 120.41 161.517 120.537 161.597 120.64C161.678 120.742 161.79 120.814 161.916 120.843C160.498 121.667 153.748 146.879 154.138 173.6C154.156 174.901 154.063 178.889 154.754 180.293C144.582 175.533 130.116 170.193 122.249 169.234C118.253 168.747 114.189 168.375 110.123 168.181C109.391 166.161 109.067 164.01 109.173 161.86C111.303 162.161 113.573 161.876 114.664 160.016C116.459 156.955 114.266 153.108 114.101 149.904C114.097 149.772 114.047 149.645 113.959 149.547C113.872 149.449 113.753 149.386 113.624 149.369C113.495 149.352 113.364 149.382 113.254 149.453C113.145 149.525 113.064 149.634 113.027 149.761C111.961 152.46 113.962 155.113 113.52 157.851C112.889 161.753 108.683 158.878 106.358 159.783C106.217 159.827 106.094 159.917 106.006 160.037C105.919 160.158 105.872 160.304 105.872 160.454C105.872 160.604 105.919 160.75 106.006 160.871C106.094 160.992 106.217 161.081 106.358 161.125C106.921 161.335 107.497 161.508 108.082 161.645C107.825 163.13 107.825 164.65 108.082 166.136C108.172 166.794 108.295 167.447 108.452 168.092C104.485 167.954 100.513 168.031 96.5544 168.324C96.7325 167.606 96.862 166.876 96.9422 166.14C97.1474 164.714 97.1174 163.263 96.8534 161.846C98.0967 162.193 99.3848 162.346 100.673 162.298C104.509 162.06 106.741 157.376 105.073 153.816C107.207 153.816 109.09 151.385 107.518 149.913C107.439 149.838 107.341 149.788 107.235 149.768C107.129 149.749 107.019 149.76 106.919 149.801C106.819 149.843 106.733 149.913 106.671 150.002C106.609 150.092 106.573 150.198 106.568 150.307C106.093 154.354 101.637 150.13 101.113 148.142C100.58 146.121 102.571 143.457 104.739 145.153C105.266 145.565 105.81 144.599 105.671 144.044C105.492 143.329 105.354 142.594 105.161 141.878C105.483 141.612 105.784 141.319 106.057 141.002C107.566 140.188 108.997 139.236 110.335 138.156C111.635 141.663 113.771 144.787 116.551 147.248C116.181 147.488 115.765 147.643 115.331 147.705C114.897 147.767 114.455 147.732 114.035 147.604C113.822 147.545 113.595 147.573 113.403 147.683C113.212 147.794 113.071 147.977 113.012 148.193C112.953 148.409 112.981 148.64 113.09 148.835C113.198 149.03 113.378 149.173 113.591 149.233C114.437 149.475 115.333 149.473 116.179 149.227C117.024 148.98 117.785 148.499 118.377 147.838C118.53 147.68 118.615 147.468 118.615 147.247C118.615 147.026 118.53 146.814 118.377 146.656C113.197 142.211 111.788 137.551 111.249 137.325C111.425 137.164 111.602 136.985 111.778 136.824C119.997 137.197 128.231 137.054 136.433 136.395C142.824 135.855 149.149 136.672 155.862 136.556C155.985 136.073 156.09 135.572 156.215 135.071C149.851 135.071 146.2 134.755 140.287 134.57C135.287 134.419 133.352 135.614 113.361 135.107C117.618 129.839 117.741 123.518 115.315 119.876C114.4 118.411 113.069 117.262 111.497 116.585C109.925 115.907 108.188 115.732 106.516 116.082C103.188 116.985 101.348 120.221 99.6876 123.005C96.3783 128.56 95.3793 128.41 90.4302 129.752C89.4332 130.011 88.4788 130.416 87.5975 130.956C82.6543 127.007 81.4318 120.451 80.7687 113.95C79.2236 98.7868 78.5487 52.9566 79.9414 33.5074C80.2374 29.3205 80.3336 24.4774 81.9128 20.5509C82.8276 17.8759 84.5297 15.5519 86.7879 13.8943C87.8017 13.2712 88.2472 13.1493 96.0098 12.0145C126.129 7.61392 152.936 9.02862 181.486 8.36491C221.067 7.44385 249.68 6.50925 284.772 10.5125C287.482 10.8211 289.421 11.2079 291.371 13.4112C294.157 16.5566 295.141 20.3899 295.842 24.5602C298.802 42.1687 300.315 95.1598 299.344 111.248C299.036 116.349 298.249 122.197 295.261 126.352C293.217 129.195 290.035 129.737 286.955 130.235C274.72 132.217 223.096 132.735 197.695 133.847C196.767 133.888 195.436 134.02 187.699 134.148C187.768 134.525 187.716 135.169 187.786 135.527C187.934 135.527 264.894 133.996 274.724 133.451C278.032 133.266 281.359 133.044 284.667 132.645C287.708 132.496 290.699 131.8 293.501 130.587C296.866 128.824 298.66 124.879 299.766 121.192C301.407 115.718 301.5 109.775 301.542 104.048C301.645 89.8847 300.833 31.5856 296.348 18.2783Z" fill="#191919"/>
</g>
<path d="M76.4722 365.223H65.8032V355.458H76.4722V365.223ZM68.8916 362.745H73.4082V357.936H68.8916V362.745ZM82.771 366.48H79.6582V354.005H82.771V366.48ZM85.7739 361.402H81.8921V358.851H85.7739V361.402ZM76.521 369.203C76.521 370.375 76.1995 371.445 75.5566 372.413C74.9137 373.373 73.9697 374.179 72.7246 374.83C71.4876 375.489 69.9984 375.929 68.2568 376.148L67.1216 373.792C68.6027 373.605 69.8519 373.28 70.8691 372.816C71.8945 372.344 72.6554 371.799 73.1519 371.18C73.6564 370.554 73.9087 369.894 73.9087 369.203V368.653H76.521V369.203ZM77.2412 369.203C77.2331 369.87 77.4854 370.517 77.998 371.144C78.5107 371.77 79.2757 372.328 80.293 372.816C81.3184 373.296 82.5594 373.63 84.0161 373.817L82.9175 376.197C81.1678 375.969 79.6623 375.518 78.4009 374.842C77.1476 374.175 76.1914 373.357 75.5322 372.389C74.8812 371.412 74.5597 370.35 74.5679 369.203V368.653H77.2412V369.203ZM83.0518 369.996H68.0737V367.518H83.0518V369.996ZM98.396 369.972H95.3076V366.676H98.396V369.972ZM107.026 367.164H86.7627V364.71H107.026V367.164ZM98.396 357.276H95.3076V354.029H98.396V357.276ZM97.8467 357.875C97.8467 358.989 97.4845 359.97 96.7603 360.816C96.0441 361.663 94.9862 362.35 93.5864 362.879C92.1867 363.4 90.4899 363.73 88.4961 363.868L87.5928 361.573C89.3099 361.467 90.73 361.231 91.853 360.865C92.9842 360.499 93.8102 360.06 94.3311 359.547C94.8519 359.034 95.1123 358.477 95.1123 357.875V357.447H97.8467V357.875ZM98.6035 357.875C98.5954 358.477 98.8558 359.034 99.3848 359.547C99.9137 360.06 100.74 360.499 101.863 360.865C102.994 361.231 104.41 361.467 106.111 361.573L105.22 363.868C103.218 363.73 101.517 363.4 100.117 362.879C98.7256 362.35 97.6676 361.663 96.9434 360.816C96.2191 359.97 95.861 358.989 95.8691 357.875V357.447H98.6035V357.875ZM105.061 358.375H88.7036V355.934H105.061V358.375ZM104.597 376.002H89.1064V368.885H104.597V376.002ZM92.1704 373.5H101.545V371.339H92.1704V373.5ZM125.166 361.402H121.003V358.9H125.166V361.402ZM125.081 365.833H120.955V363.343H125.081V365.833ZM120.747 358.546H108.406V356.08H120.747V358.546ZM114.705 359.291C115.714 359.291 116.617 359.465 117.415 359.815C118.212 360.165 118.835 360.658 119.282 361.292C119.738 361.919 119.966 362.635 119.966 363.441C119.966 364.263 119.738 364.987 119.282 365.614C118.835 366.232 118.212 366.721 117.415 367.079C116.617 367.429 115.714 367.604 114.705 367.604C113.687 367.604 112.784 367.429 111.995 367.079C111.205 366.721 110.591 366.232 110.151 365.614C109.712 364.987 109.496 364.263 109.504 363.441C109.496 362.635 109.712 361.919 110.151 361.292C110.591 360.658 111.205 360.165 111.995 359.815C112.784 359.465 113.687 359.291 114.705 359.291ZM114.705 361.598C114.233 361.606 113.826 361.683 113.484 361.83C113.142 361.968 112.874 362.175 112.678 362.452C112.491 362.729 112.397 363.058 112.397 363.441C112.397 363.84 112.491 364.177 112.678 364.454C112.874 364.723 113.142 364.93 113.484 365.077C113.826 365.215 114.233 365.284 114.705 365.284C115.177 365.284 115.588 365.215 115.938 365.077C116.296 364.93 116.572 364.723 116.768 364.454C116.971 364.177 117.073 363.84 117.073 363.441C117.073 363.058 116.971 362.729 116.768 362.452C116.572 362.175 116.296 361.968 115.938 361.83C115.579 361.683 115.168 361.606 114.705 361.598ZM116.292 357.777H113.179V353.834H116.292V357.777ZM127.083 368.189H123.982V354.005H127.083V368.189ZM119.539 368.446C121.109 368.446 122.468 368.6 123.616 368.91C124.771 369.219 125.658 369.671 126.277 370.265C126.895 370.851 127.205 371.546 127.205 372.352C127.205 373.158 126.895 373.854 126.277 374.439C125.658 375.025 124.771 375.473 123.616 375.782C122.468 376.091 121.109 376.246 119.539 376.246C117.968 376.246 116.605 376.091 115.449 375.782C114.302 375.473 113.419 375.025 112.8 374.439C112.182 373.854 111.873 373.158 111.873 372.352C111.873 371.546 112.182 370.851 112.8 370.265C113.419 369.671 114.302 369.219 115.449 368.91C116.605 368.6 117.968 368.446 119.539 368.446ZM119.539 370.814C118.578 370.814 117.773 370.871 117.122 370.985C116.479 371.091 115.986 371.262 115.645 371.498C115.311 371.725 115.144 372.01 115.144 372.352C115.144 372.694 115.311 372.979 115.645 373.207C115.986 373.434 116.483 373.609 117.134 373.731C117.785 373.845 118.586 373.902 119.539 373.902C120.474 373.902 121.264 373.845 121.907 373.731C122.55 373.609 123.034 373.434 123.359 373.207C123.693 372.979 123.86 372.694 123.86 372.352C123.86 372.01 123.693 371.725 123.359 371.498C123.034 371.262 122.55 371.091 121.907 370.985C121.272 370.879 120.483 370.822 119.539 370.814ZM152.18 361.964H147.908V359.437H152.18V361.964ZM154.475 367.225H151.375V354.005H154.475V367.225ZM146.882 367.713C148.461 367.713 149.824 367.884 150.972 368.226C152.119 368.568 152.998 369.06 153.608 369.703C154.227 370.338 154.54 371.103 154.548 371.998C154.54 372.885 154.227 373.646 153.608 374.281C152.998 374.924 152.119 375.416 150.972 375.758C149.824 376.1 148.461 376.275 146.882 376.283C145.312 376.275 143.953 376.1 142.805 375.758C141.666 375.416 140.787 374.924 140.168 374.281C139.558 373.646 139.253 372.885 139.253 371.998C139.253 371.103 139.558 370.338 140.168 369.703C140.787 369.06 141.666 368.568 142.805 368.226C143.953 367.884 145.312 367.713 146.882 367.713ZM146.882 370.082C145.889 370.082 145.059 370.155 144.392 370.301C143.725 370.44 143.216 370.651 142.866 370.936C142.516 371.221 142.341 371.575 142.341 371.998C142.341 372.413 142.516 372.763 142.866 373.048C143.216 373.333 143.725 373.548 144.392 373.695C145.068 373.833 145.898 373.902 146.882 373.902C147.875 373.902 148.709 373.833 149.385 373.695C150.068 373.548 150.581 373.333 150.923 373.048C151.265 372.763 151.436 372.413 151.436 371.998C151.436 371.575 151.265 371.221 150.923 370.936C150.581 370.651 150.068 370.44 149.385 370.301C148.709 370.155 147.875 370.082 146.882 370.082ZM143.501 357.716C143.501 359.156 143.269 360.507 142.805 361.769C142.349 363.03 141.65 364.141 140.706 365.101C139.77 366.053 138.614 366.765 137.239 367.237L135.615 364.759C136.795 364.361 137.784 363.791 138.582 363.05C139.387 362.31 139.981 361.484 140.364 360.572C140.754 359.653 140.954 358.701 140.962 357.716V356.251H143.501V357.716ZM144.136 357.691C144.136 358.603 144.319 359.482 144.685 360.328C145.059 361.166 145.629 361.927 146.394 362.611C147.159 363.294 148.111 363.827 149.25 364.21L147.712 366.651C146.37 366.212 145.238 365.545 144.319 364.649C143.407 363.746 142.724 362.7 142.268 361.512C141.82 360.316 141.601 359.042 141.609 357.691V356.251H144.136V357.691ZM148.567 357.875H136.506V355.36H148.567V357.875ZM177.681 373.658H157.368V371.144H177.681V373.658ZM169.014 371.766H165.95V366.322H169.014V371.766ZM162.642 358.9H172.322V355.433H175.422V367.018H159.517V355.433H162.642V358.9ZM172.322 364.527V361.366H162.642V364.527H172.322ZM203.95 376.246H201.021V354.005H203.95V376.246ZM197.31 364.161H193.562V361.659H197.31V364.161ZM199.409 375.233H196.492V354.396H199.409V375.233ZM191.133 359.974C191.125 361.708 190.946 363.355 190.596 364.918C190.246 366.48 189.701 367.888 188.96 369.142C188.228 370.395 187.296 371.367 186.165 372.059L184.285 369.764C185.326 369.121 186.185 368.283 186.86 367.25C187.536 366.208 188.024 365.073 188.325 363.844C188.626 362.607 188.777 361.317 188.777 359.974V357.643H191.133V359.974ZM191.78 359.974C191.78 361.284 191.926 362.525 192.219 363.697C192.512 364.869 192.984 365.943 193.635 366.92C194.294 367.888 195.141 368.67 196.174 369.264L194.355 371.546C193.216 370.879 192.284 369.955 191.56 368.775C190.836 367.595 190.307 366.265 189.973 364.784C189.648 363.294 189.485 361.691 189.485 359.974V357.643H191.78V359.974ZM195.149 358.778H185.127V356.288H195.149V358.778ZM216.365 367.872C217.976 367.872 219.376 368.035 220.564 368.36C221.76 368.686 222.68 369.166 223.323 369.801C223.966 370.436 224.291 371.192 224.299 372.071C224.291 372.934 223.966 373.679 223.323 374.305C222.68 374.932 221.76 375.412 220.564 375.746C219.376 376.079 217.976 376.246 216.365 376.246C214.762 376.246 213.362 376.079 212.166 375.746C210.977 375.412 210.062 374.932 209.419 374.305C208.776 373.679 208.455 372.934 208.455 372.071C208.455 371.192 208.776 370.436 209.419 369.801C210.062 369.166 210.977 368.686 212.166 368.36C213.354 368.035 214.753 367.872 216.365 367.872ZM216.365 370.179C215.339 370.179 214.469 370.252 213.752 370.399C213.036 370.537 212.491 370.749 212.117 371.034C211.742 371.319 211.555 371.664 211.555 372.071C211.555 372.462 211.742 372.796 212.117 373.072C212.491 373.341 213.032 373.54 213.74 373.67C214.456 373.801 215.331 373.87 216.365 373.878C217.398 373.87 218.273 373.801 218.989 373.67C219.705 373.54 220.251 373.341 220.625 373.072C221.007 372.796 221.199 372.462 221.199 372.071C221.199 371.664 221.007 371.319 220.625 371.034C220.251 370.749 219.701 370.537 218.977 370.399C218.253 370.252 217.382 370.179 216.365 370.179ZM222.859 357.472H208.674V355.018H222.859V357.472ZM226.582 366.468H206.404V363.954H226.582V366.468ZM217.048 364.625H213.96V360.06H217.048V364.625ZM224.189 356.947C224.181 358.127 224.141 359.148 224.067 360.011C223.994 360.873 223.823 361.801 223.555 362.794L220.491 362.489C220.735 361.504 220.889 360.621 220.955 359.84C221.028 359.059 221.069 358.127 221.077 357.044V356.837V355.018H224.189V356.837V356.947ZM46.1011 403.226H43.0127V399.393H46.1011V403.226ZM43.269 404.618H52.3999V402.738H55.4639V411.002H40.1929V402.738H43.269V404.618ZM52.3999 408.536V406.974H43.269V408.536H52.3999ZM55.4639 401.859H52.3633V389.054H55.4639V401.859ZM36.8604 398.38C39.7819 398.388 42.3698 398.36 44.624 398.294C46.8783 398.221 49.0511 398.054 51.1426 397.794L51.3135 399.991C49.1813 400.357 46.9881 400.597 44.7339 400.711C42.4878 400.817 39.9854 400.87 37.2266 400.87L36.8604 398.38ZM45.2588 390.482C45.2507 391.613 45.0106 392.655 44.5386 393.607C44.0747 394.551 43.3748 395.365 42.439 396.048C41.5031 396.732 40.3556 397.22 38.9966 397.513L37.6294 395.121C38.7687 394.893 39.7209 394.547 40.4858 394.083C41.259 393.611 41.8327 393.07 42.207 392.459C42.5814 391.841 42.7686 391.182 42.7686 390.482V389.591H45.2588V390.482ZM45.979 390.482C45.979 391.125 46.1621 391.735 46.5283 392.313C46.9027 392.891 47.4683 393.399 48.2251 393.839C48.9901 394.278 49.9259 394.604 51.0327 394.815L49.7021 397.147C48.3512 396.878 47.2119 396.427 46.2842 395.792C45.3564 395.157 44.6566 394.388 44.1846 393.485C43.7126 392.582 43.4806 391.581 43.4888 390.482V389.591H45.979V390.482ZM74.751 393.412H60.5176V390.946H74.751V393.412ZM78.7061 408.524H58.4424V405.997H78.7061V408.524ZM68.7817 407.291H65.6934V398.355H68.7817V407.291ZM76.7285 393.302C76.7285 395.133 76.6756 396.813 76.5698 398.343C76.4722 399.873 76.2362 401.655 75.8618 403.69L72.7002 403.36C72.9769 402.026 73.1803 400.764 73.3105 399.576C73.4408 398.38 73.5221 397.326 73.5547 396.415C73.5872 395.503 73.6035 394.433 73.6035 393.204V393.058V390.946H76.7285V393.058V393.302ZM82.6123 414.151H80.0244L81.2329 407.206H84.7241L82.6123 414.151ZM99.7388 395.072C99.7388 396.781 99.4946 398.433 99.0063 400.028C98.5262 401.615 97.8141 403.031 96.8701 404.276C95.9342 405.521 94.8112 406.453 93.501 407.071L91.6699 404.618C92.8662 404.056 93.8835 403.263 94.7217 402.237C95.568 401.212 96.2028 400.081 96.626 398.844C97.0492 397.607 97.2648 396.349 97.2729 395.072V392.484H99.7388V395.072ZM100.398 395.072C100.39 396.252 100.593 397.424 101.008 398.587C101.423 399.751 102.038 400.821 102.852 401.798C103.674 402.766 104.67 403.519 105.842 404.056L104.109 406.498C102.799 405.903 101.68 405.012 100.752 403.824C99.8324 402.636 99.1325 401.285 98.6523 399.771C98.1722 398.25 97.9321 396.683 97.9321 395.072V392.484H100.398V395.072ZM104.878 393.717H92.561V391.178H104.878V393.717ZM109.724 411.246H106.599V389.005H109.724V411.246ZM113.02 400.113H109.041V397.513H113.02V400.113ZM126.411 399.076H122.627V396.524H126.411V399.076ZM120.295 394.767C120.295 396.508 120.116 398.156 119.758 399.71C119.408 401.257 118.859 402.652 118.11 403.897C117.37 405.134 116.43 406.099 115.291 406.791L113.386 404.471C114.436 403.828 115.299 402.994 115.974 401.969C116.65 400.935 117.138 399.812 117.439 398.6C117.748 397.387 117.903 396.109 117.903 394.767V390.934H120.295V394.767ZM120.918 394.62C120.918 395.938 121.048 397.171 121.309 398.319C121.569 399.458 122 400.516 122.603 401.493C123.205 402.461 123.99 403.259 124.958 403.885L123.274 406.278C122.143 405.594 121.227 404.65 120.527 403.446C119.827 402.241 119.327 400.903 119.026 399.43C118.725 397.949 118.578 396.345 118.586 394.62V390.934H120.918V394.62ZM133.064 411.246H130.073V389.005H133.064V411.246ZM128.413 410.221H125.496V389.347H128.413V410.221ZM152.937 411.246H149.861V389.005H152.937V411.246ZM156.233 400.284H152.253V397.733H156.233V400.284ZM148.347 394.84H135.298V392.337H148.347V394.84ZM141.877 396.073C142.944 396.073 143.908 396.301 144.771 396.756C145.641 397.204 146.321 397.831 146.809 398.636C147.306 399.442 147.558 400.353 147.566 401.371C147.558 402.396 147.306 403.312 146.809 404.117C146.321 404.915 145.641 405.541 144.771 405.997C143.908 406.445 142.944 406.668 141.877 406.668C140.795 406.668 139.823 406.445 138.96 405.997C138.097 405.541 137.422 404.915 136.934 404.117C136.445 403.312 136.201 402.396 136.201 401.371C136.201 400.353 136.445 399.442 136.934 398.636C137.422 397.831 138.097 397.204 138.96 396.756C139.823 396.301 140.795 396.073 141.877 396.073ZM141.877 398.612C141.357 398.62 140.893 398.734 140.486 398.954C140.079 399.173 139.757 399.495 139.521 399.918C139.294 400.333 139.18 400.817 139.18 401.371C139.18 401.94 139.294 402.433 139.521 402.848C139.757 403.255 140.079 403.568 140.486 403.788C140.893 404.007 141.357 404.121 141.877 404.129C142.398 404.121 142.862 404.007 143.269 403.788C143.684 403.568 144.001 403.255 144.221 402.848C144.449 402.433 144.563 401.94 144.563 401.371C144.563 400.817 144.449 400.333 144.221 399.918C144.001 399.495 143.684 399.173 143.269 398.954C142.862 398.734 142.398 398.62 141.877 398.612ZM143.428 393.29H140.327V389.359H143.428V393.29ZM176.265 411.246H173.335V389.005H176.265V411.246ZM169.209 400.064H164.351V397.586H169.209V400.064ZM171.541 410.27H168.611V389.53H171.541V410.27ZM166.731 391.666C166.723 393.871 166.458 395.869 165.938 397.66C165.425 399.45 164.562 401.102 163.35 402.616C162.145 404.121 160.53 405.456 158.503 406.62L156.746 404.435C158.43 403.434 159.781 402.339 160.798 401.151C161.824 399.955 162.564 398.636 163.02 397.196C163.476 395.755 163.708 394.124 163.716 392.301V391.666H166.731ZM164.717 394.168H157.966V391.666H164.717V394.168Z" fill="#01A4FC"/>
<path d="M238.093 355.165C239.656 355.165 241.072 355.433 242.341 355.97C243.619 356.499 244.624 357.248 245.356 358.216C246.089 359.185 246.455 360.296 246.455 361.549C246.455 362.81 246.089 363.929 245.356 364.906C244.624 365.874 243.619 366.627 242.341 367.164C241.072 367.693 239.656 367.953 238.093 367.945C236.531 367.953 235.115 367.693 233.845 367.164C232.576 366.627 231.575 365.874 230.842 364.906C230.11 363.929 229.744 362.81 229.744 361.549C229.744 360.296 230.11 359.185 230.842 358.216C231.575 357.248 232.576 356.499 233.845 355.97C235.115 355.433 236.531 355.165 238.093 355.165ZM238.093 357.679C237.068 357.679 236.152 357.838 235.347 358.155C234.541 358.465 233.91 358.912 233.455 359.498C232.999 360.084 232.775 360.768 232.783 361.549C232.775 362.338 232.999 363.026 233.455 363.612C233.91 364.19 234.537 364.633 235.334 364.942C236.14 365.243 237.06 365.398 238.093 365.406C239.119 365.398 240.03 365.243 240.828 364.942C241.633 364.633 242.26 364.19 242.708 363.612C243.155 363.026 243.379 362.338 243.379 361.549C243.379 360.768 243.151 360.084 242.695 359.498C242.248 358.912 241.621 358.465 240.815 358.155C240.018 357.838 239.111 357.679 238.093 357.679ZM248.286 373.548H227.974V371.034H248.286V373.548ZM269.893 373.78H249.58V371.229H269.893V373.78ZM261.226 372.291H258.162V367.018H261.226V372.291ZM267.549 362.831H255.024V366.627H251.924V360.389H264.473V357.972H251.887V355.47H267.549V362.831ZM268.074 367.86H251.924V365.333H268.074V367.86ZM202.034 400.125H198.921V389.005H202.034V400.125ZM205.037 395.89H200.74V393.326H205.037V395.89ZM202.034 407.071H190.4V409.769H187.336V404.813H198.933V403.409H187.3V401.017H202.034V407.071ZM202.681 411.002H187.336V408.548H202.681V411.002ZM190.547 389.688C191.67 389.688 192.683 389.904 193.586 390.335C194.498 390.759 195.21 391.353 195.723 392.118C196.235 392.883 196.496 393.749 196.504 394.718C196.496 395.678 196.235 396.541 195.723 397.306C195.21 398.071 194.498 398.669 193.586 399.1C192.675 399.531 191.662 399.747 190.547 399.747C189.416 399.747 188.394 399.531 187.483 399.1C186.571 398.669 185.855 398.071 185.334 397.306C184.814 396.541 184.553 395.678 184.553 394.718C184.553 393.749 184.814 392.883 185.334 392.118C185.855 391.353 186.567 390.759 187.471 390.335C188.382 389.904 189.408 389.688 190.547 389.688ZM190.547 392.228C189.969 392.228 189.456 392.329 189.009 392.533C188.569 392.728 188.223 393.013 187.971 393.387C187.719 393.762 187.593 394.205 187.593 394.718C187.593 395.239 187.719 395.69 187.971 396.073C188.223 396.455 188.569 396.752 189.009 396.964C189.456 397.175 189.969 397.281 190.547 397.281C191.108 397.281 191.613 397.175 192.061 396.964C192.508 396.752 192.854 396.455 193.098 396.073C193.35 395.69 193.477 395.239 193.477 394.718C193.477 394.205 193.35 393.762 193.098 393.387C192.854 393.013 192.508 392.728 192.061 392.533C191.613 392.329 191.108 392.228 190.547 392.228ZM224.727 411.307H221.638V389.005H224.727V411.307ZM222.175 396.268H217.915V393.741H222.175V396.268ZM208.552 403.775C210.351 403.775 211.97 403.735 213.411 403.653C214.851 403.572 216.34 403.417 217.878 403.189L218.123 405.729C216.593 405.973 215.107 406.135 213.667 406.217C212.227 406.29 210.522 406.327 208.552 406.327H206.794V403.775H208.552ZM216.731 399.417H209.907V404.374H206.794V397H213.679V393.363H206.746V390.873H216.731V399.417ZM222.102 402.323H217.842V399.771H222.102V402.323ZM245.723 401.81H230.024V399.32H245.723V401.81ZM247.944 408.548H227.632V405.985H247.944V408.548ZM245.564 393.399H233.101V400.357H230.024V390.885H245.564V393.399ZM267.939 411.307H264.851V389.005H267.939V411.307ZM265.388 396.268H261.128V393.741H265.388V396.268ZM251.765 403.775C253.564 403.775 255.183 403.735 256.624 403.653C258.064 403.572 259.553 403.417 261.091 403.189L261.335 405.729C259.806 405.973 258.32 406.135 256.88 406.217C255.439 406.29 253.735 406.327 251.765 406.327H250.007V403.775H251.765ZM259.944 399.417H253.12V404.374H250.007V397H256.892V393.363H249.958V390.873H259.944V399.417ZM265.315 402.323H261.055V399.771H265.315V402.323ZM278.462 406.571H275.374V400.333H278.462V406.571ZM286.641 406.571H283.503V400.333H286.641V406.571ZM291.157 408.646H270.845V406.095H291.157V408.646ZM280.964 390.104C282.568 390.104 284 390.352 285.261 390.848C286.531 391.345 287.524 392.044 288.24 392.948C288.964 393.851 289.326 394.889 289.326 396.061C289.326 397.249 288.968 398.29 288.252 399.186C287.536 400.081 286.543 400.777 285.273 401.273C284.004 401.769 282.568 402.018 280.964 402.018C279.361 402.018 277.925 401.769 276.655 401.273C275.394 400.777 274.405 400.081 273.689 399.186C272.973 398.29 272.615 397.249 272.615 396.061C272.615 394.889 272.973 393.851 273.689 392.948C274.405 392.044 275.394 391.345 276.655 390.848C277.925 390.352 279.361 390.104 280.964 390.104ZM280.964 392.569C279.898 392.561 278.971 392.695 278.181 392.972C277.392 393.249 276.777 393.652 276.338 394.181C275.907 394.71 275.691 395.336 275.691 396.061C275.691 396.785 275.907 397.416 276.338 397.953C276.777 398.482 277.392 398.889 278.181 399.173C278.979 399.458 279.906 399.605 280.964 399.613C282.014 399.605 282.938 399.458 283.735 399.173C284.533 398.88 285.151 398.469 285.591 397.94C286.03 397.411 286.25 396.785 286.25 396.061C286.25 395.336 286.03 394.71 285.591 394.181C285.151 393.652 284.533 393.249 283.735 392.972C282.938 392.695 282.014 392.561 280.964 392.569ZM295.308 409.22C294.941 409.22 294.6 409.13 294.282 408.951C293.965 408.764 293.713 408.512 293.525 408.194C293.346 407.877 293.261 407.531 293.269 407.157C293.261 406.791 293.346 406.453 293.525 406.144C293.713 405.834 293.965 405.59 294.282 405.411C294.6 405.232 294.941 405.143 295.308 405.143C295.666 405.143 296.003 405.232 296.321 405.411C296.638 405.59 296.886 405.838 297.065 406.156C297.253 406.465 297.35 406.799 297.358 407.157C297.35 407.531 297.253 407.877 297.065 408.194C296.886 408.512 296.638 408.764 296.321 408.951C296.003 409.13 295.666 409.22 295.308 409.22Z" fill="#1E1E1E"/>
<path d="M51.8018 441.372H48.457V440.566H51.8018V441.372ZM51.8018 444.802H48.457V444.008H51.8018V444.802ZM46.4429 438.979C46.9678 438.979 47.4357 439.134 47.8467 439.443C48.2617 439.752 48.5832 440.194 48.811 440.767C49.0389 441.341 49.1528 442.006 49.1528 442.763C49.1528 443.524 49.0389 444.189 48.811 444.759C48.5832 445.325 48.2617 445.762 47.8467 446.071C47.4357 446.381 46.9678 446.535 46.4429 446.535C45.9098 446.535 45.4358 446.381 45.0208 446.071C44.6098 445.762 44.2904 445.325 44.0625 444.759C43.8346 444.189 43.7207 443.524 43.7207 442.763C43.7207 442.006 43.8346 441.341 44.0625 440.767C44.2904 440.194 44.6098 439.752 45.0208 439.443C45.4358 439.134 45.9098 438.979 46.4429 438.979ZM46.4429 439.833C46.0889 439.833 45.7756 439.956 45.5029 440.2C45.2344 440.444 45.0228 440.788 44.8682 441.231C44.7135 441.671 44.6362 442.181 44.6362 442.763C44.6362 443.345 44.7135 443.858 44.8682 444.301C45.0228 444.741 45.2344 445.08 45.5029 445.321C45.7756 445.561 46.0889 445.681 46.4429 445.681C46.7928 445.681 47.1061 445.561 47.3828 445.321C47.6595 445.08 47.8731 444.739 48.0237 444.295C48.1742 443.852 48.2495 443.341 48.2495 442.763C48.2495 442.185 48.1742 441.675 48.0237 441.231C47.8731 440.788 47.6595 440.444 47.3828 440.2C47.1061 439.956 46.7928 439.833 46.4429 439.833ZM52.522 449.013H51.5698V438.137H52.522V449.013ZM63.313 449.013H62.3608V438.137H63.313V449.013ZM62.605 443.117H60.249V442.312H62.605V443.117ZM55.5737 445.583C56.6317 445.583 57.5269 445.561 58.2593 445.516C58.9958 445.467 59.7445 445.371 60.5054 445.229L60.5786 446.035C59.8055 446.173 59.0405 446.269 58.2837 446.322C57.5309 446.37 56.6276 446.397 55.5737 446.401H54.7437V445.583H55.5737ZM59.5898 442.946H55.6958V445.839H54.7437V442.153H58.6621V439.943H54.707V439.15H59.5898V442.946ZM75.0562 444.667H65.1196V443.886H75.0562V444.667ZM70.6372 446.792H69.6851V444.265H70.6372V446.792ZM73.9453 448.757H66.3892V447.951H73.9453V448.757ZM67.3413 448.256H66.3892V445.791H67.3413V448.256ZM67.4023 439.882H72.7734V438.491H73.7256V442.824H66.4502V438.491H67.4023V439.882ZM72.7734 442.043V440.615H67.4023V442.043H72.7734ZM82.4658 443.166H80.3784V442.373H82.4658V443.166ZM85.2368 448.989H84.3091V438.137H85.2368V448.989ZM83.0518 448.439H82.1362V438.369H83.0518V448.439ZM78.4009 439.052C78.8688 439.052 79.2778 439.207 79.6277 439.516C79.9817 439.825 80.2563 440.265 80.4517 440.834C80.647 441.4 80.7446 442.063 80.7446 442.824C80.7446 443.585 80.647 444.25 80.4517 444.82C80.2563 445.386 79.9817 445.823 79.6277 446.132C79.2778 446.442 78.8688 446.596 78.4009 446.596C77.9329 446.596 77.524 446.442 77.1741 446.132C76.8282 445.823 76.5576 445.386 76.3623 444.82C76.167 444.25 76.0693 443.585 76.0693 442.824C76.0693 442.063 76.167 441.4 76.3623 440.834C76.5576 440.265 76.8282 439.825 77.1741 439.516C77.524 439.207 77.9329 439.052 78.4009 439.052ZM78.4009 439.956C78.1079 439.956 77.8536 440.072 77.6379 440.303C77.4223 440.535 77.2555 440.869 77.1375 441.304C77.0235 441.736 76.9686 442.242 76.9727 442.824C76.9686 443.406 77.0235 443.913 77.1375 444.344C77.2555 444.771 77.4223 445.103 77.6379 445.339C77.8577 445.571 78.112 445.685 78.4009 445.681C78.6938 445.685 78.9502 445.571 79.1699 445.339C79.3896 445.103 79.5565 444.771 79.6704 444.344C79.7843 443.913 79.8413 443.406 79.8413 442.824C79.8413 442.242 79.7843 441.736 79.6704 441.304C79.5565 440.869 79.3896 440.535 79.1699 440.303C78.9502 440.072 78.6938 439.956 78.4009 439.956ZM96.0278 448.989H95.1123V438.137H96.0278V448.989ZM93.1104 443.374H90.3271V442.592H93.1104V443.374ZM93.7451 448.439H92.8296V438.43H93.7451V448.439ZM91.4258 439.528C91.4217 440.497 91.2773 441.412 90.9924 442.275C90.7117 443.138 90.2661 443.941 89.6558 444.686C89.0454 445.43 88.2642 446.083 87.312 446.645L86.7505 445.949C87.5928 445.449 88.2926 444.875 88.8501 444.228C89.4116 443.577 89.8246 442.873 90.0891 442.116C90.3577 441.359 90.494 440.554 90.498 439.699V439.528H91.4258ZM90.8643 440.322H87.2144V439.528H90.8643V440.322ZM109.077 448.989H108.125V438.137H109.077V448.989ZM110.835 443.361H108.833V442.556H110.835V443.361ZM106.27 439.309C106.265 440.362 106.09 441.359 105.745 442.299C105.403 443.235 104.862 444.1 104.121 444.893C103.381 445.683 102.437 446.36 101.289 446.926L100.752 446.169C101.757 445.668 102.599 445.08 103.279 444.405C103.962 443.726 104.473 442.973 104.811 442.147C105.153 441.321 105.326 440.428 105.33 439.467V439.309H106.27ZM105.818 440.114H101.252V439.309H105.818V440.114ZM114.985 440.2C114.985 440.855 114.859 441.469 114.607 442.043C114.355 442.613 113.997 443.109 113.533 443.532C113.073 443.951 112.54 444.269 111.934 444.484L111.445 443.715C111.982 443.532 112.461 443.264 112.88 442.91C113.299 442.552 113.624 442.141 113.856 441.677C114.092 441.209 114.212 440.716 114.216 440.2V439.309H114.985V440.2ZM115.156 440.2C115.156 440.668 115.268 441.115 115.492 441.542C115.716 441.966 116.027 442.34 116.426 442.666C116.829 442.991 117.292 443.239 117.817 443.41L117.366 444.167C116.764 443.968 116.239 443.673 115.791 443.282C115.343 442.887 114.996 442.425 114.747 441.896C114.499 441.368 114.375 440.802 114.375 440.2V439.309H115.156V440.2ZM117.598 439.736H111.738V438.942H117.598V439.736ZM119.966 444.692H119.014V438.137H119.966V444.692ZM121.602 441.713H119.697V440.908H121.602V441.713ZM116.487 444.985C117.227 444.985 117.866 445.062 118.403 445.217C118.94 445.371 119.351 445.597 119.636 445.894C119.921 446.191 120.063 446.547 120.063 446.962C120.063 447.382 119.921 447.74 119.636 448.037C119.351 448.338 118.94 448.568 118.403 448.726C117.866 448.885 117.227 448.964 116.487 448.964C115.746 448.964 115.105 448.885 114.564 448.726C114.023 448.568 113.608 448.338 113.319 448.037C113.03 447.74 112.886 447.382 112.886 446.962C112.886 446.547 113.03 446.191 113.319 445.894C113.608 445.597 114.023 445.371 114.564 445.217C115.105 445.062 115.746 444.985 116.487 444.985ZM116.487 445.754C115.946 445.754 115.476 445.801 115.077 445.894C114.682 445.988 114.377 446.128 114.161 446.315C113.95 446.499 113.846 446.714 113.85 446.962C113.846 447.219 113.95 447.441 114.161 447.628C114.377 447.811 114.682 447.951 115.077 448.049C115.476 448.146 115.946 448.195 116.487 448.195C117.032 448.195 117.504 448.146 117.903 448.049C118.302 447.951 118.607 447.811 118.818 447.628C119.03 447.441 119.136 447.219 119.136 446.962C119.136 446.71 119.03 446.492 118.818 446.309C118.607 446.126 118.302 445.988 117.903 445.894C117.504 445.801 117.032 445.754 116.487 445.754ZM130.879 439.785H126.033V438.979H130.879V439.785ZM128.645 444.106H127.693V441.384H128.645V444.106ZM131.44 439.626C131.436 440.163 131.418 440.672 131.385 441.152C131.353 441.628 131.278 442.165 131.16 442.763L130.195 442.69C130.317 442.092 130.397 441.569 130.433 441.121C130.47 440.674 130.492 440.192 130.5 439.675V439.553V438.979H131.44V439.553V439.626ZM133.931 446.303H132.954V438.137H133.931V446.303ZM135.518 442.495H133.491V441.677H135.518V442.495ZM134.285 448.757H127.034V447.951H134.285V448.757ZM127.998 448.208H127.034V445.571H127.998V448.208ZM125.361 443.776C126.655 443.772 127.874 443.748 129.017 443.703C130.161 443.654 131.229 443.561 132.222 443.422L132.283 444.13C131.27 444.305 130.199 444.421 129.072 444.478C127.945 444.535 126.741 444.566 125.459 444.57L125.361 443.776ZM137.458 443.874C138.569 443.874 139.446 443.856 140.089 443.819C140.736 443.782 141.385 443.707 142.036 443.593L142.134 444.387C141.462 444.501 140.799 444.576 140.144 444.613C139.493 444.649 138.598 444.667 137.458 444.667H136.677V443.874H137.458ZM141.377 442.08H137.642V444.338H136.677V441.323H140.4V439.699H136.653V438.918H141.377V442.08ZM145.222 446.132H144.258V438.149H145.222V446.132ZM144.502 440.761H142.109V439.98H144.502V440.761ZM145.552 448.696H138.167V447.902H145.552V448.696ZM139.131 448.269H138.167V445.546H139.131V448.269ZM144.502 443.203H142.109V442.409H144.502V443.203ZM150.593 439.882C150.593 440.574 150.467 441.219 150.215 441.817C149.963 442.415 149.607 442.934 149.147 443.374C148.687 443.813 148.152 444.147 147.542 444.375L147.017 443.593C147.57 443.398 148.058 443.115 148.481 442.745C148.905 442.375 149.23 441.943 149.458 441.451C149.69 440.959 149.808 440.436 149.812 439.882V438.759H150.593V439.882ZM150.764 439.846C150.76 440.354 150.87 440.839 151.094 441.298C151.322 441.754 151.639 442.157 152.046 442.507C152.453 442.857 152.921 443.121 153.45 443.3L152.913 444.045C152.331 443.825 151.818 443.51 151.375 443.099C150.935 442.688 150.591 442.206 150.343 441.652C150.095 441.095 149.971 440.493 149.971 439.846V438.759H150.764V439.846ZM156.025 444.57H155.061V438.137H156.025V444.57ZM152.424 444.887C153.173 444.887 153.82 444.967 154.365 445.125C154.91 445.284 155.33 445.518 155.623 445.827C155.916 446.136 156.062 446.507 156.062 446.938C156.062 447.365 155.916 447.729 155.623 448.031C155.33 448.336 154.91 448.568 154.365 448.726C153.82 448.885 153.173 448.964 152.424 448.964C151.672 448.964 151.023 448.885 150.477 448.726C149.936 448.568 149.519 448.336 149.226 448.031C148.933 447.729 148.787 447.365 148.787 446.938C148.787 446.507 148.933 446.136 149.226 445.827C149.519 445.518 149.936 445.284 150.477 445.125C151.023 444.967 151.672 444.887 152.424 444.887ZM152.424 445.644C151.871 445.644 151.393 445.695 150.99 445.797C150.587 445.898 150.278 446.047 150.062 446.242C149.847 446.438 149.739 446.669 149.739 446.938C149.739 447.198 149.847 447.422 150.062 447.609C150.278 447.797 150.587 447.941 150.99 448.043C151.393 448.144 151.871 448.195 152.424 448.195C152.974 448.195 153.45 448.144 153.853 448.043C154.259 447.941 154.571 447.797 154.786 447.609C155.002 447.422 155.11 447.198 155.11 446.938C155.11 446.669 155.002 446.438 154.786 446.242C154.571 446.047 154.259 445.898 153.853 445.797C153.45 445.695 152.974 445.644 152.424 445.644ZM155.269 441.262H152.644V440.468H155.269V441.262ZM169.758 441.713H162.324V440.944H169.758V441.713ZM163.276 441.445H162.324V438.381H163.276V441.445ZM170.857 443.886H160.969V443.093H170.857V443.886ZM166.389 443.618H165.437V441.433H166.389V443.618ZM169.771 445.742H162.08V444.973H169.771V445.742ZM169.856 448.842H161.982V448.061H169.856V448.842ZM164.705 448.427H163.752V445.192H164.705V448.427ZM168.086 448.427H167.146V445.192H168.086V448.427ZM181.66 444.643H171.772V443.862H181.66V444.643ZM180.562 448.757H173.054V447.951H180.562V448.757ZM174.019 448.195H173.054V445.595H174.019V448.195ZM176.716 438.527C177.489 438.523 178.165 438.607 178.743 438.778C179.32 438.944 179.766 439.191 180.079 439.516C180.393 439.842 180.549 440.228 180.549 440.676C180.549 441.119 180.393 441.504 180.079 441.829C179.766 442.151 179.32 442.399 178.743 442.574C178.165 442.749 177.489 442.836 176.716 442.836C175.935 442.836 175.256 442.749 174.678 442.574C174.1 442.399 173.654 442.151 173.341 441.829C173.028 441.504 172.871 441.119 172.871 440.676C172.871 440.228 173.028 439.842 173.341 439.516C173.654 439.191 174.1 438.944 174.678 438.778C175.256 438.607 175.935 438.523 176.716 438.527ZM176.716 439.296C176.139 439.296 175.634 439.351 175.203 439.461C174.771 439.571 174.44 439.732 174.208 439.943C173.976 440.151 173.86 440.395 173.86 440.676C173.86 440.961 173.976 441.207 174.208 441.414C174.44 441.622 174.769 441.781 175.197 441.89C175.628 442 176.134 442.055 176.716 442.055C177.294 442.055 177.799 442 178.23 441.89C178.661 441.781 178.993 441.622 179.225 441.414C179.457 441.207 179.573 440.961 179.573 440.676C179.573 440.395 179.457 440.151 179.225 439.943C178.993 439.732 178.659 439.571 178.224 439.461C177.793 439.351 177.29 439.296 176.716 439.296ZM194.038 441.762H191.56V440.969H194.038V441.762ZM194.709 444.606H193.745V438.137H194.709V444.606ZM191.108 444.948C191.857 444.948 192.504 445.028 193.049 445.186C193.595 445.345 194.014 445.575 194.307 445.876C194.6 446.177 194.746 446.539 194.746 446.962C194.746 447.386 194.6 447.748 194.307 448.049C194.014 448.35 193.595 448.58 193.049 448.739C192.504 448.901 191.857 448.985 191.108 448.989C190.356 448.985 189.707 448.901 189.161 448.739C188.62 448.58 188.203 448.35 187.91 448.049C187.617 447.748 187.471 447.386 187.471 446.962C187.471 446.539 187.617 446.177 187.91 445.876C188.203 445.575 188.622 445.345 189.167 445.186C189.713 445.028 190.36 444.948 191.108 444.948ZM191.108 445.693C190.555 445.693 190.077 445.744 189.674 445.845C189.271 445.947 188.962 446.094 188.746 446.285C188.531 446.476 188.423 446.702 188.423 446.962C188.423 447.223 188.531 447.447 188.746 447.634C188.962 447.821 189.271 447.965 189.674 448.067C190.077 448.169 190.555 448.22 191.108 448.22C191.658 448.22 192.134 448.169 192.537 448.067C192.944 447.965 193.255 447.821 193.47 447.634C193.686 447.447 193.794 447.223 193.794 446.962C193.794 446.702 193.686 446.476 193.47 446.285C193.255 446.094 192.944 445.947 192.537 445.845C192.134 445.744 191.658 445.693 191.108 445.693ZM189.314 440.139C189.314 440.79 189.186 441.406 188.929 441.988C188.673 442.57 188.313 443.079 187.849 443.514C187.389 443.949 186.86 444.281 186.262 444.509L185.762 443.74C186.295 443.549 186.769 443.268 187.184 442.897C187.603 442.523 187.931 442.098 188.167 441.622C188.403 441.142 188.521 440.647 188.521 440.139V439.235H189.314V440.139ZM189.485 440.126C189.485 440.594 189.597 441.048 189.821 441.488C190.044 441.923 190.36 442.312 190.767 442.653C191.174 442.995 191.637 443.256 192.158 443.435L191.658 444.204C191.076 443.992 190.561 443.681 190.114 443.27C189.67 442.859 189.324 442.383 189.076 441.842C188.828 441.296 188.704 440.725 188.704 440.126V439.235H189.485V440.126ZM191.914 439.736H186.067V438.93H191.914V439.736ZM206.453 447.597H196.516V446.804H206.453V447.597ZM201.924 447.048H200.984V444.179H201.924V447.048ZM198.652 440.871H204.292V438.906H205.232V444.46H197.688V438.906H198.652V440.871ZM204.292 443.679V441.652H198.652V443.679H204.292ZM217.244 443.935H207.307V443.178H217.244V443.935ZM215.999 447.109H209.48V448.403H208.516V446.45H215.046V445.522H208.503V444.802H215.999V447.109ZM216.353 448.842H208.516V448.146H216.353V448.842ZM215.962 440.712H209.553V441.909H208.601V440.053H214.998V439.162H208.564V438.466H215.962V440.712ZM216.157 442.36H208.601V441.665H216.157V442.36ZM225.52 445.229H224.568V443.178H225.52V445.229ZM223.945 446.083H229.207V444.899H230.146V448.842H222.993V444.899H223.945V446.083ZM229.207 448.061V446.84H223.945V448.061H229.207ZM230.146 444.375H229.194V438.149H230.146V444.375ZM221.272 442.897C222.757 442.897 224.061 442.881 225.184 442.849C226.311 442.812 227.4 442.727 228.45 442.592L228.511 443.276C227.437 443.455 226.338 443.569 225.215 443.618C224.096 443.667 222.826 443.691 221.406 443.691L221.272 442.897ZM225.227 438.955C225.223 439.467 225.093 439.943 224.836 440.383C224.584 440.822 224.23 441.203 223.774 441.524C223.319 441.842 222.794 442.076 222.2 442.226L221.76 441.469C222.285 441.347 222.749 441.162 223.152 440.914C223.559 440.666 223.876 440.373 224.104 440.035C224.332 439.697 224.446 439.337 224.446 438.955V438.405H225.227V438.955ZM225.422 438.955C225.422 439.317 225.536 439.659 225.764 439.98C225.992 440.297 226.307 440.572 226.71 440.804C227.113 441.036 227.575 441.209 228.096 441.323L227.681 442.055C227.078 441.917 226.549 441.701 226.094 441.408C225.638 441.115 225.282 440.759 225.026 440.34C224.769 439.921 224.641 439.459 224.641 438.955V438.405H225.422V438.955ZM240.168 440.029H233.113V439.235H240.168V440.029ZM241.951 447.451H232.063V446.657H241.951V447.451ZM236.885 447.072H235.945V442.775H236.885V447.072ZM240.767 440.456C240.758 441.355 240.73 442.159 240.681 442.867C240.636 443.575 240.531 444.395 240.364 445.327L239.387 445.217C239.513 444.59 239.605 443.996 239.662 443.435C239.723 442.873 239.76 442.385 239.772 441.97C239.788 441.551 239.798 441.026 239.802 440.395V440.322V439.235H240.767V440.322V440.456ZM249.495 441.469C249.495 442.206 249.356 442.938 249.08 443.667C248.803 444.391 248.427 445.04 247.95 445.614C247.474 446.187 246.96 446.617 246.406 446.901L245.82 446.145C246.337 445.892 246.817 445.514 247.261 445.009C247.708 444.505 248.064 443.939 248.329 443.312C248.597 442.686 248.734 442.071 248.738 441.469V439.675H249.495V441.469ZM249.678 441.469C249.674 442.039 249.796 442.617 250.044 443.203C250.296 443.789 250.638 444.32 251.069 444.796C251.501 445.268 251.977 445.628 252.498 445.876L251.948 446.633C251.383 446.356 250.868 445.947 250.404 445.406C249.944 444.865 249.58 444.25 249.312 443.563C249.043 442.871 248.909 442.173 248.909 441.469V439.675H249.678V441.469ZM252.119 440.053H246.211V439.26H252.119V440.053ZM254.402 448.989H253.45V438.137H254.402V448.989ZM256.221 443.349H254.182V442.531H256.221V443.349ZM263.252 442.849H261.116V442.031H263.252V442.849ZM259.858 441.262C259.858 442.006 259.755 442.733 259.547 443.441C259.34 444.145 259.041 444.777 258.65 445.339C258.263 445.896 257.812 446.332 257.295 446.645L256.685 445.925C257.173 445.64 257.6 445.249 257.966 444.753C258.333 444.257 258.613 443.707 258.809 443.105C259.004 442.499 259.102 441.884 259.102 441.262V439.162H259.858V441.262ZM260.029 441.225C260.029 441.807 260.121 442.387 260.304 442.965C260.487 443.538 260.75 444.063 261.091 444.539C261.437 445.015 261.844 445.392 262.312 445.668L261.763 446.413C261.25 446.104 260.806 445.675 260.432 445.125C260.058 444.576 259.773 443.964 259.578 443.288C259.386 442.613 259.293 441.925 259.297 441.225V439.162H260.029V441.225ZM266.108 448.989H265.181V438.137H266.108V448.989ZM263.862 448.439H262.959V438.369H263.862V448.439ZM276.008 448.989H275.056V438.137H276.008V448.989ZM277.827 443.41H275.789V442.617H277.827V443.41ZM274.006 440.676H267.549V439.882H274.006V440.676ZM270.833 441.579C271.337 441.579 271.791 441.685 272.194 441.896C272.596 442.108 272.912 442.403 273.14 442.781C273.372 443.16 273.49 443.589 273.494 444.069C273.49 444.554 273.372 444.985 273.14 445.363C272.912 445.738 272.596 446.031 272.194 446.242C271.791 446.454 271.337 446.56 270.833 446.56C270.324 446.56 269.866 446.454 269.459 446.242C269.056 446.031 268.741 445.738 268.513 445.363C268.285 444.985 268.171 444.554 268.171 444.069C268.171 443.589 268.285 443.16 268.513 442.781C268.741 442.403 269.056 442.108 269.459 441.896C269.866 441.685 270.324 441.579 270.833 441.579ZM270.833 442.385C270.499 442.385 270.2 442.456 269.935 442.598C269.671 442.741 269.463 442.942 269.313 443.203C269.162 443.459 269.087 443.748 269.087 444.069C269.087 444.395 269.162 444.684 269.313 444.936C269.463 445.188 269.671 445.388 269.935 445.534C270.2 445.677 270.499 445.746 270.833 445.742C271.162 445.746 271.459 445.677 271.724 445.534C271.992 445.388 272.2 445.188 272.346 444.936C272.497 444.684 272.574 444.395 272.578 444.069C272.574 443.748 272.497 443.459 272.346 443.203C272.2 442.942 271.992 442.741 271.724 442.598C271.459 442.456 271.162 442.385 270.833 442.385ZM271.296 440.249H270.344V438.271H271.296V440.249ZM287.703 448.989H286.787V438.137H287.703V448.989ZM284.785 443.374H282.002V442.592H284.785V443.374ZM285.42 448.439H284.504V438.43H285.42V448.439ZM283.101 439.528C283.097 440.497 282.952 441.412 282.667 442.275C282.386 443.138 281.941 443.941 281.331 444.686C280.72 445.43 279.939 446.083 278.987 446.645L278.425 445.949C279.268 445.449 279.967 444.875 280.525 444.228C281.086 443.577 281.499 442.873 281.764 442.116C282.032 441.359 282.169 440.554 282.173 439.699V439.528H283.101ZM282.539 440.322H278.889V439.528H282.539V440.322ZM136.25 468.989H135.334V458.137H136.25V468.989ZM133.442 462.836H131.318V462.055H133.442V462.836ZM134.053 468.427H133.149V458.405H134.053V468.427ZM129.988 461.237C129.984 462.019 129.878 462.773 129.67 463.502C129.467 464.23 129.174 464.885 128.792 465.467C128.413 466.045 127.965 466.494 127.449 466.816L126.838 466.096C127.331 465.803 127.758 465.4 128.12 464.887C128.486 464.375 128.763 463.803 128.95 463.172C129.141 462.541 129.235 461.896 129.231 461.237V459.821H129.988V461.237ZM130.159 461.237C130.159 461.868 130.252 462.482 130.439 463.081C130.627 463.675 130.895 464.216 131.245 464.704C131.595 465.188 132.014 465.571 132.502 465.852L131.917 466.56C131.396 466.246 130.95 465.817 130.58 465.272C130.21 464.722 129.925 464.102 129.725 463.41C129.53 462.714 129.434 461.99 129.438 461.237V459.821H130.159V461.237ZM132.148 460.212H127.144V459.418H132.148V460.212ZM142.683 464.997C143.456 464.997 144.13 465.074 144.703 465.229C145.277 465.384 145.719 465.611 146.028 465.913C146.337 466.214 146.492 466.572 146.492 466.987C146.492 467.398 146.337 467.75 146.028 468.043C145.719 468.34 145.277 468.568 144.703 468.726C144.13 468.885 143.456 468.964 142.683 468.964C141.91 468.964 141.239 468.885 140.669 468.726C140.099 468.568 139.66 468.34 139.351 468.043C139.041 467.75 138.887 467.398 138.887 466.987C138.887 466.572 139.041 466.214 139.351 465.913C139.66 465.611 140.099 465.384 140.669 465.229C141.239 465.074 141.91 464.997 142.683 464.997ZM142.683 465.729C142.109 465.729 141.607 465.78 141.176 465.882C140.748 465.984 140.419 466.13 140.187 466.322C139.955 466.509 139.839 466.73 139.839 466.987C139.839 467.235 139.955 467.453 140.187 467.64C140.419 467.823 140.748 467.963 141.176 468.061C141.607 468.159 142.109 468.208 142.683 468.208C143.257 468.208 143.757 468.159 144.185 468.061C144.616 467.963 144.948 467.823 145.179 467.64C145.415 467.453 145.535 467.235 145.54 466.987C145.535 466.73 145.415 466.509 145.179 466.322C144.948 466.13 144.616 465.984 144.185 465.882C143.757 465.78 143.257 465.729 142.683 465.729ZM146.003 459.479H138.96V458.698H146.003V459.479ZM147.664 463.984H137.788V463.203H147.664V463.984ZM142.817 463.447H141.877V461.103H142.817V463.447ZM146.406 459.663C146.402 460.24 146.382 460.735 146.345 461.146C146.313 461.557 146.231 462.006 146.101 462.495L145.161 462.385C145.287 461.901 145.367 461.463 145.399 461.073C145.436 460.682 145.454 460.228 145.454 459.711V459.614V458.698H146.406V459.614V459.663ZM153.999 460.798H148.555V460.017H153.999V460.798ZM151.277 461.53C151.729 461.53 152.131 461.636 152.485 461.848C152.843 462.059 153.122 462.352 153.322 462.727C153.525 463.097 153.629 463.52 153.633 463.996C153.629 464.476 153.525 464.903 153.322 465.278C153.122 465.652 152.843 465.947 152.485 466.163C152.131 466.378 151.729 466.486 151.277 466.486C150.833 466.486 150.433 466.378 150.074 466.163C149.72 465.947 149.444 465.652 149.244 465.278C149.045 464.903 148.945 464.476 148.945 463.996C148.945 463.524 149.047 463.101 149.25 462.727C149.454 462.352 149.731 462.059 150.081 461.848C150.435 461.636 150.833 461.53 151.277 461.53ZM151.277 462.336C150.992 462.34 150.738 462.415 150.514 462.562C150.29 462.704 150.115 462.902 149.989 463.154C149.863 463.402 149.8 463.683 149.8 463.996C149.8 464.313 149.863 464.596 149.989 464.844C150.115 465.093 150.29 465.288 150.514 465.43C150.738 465.573 150.992 465.644 151.277 465.644C151.562 465.644 151.818 465.573 152.046 465.43C152.274 465.288 152.453 465.093 152.583 464.844C152.713 464.596 152.778 464.313 152.778 463.996C152.778 463.683 152.713 463.402 152.583 463.154C152.453 462.902 152.274 462.704 152.046 462.562C151.818 462.415 151.562 462.34 151.277 462.336ZM157.82 468.989H156.904V458.137H157.82V468.989ZM157.209 463.508H155.134V462.714H157.209V463.508ZM155.464 468.452H154.561V458.405H155.464V468.452ZM151.765 460.493H150.813V458.466H151.765V460.493ZM171.284 464.155H163.789V463.361H171.284V464.155ZM172.456 467.512H162.52V466.706H172.456V467.512ZM171.174 459.943H164.741V463.715H163.789V459.15H171.174V459.943ZM174.751 462.666C175.874 462.666 176.82 462.645 177.589 462.604C178.362 462.56 179.158 462.474 179.976 462.348L180.061 463.093C179.227 463.227 178.417 463.319 177.632 463.367C176.847 463.412 175.886 463.435 174.751 463.435H173.872V462.666H174.751ZM178.853 461.323H174.824V463.032H173.872V460.615H177.913V459.418H173.835V458.674H178.853V461.323ZM182.283 466.889H176.204V468.452H175.251V466.169H181.306V465.095H175.227V464.338H182.283V466.889ZM182.673 468.867H175.251V468.098H182.673V468.867ZM182.283 463.862H181.331V458.137H182.283V463.862ZM193.416 468.989H192.5V458.137H193.416V468.989ZM190.498 463.374H187.715V462.592H190.498V463.374ZM191.133 468.439H190.217V458.43H191.133V468.439ZM188.813 459.528C188.809 460.497 188.665 461.412 188.38 462.275C188.099 463.138 187.654 463.941 187.043 464.686C186.433 465.43 185.652 466.083 184.7 466.645L184.138 465.949C184.98 465.449 185.68 464.875 186.238 464.228C186.799 463.577 187.212 462.873 187.477 462.116C187.745 461.359 187.882 460.554 187.886 459.699V459.528H188.813ZM188.252 460.322H184.602V459.528H188.252V460.322ZM198.335 466.987H197.395V463.74H198.335V466.987ZM202.4 466.987H201.436V463.74H202.4V466.987ZM204.866 467.597H194.929V466.792H204.866V467.597ZM199.873 458.82C200.642 458.824 201.326 458.942 201.924 459.174C202.526 459.402 202.996 459.73 203.334 460.157C203.671 460.58 203.84 461.066 203.84 461.616C203.84 462.169 203.671 462.655 203.334 463.074C202.996 463.494 202.526 463.819 201.924 464.051C201.326 464.283 200.642 464.399 199.873 464.399C199.104 464.399 198.418 464.283 197.816 464.051C197.218 463.819 196.75 463.494 196.412 463.074C196.075 462.655 195.906 462.169 195.906 461.616C195.906 461.066 196.075 460.58 196.412 460.157C196.75 459.73 197.218 459.402 197.816 459.174C198.418 458.942 199.104 458.824 199.873 458.82ZM199.873 459.614C199.283 459.61 198.756 459.691 198.292 459.858C197.832 460.021 197.474 460.255 197.218 460.56C196.962 460.865 196.833 461.217 196.833 461.616C196.833 462.014 196.962 462.366 197.218 462.672C197.474 462.977 197.832 463.215 198.292 463.386C198.756 463.557 199.283 463.642 199.873 463.642C200.459 463.642 200.982 463.557 201.442 463.386C201.901 463.215 202.262 462.977 202.522 462.672C202.782 462.366 202.913 462.014 202.913 461.616C202.913 461.217 202.782 460.865 202.522 460.56C202.262 460.255 201.901 460.021 201.442 459.858C200.982 459.691 200.459 459.61 199.873 459.614ZM206.88 468.073C206.737 468.073 206.605 468.037 206.483 467.963C206.365 467.89 206.27 467.795 206.196 467.677C206.127 467.554 206.095 467.422 206.099 467.28C206.095 467.141 206.127 467.011 206.196 466.889C206.27 466.767 206.365 466.671 206.483 466.602C206.605 466.533 206.737 466.499 206.88 466.499C207.022 466.499 207.153 466.533 207.271 466.602C207.393 466.671 207.488 466.767 207.557 466.889C207.627 467.011 207.661 467.141 207.661 467.28C207.661 467.422 207.627 467.554 207.557 467.677C207.488 467.795 207.393 467.89 207.271 467.963C207.153 468.037 207.022 468.073 206.88 468.073Z" fill="#626262"/>
<defs>
<clipPath id="clip0_424_1142">
<rect width="335" height="293" fill="white"/>
</clipPath>
</defs>
</svg>
