<svg width="335" height="510" viewBox="0 0 335 510" fill="none" xmlns="http://www.w3.org/2000/svg">
<g clip-path="url(#clip0_424_1421)">
<path d="M292.398 150.37C291.072 137.408 286.637 118.643 268.553 111.972C261.783 120.566 248.274 114.713 244.755 108.88C237.677 119.947 225.65 130.329 217.696 143.774C213.857 150.268 209.228 157.913 213.924 165.043C228.055 163.747 242.274 163.716 256.41 164.95C260.779 157.366 261.29 154.563 261.228 147.868C261.228 147.157 262.25 146.846 262.341 147.713C263.02 153.796 261.641 159.93 258.425 165.138C260.161 165.248 261.884 165.503 263.578 165.9C265.038 166.254 264.608 167.251 263.319 167.127C247.416 165.597 231.405 165.57 215.497 167.045C220.556 173.454 220.289 177.349 219.031 183.981C227.368 189.7 257.867 197.267 271.591 193.09C284.209 189.25 293.957 165.621 292.398 150.37Z" fill="#38A1FF"/>
<path d="M163.613 123.506C155.802 118.777 139.336 117.53 130.258 122.373C128.3 130.133 121.756 139.397 118.521 142.333C113.719 141.165 105.362 137.254 102.239 131.256C88.3688 135.687 74.8083 156.78 70.8006 170.928C65.2365 165.075 54.4982 149.845 52.2586 144.672C47.5301 147.894 42.1132 149.966 36.4409 150.721C40.8414 181.381 60.8828 209.575 75.1032 208.519C86.4386 207.677 93.7751 195.68 98.1026 187.694C95.4571 184.745 93.1709 181.494 91.2917 178.007C90.9106 177.291 91.4377 175.936 92.3224 177.079C109.696 199.563 133.962 213.352 166.198 215.206C150.073 193.227 144.601 145.157 163.613 123.506Z" fill="#38A1FF"/>
<path d="M119.036 104.938C123.508 104.341 123.796 97.416 119.994 95.3544C120.583 91.4202 120.801 87.4392 120.644 83.4642C120.429 77.8169 117.303 75.3262 112.132 74.7261C107.573 74.1936 103.311 72.1895 99.9933 69.0175C94.2453 63.5235 94.676 72.1799 99.9933 75.9525C95.126 75.4104 90.3885 74.0334 85.989 71.882C82.9697 70.0687 81.4995 70.6907 82.1463 73.3143C82.4597 74.6642 83.067 75.9283 83.9251 77.0165C84.7831 78.1047 85.8707 78.9902 87.1103 79.6098C82.165 80.2622 77.1396 79.9298 72.3234 78.6316C68.1741 77.4636 66.1417 77.8476 68.3157 81.4655C70.103 84.0598 72.4169 86.2485 75.1065 87.8889C77.7962 89.5293 80.8013 90.5846 83.926 90.9861C91.0873 91.7672 98.8049 89.7597 107.152 86.5346C108.139 91.2438 110.755 95.4543 114.539 98.4263C114.988 98.7811 115.63 98.838 115.853 98.1883C117.182 94.2463 122.286 98.1883 120.356 101.878C119.683 103.164 118.718 103.073 117.78 103.084C116.843 103.094 117.151 103.66 117.286 104.506C117.833 107.967 123.771 121.204 126.323 123.445C126.932 123.979 127.5 123.278 127.126 122.673C123.689 117.127 120.971 111.168 119.036 104.938Z" fill="#191919"/>
<path d="M93.9139 94.9019C93.1991 95.0141 92.5262 95.312 91.9626 95.7657C91.3989 96.2195 90.9642 96.8132 90.7019 97.4875C90.223 98.7402 90.8771 99.2804 91.7312 98.1781C92.4847 97.3821 93.423 96.7843 94.4628 96.4378C95.314 96.0976 95.387 94.6639 93.9139 94.9019Z" fill="#191919"/>
<path d="M92.1721 101.919C91.9472 102.558 92.464 102.866 93.0174 102.393C93.3234 102.13 93.6816 101.934 94.0686 101.818C94.4555 101.703 94.8625 101.67 95.2629 101.723C96.0571 101.723 96.1141 101.051 95.479 100.692C95.1871 100.524 94.862 100.423 94.5265 100.395C94.1911 100.367 93.8535 100.413 93.5379 100.53C93.2223 100.647 92.9363 100.832 92.7003 101.072C92.4642 101.312 92.2839 101.601 92.1721 101.919Z" fill="#191919"/>
<path d="M104.382 98.4263C104.069 98.2311 103.718 98.1053 103.352 98.0576C102.986 98.0098 102.615 98.0412 102.262 98.1496C101.909 98.258 101.584 98.4408 101.308 98.6858C101.033 98.9308 100.813 99.2322 100.663 99.5695C100.436 100.189 100.845 100.507 101.247 100.219C102.053 99.6274 103.029 99.3128 104.029 99.3228C104.537 99.26 105.042 98.784 104.382 98.4263Z" fill="#191919"/>
<path d="M103.28 110.379C102.757 110.682 102.696 111.482 103.703 111.245C107.083 110.442 108.924 108.429 107.587 105.897C107.203 105.167 106.156 105.773 106.484 106.504C107.537 108.843 104.543 109.648 103.28 110.379Z" fill="#191919"/>
<path d="M103.344 93.325C102.56 92.9443 101.692 92.7683 100.822 92.8135C99.9518 92.8586 99.1071 93.1236 98.3668 93.5835C98.2251 93.6921 98.1254 93.8466 98.0847 94.0205C98.044 94.1944 98.0649 94.3771 98.1437 94.5373C98.2226 94.6976 98.3545 94.8256 98.5171 94.8995C98.6797 94.9734 98.8629 94.9887 99.0355 94.9427C100.292 94.445 101.65 94.2577 102.994 94.3967C103.878 94.55 104.236 93.8346 103.344 93.325Z" fill="#191919"/>
<path d="M97.3244 101.208C96.9477 102.685 96.3564 107.468 98.1376 107.957C99.0662 108.213 101.834 107.124 101.291 106.175C100.866 105.434 98.8837 106.843 98.6326 106.423C98.1216 104.72 97.9881 102.926 98.2413 101.167C98.2617 100.353 97.7215 99.6454 97.3244 101.208Z" fill="#191919"/>
<path d="M186.386 128.648C186.233 125.228 182.264 120.776 179.007 120.756C178.245 120.756 177.658 121.868 178.423 122.07C180.087 122.513 181.603 123.391 182.816 124.613C184.029 125.836 184.896 127.358 185.327 129.025C185.58 129.913 186.447 130.04 186.386 128.648Z" fill="#191919"/>
<path d="M189.192 123.496C188.123 118.919 183.01 116.977 178.714 117.561C173.84 118.224 169.778 121.589 166.657 125.299C163.338 129.241 166.234 135.478 159.856 138.055C158.396 138.639 158.97 139.652 160.453 139.2C168.172 136.84 165.225 128.997 168.069 126.247C170.913 123.496 173.922 120.487 178.013 119.497C182.104 118.507 186.379 120.037 188.049 124C188.361 124.754 189.376 124.3 189.192 123.496Z" fill="#191919"/>
<path d="M181.336 131.04C181.952 132.354 182.86 131.875 182.521 130.602C181.704 127.512 178.902 123.132 175.112 123.575C174.35 123.664 174.482 124.845 175.112 125.017C179.496 126.209 180.363 128.951 181.336 131.04Z" fill="#191919"/>
<path d="M170.98 126.558C170.167 126.69 169.949 127.962 170.98 128C172.356 127.982 173.699 128.425 174.794 129.257C175.89 130.09 176.677 131.264 177.029 132.595C177.42 133.389 178.051 133.389 178.059 132.317C178.076 129.164 174.339 126.007 170.98 126.558Z" fill="#191919"/>
<path d="M35.6204 130.308C33.8319 123.351 33.4567 121.256 33.5604 116.809C33.5837 115.778 32.6639 116.025 32.3135 117.376C31.5604 121.993 32.2812 126.731 34.3736 130.916C34.7459 131.657 35.8175 131.07 35.6204 130.308Z" fill="#191919"/>
<path d="M29.5001 121.951C29.5001 120.766 28.3467 121.291 28.3146 122.043C28.1827 127.866 29.763 133.599 32.8596 138.531C34.6273 141.557 35.9858 144.803 36.8994 148.186C37.1666 149.134 38.3375 149.288 38.1871 147.424C37.5538 143.875 36.2282 140.486 34.286 137.449C31.445 132.753 29.8015 127.431 29.5001 121.951Z" fill="#191919"/>
<path d="M49.8613 124.188C49.159 122.973 48.3181 123.842 48.832 124.772C52.1549 130.746 44.9601 138.318 49.8613 143.835C49.9837 143.947 50.1404 144.013 50.3056 144.024C50.4709 144.035 50.6349 143.989 50.7708 143.895C50.9066 143.8 51.0062 143.662 51.0532 143.503C51.1002 143.344 51.0917 143.174 51.0293 143.021C47.829 136.89 53.3565 130.231 49.8613 124.188Z" fill="#191919"/>
<path d="M42.4941 116.742C42.4795 116.062 41.6065 115.443 41.3407 116.742C40.8312 119.224 41.1247 126.636 42.7307 128.695C42.8232 128.808 42.9503 128.888 43.0925 128.923C43.2347 128.957 43.3843 128.944 43.5184 128.886C43.6526 128.828 43.7641 128.727 43.8359 128.6C43.9077 128.472 43.9359 128.325 43.9162 128.18C43.0992 124.418 42.6232 120.59 42.4941 116.742Z" fill="#191919"/>
<path d="M38.2689 114.913C38.2689 114.15 37.3929 114.059 37.1155 114.913C36.0146 118.379 36.4205 125.708 38.4645 128.929C38.9025 129.628 40.1202 129.342 39.9245 128.423C38.6743 124.033 38.1157 119.475 38.2689 114.913Z" fill="#191919"/>
<path d="M209.406 167.842C210.168 168.153 210.371 166.95 209.921 166.528C207.314 164.056 199.616 163.725 195.742 166.632C195.597 166.71 195.487 166.841 195.436 166.998C195.386 167.155 195.397 167.325 195.469 167.474C195.541 167.623 195.667 167.738 195.821 167.796C195.975 167.854 196.146 167.85 196.298 167.785C202.903 165.198 206.324 166.594 209.406 167.842Z" fill="#191919"/>
<path d="M203.697 179.172C210.454 178.058 211.037 179.91 213.167 180.058C213.362 180.074 213.557 180.013 213.708 179.887C213.859 179.761 213.954 179.58 213.973 179.385C214.135 177.59 207.176 176.126 203.274 178.039C202.504 178.415 202.955 179.294 203.697 179.172Z" fill="#191919"/>
<path d="M199.792 175.916C206.709 173.771 209.058 175.126 212.92 176.183C213.691 176.395 213.889 175.254 213.373 174.834C210.655 172.613 203.153 172.635 199.39 174.771C198.72 175.152 198.957 176.174 199.792 175.916Z" fill="#191919"/>
<path d="M197.73 172.308C203.915 170.429 206.655 171.336 210.787 172.016C210.948 172.041 211.113 172.012 211.257 171.935C211.401 171.858 211.516 171.736 211.585 171.588C211.653 171.439 211.672 171.273 211.637 171.113C211.603 170.953 211.518 170.809 211.394 170.702C208.749 168.4 200.31 168.698 197.174 171.187C196.492 171.733 196.948 172.546 197.73 172.308Z" fill="#191919"/>
<path d="M299.291 78.7338C296.063 80.3334 292.467 81.0449 288.874 80.7953C284.988 88.3581 279.274 101.539 268.908 100.244C265.518 99.8221 263.598 97.2174 261.571 94.7821C261.014 94.1135 260.39 94.7237 260.696 95.3807C261.796 97.7312 263.463 99.7708 265.549 101.316C264.518 103.506 263.487 109.302 263.962 111.445C263.989 111.576 264.061 111.694 264.165 111.779C264.269 111.863 264.399 111.909 264.533 111.909C264.667 111.909 264.797 111.863 264.901 111.779C265.005 111.694 265.077 111.576 265.105 111.445C265.173 110.434 265.328 109.431 265.569 108.446C272.524 109.889 281.592 114.724 286.529 122.779C301.037 119.688 302.314 103.551 294.081 97.451C304.166 94.8814 303.774 82.1969 299.291 78.7338Z" fill="#191919"/>
<path d="M274.561 85.9155C275.729 86.2207 276.897 83.5459 275.931 82.9386C274.646 82.14 272.971 85.498 274.561 85.9155Z" fill="#191919"/>
<path d="M281.527 89.148C282.393 89.202 283.353 87.4471 283.124 86.7565C282.461 84.768 279.477 89.0224 281.527 89.148Z" fill="#191919"/>
<path d="M283.835 82.5152C284.562 82.9491 285.132 83.6025 285.463 84.3811C285.659 85.0819 286.606 85.3082 286.596 84.0614C286.536 83.4105 286.296 82.7891 285.903 82.2668C285.51 81.7444 284.98 81.3416 284.371 81.1034C283.266 80.6888 282.35 81.6436 283.835 82.5152Z" fill="#191919"/>
<path d="M278.178 80.0639C279.506 80.5019 279.93 79.3617 278.878 78.5893C278.077 78.0944 277.15 77.8418 276.208 77.862C275.266 77.8822 274.351 78.1743 273.571 78.7032C273.076 79.2288 273.345 79.734 274.009 79.6303C275.409 79.3166 276.873 79.4689 278.178 80.0639Z" fill="#191919"/>
<path d="M267.966 90.754C267.864 91.2786 267.869 91.8184 267.98 92.3411C268.091 92.8639 268.306 93.3589 268.613 93.7965C268.92 94.2341 269.312 94.6054 269.765 94.8882C270.219 95.1709 270.725 95.3593 271.253 95.442C271.325 95.4922 271.408 95.5249 271.494 95.5376C271.581 95.5503 271.67 95.5427 271.753 95.5153C271.837 95.4879 271.913 95.4415 271.975 95.3797C272.037 95.318 272.084 95.2426 272.113 95.1595C272.141 95.0763 272.15 94.9878 272.138 94.9008C272.126 94.8138 272.094 94.7308 272.045 94.6582C271.995 94.5857 271.93 94.5256 271.853 94.4827C271.776 94.4399 271.691 94.4154 271.603 94.4113C271.25 94.3229 270.919 94.1634 270.63 93.9423C270.341 93.7213 270.1 93.4435 269.922 93.126C269.744 92.8085 269.634 92.458 269.596 92.096C269.559 91.734 269.596 91.3683 269.705 91.0212C270.15 88.472 268.257 88.9874 267.966 90.754Z" fill="#191919"/>
<path d="M277.652 92.9031C278.868 92.3264 279.951 87.6048 279.341 86.977C278.397 86.0061 278.319 90.132 276.972 91.3059C276.388 91.811 275.658 90.3569 274.912 90.7905C273.996 91.3219 275.993 93.6871 277.652 92.9031Z" fill="#191919"/>
<path d="M202.43 225.294C201.142 226.429 203.268 227.938 204.49 227.149C219.09 217.72 235.013 227.53 231.344 244.285C231.227 244.643 231.255 245.032 231.421 245.37C231.588 245.708 231.88 245.967 232.235 246.093C232.59 246.218 232.981 246.199 233.322 246.041C233.664 245.882 233.93 245.596 234.064 245.244C241.543 226.403 217.45 212.042 202.43 225.294Z" fill="#191919"/>
<path d="M235.023 219.884C222.66 208.934 197.194 208.167 184.361 219.019C157.351 241.863 182.142 280.214 216.428 273.508C242.397 268.436 254.512 237.139 235.023 219.884ZM219.875 269.645C191.205 278.91 161.329 248.857 183.243 224.037C194.359 211.443 219.554 210.911 232.344 221.358C250.106 235.868 241.193 262.755 219.875 269.645Z" fill="#191919"/>
<path d="M262.268 80.388C262.725 81.7779 262.706 82.2451 264.648 81.0275C267.679 79.1295 270.583 77.452 272.406 71.3214C275.456 74.5777 279.359 76.9127 283.67 78.061C287.981 79.2093 292.528 79.1248 296.794 77.817C305.604 75.0955 313.704 54.8585 290.808 53.416C291.57 41.3286 271.126 41.2469 268.86 50.9632C261.501 45.6459 252.372 49.9412 251.166 54.6833C258.38 74.3655 252.197 93.7368 247.044 104.227C245.602 107.164 247.482 106.709 247.92 105.845C251.229 99.2293 253.813 92.7352 258.432 86.8018C259.238 85.7667 258.526 85.3695 257.65 84.9578C257.328 84.772 257.047 84.5229 256.824 84.2256C256.601 83.9283 256.44 83.589 256.351 83.2279C256.262 82.8669 256.248 82.4917 256.308 82.1248C256.368 81.758 256.502 81.407 256.701 81.0932C257.897 78.363 261.38 77.7002 262.268 80.388Z" fill="#191919"/>
<path d="M112.606 113.666C111.815 115.049 110.717 116.233 109.397 117.126C108.076 118.019 106.569 118.598 104.991 118.818C93.2233 120.25 90.4566 103.177 88.6476 95.0362C88.3483 93.6857 87.5044 94.4172 87.6169 95.1822C88.4724 104.22 92.0582 121.51 104.105 120.667C104.645 123.915 104.738 127.223 104.382 130.497C104.302 131.289 105.135 132.084 105.753 130.393C106.506 128.333 106.423 123.093 105.979 120.357C107.596 119.934 109.106 119.176 110.41 118.132C111.715 117.089 112.786 115.782 113.554 114.298C113.98 113.477 113.034 112.946 112.606 113.666Z" fill="#191919"/>
<path d="M179.43 211.125C186.644 209.665 205.909 203.259 211.529 198.39C212.444 197.595 211.404 195.916 210.292 196.452C196.13 203.262 189.683 204.695 175.37 208.972C159.666 187.466 152.832 161.601 171.795 135.337C172.776 133.977 170.783 132.723 169.733 134.059C153.162 155.163 153.235 181.985 171.021 208.25C173.821 212.385 174.008 212.226 179.43 211.125Z" fill="#191919"/>
<path d="M104.753 29.9217C135.912 10.016 173.625 6.33974 207.283 22.426C245.015 40.4643 258.792 70.7155 236.259 108.376C227.278 123.386 206.803 141.728 204.202 157.229C203.91 158.959 206.275 159.643 206.582 157.888C209.111 143.409 227.943 126.45 236.527 113.212C260.23 76.6417 252.318 44.1625 214.335 23.0378C180.423 4.18332 134.973 4.76002 103.636 28.4894C102.468 29.3771 103.383 30.7977 104.753 29.9217Z" fill="#191919"/>
<path d="M194.66 77.9921C205.338 89.4575 199.139 105.316 187.828 113.769C186.602 114.686 188.065 116.479 189.434 115.469C200.862 107.051 207.976 91.7716 199.079 78.8068C186.596 60.6211 158.573 64.2565 141.374 78.5148C130.804 67.0903 115.024 47.941 105.671 35.2287C104.702 33.9147 103.373 34.8988 104.465 36.3967C113.745 49.1907 127.605 67.5093 138.274 79.6741C140.243 81.9195 140.796 82.5269 143.199 80.6231C157.171 69.5592 180.781 63.0899 194.66 77.9921Z" fill="#191919"/>
<path d="M226.974 47.7074C208.946 22.0289 165.715 13.8777 138.356 28.2222C137.981 28.3935 137.69 28.7066 137.545 29.0927C137.401 29.4788 137.416 29.9064 137.586 30.2817C137.757 30.657 138.069 30.9493 138.455 31.0945C138.841 31.2396 139.268 31.2258 139.644 31.0561C173.186 18.2271 200.818 27.6368 225.099 49.4696C226.553 50.7778 228.174 49.4185 226.974 47.7074Z" fill="#191919"/>
<path d="M213.095 193.339C214.689 196.124 217.072 194.653 215.392 191.98C213.711 189.307 211.923 186.362 210.127 183.592C209.458 182.56 207.633 183.592 208.241 184.705C209.83 187.599 211.448 190.478 213.095 193.339Z" fill="#191919"/>
</g>
<path d="M68.147 357.289H53.938V354.823H68.147V357.289ZM71.7725 365.003H51.46V362.538H71.7725V365.003ZM63.1055 368.702H60.0415V364.222H63.1055V368.702ZM69.3677 356.556C69.3677 357.891 69.327 359.087 69.2456 360.145C69.1724 361.195 68.9811 362.354 68.6719 363.624L65.5957 363.368C65.791 362.505 65.9375 361.691 66.0352 360.926C66.1328 360.161 66.1938 359.482 66.2183 358.888C66.2427 358.294 66.259 357.577 66.2671 356.739V356.556V354.823H69.3677V356.556ZM61.5796 367.701C63.1909 367.701 64.5866 367.868 65.7666 368.202C66.9548 368.527 67.8621 369.011 68.4888 369.654C69.1235 370.297 69.4409 371.062 69.4409 371.949C69.4409 372.861 69.1235 373.638 68.4888 374.281C67.8621 374.924 66.9588 375.412 65.7788 375.746C64.5988 376.079 63.1991 376.246 61.5796 376.246C59.952 376.246 58.5441 376.079 57.356 375.746C56.1759 375.412 55.2686 374.924 54.6338 374.281C54.0072 373.638 53.6938 372.861 53.6938 371.949C53.6938 371.062 54.0072 370.297 54.6338 369.654C55.2686 369.011 56.18 368.527 57.3682 368.202C58.5563 367.868 59.9601 367.701 61.5796 367.701ZM61.5796 370.155C60.5298 370.163 59.6509 370.232 58.9429 370.362C58.243 370.493 57.714 370.692 57.356 370.96C57.006 371.221 56.8311 371.55 56.8311 371.949C56.8311 372.364 57.006 372.706 57.356 372.975C57.714 373.243 58.243 373.447 58.9429 373.585C59.6509 373.715 60.5298 373.78 61.5796 373.78C62.6213 373.78 63.488 373.715 64.1797 373.585C64.8714 373.447 65.3963 373.243 65.7544 372.975C66.1125 372.706 66.2915 372.364 66.2915 371.949C66.2915 371.55 66.1125 371.221 65.7544 370.96C65.3963 370.692 64.8674 370.493 64.1675 370.362C63.4757 370.232 62.6131 370.163 61.5796 370.155ZM89.7534 357.533H75.5444V355.042H89.7534V357.533ZM93.3789 365.516H73.0664V363.014H93.3789V365.516ZM90.9741 356.825C90.9741 358.111 90.9334 359.258 90.8521 360.267C90.7788 361.276 90.5916 362.424 90.2905 363.709L87.1655 363.624C87.3771 362.77 87.5317 361.96 87.6294 361.195C87.7352 360.422 87.8003 359.738 87.8247 359.144C87.8491 358.55 87.8654 357.838 87.8735 357.008V356.825V355.042H90.9741V356.825ZM90.9009 376.002H75.4468V367.884H90.9009V376.002ZM78.5229 373.5H87.8003V370.301H78.5229V373.5ZM112.288 370.643H109.175V354.054H112.288V370.643ZM115.291 363.404H111.384V360.853H115.291V363.404ZM107.844 358.827H94.6484V356.373H107.844V358.827ZM101.265 359.608C102.323 359.608 103.267 359.791 104.097 360.157C104.927 360.515 105.574 361.02 106.038 361.671C106.501 362.322 106.733 363.071 106.733 363.917C106.733 364.755 106.501 365.496 106.038 366.139C105.574 366.782 104.927 367.282 104.097 367.64C103.267 367.99 102.323 368.165 101.265 368.165C100.19 368.165 99.2342 367.99 98.396 367.64C97.5659 367.282 96.9149 366.782 96.4429 366.139C95.979 365.496 95.7471 364.755 95.7471 363.917C95.7471 363.071 95.979 362.322 96.4429 361.671C96.9149 361.02 97.5659 360.515 98.396 360.157C99.2342 359.791 100.19 359.608 101.265 359.608ZM101.265 362C100.76 362 100.321 362.074 99.9463 362.22C99.5719 362.367 99.283 362.586 99.0796 362.879C98.8761 363.164 98.7744 363.51 98.7744 363.917C98.7744 364.316 98.8761 364.658 99.0796 364.942C99.283 365.219 99.5719 365.431 99.9463 365.577C100.321 365.724 100.76 365.797 101.265 365.797C101.761 365.797 102.196 365.724 102.571 365.577C102.953 365.431 103.25 365.219 103.462 364.942C103.674 364.658 103.779 364.316 103.779 363.917C103.779 363.51 103.674 363.164 103.462 362.879C103.25 362.586 102.953 362.367 102.571 362.22C102.196 362.074 101.761 362 101.265 362ZM102.815 357.582H99.7021V354.017H102.815V357.582ZM113.081 375.868H97.8711V373.353H113.081V375.868ZM100.984 374.427H97.8711V369.361H100.984V374.427ZM142.329 366.773H122.065V364.271H142.329V366.773ZM132.161 368.006C133.764 368.006 135.143 368.173 136.299 368.507C137.454 368.832 138.341 369.304 138.96 369.923C139.578 370.541 139.892 371.278 139.9 372.132C139.892 373.003 139.578 373.748 138.96 374.366C138.35 374.985 137.463 375.453 136.299 375.77C135.143 376.087 133.764 376.246 132.161 376.246C130.541 376.246 129.15 376.087 127.986 375.77C126.822 375.453 125.927 374.985 125.3 374.366C124.682 373.748 124.373 373.003 124.373 372.132C124.373 371.278 124.682 370.541 125.3 369.923C125.927 369.304 126.822 368.832 127.986 368.507C129.158 368.173 130.549 368.006 132.161 368.006ZM132.161 370.423C131.127 370.431 130.269 370.497 129.585 370.619C128.91 370.741 128.397 370.928 128.047 371.18C127.705 371.432 127.538 371.75 127.546 372.132C127.538 372.515 127.705 372.832 128.047 373.084C128.397 373.329 128.91 373.516 129.585 373.646C130.26 373.768 131.119 373.829 132.161 373.829C133.178 373.829 134.024 373.768 134.7 373.646C135.383 373.516 135.896 373.329 136.238 373.084C136.588 372.832 136.763 372.515 136.763 372.132C136.763 371.75 136.592 371.432 136.25 371.18C135.908 370.928 135.396 370.741 134.712 370.619C134.028 370.497 133.178 370.431 132.161 370.423ZM132.795 356.849C132.787 357.98 132.441 359.01 131.758 359.938C131.082 360.857 130.081 361.63 128.755 362.257C127.437 362.875 125.846 363.27 123.982 363.441L122.957 361.012C124.486 360.865 125.789 360.58 126.863 360.157C127.937 359.726 128.735 359.225 129.255 358.656C129.776 358.078 130.041 357.476 130.049 356.849V356.251H132.795V356.849ZM134.309 356.849C134.309 357.476 134.569 358.078 135.09 358.656C135.619 359.225 136.421 359.726 137.495 360.157C138.569 360.58 139.892 360.865 141.462 361.012L140.364 363.441C138.508 363.27 136.917 362.879 135.591 362.269C134.264 361.651 133.255 360.877 132.563 359.95C131.872 359.014 131.522 357.98 131.514 356.849V356.251H134.309V356.849ZM140.498 357.545H123.896V355.055H140.498V357.545ZM151.167 357.215C151.167 358.729 150.939 360.133 150.483 361.427C150.036 362.721 149.352 363.848 148.433 364.808C147.513 365.76 146.374 366.468 145.015 366.932L143.342 364.491C144.53 364.084 145.519 363.51 146.309 362.77C147.098 362.021 147.68 361.174 148.054 360.23C148.429 359.286 148.62 358.281 148.628 357.215V355.201H151.167V357.215ZM151.753 357.521C151.753 358.456 151.936 359.339 152.302 360.169C152.677 361 153.242 361.74 153.999 362.391C154.764 363.034 155.712 363.535 156.843 363.893L155.183 366.31C153.881 365.878 152.786 365.231 151.899 364.369C151.012 363.498 150.345 362.481 149.897 361.317C149.45 360.153 149.23 358.888 149.238 357.521V355.201H151.753V357.521ZM161.287 367.201H158.174V354.005H161.287V367.201ZM164.29 361.817H160.408V359.217H164.29V361.817ZM153.999 367.652C155.529 367.652 156.855 367.823 157.979 368.165C159.11 368.499 159.976 368.991 160.579 369.642C161.189 370.285 161.494 371.05 161.494 371.937C161.494 372.84 161.189 373.613 160.579 374.256C159.976 374.899 159.11 375.392 157.979 375.733C156.855 376.075 155.529 376.246 153.999 376.246C152.445 376.246 151.094 376.075 149.946 375.733C148.807 375.392 147.928 374.899 147.31 374.256C146.691 373.613 146.382 372.84 146.382 371.937C146.382 371.05 146.691 370.285 147.31 369.642C147.928 368.991 148.807 368.499 149.946 368.165C151.094 367.823 152.445 367.652 153.999 367.652ZM153.999 370.094C153.031 370.086 152.213 370.155 151.545 370.301C150.878 370.44 150.369 370.647 150.02 370.924C149.678 371.201 149.511 371.538 149.519 371.937C149.511 372.352 149.678 372.698 150.02 372.975C150.361 373.251 150.862 373.459 151.521 373.597C152.188 373.736 153.014 373.805 153.999 373.805C154.967 373.805 155.781 373.736 156.44 373.597C157.1 373.459 157.596 373.251 157.93 372.975C158.263 372.698 158.43 372.352 158.43 371.937C158.43 371.538 158.259 371.201 157.917 370.924C157.584 370.639 157.087 370.427 156.428 370.289C155.769 370.151 154.959 370.086 153.999 370.094ZM183.87 376.307H180.708V354.005H183.87V376.307ZM171.797 355.58C172.912 355.58 173.913 355.905 174.8 356.556C175.695 357.199 176.391 358.123 176.887 359.327C177.392 360.523 177.644 361.915 177.644 363.502C177.644 365.097 177.392 366.497 176.887 367.701C176.391 368.897 175.695 369.817 174.8 370.46C173.913 371.103 172.912 371.424 171.797 371.424C170.666 371.432 169.653 371.115 168.757 370.472C167.87 369.821 167.174 368.897 166.67 367.701C166.165 366.497 165.913 365.097 165.913 363.502C165.913 361.915 166.165 360.523 166.67 359.327C167.174 358.123 167.87 357.199 168.757 356.556C169.653 355.905 170.666 355.58 171.797 355.58ZM171.797 358.399C171.219 358.391 170.71 358.587 170.271 358.985C169.84 359.376 169.506 359.958 169.27 360.731C169.042 361.496 168.932 362.42 168.94 363.502C168.932 364.584 169.042 365.508 169.27 366.273C169.506 367.038 169.84 367.62 170.271 368.019C170.71 368.409 171.219 368.604 171.797 368.604C172.358 368.604 172.855 368.409 173.286 368.019C173.717 367.62 174.051 367.038 174.287 366.273C174.523 365.508 174.641 364.584 174.641 363.502C174.641 362.42 174.523 361.496 174.287 360.731C174.051 359.966 173.717 359.384 173.286 358.985C172.855 358.587 172.358 358.391 171.797 358.399ZM207.539 364.991H203.596V362.44H207.539V364.991ZM204.402 376.209H201.277V354.005H204.402V376.209ZM190.693 369.947H187.581V356.141H190.693V369.947ZM189.509 368.214C191.21 368.214 192.911 368.141 194.612 367.994C196.321 367.84 198.042 367.587 199.775 367.237L200.117 369.825C198.384 370.183 196.642 370.431 194.893 370.57C193.143 370.708 191.348 370.777 189.509 370.777H187.581V368.214H189.509ZM232.832 365.431H229.744V354.005H232.832V365.431ZM232.856 372.242H221.052V374.623H218.013V370.021H229.756V368.666H217.964V366.31H232.856V372.242ZM233.467 376.087H218.013V373.695H233.467V376.087ZM222.31 357.032C222.301 358.367 222.053 359.612 221.565 360.768C221.077 361.923 220.344 362.932 219.368 363.795C218.391 364.649 217.199 365.276 215.791 365.675L214.375 363.221C215.555 362.888 216.548 362.399 217.354 361.756C218.167 361.105 218.77 360.377 219.16 359.571C219.559 358.757 219.758 357.911 219.758 357.032V356.104H222.31V357.032ZM222.92 357.032C222.92 357.862 223.115 358.656 223.506 359.413C223.896 360.169 224.491 360.849 225.288 361.451C226.086 362.045 227.07 362.497 228.242 362.806L226.765 365.223C225.382 364.841 224.218 364.247 223.274 363.441C222.33 362.627 221.618 361.671 221.138 360.572C220.666 359.474 220.434 358.294 220.442 357.032V356.104H222.92V357.032ZM227.4 357.533H215.181V355.055H227.4V357.533ZM252.18 359.754H246.65V357.313H252.18V359.754ZM252.18 364.332H246.65V361.842H252.18V364.332ZM239.949 358.375H244.319V355.384H247.407V366.029H236.812V355.384H239.949V358.375ZM244.319 363.6V360.768H239.949V363.6H244.319ZM254.597 367.311H251.497V354.005H254.597V367.311ZM247.004 367.677C248.583 367.685 249.946 367.86 251.094 368.202C252.249 368.535 253.132 369.028 253.743 369.679C254.353 370.322 254.662 371.095 254.67 371.998C254.662 372.885 254.349 373.646 253.73 374.281C253.12 374.924 252.241 375.412 251.094 375.746C249.946 376.079 248.583 376.246 247.004 376.246C245.434 376.246 244.075 376.079 242.927 375.746C241.788 375.412 240.909 374.924 240.291 374.281C239.68 373.646 239.375 372.885 239.375 371.998C239.375 371.095 239.68 370.322 240.291 369.679C240.909 369.028 241.788 368.535 242.927 368.202C244.075 367.86 245.434 367.685 247.004 367.677ZM247.004 370.069C246.012 370.061 245.181 370.13 244.514 370.277C243.847 370.415 243.338 370.627 242.988 370.912C242.638 371.196 242.463 371.559 242.463 371.998C242.463 372.405 242.638 372.751 242.988 373.036C243.338 373.312 243.847 373.52 244.514 373.658C245.181 373.797 246.012 373.87 247.004 373.878C247.997 373.87 248.831 373.797 249.507 373.658C250.19 373.52 250.703 373.312 251.045 373.036C251.387 372.751 251.558 372.405 251.558 371.998C251.558 371.559 251.387 371.196 251.045 370.912C250.703 370.627 250.194 370.415 249.519 370.277C248.844 370.13 248.005 370.061 247.004 370.069Z" fill="#01A4FC"/>
<path d="M270.161 364.735H266.45V362.245H270.161V364.735ZM276.741 376.246H273.75V354.005H276.741V376.246ZM272.114 375.221H269.172V354.347H272.114V375.221ZM262.507 355.604C263.484 355.604 264.342 355.93 265.083 356.581C265.832 357.232 266.405 358.163 266.804 359.376C267.211 360.589 267.415 362.013 267.415 363.648C267.415 365.292 267.211 366.725 266.804 367.945C266.405 369.158 265.832 370.094 265.083 370.753C264.342 371.404 263.484 371.729 262.507 371.729C261.531 371.729 260.68 371.404 259.956 370.753C259.232 370.094 258.666 369.158 258.259 367.945C257.861 366.725 257.661 365.292 257.661 363.648C257.661 362.013 257.861 360.589 258.259 359.376C258.666 358.163 259.232 357.232 259.956 356.581C260.68 355.93 261.531 355.604 262.507 355.604ZM262.507 358.558C262.084 358.558 261.726 358.745 261.433 359.12C261.14 359.494 260.916 360.064 260.762 360.829C260.607 361.585 260.534 362.525 260.542 363.648C260.534 364.771 260.607 365.715 260.762 366.48C260.916 367.237 261.14 367.803 261.433 368.177C261.734 368.552 262.092 368.739 262.507 368.739C262.939 368.739 263.305 368.552 263.606 368.177C263.915 367.803 264.147 367.237 264.302 366.48C264.465 365.724 264.546 364.78 264.546 363.648C264.546 362.525 264.465 361.585 264.302 360.829C264.147 360.064 263.915 359.494 263.606 359.12C263.305 358.745 262.939 358.558 262.507 358.558ZM94.5142 411.246H91.5845V389.005H94.5142V411.246ZM92.2925 400.101H88.5205V397.611H92.2925V400.101ZM89.436 410.172H86.5796V389.408H89.436V410.172ZM77.4976 403.617C79.1252 403.617 80.5208 403.58 81.6846 403.507C82.8483 403.434 84.0446 403.287 85.2734 403.067L85.4932 405.594C84.2562 405.838 83.0396 406.001 81.8433 406.083C80.6551 406.156 79.2065 406.201 77.4976 406.217H75.9351V403.617H77.4976ZM84.2358 394.107H79.0601V404.874H75.9351V391.605H84.2358V394.107ZM107.637 394.889H96.8823V392.411H107.637V394.889ZM102.302 395.89C103.238 395.89 104.076 396.113 104.817 396.561C105.566 397.009 106.147 397.635 106.562 398.441C106.978 399.238 107.185 400.146 107.185 401.163C107.185 402.188 106.978 403.1 106.562 403.897C106.147 404.695 105.566 405.326 104.817 405.79C104.076 406.245 103.238 406.473 102.302 406.473C101.375 406.473 100.536 406.245 99.7876 405.79C99.0389 405.326 98.457 404.695 98.042 403.897C97.627 403.092 97.4194 402.18 97.4194 401.163C97.4194 400.154 97.627 399.251 98.042 398.453C98.4652 397.647 99.047 397.021 99.7876 396.573C100.536 396.118 101.375 395.89 102.302 395.89ZM102.302 398.478C101.871 398.478 101.493 398.583 101.167 398.795C100.85 399.007 100.601 399.316 100.422 399.723C100.243 400.13 100.158 400.61 100.166 401.163C100.158 401.716 100.243 402.193 100.422 402.591C100.601 402.99 100.85 403.295 101.167 403.507C101.493 403.718 101.867 403.824 102.29 403.824C102.721 403.824 103.1 403.718 103.425 403.507C103.751 403.295 104.003 402.99 104.182 402.591C104.369 402.193 104.463 401.716 104.463 401.163C104.463 400.61 104.369 400.13 104.182 399.723C104.003 399.316 103.747 399.007 103.413 398.795C103.088 398.583 102.717 398.478 102.302 398.478ZM116.133 411.246H113.167V389.005H116.133V411.246ZM114.155 400.553H110.42V398.075H114.155V400.553ZM111.372 410.294H108.455V389.469H111.372V410.294ZM103.828 393.973H100.764V389.64H103.828V393.973ZM142.878 400.431H139.79V389.005H142.878V400.431ZM142.903 407.242H131.099V409.623H128.059V405.021H139.802V403.666H128.01V401.31H142.903V407.242ZM143.513 411.087H128.059V408.695H143.513V411.087ZM132.356 392.032C132.348 393.367 132.1 394.612 131.611 395.768C131.123 396.923 130.391 397.932 129.414 398.795C128.438 399.649 127.245 400.276 125.837 400.675L124.421 398.221C125.601 397.888 126.594 397.399 127.4 396.756C128.214 396.105 128.816 395.377 129.207 394.571C129.605 393.757 129.805 392.911 129.805 392.032V391.104H132.356V392.032ZM132.966 392.032C132.966 392.862 133.162 393.656 133.552 394.413C133.943 395.169 134.537 395.849 135.334 396.451C136.132 397.045 137.117 397.497 138.289 397.806L136.812 400.223C135.428 399.841 134.264 399.247 133.32 398.441C132.376 397.627 131.664 396.671 131.184 395.572C130.712 394.474 130.48 393.294 130.488 392.032V391.104H132.966V392.032ZM137.446 392.533H125.227V390.055H137.446V392.533ZM166.218 402.494H145.906V400.003H166.218V402.494ZM157.869 406.327H154.792V401.566H157.869V406.327ZM163.63 398.185H148.433V390.006H163.63V398.185ZM151.484 395.755H160.566V392.411H151.484V395.755ZM163.984 410.868H148.274V408.353H163.984V410.868ZM151.399 409.183H148.274V404.386H151.399V409.183ZM178.242 394.889H167.488V392.411H178.242V394.889ZM172.908 395.89C173.844 395.89 174.682 396.113 175.422 396.561C176.171 397.009 176.753 397.635 177.168 398.441C177.583 399.238 177.791 400.146 177.791 401.163C177.791 402.188 177.583 403.1 177.168 403.897C176.753 404.695 176.171 405.326 175.422 405.79C174.682 406.245 173.844 406.473 172.908 406.473C171.98 406.473 171.142 406.245 170.393 405.79C169.644 405.326 169.062 404.695 168.647 403.897C168.232 403.092 168.025 402.18 168.025 401.163C168.025 400.154 168.232 399.251 168.647 398.453C169.071 397.647 169.653 397.021 170.393 396.573C171.142 396.118 171.98 395.89 172.908 395.89ZM172.908 398.478C172.476 398.478 172.098 398.583 171.772 398.795C171.455 399.007 171.207 399.316 171.028 399.723C170.849 400.13 170.763 400.61 170.771 401.163C170.763 401.716 170.849 402.193 171.028 402.591C171.207 402.99 171.455 403.295 171.772 403.507C172.098 403.718 172.472 403.824 172.896 403.824C173.327 403.824 173.705 403.718 174.031 403.507C174.356 403.295 174.609 402.99 174.788 402.591C174.975 402.193 175.068 401.716 175.068 401.163C175.068 400.61 174.975 400.13 174.788 399.723C174.609 399.316 174.352 399.007 174.019 398.795C173.693 398.583 173.323 398.478 172.908 398.478ZM186.738 411.246H183.772V389.005H186.738V411.246ZM184.761 400.553H181.025V398.075H184.761V400.553ZM181.978 410.294H179.06V389.469H181.978V410.294ZM174.434 393.973H171.37V389.64H174.434V393.973ZM200.178 392.167C200.178 393.485 199.824 394.689 199.116 395.78C198.416 396.862 197.395 397.774 196.052 398.514C194.709 399.247 193.118 399.739 191.279 399.991L190.12 397.562C191.674 397.375 193.005 397.005 194.111 396.451C195.226 395.89 196.064 395.239 196.626 394.498C197.188 393.749 197.468 392.972 197.468 392.167V391.495H200.178V392.167ZM201.069 392.167C201.069 392.972 201.346 393.749 201.899 394.498C202.461 395.239 203.295 395.89 204.402 396.451C205.517 397.005 206.864 397.375 208.442 397.562L207.319 399.991C205.464 399.739 203.861 399.247 202.51 398.514C201.159 397.774 200.129 396.862 199.421 395.78C198.713 394.689 198.359 393.485 198.359 392.167V391.495H201.069V392.167ZM200.752 411.258H197.664V403.067H200.752V411.258ZM209.407 403.775H189.143V401.297H209.407V403.775ZM207.576 392.63H190.962V390.201H207.576V392.63ZM223.347 399.076H219.563V396.524H223.347V399.076ZM217.231 394.767C217.231 396.508 217.052 398.156 216.694 399.71C216.344 401.257 215.795 402.652 215.046 403.897C214.306 405.134 213.366 406.099 212.227 406.791L210.322 404.471C211.372 403.828 212.235 402.994 212.91 401.969C213.586 400.935 214.074 399.812 214.375 398.6C214.684 397.387 214.839 396.109 214.839 394.767V390.934H217.231V394.767ZM217.854 394.62C217.854 395.938 217.984 397.171 218.245 398.319C218.505 399.458 218.936 400.516 219.539 401.493C220.141 402.461 220.926 403.259 221.895 403.885L220.21 406.278C219.079 405.594 218.163 404.65 217.463 403.446C216.764 402.241 216.263 400.903 215.962 399.43C215.661 397.949 215.514 396.345 215.522 394.62V390.934H217.854V394.62ZM230 411.246H227.009V389.005H230V411.246ZM225.349 410.221H222.432V389.347H225.349V410.221ZM239.973 406.571H236.885V400.333H239.973V406.571ZM248.152 406.571H245.015V400.333H248.152V406.571ZM252.668 408.646H232.356V406.095H252.668V408.646ZM242.476 390.104C244.079 390.104 245.511 390.352 246.772 390.848C248.042 391.345 249.035 392.044 249.751 392.948C250.475 393.851 250.837 394.889 250.837 396.061C250.837 397.249 250.479 398.29 249.763 399.186C249.047 400.081 248.054 400.777 246.785 401.273C245.515 401.769 244.079 402.018 242.476 402.018C240.872 402.018 239.436 401.769 238.167 401.273C236.905 400.777 235.916 400.081 235.2 399.186C234.484 398.29 234.126 397.249 234.126 396.061C234.126 394.889 234.484 393.851 235.2 392.948C235.916 392.044 236.905 391.345 238.167 390.848C239.436 390.352 240.872 390.104 242.476 390.104ZM242.476 392.569C241.41 392.561 240.482 392.695 239.692 392.972C238.903 393.249 238.289 393.652 237.849 394.181C237.418 394.71 237.202 395.336 237.202 396.061C237.202 396.785 237.418 397.416 237.849 397.953C238.289 398.482 238.903 398.889 239.692 399.173C240.49 399.458 241.418 399.605 242.476 399.613C243.525 399.605 244.449 399.458 245.247 399.173C246.044 398.88 246.663 398.469 247.102 397.94C247.542 397.411 247.761 396.785 247.761 396.061C247.761 395.336 247.542 394.71 247.102 394.181C246.663 393.652 246.044 393.249 245.247 392.972C244.449 392.695 243.525 392.561 242.476 392.569ZM256.819 409.22C256.453 409.22 256.111 409.13 255.793 408.951C255.476 408.764 255.224 408.512 255.037 408.194C254.858 407.877 254.772 407.531 254.78 407.157C254.772 406.791 254.858 406.453 255.037 406.144C255.224 405.834 255.476 405.59 255.793 405.411C256.111 405.232 256.453 405.143 256.819 405.143C257.177 405.143 257.515 405.232 257.832 405.411C258.149 405.59 258.398 405.838 258.577 406.156C258.764 406.465 258.861 406.799 258.87 407.157C258.861 407.531 258.764 407.877 258.577 408.194C258.398 408.512 258.149 408.764 257.832 408.951C257.515 409.13 257.177 409.22 256.819 409.22Z" fill="#1E1E1E"/>
<path d="M41.0291 439.394H33.9734V438.613H41.0291V439.394ZM42.6526 443.276H32.7161V442.495H42.6526V443.276ZM38.1238 445.302H37.1838V443.044H38.1238V445.302ZM41.3464 439.382C41.3464 440.013 41.3261 440.586 41.2854 441.103C41.2447 441.62 41.1471 442.202 40.9924 442.849L40.0525 442.739C40.1583 442.303 40.2356 441.894 40.2844 441.512C40.3333 441.125 40.3638 440.786 40.376 440.493C40.3882 440.196 40.3943 439.85 40.3943 439.455V439.382V438.613H41.3464V439.382ZM37.6599 444.973C38.4412 444.973 39.1166 445.05 39.6863 445.205C40.2559 445.359 40.6913 445.587 40.9924 445.888C41.2935 446.185 41.4441 446.543 41.4441 446.962C41.4441 447.386 41.2935 447.748 40.9924 448.049C40.6913 448.35 40.2559 448.578 39.6863 448.732C39.1166 448.887 38.4412 448.964 37.6599 448.964C36.8665 448.964 36.1849 448.887 35.6152 448.732C35.0496 448.578 34.6143 448.35 34.3091 448.049C34.0039 447.752 33.8513 447.39 33.8513 446.962C33.8513 446.543 34.0039 446.185 34.3091 445.888C34.6143 445.587 35.0517 445.359 35.6213 445.205C36.191 445.05 36.8705 444.973 37.6599 444.973ZM37.6599 445.742C37.0699 445.746 36.5613 445.797 36.134 445.894C35.7109 445.988 35.3853 446.126 35.1575 446.309C34.9337 446.492 34.8238 446.71 34.8279 446.962C34.8238 447.219 34.9337 447.441 35.1575 447.628C35.3853 447.811 35.7109 447.951 36.134 448.049C36.5613 448.146 37.0699 448.195 37.6599 448.195C38.2377 448.195 38.7382 448.146 39.1614 448.049C39.5846 447.951 39.908 447.811 40.1318 447.628C40.3597 447.441 40.4757 447.219 40.4797 446.962C40.4757 446.71 40.3597 446.492 40.1318 446.309C39.908 446.126 39.5846 445.988 39.1614 445.894C38.7382 445.797 38.2377 445.746 37.6599 445.742ZM51.8323 439.516H44.7766V438.723H51.8323V439.516ZM53.4558 443.508H43.5193V442.714H53.4558V443.508ZM52.1497 439.528C52.1497 440.159 52.1293 440.733 52.0886 441.25C52.0479 441.762 51.9503 442.352 51.7957 443.02L50.8435 442.958C50.9534 442.511 51.0327 442.09 51.0815 441.695C51.1344 441.3 51.167 440.955 51.1792 440.657C51.1914 440.356 51.1975 440.004 51.1975 439.602V439.528V438.723H52.1497V439.528ZM52.1985 448.842H44.74V445.009H52.1985V448.842ZM45.6921 448.061H51.2463V445.766H45.6921V448.061ZM62.8064 446.279H61.8542V438.149H62.8064V446.279ZM64.4421 442.531H62.5012V441.726H64.4421V442.531ZM60.8167 440.261H54.3469V439.479H60.8167V440.261ZM57.5818 440.859C58.0945 440.859 58.5482 440.942 58.9429 441.109C59.3376 441.276 59.6427 441.512 59.8584 441.817C60.0781 442.122 60.19 442.478 60.1941 442.885C60.19 443.288 60.0781 443.642 59.8584 443.947C59.6427 444.248 59.3376 444.48 58.9429 444.643C58.5482 444.806 58.0945 444.887 57.5818 444.887C57.061 444.887 56.6032 444.806 56.2085 444.643C55.8138 444.48 55.5086 444.248 55.293 443.947C55.0773 443.642 54.9695 443.288 54.9695 442.885C54.9695 442.478 55.0773 442.122 55.293 441.817C55.5086 441.512 55.8138 441.276 56.2085 441.109C56.6032 440.942 57.061 440.859 57.5818 440.859ZM57.5818 441.616C57.2441 441.616 56.945 441.667 56.6846 441.768C56.4282 441.87 56.2309 442.019 56.0925 442.214C55.9542 442.405 55.885 442.629 55.885 442.885C55.885 443.138 55.9542 443.357 56.0925 443.544C56.2309 443.732 56.4282 443.878 56.6846 443.984C56.945 444.086 57.2441 444.134 57.5818 444.13C57.9154 444.134 58.2125 444.086 58.4729 443.984C58.7333 443.878 58.9327 443.732 59.071 443.544C59.2135 443.357 59.2867 443.138 59.2908 442.885C59.2867 442.629 59.2135 442.405 59.071 442.214C58.9327 442.019 58.7333 441.87 58.4729 441.768C58.2125 441.667 57.9154 441.616 57.5818 441.616ZM58.0579 439.882H57.1057V438.149H58.0579V439.882ZM63.3069 448.757H56.0193V447.951H63.3069V448.757ZM56.9592 448.281H56.0193V445.632H56.9592V448.281ZM78.1506 444.094H68.2629V443.3H78.1506V444.094ZM73.2068 445.046C73.9799 445.046 74.6452 445.123 75.2026 445.278C75.7601 445.432 76.1873 445.658 76.4844 445.955C76.7855 446.248 76.9381 446.6 76.9421 447.011C76.9381 447.426 76.7875 447.78 76.4905 448.073C76.1975 448.366 75.7703 448.588 75.2087 448.739C74.6472 448.889 73.9799 448.964 73.2068 448.964C72.4255 448.964 71.7542 448.889 71.1926 448.739C70.6311 448.588 70.2018 448.366 69.9048 448.073C69.6077 447.78 69.4592 447.426 69.4592 447.011C69.4592 446.6 69.6077 446.248 69.9048 445.955C70.2018 445.658 70.6311 445.432 71.1926 445.278C71.7582 445.123 72.4296 445.046 73.2068 445.046ZM73.2068 445.803C72.629 445.807 72.1326 445.858 71.7175 445.955C71.3025 446.049 70.9831 446.185 70.7593 446.364C70.5396 446.543 70.4317 446.759 70.4358 447.011C70.4317 447.259 70.5396 447.473 70.7593 447.652C70.9831 447.827 71.3025 447.961 71.7175 448.055C72.1326 448.149 72.629 448.195 73.2068 448.195C73.7805 448.195 74.2729 448.149 74.6838 448.055C75.0989 447.961 75.4183 447.827 75.6421 447.652C75.8659 447.473 75.9778 447.259 75.9778 447.011C75.9778 446.759 75.8679 446.543 75.6482 446.364C75.4285 446.185 75.109 446.049 74.6899 445.955C74.2749 445.858 73.7805 445.807 73.2068 445.803ZM73.4387 439.443C73.4387 440.004 73.2434 440.511 72.8528 440.963C72.4622 441.414 71.9413 441.785 71.2903 442.073C70.6392 442.362 69.9312 442.556 69.1663 442.653L68.8245 441.884C69.4755 441.811 70.0899 441.658 70.6677 441.427C71.2455 441.195 71.7094 440.908 72.0593 440.566C72.4093 440.224 72.5842 439.85 72.5842 439.443V439.113H73.4387V439.443ZM73.8293 439.443C73.8293 439.846 74.0043 440.22 74.3542 440.566C74.7042 440.908 75.1681 441.195 75.7458 441.427C76.3236 441.658 76.9421 441.811 77.6013 441.884L77.2473 442.653C76.4864 442.556 75.7804 442.362 75.1294 442.073C74.4824 441.785 73.9616 441.414 73.5669 440.963C73.1722 440.511 72.9749 440.004 72.9749 439.443V439.113H73.8293V439.443ZM77.2717 439.492H69.1663V438.698H77.2717V439.492ZM82.5452 439.821C82.5452 440.509 82.4211 441.154 82.1729 441.756C81.9246 442.354 81.5727 442.875 81.1169 443.319C80.6653 443.758 80.1404 444.094 79.5422 444.326L79.0295 443.557C79.5667 443.357 80.0407 443.07 80.4517 442.696C80.8626 442.318 81.182 441.882 81.4099 441.39C81.6378 440.898 81.7517 440.375 81.7517 439.821V438.698H82.5452V439.821ZM82.6917 439.895C82.6917 440.379 82.8076 440.847 83.0396 441.298C83.2715 441.746 83.5909 442.141 83.9978 442.482C84.4047 442.824 84.8686 443.085 85.3894 443.264L84.8645 444.021C84.2867 443.809 83.776 443.498 83.3325 443.087C82.889 442.676 82.5411 442.196 82.2888 441.646C82.0365 441.097 81.9104 440.513 81.9104 439.895V438.698H82.6917V439.895ZM87.55 444.741H86.5979V438.137H87.55V444.741ZM89.1858 441.774H87.2815V440.969H89.1858V441.774ZM84.071 445.021C84.8116 445.021 85.4504 445.099 85.9875 445.253C86.5247 445.408 86.9356 445.634 87.2205 445.931C87.5053 446.224 87.6477 446.576 87.6477 446.987C87.6477 447.406 87.5053 447.762 87.2205 448.055C86.9356 448.352 86.5247 448.578 85.9875 448.732C85.4504 448.887 84.8116 448.964 84.071 448.964C83.3264 448.964 82.6835 448.887 82.1423 448.732C81.6052 448.578 81.1922 448.352 80.9033 448.055C80.6144 447.758 80.47 447.402 80.47 446.987C80.47 446.576 80.6144 446.224 80.9033 445.931C81.1922 445.634 81.6073 445.408 82.1484 445.253C82.6896 445.099 83.3305 445.021 84.071 445.021ZM84.071 445.791C83.5299 445.791 83.0599 445.839 82.6611 445.937C82.2664 446.035 81.9613 446.173 81.7456 446.352C81.534 446.531 81.4303 446.743 81.4343 446.987C81.4303 447.239 81.534 447.457 81.7456 447.64C81.9613 447.823 82.2664 447.963 82.6611 448.061C83.0558 448.159 83.5258 448.208 84.071 448.208C84.6163 448.208 85.0883 448.159 85.4871 448.061C85.8858 447.963 86.191 447.823 86.4026 447.64C86.6142 447.457 86.72 447.239 86.72 446.987C86.72 446.743 86.6142 446.529 86.4026 446.346C86.191 446.163 85.8838 446.024 85.481 445.931C85.0822 445.837 84.6122 445.791 84.071 445.791ZM98.8171 449.013H97.8528V438.137H98.8171V449.013ZM93.0432 438.979C93.5803 438.979 94.0584 439.134 94.4775 439.443C94.8966 439.752 95.2242 440.194 95.4602 440.767C95.6962 441.341 95.8142 442.006 95.8142 442.763C95.8142 443.52 95.6962 444.183 95.4602 444.753C95.2242 445.323 94.8966 445.762 94.4775 446.071C94.0584 446.381 93.5803 446.535 93.0432 446.535C92.5061 446.535 92.028 446.381 91.6089 446.071C91.1898 445.762 90.8622 445.323 90.6262 444.753C90.3902 444.183 90.2722 443.52 90.2722 442.763C90.2722 442.006 90.3902 441.341 90.6262 440.767C90.8622 440.194 91.1898 439.752 91.6089 439.443C92.028 439.134 92.5061 438.979 93.0432 438.979ZM93.0432 439.833C92.6851 439.833 92.3657 439.956 92.085 440.2C91.8042 440.444 91.5865 440.788 91.4319 441.231C91.2773 441.675 91.2 442.185 91.2 442.763C91.2 443.345 91.2773 443.858 91.4319 444.301C91.5865 444.741 91.8042 445.08 92.085 445.321C92.3657 445.561 92.6851 445.681 93.0432 445.681C93.4054 445.681 93.7248 445.561 94.0015 445.321C94.2822 445.08 94.4999 444.741 94.6545 444.301C94.8092 443.858 94.8865 443.345 94.8865 442.763C94.8865 442.181 94.8092 441.671 94.6545 441.231C94.4999 440.788 94.2822 440.444 94.0015 440.2C93.7248 439.956 93.4054 439.833 93.0432 439.833ZM110.829 443.276H108.827V442.47H110.829V443.276ZM109.071 448.989H108.119V438.137H109.071V448.989ZM102.076 445.925H101.124V439.211H102.076V445.925ZM101.991 445.424C102.85 445.428 103.694 445.392 104.524 445.314C105.354 445.237 106.202 445.107 107.069 444.924L107.191 445.742C106.308 445.921 105.444 446.047 104.597 446.12C103.751 446.193 102.882 446.23 101.991 446.23H101.124V445.424H101.991ZM123.561 443.776H122.621V438.137H123.561V443.776ZM123.573 446.889H117.482V448.452H116.542V446.169H122.621V445.058H116.517V444.301H123.573V446.889ZM123.964 448.867H116.542V448.098H123.964V448.867ZM118.336 439.675C118.336 440.306 118.206 440.896 117.946 441.445C117.685 441.99 117.319 442.466 116.847 442.873C116.375 443.276 115.834 443.581 115.223 443.789L114.772 443.032C115.309 442.853 115.789 442.592 116.212 442.25C116.635 441.909 116.965 441.516 117.201 441.073C117.437 440.629 117.555 440.163 117.555 439.675V439.089H118.336V439.675ZM118.519 439.675C118.519 440.139 118.639 440.58 118.879 440.999C119.119 441.418 119.449 441.787 119.868 442.104C120.291 442.417 120.774 442.653 121.315 442.812L120.839 443.557C120.232 443.365 119.695 443.081 119.227 442.702C118.763 442.32 118.399 441.87 118.135 441.353C117.874 440.832 117.746 440.273 117.75 439.675V439.089H118.519V439.675ZM121.022 439.553H115.016V438.759H121.022V439.553ZM133.717 440.7H130.592V439.919H133.717V440.7ZM133.717 442.946H130.592V442.153H133.717V442.946ZM126.918 440.554H129.945V438.808H130.885V443.911H125.966V438.808H126.918V440.554ZM129.945 443.129V441.323H126.918V443.129H129.945ZM134.413 444.716H133.448V438.137H134.413V444.716ZM130.812 444.924C131.56 444.928 132.209 445.011 132.759 445.174C133.308 445.333 133.727 445.565 134.016 445.87C134.305 446.171 134.449 446.535 134.449 446.962C134.449 447.382 134.303 447.74 134.01 448.037C133.717 448.338 133.298 448.568 132.753 448.726C132.207 448.885 131.56 448.964 130.812 448.964C130.059 448.964 129.41 448.885 128.865 448.726C128.324 448.568 127.906 448.338 127.614 448.037C127.321 447.74 127.174 447.382 127.174 446.962C127.174 446.535 127.321 446.171 127.614 445.87C127.906 445.565 128.324 445.333 128.865 445.174C129.41 445.011 130.059 444.928 130.812 444.924ZM130.812 445.681C130.258 445.681 129.78 445.732 129.377 445.833C128.975 445.935 128.665 446.081 128.45 446.273C128.234 446.464 128.126 446.694 128.126 446.962C128.126 447.219 128.234 447.441 128.45 447.628C128.665 447.811 128.975 447.953 129.377 448.055C129.78 448.157 130.258 448.208 130.812 448.208C131.361 448.208 131.837 448.157 132.24 448.055C132.647 447.953 132.958 447.811 133.174 447.628C133.389 447.441 133.497 447.219 133.497 446.962C133.497 446.694 133.389 446.464 133.174 446.273C132.958 446.081 132.649 445.935 132.246 445.833C131.843 445.732 131.365 445.681 130.812 445.681ZM145.167 449.013H144.203V438.137H145.167V449.013ZM139.393 438.979C139.93 438.979 140.409 439.134 140.828 439.443C141.247 439.752 141.574 440.194 141.81 440.767C142.046 441.341 142.164 442.006 142.164 442.763C142.164 443.52 142.046 444.183 141.81 444.753C141.574 445.323 141.247 445.762 140.828 446.071C140.409 446.381 139.93 446.535 139.393 446.535C138.856 446.535 138.378 446.381 137.959 446.071C137.54 445.762 137.212 445.323 136.976 444.753C136.74 444.183 136.622 443.52 136.622 442.763C136.622 442.006 136.74 441.341 136.976 440.767C137.212 440.194 137.54 439.752 137.959 439.443C138.378 439.134 138.856 438.979 139.393 438.979ZM139.393 439.833C139.035 439.833 138.716 439.956 138.435 440.2C138.154 440.444 137.937 440.788 137.782 441.231C137.627 441.675 137.55 442.185 137.55 442.763C137.55 443.345 137.627 443.858 137.782 444.301C137.937 444.741 138.154 445.08 138.435 445.321C138.716 445.561 139.035 445.681 139.393 445.681C139.755 445.681 140.075 445.561 140.352 445.321C140.632 445.08 140.85 444.741 141.005 444.301C141.159 443.858 141.237 443.345 141.237 442.763C141.237 442.181 141.159 441.671 141.005 441.231C140.85 440.788 140.632 440.444 140.352 440.2C140.075 439.956 139.755 439.833 139.393 439.833ZM153.663 445.424C153.659 445.896 153.558 446.358 153.358 446.81C153.163 447.261 152.878 447.664 152.504 448.018C152.133 448.376 151.694 448.651 151.185 448.842L150.697 448.134C151.141 447.967 151.529 447.74 151.863 447.451C152.201 447.158 152.457 446.834 152.632 446.48C152.811 446.126 152.902 445.774 152.906 445.424V444.826H153.663V445.424ZM153.834 445.424C153.83 445.795 153.903 446.159 154.054 446.517C154.209 446.871 154.434 447.196 154.731 447.493C155.028 447.79 155.389 448.024 155.812 448.195L155.409 448.928C154.9 448.736 154.473 448.456 154.127 448.085C153.785 447.719 153.531 447.306 153.364 446.846C153.201 446.387 153.122 445.913 153.126 445.424V444.826H153.834V445.424ZM157.679 445.424C157.675 445.864 157.588 446.313 157.417 446.773C157.25 447.233 156.994 447.656 156.648 448.043C156.306 448.429 155.893 448.724 155.409 448.928L154.994 448.195C155.405 448.008 155.759 447.758 156.056 447.445C156.357 447.131 156.583 446.798 156.733 446.444C156.888 446.086 156.963 445.746 156.959 445.424V444.826H157.679V445.424ZM157.899 445.424C157.895 445.799 157.981 446.163 158.156 446.517C158.335 446.871 158.591 447.19 158.925 447.475C159.258 447.756 159.653 447.976 160.109 448.134L159.633 448.842C159.112 448.659 158.664 448.393 158.29 448.043C157.915 447.697 157.631 447.298 157.435 446.846C157.24 446.395 157.142 445.921 157.142 445.424V444.826H157.899V445.424ZM159.12 444.35H158.168V438.149H159.12V444.35ZM153.26 438.784C153.806 438.784 154.294 438.889 154.725 439.101C155.157 439.313 155.494 439.612 155.739 439.998C155.983 440.385 156.105 440.826 156.105 441.323C156.105 441.811 155.983 442.246 155.739 442.629C155.494 443.011 155.157 443.308 154.725 443.52C154.294 443.732 153.806 443.837 153.26 443.837C152.715 443.837 152.227 443.732 151.796 443.52C151.364 443.308 151.027 443.011 150.782 442.629C150.538 442.246 150.416 441.811 150.416 441.323C150.416 440.826 150.538 440.385 150.782 439.998C151.027 439.612 151.364 439.313 151.796 439.101C152.227 438.889 152.715 438.784 153.26 438.784ZM153.26 439.602C152.894 439.597 152.567 439.669 152.278 439.815C151.989 439.958 151.761 440.161 151.594 440.426C151.431 440.69 151.352 440.989 151.356 441.323C151.352 441.652 151.431 441.947 151.594 442.208C151.761 442.464 151.987 442.668 152.272 442.818C152.561 442.969 152.89 443.044 153.26 443.044C153.627 443.044 153.954 442.969 154.243 442.818C154.532 442.668 154.758 442.464 154.921 442.208C155.083 441.947 155.165 441.652 155.165 441.323C155.165 440.989 155.083 440.69 154.921 440.426C154.758 440.161 154.53 439.958 154.237 439.815C153.948 439.669 153.623 439.597 153.26 439.602ZM169.362 449.013H168.409V438.137H169.362V449.013ZM171.18 443.239H169.142V442.434H171.18V443.239ZM162.294 445.485C163.36 445.481 164.273 445.453 165.034 445.4C165.795 445.343 166.57 445.241 167.36 445.095L167.482 445.925C166.676 446.071 165.887 446.169 165.114 446.218C164.344 446.267 163.405 446.291 162.294 446.291H161.439V445.485H162.294ZM166.505 439.992H162.391V445.852H161.439V439.199H166.505V439.992ZM180.092 440.859H177.015V440.053H180.092V440.859ZM180.116 443.178H177.015V442.385H180.116V443.178ZM177.26 444.155H172.279V439.089H177.26V444.155ZM173.231 443.386H176.32V439.882H173.231V443.386ZM180.763 446.071H179.799V438.149H180.763V446.071ZM181.007 448.757H173.744V447.951H181.007V448.757ZM174.708 448.305H173.744V445.363H174.708V448.305ZM194.166 441.958H191.151V441.164H194.166V441.958ZM194.703 446.145H193.739V438.149H194.703V446.145ZM195.009 448.757H187.733V447.951H195.009V448.757ZM188.698 448.281H187.733V445.327H188.698V448.281ZM188.698 438.845C189.222 438.845 189.696 438.959 190.12 439.187C190.547 439.414 190.883 439.732 191.127 440.139C191.375 440.542 191.501 441.001 191.505 441.518C191.501 442.031 191.375 442.491 191.127 442.897C190.883 443.304 190.547 443.624 190.12 443.856C189.696 444.088 189.222 444.204 188.698 444.204C188.16 444.204 187.678 444.088 187.251 443.856C186.824 443.624 186.488 443.306 186.244 442.904C186 442.497 185.878 442.035 185.878 441.518C185.878 441.001 186 440.542 186.244 440.139C186.488 439.732 186.824 439.414 187.251 439.187C187.678 438.959 188.16 438.845 188.698 438.845ZM188.698 439.687C188.335 439.687 188.01 439.764 187.721 439.919C187.436 440.074 187.21 440.291 187.043 440.572C186.877 440.849 186.793 441.164 186.793 441.518C186.793 441.872 186.877 442.189 187.043 442.47C187.21 442.747 187.436 442.967 187.721 443.129C188.01 443.288 188.335 443.369 188.698 443.374C189.052 443.369 189.371 443.288 189.656 443.129C189.945 442.967 190.17 442.747 190.333 442.47C190.496 442.189 190.577 441.872 190.577 441.518C190.577 441.168 190.496 440.853 190.333 440.572C190.17 440.291 189.945 440.074 189.656 439.919C189.371 439.764 189.052 439.687 188.698 439.687ZM205.787 448.989H204.872V438.137H205.787V448.989ZM202.98 442.836H200.856V442.055H202.98V442.836ZM203.59 448.427H202.687V438.405H203.59V448.427ZM199.525 441.237C199.521 442.019 199.415 442.773 199.208 443.502C199.004 444.23 198.711 444.885 198.329 445.467C197.95 446.045 197.503 446.494 196.986 446.816L196.376 446.096C196.868 445.803 197.295 445.4 197.657 444.887C198.024 444.375 198.3 443.803 198.488 443.172C198.679 442.541 198.772 441.896 198.768 441.237V439.821H199.525V441.237ZM199.696 441.237C199.696 441.868 199.79 442.482 199.977 443.081C200.164 443.675 200.433 444.216 200.782 444.704C201.132 445.188 201.552 445.571 202.04 445.852L201.454 446.56C200.933 446.246 200.487 445.817 200.117 445.272C199.747 444.722 199.462 444.102 199.263 443.41C199.067 442.714 198.972 441.99 198.976 441.237V439.821H199.696V441.237ZM201.686 440.212H196.681V439.418H201.686V440.212ZM217.213 444.399H207.313V443.618H217.213V444.399ZM216.078 442.421H208.571V441.628H216.078V442.421ZM215.98 439.394H209.523V441.896H208.571V438.613H215.98V439.394ZM216.163 448.745H208.595V447.939H216.163V448.745ZM209.547 448.159H208.595V445.571H209.547V448.159ZM221.827 441.469C221.827 442.218 221.685 442.956 221.4 443.685C221.115 444.413 220.733 445.06 220.253 445.626C219.777 446.191 219.256 446.617 218.69 446.901L218.116 446.145C218.633 445.896 219.113 445.522 219.557 445.021C220.004 444.517 220.363 443.951 220.631 443.325C220.9 442.698 221.034 442.08 221.034 441.469V439.675H221.827V441.469ZM221.998 441.469C221.998 442.067 222.133 442.663 222.401 443.258C222.67 443.848 223.028 444.375 223.475 444.838C223.923 445.302 224.411 445.648 224.94 445.876L224.403 446.633C223.813 446.364 223.276 445.965 222.792 445.437C222.312 444.908 221.929 444.299 221.644 443.612C221.364 442.92 221.225 442.206 221.229 441.469V439.675H221.998V441.469ZM224.586 440.053H218.47V439.26H224.586V440.053ZM227.064 448.989H226.1V438.137H227.064V448.989ZM241.005 443.776H240.065V438.137H241.005V443.776ZM241.017 446.889H234.926V448.452H233.986V446.169H240.065V445.058H233.961V444.301H241.017V446.889ZM241.407 448.867H233.986V448.098H241.407V448.867ZM235.78 439.675C235.78 440.306 235.65 440.896 235.389 441.445C235.129 441.99 234.763 442.466 234.291 442.873C233.819 443.276 233.278 443.581 232.667 443.789L232.216 443.032C232.753 442.853 233.233 442.592 233.656 442.25C234.079 441.909 234.409 441.516 234.645 441.073C234.881 440.629 234.999 440.163 234.999 439.675V439.089H235.78V439.675ZM235.963 439.675C235.963 440.139 236.083 440.58 236.323 440.999C236.563 441.418 236.893 441.787 237.312 442.104C237.735 442.417 238.217 442.653 238.759 442.812L238.282 443.557C237.676 443.365 237.139 443.081 236.671 442.702C236.207 442.32 235.843 441.87 235.579 441.353C235.318 440.832 235.19 440.273 235.194 439.675V439.089H235.963V439.675ZM238.466 439.553H232.46V438.759H238.466V439.553ZM252.784 444.484H242.848V443.691H252.784V444.484ZM248.365 446.706H247.413V444.179H248.365V446.706ZM251.49 442.446H244.142V438.674H251.49V442.446ZM245.082 441.677H250.538V439.431H245.082V441.677ZM251.674 448.757H244.117V447.951H251.674V448.757ZM245.082 448.232H244.117V445.632H245.082V448.232ZM259.083 440.798H253.639V440.017H259.083V440.798ZM256.361 441.53C256.813 441.53 257.216 441.636 257.57 441.848C257.928 442.059 258.206 442.352 258.406 442.727C258.609 443.097 258.713 443.52 258.717 443.996C258.713 444.476 258.609 444.903 258.406 445.278C258.206 445.652 257.928 445.947 257.57 446.163C257.216 446.378 256.813 446.486 256.361 446.486C255.918 446.486 255.517 446.378 255.159 446.163C254.805 445.947 254.528 445.652 254.329 445.278C254.129 444.903 254.03 444.476 254.03 443.996C254.03 443.524 254.131 443.101 254.335 442.727C254.538 442.352 254.815 442.059 255.165 441.848C255.519 441.636 255.918 441.53 256.361 441.53ZM256.361 442.336C256.076 442.34 255.822 442.415 255.598 442.562C255.374 442.704 255.199 442.902 255.073 443.154C254.947 443.402 254.884 443.683 254.884 443.996C254.884 444.313 254.947 444.596 255.073 444.844C255.199 445.093 255.374 445.288 255.598 445.43C255.822 445.573 256.076 445.644 256.361 445.644C256.646 445.644 256.902 445.573 257.13 445.43C257.358 445.288 257.537 445.093 257.667 444.844C257.797 444.596 257.863 444.313 257.863 443.996C257.863 443.683 257.797 443.402 257.667 443.154C257.537 442.902 257.358 442.704 257.13 442.562C256.902 442.415 256.646 442.34 256.361 442.336ZM262.904 448.989H261.989V438.137H262.904V448.989ZM262.294 443.508H260.219V442.714H262.294V443.508ZM260.548 448.452H259.645V438.405H260.548V448.452ZM256.849 440.493H255.897V438.466H256.849V440.493ZM272.853 439.675C272.853 440.297 272.651 440.869 272.249 441.39C271.846 441.907 271.317 442.34 270.662 442.69C270.007 443.036 269.309 443.272 268.568 443.398L268.19 442.641C268.829 442.548 269.441 442.356 270.027 442.067C270.617 441.774 271.095 441.418 271.461 440.999C271.827 440.58 272.01 440.139 272.01 439.675V439.211H272.853V439.675ZM273.085 439.675C273.085 440.139 273.268 440.58 273.634 440.999C274 441.418 274.476 441.774 275.062 442.067C275.652 442.356 276.267 442.548 276.906 442.641L276.552 443.398C275.803 443.272 275.101 443.036 274.446 442.69C273.791 442.34 273.262 441.907 272.859 441.39C272.456 440.869 272.255 440.297 272.255 439.675V439.211H273.085V439.675ZM272.999 448.989H272.059V444.838H272.999V448.989ZM277.491 445.119H267.604V444.326H277.491V445.119ZM276.552 439.602H268.531V438.82H276.552V439.602ZM284.852 442.849H282.716V442.031H284.852V442.849ZM281.459 441.262C281.459 442.006 281.355 442.733 281.147 443.441C280.94 444.145 280.641 444.777 280.25 445.339C279.864 445.896 279.412 446.332 278.895 446.645L278.285 445.925C278.773 445.64 279.2 445.249 279.567 444.753C279.933 444.257 280.214 443.707 280.409 443.105C280.604 442.499 280.702 441.884 280.702 441.262V439.162H281.459V441.262ZM281.63 441.225C281.63 441.807 281.721 442.387 281.904 442.965C282.087 443.538 282.35 444.063 282.692 444.539C283.038 445.015 283.444 445.392 283.912 445.668L283.363 446.413C282.85 446.104 282.407 445.675 282.032 445.125C281.658 444.576 281.373 443.964 281.178 443.288C280.987 442.613 280.893 441.925 280.897 441.225V439.162H281.63V441.225ZM287.709 448.989H286.781V438.137H287.709V448.989ZM285.463 448.439H284.559V438.369H285.463V448.439ZM292.616 446.987H291.676V443.74H292.616V446.987ZM296.681 446.987H295.717V443.74H296.681V446.987ZM299.147 447.597H289.21V446.792H299.147V447.597ZM294.154 438.82C294.923 438.824 295.607 438.942 296.205 439.174C296.807 439.402 297.277 439.73 297.615 440.157C297.952 440.58 298.121 441.066 298.121 441.616C298.121 442.169 297.952 442.655 297.615 443.074C297.277 443.494 296.807 443.819 296.205 444.051C295.607 444.283 294.923 444.399 294.154 444.399C293.385 444.399 292.699 444.283 292.097 444.051C291.499 443.819 291.031 443.494 290.693 443.074C290.356 442.655 290.187 442.169 290.187 441.616C290.187 441.066 290.356 440.58 290.693 440.157C291.031 439.73 291.499 439.402 292.097 439.174C292.699 438.942 293.385 438.824 294.154 438.82ZM294.154 439.614C293.564 439.61 293.037 439.691 292.573 439.858C292.113 440.021 291.755 440.255 291.499 440.56C291.243 440.865 291.115 441.217 291.115 441.616C291.115 442.014 291.243 442.366 291.499 442.672C291.755 442.977 292.113 443.215 292.573 443.386C293.037 443.557 293.564 443.642 294.154 443.642C294.74 443.642 295.263 443.557 295.723 443.386C296.182 443.215 296.543 442.977 296.803 442.672C297.063 442.366 297.194 442.014 297.194 441.616C297.194 441.217 297.063 440.865 296.803 440.56C296.543 440.255 296.182 440.021 295.723 439.858C295.263 439.691 294.74 439.61 294.154 439.614ZM301.161 448.073C301.018 448.073 300.886 448.037 300.764 447.963C300.646 447.89 300.551 447.795 300.477 447.677C300.408 447.554 300.376 447.422 300.38 447.28C300.376 447.141 300.408 447.011 300.477 446.889C300.551 446.767 300.646 446.671 300.764 446.602C300.886 446.533 301.018 446.499 301.161 446.499C301.303 446.499 301.434 446.533 301.552 446.602C301.674 446.671 301.769 446.767 301.838 446.889C301.908 447.011 301.942 447.141 301.942 447.28C301.942 447.422 301.908 447.554 301.838 447.677C301.769 447.795 301.674 447.89 301.552 447.963C301.434 448.037 301.303 448.073 301.161 448.073ZM59.0588 461.945H56.2756V461.152H59.0588V461.945ZM59.4739 466.108H58.5095V458.149H59.4739V466.108ZM59.7791 468.757H52.5037V467.951H59.7791V468.757ZM53.468 468.342H52.5037V465.388H53.468V468.342ZM54.0784 460.383C54.0784 461.03 53.9502 461.642 53.6938 462.22C53.4375 462.794 53.0774 463.298 52.6135 463.734C52.1537 464.165 51.6248 464.493 51.0266 464.716L50.5261 463.935C51.0551 463.748 51.5291 463.473 51.9482 463.111C52.3674 462.749 52.6949 462.332 52.9309 461.86C53.1669 461.384 53.2849 460.891 53.2849 460.383V459.492H54.0784V460.383ZM54.2493 460.383C54.2493 460.847 54.3632 461.298 54.5911 461.738C54.8189 462.177 55.1343 462.568 55.5371 462.91C55.9399 463.251 56.4018 463.512 56.9226 463.691L56.4221 464.46C55.8403 464.248 55.3255 463.937 54.8779 463.526C54.4344 463.115 54.0885 462.639 53.8403 462.098C53.5921 461.557 53.468 460.985 53.468 460.383V459.492H54.2493V460.383ZM56.6785 459.821H50.8313V459.028H56.6785V459.821ZM71.2048 464.484H61.2683V463.691H71.2048V464.484ZM66.7859 466.706H65.8337V464.179H66.7859V466.706ZM69.9109 462.446H62.5623V458.674H69.9109V462.446ZM63.5022 461.677H68.9587V459.431H63.5022V461.677ZM70.094 468.757H62.5378V467.951H70.094V468.757ZM63.5022 468.232H62.5378V465.632H63.5022V468.232ZM80.4822 468.989H79.53V458.137H80.4822V468.989ZM82.24 463.361H80.238V462.556H82.24V463.361ZM77.6746 459.309C77.6705 460.362 77.4955 461.359 77.1497 462.299C76.8079 463.235 76.2667 464.1 75.5261 464.893C74.7856 465.683 73.8416 466.36 72.6941 466.926L72.157 466.169C73.162 465.668 74.0043 465.08 74.6838 464.405C75.3674 463.726 75.8781 462.973 76.2158 462.147C76.5576 461.321 76.7306 460.428 76.7346 459.467V459.309H77.6746ZM77.2229 460.114H72.6575V459.309H77.2229V460.114ZM91.322 459.15C91.322 459.809 91.1145 460.413 90.6995 460.963C90.2844 461.512 89.7412 461.968 89.0698 462.33C88.4025 462.688 87.6884 462.93 86.9275 463.056L86.5369 462.275C87.2001 462.181 87.8349 461.984 88.4412 461.683C89.0515 461.378 89.5439 461.005 89.9182 460.566C90.2926 460.122 90.4797 459.65 90.4797 459.15V458.527H91.322V459.15ZM91.4685 459.15C91.4685 459.642 91.6597 460.112 92.0422 460.56C92.4247 461.003 92.9191 461.378 93.5254 461.683C94.1317 461.984 94.7644 462.181 95.4236 462.275L95.033 463.056C94.2761 462.93 93.562 462.686 92.8906 462.324C92.2192 461.958 91.676 461.5 91.261 460.95C90.8459 460.401 90.6384 459.801 90.6384 459.15V458.527H91.4685V459.15ZM91.4197 468.989H90.4797V464.851H91.4197V468.989ZM95.9119 465.058H86.0242V464.252H95.9119V465.058ZM102.003 459.492C102.003 460.082 101.81 460.619 101.423 461.103C101.037 461.583 100.522 461.982 99.8792 462.299C99.2403 462.613 98.5445 462.824 97.7917 462.934L97.4377 462.177C98.0806 462.088 98.6869 461.913 99.2566 461.652C99.8263 461.392 100.284 461.075 100.63 460.7C100.976 460.326 101.149 459.923 101.149 459.492V459.162H102.003V459.492ZM102.394 459.492C102.394 459.923 102.569 460.326 102.919 460.7C103.269 461.075 103.728 461.392 104.298 461.652C104.872 461.913 105.482 462.088 106.129 462.177L105.751 462.934C105.002 462.824 104.306 462.613 103.663 462.299C103.02 461.982 102.506 461.583 102.119 461.103C101.733 460.619 101.539 460.082 101.539 459.492V459.162H102.394V459.492ZM105.836 459.467H97.7307V458.686H105.836V459.467ZM106.752 464.521H96.8152V463.728H106.752V464.521ZM102.333 466.743H101.381V464.216H102.333V466.743ZM105.641 468.757H98.0847V467.951H105.641V468.757ZM99.0491 468.256H98.0847V465.656H99.0491V468.256ZM111.183 458.93C111.744 458.93 112.247 459.038 112.69 459.254C113.134 459.469 113.48 459.77 113.728 460.157C113.976 460.544 114.1 460.985 114.1 461.481C114.1 461.978 113.976 462.419 113.728 462.806C113.48 463.192 113.134 463.494 112.69 463.709C112.247 463.925 111.744 464.033 111.183 464.033C110.617 464.033 110.111 463.925 109.663 463.709C109.22 463.494 108.874 463.192 108.625 462.806C108.377 462.419 108.253 461.978 108.253 461.481C108.253 460.985 108.377 460.544 108.625 460.157C108.874 459.77 109.22 459.469 109.663 459.254C110.111 459.038 110.617 458.93 111.183 458.93ZM111.183 459.772C110.8 459.772 110.459 459.844 110.157 459.986C109.856 460.128 109.62 460.332 109.449 460.596C109.279 460.857 109.193 461.152 109.193 461.481C109.193 461.815 109.279 462.11 109.449 462.366C109.62 462.623 109.856 462.824 110.157 462.971C110.459 463.117 110.8 463.19 111.183 463.19C111.561 463.19 111.901 463.117 112.202 462.971C112.507 462.824 112.743 462.623 112.91 462.366C113.077 462.11 113.16 461.815 113.16 461.481C113.16 461.152 113.077 460.857 112.91 460.596C112.743 460.332 112.507 460.128 112.202 459.986C111.901 459.844 111.561 459.772 111.183 459.772ZM116.53 469.013H115.577V458.137H116.53V469.013ZM107.692 465.803C109.047 465.807 110.314 465.786 111.494 465.742C112.674 465.697 113.795 465.595 114.857 465.437L114.93 466.145C114.165 466.287 113.37 466.393 112.544 466.462C111.718 466.527 110.945 466.57 110.225 466.59C109.508 466.61 108.709 466.621 107.826 466.621L107.692 465.803ZM129.896 461.762H127.418V460.969H129.896V461.762ZM130.568 464.606H129.603V458.137H130.568V464.606ZM126.967 464.948C127.715 464.948 128.362 465.028 128.907 465.186C129.453 465.345 129.872 465.575 130.165 465.876C130.458 466.177 130.604 466.539 130.604 466.962C130.604 467.386 130.458 467.748 130.165 468.049C129.872 468.35 129.453 468.58 128.907 468.739C128.362 468.901 127.715 468.985 126.967 468.989C126.214 468.985 125.565 468.901 125.02 468.739C124.478 468.58 124.061 468.35 123.768 468.049C123.475 467.748 123.329 467.386 123.329 466.962C123.329 466.539 123.475 466.177 123.768 465.876C124.061 465.575 124.48 465.345 125.026 465.186C125.571 465.028 126.218 464.948 126.967 464.948ZM126.967 465.693C126.413 465.693 125.935 465.744 125.532 465.845C125.129 465.947 124.82 466.094 124.604 466.285C124.389 466.476 124.281 466.702 124.281 466.962C124.281 467.223 124.389 467.447 124.604 467.634C124.82 467.821 125.129 467.965 125.532 468.067C125.935 468.169 126.413 468.22 126.967 468.22C127.516 468.22 127.992 468.169 128.395 468.067C128.802 467.965 129.113 467.821 129.329 467.634C129.544 467.447 129.652 467.223 129.652 466.962C129.652 466.702 129.544 466.476 129.329 466.285C129.113 466.094 128.802 465.947 128.395 465.845C127.992 465.744 127.516 465.693 126.967 465.693ZM125.172 460.139C125.172 460.79 125.044 461.406 124.788 461.988C124.531 462.57 124.171 463.079 123.707 463.514C123.247 463.949 122.719 464.281 122.12 464.509L121.62 463.74C122.153 463.549 122.627 463.268 123.042 462.897C123.461 462.523 123.789 462.098 124.025 461.622C124.261 461.142 124.379 460.647 124.379 460.139V459.235H125.172V460.139ZM125.343 460.126C125.343 460.594 125.455 461.048 125.679 461.488C125.903 461.923 126.218 462.312 126.625 462.653C127.032 462.995 127.496 463.256 128.016 463.435L127.516 464.204C126.934 463.992 126.419 463.681 125.972 463.27C125.528 462.859 125.182 462.383 124.934 461.842C124.686 461.296 124.562 460.725 124.562 460.126V459.235H125.343V460.126ZM127.772 459.736H121.925V458.93H127.772V459.736ZM142.311 467.597H132.374V466.804H142.311V467.597ZM137.782 467.048H136.842V464.179H137.782V467.048ZM134.51 460.871H140.15V458.906H141.09V464.46H133.546V458.906H134.51V460.871ZM140.15 463.679V461.652H134.51V463.679H140.15ZM153.102 463.935H143.165V463.178H153.102V463.935ZM151.857 467.109H145.338V468.403H144.374V466.45H150.905V465.522H144.362V464.802H151.857V467.109ZM152.211 468.842H144.374V468.146H152.211V468.842ZM151.82 460.712H145.411V461.909H144.459V460.053H150.856V459.162H144.423V458.466H151.82V460.712ZM152.015 462.36H144.459V461.665H152.015V462.36ZM166.078 466.169H165.126V458.149H166.078V466.169ZM166.42 468.757H159.071V467.951H166.42V468.757ZM160.023 468.366H159.071V465.424H160.023V468.366ZM160.902 460.676C160.898 461.315 160.766 461.915 160.505 462.476C160.249 463.034 159.889 463.518 159.425 463.929C158.961 464.336 158.428 464.643 157.826 464.851L157.338 464.094C157.879 463.919 158.359 463.66 158.778 463.319C159.201 462.973 159.529 462.572 159.761 462.116C159.993 461.656 160.109 461.176 160.109 460.676V460.212H160.902V460.676ZM161.061 460.676C161.061 461.148 161.179 461.597 161.415 462.025C161.651 462.452 161.98 462.828 162.404 463.154C162.827 463.479 163.307 463.723 163.844 463.886L163.368 464.655C162.758 464.456 162.218 464.163 161.75 463.776C161.283 463.386 160.918 462.924 160.658 462.391C160.402 461.858 160.275 461.286 160.28 460.676V460.212H161.061V460.676ZM163.551 460.383H157.606V459.614H163.551V460.383ZM161.073 459.992H160.109V458.198H161.073V459.992ZM176.576 461.359H173.768V460.566H176.576V461.359ZM171.51 459.809C171.51 460.403 171.38 460.973 171.119 461.518C170.859 462.063 170.497 462.541 170.033 462.952C169.569 463.359 169.04 463.667 168.446 463.874L167.97 463.117C168.495 462.934 168.965 462.672 169.38 462.33C169.799 461.984 170.127 461.593 170.363 461.158C170.599 460.719 170.717 460.269 170.717 459.809V459.064H171.51V459.809ZM171.681 459.821C171.681 460.244 171.793 460.657 172.017 461.06C172.24 461.463 172.554 461.823 172.957 462.141C173.363 462.454 173.825 462.694 174.342 462.861L173.866 463.618C173.276 463.426 172.755 463.142 172.303 462.763C171.856 462.381 171.508 461.937 171.26 461.433C171.012 460.924 170.887 460.387 170.887 459.821V459.064H171.681V459.821ZM174.11 459.504H168.263V458.71H174.11V459.504ZM176.906 463.752H175.953V458.137H176.906V463.752ZM176.906 466.889H170.851V468.598H169.899V466.157H175.953V465.07H169.874V464.289H176.906V466.889ZM177.321 468.867H169.899V468.098H177.321V468.867ZM187.123 468.989H186.171V458.137H187.123V468.989ZM188.942 463.41H186.903V462.617H188.942V463.41ZM185.121 460.676H178.663V459.882H185.121V460.676ZM181.947 461.579C182.452 461.579 182.905 461.685 183.308 461.896C183.711 462.108 184.026 462.403 184.254 462.781C184.486 463.16 184.604 463.589 184.608 464.069C184.604 464.554 184.486 464.985 184.254 465.363C184.026 465.738 183.711 466.031 183.308 466.242C182.905 466.454 182.452 466.56 181.947 466.56C181.438 466.56 180.981 466.454 180.574 466.242C180.171 466.031 179.856 465.738 179.628 465.363C179.4 464.985 179.286 464.554 179.286 464.069C179.286 463.589 179.4 463.16 179.628 462.781C179.856 462.403 180.171 462.108 180.574 461.896C180.981 461.685 181.438 461.579 181.947 461.579ZM181.947 462.385C181.613 462.385 181.314 462.456 181.05 462.598C180.785 462.741 180.578 462.942 180.427 463.203C180.277 463.459 180.201 463.748 180.201 464.069C180.201 464.395 180.277 464.684 180.427 464.936C180.578 465.188 180.785 465.388 181.05 465.534C181.314 465.677 181.613 465.746 181.947 465.742C182.277 465.746 182.574 465.677 182.838 465.534C183.107 465.388 183.314 465.188 183.461 464.936C183.611 464.684 183.689 464.395 183.693 464.069C183.689 463.748 183.611 463.459 183.461 463.203C183.314 462.942 183.107 462.741 182.838 462.598C182.574 462.456 182.277 462.385 181.947 462.385ZM182.411 460.249H181.459V458.271H182.411V460.249ZM198.817 468.989H197.902V458.137H198.817V468.989ZM195.9 463.374H193.116V462.592H195.9V463.374ZM196.534 468.439H195.619V458.43H196.534V468.439ZM194.215 459.528C194.211 460.497 194.067 461.412 193.782 462.275C193.501 463.138 193.055 463.941 192.445 464.686C191.835 465.43 191.053 466.083 190.101 466.645L189.54 465.949C190.382 465.449 191.082 464.875 191.639 464.228C192.201 463.577 192.614 462.873 192.878 462.116C193.147 461.359 193.283 460.554 193.287 459.699V459.528H194.215ZM193.654 460.322H190.004V459.528H193.654V460.322ZM211.952 466.145H211V458.137H211.952V466.145ZM213.588 462.25H211.647V461.445H213.588V462.25ZM212.452 468.757H205.165V467.951H212.452V468.757ZM206.105 468.269H205.165V465.314H206.105V468.269ZM206.52 458.906C207.057 458.906 207.543 459.02 207.979 459.248C208.414 459.475 208.754 459.793 208.998 460.2C209.246 460.603 209.372 461.062 209.376 461.579C209.372 462.096 209.246 462.558 208.998 462.965C208.754 463.367 208.414 463.683 207.979 463.911C207.543 464.139 207.057 464.252 206.52 464.252C205.987 464.252 205.503 464.139 205.067 463.911C204.636 463.683 204.296 463.365 204.048 462.958C203.8 462.552 203.676 462.092 203.676 461.579C203.676 461.062 203.8 460.603 204.048 460.2C204.296 459.793 204.636 459.475 205.067 459.248C205.498 459.02 205.983 458.906 206.52 458.906ZM206.52 459.748C206.166 459.748 205.842 459.825 205.549 459.98C205.26 460.135 205.033 460.352 204.866 460.633C204.699 460.914 204.615 461.229 204.615 461.579C204.615 461.929 204.699 462.242 204.866 462.519C205.033 462.796 205.26 463.013 205.549 463.172C205.842 463.331 206.166 463.41 206.52 463.41C206.882 463.41 207.207 463.331 207.496 463.172C207.789 463.013 208.019 462.796 208.186 462.519C208.353 462.242 208.436 461.929 208.436 461.579C208.436 461.225 208.353 460.91 208.186 460.633C208.019 460.352 207.789 460.135 207.496 459.98C207.207 459.825 206.882 459.748 206.52 459.748ZM223.536 468.989H222.596V458.137H223.536V468.989ZM222.877 463.374H220.753V462.556H222.877V463.374ZM221.034 468.427H220.131V458.381H221.034V468.427ZM215.773 465.717H214.821V459.467H215.773V465.717ZM215.492 465.327C216.139 465.331 216.772 465.308 217.39 465.26C218.013 465.207 218.658 465.111 219.325 464.973L219.447 465.827C218.731 465.957 218.053 466.049 217.415 466.102C216.78 466.155 216.139 466.181 215.492 466.181H214.821V465.327H215.492ZM230.494 460.798H225.05V460.017H230.494V460.798ZM227.772 461.53C228.224 461.53 228.627 461.636 228.981 461.848C229.339 462.059 229.618 462.352 229.817 462.727C230.02 463.097 230.124 463.52 230.128 463.996C230.124 464.476 230.02 464.903 229.817 465.278C229.618 465.652 229.339 465.947 228.981 466.163C228.627 466.378 228.224 466.486 227.772 466.486C227.329 466.486 226.928 466.378 226.57 466.163C226.216 465.947 225.939 465.652 225.74 465.278C225.54 464.903 225.441 464.476 225.441 463.996C225.441 463.524 225.542 463.101 225.746 462.727C225.949 462.352 226.226 462.059 226.576 461.848C226.93 461.636 227.329 461.53 227.772 461.53ZM227.772 462.336C227.487 462.34 227.233 462.415 227.009 462.562C226.785 462.704 226.611 462.902 226.484 463.154C226.358 463.402 226.295 463.683 226.295 463.996C226.295 464.313 226.358 464.596 226.484 464.844C226.611 465.093 226.785 465.288 227.009 465.43C227.233 465.573 227.487 465.644 227.772 465.644C228.057 465.644 228.313 465.573 228.541 465.43C228.769 465.288 228.948 465.093 229.078 464.844C229.209 464.596 229.274 464.313 229.274 463.996C229.274 463.683 229.209 463.402 229.078 463.154C228.948 462.902 228.769 462.704 228.541 462.562C228.313 462.415 228.057 462.34 227.772 462.336ZM234.315 468.989H233.4V458.137H234.315V468.989ZM233.705 463.508H231.63V462.714H233.705V463.508ZM231.959 468.452H231.056V458.405H231.959V468.452ZM228.26 460.493H227.308V458.466H228.26V460.493ZM247.78 464.155H240.284V463.361H247.78V464.155ZM248.951 467.512H239.015V466.706H248.951V467.512ZM247.67 459.943H241.237V463.715H240.284V459.15H247.67V459.943ZM251.246 462.666C252.369 462.666 253.315 462.645 254.084 462.604C254.858 462.56 255.653 462.474 256.471 462.348L256.556 463.093C255.722 463.227 254.913 463.319 254.127 463.367C253.342 463.412 252.382 463.435 251.246 463.435H250.367V462.666H251.246ZM255.348 461.323H251.32V463.032H250.367V460.615H254.408V459.418H250.331V458.674H255.348V461.323ZM258.778 466.889H252.699V468.452H251.747V466.169H257.802V465.095H251.722V464.338H258.778V466.889ZM259.169 468.867H251.747V468.098H259.169V468.867ZM258.778 463.862H257.826V458.137H258.778V463.862ZM269.911 468.989H268.995V458.137H269.911V468.989ZM266.993 463.374H264.21V462.592H266.993V463.374ZM267.628 468.439H266.713V458.43H267.628V468.439ZM265.309 459.528C265.305 460.497 265.16 461.412 264.875 462.275C264.595 463.138 264.149 463.941 263.539 464.686C262.928 465.43 262.147 466.083 261.195 466.645L260.634 465.949C261.476 465.449 262.176 464.875 262.733 464.228C263.295 463.577 263.708 462.873 263.972 462.116C264.241 461.359 264.377 460.554 264.381 459.699V459.528H265.309ZM264.747 460.322H261.097V459.528H264.747V460.322ZM274.83 466.987H273.89V463.74H274.83V466.987ZM278.895 466.987H277.931V463.74H278.895V466.987ZM281.361 467.597H271.425V466.792H281.361V467.597ZM276.368 458.82C277.137 458.824 277.821 458.942 278.419 459.174C279.021 459.402 279.491 459.73 279.829 460.157C280.167 460.58 280.336 461.066 280.336 461.616C280.336 462.169 280.167 462.655 279.829 463.074C279.491 463.494 279.021 463.819 278.419 464.051C277.821 464.283 277.137 464.399 276.368 464.399C275.599 464.399 274.914 464.283 274.312 464.051C273.713 463.819 273.245 463.494 272.908 463.074C272.57 462.655 272.401 462.169 272.401 461.616C272.401 461.066 272.57 460.58 272.908 460.157C273.245 459.73 273.713 459.402 274.312 459.174C274.914 458.942 275.599 458.824 276.368 458.82ZM276.368 459.614C275.778 459.61 275.251 459.691 274.788 459.858C274.328 460.021 273.97 460.255 273.713 460.56C273.457 460.865 273.329 461.217 273.329 461.616C273.329 462.014 273.457 462.366 273.713 462.672C273.97 462.977 274.328 463.215 274.788 463.386C275.251 463.557 275.778 463.642 276.368 463.642C276.954 463.642 277.477 463.557 277.937 463.386C278.397 463.215 278.757 462.977 279.017 462.672C279.278 462.366 279.408 462.014 279.408 461.616C279.408 461.217 279.278 460.865 279.017 460.56C278.757 460.255 278.397 460.021 277.937 459.858C277.477 459.691 276.954 459.61 276.368 459.614ZM283.375 468.073C283.233 468.073 283.101 468.037 282.979 467.963C282.861 467.89 282.765 467.795 282.692 467.677C282.622 467.554 282.59 467.422 282.594 467.28C282.59 467.141 282.622 467.011 282.692 466.889C282.765 466.767 282.861 466.671 282.979 466.602C283.101 466.533 283.233 466.499 283.375 466.499C283.518 466.499 283.648 466.533 283.766 466.602C283.888 466.671 283.984 466.767 284.053 466.889C284.122 467.011 284.156 467.141 284.156 467.28C284.156 467.422 284.122 467.554 284.053 467.677C283.984 467.795 283.888 467.89 283.766 467.963C283.648 468.037 283.518 468.073 283.375 468.073Z" fill="#626262"/>
<defs>
<clipPath id="clip0_424_1421">
<rect width="335" height="293" fill="white"/>
</clipPath>
</defs>
</svg>
