<svg width="375" height="812" viewBox="0 0 375 812" fill="none" xmlns="http://www.w3.org/2000/svg">
<rect width="375" height="812" fill="#FAFBFC"/>
<g clip-path="url(#clip0_18_818)">
<path d="M250.336 180.431C243.664 172.275 234.448 166.686 224.22 164.594C214.208 162.513 201.965 162.323 192.86 167.565C192.723 167.642 192.604 167.75 192.512 167.88C192.421 168.01 192.359 168.16 192.332 168.317C171.445 177.657 156.782 214.852 177.564 241.993C179.078 241.439 180.416 241.224 182.052 240.687C180.803 237.036 181.082 233.172 179.765 229.538C178.707 226.621 178.008 223.543 178.374 221.95C178.658 220.715 181.436 221.128 182.493 221.807C184.895 223.349 185.438 227.428 186.258 230.576C186.224 229.717 187.754 228.62 188.617 228.608C189.045 228.63 189.461 228.753 189.834 228.967C190.207 229.181 190.525 229.481 190.765 229.842C191.216 230.328 191.558 230.908 191.767 231.542C191.731 231.177 191.804 230.81 191.977 230.488C192.149 230.166 192.413 229.904 192.734 229.736C193.116 229.471 193.566 229.324 194.029 229.315C194.492 229.305 194.947 229.433 195.339 229.682C196.464 230.17 196.642 230.328 197.504 231.651C197.382 230.435 198.067 230.417 199.264 230.578C200.396 230.787 201.404 231.434 202.076 232.384C206.484 237.672 204.694 251.297 202.217 257.58C211.59 259.507 221.323 258.366 230.02 254.322C238.717 250.278 245.932 243.538 250.631 235.069C260 218.685 262.74 196.003 250.336 180.431ZM235.958 189.01C234.192 192.855 231.275 195.954 228.706 199.283C211.844 221.131 216.481 226.674 211.39 230.063C211.036 230.275 210.623 230.362 210.216 230.311C209.808 230.259 209.429 230.071 209.137 229.777C199.571 218.011 192.347 211.598 190.553 208.707C190.435 208.495 190.389 208.249 190.421 208.007C190.453 207.765 190.563 207.541 190.733 207.368C190.902 207.196 191.123 207.084 191.361 207.051C191.598 207.018 191.84 207.066 192.049 207.186C196.341 209.575 207.243 221.835 210.44 225.583C211.397 223.441 211.92 214.768 226.453 196.127C228.713 192.888 231.435 190.011 234.531 187.59C235.468 186.931 236.344 188.162 235.958 189.004V189.01Z" fill="#38A1FF"/>
<path d="M130.049 282.314C129.205 281.731 127.977 281.761 127.829 283.208C127.681 284.654 129.641 286.419 130.751 285.498C131.861 284.577 130.893 282.895 130.049 282.314Z" fill="#191919"/>
<path d="M184.375 232.903C183.887 229.967 183.55 225.044 180.785 223.328C180.381 223.077 179.699 223.399 179.853 223.93C180.307 225.519 181.185 226.921 181.629 228.529C182.656 233.04 183.386 237.615 183.812 242.225C181.964 241.845 180.044 242.181 178.428 243.168C176.812 244.154 175.618 245.72 175.08 247.557C174.908 248.47 174.944 249.411 175.185 250.307C175.426 251.204 175.865 252.033 176.469 252.73C178.093 255.014 179.9 257.157 181.873 259.137C182.169 259.424 182.78 259.123 182.524 258.708C179.15 253.213 176.604 251.743 176.434 249.115C176.415 248.182 176.652 247.262 177.12 246.459C177.587 245.656 178.266 245.003 179.08 244.571C180.644 243.691 182.213 243.891 183.866 243.551C183.884 244.32 183.878 245.09 183.849 245.86C183.847 245.972 183.887 246.081 183.961 246.164C184.035 246.247 184.137 246.298 184.247 246.307C184.357 246.316 184.467 246.282 184.553 246.212C184.639 246.142 184.696 246.041 184.711 245.93C185.372 241.603 185.258 237.189 184.375 232.903Z" fill="#191919"/>
<path d="M187.685 233.815C187.743 233.627 187.855 233.462 188.006 233.339C188.158 233.217 188.342 233.143 188.535 233.127C188.728 233.112 188.921 233.156 189.089 233.253C189.258 233.35 189.394 233.496 189.48 233.672C190.133 234.998 190.697 236.367 191.169 237.77C191.587 239.275 191.465 241.382 192.471 242.603C192.53 242.675 192.605 242.732 192.69 242.77C192.775 242.807 192.867 242.824 192.96 242.819C193.052 242.814 193.142 242.787 193.222 242.74C193.302 242.693 193.37 242.627 193.421 242.549C194.266 241.23 193.707 239.272 193.316 237.883C192.852 236.201 192.159 234.593 191.257 233.106C190.655 232.123 189.814 231.017 188.528 231.15C187.98 231.256 187.488 231.562 187.144 232.01C186.801 232.458 186.63 233.018 186.663 233.585C186.641 234.157 187.617 234.458 187.685 233.815Z" fill="#191919"/>
<path d="M193.651 233.514C196.13 231.095 196.759 236.95 196.941 238.238C197.573 242.765 197.089 243.126 197.909 244.162C197.962 244.225 198.028 244.274 198.103 244.307C198.177 244.34 198.258 244.356 198.34 244.352C198.421 244.349 198.5 244.326 198.572 244.287C198.644 244.248 198.706 244.193 198.754 244.126C199.661 242.886 199.158 240.834 199.001 239.384C198.875 237.535 198.532 235.709 197.98 233.943C197.142 231.633 194.522 230.414 192.859 232.763C192.498 233.267 193.192 233.966 193.651 233.514Z" fill="#191919"/>
<path d="M199.264 234.245C201.336 234.634 201.301 238.11 201.43 239.721C201.725 243.592 201.428 247.486 200.549 251.264C199.925 252.962 199.527 254.738 199.365 256.544C199.384 257.027 199.964 257.51 200.386 257.079C201.987 255.451 202.377 252.767 202.815 250.584C203.318 248.021 203.542 245.411 203.484 242.798C203.426 239.788 203.621 232.771 199.207 233.064C198.507 233.111 198.684 234.136 199.264 234.245Z" fill="#191919"/>
<path d="M184.429 327.93C184.537 328.022 184.519 328.003 184.429 327.93Z" fill="#191919"/>
<path d="M83.5002 395.72C85.6536 383.853 87.2564 371.64 85.507 359.624C85.3812 358.765 84.0122 358.98 84.027 359.821C84.4992 384.494 79.7025 400.95 75.3853 422.128C74.8466 424.778 73.744 427.838 73.8195 430.556C73.895 433.237 76.3355 432.743 76.4938 431.289L76.6892 429.465C76.4983 428.111 81.3142 407.763 83.5002 395.72Z" fill="#191919"/>
<path d="M209.84 311.912C208.461 297.633 207.052 282.965 202.96 269.196C202.535 267.765 200.318 268.121 200.654 269.648C203.057 281.165 204.872 292.801 206.093 304.509C207.462 316.303 208.628 328.275 207.237 340.122C206.041 350.287 203.294 361.293 194.442 367.287C187.069 372.281 177.866 375.357 169.417 373.068C158.382 370.078 155.549 366.964 147.454 359.145C147.342 359.019 147.187 358.942 147.02 358.93C146.854 358.918 146.689 358.972 146.561 359.082C146.433 359.191 146.352 359.346 146.335 359.515C146.317 359.684 146.365 359.853 146.468 359.987C151.256 366.67 156.64 371.425 162.729 373.983C163.049 378.159 163.607 382.312 164.401 386.422C169.069 419.389 166.589 423.468 168.026 431.93C168.152 432.665 169.26 432.594 169.435 431.93C170.678 427.209 170.274 422.017 170.086 417.181C169.547 403.335 167.022 382.808 164.823 374.767C172.655 377.381 181.537 376.582 191.539 372.12C201.918 367.488 206.131 359.495 208.609 348.89C211.436 336.787 211.032 324.244 209.84 311.912Z" fill="#191919"/>
<path d="M316.349 159.278C315.051 155.43 312.071 150.941 308.235 149.901C305.577 149.366 302.882 149.043 300.175 148.935C263.217 145.119 236.338 146.939 206.655 147.038C206.481 147.033 206.308 147.083 206.163 147.181C174.094 148.181 147.09 146.177 112.332 151.583C109.693 151.994 107.004 152.1 104.8 153.928C101.259 156.875 99.5804 161.498 98.9055 166.15C96.3392 183.814 97.3041 225.941 98.3771 245.966C98.8788 255.335 99.1171 267.026 106.138 273.079C104.747 274.443 103.838 276.236 103.551 278.179C101.985 287.146 107.041 291.441 109.887 297.99C111.11 300.175 113.125 301.787 115.501 302.482C115.758 304.881 115.413 307.307 114.497 309.533C99.8542 311.038 91.174 315.193 79.4213 323.045C73.3694 326.881 67.6577 331.246 62.351 336.09C52.6022 345.432 46.546 357.889 49.0117 371.703C51.6846 386.682 63.2005 399.863 76.0069 407.155C77.1702 407.817 78.0182 406.165 77.0281 405.383C71.931 401.361 66.717 397.616 62.351 392.731C51.3842 380.459 48.8386 366.624 52.1789 355.812C56.2016 342.795 67.2172 334.102 78.3128 326.57C84.0881 322.342 90.3096 318.782 96.8616 315.958C109.547 311.025 123.419 310.69 136.793 311.894C144.695 312.608 153.531 315.401 161.114 317.854C168.63 320.286 181.74 328.502 184.52 328.824C184.52 328.824 187.236 329.536 185.629 327.608C184.418 326.154 180.473 324.011 175.439 321.63C175.597 321.58 175.74 321.489 175.854 321.367C175.968 321.245 176.049 321.095 176.09 320.932C176.381 318.448 176.398 315.94 176.144 313.452C175.768 287.82 181.213 270.35 182.814 262.449C182.84 262.347 182.836 262.24 182.802 262.141C182.767 262.042 182.704 261.956 182.62 261.894C185.611 262.055 188.622 261.894 191.613 262.001C194.534 262.107 197.738 262.884 200.623 262.452C200.768 262.421 200.9 262.342 200.998 262.229C201.096 262.115 201.156 261.972 201.168 261.821C201.18 261.67 201.144 261.52 201.065 261.392C200.986 261.263 200.868 261.165 200.729 261.11C197.935 259.952 194.324 260.196 191.349 260.143C188.194 259.984 185.03 260.176 181.916 260.715C181.79 260.744 181.678 260.816 181.597 260.918C181.517 261.021 181.473 261.148 181.473 261.279C181.473 261.41 181.517 261.537 181.597 261.64C181.678 261.742 181.79 261.814 181.916 261.843C180.498 262.667 173.748 287.879 174.138 314.6C174.156 315.901 174.063 319.889 174.754 321.293C164.582 316.533 150.116 311.193 142.249 310.234C138.253 309.747 134.189 309.375 130.123 309.181C129.391 307.161 129.067 305.01 129.173 302.86C131.303 303.161 133.573 302.876 134.664 301.016C136.459 297.955 134.266 294.108 134.101 290.904C134.097 290.772 134.047 290.645 133.959 290.547C133.872 290.449 133.753 290.386 133.624 290.369C133.495 290.352 133.364 290.382 133.254 290.454C133.145 290.525 133.064 290.634 133.027 290.761C131.961 293.46 133.962 296.113 133.52 298.851C132.889 302.753 128.683 299.878 126.358 300.783C126.217 300.827 126.094 300.917 126.006 301.037C125.919 301.158 125.872 301.304 125.872 301.454C125.872 301.604 125.919 301.75 126.006 301.871C126.094 301.992 126.217 302.081 126.358 302.125C126.922 302.335 127.497 302.508 128.082 302.645C127.825 304.13 127.825 305.65 128.082 307.136C128.172 307.794 128.295 308.447 128.452 309.092C124.485 308.954 120.513 309.031 116.554 309.324C116.733 308.606 116.862 307.876 116.942 307.14C117.148 305.714 117.118 304.263 116.853 302.846C118.097 303.193 119.385 303.346 120.673 303.298C124.509 303.06 126.741 298.376 125.073 294.816C127.208 294.816 129.09 292.385 127.518 290.913C127.439 290.838 127.341 290.788 127.235 290.768C127.129 290.749 127.019 290.76 126.919 290.802C126.819 290.843 126.733 290.913 126.671 291.002C126.609 291.092 126.573 291.198 126.568 291.307C126.093 295.354 121.637 291.13 121.113 289.142C120.58 287.121 122.571 284.457 124.739 286.153C125.266 286.565 125.81 285.599 125.671 285.044C125.492 284.329 125.355 283.594 125.161 282.878C125.484 282.612 125.784 282.319 126.058 282.002C127.566 281.188 128.998 280.236 130.335 279.156C131.635 282.663 133.771 285.787 136.551 288.248C136.181 288.488 135.765 288.643 135.331 288.705C134.897 288.767 134.455 288.732 134.035 288.605C133.822 288.545 133.595 288.573 133.404 288.683C133.212 288.794 133.071 288.977 133.012 289.193C132.953 289.409 132.981 289.64 133.09 289.835C133.198 290.03 133.378 290.173 133.591 290.233C134.437 290.475 135.333 290.473 136.179 290.227C137.024 289.98 137.785 289.499 138.377 288.838C138.53 288.68 138.615 288.468 138.615 288.247C138.615 288.026 138.53 287.814 138.377 287.656C133.197 283.211 131.788 278.551 131.249 278.325C131.426 278.164 131.602 277.985 131.778 277.824C139.997 278.197 148.231 278.054 156.433 277.395C162.824 276.855 169.149 277.672 175.862 277.556C175.985 277.073 176.09 276.572 176.215 276.071C169.851 276.071 166.2 275.755 160.287 275.57C155.288 275.419 153.352 276.614 133.361 276.107C137.618 270.84 137.741 264.519 135.315 260.876C134.4 259.411 133.069 258.263 131.497 257.585C129.926 256.907 128.188 256.732 126.516 257.082C123.188 257.985 121.348 261.221 119.688 264.005C116.378 269.56 115.379 269.41 110.43 270.752C109.433 271.011 108.479 271.416 107.598 271.956C102.654 268.007 101.432 261.451 100.769 254.95C99.2237 239.787 98.5488 193.957 99.9415 174.507C100.237 170.321 100.334 165.477 101.913 161.551C102.828 158.876 104.53 156.552 106.788 154.894C107.802 154.271 108.247 154.149 116.01 153.015C146.129 148.614 172.937 150.029 201.486 149.365C241.067 148.444 269.68 147.509 304.772 151.513C307.482 151.821 309.421 152.208 311.371 154.411C314.157 157.557 315.141 161.39 315.842 165.56C318.802 183.169 320.315 236.16 319.344 252.248C319.036 257.349 318.249 263.197 315.261 267.352C313.217 270.195 310.035 270.737 306.955 271.235C294.72 273.217 243.096 273.735 217.695 274.847C216.767 274.888 215.436 275.02 207.699 275.148C207.768 275.525 207.717 276.169 207.786 276.527C207.934 276.527 284.894 274.996 294.724 274.452C298.032 274.266 301.359 274.044 304.667 273.645C307.708 273.496 310.699 272.8 313.501 271.587C316.867 269.824 318.66 265.879 319.766 262.192C321.407 256.718 321.5 250.775 321.542 245.048C321.645 230.885 320.833 172.586 316.349 159.278Z" fill="#191919"/>
</g>
<path d="M96.4722 506.223H85.8032V496.458H96.4722V506.223ZM88.8916 503.745H93.4082V498.936H88.8916V503.745ZM102.771 507.48H99.6582V495.005H102.771V507.48ZM105.774 502.402H101.892V499.851H105.774V502.402ZM96.521 510.203C96.521 511.375 96.1995 512.445 95.5566 513.413C94.9137 514.373 93.9697 515.179 92.7246 515.83C91.4876 516.489 89.9984 516.929 88.2568 517.148L87.1216 514.792C88.6027 514.605 89.8519 514.28 90.8691 513.816C91.8945 513.344 92.6554 512.799 93.1519 512.18C93.6564 511.554 93.9087 510.894 93.9087 510.203V509.653H96.521V510.203ZM97.2412 510.203C97.2331 510.87 97.4854 511.517 97.998 512.144C98.5107 512.77 99.2757 513.328 100.293 513.816C101.318 514.296 102.559 514.63 104.016 514.817L102.917 517.197C101.168 516.969 99.6623 516.518 98.4009 515.842C97.1476 515.175 96.1914 514.357 95.5322 513.389C94.8812 512.412 94.5597 511.35 94.5679 510.203V509.653H97.2412V510.203ZM103.052 510.996H88.0737V508.518H103.052V510.996ZM118.396 510.972H115.308V507.676H118.396V510.972ZM127.026 508.164H106.763V505.71H127.026V508.164ZM118.396 498.276H115.308V495.029H118.396V498.276ZM117.847 498.875C117.847 499.989 117.485 500.97 116.76 501.816C116.044 502.663 114.986 503.35 113.586 503.879C112.187 504.4 110.49 504.73 108.496 504.868L107.593 502.573C109.31 502.467 110.73 502.231 111.853 501.865C112.984 501.499 113.81 501.06 114.331 500.547C114.852 500.034 115.112 499.477 115.112 498.875V498.447H117.847V498.875ZM118.604 498.875C118.595 499.477 118.856 500.034 119.385 500.547C119.914 501.06 120.74 501.499 121.863 501.865C122.994 502.231 124.41 502.467 126.111 502.573L125.22 504.868C123.218 504.73 121.517 504.4 120.117 503.879C118.726 503.35 117.668 502.663 116.943 501.816C116.219 500.97 115.861 499.989 115.869 498.875V498.447H118.604V498.875ZM125.061 499.375H108.704V496.934H125.061V499.375ZM124.597 517.002H109.106V509.885H124.597V517.002ZM112.17 514.5H121.545V512.339H112.17V514.5ZM145.166 502.402H141.003V499.9H145.166V502.402ZM145.081 506.833H140.955V504.343H145.081V506.833ZM140.747 499.546H128.406V497.08H140.747V499.546ZM134.705 500.291C135.714 500.291 136.617 500.465 137.415 500.815C138.212 501.165 138.835 501.658 139.282 502.292C139.738 502.919 139.966 503.635 139.966 504.441C139.966 505.263 139.738 505.987 139.282 506.614C138.835 507.232 138.212 507.721 137.415 508.079C136.617 508.429 135.714 508.604 134.705 508.604C133.687 508.604 132.784 508.429 131.995 508.079C131.205 507.721 130.591 507.232 130.151 506.614C129.712 505.987 129.496 505.263 129.504 504.441C129.496 503.635 129.712 502.919 130.151 502.292C130.591 501.658 131.205 501.165 131.995 500.815C132.784 500.465 133.687 500.291 134.705 500.291ZM134.705 502.598C134.233 502.606 133.826 502.683 133.484 502.83C133.142 502.968 132.874 503.175 132.678 503.452C132.491 503.729 132.397 504.058 132.397 504.441C132.397 504.84 132.491 505.177 132.678 505.454C132.874 505.723 133.142 505.93 133.484 506.077C133.826 506.215 134.233 506.284 134.705 506.284C135.177 506.284 135.588 506.215 135.938 506.077C136.296 505.93 136.572 505.723 136.768 505.454C136.971 505.177 137.073 504.84 137.073 504.441C137.073 504.058 136.971 503.729 136.768 503.452C136.572 503.175 136.296 502.968 135.938 502.83C135.579 502.683 135.168 502.606 134.705 502.598ZM136.292 498.777H133.179V494.834H136.292V498.777ZM147.083 509.189H143.982V495.005H147.083V509.189ZM139.539 509.446C141.109 509.446 142.468 509.6 143.616 509.91C144.771 510.219 145.658 510.671 146.277 511.265C146.895 511.851 147.205 512.546 147.205 513.352C147.205 514.158 146.895 514.854 146.277 515.439C145.658 516.025 144.771 516.473 143.616 516.782C142.468 517.091 141.109 517.246 139.539 517.246C137.968 517.246 136.605 517.091 135.449 516.782C134.302 516.473 133.419 516.025 132.8 515.439C132.182 514.854 131.873 514.158 131.873 513.352C131.873 512.546 132.182 511.851 132.8 511.265C133.419 510.671 134.302 510.219 135.449 509.91C136.605 509.6 137.968 509.446 139.539 509.446ZM139.539 511.814C138.578 511.814 137.773 511.871 137.122 511.985C136.479 512.091 135.986 512.262 135.645 512.498C135.311 512.725 135.144 513.01 135.144 513.352C135.144 513.694 135.311 513.979 135.645 514.207C135.986 514.434 136.483 514.609 137.134 514.731C137.785 514.845 138.586 514.902 139.539 514.902C140.474 514.902 141.264 514.845 141.907 514.731C142.55 514.609 143.034 514.434 143.359 514.207C143.693 513.979 143.86 513.694 143.86 513.352C143.86 513.01 143.693 512.725 143.359 512.498C143.034 512.262 142.55 512.091 141.907 511.985C141.272 511.879 140.483 511.822 139.539 511.814ZM172.18 502.964H167.908V500.437H172.18V502.964ZM174.475 508.225H171.375V495.005H174.475V508.225ZM166.882 508.713C168.461 508.713 169.824 508.884 170.972 509.226C172.119 509.568 172.998 510.06 173.608 510.703C174.227 511.338 174.54 512.103 174.548 512.998C174.54 513.885 174.227 514.646 173.608 515.281C172.998 515.924 172.119 516.416 170.972 516.758C169.824 517.1 168.461 517.275 166.882 517.283C165.312 517.275 163.953 517.1 162.805 516.758C161.666 516.416 160.787 515.924 160.168 515.281C159.558 514.646 159.253 513.885 159.253 512.998C159.253 512.103 159.558 511.338 160.168 510.703C160.787 510.06 161.666 509.568 162.805 509.226C163.953 508.884 165.312 508.713 166.882 508.713ZM166.882 511.082C165.889 511.082 165.059 511.155 164.392 511.301C163.725 511.44 163.216 511.651 162.866 511.936C162.516 512.221 162.341 512.575 162.341 512.998C162.341 513.413 162.516 513.763 162.866 514.048C163.216 514.333 163.725 514.548 164.392 514.695C165.068 514.833 165.898 514.902 166.882 514.902C167.875 514.902 168.709 514.833 169.385 514.695C170.068 514.548 170.581 514.333 170.923 514.048C171.265 513.763 171.436 513.413 171.436 512.998C171.436 512.575 171.265 512.221 170.923 511.936C170.581 511.651 170.068 511.44 169.385 511.301C168.709 511.155 167.875 511.082 166.882 511.082ZM163.501 498.716C163.501 500.156 163.269 501.507 162.805 502.769C162.349 504.03 161.65 505.141 160.706 506.101C159.77 507.053 158.614 507.765 157.239 508.237L155.615 505.759C156.795 505.361 157.784 504.791 158.582 504.05C159.387 503.31 159.981 502.484 160.364 501.572C160.754 500.653 160.954 499.701 160.962 498.716V497.251H163.501V498.716ZM164.136 498.691C164.136 499.603 164.319 500.482 164.685 501.328C165.059 502.166 165.629 502.927 166.394 503.611C167.159 504.294 168.111 504.827 169.25 505.21L167.712 507.651C166.37 507.212 165.238 506.545 164.319 505.649C163.407 504.746 162.724 503.7 162.268 502.512C161.82 501.316 161.601 500.042 161.609 498.691V497.251H164.136V498.691ZM168.567 498.875H156.506V496.36H168.567V498.875ZM197.681 514.658H177.368V512.144H197.681V514.658ZM189.014 512.766H185.95V507.322H189.014V512.766ZM182.642 499.9H192.322V496.433H195.422V508.018H179.517V496.433H182.642V499.9ZM192.322 505.527V502.366H182.642V505.527H192.322ZM223.95 517.246H221.021V495.005H223.95V517.246ZM217.31 505.161H213.562V502.659H217.31V505.161ZM219.409 516.233H216.492V495.396H219.409V516.233ZM211.133 500.974C211.125 502.708 210.946 504.355 210.596 505.918C210.246 507.48 209.701 508.888 208.96 510.142C208.228 511.395 207.296 512.367 206.165 513.059L204.285 510.764C205.326 510.121 206.185 509.283 206.86 508.25C207.536 507.208 208.024 506.073 208.325 504.844C208.626 503.607 208.777 502.317 208.777 500.974V498.643H211.133V500.974ZM211.78 500.974C211.78 502.284 211.926 503.525 212.219 504.697C212.512 505.869 212.984 506.943 213.635 507.92C214.294 508.888 215.141 509.67 216.174 510.264L214.355 512.546C213.216 511.879 212.284 510.955 211.56 509.775C210.836 508.595 210.307 507.265 209.973 505.784C209.648 504.294 209.485 502.691 209.485 500.974V498.643H211.78V500.974ZM215.149 499.778H205.127V497.288H215.149V499.778ZM236.365 508.872C237.976 508.872 239.376 509.035 240.564 509.36C241.76 509.686 242.68 510.166 243.323 510.801C243.966 511.436 244.291 512.192 244.299 513.071C244.291 513.934 243.966 514.679 243.323 515.305C242.68 515.932 241.76 516.412 240.564 516.746C239.376 517.079 237.976 517.246 236.365 517.246C234.762 517.246 233.362 517.079 232.166 516.746C230.977 516.412 230.062 515.932 229.419 515.305C228.776 514.679 228.455 513.934 228.455 513.071C228.455 512.192 228.776 511.436 229.419 510.801C230.062 510.166 230.977 509.686 232.166 509.36C233.354 509.035 234.753 508.872 236.365 508.872ZM236.365 511.179C235.339 511.179 234.469 511.252 233.752 511.399C233.036 511.537 232.491 511.749 232.117 512.034C231.742 512.319 231.555 512.664 231.555 513.071C231.555 513.462 231.742 513.796 232.117 514.072C232.491 514.341 233.032 514.54 233.74 514.67C234.456 514.801 235.331 514.87 236.365 514.878C237.398 514.87 238.273 514.801 238.989 514.67C239.705 514.54 240.251 514.341 240.625 514.072C241.007 513.796 241.199 513.462 241.199 513.071C241.199 512.664 241.007 512.319 240.625 512.034C240.251 511.749 239.701 511.537 238.977 511.399C238.253 511.252 237.382 511.179 236.365 511.179ZM242.859 498.472H228.674V496.018H242.859V498.472ZM246.582 507.468H226.404V504.954H246.582V507.468ZM237.048 505.625H233.96V501.06H237.048V505.625ZM244.189 497.947C244.181 499.127 244.141 500.148 244.067 501.011C243.994 501.873 243.823 502.801 243.555 503.794L240.491 503.489C240.735 502.504 240.889 501.621 240.955 500.84C241.028 500.059 241.069 499.127 241.077 498.044V497.837V496.018H244.189V497.837V497.947ZM66.1011 544.226H63.0127V540.393H66.1011V544.226ZM63.269 545.618H72.3999V543.738H75.4639V552.002H60.1929V543.738H63.269V545.618ZM72.3999 549.536V547.974H63.269V549.536H72.3999ZM75.4639 542.859H72.3633V530.054H75.4639V542.859ZM56.8604 539.38C59.7819 539.388 62.3698 539.36 64.624 539.294C66.8783 539.221 69.0511 539.054 71.1426 538.794L71.3135 540.991C69.1813 541.357 66.9881 541.597 64.7339 541.711C62.4878 541.817 59.9854 541.87 57.2266 541.87L56.8604 539.38ZM65.2588 531.482C65.2507 532.613 65.0106 533.655 64.5386 534.607C64.0747 535.551 63.3748 536.365 62.439 537.048C61.5031 537.732 60.3556 538.22 58.9966 538.513L57.6294 536.121C58.7687 535.893 59.7209 535.547 60.4858 535.083C61.259 534.611 61.8327 534.07 62.207 533.459C62.5814 532.841 62.7686 532.182 62.7686 531.482V530.591H65.2588V531.482ZM65.979 531.482C65.979 532.125 66.1621 532.735 66.5283 533.313C66.9027 533.891 67.4683 534.399 68.2251 534.839C68.9901 535.278 69.9259 535.604 71.0327 535.815L69.7021 538.147C68.3512 537.878 67.2119 537.427 66.2842 536.792C65.3564 536.157 64.6566 535.388 64.1846 534.485C63.7126 533.582 63.4806 532.581 63.4888 531.482V530.591H65.979V531.482ZM94.751 534.412H80.5176V531.946H94.751V534.412ZM98.7061 549.524H78.4424V546.997H98.7061V549.524ZM88.7817 548.291H85.6934V539.355H88.7817V548.291ZM96.7285 534.302C96.7285 536.133 96.6756 537.813 96.5698 539.343C96.4722 540.873 96.2362 542.655 95.8618 544.69L92.7002 544.36C92.9769 543.026 93.1803 541.764 93.3105 540.576C93.4408 539.38 93.5221 538.326 93.5547 537.415C93.5872 536.503 93.6035 535.433 93.6035 534.204V534.058V531.946H96.7285V534.058V534.302ZM102.612 555.151H100.024L101.233 548.206H104.724L102.612 555.151ZM119.739 536.072C119.739 537.781 119.495 539.433 119.006 541.028C118.526 542.615 117.814 544.031 116.87 545.276C115.934 546.521 114.811 547.453 113.501 548.071L111.67 545.618C112.866 545.056 113.883 544.263 114.722 543.237C115.568 542.212 116.203 541.081 116.626 539.844C117.049 538.607 117.265 537.349 117.273 536.072V533.484H119.739V536.072ZM120.398 536.072C120.39 537.252 120.593 538.424 121.008 539.587C121.423 540.751 122.038 541.821 122.852 542.798C123.674 543.766 124.67 544.519 125.842 545.056L124.109 547.498C122.799 546.903 121.68 546.012 120.752 544.824C119.832 543.636 119.132 542.285 118.652 540.771C118.172 539.25 117.932 537.683 117.932 536.072V533.484H120.398V536.072ZM124.878 534.717H112.561V532.178H124.878V534.717ZM129.724 552.246H126.599V530.005H129.724V552.246ZM133.02 541.113H129.041V538.513H133.02V541.113ZM146.411 540.076H142.627V537.524H146.411V540.076ZM140.295 535.767C140.295 537.508 140.116 539.156 139.758 540.71C139.408 542.257 138.859 543.652 138.11 544.897C137.37 546.134 136.43 547.099 135.291 547.791L133.386 545.471C134.436 544.828 135.299 543.994 135.974 542.969C136.65 541.935 137.138 540.812 137.439 539.6C137.748 538.387 137.903 537.109 137.903 535.767V531.934H140.295V535.767ZM140.918 535.62C140.918 536.938 141.048 538.171 141.309 539.319C141.569 540.458 142 541.516 142.603 542.493C143.205 543.461 143.99 544.259 144.958 544.885L143.274 547.278C142.143 546.594 141.227 545.65 140.527 544.446C139.827 543.241 139.327 541.903 139.026 540.43C138.725 538.949 138.578 537.345 138.586 535.62V531.934H140.918V535.62ZM153.064 552.246H150.073V530.005H153.064V552.246ZM148.413 551.221H145.496V530.347H148.413V551.221ZM172.937 552.246H169.861V530.005H172.937V552.246ZM176.233 541.284H172.253V538.733H176.233V541.284ZM168.347 535.84H155.298V533.337H168.347V535.84ZM161.877 537.073C162.944 537.073 163.908 537.301 164.771 537.756C165.641 538.204 166.321 538.831 166.809 539.636C167.306 540.442 167.558 541.353 167.566 542.371C167.558 543.396 167.306 544.312 166.809 545.117C166.321 545.915 165.641 546.541 164.771 546.997C163.908 547.445 162.944 547.668 161.877 547.668C160.795 547.668 159.823 547.445 158.96 546.997C158.097 546.541 157.422 545.915 156.934 545.117C156.445 544.312 156.201 543.396 156.201 542.371C156.201 541.353 156.445 540.442 156.934 539.636C157.422 538.831 158.097 538.204 158.96 537.756C159.823 537.301 160.795 537.073 161.877 537.073ZM161.877 539.612C161.357 539.62 160.893 539.734 160.486 539.954C160.079 540.173 159.757 540.495 159.521 540.918C159.294 541.333 159.18 541.817 159.18 542.371C159.18 542.94 159.294 543.433 159.521 543.848C159.757 544.255 160.079 544.568 160.486 544.788C160.893 545.007 161.357 545.121 161.877 545.129C162.398 545.121 162.862 545.007 163.269 544.788C163.684 544.568 164.001 544.255 164.221 543.848C164.449 543.433 164.563 542.94 164.563 542.371C164.563 541.817 164.449 541.333 164.221 540.918C164.001 540.495 163.684 540.173 163.269 539.954C162.862 539.734 162.398 539.62 161.877 539.612ZM163.428 534.29H160.327V530.359H163.428V534.29ZM196.265 552.246H193.335V530.005H196.265V552.246ZM189.209 541.064H184.351V538.586H189.209V541.064ZM191.541 551.27H188.611V530.53H191.541V551.27ZM186.731 532.666C186.723 534.871 186.458 536.869 185.938 538.66C185.425 540.45 184.562 542.102 183.35 543.616C182.145 545.121 180.53 546.456 178.503 547.62L176.746 545.435C178.43 544.434 179.781 543.339 180.798 542.151C181.824 540.955 182.564 539.636 183.02 538.196C183.476 536.755 183.708 535.124 183.716 533.301V532.666H186.731ZM184.717 535.168H177.966V532.666H184.717V535.168Z" fill="#01A4FC"/>
<path d="M258.093 496.165C259.656 496.165 261.072 496.433 262.341 496.97C263.619 497.499 264.624 498.248 265.356 499.216C266.089 500.185 266.455 501.296 266.455 502.549C266.455 503.81 266.089 504.929 265.356 505.906C264.624 506.874 263.619 507.627 262.341 508.164C261.072 508.693 259.656 508.953 258.093 508.945C256.531 508.953 255.115 508.693 253.845 508.164C252.576 507.627 251.575 506.874 250.842 505.906C250.11 504.929 249.744 503.81 249.744 502.549C249.744 501.296 250.11 500.185 250.842 499.216C251.575 498.248 252.576 497.499 253.845 496.97C255.115 496.433 256.531 496.165 258.093 496.165ZM258.093 498.679C257.068 498.679 256.152 498.838 255.347 499.155C254.541 499.465 253.91 499.912 253.455 500.498C252.999 501.084 252.775 501.768 252.783 502.549C252.775 503.338 252.999 504.026 253.455 504.612C253.91 505.19 254.537 505.633 255.334 505.942C256.14 506.243 257.06 506.398 258.093 506.406C259.119 506.398 260.03 506.243 260.828 505.942C261.633 505.633 262.26 505.19 262.708 504.612C263.155 504.026 263.379 503.338 263.379 502.549C263.379 501.768 263.151 501.084 262.695 500.498C262.248 499.912 261.621 499.465 260.815 499.155C260.018 498.838 259.111 498.679 258.093 498.679ZM268.286 514.548H247.974V512.034H268.286V514.548ZM289.893 514.78H269.58V512.229H289.893V514.78ZM281.226 513.291H278.162V508.018H281.226V513.291ZM287.549 503.831H275.024V507.627H271.924V501.389H284.473V498.972H271.887V496.47H287.549V503.831ZM288.074 508.86H271.924V506.333H288.074V508.86ZM222.034 541.125H218.921V530.005H222.034V541.125ZM225.037 536.89H220.74V534.326H225.037V536.89ZM222.034 548.071H210.4V550.769H207.336V545.813H218.933V544.409H207.3V542.017H222.034V548.071ZM222.681 552.002H207.336V549.548H222.681V552.002ZM210.547 530.688C211.67 530.688 212.683 530.904 213.586 531.335C214.498 531.759 215.21 532.353 215.723 533.118C216.235 533.883 216.496 534.749 216.504 535.718C216.496 536.678 216.235 537.541 215.723 538.306C215.21 539.071 214.498 539.669 213.586 540.1C212.675 540.531 211.662 540.747 210.547 540.747C209.416 540.747 208.394 540.531 207.483 540.1C206.571 539.669 205.855 539.071 205.334 538.306C204.814 537.541 204.553 536.678 204.553 535.718C204.553 534.749 204.814 533.883 205.334 533.118C205.855 532.353 206.567 531.759 207.471 531.335C208.382 530.904 209.408 530.688 210.547 530.688ZM210.547 533.228C209.969 533.228 209.456 533.329 209.009 533.533C208.569 533.728 208.223 534.013 207.971 534.387C207.719 534.762 207.593 535.205 207.593 535.718C207.593 536.239 207.719 536.69 207.971 537.073C208.223 537.455 208.569 537.752 209.009 537.964C209.456 538.175 209.969 538.281 210.547 538.281C211.108 538.281 211.613 538.175 212.061 537.964C212.508 537.752 212.854 537.455 213.098 537.073C213.35 536.69 213.477 536.239 213.477 535.718C213.477 535.205 213.35 534.762 213.098 534.387C212.854 534.013 212.508 533.728 212.061 533.533C211.613 533.329 211.108 533.228 210.547 533.228ZM244.727 552.307H241.638V530.005H244.727V552.307ZM242.175 537.268H237.915V534.741H242.175V537.268ZM228.552 544.775C230.351 544.775 231.97 544.735 233.411 544.653C234.851 544.572 236.34 544.417 237.878 544.189L238.123 546.729C236.593 546.973 235.107 547.135 233.667 547.217C232.227 547.29 230.522 547.327 228.552 547.327H226.794V544.775H228.552ZM236.731 540.417H229.907V545.374H226.794V538H233.679V534.363H226.746V531.873H236.731V540.417ZM242.102 543.323H237.842V540.771H242.102V543.323ZM265.723 542.81H250.024V540.32H265.723V542.81ZM267.944 549.548H247.632V546.985H267.944V549.548ZM265.564 534.399H253.101V541.357H250.024V531.885H265.564V534.399ZM287.939 552.307H284.851V530.005H287.939V552.307ZM285.388 537.268H281.128V534.741H285.388V537.268ZM271.765 544.775C273.564 544.775 275.183 544.735 276.624 544.653C278.064 544.572 279.553 544.417 281.091 544.189L281.335 546.729C279.806 546.973 278.32 547.135 276.88 547.217C275.439 547.29 273.735 547.327 271.765 547.327H270.007V544.775H271.765ZM279.944 540.417H273.12V545.374H270.007V538H276.892V534.363H269.958V531.873H279.944V540.417ZM285.315 543.323H281.055V540.771H285.315V543.323ZM298.462 547.571H295.374V541.333H298.462V547.571ZM306.641 547.571H303.503V541.333H306.641V547.571ZM311.157 549.646H290.845V547.095H311.157V549.646ZM300.964 531.104C302.568 531.104 304 531.352 305.261 531.848C306.531 532.345 307.524 533.044 308.24 533.948C308.964 534.851 309.326 535.889 309.326 537.061C309.326 538.249 308.968 539.29 308.252 540.186C307.536 541.081 306.543 541.777 305.273 542.273C304.004 542.769 302.568 543.018 300.964 543.018C299.361 543.018 297.925 542.769 296.655 542.273C295.394 541.777 294.405 541.081 293.689 540.186C292.973 539.29 292.615 538.249 292.615 537.061C292.615 535.889 292.973 534.851 293.689 533.948C294.405 533.044 295.394 532.345 296.655 531.848C297.925 531.352 299.361 531.104 300.964 531.104ZM300.964 533.569C299.898 533.561 298.971 533.695 298.181 533.972C297.392 534.249 296.777 534.652 296.338 535.181C295.907 535.71 295.691 536.336 295.691 537.061C295.691 537.785 295.907 538.416 296.338 538.953C296.777 539.482 297.392 539.889 298.181 540.173C298.979 540.458 299.906 540.605 300.964 540.613C302.014 540.605 302.938 540.458 303.735 540.173C304.533 539.88 305.151 539.469 305.591 538.94C306.03 538.411 306.25 537.785 306.25 537.061C306.25 536.336 306.03 535.71 305.591 535.181C305.151 534.652 304.533 534.249 303.735 533.972C302.938 533.695 302.014 533.561 300.964 533.569ZM315.308 550.22C314.941 550.22 314.6 550.13 314.282 549.951C313.965 549.764 313.713 549.512 313.525 549.194C313.346 548.877 313.261 548.531 313.269 548.157C313.261 547.791 313.346 547.453 313.525 547.144C313.713 546.834 313.965 546.59 314.282 546.411C314.6 546.232 314.941 546.143 315.308 546.143C315.666 546.143 316.003 546.232 316.321 546.411C316.638 546.59 316.886 546.838 317.065 547.156C317.253 547.465 317.35 547.799 317.358 548.157C317.35 548.531 317.253 548.877 317.065 549.194C316.886 549.512 316.638 549.764 316.321 549.951C316.003 550.13 315.666 550.22 315.308 550.22Z" fill="#1E1E1E"/>
<path d="M71.8018 582.372H68.457V581.566H71.8018V582.372ZM71.8018 585.802H68.457V585.008H71.8018V585.802ZM66.4429 579.979C66.9678 579.979 67.4357 580.134 67.8467 580.443C68.2617 580.752 68.5832 581.194 68.811 581.767C69.0389 582.341 69.1528 583.006 69.1528 583.763C69.1528 584.524 69.0389 585.189 68.811 585.759C68.5832 586.325 68.2617 586.762 67.8467 587.071C67.4357 587.381 66.9678 587.535 66.4429 587.535C65.9098 587.535 65.4358 587.381 65.0208 587.071C64.6098 586.762 64.2904 586.325 64.0625 585.759C63.8346 585.189 63.7207 584.524 63.7207 583.763C63.7207 583.006 63.8346 582.341 64.0625 581.767C64.2904 581.194 64.6098 580.752 65.0208 580.443C65.4358 580.134 65.9098 579.979 66.4429 579.979ZM66.4429 580.833C66.0889 580.833 65.7756 580.956 65.5029 581.2C65.2344 581.444 65.0228 581.788 64.8682 582.231C64.7135 582.671 64.6362 583.181 64.6362 583.763C64.6362 584.345 64.7135 584.858 64.8682 585.301C65.0228 585.741 65.2344 586.08 65.5029 586.321C65.7756 586.561 66.0889 586.681 66.4429 586.681C66.7928 586.681 67.1061 586.561 67.3828 586.321C67.6595 586.08 67.8731 585.739 68.0237 585.295C68.1742 584.852 68.2495 584.341 68.2495 583.763C68.2495 583.185 68.1742 582.675 68.0237 582.231C67.8731 581.788 67.6595 581.444 67.3828 581.2C67.1061 580.956 66.7928 580.833 66.4429 580.833ZM72.522 590.013H71.5698V579.137H72.522V590.013ZM83.313 590.013H82.3608V579.137H83.313V590.013ZM82.605 584.117H80.249V583.312H82.605V584.117ZM75.5737 586.583C76.6317 586.583 77.5269 586.561 78.2593 586.516C78.9958 586.467 79.7445 586.371 80.5054 586.229L80.5786 587.035C79.8055 587.173 79.0405 587.269 78.2837 587.322C77.5309 587.37 76.6276 587.397 75.5737 587.401H74.7437V586.583H75.5737ZM79.5898 583.946H75.6958V586.839H74.7437V583.153H78.6621V580.943H74.707V580.15H79.5898V583.946ZM95.0562 585.667H85.1196V584.886H95.0562V585.667ZM90.6372 587.792H89.6851V585.265H90.6372V587.792ZM93.9453 589.757H86.3892V588.951H93.9453V589.757ZM87.3413 589.256H86.3892V586.791H87.3413V589.256ZM87.4023 580.882H92.7734V579.491H93.7256V583.824H86.4502V579.491H87.4023V580.882ZM92.7734 583.043V581.615H87.4023V583.043H92.7734ZM102.466 584.166H100.378V583.373H102.466V584.166ZM105.237 589.989H104.309V579.137H105.237V589.989ZM103.052 589.439H102.136V579.369H103.052V589.439ZM98.4009 580.052C98.8688 580.052 99.2778 580.207 99.6277 580.516C99.9817 580.825 100.256 581.265 100.452 581.834C100.647 582.4 100.745 583.063 100.745 583.824C100.745 584.585 100.647 585.25 100.452 585.82C100.256 586.386 99.9817 586.823 99.6277 587.132C99.2778 587.442 98.8688 587.596 98.4009 587.596C97.9329 587.596 97.524 587.442 97.1741 587.132C96.8282 586.823 96.5576 586.386 96.3623 585.82C96.167 585.25 96.0693 584.585 96.0693 583.824C96.0693 583.063 96.167 582.4 96.3623 581.834C96.5576 581.265 96.8282 580.825 97.1741 580.516C97.524 580.207 97.9329 580.052 98.4009 580.052ZM98.4009 580.956C98.1079 580.956 97.8536 581.072 97.6379 581.303C97.4223 581.535 97.2555 581.869 97.1375 582.304C97.0235 582.736 96.9686 583.242 96.9727 583.824C96.9686 584.406 97.0235 584.913 97.1375 585.344C97.2555 585.771 97.4223 586.103 97.6379 586.339C97.8577 586.571 98.112 586.685 98.4009 586.681C98.6938 586.685 98.9502 586.571 99.1699 586.339C99.3896 586.103 99.5565 585.771 99.6704 585.344C99.7843 584.913 99.8413 584.406 99.8413 583.824C99.8413 583.242 99.7843 582.736 99.6704 582.304C99.5565 581.869 99.3896 581.535 99.1699 581.303C98.9502 581.072 98.6938 580.956 98.4009 580.956ZM116.028 589.989H115.112V579.137H116.028V589.989ZM113.11 584.374H110.327V583.592H113.11V584.374ZM113.745 589.439H112.83V579.43H113.745V589.439ZM111.426 580.528C111.422 581.497 111.277 582.412 110.992 583.275C110.712 584.138 110.266 584.941 109.656 585.686C109.045 586.43 108.264 587.083 107.312 587.645L106.75 586.949C107.593 586.449 108.293 585.875 108.85 585.228C109.412 584.577 109.825 583.873 110.089 583.116C110.358 582.359 110.494 581.554 110.498 580.699V580.528H111.426ZM110.864 581.322H107.214V580.528H110.864V581.322ZM129.077 589.989H128.125V579.137H129.077V589.989ZM130.835 584.361H128.833V583.556H130.835V584.361ZM126.27 580.309C126.265 581.362 126.09 582.359 125.745 583.299C125.403 584.235 124.862 585.1 124.121 585.893C123.381 586.683 122.437 587.36 121.289 587.926L120.752 587.169C121.757 586.668 122.599 586.08 123.279 585.405C123.962 584.726 124.473 583.973 124.811 583.147C125.153 582.321 125.326 581.428 125.33 580.467V580.309H126.27ZM125.818 581.114H121.252V580.309H125.818V581.114ZM134.985 581.2C134.985 581.855 134.859 582.469 134.607 583.043C134.355 583.613 133.997 584.109 133.533 584.532C133.073 584.951 132.54 585.269 131.934 585.484L131.445 584.715C131.982 584.532 132.461 584.264 132.88 583.91C133.299 583.552 133.624 583.141 133.856 582.677C134.092 582.209 134.212 581.716 134.216 581.2V580.309H134.985V581.2ZM135.156 581.2C135.156 581.668 135.268 582.115 135.492 582.542C135.716 582.966 136.027 583.34 136.426 583.666C136.829 583.991 137.292 584.239 137.817 584.41L137.366 585.167C136.764 584.968 136.239 584.673 135.791 584.282C135.343 583.887 134.996 583.425 134.747 582.896C134.499 582.368 134.375 581.802 134.375 581.2V580.309H135.156V581.2ZM137.598 580.736H131.738V579.942H137.598V580.736ZM139.966 585.692H139.014V579.137H139.966V585.692ZM141.602 582.713H139.697V581.908H141.602V582.713ZM136.487 585.985C137.227 585.985 137.866 586.062 138.403 586.217C138.94 586.371 139.351 586.597 139.636 586.894C139.921 587.191 140.063 587.547 140.063 587.962C140.063 588.382 139.921 588.74 139.636 589.037C139.351 589.338 138.94 589.568 138.403 589.726C137.866 589.885 137.227 589.964 136.487 589.964C135.746 589.964 135.105 589.885 134.564 589.726C134.023 589.568 133.608 589.338 133.319 589.037C133.03 588.74 132.886 588.382 132.886 587.962C132.886 587.547 133.03 587.191 133.319 586.894C133.608 586.597 134.023 586.371 134.564 586.217C135.105 586.062 135.746 585.985 136.487 585.985ZM136.487 586.754C135.946 586.754 135.476 586.801 135.077 586.894C134.682 586.988 134.377 587.128 134.161 587.315C133.95 587.499 133.846 587.714 133.85 587.962C133.846 588.219 133.95 588.441 134.161 588.628C134.377 588.811 134.682 588.951 135.077 589.049C135.476 589.146 135.946 589.195 136.487 589.195C137.032 589.195 137.504 589.146 137.903 589.049C138.302 588.951 138.607 588.811 138.818 588.628C139.03 588.441 139.136 588.219 139.136 587.962C139.136 587.71 139.03 587.492 138.818 587.309C138.607 587.126 138.302 586.988 137.903 586.894C137.504 586.801 137.032 586.754 136.487 586.754ZM150.879 580.785H146.033V579.979H150.879V580.785ZM148.645 585.106H147.693V582.384H148.645V585.106ZM151.44 580.626C151.436 581.163 151.418 581.672 151.385 582.152C151.353 582.628 151.278 583.165 151.16 583.763L150.195 583.69C150.317 583.092 150.397 582.569 150.433 582.121C150.47 581.674 150.492 581.192 150.5 580.675V580.553V579.979H151.44V580.553V580.626ZM153.931 587.303H152.954V579.137H153.931V587.303ZM155.518 583.495H153.491V582.677H155.518V583.495ZM154.285 589.757H147.034V588.951H154.285V589.757ZM147.998 589.208H147.034V586.571H147.998V589.208ZM145.361 584.776C146.655 584.772 147.874 584.748 149.017 584.703C150.161 584.654 151.229 584.561 152.222 584.422L152.283 585.13C151.27 585.305 150.199 585.421 149.072 585.478C147.945 585.535 146.741 585.566 145.459 585.57L145.361 584.776ZM157.458 584.874C158.569 584.874 159.446 584.856 160.089 584.819C160.736 584.782 161.385 584.707 162.036 584.593L162.134 585.387C161.462 585.501 160.799 585.576 160.144 585.613C159.493 585.649 158.598 585.667 157.458 585.667H156.677V584.874H157.458ZM161.377 583.08H157.642V585.338H156.677V582.323H160.4V580.699H156.653V579.918H161.377V583.08ZM165.222 587.132H164.258V579.149H165.222V587.132ZM164.502 581.761H162.109V580.98H164.502V581.761ZM165.552 589.696H158.167V588.902H165.552V589.696ZM159.131 589.269H158.167V586.546H159.131V589.269ZM164.502 584.203H162.109V583.409H164.502V584.203ZM170.593 580.882C170.593 581.574 170.467 582.219 170.215 582.817C169.963 583.415 169.607 583.934 169.147 584.374C168.687 584.813 168.152 585.147 167.542 585.375L167.017 584.593C167.57 584.398 168.058 584.115 168.481 583.745C168.905 583.375 169.23 582.943 169.458 582.451C169.69 581.959 169.808 581.436 169.812 580.882V579.759H170.593V580.882ZM170.764 580.846C170.76 581.354 170.87 581.839 171.094 582.298C171.322 582.754 171.639 583.157 172.046 583.507C172.453 583.857 172.921 584.121 173.45 584.3L172.913 585.045C172.331 584.825 171.818 584.51 171.375 584.099C170.935 583.688 170.591 583.206 170.343 582.652C170.095 582.095 169.971 581.493 169.971 580.846V579.759H170.764V580.846ZM176.025 585.57H175.061V579.137H176.025V585.57ZM172.424 585.887C173.173 585.887 173.82 585.967 174.365 586.125C174.91 586.284 175.33 586.518 175.623 586.827C175.916 587.136 176.062 587.507 176.062 587.938C176.062 588.365 175.916 588.729 175.623 589.031C175.33 589.336 174.91 589.568 174.365 589.726C173.82 589.885 173.173 589.964 172.424 589.964C171.672 589.964 171.023 589.885 170.477 589.726C169.936 589.568 169.519 589.336 169.226 589.031C168.933 588.729 168.787 588.365 168.787 587.938C168.787 587.507 168.933 587.136 169.226 586.827C169.519 586.518 169.936 586.284 170.477 586.125C171.023 585.967 171.672 585.887 172.424 585.887ZM172.424 586.644C171.871 586.644 171.393 586.695 170.99 586.797C170.587 586.898 170.278 587.047 170.062 587.242C169.847 587.438 169.739 587.669 169.739 587.938C169.739 588.198 169.847 588.422 170.062 588.609C170.278 588.797 170.587 588.941 170.99 589.043C171.393 589.144 171.871 589.195 172.424 589.195C172.974 589.195 173.45 589.144 173.853 589.043C174.259 588.941 174.571 588.797 174.786 588.609C175.002 588.422 175.11 588.198 175.11 587.938C175.11 587.669 175.002 587.438 174.786 587.242C174.571 587.047 174.259 586.898 173.853 586.797C173.45 586.695 172.974 586.644 172.424 586.644ZM175.269 582.262H172.644V581.468H175.269V582.262ZM189.758 582.713H182.324V581.944H189.758V582.713ZM183.276 582.445H182.324V579.381H183.276V582.445ZM190.857 584.886H180.969V584.093H190.857V584.886ZM186.389 584.618H185.437V582.433H186.389V584.618ZM189.771 586.742H182.08V585.973H189.771V586.742ZM189.856 589.842H181.982V589.061H189.856V589.842ZM184.705 589.427H183.752V586.192H184.705V589.427ZM188.086 589.427H187.146V586.192H188.086V589.427ZM201.66 585.643H191.772V584.862H201.66V585.643ZM200.562 589.757H193.054V588.951H200.562V589.757ZM194.019 589.195H193.054V586.595H194.019V589.195ZM196.716 579.527C197.489 579.523 198.165 579.607 198.743 579.778C199.32 579.944 199.766 580.191 200.079 580.516C200.393 580.842 200.549 581.228 200.549 581.676C200.549 582.119 200.393 582.504 200.079 582.829C199.766 583.151 199.32 583.399 198.743 583.574C198.165 583.749 197.489 583.836 196.716 583.836C195.935 583.836 195.256 583.749 194.678 583.574C194.1 583.399 193.654 583.151 193.341 582.829C193.028 582.504 192.871 582.119 192.871 581.676C192.871 581.228 193.028 580.842 193.341 580.516C193.654 580.191 194.1 579.944 194.678 579.778C195.256 579.607 195.935 579.523 196.716 579.527ZM196.716 580.296C196.139 580.296 195.634 580.351 195.203 580.461C194.771 580.571 194.44 580.732 194.208 580.943C193.976 581.151 193.86 581.395 193.86 581.676C193.86 581.961 193.976 582.207 194.208 582.414C194.44 582.622 194.769 582.781 195.197 582.89C195.628 583 196.134 583.055 196.716 583.055C197.294 583.055 197.799 583 198.23 582.89C198.661 582.781 198.993 582.622 199.225 582.414C199.457 582.207 199.573 581.961 199.573 581.676C199.573 581.395 199.457 581.151 199.225 580.943C198.993 580.732 198.659 580.571 198.224 580.461C197.793 580.351 197.29 580.296 196.716 580.296ZM214.038 582.762H211.56V581.969H214.038V582.762ZM214.709 585.606H213.745V579.137H214.709V585.606ZM211.108 585.948C211.857 585.948 212.504 586.028 213.049 586.186C213.595 586.345 214.014 586.575 214.307 586.876C214.6 587.177 214.746 587.539 214.746 587.962C214.746 588.386 214.6 588.748 214.307 589.049C214.014 589.35 213.595 589.58 213.049 589.739C212.504 589.901 211.857 589.985 211.108 589.989C210.356 589.985 209.707 589.901 209.161 589.739C208.62 589.58 208.203 589.35 207.91 589.049C207.617 588.748 207.471 588.386 207.471 587.962C207.471 587.539 207.617 587.177 207.91 586.876C208.203 586.575 208.622 586.345 209.167 586.186C209.713 586.028 210.36 585.948 211.108 585.948ZM211.108 586.693C210.555 586.693 210.077 586.744 209.674 586.845C209.271 586.947 208.962 587.094 208.746 587.285C208.531 587.476 208.423 587.702 208.423 587.962C208.423 588.223 208.531 588.447 208.746 588.634C208.962 588.821 209.271 588.965 209.674 589.067C210.077 589.169 210.555 589.22 211.108 589.22C211.658 589.22 212.134 589.169 212.537 589.067C212.944 588.965 213.255 588.821 213.47 588.634C213.686 588.447 213.794 588.223 213.794 587.962C213.794 587.702 213.686 587.476 213.47 587.285C213.255 587.094 212.944 586.947 212.537 586.845C212.134 586.744 211.658 586.693 211.108 586.693ZM209.314 581.139C209.314 581.79 209.186 582.406 208.929 582.988C208.673 583.57 208.313 584.079 207.849 584.514C207.389 584.949 206.86 585.281 206.262 585.509L205.762 584.74C206.295 584.549 206.769 584.268 207.184 583.897C207.603 583.523 207.931 583.098 208.167 582.622C208.403 582.142 208.521 581.647 208.521 581.139V580.235H209.314V581.139ZM209.485 581.126C209.485 581.594 209.597 582.048 209.821 582.488C210.044 582.923 210.36 583.312 210.767 583.653C211.174 583.995 211.637 584.256 212.158 584.435L211.658 585.204C211.076 584.992 210.561 584.681 210.114 584.27C209.67 583.859 209.324 583.383 209.076 582.842C208.828 582.296 208.704 581.725 208.704 581.126V580.235H209.485V581.126ZM211.914 580.736H206.067V579.93H211.914V580.736ZM226.453 588.597H216.516V587.804H226.453V588.597ZM221.924 588.048H220.984V585.179H221.924V588.048ZM218.652 581.871H224.292V579.906H225.232V585.46H217.688V579.906H218.652V581.871ZM224.292 584.679V582.652H218.652V584.679H224.292ZM237.244 584.935H227.307V584.178H237.244V584.935ZM235.999 588.109H229.48V589.403H228.516V587.45H235.046V586.522H228.503V585.802H235.999V588.109ZM236.353 589.842H228.516V589.146H236.353V589.842ZM235.962 581.712H229.553V582.909H228.601V581.053H234.998V580.162H228.564V579.466H235.962V581.712ZM236.157 583.36H228.601V582.665H236.157V583.36ZM245.52 586.229H244.568V584.178H245.52V586.229ZM243.945 587.083H249.207V585.899H250.146V589.842H242.993V585.899H243.945V587.083ZM249.207 589.061V587.84H243.945V589.061H249.207ZM250.146 585.375H249.194V579.149H250.146V585.375ZM241.272 583.897C242.757 583.897 244.061 583.881 245.184 583.849C246.311 583.812 247.4 583.727 248.45 583.592L248.511 584.276C247.437 584.455 246.338 584.569 245.215 584.618C244.096 584.667 242.826 584.691 241.406 584.691L241.272 583.897ZM245.227 579.955C245.223 580.467 245.093 580.943 244.836 581.383C244.584 581.822 244.23 582.203 243.774 582.524C243.319 582.842 242.794 583.076 242.2 583.226L241.76 582.469C242.285 582.347 242.749 582.162 243.152 581.914C243.559 581.666 243.876 581.373 244.104 581.035C244.332 580.697 244.446 580.337 244.446 579.955V579.405H245.227V579.955ZM245.422 579.955C245.422 580.317 245.536 580.659 245.764 580.98C245.992 581.297 246.307 581.572 246.71 581.804C247.113 582.036 247.575 582.209 248.096 582.323L247.681 583.055C247.078 582.917 246.549 582.701 246.094 582.408C245.638 582.115 245.282 581.759 245.026 581.34C244.769 580.921 244.641 580.459 244.641 579.955V579.405H245.422V579.955ZM260.168 581.029H253.113V580.235H260.168V581.029ZM261.951 588.451H252.063V587.657H261.951V588.451ZM256.885 588.072H255.945V583.775H256.885V588.072ZM260.767 581.456C260.758 582.355 260.73 583.159 260.681 583.867C260.636 584.575 260.531 585.395 260.364 586.327L259.387 586.217C259.513 585.59 259.605 584.996 259.662 584.435C259.723 583.873 259.76 583.385 259.772 582.97C259.788 582.551 259.798 582.026 259.802 581.395V581.322V580.235H260.767V581.322V581.456ZM269.495 582.469C269.495 583.206 269.356 583.938 269.08 584.667C268.803 585.391 268.427 586.04 267.95 586.614C267.474 587.187 266.96 587.617 266.406 587.901L265.82 587.145C266.337 586.892 266.817 586.514 267.261 586.009C267.708 585.505 268.064 584.939 268.329 584.312C268.597 583.686 268.734 583.071 268.738 582.469V580.675H269.495V582.469ZM269.678 582.469C269.674 583.039 269.796 583.617 270.044 584.203C270.296 584.789 270.638 585.32 271.069 585.796C271.501 586.268 271.977 586.628 272.498 586.876L271.948 587.633C271.383 587.356 270.868 586.947 270.404 586.406C269.944 585.865 269.58 585.25 269.312 584.563C269.043 583.871 268.909 583.173 268.909 582.469V580.675H269.678V582.469ZM272.119 581.053H266.211V580.26H272.119V581.053ZM274.402 589.989H273.45V579.137H274.402V589.989ZM276.221 584.349H274.182V583.531H276.221V584.349ZM283.252 583.849H281.116V583.031H283.252V583.849ZM279.858 582.262C279.858 583.006 279.755 583.733 279.547 584.441C279.34 585.145 279.041 585.777 278.65 586.339C278.263 586.896 277.812 587.332 277.295 587.645L276.685 586.925C277.173 586.64 277.6 586.249 277.966 585.753C278.333 585.257 278.613 584.707 278.809 584.105C279.004 583.499 279.102 582.884 279.102 582.262V580.162H279.858V582.262ZM280.029 582.225C280.029 582.807 280.121 583.387 280.304 583.965C280.487 584.538 280.75 585.063 281.091 585.539C281.437 586.015 281.844 586.392 282.312 586.668L281.763 587.413C281.25 587.104 280.806 586.675 280.432 586.125C280.058 585.576 279.773 584.964 279.578 584.288C279.386 583.613 279.293 582.925 279.297 582.225V580.162H280.029V582.225ZM286.108 589.989H285.181V579.137H286.108V589.989ZM283.862 589.439H282.959V579.369H283.862V589.439ZM296.008 589.989H295.056V579.137H296.008V589.989ZM297.827 584.41H295.789V583.617H297.827V584.41ZM294.006 581.676H287.549V580.882H294.006V581.676ZM290.833 582.579C291.337 582.579 291.791 582.685 292.194 582.896C292.596 583.108 292.912 583.403 293.14 583.781C293.372 584.16 293.49 584.589 293.494 585.069C293.49 585.554 293.372 585.985 293.14 586.363C292.912 586.738 292.596 587.031 292.194 587.242C291.791 587.454 291.337 587.56 290.833 587.56C290.324 587.56 289.866 587.454 289.459 587.242C289.056 587.031 288.741 586.738 288.513 586.363C288.285 585.985 288.171 585.554 288.171 585.069C288.171 584.589 288.285 584.16 288.513 583.781C288.741 583.403 289.056 583.108 289.459 582.896C289.866 582.685 290.324 582.579 290.833 582.579ZM290.833 583.385C290.499 583.385 290.2 583.456 289.935 583.598C289.671 583.741 289.463 583.942 289.313 584.203C289.162 584.459 289.087 584.748 289.087 585.069C289.087 585.395 289.162 585.684 289.313 585.936C289.463 586.188 289.671 586.388 289.935 586.534C290.2 586.677 290.499 586.746 290.833 586.742C291.162 586.746 291.459 586.677 291.724 586.534C291.992 586.388 292.2 586.188 292.346 585.936C292.497 585.684 292.574 585.395 292.578 585.069C292.574 584.748 292.497 584.459 292.346 584.203C292.2 583.942 291.992 583.741 291.724 583.598C291.459 583.456 291.162 583.385 290.833 583.385ZM291.296 581.249H290.344V579.271H291.296V581.249ZM307.703 589.989H306.787V579.137H307.703V589.989ZM304.785 584.374H302.002V583.592H304.785V584.374ZM305.42 589.439H304.504V579.43H305.42V589.439ZM303.101 580.528C303.097 581.497 302.952 582.412 302.667 583.275C302.386 584.138 301.941 584.941 301.331 585.686C300.72 586.43 299.939 587.083 298.987 587.645L298.425 586.949C299.268 586.449 299.967 585.875 300.525 585.228C301.086 584.577 301.499 583.873 301.764 583.116C302.032 582.359 302.169 581.554 302.173 580.699V580.528H303.101ZM302.539 581.322H298.889V580.528H302.539V581.322ZM156.25 609.989H155.334V599.137H156.25V609.989ZM153.442 603.836H151.318V603.055H153.442V603.836ZM154.053 609.427H153.149V599.405H154.053V609.427ZM149.988 602.237C149.984 603.019 149.878 603.773 149.67 604.502C149.467 605.23 149.174 605.885 148.792 606.467C148.413 607.045 147.965 607.494 147.449 607.816L146.838 607.096C147.331 606.803 147.758 606.4 148.12 605.887C148.486 605.375 148.763 604.803 148.95 604.172C149.141 603.541 149.235 602.896 149.231 602.237V600.821H149.988V602.237ZM150.159 602.237C150.159 602.868 150.252 603.482 150.439 604.081C150.627 604.675 150.895 605.216 151.245 605.704C151.595 606.188 152.014 606.571 152.502 606.852L151.917 607.56C151.396 607.246 150.95 606.817 150.58 606.272C150.21 605.722 149.925 605.102 149.725 604.41C149.53 603.714 149.434 602.99 149.438 602.237V600.821H150.159V602.237ZM152.148 601.212H147.144V600.418H152.148V601.212ZM162.683 605.997C163.456 605.997 164.13 606.074 164.703 606.229C165.277 606.384 165.719 606.611 166.028 606.913C166.337 607.214 166.492 607.572 166.492 607.987C166.492 608.398 166.337 608.75 166.028 609.043C165.719 609.34 165.277 609.568 164.703 609.726C164.13 609.885 163.456 609.964 162.683 609.964C161.91 609.964 161.239 609.885 160.669 609.726C160.099 609.568 159.66 609.34 159.351 609.043C159.041 608.75 158.887 608.398 158.887 607.987C158.887 607.572 159.041 607.214 159.351 606.913C159.66 606.611 160.099 606.384 160.669 606.229C161.239 606.074 161.91 605.997 162.683 605.997ZM162.683 606.729C162.109 606.729 161.607 606.78 161.176 606.882C160.748 606.984 160.419 607.13 160.187 607.322C159.955 607.509 159.839 607.73 159.839 607.987C159.839 608.235 159.955 608.453 160.187 608.64C160.419 608.823 160.748 608.963 161.176 609.061C161.607 609.159 162.109 609.208 162.683 609.208C163.257 609.208 163.757 609.159 164.185 609.061C164.616 608.963 164.948 608.823 165.179 608.64C165.415 608.453 165.535 608.235 165.54 607.987C165.535 607.73 165.415 607.509 165.179 607.322C164.948 607.13 164.616 606.984 164.185 606.882C163.757 606.78 163.257 606.729 162.683 606.729ZM166.003 600.479H158.96V599.698H166.003V600.479ZM167.664 604.984H157.788V604.203H167.664V604.984ZM162.817 604.447H161.877V602.103H162.817V604.447ZM166.406 600.663C166.402 601.24 166.382 601.735 166.345 602.146C166.313 602.557 166.231 603.006 166.101 603.495L165.161 603.385C165.287 602.901 165.367 602.463 165.399 602.073C165.436 601.682 165.454 601.228 165.454 600.711V600.614V599.698H166.406V600.614V600.663ZM173.999 601.798H168.555V601.017H173.999V601.798ZM171.277 602.53C171.729 602.53 172.131 602.636 172.485 602.848C172.843 603.059 173.122 603.352 173.322 603.727C173.525 604.097 173.629 604.52 173.633 604.996C173.629 605.476 173.525 605.903 173.322 606.278C173.122 606.652 172.843 606.947 172.485 607.163C172.131 607.378 171.729 607.486 171.277 607.486C170.833 607.486 170.433 607.378 170.074 607.163C169.72 606.947 169.444 606.652 169.244 606.278C169.045 605.903 168.945 605.476 168.945 604.996C168.945 604.524 169.047 604.101 169.25 603.727C169.454 603.352 169.731 603.059 170.081 602.848C170.435 602.636 170.833 602.53 171.277 602.53ZM171.277 603.336C170.992 603.34 170.738 603.415 170.514 603.562C170.29 603.704 170.115 603.902 169.989 604.154C169.863 604.402 169.8 604.683 169.8 604.996C169.8 605.313 169.863 605.596 169.989 605.844C170.115 606.093 170.29 606.288 170.514 606.43C170.738 606.573 170.992 606.644 171.277 606.644C171.562 606.644 171.818 606.573 172.046 606.43C172.274 606.288 172.453 606.093 172.583 605.844C172.713 605.596 172.778 605.313 172.778 604.996C172.778 604.683 172.713 604.402 172.583 604.154C172.453 603.902 172.274 603.704 172.046 603.562C171.818 603.415 171.562 603.34 171.277 603.336ZM177.82 609.989H176.904V599.137H177.82V609.989ZM177.209 604.508H175.134V603.714H177.209V604.508ZM175.464 609.452H174.561V599.405H175.464V609.452ZM171.765 601.493H170.813V599.466H171.765V601.493ZM191.284 605.155H183.789V604.361H191.284V605.155ZM192.456 608.512H182.52V607.706H192.456V608.512ZM191.174 600.943H184.741V604.715H183.789V600.15H191.174V600.943ZM194.751 603.666C195.874 603.666 196.82 603.645 197.589 603.604C198.362 603.56 199.158 603.474 199.976 603.348L200.061 604.093C199.227 604.227 198.417 604.319 197.632 604.367C196.847 604.412 195.886 604.435 194.751 604.435H193.872V603.666H194.751ZM198.853 602.323H194.824V604.032H193.872V601.615H197.913V600.418H193.835V599.674H198.853V602.323ZM202.283 607.889H196.204V609.452H195.251V607.169H201.306V606.095H195.227V605.338H202.283V607.889ZM202.673 609.867H195.251V609.098H202.673V609.867ZM202.283 604.862H201.331V599.137H202.283V604.862ZM213.416 609.989H212.5V599.137H213.416V609.989ZM210.498 604.374H207.715V603.592H210.498V604.374ZM211.133 609.439H210.217V599.43H211.133V609.439ZM208.813 600.528C208.809 601.497 208.665 602.412 208.38 603.275C208.099 604.138 207.654 604.941 207.043 605.686C206.433 606.43 205.652 607.083 204.7 607.645L204.138 606.949C204.98 606.449 205.68 605.875 206.238 605.228C206.799 604.577 207.212 603.873 207.477 603.116C207.745 602.359 207.882 601.554 207.886 600.699V600.528H208.813ZM208.252 601.322H204.602V600.528H208.252V601.322ZM218.335 607.987H217.395V604.74H218.335V607.987ZM222.4 607.987H221.436V604.74H222.4V607.987ZM224.866 608.597H214.929V607.792H224.866V608.597ZM219.873 599.82C220.642 599.824 221.326 599.942 221.924 600.174C222.526 600.402 222.996 600.73 223.334 601.157C223.671 601.58 223.84 602.066 223.84 602.616C223.84 603.169 223.671 603.655 223.334 604.074C222.996 604.494 222.526 604.819 221.924 605.051C221.326 605.283 220.642 605.399 219.873 605.399C219.104 605.399 218.418 605.283 217.816 605.051C217.218 604.819 216.75 604.494 216.412 604.074C216.075 603.655 215.906 603.169 215.906 602.616C215.906 602.066 216.075 601.58 216.412 601.157C216.75 600.73 217.218 600.402 217.816 600.174C218.418 599.942 219.104 599.824 219.873 599.82ZM219.873 600.614C219.283 600.61 218.756 600.691 218.292 600.858C217.832 601.021 217.474 601.255 217.218 601.56C216.962 601.865 216.833 602.217 216.833 602.616C216.833 603.014 216.962 603.366 217.218 603.672C217.474 603.977 217.832 604.215 218.292 604.386C218.756 604.557 219.283 604.642 219.873 604.642C220.459 604.642 220.982 604.557 221.442 604.386C221.901 604.215 222.262 603.977 222.522 603.672C222.782 603.366 222.913 603.014 222.913 602.616C222.913 602.217 222.782 601.865 222.522 601.56C222.262 601.255 221.901 601.021 221.442 600.858C220.982 600.691 220.459 600.61 219.873 600.614ZM226.88 609.073C226.737 609.073 226.605 609.037 226.483 608.963C226.365 608.89 226.27 608.795 226.196 608.677C226.127 608.554 226.095 608.422 226.099 608.28C226.095 608.141 226.127 608.011 226.196 607.889C226.27 607.767 226.365 607.671 226.483 607.602C226.605 607.533 226.737 607.499 226.88 607.499C227.022 607.499 227.153 607.533 227.271 607.602C227.393 607.671 227.488 607.767 227.557 607.889C227.627 608.011 227.661 608.141 227.661 608.28C227.661 608.422 227.627 608.554 227.557 608.677C227.488 608.795 227.393 608.89 227.271 608.963C227.153 609.037 227.022 609.073 226.88 609.073Z" fill="#626262"/>
<rect x="41.5" y="704.5" width="42" height="42" rx="21" fill="#FCFCFE"/>
<rect x="41.5" y="704.5" width="42" height="42" rx="21" stroke="#01A4FC"/>
<path d="M63.3092 717.087L55 725.5M55 725.5L63.3092 733.913M55 725.5H69.9565" stroke="#01A4FC" stroke-width="2" stroke-linecap="round" stroke-linejoin="round"/>
<circle opacity="0.6" cx="168" cy="726" r="4" fill="#01A4FC"/>
<circle opacity="0.6" cx="186" cy="726" r="4" fill="#01A4FC"/>
<circle cx="206" cy="726" r="6" fill="#01A4FC"/>
<rect x="292.5" y="704.5" width="42" height="42" rx="21" fill="#01A4FC"/>
<rect x="292.5" y="704.5" width="42" height="42" rx="21" stroke="#01A4FC"/>
<path d="M312.647 733.913L320.957 725.5ZM320.957 725.5L312.647 717.087ZM320.957 725.5H306Z" fill="#01A4FC"/>
<path d="M312.647 733.913L320.957 725.5M320.957 725.5L312.647 717.087M320.957 725.5H306" stroke="white" stroke-width="2" stroke-linecap="round" stroke-linejoin="round"/>
<defs>
<clipPath id="clip0_18_818">
<rect width="335" height="293" fill="white" transform="translate(20 141)"/>
</clipPath>
</defs>
</svg>
