<svg width="393" height="852" viewBox="0 0 393 852" fill="none" xmlns="http://www.w3.org/2000/svg">
<rect width="393" height="852" fill="#FAFBFC"/>
<g clip-path="url(#clip0_30_246)">
<path d="M76.714 277.26C106.029 276.992 135.229 277.328 164.584 276.748C164.747 276.72 164.913 276.726 165.073 276.766C165.233 276.806 165.383 276.879 165.513 276.981C165.643 277.083 165.75 277.211 165.828 277.357C165.905 277.502 165.951 277.663 165.962 277.828C165.974 277.992 165.95 278.157 165.894 278.312C165.837 278.468 165.749 278.609 165.634 278.728C165.52 278.846 165.381 278.94 165.228 279.002C165.075 279.064 164.911 279.093 164.746 279.087C135.728 279.664 105.881 280.323 76.8761 279.555C75.2005 279.511 74.9975 277.275 76.714 277.26ZM142.603 232.825C147.492 254.597 117.522 266.753 103.886 252.974C97.624 246.651 96.6484 236.359 100.051 228.401C108.605 208.405 138.412 214.154 142.603 232.825ZM139.889 230.374C138.964 227.993 137.547 225.834 135.731 224.037C133.915 222.241 131.74 220.847 129.35 219.947C116.568 215.471 104.19 218.036 100.49 232.325C98.5361 239.868 100.642 249.005 107.267 253.641C122.491 264.292 147.749 249.501 139.889 230.374ZM77.7866 211.685C77.7866 210.957 76.6064 210.976 76.5398 211.676C74.949 228.418 75.7368 245.959 75.7959 262.796C75.805 265.319 76.6867 265.504 78.2654 265.608C103.358 267.259 137.814 266.334 162.857 265.223C163.766 265.182 163.787 263.646 162.857 263.628C134.878 263.105 105.446 265.029 77.9169 263.378C78.3502 246.492 77.876 228.669 77.7866 211.685ZM165.361 263.914C165.457 264.66 166.935 264.76 166.92 263.925C166.593 246.342 166.743 228.625 166.288 211.098C166.226 208.69 166.184 208.893 163.57 208.791C136.764 207.747 106.869 208.262 80.1727 209.8C79.97 209.809 79.7794 209.899 79.6427 210.049C79.5061 210.199 79.4346 210.397 79.444 210.6C79.4535 210.803 79.543 210.993 79.6931 211.13C79.8431 211.267 80.0412 211.338 80.2439 211.329C108.243 211.232 136.543 210.101 164.51 211.007C163.49 224.938 163.625 250.258 165.361 263.914ZM129.937 236.968C126.648 235.04 122.026 232.019 118.34 229.999C115.88 228.653 115.687 230.496 117.449 231.714C119.932 233.432 124.541 235.635 127.724 237.858C124.073 240.109 120.573 242.482 116.857 244.724C116.325 239.827 116.078 235.007 115.377 230.095C115.253 229.215 114.028 229.472 114.051 230.307C114.203 235.746 114.947 241.088 115.131 246.454C115.155 246.598 115.212 246.736 115.297 246.855C115.382 246.974 115.493 247.072 115.622 247.142C115.75 247.212 115.893 247.252 116.04 247.258C116.186 247.264 116.332 247.237 116.466 247.178C121.261 244.666 125.844 241.766 130.168 238.509C130.281 238.405 130.367 238.275 130.418 238.13C130.469 237.985 130.484 237.83 130.461 237.678C130.439 237.526 130.379 237.382 130.288 237.258C130.196 237.134 130.076 237.035 129.937 236.968ZM220.775 223.424C224.781 223.167 224.643 220.578 220.515 220.866C207.892 221.747 194.97 221.506 182.32 221.182C176.754 221.04 176.201 223.352 181.914 223.568C194.269 224.036 208.484 224.214 220.775 223.424ZM233.163 267.591C233.383 263.43 233.357 259.259 233.086 255.1C233.029 254.467 231.874 254.38 231.767 255.023C231.226 258.259 231.911 264.146 231.779 267.661C231.753 268.417 233.12 268.352 233.163 267.591ZM78.3184 180.42C94.3137 180.373 213.497 179.605 219.803 179.859C233.673 180.421 234.498 196.676 232.832 196.933C231.059 197.209 65.8484 196.135 64.1062 195.994C62.8911 195.897 62.3215 180.467 78.3184 180.42ZM220.939 192.274C221.386 192.206 221.813 192.04 222.189 191.789C222.565 191.537 222.881 191.205 223.115 190.818C223.348 190.43 223.493 189.996 223.54 189.546C223.586 189.095 223.533 188.641 223.384 188.213C223.235 187.786 222.994 187.397 222.677 187.073C222.361 186.75 221.977 186.5 221.553 186.342C221.129 186.183 220.676 186.12 220.225 186.157C219.774 186.193 219.336 186.329 218.944 186.554C218.372 186.941 217.944 187.507 217.726 188.163C217.509 188.819 217.515 189.529 217.742 190.181C217.97 190.834 218.407 191.393 218.985 191.771C219.563 192.15 220.25 192.327 220.939 192.274ZM207.136 191.258C207.6 191.807 208.24 192.179 208.947 192.31C209.655 192.441 210.385 192.324 211.016 191.978C211.595 191.584 212.031 191.014 212.26 190.352C212.489 189.69 212.498 188.973 212.287 188.305C212.04 187.642 211.577 187.081 210.972 186.713C210.367 186.345 209.656 186.192 208.954 186.278C208.419 186.362 207.917 186.588 207.499 186.931C207.081 187.275 206.763 187.724 206.578 188.232C206.392 188.741 206.346 189.289 206.444 189.821C206.542 190.353 206.781 190.849 207.136 191.258ZM195.72 191.447C196.231 191.877 196.861 192.139 197.526 192.198C198.19 192.257 198.857 192.11 199.435 191.778C199.911 191.498 200.299 191.092 200.558 190.605C200.817 190.118 200.935 189.569 200.901 189.018C200.866 188.468 200.679 187.938 200.361 187.487C200.043 187.037 199.606 186.683 199.099 186.466C198.423 186.266 197.702 186.278 197.033 186.5C196.364 186.722 195.779 187.144 195.357 187.708C194.968 188.275 194.791 188.96 194.857 189.644C194.924 190.328 195.229 190.967 195.72 191.447ZM231.752 200.612C232.018 213.897 230.843 227.188 231.547 240.567C231.588 241.35 232.91 241.295 232.895 240.536C232.682 227.356 234.071 213.721 233.127 200.581C233.071 199.79 231.736 199.833 231.752 200.612ZM222.166 210.064C207.275 210.759 192.681 209.77 177.855 209.761C177.272 209.761 177.163 210.821 177.731 211.062C182.29 213.031 215.482 212.806 222.23 212.298C222.511 212.268 222.77 212.134 222.956 211.921C223.141 211.709 223.24 211.434 223.232 211.151C223.224 210.869 223.11 210.6 222.912 210.399C222.715 210.197 222.448 210.077 222.166 210.064ZM74.6248 298.493C85.2434 298.549 96.3772 299.524 104.835 298.906C105.605 298.85 105.708 297.55 104.902 297.528C94.891 297.24 85.3056 296.596 75.8323 296.387C69.4208 296.244 65.8514 293.695 65.197 287.001C63.1184 265.717 65.7196 204.078 65.2727 198.828C65.2619 198.645 65.1856 198.471 65.0577 198.339C64.9299 198.207 64.7589 198.125 64.5757 198.107C64.3925 198.09 64.2093 198.14 64.0593 198.246C63.9092 198.352 63.8022 198.509 63.7577 198.687C63.3365 200.778 62.6881 226.295 62.4609 246.039C62.3185 258.548 61.764 275.828 63.076 287.874C63.7729 294.261 68.0694 298.458 74.6248 298.493ZM189.892 296.428C171.721 297.547 150.82 296.811 132.075 297.284C131.269 297.305 131.266 298.684 132.084 298.705C150.648 299.2 171.383 298.362 189.906 298.382C191.015 298.379 191.016 296.358 189.892 296.428ZM180.534 234.01C178.387 234.519 178.669 235.906 180.837 235.908C184.267 235.908 187.973 235.522 191.527 235.481C193.799 235.455 194.772 233.663 191.072 233.375C187.547 233.21 184.014 233.423 180.534 234.011V234.01ZM238.769 325.455C237.156 320.683 234.705 316.237 231.529 312.326C231.074 311.72 231.832 310.791 232.467 311.317C236.453 314.961 239.224 319.741 240.407 325.011C245.139 323.74 250.118 323.7 254.87 324.896C259.621 326.093 263.988 328.485 267.554 331.845C268.493 307.546 248.135 291.034 227.861 289.534C224.873 296.476 211.734 299.196 209.283 292.004C199.056 294.036 184.32 301.397 179.034 310.164C184.014 309.944 189.005 310.147 193.951 310.77C195.46 310.946 196.864 311.63 197.933 312.71C199.002 313.789 199.672 315.2 199.833 316.711C200.084 322.267 200.753 327.797 201.835 333.253C204.432 326.531 210.561 324.842 216.033 324.717C220.78 324.607 232.274 327.003 238.769 325.455ZM234.877 276.725C243.763 274.865 252.886 274.414 261.912 275.387C270.732 276.312 276.314 277.481 278.397 287.16C281.504 301.607 278.268 324.843 273.291 338.749C269.007 350.718 261.159 349.586 250.687 350.381C249.883 350.442 249.668 351.828 250.553 351.857C260.515 352.183 268.93 351.789 273.499 343.676C280.542 331.174 283.095 303.226 281.03 288.922C279.675 279.551 275.697 275.04 266.139 273.795C256.34 272.518 243.891 272.241 234.444 275.293C234.254 275.352 234.095 275.483 234.002 275.658C233.908 275.833 233.889 276.038 233.947 276.228C234.005 276.418 234.136 276.577 234.311 276.67C234.487 276.763 234.692 276.783 234.881 276.725H234.877ZM279.859 279.248C286.267 281.564 293.2 284.052 297.859 289.28C308.345 301.05 302.738 320.39 300.131 334.145C297.228 349.422 294.457 364.724 291.567 380.001C290.658 384.778 292.476 386.263 293.321 381.992C296.351 366.749 299.199 351.433 302.108 336.165C304.873 321.671 310.548 302.4 300.923 289.351C296.019 282.703 287.97 280.126 280.356 277.989C279.541 277.76 279.029 278.945 279.863 279.248H279.859ZM242.817 414.537C242.458 416.026 244.688 416.446 245.056 414.875C248.365 400.825 252.858 384.12 254.458 370.182C255.726 359.141 254.822 352.028 242.338 350.842C232.315 349.891 224.022 353.917 222.198 364.454C219.813 378.227 221.236 400.481 221.731 415.183C221.737 415.362 221.813 415.532 221.941 415.657C222.069 415.782 222.241 415.853 222.42 415.855C222.6 415.857 222.773 415.79 222.904 415.668C223.035 415.545 223.114 415.377 223.124 415.198C223.548 400.493 222.878 385.363 223.758 370.798C224.364 360.82 226.752 353.433 238.302 352.849C250.989 352.21 253.525 357.047 252.412 368.866C250.992 383.863 245.156 404.874 242.822 414.534L242.817 414.537ZM304.326 392.57C305.69 389.952 310.242 385.298 312.89 385.279C315.095 385.267 313.678 389.597 314.377 392.038C320.064 392.538 321.114 392.47 324.927 396.19C325.415 396.665 326.001 396.416 325.585 395.721C324.716 394.224 323.492 392.965 322.02 392.055C323.959 389.138 327.019 387.438 327.943 387.564C329.678 387.802 327.509 393.662 328.624 398.308C329.381 401.446 330.728 405.091 329.425 408.771C328.412 411.633 326.78 414.239 321.85 415.798C317.323 417.228 308.753 416.14 304.893 413.998C310.53 410.575 308.482 402.169 299.836 404.932C288.114 408.679 282.21 409.524 269.875 407.453C269.005 407.301 268.802 408.271 269.708 408.442C279.602 410.542 289.875 409.98 299.481 406.814C304.159 405.337 307.458 408.27 305.217 411.383C302.944 414.539 296.862 415.705 293.174 416.266C283.846 417.416 274.409 417.359 265.095 416.096C255.551 414.946 260.43 390.605 285.305 387.281C291.696 386.424 298.189 387.719 303.762 390.961C301.852 394.173 300.669 397.766 300.299 401.485C300.248 402.208 301.04 402.04 301.208 401.334C301.866 398.287 302.919 395.34 304.338 392.565L304.326 392.57ZM279.366 390.244C277.245 391.358 275.205 395.589 276.174 399.442C276.37 400.216 277.15 400.292 277.148 399.475C277.148 395.839 278.474 394.362 280.153 391.615C280.704 390.729 280.247 389.784 279.379 390.24L279.366 390.244ZM286.758 388.515C284.791 389.872 283.378 391.891 282.778 394.204C282.054 396.462 281.987 398.879 282.586 401.173C282.754 401.913 283.548 401.857 283.596 401.125C283.771 398.449 284.221 394.653 286.164 392.168C286.767 391.392 287.318 390.576 287.811 389.726C288.381 388.776 287.494 388.12 286.77 388.511L286.758 388.515ZM293.033 390.002C291.596 391.252 290.493 392.842 289.826 394.627C289.16 396.412 288.95 398.335 289.215 400.222C289.367 400.979 290.168 401.107 290.259 400.278C290.678 397.019 292.206 394.004 294.586 391.739C296.739 389.565 295.033 388.246 293.045 389.997L293.033 390.002ZM322.708 403.906C323.082 403.685 323.526 403.608 323.953 403.692C324.38 403.776 324.762 404.014 325.026 404.361C325.619 405.179 326.253 404.718 325.915 403.706C325.764 403.359 325.53 403.053 325.233 402.816C324.937 402.58 324.587 402.42 324.214 402.35C323.841 402.279 323.457 402.302 323.095 402.414C322.733 402.527 322.404 402.727 322.136 402.996C322.042 403.083 321.981 403.201 321.965 403.329C321.948 403.456 321.978 403.586 322.047 403.694C322.117 403.802 322.223 403.882 322.346 403.92C322.469 403.958 322.601 403.952 322.72 403.902L322.708 403.906ZM316.785 405.741C316.881 406.45 318.141 407.894 318.94 407.862C319.878 407.818 321.193 406.835 321.1 405.893C321.008 404.95 316.658 404.696 316.791 405.736L316.785 405.741ZM312.109 403.555C312.441 403.202 312.885 402.975 313.365 402.911C313.845 402.846 314.333 402.949 314.746 403.202C315.528 403.782 316.226 403.059 315.56 402.388C315.264 402.081 314.9 401.848 314.497 401.707C314.094 401.567 313.664 401.523 313.241 401.58C312.818 401.637 312.415 401.792 312.063 402.034C311.712 402.276 311.422 402.597 311.218 402.972C310.815 403.646 311.663 403.988 312.121 403.55L312.109 403.555ZM145.416 331.618C145.736 328.944 145.898 327.629 143.047 327.491C134.857 327.094 129.035 329.158 124.008 333.074C121.168 335.244 118.812 337.981 117.087 341.11C115.363 344.24 114.309 347.695 113.992 351.254C113.97 351.426 114.015 351.6 114.119 351.74C114.222 351.879 114.375 351.974 114.546 352.003C114.717 352.033 114.892 351.996 115.036 351.899C115.181 351.802 115.282 351.654 115.319 351.484C116.391 344.849 119.863 338.838 125.076 334.595C130.465 330.388 137.288 328.461 144.081 329.226C143.59 336.322 140.675 343.034 135.825 348.238C130.068 354.372 125.291 355.737 117.652 357.467C117.499 357.512 117.367 357.61 117.279 357.744C117.192 357.877 117.155 358.038 117.175 358.196C117.195 358.355 117.271 358.501 117.39 358.608C117.508 358.716 117.661 358.777 117.82 358.782C124.468 358.699 132.501 354.176 137.014 349.444C141.607 344.525 144.545 338.292 145.416 331.618ZM202.963 415.236C200.724 410.325 195.16 404.025 189.101 405.249C185.314 406.006 181.146 410.059 179.296 413.342C178.324 415.067 178.761 417.049 180.944 417.323C186.005 417.779 191.09 417.911 196.167 417.719C201.893 417.788 207.61 417.256 213.225 416.132C214.102 415.902 213.667 414.707 212.899 414.692C209.599 414.628 206.272 414.998 202.963 415.236ZM158.648 417.307C164.354 417.629 172.132 417.61 177.537 416.273C178.377 416.066 178.002 414.875 177.234 414.875C176.466 414.875 175.665 414.902 174.881 414.93C173.654 411.924 172.154 408.87 169.191 407.247C164.422 404.641 159.386 408.403 156.109 411.718C151.879 416.002 154.279 417.06 158.648 417.307ZM97.3483 349.851C97.5381 349.841 97.7165 349.757 97.8462 349.618C97.976 349.479 98.0471 349.296 98.0448 349.105C98.0424 348.915 97.9668 348.733 97.8337 348.598C97.7005 348.462 97.5201 348.383 97.3301 348.377C89.6962 348.58 82.1321 346.876 75.3217 343.421C65.2576 338.01 59.2415 329.891 55.5146 319.347C61.6988 318.579 71.6569 318.107 80.3606 320.583C93.5411 324.329 98.9421 333.309 101.427 345.912C101.578 346.686 102.902 346.595 102.831 345.777C100.643 320.447 77.9063 315.209 56.1857 317.541C53.786 317.8 53.2906 317.935 54.245 320.453C56.4126 326.642 59.7824 332.342 64.1607 337.225C72.2144 345.629 85.5873 351.356 97.3483 349.851ZM348.563 418.952C313.087 418.043 77.2836 419.008 61.8382 419.57C61.1019 419.597 61.0807 420.846 61.8276 420.868C80.5015 421.446 99.2314 421.083 117.911 421.044C136.591 421.005 327.587 421.139 348.55 420.491C349.423 420.465 349.438 418.973 348.563 418.952ZM122.885 415.605C124.945 405.451 126.48 395.198 127.483 384.886C129.627 384.722 129.874 384.492 130.312 382.243C130.722 380.399 131.013 378.531 131.184 376.65C131.351 373.971 131.739 372.802 128.677 372.737C116.063 372.46 100.709 372.341 88.2431 373.191C88.0727 373.203 87.9134 373.28 87.7985 373.406C87.6837 373.533 87.6222 373.699 87.6271 373.869C87.632 374.04 87.7029 374.202 87.8248 374.322C87.9467 374.441 88.1102 374.509 88.281 374.511C101.868 375.367 116.351 373.678 129.489 374.837C129.47 377.586 129.149 380.325 128.532 383.004C115.048 383.939 102.233 383.805 88.7522 383.64C87.8601 380.838 87.1889 377.97 86.7448 375.062C86.6145 374.293 85.3162 374.32 85.3359 375.138C85.4442 378.099 85.9936 381.027 86.966 383.825C87.4553 385.292 88.5295 385.523 90.0945 385.513C102.214 385.431 113.744 385.775 125.915 384.998C124.658 396.84 122.734 404.629 121.446 413.664C120.99 416.852 122.532 417.485 122.885 415.605ZM154.927 354.467C155.639 354.483 155.927 353.334 155.167 353.18C150.584 352.246 145.415 351.924 141.548 355.061C136.72 358.979 138.541 367.018 139.399 372.494C141.015 382.807 146.368 405.088 150.44 415.769C150.778 416.655 152.223 416.072 151.975 415.208C148.734 403.879 143.962 387.62 141.421 372.296C140.798 368.536 139.427 362.133 141.118 358.681C143.604 353.636 150.293 354.363 154.927 354.467ZM90.0505 388.137C90.452 393.936 93.3275 410.256 95.4561 415.296C95.5396 415.456 95.6765 415.582 95.8431 415.652C96.0097 415.722 96.1956 415.732 96.3684 415.679C96.5412 415.626 96.6902 415.515 96.7895 415.364C96.8887 415.213 96.9321 415.032 96.912 414.852C94.7137 405.921 93.173 399.248 91.3989 387.905C91.2656 387.052 89.996 387.3 90.0505 388.137ZM107.322 332.459C107.415 332.604 107.56 332.708 107.728 332.749C107.895 332.789 108.072 332.764 108.221 332.677C108.371 332.591 108.481 332.45 108.529 332.284C108.577 332.119 108.559 331.941 108.479 331.788C104.844 325.305 103.661 317.73 105.146 310.448C106.285 305.309 108.783 300.572 112.379 296.729C115.975 292.886 120.537 290.079 125.588 288.601C127.397 295.105 127.865 301.909 126.964 308.599C125.2 320.136 120.622 326.264 113.365 334.634C112.827 335.256 113.697 336.215 114.36 335.695C119.045 332.083 123.315 325.282 125.585 319.848C129.56 310.332 130.51 298.388 127.136 288.519C126.504 286.668 126.312 286.532 124.49 287.101C118.022 289.152 112.387 293.232 108.421 298.738C104.924 303.621 102.952 309.432 102.756 315.435C102.56 321.438 104.147 327.365 107.319 332.467L107.322 332.459ZM107.602 370.879C107.618 371.728 109.068 371.74 109.099 370.879C109.126 370.131 109.155 369.382 109.187 368.631C115.896 354.383 122.555 346.608 134.748 336.795C135.323 336.331 134.596 335.244 133.917 335.583C124.702 340.208 113.63 354.866 109.388 364.416C110.364 343.458 112.083 328.39 117.371 307.401C117.564 306.634 116.272 306.277 116.019 307.042C111.054 322.105 108.503 342.426 107.743 358.297C102.034 345.382 90.3854 335.045 77.526 329.606C76.7155 329.264 76.2762 330.515 77.0609 330.882C90.9989 337.245 101.228 348.666 107.6 362.412C107.535 365.23 107.546 368.048 107.599 370.879H107.602Z" fill="#38A1FF"/>
<path d="M211.976 334.359C210.734 335.978 209.696 336.162 208.896 338.47C208.295 340.271 208.374 342.229 209.117 343.976C209.186 344.132 209.191 344.308 209.133 344.468C209.074 344.628 208.957 344.759 208.804 344.834C208.651 344.909 208.475 344.922 208.313 344.871C208.15 344.819 208.014 344.707 207.933 344.558C207.357 343.568 206.993 342.469 206.864 341.331C206.736 340.192 206.845 339.04 207.186 337.946C207.719 336.234 209.396 333.654 211.255 333.265C211.392 333.241 211.534 333.257 211.662 333.312C211.789 333.367 211.899 333.459 211.975 333.575C212.052 333.691 212.093 333.827 212.093 333.967C212.093 334.106 212.053 334.242 211.976 334.359ZM216.267 337.895C216.343 337.8 216.393 337.687 216.411 337.567C216.43 337.447 216.416 337.325 216.371 337.212C216.326 337.099 216.252 337 216.156 336.926C216.06 336.851 215.946 336.803 215.826 336.787C213.875 336.716 212.244 339.389 211.952 341.079C211.769 342.117 211.892 343.186 212.308 344.155C212.723 345.124 213.413 345.951 214.291 346.533C214.431 346.633 214.605 346.676 214.775 346.652C214.946 346.628 215.101 346.539 215.208 346.404C215.315 346.269 215.367 346.099 215.352 345.927C215.337 345.755 215.256 345.596 215.127 345.482C214.568 344.956 214.141 344.304 213.885 343.58C213.628 342.856 213.548 342.081 213.652 341.32C214.052 339.025 215.638 338.511 216.267 337.895ZM265.262 331.467C265.11 330.586 263.747 330.686 263.747 331.527C263.785 337.304 261.836 343.312 251.804 345.3C240.778 347.333 229.393 345.026 220.028 338.861C219.892 338.765 219.723 338.727 219.558 338.754C219.393 338.782 219.246 338.873 219.147 339.008C219.049 339.144 219.008 339.312 219.033 339.477C219.059 339.643 219.148 339.791 219.282 339.892C228.362 346.891 240.946 349.309 252.134 347.215C260.499 345.647 266.851 340.932 265.262 331.467ZM222.893 348.548C221.718 348.659 205.192 349.142 204.066 348.579C202.941 348.015 198.461 333.644 197.375 319.744C197.063 315.739 196.435 313.894 191.557 313.176C187.606 312.593 156.471 312.884 153.703 313.176C151.325 313.426 149.517 314.361 149.714 319.121C150.182 330.438 156.156 351.693 159.377 353.425C162.88 355.302 218.601 354.82 222.752 353.987C226.176 353.299 225.552 348.298 222.893 348.548ZM173.685 329.124C169.246 329.285 170.418 338.669 175.75 338.46C180.516 338.278 179.299 328.921 173.685 329.124ZM182.293 394.532C182.088 393.774 180.91 394.068 180.963 394.822C181.093 396.648 182.334 402.959 182.9 405.906C183.014 406.5 184.035 406.188 184.135 405.643C184.37 404.356 182.758 396.26 182.293 394.532ZM190.589 394.38C190.203 393.774 189.156 394.198 189.416 394.91C190.693 397.907 191.712 401.007 192.46 404.178C192.611 404.915 193.801 404.731 193.774 403.955C193.409 400.571 192.325 397.305 190.592 394.375L190.589 394.38ZM207.792 403.846C206.753 400.857 206.202 397.72 206.16 394.556C206.146 394.4 206.077 394.254 205.966 394.145C205.854 394.035 205.707 393.969 205.551 393.958C205.395 393.947 205.24 393.992 205.115 394.085C204.989 394.178 204.9 394.313 204.865 394.465C204.485 397.412 204.764 400.406 205.683 403.232C206.592 406.146 208.627 408.612 208.146 411.716C208.112 411.889 208.141 412.067 208.228 412.22C208.315 412.373 208.454 412.489 208.62 412.547C208.786 412.605 208.967 412.602 209.13 412.538C209.294 412.473 209.428 412.352 209.51 412.196C211.029 409.506 208.719 406.318 207.792 403.841V403.846ZM168.502 394.778C168.422 394.643 168.297 394.541 168.149 394.49C168.001 394.439 167.84 394.442 167.694 394.499C167.548 394.556 167.427 394.663 167.353 394.801C167.279 394.94 167.256 395.1 167.29 395.253C167.838 397.828 170.155 402.781 168.603 405.1C168.534 405.218 168.501 405.353 168.508 405.489C168.515 405.625 168.562 405.755 168.643 405.865C168.723 405.975 168.834 406.059 168.962 406.106C169.089 406.153 169.228 406.162 169.361 406.132C172.541 405.102 169.779 396.716 168.502 394.774V394.778ZM182.417 381.365C180.64 374.385 178.584 362.609 184.394 357.049C175.321 356.914 167.758 356.746 165.884 356.746C162.443 356.746 158.241 357.561 157.188 362.471C155.899 368.489 160.44 382.142 164.881 392.086C170.774 392.433 176.683 392.412 182.573 392.024C182.287 388.477 182.232 384.915 182.411 381.36L182.417 381.365ZM187.744 357.096C178.048 363.398 185.032 384.133 187.939 392.395C194.226 392.748 200.529 392.727 206.813 392.33C206.1 389.265 205.974 380.947 207.349 379.195C208.725 377.444 212.859 377.612 219.03 377.694C219.076 370.564 218.736 359.835 223.051 356.457C219.204 357.326 202.267 357.282 187.744 357.091V357.096ZM243.496 325.319C234.295 328.893 229.478 327.667 220.165 327.234C213.758 326.931 204.93 328.621 203.18 335.99C203.135 336.158 203.157 336.336 203.242 336.487C203.326 336.638 203.466 336.751 203.632 336.8C203.798 336.85 203.977 336.832 204.13 336.752C204.284 336.672 204.4 336.535 204.454 336.371C207.369 328.768 216.271 328.608 223.125 329.224C229.979 329.841 238.027 330.403 244.138 326.531C244.299 326.447 244.421 326.302 244.475 326.128C244.53 325.955 244.513 325.766 244.429 325.605C244.345 325.444 244.2 325.322 244.026 325.268C243.853 325.213 243.665 325.23 243.503 325.314L243.496 325.319ZM241.087 290.989C233.932 285.123 231.892 272.21 229.056 266.087C223.418 253.906 211.314 250.107 198.797 252.92C189.041 255.112 189.175 265.555 203.544 264.352C211.208 263.71 214.861 261.777 214.888 261.763C215.749 265.125 219.5 270.265 219.942 269.315C221.024 266.985 223.31 267.97 223.683 270.112C224.223 273.221 222.525 274.787 220.762 274.719C220.133 274.695 223.266 285.605 224.046 287.641C224.251 288.174 224.933 288.085 225.423 288.095C230.772 288.154 236.07 289.133 241.087 290.989ZM239.084 249.158C231.255 243.024 217.464 236.169 207.484 235.584C206.831 235.503 206.168 235.589 205.557 235.834C196.467 238.341 183.547 244.683 176.318 250.693C175.872 251.063 176.222 251.702 176.681 251.84C181.544 253.104 186.339 254.618 191.047 256.376C191.921 256.742 192.287 255.348 191.454 254.989C187.233 253.23 182.86 251.857 178.39 250.888C186.502 245.506 197.426 238.885 206.954 236.906C216.255 237.487 229.574 243.866 237.03 249.498C231.585 250.649 226.221 252.152 220.971 253.999C220.817 254.058 220.691 254.173 220.62 254.322C220.548 254.471 220.537 254.641 220.587 254.799C220.638 254.956 220.746 255.088 220.891 255.167C221.035 255.246 221.205 255.267 221.365 255.226C227.534 253.582 232.544 251.838 238.813 250.597C238.955 250.551 239.083 250.467 239.182 250.355C239.281 250.242 239.347 250.105 239.375 249.958C239.403 249.811 239.39 249.659 239.339 249.518C239.288 249.378 239.2 249.253 239.084 249.158ZM175.554 274.583C176.715 277.128 177.322 279.891 177.333 282.688C177.254 283.406 176.228 283.374 176.007 282.775C175.66 281.829 175.53 280.626 175.218 279.604C175.104 281.432 175.147 283.256 175.047 285.082C175.053 285.256 174.991 285.427 174.874 285.556C174.757 285.685 174.593 285.764 174.419 285.775C174.245 285.786 174.073 285.728 173.941 285.614C173.808 285.5 173.726 285.339 173.71 285.165C173.495 283.365 173.397 281.553 173.419 279.74C172.9 280.997 172.5 282.3 172.227 283.632C172.193 283.795 172.096 283.937 171.957 284.028C171.818 284.119 171.649 284.151 171.486 284.117C171.324 284.083 171.181 283.986 171.091 283.847C171 283.708 170.968 283.539 171.002 283.376C171.311 280.749 171.948 278.17 172.897 275.701C173.307 274.953 174.768 273.318 175.554 274.583ZM175.716 253.329C175.768 253.185 175.869 253.064 176.002 252.988C176.134 252.912 176.29 252.886 176.44 252.914C176.59 252.943 176.725 253.024 176.821 253.143C176.917 253.262 176.967 253.411 176.963 253.564C176.006 259.587 175.554 265.68 175.613 271.779C175.613 272.676 174.28 272.563 174.25 271.698C174.054 265.54 174.546 259.379 175.716 253.329ZM200.752 246.263C200.621 245.668 199.593 245.542 199.515 246.198C199.399 247.186 199.318 250.413 199.343 251.361C199.34 251.544 199.408 251.72 199.532 251.854C199.657 251.987 199.828 252.068 200.011 252.077C200.193 252.087 200.372 252.026 200.51 251.906C200.648 251.787 200.735 251.619 200.752 251.437C200.868 249.714 200.868 247.986 200.752 246.263ZM215.093 245.354C211.016 243.464 206.406 243.062 202.064 244.219C201.981 244.24 201.903 244.278 201.835 244.33C201.768 244.382 201.711 244.447 201.67 244.521C201.628 244.596 201.602 244.678 201.594 244.763C201.585 244.848 201.594 244.934 201.62 245.015C201.646 245.096 201.688 245.172 201.744 245.236C201.8 245.301 201.868 245.353 201.945 245.39C202.022 245.427 202.106 245.448 202.191 245.451C202.276 245.455 202.361 245.441 202.441 245.41C206.599 244.619 210.9 245.119 214.765 246.843C214.551 248.535 214.528 250.246 214.694 251.943C214.7 252.126 214.778 252.3 214.911 252.425C215.044 252.551 215.222 252.619 215.405 252.613C215.589 252.608 215.762 252.53 215.888 252.396C216.014 252.263 216.081 252.085 216.076 251.902C215.811 246.281 216.676 246.224 215.093 245.354ZM212.382 287.956C214.708 286.938 216.768 285.399 218.404 283.458C218.889 282.905 218.015 282.134 217.474 282.594C214.78 284.879 211.963 287.58 208.128 287.17C204.045 286.732 202.859 282.572 202.012 279.195C201.811 278.389 200.555 278.589 200.726 279.426C201.544 283.394 203.06 287.789 207.612 288.544C208.762 288.729 209.939 288.674 211.067 288.38C211.275 289.724 211.037 291.025 211.143 292.168C211.17 292.321 211.251 292.46 211.372 292.559C211.493 292.657 211.646 292.709 211.802 292.704C211.958 292.7 212.107 292.639 212.221 292.533C212.336 292.427 212.409 292.283 212.426 292.128C212.583 290.74 212.568 289.338 212.382 287.954V287.956ZM214.537 277.82C214.495 277.665 214.4 277.53 214.267 277.44C214.134 277.35 213.974 277.31 213.814 277.328C213.655 277.347 213.507 277.422 213.399 277.54C213.29 277.658 213.228 277.812 213.223 277.972C213.464 280.37 211.135 280.926 209.322 281.414C209.165 281.459 209.032 281.563 208.951 281.704C208.869 281.845 208.846 282.012 208.885 282.17C208.924 282.328 209.023 282.465 209.161 282.551C209.299 282.638 209.466 282.667 209.625 282.634C211.911 282.42 215.215 281.287 214.537 277.819V277.82ZM207.289 277.419C206.803 277.557 206.292 277.574 205.798 277.469C206.004 276.748 206.218 276.033 206.386 275.303C206.434 275.144 206.417 274.972 206.339 274.825C206.261 274.679 206.128 274.569 205.97 274.52C205.811 274.471 205.639 274.487 205.492 274.564C205.345 274.641 205.234 274.773 205.184 274.931C204.927 275.629 204.699 276.336 204.5 277.052C204.414 277.236 204.375 277.438 204.385 277.641C204.396 277.843 204.455 278.04 204.558 278.214C204.662 278.389 204.806 278.535 204.979 278.641C205.151 278.748 205.347 278.81 205.55 278.823C206.29 278.965 207.055 278.923 207.775 278.701C207.868 278.675 207.954 278.631 208.029 278.57C208.103 278.51 208.164 278.434 208.208 278.349C208.252 278.263 208.277 278.169 208.282 278.073C208.287 277.977 208.273 277.881 208.239 277.791C208.204 277.701 208.152 277.62 208.084 277.551C208.017 277.483 207.936 277.429 207.846 277.394C207.757 277.359 207.661 277.343 207.565 277.347C207.469 277.351 207.375 277.375 207.289 277.417V277.419ZM201.811 274.465C201.776 273.915 201.547 273.298 200.912 273.253C199.315 273.144 199.932 276.081 201.18 275.933C201.851 275.856 201.844 274.963 201.811 274.463V274.465ZM210.893 271.457C210.852 271.311 210.779 271.175 210.678 271.061C210.578 270.946 210.453 270.856 210.313 270.797C210.172 270.737 210.02 270.71 209.868 270.718C209.716 270.726 209.568 270.768 209.434 270.841C209.188 271.044 209.021 271.327 208.963 271.641C208.906 271.955 208.961 272.279 209.119 272.556C209.795 274.124 211.779 273.747 210.893 271.457ZM217.226 268.2C216.055 267.886 214.823 267.884 213.652 268.193C211.193 263.173 205.698 263.97 206.13 269.949C205.79 269.898 205.444 269.919 205.113 270.009C204.782 270.099 204.473 270.256 204.206 270.471C203.954 269.705 203.511 269.015 202.919 268.466C202.327 267.918 201.606 267.529 200.823 267.335C197.213 266.747 196.544 271.548 197.187 274.153C197.688 276.178 199.244 278.32 201.591 278.03C205.116 277.593 204.432 272.229 204.535 272.091C204.708 271.8 204.973 271.576 205.288 271.454C205.603 271.332 205.95 271.319 206.274 271.417C206.728 273.909 208.698 276.846 211.605 276.157C214.397 275.495 214.787 271.741 214.131 269.45C215.121 269.344 216.119 269.336 217.111 269.429C217.246 269.401 217.369 269.33 217.461 269.227C217.554 269.123 217.61 268.993 217.622 268.855C217.635 268.717 217.602 268.579 217.529 268.461C217.457 268.343 217.348 268.252 217.22 268.2H217.226ZM211.602 274.634C213.622 273.688 212.966 269.902 212.216 268.517C211.625 267.42 210.167 265.726 208.748 266.403C207.513 266.991 207.172 268.779 207.536 270.524C208.107 273.36 209.333 275.695 211.596 274.634H211.602ZM203.098 271.877C202.836 270.23 201.994 268.741 200.352 268.696C198.262 268.641 198.099 272.204 198.412 273.678C198.694 274.993 199.737 276.771 201.318 276.654C203.236 276.515 203.279 273.057 203.092 271.877H203.098Z" fill="#191919"/>
</g>
<path d="M63.5802 507.542H52.9112V496.86H63.5802V507.542ZM55.9996 505.088H60.5162V499.351H55.9996V505.088ZM69.879 511.252H66.7662V495.042H69.879V511.252ZM72.8819 504.001H68.9757V501.438H72.8819V504.001ZM70.6725 516.868H55.4625V514.353H70.6725V516.868ZM58.5753 515.598H55.4625V509.641H58.5753V515.598ZM80.3588 498.203C80.3588 499.725 80.1228 501.137 79.6508 502.439C79.1869 503.741 78.4789 504.876 77.5268 505.845C76.5827 506.805 75.4109 507.521 74.0111 507.993L72.351 505.491C73.5798 505.1 74.6011 504.535 75.4149 503.794C76.2369 503.045 76.8391 502.195 77.2216 501.243C77.6122 500.291 77.8116 499.277 77.8197 498.203V496.189H80.3588V498.203ZM80.9569 498.044C80.9488 499.078 81.1238 500.042 81.4818 500.938C81.848 501.825 82.4096 502.614 83.1664 503.306C83.9314 503.997 84.8917 504.522 86.0473 504.88L84.3749 507.31C83.0403 506.846 81.9335 506.166 81.0546 505.271C80.1757 504.376 79.5206 503.322 79.0893 502.109C78.6661 500.889 78.4545 499.534 78.4545 498.044V496.189H80.9569V498.044ZM91.2841 508.042H88.1835V495.005H91.2841V508.042ZM83.6913 508.628C85.2701 508.628 86.6332 508.799 87.7807 509.141C88.9281 509.474 89.807 509.967 90.4174 510.618C91.0359 511.269 91.3492 512.046 91.3573 512.949C91.3492 513.853 91.0359 514.626 90.4174 515.269C89.807 515.92 88.9281 516.412 87.7807 516.746C86.6332 517.079 85.2701 517.246 83.6913 517.246C82.1207 517.246 80.7616 517.079 79.6142 516.746C78.4748 516.412 77.5959 515.92 76.9774 515.269C76.3671 514.626 76.0619 513.853 76.0619 512.949C76.0619 512.046 76.3671 511.269 76.9774 510.618C77.5959 509.967 78.4748 509.474 79.6142 509.141C80.7616 508.799 82.1207 508.628 83.6913 508.628ZM83.6913 511.033C82.6985 511.041 81.8684 511.114 81.2011 511.252C80.5338 511.391 80.0251 511.602 79.6752 511.887C79.3253 512.172 79.1503 512.526 79.1503 512.949C79.1503 513.356 79.3253 513.698 79.6752 513.975C80.0251 514.251 80.5338 514.463 81.2011 514.609C81.8765 514.756 82.7066 514.829 83.6913 514.829C84.6841 514.829 85.5183 514.756 86.1937 514.609C86.8692 514.463 87.3778 514.251 87.7196 513.975C88.0696 513.698 88.2445 513.356 88.2445 512.949C88.2445 512.526 88.0736 512.172 87.7318 511.887C87.39 511.602 86.8773 511.391 86.1937 511.252C85.5183 511.114 84.6841 511.041 83.6913 511.033ZM88.6107 501.646H84.0087V499.106H88.6107V501.646ZM111.432 506.431H108.343V495.005H111.432V506.431ZM111.456 513.242H99.652V515.623H96.6125V511.021H108.356V509.666H96.5637V507.31H111.456V513.242ZM112.067 517.087H96.6125V514.695H112.067V517.087ZM100.909 498.032C100.901 499.367 100.653 500.612 100.165 501.768C99.6765 502.923 98.944 503.932 97.9675 504.795C96.9909 505.649 95.7987 506.276 94.3908 506.675L92.9748 504.221C94.1548 503.888 95.1477 503.399 95.9533 502.756C96.7671 502.105 97.3693 501.377 97.76 500.571C98.1587 499.757 98.3581 498.911 98.3581 498.032V497.104H100.909V498.032ZM101.52 498.032C101.52 498.862 101.715 499.656 102.106 500.413C102.496 501.169 103.09 501.849 103.888 502.451C104.685 503.045 105.67 503.497 106.842 503.806L105.365 506.223C103.981 505.841 102.818 505.247 101.874 504.441C100.93 503.627 100.218 502.671 99.7375 501.572C99.2655 500.474 99.0336 499.294 99.0417 498.032V497.104H101.52V498.032ZM106 498.533H93.7805V496.055H106V498.533ZM130.945 512.375H127.808V495.005H130.945V512.375ZM133.789 504.893H129.834V502.329H133.789V504.893ZM131.702 516.868H116.04V514.353H131.702V516.868ZM119.189 515.098H116.04V511.228H119.189V515.098ZM121.423 508.945H118.323V505.686H121.423V508.945ZM112.939 507.798C115.511 507.798 117.952 507.749 120.264 507.651C122.575 507.546 124.748 507.346 126.782 507.053L127.014 509.189C125.061 509.564 123.047 509.816 120.972 509.946C118.896 510.076 116.532 510.162 113.879 510.203C113.757 510.203 113.652 510.203 113.562 510.203C113.472 510.203 113.367 510.203 113.245 510.203L112.939 507.798ZM126.221 499.07H113.501V496.824H126.221V499.07ZM119.861 499.68C120.943 499.68 121.895 499.819 122.717 500.095C123.539 500.364 124.174 500.763 124.622 501.292C125.069 501.812 125.297 502.435 125.305 503.159C125.297 503.843 125.069 504.441 124.622 504.954C124.174 505.458 123.539 505.853 122.717 506.138C121.895 506.414 120.943 506.553 119.861 506.553C118.77 506.553 117.814 506.414 116.992 506.138C116.17 505.861 115.531 505.47 115.076 504.966C114.628 504.453 114.404 503.851 114.404 503.159C114.404 502.435 114.628 501.812 115.076 501.292C115.531 500.763 116.166 500.364 116.98 500.095C117.802 499.819 118.762 499.68 119.861 499.68ZM119.861 501.768C119.324 501.768 118.872 501.816 118.506 501.914C118.14 502.012 117.859 502.166 117.664 502.378C117.476 502.59 117.383 502.85 117.383 503.159C117.383 503.428 117.476 503.664 117.664 503.867C117.859 504.062 118.14 504.213 118.506 504.319C118.88 504.417 119.332 504.465 119.861 504.465C120.374 504.465 120.813 504.417 121.179 504.319C121.554 504.213 121.834 504.062 122.021 503.867C122.217 503.664 122.314 503.428 122.314 503.159C122.314 502.85 122.221 502.59 122.034 502.378C121.847 502.166 121.566 502.012 121.191 501.914C120.825 501.816 120.382 501.768 119.861 501.768ZM121.423 497.825H118.323V494.944H121.423V497.825ZM154.663 498.289H140.454V495.823H154.663V498.289ZM158.289 506.003H137.976V503.538H158.289V506.003ZM149.622 509.702H146.558V505.222H149.622V509.702ZM155.884 497.556C155.884 498.891 155.843 500.087 155.762 501.145C155.689 502.195 155.497 503.354 155.188 504.624L152.112 504.368C152.307 503.505 152.454 502.691 152.551 501.926C152.649 501.161 152.71 500.482 152.734 499.888C152.759 499.294 152.775 498.577 152.783 497.739V497.556V495.823H155.884V497.556ZM148.096 508.701C149.707 508.701 151.103 508.868 152.283 509.202C153.471 509.527 154.378 510.011 155.005 510.654C155.64 511.297 155.957 512.062 155.957 512.949C155.957 513.861 155.64 514.638 155.005 515.281C154.378 515.924 153.475 516.412 152.295 516.746C151.115 517.079 149.715 517.246 148.096 517.246C146.468 517.246 145.06 517.079 143.872 516.746C142.692 516.412 141.785 515.924 141.15 515.281C140.523 514.638 140.21 513.861 140.21 512.949C140.21 512.062 140.523 511.297 141.15 510.654C141.785 510.011 142.696 509.527 143.884 509.202C145.073 508.868 146.476 508.701 148.096 508.701ZM148.096 511.155C147.046 511.163 146.167 511.232 145.459 511.362C144.759 511.493 144.23 511.692 143.872 511.96C143.522 512.221 143.347 512.55 143.347 512.949C143.347 513.364 143.522 513.706 143.872 513.975C144.23 514.243 144.759 514.447 145.459 514.585C146.167 514.715 147.046 514.78 148.096 514.78C149.137 514.78 150.004 514.715 150.696 514.585C151.388 514.447 151.913 514.243 152.271 513.975C152.629 513.706 152.808 513.364 152.808 512.949C152.808 512.55 152.629 512.221 152.271 511.96C151.913 511.692 151.384 511.493 150.684 511.362C149.992 511.232 149.129 511.163 148.096 511.155ZM174.97 498.533H160.761V496.042H174.97V498.533ZM178.595 506.516H158.283V504.014H178.595V506.516ZM176.19 497.825C176.19 499.111 176.15 500.258 176.068 501.267C175.995 502.276 175.808 503.424 175.507 504.709L172.382 504.624C172.593 503.77 172.748 502.96 172.846 502.195C172.951 501.422 173.016 500.738 173.041 500.144C173.065 499.55 173.082 498.838 173.09 498.008V497.825V496.042H176.19V497.825ZM176.117 517.002H160.663V508.884H176.117V517.002ZM163.739 514.5H173.016V511.301H163.739V514.5ZM198.853 507.773H178.589V505.271H198.853V507.773ZM188.684 509.006C190.287 509.006 191.667 509.173 192.822 509.507C193.978 509.832 194.865 510.304 195.484 510.923C196.102 511.541 196.415 512.278 196.424 513.132C196.415 514.003 196.102 514.748 195.484 515.366C194.873 515.985 193.986 516.453 192.822 516.77C191.667 517.087 190.287 517.246 188.684 517.246C187.065 517.246 185.673 517.087 184.509 516.77C183.346 516.453 182.451 515.985 181.824 515.366C181.205 514.748 180.896 514.003 180.896 513.132C180.896 512.278 181.205 511.541 181.824 510.923C182.451 510.304 183.346 509.832 184.509 509.507C185.681 509.173 187.073 509.006 188.684 509.006ZM188.684 511.423C187.651 511.431 186.792 511.497 186.109 511.619C185.433 511.741 184.92 511.928 184.57 512.18C184.229 512.432 184.062 512.75 184.07 513.132C184.062 513.515 184.229 513.832 184.57 514.084C184.92 514.329 185.433 514.516 186.109 514.646C186.784 514.768 187.643 514.829 188.684 514.829C189.702 514.829 190.548 514.768 191.223 514.646C191.907 514.516 192.42 514.329 192.761 514.084C193.111 513.832 193.286 513.515 193.286 513.132C193.286 512.75 193.115 512.432 192.774 512.18C192.432 511.928 191.919 511.741 191.236 511.619C190.552 511.497 189.702 511.431 188.684 511.423ZM189.319 497.849C189.311 498.98 188.965 500.01 188.281 500.938C187.606 501.857 186.605 502.63 185.279 503.257C183.96 503.875 182.369 504.27 180.506 504.441L179.48 502.012C181.01 501.865 182.312 501.58 183.386 501.157C184.461 500.726 185.258 500.225 185.779 499.656C186.3 499.078 186.564 498.476 186.572 497.849V497.251H189.319V497.849ZM190.833 497.849C190.833 498.476 191.093 499.078 191.614 499.656C192.143 500.225 192.945 500.726 194.019 501.157C195.093 501.58 196.415 501.865 197.986 502.012L196.887 504.441C195.032 504.27 193.441 503.879 192.114 503.269C190.788 502.651 189.779 501.877 189.087 500.95C188.395 500.014 188.045 498.98 188.037 497.849V497.251H190.833V497.849ZM197.022 498.545H180.42V496.055H197.022V498.545ZM201.459 520.151H198.871L200.08 513.206H203.571L201.459 520.151ZM227.533 507.334H224.567V495.054H227.533V507.334ZM221.82 502.915H218.488V500.461H221.82V502.915ZM223.236 507.163H220.319V495.396H223.236V507.163ZM227.533 513.596H215.448V515.476H212.348V511.472H224.445V510.312H212.336V508.091H227.533V513.596ZM228.192 517.087H212.348V514.805H228.192V517.087ZM218.964 499.131H208.332V496.787H218.964V499.131ZM213.666 499.668C214.553 499.668 215.351 499.823 216.059 500.132C216.767 500.433 217.32 500.864 217.719 501.426C218.118 501.979 218.317 502.618 218.317 503.342C218.317 504.067 218.118 504.705 217.719 505.259C217.32 505.804 216.767 506.231 216.059 506.541C215.359 506.842 214.561 506.988 213.666 506.98C212.763 506.988 211.957 506.842 211.249 506.541C210.549 506.231 210 505.804 209.601 505.259C209.202 504.705 209.003 504.067 209.003 503.342C209.003 502.618 209.202 501.979 209.601 501.426C210 500.864 210.553 500.433 211.261 500.132C211.969 499.823 212.771 499.668 213.666 499.668ZM213.666 501.816C213.275 501.816 212.934 501.877 212.641 502C212.348 502.113 212.116 502.288 211.945 502.524C211.782 502.76 211.701 503.033 211.701 503.342C211.701 503.66 211.782 503.936 211.945 504.172C212.116 504.4 212.348 504.571 212.641 504.685C212.934 504.799 213.275 504.86 213.666 504.868C214.049 504.86 214.386 504.799 214.679 504.685C214.98 504.571 215.212 504.4 215.375 504.172C215.538 503.936 215.619 503.66 215.619 503.342C215.619 503.033 215.538 502.76 215.375 502.524C215.212 502.288 214.98 502.113 214.679 502C214.378 501.877 214.04 501.816 213.666 501.816ZM215.168 498.704H212.091V494.993H215.168V498.704ZM239.856 497.947C239.856 499.558 239.478 501.068 238.721 502.476C237.972 503.883 236.898 505.088 235.498 506.089C234.099 507.082 232.463 507.765 230.591 508.14L229.261 505.552C230.848 505.267 232.235 504.73 233.423 503.94C234.62 503.151 235.531 502.231 236.158 501.182C236.792 500.132 237.114 499.054 237.122 497.947V496.36H239.856V497.947ZM240.43 497.947C240.43 499.07 240.743 500.16 241.37 501.218C242.005 502.268 242.92 503.184 244.117 503.965C245.313 504.746 246.721 505.275 248.34 505.552L246.973 508.14C245.109 507.765 243.478 507.086 242.078 506.101C240.686 505.108 239.616 503.912 238.868 502.512C238.127 501.104 237.757 499.583 237.757 497.947V496.36H240.43V497.947ZM249.073 514.524H228.76V511.973H249.073V514.524ZM258.515 511.667H249.677V497.324H258.515V511.667ZM252.594 509.214H255.61V499.778H252.594V509.214ZM268.317 517.246H265.326V495.005H268.317V517.246ZM262.006 505.601H256.965V503.123H262.006V505.601ZM263.691 516.221H260.749V495.347H263.691V516.221ZM287.964 517.307H284.803V495.005H287.964V517.307ZM275.892 496.58C277.007 496.58 278.007 496.905 278.895 497.556C279.79 498.199 280.486 499.123 280.982 500.327C281.486 501.523 281.739 502.915 281.739 504.502C281.739 506.097 281.486 507.497 280.982 508.701C280.486 509.897 279.79 510.817 278.895 511.46C278.007 512.103 277.007 512.424 275.892 512.424C274.76 512.432 273.747 512.115 272.852 511.472C271.965 510.821 271.269 509.897 270.765 508.701C270.26 507.497 270.008 506.097 270.008 504.502C270.008 502.915 270.26 501.523 270.765 500.327C271.269 499.123 271.965 498.199 272.852 497.556C273.747 496.905 274.76 496.58 275.892 496.58ZM275.892 499.399C275.314 499.391 274.805 499.587 274.366 499.985C273.934 500.376 273.601 500.958 273.365 501.731C273.137 502.496 273.027 503.42 273.035 504.502C273.027 505.584 273.137 506.508 273.365 507.273C273.601 508.038 273.934 508.62 274.366 509.019C274.805 509.409 275.314 509.604 275.892 509.604C276.453 509.604 276.95 509.409 277.381 509.019C277.812 508.62 278.146 508.038 278.382 507.273C278.618 506.508 278.736 505.584 278.736 504.502C278.736 503.42 278.618 502.496 278.382 501.731C278.146 500.966 277.812 500.384 277.381 499.985C276.95 499.587 276.453 499.391 275.892 499.399ZM307.783 508.97H292.06V506.516H307.783V508.97ZM309.992 514.658H289.68V512.131H309.992V514.658ZM307.612 499.192H295.234V507.175H292.06V496.653H307.612V499.192ZM307.087 503.965H294.306V501.536H307.087V503.965ZM318.177 511.509H315.076V506.26H318.177V511.509ZM316.602 496.348C317.733 496.348 318.759 496.58 319.678 497.043C320.606 497.507 321.338 498.154 321.876 498.984C322.421 499.814 322.693 500.75 322.693 501.792C322.693 502.842 322.425 503.782 321.888 504.612C321.359 505.434 320.626 506.077 319.691 506.541C318.763 506.996 317.733 507.224 316.602 507.224C315.438 507.224 314.393 506.996 313.465 506.541C312.537 506.077 311.809 505.434 311.28 504.612C310.759 503.782 310.499 502.842 310.499 501.792C310.499 500.742 310.759 499.806 311.28 498.984C311.809 498.154 312.537 497.507 313.465 497.043C314.393 496.58 315.438 496.348 316.602 496.348ZM316.602 498.984C316 498.993 315.471 499.106 315.015 499.326C314.559 499.546 314.197 499.867 313.929 500.291C313.66 500.714 313.53 501.214 313.538 501.792C313.53 502.362 313.66 502.858 313.929 503.281C314.197 503.704 314.559 504.03 315.015 504.258C315.479 504.486 316.008 504.6 316.602 504.6C317.172 504.6 317.684 504.486 318.14 504.258C318.596 504.03 318.954 503.704 319.214 503.281C319.483 502.858 319.617 502.362 319.617 501.792C319.617 501.214 319.483 500.714 319.214 500.291C318.954 499.867 318.596 499.546 318.14 499.326C317.684 499.106 317.172 498.993 316.602 498.984ZM327.625 517.246H324.512V495.005H327.625V517.246ZM330.64 506.357H326.673V503.733H330.64V506.357ZM310.755 510.264C313.4 510.247 315.703 510.207 317.664 510.142C319.634 510.068 321.522 509.91 323.328 509.666L323.524 511.96C322.099 512.229 320.614 512.428 319.068 512.559C317.522 512.681 316.057 512.754 314.673 512.778C313.29 512.803 311.776 512.807 310.132 512.791L309.717 510.264H310.755ZM108.771 543.433H105.658V530.005H108.771V543.433ZM111.774 538.098H107.892V535.51H111.774V538.098ZM108.771 552.002H94.2446V544.409H108.771V552.002ZM97.333 549.5H105.695V546.851H97.333V549.5ZM104.328 534.509H91.1318V532.043H104.328V534.509ZM97.748 535.168C98.806 535.168 99.75 535.339 100.58 535.681C101.41 536.015 102.057 536.487 102.521 537.097C102.985 537.699 103.217 538.391 103.217 539.172C103.217 539.954 102.985 540.649 102.521 541.26C102.057 541.862 101.41 542.334 100.58 542.676C99.75 543.018 98.806 543.188 97.748 543.188C96.6657 543.188 95.7054 543.018 94.8672 542.676C94.0371 542.334 93.3901 541.862 92.9263 541.26C92.4624 540.649 92.2305 539.954 92.2305 539.172C92.2305 538.391 92.4624 537.699 92.9263 537.097C93.3901 536.487 94.0371 536.015 94.8672 535.681C95.7054 535.339 96.6657 535.168 97.748 535.168ZM97.748 537.512C97.2435 537.512 96.804 537.577 96.4297 537.708C96.0553 537.83 95.7664 538.017 95.563 538.269C95.3595 538.521 95.2578 538.822 95.2578 539.172C95.2578 539.539 95.3595 539.852 95.563 540.112C95.7664 540.365 96.0553 540.556 96.4297 540.686C96.804 540.816 97.2435 540.885 97.748 540.894C98.2445 540.885 98.6799 540.816 99.0542 540.686C99.4367 540.556 99.7337 540.365 99.9453 540.112C100.157 539.852 100.263 539.539 100.263 539.172C100.263 538.822 100.153 538.521 99.9331 538.269C99.7215 538.017 99.4285 537.83 99.0542 537.708C98.6799 537.577 98.2445 537.512 97.748 537.512ZM99.2983 533.374H96.1855V529.895H99.2983V533.374ZM118.219 532.581C118.211 534.631 118.113 536.495 117.926 538.171C117.747 539.84 117.41 541.463 116.913 543.042C116.425 544.613 115.729 546.098 114.826 547.498L112.409 546.216C113.263 544.914 113.918 543.591 114.374 542.249C114.838 540.898 115.151 539.49 115.314 538.025C115.477 536.56 115.562 534.835 115.57 532.849V532.581H118.219ZM117.23 535.083H113.141V532.581H117.23V535.083ZM123.188 532.581C123.188 534.827 123.11 536.829 122.956 538.586C122.801 540.336 122.475 542.069 121.979 543.787C121.491 545.504 120.766 547.107 119.806 548.596L117.438 547.302C118.349 545.911 119.029 544.466 119.477 542.969C119.924 541.463 120.213 539.945 120.343 538.416C120.482 536.886 120.555 535.03 120.563 532.849V532.581H123.188ZM122.309 535.083H118.866V532.581H122.309V535.083ZM132.196 552.246H129.206V530.005H132.196V552.246ZM125.36 540.857H122.113V538.367H125.36V540.857ZM127.802 551.27H124.884V530.53H127.802V551.27Z" fill="#01A4FC"/>
<path d="M149.42 544.226H146.332V540.393H149.42V544.226ZM146.588 545.618H155.719V543.738H158.783V552.002H143.512V543.738H146.588V545.618ZM155.719 549.536V547.974H146.588V549.536H155.719ZM158.783 542.859H155.683V530.054H158.783V542.859ZM140.18 539.38C143.101 539.388 145.689 539.36 147.943 539.294C150.198 539.221 152.37 539.054 154.462 538.794L154.633 540.991C152.501 541.357 150.307 541.597 148.053 541.711C145.807 541.817 143.305 541.87 140.546 541.87L140.18 539.38ZM148.578 531.482C148.57 532.613 148.33 533.655 147.858 534.607C147.394 535.551 146.694 536.365 145.758 537.048C144.822 537.732 143.675 538.22 142.316 538.513L140.949 536.121C142.088 535.893 143.04 535.547 143.805 535.083C144.578 534.611 145.152 534.07 145.526 533.459C145.901 532.841 146.088 532.182 146.088 531.482V530.591H148.578V531.482ZM149.298 531.482C149.298 532.125 149.481 532.735 149.848 533.313C150.222 533.891 150.788 534.399 151.544 534.839C152.309 535.278 153.245 535.604 154.352 535.815L153.021 538.147C151.671 537.878 150.531 537.427 149.604 536.792C148.676 536.157 147.976 535.388 147.504 534.485C147.032 533.582 146.8 532.581 146.808 531.482V530.591H149.298V531.482ZM181 552.246H178.07V530.005H181V552.246ZM173.944 541.064H169.086V538.586H173.944V541.064ZM176.276 551.27H173.346V530.53H176.276V551.27ZM171.466 532.666C171.458 534.871 171.194 536.869 170.673 538.66C170.16 540.45 169.298 542.102 168.085 543.616C166.881 545.121 165.265 546.456 163.239 547.62L161.481 545.435C163.166 544.434 164.516 543.339 165.534 542.151C166.559 540.955 167.3 539.636 167.755 538.196C168.211 536.755 168.443 535.124 168.451 533.301V532.666H171.466ZM169.452 535.168H162.702V532.666H169.452V535.168ZM206.769 541.125H203.656V530.005H206.769V541.125ZM209.772 536.89H205.475V534.326H209.772V536.89ZM206.769 548.071H195.136V550.769H192.072V545.813H203.668V544.409H192.035V542.017H206.769V548.071ZM207.416 552.002H192.072V549.548H207.416V552.002ZM195.282 530.688C196.405 530.688 197.418 530.904 198.322 531.335C199.233 531.759 199.945 532.353 200.458 533.118C200.971 533.883 201.231 534.749 201.239 535.718C201.231 536.678 200.971 537.541 200.458 538.306C199.945 539.071 199.233 539.669 198.322 540.1C197.41 540.531 196.397 540.747 195.282 540.747C194.151 540.747 193.13 540.531 192.218 540.1C191.307 539.669 190.591 539.071 190.07 538.306C189.549 537.541 189.289 536.678 189.289 535.718C189.289 534.749 189.549 533.883 190.07 533.118C190.591 532.353 191.303 531.759 192.206 531.335C193.118 530.904 194.143 530.688 195.282 530.688ZM195.282 533.228C194.704 533.228 194.192 533.329 193.744 533.533C193.305 533.728 192.959 534.013 192.707 534.387C192.454 534.762 192.328 535.205 192.328 535.718C192.328 536.239 192.454 536.69 192.707 537.073C192.959 537.455 193.305 537.752 193.744 537.964C194.192 538.175 194.704 538.281 195.282 538.281C195.844 538.281 196.348 538.175 196.796 537.964C197.243 537.752 197.589 537.455 197.833 537.073C198.086 536.69 198.212 536.239 198.212 535.718C198.212 535.205 198.086 534.762 197.833 534.387C197.589 534.013 197.243 533.728 196.796 533.533C196.348 533.329 195.844 533.228 195.282 533.228ZM216.742 531.58C217.865 531.58 218.866 531.905 219.745 532.556C220.632 533.199 221.328 534.123 221.833 535.327C222.337 536.523 222.593 537.915 222.602 539.502C222.593 541.097 222.337 542.497 221.833 543.701C221.328 544.897 220.632 545.817 219.745 546.46C218.866 547.103 217.865 547.424 216.742 547.424C215.603 547.424 214.59 547.103 213.703 546.46C212.816 545.817 212.12 544.897 211.615 543.701C211.119 542.497 210.871 541.097 210.871 539.502C210.871 537.915 211.119 536.523 211.615 535.327C212.12 534.123 212.816 533.199 213.703 532.556C214.59 531.905 215.603 531.58 216.742 531.58ZM216.742 534.399C216.173 534.391 215.672 534.587 215.241 534.985C214.809 535.384 214.472 535.966 214.228 536.731C213.992 537.496 213.874 538.42 213.874 539.502C213.874 540.584 213.992 541.508 214.228 542.273C214.472 543.038 214.809 543.62 215.241 544.019C215.672 544.409 216.173 544.604 216.742 544.604C217.32 544.604 217.825 544.409 218.256 544.019C218.687 543.62 219.017 543.038 219.245 542.273C219.481 541.508 219.599 540.584 219.599 539.502C219.599 538.42 219.481 537.496 219.245 536.731C219.017 535.958 218.687 535.376 218.256 534.985C217.825 534.587 217.32 534.391 216.742 534.399ZM228.278 552.246H225.153V530.005H228.278V552.246ZM231.574 541.003H227.594V538.403H231.574V541.003ZM252.68 549.658H232.367V547.144H252.68V549.658ZM244.013 547.766H240.949V542.322H244.013V547.766ZM237.641 534.9H247.321V531.433H250.421V543.018H234.516V531.433H237.641V534.9ZM247.321 540.527V537.366H237.641V540.527H247.321ZM266.571 540.076H262.787V537.524H266.571V540.076ZM260.456 535.767C260.456 537.508 260.277 539.156 259.918 540.71C259.569 542.257 259.019 543.652 258.271 544.897C257.53 546.134 256.59 547.099 255.451 547.791L253.546 545.471C254.596 544.828 255.459 543.994 256.134 542.969C256.81 541.935 257.298 540.812 257.599 539.6C257.908 538.387 258.063 537.109 258.063 535.767V531.934H260.456V535.767ZM261.078 535.62C261.078 536.938 261.208 538.171 261.469 539.319C261.729 540.458 262.16 541.516 262.763 542.493C263.365 543.461 264.15 544.259 265.119 544.885L263.434 547.278C262.303 546.594 261.387 545.65 260.688 544.446C259.988 543.241 259.487 541.903 259.186 540.43C258.885 538.949 258.738 537.345 258.747 535.62V531.934H261.078V535.62ZM273.224 552.246H270.233V530.005H273.224V552.246ZM268.573 551.221H265.656V530.347H268.573V551.221ZM283.197 547.571H280.109V541.333H283.197V547.571ZM291.376 547.571H288.239V541.333H291.376V547.571ZM295.893 549.646H275.58V547.095H295.893V549.646ZM285.7 531.104C287.303 531.104 288.735 531.352 289.997 531.848C291.266 532.345 292.259 533.044 292.975 533.948C293.699 534.851 294.062 535.889 294.062 537.061C294.062 538.249 293.703 539.29 292.987 540.186C292.271 541.081 291.278 541.777 290.009 542.273C288.739 542.769 287.303 543.018 285.7 543.018C284.097 543.018 282.66 542.769 281.391 542.273C280.129 541.777 279.14 541.081 278.424 540.186C277.708 539.29 277.35 538.249 277.35 537.061C277.35 535.889 277.708 534.851 278.424 533.948C279.14 533.044 280.129 532.345 281.391 531.848C282.66 531.352 284.097 531.104 285.7 531.104ZM285.7 533.569C284.634 533.561 283.706 533.695 282.917 533.972C282.127 534.249 281.513 534.652 281.073 535.181C280.642 535.71 280.426 536.336 280.426 537.061C280.426 537.785 280.642 538.416 281.073 538.953C281.513 539.482 282.127 539.889 282.917 540.173C283.714 540.458 284.642 540.605 285.7 540.613C286.75 540.605 287.673 540.458 288.471 540.173C289.268 539.88 289.887 539.469 290.326 538.94C290.766 538.411 290.985 537.785 290.985 537.061C290.985 536.336 290.766 535.71 290.326 535.181C289.887 534.652 289.268 534.249 288.471 533.972C287.673 533.695 286.75 533.561 285.7 533.569Z" fill="#191919"/>
<path d="M98.511 580.162H99.6096V584.093H104.285V580.162H105.396V589H104.285V585.057H99.6096V589H98.511V580.162ZM109.986 589.134C109.355 589.134 108.806 588.994 108.338 588.713C107.874 588.432 107.516 588.036 107.263 587.523C107.011 587.01 106.885 586.416 106.885 585.741C106.885 585.065 107.011 584.465 107.263 583.94C107.516 583.415 107.868 583.008 108.319 582.719C108.771 582.431 109.294 582.286 109.888 582.286C110.388 582.286 110.854 582.396 111.286 582.616C111.721 582.835 112.073 583.194 112.342 583.69C112.61 584.186 112.744 584.821 112.744 585.594V586.034H107.617V585.143H111.682C111.682 584.776 111.609 584.447 111.463 584.154C111.316 583.861 111.107 583.631 110.834 583.464C110.561 583.297 110.246 583.214 109.888 583.214C109.497 583.214 109.156 583.309 108.863 583.501C108.57 583.692 108.342 583.948 108.179 584.27C108.02 584.591 107.939 584.935 107.935 585.301V585.899C107.935 586.388 108.022 586.805 108.197 587.151C108.372 587.497 108.612 587.759 108.917 587.938C109.223 588.117 109.579 588.207 109.986 588.207C110.238 588.207 110.466 588.172 110.669 588.103C110.873 588.034 111.044 587.944 111.182 587.834C111.324 587.72 111.438 587.592 111.524 587.45H112.647C112.541 587.787 112.366 588.084 112.122 588.341C111.878 588.593 111.573 588.788 111.206 588.927C110.84 589.065 110.433 589.134 109.986 589.134ZM118.164 585.924C117.928 585.94 117.751 585.952 117.633 585.96C117.519 585.969 117.346 585.981 117.115 585.997C116.878 586.013 116.642 586.03 116.406 586.046C115.91 586.078 115.526 586.186 115.253 586.369C114.984 586.552 114.848 586.819 114.844 587.169C114.844 587.397 114.905 587.59 115.027 587.749C115.149 587.907 115.312 588.028 115.515 588.109C115.723 588.186 115.963 588.223 116.236 588.219C116.614 588.219 116.942 588.143 117.218 587.993C117.499 587.842 117.713 587.643 117.859 587.395C118.006 587.147 118.079 586.88 118.079 586.595V584.532C118.079 584.251 118.024 584.011 117.914 583.812C117.804 583.609 117.635 583.456 117.407 583.354C117.184 583.253 116.907 583.202 116.577 583.202C116.175 583.202 115.845 583.285 115.589 583.452C115.332 583.615 115.165 583.828 115.088 584.093H113.99C114.034 583.739 114.173 583.425 114.405 583.153C114.641 582.876 114.95 582.663 115.332 582.512C115.715 582.361 116.146 582.286 116.626 582.286C117.009 582.286 117.385 582.343 117.755 582.457C118.126 582.571 118.445 582.803 118.714 583.153C118.982 583.499 119.116 583.991 119.116 584.63V589H118.079V588.097H118.03C117.896 588.373 117.662 588.62 117.328 588.835C116.999 589.047 116.573 589.155 116.052 589.159C115.629 589.155 115.247 589.073 114.905 588.915C114.563 588.752 114.293 588.518 114.093 588.213C113.894 587.903 113.794 587.539 113.794 587.12C113.794 586.437 114.028 585.954 114.496 585.674C114.968 585.389 115.564 585.22 116.284 585.167C116.476 585.151 116.695 585.136 116.944 585.124C117.192 585.108 117.436 585.094 117.676 585.082C117.835 585.077 117.993 585.073 118.152 585.069L118.164 585.924ZM121.851 589H120.801V580.162H121.851V589ZM126.416 583.25H122.962V582.372H126.416V583.25ZM125.025 580.785V587.096C125.025 587.36 125.063 587.566 125.141 587.712C125.218 587.855 125.32 587.952 125.446 588.005C125.572 588.058 125.72 588.084 125.891 588.084C125.965 588.084 126.04 588.082 126.117 588.078C126.199 588.074 126.278 588.072 126.355 588.072L126.514 588.06V589.037C126.294 589.069 126.05 589.085 125.781 589.085C125.472 589.085 125.179 589.02 124.903 588.89C124.626 588.76 124.4 588.567 124.225 588.31C124.05 588.05 123.963 587.735 123.963 587.364V580.785H125.025ZM128.968 589H127.918V580.162H128.968V583.409H129.053C129.216 583.051 129.456 582.774 129.773 582.579C130.091 582.384 130.502 582.286 131.006 582.286C131.466 582.286 131.865 582.378 132.202 582.561C132.544 582.744 132.807 583.023 132.99 583.397C133.173 583.771 133.264 584.235 133.264 584.789V589H132.215V584.862C132.215 584.516 132.154 584.221 132.031 583.977C131.909 583.729 131.734 583.541 131.507 583.415C131.279 583.289 131.006 583.226 130.689 583.226C130.355 583.226 130.06 583.295 129.804 583.434C129.547 583.572 129.344 583.777 129.193 584.05C129.043 584.323 128.968 584.646 128.968 585.021V589ZM139.539 580.162L142.517 587.438H142.627L145.606 580.162H146.924V589H145.886V582.323H145.801L143.054 589H142.078L139.331 582.323H139.258V589H138.22V580.162H139.539ZM152.796 585.924C152.56 585.94 152.383 585.952 152.265 585.96C152.151 585.969 151.978 585.981 151.746 585.997C151.51 586.013 151.274 586.03 151.038 586.046C150.541 586.078 150.157 586.186 149.884 586.369C149.616 586.552 149.479 586.819 149.475 587.169C149.475 587.397 149.536 587.59 149.658 587.749C149.781 587.907 149.943 588.028 150.147 588.109C150.354 588.186 150.594 588.223 150.867 588.219C151.245 588.219 151.573 588.143 151.85 587.993C152.13 587.842 152.344 587.643 152.49 587.395C152.637 587.147 152.71 586.88 152.71 586.595V584.532C152.71 584.251 152.655 584.011 152.545 583.812C152.436 583.609 152.267 583.456 152.039 583.354C151.815 583.253 151.538 583.202 151.209 583.202C150.806 583.202 150.476 583.285 150.22 583.452C149.964 583.615 149.797 583.828 149.719 584.093H148.621C148.666 583.739 148.804 583.425 149.036 583.153C149.272 582.876 149.581 582.663 149.964 582.512C150.346 582.361 150.777 582.286 151.258 582.286C151.64 582.286 152.016 582.343 152.387 582.457C152.757 582.571 153.076 582.803 153.345 583.153C153.614 583.499 153.748 583.991 153.748 584.63V589H152.71V588.097H152.661C152.527 588.373 152.293 588.62 151.959 588.835C151.63 589.047 151.205 589.155 150.684 589.159C150.261 589.155 149.878 589.073 149.536 588.915C149.195 588.752 148.924 588.518 148.725 588.213C148.525 587.903 148.426 587.539 148.426 587.12C148.426 586.437 148.66 585.954 149.127 585.674C149.599 585.389 150.196 585.22 150.916 585.167C151.107 585.151 151.327 585.136 151.575 585.124C151.823 585.108 152.067 585.094 152.307 585.082C152.466 585.077 152.625 585.073 152.783 585.069L152.796 585.924ZM158.325 583.25H154.871V582.372H158.325V583.25ZM156.934 580.785V587.096C156.934 587.36 156.972 587.566 157.05 587.712C157.127 587.855 157.229 587.952 157.355 588.005C157.481 588.058 157.63 588.084 157.801 588.084C157.874 588.084 157.949 588.082 158.026 588.078C158.108 588.074 158.187 588.072 158.264 588.072L158.423 588.06V589.037C158.203 589.069 157.959 589.085 157.691 589.085C157.381 589.085 157.088 589.02 156.812 588.89C156.535 588.76 156.309 588.567 156.134 588.31C155.959 588.05 155.872 587.735 155.872 587.364V580.785H156.934ZM162.39 589.134C161.76 589.134 161.21 588.994 160.742 588.713C160.279 588.432 159.92 588.036 159.668 587.523C159.416 587.01 159.29 586.416 159.29 585.741C159.29 585.065 159.416 584.465 159.668 583.94C159.92 583.415 160.272 583.008 160.724 582.719C161.176 582.431 161.699 582.286 162.293 582.286C162.793 582.286 163.259 582.396 163.69 582.616C164.126 582.835 164.478 583.194 164.746 583.69C165.015 584.186 165.149 584.821 165.149 585.594V586.034H160.022V585.143H164.087C164.087 584.776 164.014 584.447 163.867 584.154C163.721 583.861 163.511 583.631 163.239 583.464C162.966 583.297 162.651 583.214 162.293 583.214C161.902 583.214 161.56 583.309 161.267 583.501C160.974 583.692 160.747 583.948 160.584 584.27C160.425 584.591 160.344 584.935 160.34 585.301V585.899C160.34 586.388 160.427 586.805 160.602 587.151C160.777 587.497 161.017 587.759 161.322 587.938C161.627 588.117 161.983 588.207 162.39 588.207C162.643 588.207 162.871 588.172 163.074 588.103C163.277 588.034 163.448 587.944 163.587 587.834C163.729 587.72 163.843 587.592 163.928 587.45H165.052C164.946 587.787 164.771 588.084 164.527 588.341C164.282 588.593 163.977 588.788 163.611 588.927C163.245 589.065 162.838 589.134 162.39 589.134ZM172.644 584.166H170.557V583.373H172.644V584.166ZM175.415 589.989H174.488V579.137H175.415V589.989ZM173.23 589.439H172.315V579.369H173.23V589.439ZM168.579 580.052C169.047 580.052 169.456 580.207 169.806 580.516C170.16 580.825 170.435 581.265 170.63 581.834C170.825 582.4 170.923 583.063 170.923 583.824C170.923 584.585 170.825 585.25 170.63 585.82C170.435 586.386 170.16 586.823 169.806 587.132C169.456 587.442 169.047 587.596 168.579 587.596C168.111 587.596 167.702 587.442 167.353 587.132C167.007 586.823 166.736 586.386 166.541 585.82C166.345 585.25 166.248 584.585 166.248 583.824C166.248 583.063 166.345 582.4 166.541 581.834C166.736 581.265 167.007 580.825 167.353 580.516C167.702 580.207 168.111 580.052 168.579 580.052ZM168.579 580.956C168.286 580.956 168.032 581.072 167.816 581.303C167.601 581.535 167.434 581.869 167.316 582.304C167.202 582.736 167.147 583.242 167.151 583.824C167.147 584.406 167.202 584.913 167.316 585.344C167.434 585.771 167.601 586.103 167.816 586.339C168.036 586.571 168.29 586.685 168.579 586.681C168.872 586.685 169.129 586.571 169.348 586.339C169.568 586.103 169.735 585.771 169.849 585.344C169.963 584.913 170.02 584.406 170.02 583.824C170.02 583.242 169.963 582.736 169.849 582.304C169.735 581.869 169.568 581.535 169.348 581.303C169.129 581.072 168.872 580.956 168.579 580.956ZM185.462 587.987H184.522V585.265H185.462V587.987ZM184.998 579.845C185.763 579.849 186.446 579.969 187.049 580.205C187.651 580.437 188.121 580.768 188.458 581.2C188.796 581.631 188.965 582.127 188.965 582.689C188.965 583.259 188.796 583.757 188.458 584.184C188.121 584.612 187.651 584.943 187.049 585.179C186.446 585.415 185.763 585.533 184.998 585.533C184.233 585.533 183.551 585.415 182.953 585.179C182.355 584.943 181.885 584.612 181.543 584.184C181.201 583.753 181.031 583.255 181.031 582.689C181.031 582.127 181.201 581.631 181.543 581.2C181.885 580.768 182.355 580.437 182.953 580.205C183.551 579.969 184.233 579.849 184.998 579.845ZM184.998 580.638C184.416 580.638 183.893 580.724 183.429 580.895C182.969 581.065 182.609 581.308 182.349 581.621C182.088 581.93 181.958 582.286 181.958 582.689C181.958 583.1 182.088 583.462 182.349 583.775C182.609 584.085 182.969 584.327 183.429 584.502C183.889 584.673 184.412 584.76 184.998 584.764C185.584 584.76 186.107 584.673 186.566 584.502C187.026 584.327 187.386 584.085 187.647 583.775C187.907 583.462 188.037 583.1 188.037 582.689C188.037 582.286 187.907 581.93 187.647 581.621C187.386 581.308 187.024 581.065 186.56 580.895C186.101 580.724 185.58 580.638 184.998 580.638ZM189.99 588.597H180.054V587.792H189.99V588.597ZM199.817 587.108H198.865V579.149H199.817V587.108ZM200.159 589.757H192.81V588.951H200.159V589.757ZM193.762 589.342H192.81V586.375H193.762V589.342ZM194.531 580.846C194.527 581.546 194.397 582.209 194.141 582.835C193.889 583.462 193.533 584.009 193.073 584.477C192.617 584.941 192.09 585.293 191.492 585.533L190.967 584.789C191.508 584.577 191.986 584.27 192.401 583.867C192.82 583.464 193.146 583.002 193.378 582.481C193.61 581.957 193.726 581.411 193.726 580.846V579.759H194.531V580.846ZM194.702 580.846C194.698 581.387 194.81 581.908 195.038 582.408C195.27 582.905 195.594 583.34 196.009 583.714C196.424 584.089 196.9 584.374 197.437 584.569L196.936 585.338C196.334 585.106 195.805 584.77 195.349 584.331C194.894 583.887 194.538 583.366 194.281 582.768C194.025 582.17 193.897 581.529 193.897 580.846V579.759H194.702V580.846ZM213.794 586.498H212.83V579.149H213.794V586.498ZM213.037 583.006H210.449V582.201H213.037V583.006ZM210.401 580.003C210.401 580.919 210.203 581.753 209.809 582.506C209.414 583.255 208.842 583.906 208.094 584.459C207.349 585.008 206.454 585.452 205.408 585.79L204.981 585.021C205.904 584.736 206.696 584.365 207.355 583.91C208.018 583.454 208.525 582.927 208.875 582.329C209.225 581.731 209.4 581.082 209.4 580.382V580.003H210.401ZM210.071 580.785H205.518V580.003H210.071V580.785ZM210.62 586.046C210.62 586.717 210.433 587.324 210.059 587.865C209.684 588.402 209.186 588.847 208.563 589.201C207.941 589.555 207.255 589.806 206.507 589.952L206.116 589.195C206.767 589.081 207.373 588.876 207.935 588.579C208.496 588.282 208.946 587.914 209.284 587.474C209.625 587.035 209.798 586.559 209.802 586.046V585.545H210.62V586.046ZM210.742 586.046C210.742 586.555 210.911 587.024 211.249 587.456C211.587 587.883 212.032 588.245 212.586 588.542C213.139 588.835 213.741 589.041 214.392 589.159L213.99 589.928C213.253 589.785 212.576 589.537 211.957 589.183C211.343 588.833 210.85 588.39 210.48 587.853C210.11 587.315 209.925 586.713 209.925 586.046V585.545H210.742V586.046ZM220.545 579.332C221.346 579.332 222.034 579.403 222.608 579.546C223.185 579.688 223.625 579.9 223.926 580.18C224.227 580.461 224.378 580.801 224.378 581.2C224.378 581.607 224.227 581.952 223.926 582.237C223.625 582.522 223.188 582.738 222.614 582.884C222.04 583.027 221.35 583.1 220.545 583.104C219.735 583.1 219.043 583.027 218.469 582.884C217.9 582.738 217.462 582.522 217.157 582.237C216.852 581.952 216.699 581.607 216.699 581.2C216.699 580.801 216.852 580.461 217.157 580.18C217.462 579.9 217.902 579.688 218.476 579.546C219.049 579.403 219.739 579.332 220.545 579.332ZM220.545 580.052C219.947 580.052 219.434 580.099 219.007 580.193C218.583 580.286 218.258 580.418 218.03 580.589C217.806 580.76 217.696 580.964 217.7 581.2C217.696 581.448 217.806 581.662 218.03 581.841C218.258 582.016 218.583 582.148 219.007 582.237C219.434 582.327 219.947 582.372 220.545 582.372C221.143 582.372 221.656 582.327 222.083 582.237C222.514 582.148 222.842 582.016 223.065 581.841C223.289 581.666 223.401 581.452 223.401 581.2C223.401 580.964 223.289 580.76 223.065 580.589C222.842 580.418 222.514 580.286 222.083 580.193C221.651 580.099 221.139 580.052 220.545 580.052ZM225.489 584.618H215.601V583.836H225.489V584.618ZM224.219 587.987H217.774V589.305H216.822V587.279H223.279V586.29H216.797V585.558H224.219V587.987ZM224.549 589.867H216.822V589.11H224.549V589.867ZM238.013 587.633H237.049V579.137H238.013V587.633ZM239.636 583.751H237.61V582.945H239.636V583.751ZM238.404 589.757H231.116V588.951H238.404V589.757ZM232.08 589.208H231.116V587.059H232.08V589.208ZM233.386 585.924H232.434V584.447H233.386V585.924ZM229.492 585.594C230.819 585.59 232.048 585.564 233.179 585.515C234.314 585.462 235.38 585.358 236.377 585.204L236.463 585.887C235.49 586.07 234.477 586.194 233.423 586.26C232.373 586.321 231.201 586.359 229.907 586.375C229.838 586.375 229.787 586.375 229.755 586.375C229.722 586.375 229.671 586.375 229.602 586.375L229.492 585.594ZM236.048 580.931H229.761V580.211H236.048V580.931ZM232.898 581.407C233.407 581.407 233.852 581.472 234.235 581.603C234.621 581.733 234.918 581.926 235.126 582.182C235.338 582.435 235.445 582.734 235.449 583.08C235.445 583.417 235.338 583.712 235.126 583.965C234.918 584.213 234.621 584.404 234.235 584.538C233.852 584.673 233.407 584.74 232.898 584.74C232.39 584.74 231.944 584.671 231.562 584.532C231.183 584.394 230.888 584.203 230.677 583.958C230.465 583.71 230.359 583.417 230.359 583.08C230.359 582.738 230.465 582.439 230.677 582.182C230.888 581.926 231.183 581.733 231.562 581.603C231.944 581.472 232.39 581.407 232.898 581.407ZM232.898 582.091C232.569 582.091 232.28 582.129 232.031 582.207C231.787 582.284 231.6 582.398 231.47 582.549C231.34 582.699 231.275 582.876 231.275 583.08C231.275 583.275 231.34 583.446 231.47 583.592C231.6 583.739 231.787 583.853 232.031 583.934C232.28 584.015 232.569 584.056 232.898 584.056C233.228 584.056 233.515 584.015 233.759 583.934C234.007 583.853 234.198 583.739 234.333 583.592C234.467 583.446 234.534 583.275 234.534 583.08C234.534 582.876 234.469 582.699 234.339 582.549C234.208 582.398 234.017 582.284 233.765 582.207C233.517 582.129 233.228 582.091 232.898 582.091ZM233.386 580.553H232.434V579.112H233.386V580.553ZM248.67 581.493H245.349V580.711H248.67V581.493ZM248.67 584.02H245.349V583.226H248.67V584.02ZM243.335 579.796C243.864 579.796 244.342 579.904 244.77 580.119C245.197 580.335 245.53 580.64 245.771 581.035C246.015 581.426 246.139 581.871 246.143 582.372C246.139 582.868 246.015 583.309 245.771 583.696C245.53 584.083 245.197 584.386 244.77 584.605C244.342 584.825 243.864 584.935 243.335 584.935C242.798 584.935 242.316 584.825 241.889 584.605C241.461 584.386 241.126 584.083 240.882 583.696C240.637 583.309 240.515 582.868 240.515 582.372C240.515 581.871 240.637 581.426 240.882 581.035C241.126 580.64 241.461 580.335 241.889 580.119C242.316 579.904 242.798 579.796 243.335 579.796ZM243.335 580.626C242.969 580.626 242.641 580.699 242.353 580.846C242.064 580.992 241.838 581.2 241.675 581.468C241.512 581.733 241.431 582.034 241.431 582.372C241.431 582.705 241.512 583.004 241.675 583.269C241.838 583.533 242.064 583.741 242.353 583.891C242.641 584.042 242.969 584.117 243.335 584.117C243.689 584.117 244.009 584.042 244.293 583.891C244.582 583.741 244.808 583.533 244.971 583.269C245.134 583 245.215 582.701 245.215 582.372C245.215 582.034 245.134 581.733 244.971 581.468C244.808 581.2 244.582 580.992 244.293 580.846C244.009 580.699 243.689 580.626 243.335 580.626ZM249.341 585.57H248.377V579.137H249.341V585.57ZM245.74 585.826C246.489 585.826 247.136 585.908 247.681 586.07C248.226 586.233 248.645 586.469 248.938 586.778C249.231 587.088 249.378 587.458 249.378 587.889C249.378 588.325 249.231 588.697 248.938 589.006C248.645 589.319 248.226 589.557 247.681 589.72C247.136 589.883 246.489 589.964 245.74 589.964C244.991 589.964 244.344 589.883 243.799 589.72C243.254 589.557 242.835 589.319 242.542 589.006C242.249 588.697 242.102 588.325 242.102 587.889C242.102 587.458 242.249 587.088 242.542 586.778C242.835 586.469 243.254 586.233 243.799 586.07C244.344 585.908 244.991 585.826 245.74 585.826ZM245.74 586.571C245.187 586.571 244.706 586.624 244.3 586.729C243.893 586.835 243.581 586.988 243.366 587.187C243.15 587.383 243.042 587.617 243.042 587.889C243.042 588.158 243.152 588.39 243.372 588.585C243.592 588.78 243.903 588.931 244.306 589.037C244.708 589.142 245.187 589.195 245.74 589.195C246.293 589.195 246.774 589.142 247.18 589.037C247.587 588.931 247.899 588.78 248.114 588.585C248.33 588.39 248.438 588.158 248.438 587.889C248.438 587.617 248.33 587.383 248.114 587.187C247.899 586.988 247.587 586.835 247.18 586.729C246.774 586.624 246.293 586.571 245.74 586.571ZM259.632 585.448H258.679V579.137H259.632V585.448ZM261.267 582.738H259.217V581.92H261.267V582.738ZM253.723 587.083H258.679V585.924H259.632V589.842H252.771V585.924H253.723V587.083ZM258.679 589.073V587.84H253.723V589.073H258.679ZM257.642 581.053H251.172V580.26H257.642V581.053ZM254.407 581.554C254.924 581.554 255.377 581.631 255.768 581.786C256.163 581.94 256.468 582.162 256.684 582.451C256.903 582.74 257.015 583.076 257.019 583.458C257.015 583.84 256.903 584.176 256.684 584.465C256.468 584.754 256.163 584.976 255.768 585.13C255.373 585.285 254.92 585.362 254.407 585.362C253.886 585.362 253.428 585.285 253.034 585.13C252.639 584.976 252.334 584.754 252.118 584.465C251.903 584.176 251.795 583.84 251.795 583.458C251.795 583.076 251.903 582.74 252.118 582.451C252.334 582.162 252.639 581.94 253.034 581.786C253.428 581.631 253.886 581.554 254.407 581.554ZM254.407 582.298C254.069 582.294 253.772 582.341 253.516 582.439C253.264 582.532 253.066 582.669 252.924 582.848C252.781 583.023 252.71 583.226 252.71 583.458C252.71 583.69 252.779 583.895 252.918 584.074C253.056 584.249 253.253 584.386 253.51 584.483C253.77 584.581 254.069 584.63 254.407 584.63C254.741 584.63 255.038 584.581 255.298 584.483C255.559 584.386 255.758 584.249 255.896 584.074C256.039 583.895 256.112 583.69 256.116 583.458C256.112 583.226 256.037 583.023 255.89 582.848C255.748 582.669 255.548 582.532 255.292 582.439C255.036 582.341 254.741 582.294 254.407 582.298ZM254.883 580.687H253.931V579.039H254.883V580.687ZM270.899 589.989H269.947V579.137H270.899V589.989ZM263.599 586.925H262.659V580.211H263.599V586.925ZM263.538 586.363C264.441 586.359 265.322 586.319 266.181 586.241C267.043 586.16 267.912 586.026 268.787 585.838L268.921 586.656C267.997 586.847 267.098 586.986 266.223 587.071C265.353 587.153 264.457 587.193 263.538 587.193H262.659V586.363H263.538ZM281.153 590.013H280.2V579.137H281.153V590.013ZM282.971 584.239H280.933V583.434H282.971V584.239ZM274.085 586.485C275.151 586.481 276.064 586.453 276.825 586.4C277.586 586.343 278.361 586.241 279.151 586.095L279.273 586.925C278.467 587.071 277.678 587.169 276.905 587.218C276.135 587.267 275.196 587.291 274.085 587.291H273.23V586.485H274.085ZM278.296 580.992H274.182V586.852H273.23V580.199H278.296V580.992ZM285.23 586.51H284.204L284.119 580.162H285.315L285.23 586.51ZM284.717 589.073C284.575 589.073 284.442 589.037 284.32 588.963C284.202 588.89 284.107 588.795 284.033 588.677C283.964 588.554 283.932 588.422 283.936 588.28C283.932 588.141 283.964 588.011 284.033 587.889C284.107 587.767 284.202 587.671 284.32 587.602C284.442 587.533 284.575 587.499 284.717 587.499C284.859 587.499 284.99 587.533 285.108 587.602C285.23 587.671 285.325 587.767 285.395 587.889C285.464 588.011 285.498 588.141 285.498 588.28C285.498 588.422 285.464 588.554 285.395 588.677C285.325 588.795 285.23 588.89 285.108 588.963C284.99 589.037 284.859 589.073 284.717 589.073ZM78.9431 605.118H73.926V600.125H78.9431V605.118ZM74.866 604.349H78.0154V600.907H74.866V604.349ZM81.946 607.096H80.9939V599.137H81.946V607.096ZM83.5818 603.25H81.6409V602.445H83.5818V603.25ZM82.4465 609.757H75.1589V608.951H82.4465V609.757ZM76.0989 609.281H75.1589V606.339H76.0989V609.281ZM87.8298 600.882C87.8298 601.574 87.7037 602.219 87.4514 602.817C87.1991 603.415 86.8431 603.934 86.3833 604.374C85.9235 604.813 85.3884 605.147 84.7781 605.375L84.2532 604.593C84.8066 604.398 85.2948 604.115 85.718 603.745C86.1412 603.375 86.4667 602.943 86.6946 602.451C86.9265 601.959 87.0445 601.436 87.0486 600.882V599.759H87.8298V600.882ZM88.0007 600.846C87.9967 601.354 88.1065 601.839 88.3303 602.298C88.5582 602.754 88.8756 603.157 89.2825 603.507C89.6894 603.857 90.1573 604.121 90.6863 604.3L90.1492 605.045C89.5673 604.825 89.0546 604.51 88.6111 604.099C88.1716 603.688 87.8278 603.206 87.5796 602.652C87.3314 602.095 87.2073 601.493 87.2073 600.846V599.759H88.0007V600.846ZM93.262 605.57H92.2976V599.137H93.262V605.57ZM89.6609 605.887C90.4096 605.887 91.0566 605.967 91.6018 606.125C92.1471 606.284 92.5662 606.518 92.8591 606.827C93.1521 607.136 93.2986 607.507 93.2986 607.938C93.2986 608.365 93.1521 608.729 92.8591 609.031C92.5662 609.336 92.1471 609.568 91.6018 609.726C91.0566 609.885 90.4096 609.964 89.6609 609.964C88.9081 609.964 88.2591 609.885 87.7139 609.726C87.1727 609.568 86.7556 609.336 86.4626 609.031C86.1697 608.729 86.0232 608.365 86.0232 607.938C86.0232 607.507 86.1697 607.136 86.4626 606.827C86.7556 606.518 87.1727 606.284 87.7139 606.125C88.2591 605.967 88.9081 605.887 89.6609 605.887ZM89.6609 606.644C89.1075 606.644 88.6294 606.695 88.2266 606.797C87.8237 606.898 87.5145 607.047 87.2988 607.242C87.0832 607.438 86.9753 607.669 86.9753 607.938C86.9753 608.198 87.0832 608.422 87.2988 608.609C87.5145 608.797 87.8237 608.941 88.2266 609.043C88.6294 609.144 89.1075 609.195 89.6609 609.195C90.2102 609.195 90.6863 609.144 91.0891 609.043C91.496 608.941 91.8073 608.797 92.0229 608.609C92.2386 608.422 92.3464 608.198 92.3464 607.938C92.3464 607.669 92.2386 607.438 92.0229 607.242C91.8073 607.047 91.496 606.898 91.0891 606.797C90.6863 606.695 90.2102 606.644 89.6609 606.644ZM92.5051 602.262H89.8806V601.468H92.5051V602.262ZM104.016 604.776H103.076V599.137H104.016V604.776ZM104.029 607.889H97.9373V609.452H96.9973V607.169H103.076V606.058H96.9729V605.301H104.029V607.889ZM104.419 609.867H96.9973V609.098H104.419V609.867ZM98.7917 600.675C98.7917 601.306 98.6615 601.896 98.4011 602.445C98.1407 602.99 97.7745 603.466 97.3025 603.873C96.8305 604.276 96.2893 604.581 95.679 604.789L95.2273 604.032C95.7644 603.853 96.2445 603.592 96.6677 603.25C97.0909 602.909 97.4205 602.516 97.6565 602.073C97.8925 601.629 98.0105 601.163 98.0105 600.675V600.089H98.7917V600.675ZM98.9749 600.675C98.9749 601.139 99.0949 601.58 99.335 601.999C99.575 602.418 99.9046 602.787 100.324 603.104C100.747 603.417 101.229 603.653 101.77 603.812L101.294 604.557C100.688 604.365 100.151 604.081 99.6829 603.702C99.219 603.32 98.8548 602.87 98.5903 602.353C98.3299 601.832 98.2017 601.273 98.2058 600.675V600.089H98.9749V600.675ZM101.477 600.553H95.4714V599.759H101.477V600.553ZM114.344 607.633H113.379V599.137H114.344V607.633ZM115.967 603.751H113.941V602.945H115.967V603.751ZM114.734 609.757H107.447V608.951H114.734V609.757ZM108.411 609.208H107.447V607.059H108.411V609.208ZM109.717 605.924H108.765V604.447H109.717V605.924ZM105.823 605.594C107.149 605.59 108.378 605.564 109.51 605.515C110.645 605.462 111.711 605.358 112.708 605.204L112.793 605.887C111.821 606.07 110.808 606.194 109.754 606.26C108.704 606.321 107.532 606.359 106.238 606.375C106.169 606.375 106.118 606.375 106.085 606.375C106.053 606.375 106.002 606.375 105.933 606.375L105.823 605.594ZM112.378 600.931H106.092V600.211H112.378V600.931ZM109.229 601.407C109.737 601.407 110.183 601.472 110.565 601.603C110.952 601.733 111.249 601.926 111.457 602.182C111.668 602.435 111.776 602.734 111.78 603.08C111.776 603.417 111.668 603.712 111.457 603.965C111.249 604.213 110.952 604.404 110.565 604.538C110.183 604.673 109.737 604.74 109.229 604.74C108.72 604.74 108.275 604.671 107.892 604.532C107.514 604.394 107.219 604.203 107.007 603.958C106.795 603.71 106.69 603.417 106.69 603.08C106.69 602.738 106.795 602.439 107.007 602.182C107.219 601.926 107.514 601.733 107.892 601.603C108.275 601.472 108.72 601.407 109.229 601.407ZM109.229 602.091C108.899 602.091 108.61 602.129 108.362 602.207C108.118 602.284 107.931 602.398 107.801 602.549C107.67 602.699 107.605 602.876 107.605 603.08C107.605 603.275 107.67 603.446 107.801 603.592C107.931 603.739 108.118 603.853 108.362 603.934C108.61 604.015 108.899 604.056 109.229 604.056C109.558 604.056 109.845 604.015 110.089 603.934C110.338 603.853 110.529 603.739 110.663 603.592C110.797 603.446 110.865 603.275 110.865 603.08C110.865 602.876 110.799 602.699 110.669 602.549C110.539 602.398 110.348 602.284 110.095 602.207C109.847 602.129 109.558 602.091 109.229 602.091ZM109.717 600.553H108.765V599.112H109.717V600.553ZM118.408 606.449C118.413 605.924 118.465 605.499 118.567 605.173C118.673 604.844 118.819 604.581 119.007 604.386C119.194 604.186 119.446 603.991 119.763 603.8C119.938 603.694 120.093 603.568 120.227 603.421C120.366 603.275 120.471 603.11 120.545 602.927C120.618 602.744 120.655 602.542 120.655 602.323C120.655 602.054 120.591 601.816 120.465 601.609C120.339 601.401 120.164 601.242 119.94 601.133C119.717 601.019 119.47 600.964 119.202 600.968C118.958 600.964 118.73 601.013 118.518 601.114C118.307 601.212 118.128 601.369 117.981 601.584C117.839 601.796 117.757 602.062 117.737 602.384H116.626C116.647 601.904 116.771 601.487 116.999 601.133C117.23 600.779 117.538 600.508 117.92 600.321C118.307 600.134 118.734 600.04 119.202 600.04C119.702 600.04 120.144 600.14 120.526 600.339C120.913 600.538 121.21 600.815 121.417 601.169C121.625 601.523 121.729 601.924 121.729 602.372C121.729 602.835 121.625 603.24 121.417 603.586C121.21 603.928 120.911 604.219 120.52 604.459C120.26 604.618 120.056 604.782 119.91 604.953C119.763 605.12 119.654 605.324 119.58 605.564C119.507 605.8 119.466 606.095 119.458 606.449V606.51H118.408V606.449ZM118.97 609.073C118.828 609.073 118.695 609.037 118.573 608.963C118.455 608.89 118.36 608.795 118.286 608.677C118.217 608.554 118.185 608.422 118.189 608.28C118.185 608.141 118.217 608.011 118.286 607.889C118.36 607.767 118.455 607.671 118.573 607.602C118.695 607.533 118.828 607.499 118.97 607.499C119.112 607.499 119.243 607.533 119.361 607.602C119.483 607.671 119.578 607.767 119.647 607.889C119.717 608.011 119.751 608.141 119.751 608.28C119.751 608.422 119.717 608.554 119.647 608.677C119.578 608.795 119.483 608.89 119.361 608.963C119.243 609.037 119.112 609.073 118.97 609.073ZM131.421 599.845C131.421 600.74 131.218 601.552 130.811 602.28C130.404 603.008 129.82 603.637 129.059 604.166C128.298 604.695 127.393 605.11 126.343 605.411L125.94 604.654C126.868 604.394 127.667 604.048 128.339 603.617C129.01 603.185 129.525 602.685 129.883 602.115C130.241 601.546 130.42 600.927 130.42 600.26V599.845H131.421ZM131.055 600.638H126.502V599.845H131.055V600.638ZM134.802 609.977H133.838V606.778H127.503V605.997H134.802V609.977ZM134.802 605.521H133.838V599.149H134.802V605.521ZM134.046 602.799H131.47V601.993H134.046V602.799ZM144.934 602.762H142.456V601.969H144.934V602.762ZM145.606 605.606H144.641V599.137H145.606V605.606ZM142.005 605.948C142.753 605.948 143.4 606.028 143.946 606.186C144.491 606.345 144.91 606.575 145.203 606.876C145.496 607.177 145.642 607.539 145.642 607.962C145.642 608.386 145.496 608.748 145.203 609.049C144.91 609.35 144.491 609.58 143.946 609.739C143.4 609.901 142.753 609.985 142.005 609.989C141.252 609.985 140.603 609.901 140.058 609.739C139.516 609.58 139.099 609.35 138.806 609.049C138.513 608.748 138.367 608.386 138.367 607.962C138.367 607.539 138.513 607.177 138.806 606.876C139.099 606.575 139.518 606.345 140.064 606.186C140.609 606.028 141.256 605.948 142.005 605.948ZM142.005 606.693C141.451 606.693 140.973 606.744 140.57 606.845C140.167 606.947 139.858 607.094 139.643 607.285C139.427 607.476 139.319 607.702 139.319 607.962C139.319 608.223 139.427 608.447 139.643 608.634C139.858 608.821 140.167 608.965 140.57 609.067C140.973 609.169 141.451 609.22 142.005 609.22C142.554 609.22 143.03 609.169 143.433 609.067C143.84 608.965 144.151 608.821 144.367 608.634C144.582 608.447 144.69 608.223 144.69 607.962C144.69 607.702 144.582 607.476 144.367 607.285C144.151 607.094 143.84 606.947 143.433 606.845C143.03 606.744 142.554 606.693 142.005 606.693ZM140.21 601.139C140.21 601.79 140.082 602.406 139.826 602.988C139.569 603.57 139.209 604.079 138.745 604.514C138.286 604.949 137.757 605.281 137.158 605.509L136.658 604.74C137.191 604.549 137.665 604.268 138.08 603.897C138.499 603.523 138.827 603.098 139.063 602.622C139.299 602.142 139.417 601.647 139.417 601.139V600.235H140.21V601.139ZM140.381 601.126C140.381 601.594 140.493 602.048 140.717 602.488C140.941 602.923 141.256 603.312 141.663 603.653C142.07 603.995 142.534 604.256 143.054 604.435L142.554 605.204C141.972 604.992 141.457 604.681 141.01 604.27C140.566 603.859 140.22 603.383 139.972 602.842C139.724 602.296 139.6 601.725 139.6 601.126V600.235H140.381V601.126ZM142.81 600.736H136.963V599.93H142.81V600.736ZM159.033 604.667H158.081V599.137H159.033V604.667ZM160.669 602.298H158.606V601.493H160.669V602.298ZM156.031 604.093H151.013V599.759H156.031V604.093ZM151.953 603.324H155.103V600.541H151.953V603.324ZM159.033 607.828H153.076V609.488H152.136V607.096H158.081V605.948H152.112V605.179H159.033V607.828ZM159.436 609.842H152.136V609.073H159.436V609.842ZM169.458 601.029H162.403V600.235H169.458V601.029ZM171.24 608.451H161.353V607.657H171.24V608.451ZM166.175 608.072H165.235V603.775H166.175V608.072ZM170.056 601.456C170.048 602.355 170.02 603.159 169.971 603.867C169.926 604.575 169.82 605.395 169.654 606.327L168.677 606.217C168.803 605.59 168.895 604.996 168.952 604.435C169.013 603.873 169.049 603.385 169.062 602.97C169.078 602.551 169.088 602.026 169.092 601.395V601.322V600.235H170.056V601.322V601.456ZM187.647 605.228H186.731V599.149H187.647V605.228ZM185.291 602.787H183.545V602.005H185.291V602.787ZM185.669 605.13H184.766V599.332H185.669V605.13ZM187.647 608.097H181.421V609.354H180.469V607.389H186.707V606.424H180.445V605.704H187.647V608.097ZM188.062 609.867H180.469V609.134H188.062V609.867ZM183.814 600.968H178.369V600.211H183.814V600.968ZM181.092 601.407C181.531 601.407 181.922 601.48 182.263 601.627C182.605 601.773 182.872 601.983 183.063 602.256C183.254 602.528 183.35 602.844 183.35 603.202C183.35 603.56 183.254 603.873 183.063 604.142C182.872 604.41 182.605 604.62 182.263 604.77C181.922 604.917 181.531 604.988 181.092 604.984C180.648 604.988 180.255 604.917 179.914 604.77C179.576 604.62 179.311 604.41 179.12 604.142C178.929 603.873 178.833 603.56 178.833 603.202C178.833 602.844 178.929 602.528 179.12 602.256C179.311 601.983 179.576 601.773 179.914 601.627C180.255 601.48 180.648 601.407 181.092 601.407ZM181.092 602.115C180.811 602.111 180.563 602.154 180.347 602.243C180.135 602.329 179.971 602.457 179.853 602.628C179.735 602.795 179.676 602.986 179.676 603.202C179.676 603.417 179.735 603.611 179.853 603.781C179.971 603.948 180.135 604.076 180.347 604.166C180.563 604.256 180.811 604.3 181.092 604.3C181.368 604.3 181.614 604.256 181.83 604.166C182.046 604.076 182.213 603.948 182.331 603.781C182.449 603.611 182.508 603.417 182.508 603.202C182.508 602.986 182.449 602.795 182.331 602.628C182.213 602.457 182.046 602.329 181.83 602.243C181.614 602.154 181.368 602.111 181.092 602.115ZM181.568 600.76H180.615V599.112H181.568V600.76ZM194.483 600.736C194.483 601.489 194.271 602.191 193.848 602.842C193.425 603.489 192.875 604.036 192.2 604.483C191.529 604.931 190.825 605.24 190.088 605.411L189.649 604.605C190.288 604.483 190.914 604.231 191.529 603.849C192.147 603.466 192.654 603 193.048 602.451C193.443 601.902 193.64 601.33 193.64 600.736V599.906H194.483V600.736ZM194.641 600.736C194.641 601.33 194.841 601.902 195.24 602.451C195.638 603 196.147 603.468 196.765 603.855C197.388 604.237 198.019 604.487 198.657 604.605L198.218 605.411C197.486 605.24 196.782 604.931 196.106 604.483C195.431 604.036 194.881 603.489 194.458 602.842C194.035 602.191 193.823 601.489 193.823 600.736V599.906H194.641V600.736ZM199.17 608.512H189.234V607.718H199.17V608.512ZM204.59 607.071H200.44V600.406H204.59V607.071ZM201.343 606.302H203.687V601.175H201.343V606.302ZM209.339 609.989H208.411V599.137H209.339V609.989ZM206.653 604.032H204.126V603.238H206.653V604.032ZM207.154 609.439H206.238V599.369H207.154V609.439ZM219.788 610.013H218.823V599.137H219.788V610.013ZM214.014 599.979C214.551 599.979 215.029 600.134 215.448 600.443C215.867 600.752 216.195 601.194 216.431 601.767C216.667 602.341 216.785 603.006 216.785 603.763C216.785 604.52 216.667 605.183 216.431 605.753C216.195 606.323 215.867 606.762 215.448 607.071C215.029 607.381 214.551 607.535 214.014 607.535C213.477 607.535 212.999 607.381 212.58 607.071C212.16 606.762 211.833 606.323 211.597 605.753C211.361 605.183 211.243 604.52 211.243 603.763C211.243 603.006 211.361 602.341 211.597 601.767C211.833 601.194 212.16 600.752 212.58 600.443C212.999 600.134 213.477 599.979 214.014 599.979ZM214.014 600.833C213.656 600.833 213.336 600.956 213.056 601.2C212.775 601.444 212.557 601.788 212.403 602.231C212.248 602.675 212.171 603.185 212.171 603.763C212.171 604.345 212.248 604.858 212.403 605.301C212.557 605.741 212.775 606.08 213.056 606.321C213.336 606.561 213.656 606.681 214.014 606.681C214.376 606.681 214.695 606.561 214.972 606.321C215.253 606.08 215.471 605.741 215.625 605.301C215.78 604.858 215.857 604.345 215.857 603.763C215.857 603.181 215.78 602.671 215.625 602.231C215.471 601.788 215.253 601.444 214.972 601.2C214.695 600.956 214.376 600.833 214.014 600.833ZM230.432 605.79H222.925V605.008H230.432V605.79ZM231.58 608.573H221.643V607.779H231.58V608.573ZM230.31 600.882H223.902V605.24H222.925V600.077H230.31V600.882ZM230.078 603.263H223.596V602.494H230.078V603.263ZM238.977 604.166H236.89V603.373H238.977V604.166ZM241.748 609.989H240.821V599.137H241.748V609.989ZM239.563 609.439H238.648V599.369H239.563V609.439ZM234.912 600.052C235.38 600.052 235.789 600.207 236.139 600.516C236.493 600.825 236.768 601.265 236.963 601.834C237.158 602.4 237.256 603.063 237.256 603.824C237.256 604.585 237.158 605.25 236.963 605.82C236.768 606.386 236.493 606.823 236.139 607.132C235.789 607.442 235.38 607.596 234.912 607.596C234.444 607.596 234.035 607.442 233.686 607.132C233.34 606.823 233.069 606.386 232.874 605.82C232.678 605.25 232.581 604.585 232.581 603.824C232.581 603.063 232.678 602.4 232.874 601.834C233.069 601.265 233.34 600.825 233.686 600.516C234.035 600.207 234.444 600.052 234.912 600.052ZM234.912 600.956C234.619 600.956 234.365 601.072 234.149 601.303C233.934 601.535 233.767 601.869 233.649 602.304C233.535 602.736 233.48 603.242 233.484 603.824C233.48 604.406 233.535 604.913 233.649 605.344C233.767 605.771 233.934 606.103 234.149 606.339C234.369 606.571 234.623 606.685 234.912 606.681C235.205 606.685 235.462 606.571 235.681 606.339C235.901 606.103 236.068 605.771 236.182 605.344C236.296 604.913 236.353 604.406 236.353 603.824C236.353 603.242 236.296 602.736 236.182 602.304C236.068 601.869 235.901 601.535 235.681 601.303C235.462 601.072 235.205 600.956 234.912 600.956ZM252.539 609.989H251.624V599.137H252.539V609.989ZM249.622 604.374H246.839V603.592H249.622V604.374ZM250.257 609.439H249.341V599.43H250.257V609.439ZM247.937 600.528C247.933 601.497 247.789 602.412 247.504 603.275C247.223 604.138 246.778 604.941 246.167 605.686C245.557 606.43 244.776 607.083 243.823 607.645L243.262 606.949C244.104 606.449 244.804 605.875 245.362 605.228C245.923 604.577 246.336 603.873 246.601 603.116C246.869 602.359 247.005 601.554 247.01 600.699V600.528H247.937ZM247.376 601.322H243.726V600.528H247.376V601.322ZM262.598 605.936H261.646V604.251H262.598V605.936ZM267.078 604.508H257.19V603.727H267.078V604.508ZM265.796 602.811H258.472V599.503H265.796V602.811ZM259.424 602.042H264.844V600.272H259.424V602.042ZM265.808 608.011H259.363V609.354H258.411V607.291H264.868V606.327H258.386V605.582H265.808V608.011ZM266.138 609.867H258.411V609.11H266.138V609.867ZM270.911 599.979C271.436 599.979 271.904 600.134 272.315 600.443C272.73 600.752 273.051 601.194 273.279 601.767C273.507 602.341 273.621 603.006 273.621 603.763C273.621 604.524 273.507 605.189 273.279 605.759C273.051 606.325 272.73 606.762 272.315 607.071C271.904 607.381 271.436 607.535 270.911 607.535C270.378 607.535 269.904 607.381 269.489 607.071C269.078 606.762 268.758 606.325 268.531 605.759C268.303 605.189 268.189 604.524 268.189 603.763C268.189 603.006 268.303 602.341 268.531 601.767C268.758 601.194 269.078 600.752 269.489 600.443C269.904 600.134 270.378 599.979 270.911 599.979ZM270.911 600.833C270.557 600.833 270.244 600.956 269.971 601.2C269.702 601.444 269.491 601.788 269.336 602.231C269.182 602.671 269.104 603.181 269.104 603.763C269.104 604.345 269.182 604.858 269.336 605.301C269.491 605.741 269.702 606.08 269.971 606.321C270.244 606.561 270.557 606.681 270.911 606.681C271.261 606.681 271.574 606.561 271.851 606.321C272.128 606.08 272.341 605.739 272.492 605.295C272.642 604.852 272.718 604.341 272.718 603.763C272.718 603.185 272.642 602.675 272.492 602.231C272.341 601.788 272.128 601.444 271.851 601.2C271.574 600.956 271.261 600.833 270.911 600.833ZM276.99 610.013H276.038V599.137H276.99V610.013ZM276.465 604.081H273.303V603.287H276.465V604.081ZM288.733 608.597H278.797V607.804H288.733V608.597ZM284.204 608.048H283.264V605.179H284.204V608.048ZM280.933 601.871H286.573V599.906H287.512V605.46H279.969V599.906H280.933V601.871ZM286.573 604.679V602.652H280.933V604.679H286.573ZM296.045 603.849H293.909V603.031H296.045V603.849ZM292.652 602.262C292.652 603.006 292.548 603.733 292.34 604.441C292.133 605.145 291.834 605.777 291.443 606.339C291.057 606.896 290.605 607.332 290.088 607.645L289.478 606.925C289.966 606.64 290.393 606.249 290.76 605.753C291.126 605.257 291.406 604.707 291.602 604.105C291.797 603.499 291.895 602.884 291.895 602.262V600.162H292.652V602.262ZM292.823 602.225C292.823 602.807 292.914 603.387 293.097 603.965C293.28 604.538 293.543 605.063 293.885 605.539C294.23 606.015 294.637 606.392 295.105 606.668L294.556 607.413C294.043 607.104 293.6 606.675 293.225 606.125C292.851 605.576 292.566 604.964 292.371 604.288C292.18 603.613 292.086 602.925 292.09 602.225V600.162H292.823V602.225ZM298.902 609.989H297.974V599.137H298.902V609.989ZM296.656 609.439H295.752V599.369H296.656V609.439ZM303.809 607.987H302.869V604.74H303.809V607.987ZM307.874 607.987H306.909V604.74H307.874V607.987ZM310.34 608.597H300.403V607.792H310.34V608.597ZM305.347 599.82C306.116 599.824 306.8 599.942 307.398 600.174C308 600.402 308.47 600.73 308.808 601.157C309.145 601.58 309.314 602.066 309.314 602.616C309.314 603.169 309.145 603.655 308.808 604.074C308.47 604.494 308 604.819 307.398 605.051C306.8 605.283 306.116 605.399 305.347 605.399C304.578 605.399 303.892 605.283 303.29 605.051C302.692 604.819 302.224 604.494 301.886 604.074C301.549 603.655 301.38 603.169 301.38 602.616C301.38 602.066 301.549 601.58 301.886 601.157C302.224 600.73 302.692 600.402 303.29 600.174C303.892 599.942 304.578 599.824 305.347 599.82ZM305.347 600.614C304.757 600.61 304.23 600.691 303.766 600.858C303.306 601.021 302.948 601.255 302.692 601.56C302.436 601.865 302.307 602.217 302.307 602.616C302.307 603.014 302.436 603.366 302.692 603.672C302.948 603.977 303.306 604.215 303.766 604.386C304.23 604.557 304.757 604.642 305.347 604.642C305.933 604.642 306.456 604.557 306.916 604.386C307.375 604.215 307.735 603.977 307.996 603.672C308.256 603.366 308.386 603.014 308.386 602.616C308.386 602.217 308.256 601.865 307.996 601.56C307.735 601.255 307.375 601.021 306.916 600.858C306.456 600.691 305.933 600.61 305.347 600.614ZM312.879 606.51H311.853L311.768 600.162H312.964L312.879 606.51ZM312.366 609.073C312.224 609.073 312.091 609.037 311.969 608.963C311.851 608.89 311.756 608.795 311.682 608.677C311.613 608.554 311.581 608.422 311.585 608.28C311.581 608.141 311.613 608.011 311.682 607.889C311.756 607.767 311.851 607.671 311.969 607.602C312.091 607.533 312.224 607.499 312.366 607.499C312.508 607.499 312.639 607.533 312.757 607.602C312.879 607.671 312.974 607.767 313.043 607.889C313.113 608.011 313.147 608.141 313.147 608.28C313.147 608.422 313.113 608.554 313.043 608.677C312.974 608.795 312.879 608.89 312.757 608.963C312.639 609.037 312.508 609.073 312.366 609.073Z" fill="#626262"/>
<circle cx="175" cy="726" r="6" fill="#01A4FC"/>
<circle opacity="0.6" cx="194" cy="726" r="4" fill="#01A4FC"/>
<circle opacity="0.6" cx="212" cy="726" r="4" fill="#01A4FC"/>
<rect x="297.5" y="704.5" width="42" height="42" rx="21" fill="#01A4FC"/>
<rect x="297.5" y="704.5" width="42" height="42" rx="21" stroke="#01A4FC"/>
<path d="M317.647 733.913L325.957 725.5ZM325.957 725.5L317.647 717.087ZM325.957 725.5H311Z" fill="#01A4FC"/>
<path d="M317.647 733.913L325.957 725.5M325.957 725.5L317.647 717.087M325.957 725.5H311" stroke="white" stroke-width="2" stroke-linecap="round" stroke-linejoin="round"/>
<defs>
<clipPath id="clip0_30_246">
<rect width="335" height="293" fill="white" transform="translate(26 141)"/>
</clipPath>
</defs>
</svg>
