<svg width="375" height="812" viewBox="0 0 375 812" fill="none" xmlns="http://www.w3.org/2000/svg">
<rect width="375" height="812" fill="#FAFBFC"/>
<g clip-path="url(#clip0_18_633)">
<path d="M312.398 291.37C311.072 278.408 306.637 259.643 288.553 252.972C281.783 261.566 268.274 255.713 264.755 249.88C257.677 260.947 245.65 271.329 237.696 284.774C233.857 291.268 229.228 298.913 233.924 306.043C248.055 304.747 262.274 304.716 276.41 305.95C280.779 298.367 281.29 295.563 281.228 288.868C281.228 288.157 282.25 287.846 282.341 288.713C283.02 294.796 281.641 300.93 278.425 306.138C280.161 306.248 281.884 306.503 283.578 306.9C285.038 307.254 284.608 308.251 283.319 308.127C267.416 306.597 251.405 306.57 235.497 308.045C240.556 314.454 240.289 318.35 239.031 324.981C247.368 330.7 277.867 338.267 291.591 334.09C304.209 330.25 313.957 306.621 312.398 291.37Z" fill="#38A1FF"/>
<path d="M183.613 264.506C175.802 259.777 159.336 258.53 150.258 263.373C148.3 271.133 141.756 280.397 138.521 283.333C133.719 282.165 125.362 278.254 122.239 272.256C108.369 276.687 94.8083 297.78 90.8006 311.928C85.2366 306.075 74.4983 290.845 72.2586 285.672C67.5302 288.894 62.1132 290.966 56.441 291.721C60.8414 322.381 80.8828 350.575 95.1032 349.519C106.439 348.677 113.775 336.68 118.103 328.694C115.457 325.745 113.171 322.494 111.292 319.007C110.911 318.291 111.438 316.936 112.322 318.079C129.696 340.563 153.962 354.352 186.198 356.206C170.073 334.227 164.601 286.157 183.613 264.506Z" fill="#38A1FF"/>
<path d="M139.036 245.938C143.508 245.341 143.796 238.416 139.994 236.354C140.583 232.42 140.801 228.439 140.644 224.464C140.429 218.817 137.303 216.326 132.132 215.726C127.573 215.194 123.311 213.19 119.993 210.018C114.245 204.524 114.676 213.18 119.993 216.953C115.126 216.41 110.389 215.033 105.989 212.882C102.97 211.069 101.5 211.691 102.146 214.314C102.46 215.664 103.067 216.928 103.925 218.017C104.783 219.105 105.871 219.99 107.11 220.61C102.165 221.262 97.1396 220.93 92.3234 219.632C88.1741 218.464 86.1418 218.848 88.3157 222.465C90.103 225.06 92.4169 227.248 95.1066 228.889C97.7962 230.529 100.801 231.585 103.926 231.986C111.087 232.767 118.805 230.76 127.152 227.535C128.139 232.244 130.755 236.454 134.539 239.426C134.988 239.781 135.63 239.838 135.853 239.188C137.182 235.246 142.286 239.188 140.356 242.878C139.683 244.164 138.718 244.073 137.781 244.084C136.843 244.094 137.151 244.66 137.286 245.506C137.833 248.967 143.771 262.204 146.323 264.445C146.932 264.979 147.5 264.278 147.126 263.673C143.689 258.127 140.971 252.168 139.036 245.938Z" fill="#191919"/>
<path d="M113.914 235.902C113.199 236.014 112.526 236.312 111.963 236.766C111.399 237.219 110.964 237.813 110.702 238.488C110.223 239.74 110.877 240.28 111.731 239.178C112.485 238.382 113.423 237.784 114.463 237.438C115.314 237.098 115.387 235.664 113.914 235.902Z" fill="#191919"/>
<path d="M112.172 242.919C111.947 243.558 112.464 243.866 113.017 243.393C113.323 243.13 113.682 242.934 114.069 242.818C114.456 242.703 114.863 242.67 115.263 242.723C116.057 242.723 116.114 242.051 115.479 241.692C115.187 241.524 114.862 241.423 114.527 241.395C114.191 241.367 113.854 241.413 113.538 241.53C113.222 241.647 112.936 241.832 112.7 242.072C112.464 242.312 112.284 242.601 112.172 242.919Z" fill="#191919"/>
<path d="M124.382 239.426C124.069 239.231 123.718 239.105 123.352 239.058C122.986 239.01 122.615 239.041 122.262 239.15C121.909 239.258 121.584 239.441 121.308 239.686C121.033 239.931 120.813 240.232 120.663 240.569C120.436 241.189 120.844 241.507 121.247 241.219C122.053 240.627 123.029 240.313 124.029 240.323C124.537 240.26 125.042 239.784 124.382 239.426Z" fill="#191919"/>
<path d="M123.28 251.379C122.757 251.682 122.696 252.482 123.703 252.245C127.083 251.442 128.924 249.429 127.587 246.897C127.203 246.167 126.156 246.773 126.484 247.504C127.537 249.843 124.543 250.648 123.28 251.379Z" fill="#191919"/>
<path d="M123.344 234.325C122.56 233.944 121.693 233.768 120.822 233.813C119.952 233.859 119.107 234.124 118.367 234.583C118.225 234.692 118.125 234.847 118.085 235.021C118.044 235.194 118.065 235.377 118.144 235.537C118.223 235.698 118.355 235.826 118.517 235.9C118.68 235.973 118.863 235.989 119.036 235.943C120.292 235.445 121.65 235.258 122.994 235.397C123.878 235.55 124.236 234.835 123.344 234.325Z" fill="#191919"/>
<path d="M117.324 242.208C116.948 243.685 116.356 248.468 118.138 248.957C119.066 249.213 121.834 248.124 121.291 247.175C120.866 246.434 118.884 247.843 118.633 247.423C118.122 245.72 117.988 243.926 118.241 242.167C118.262 241.353 117.722 240.645 117.324 242.208Z" fill="#191919"/>
<path d="M206.386 269.648C206.233 266.228 202.264 261.776 199.007 261.756C198.245 261.756 197.658 262.868 198.423 263.07C200.087 263.513 201.603 264.391 202.816 265.613C204.029 266.836 204.896 268.358 205.327 270.025C205.58 270.913 206.447 271.04 206.386 269.648Z" fill="#191919"/>
<path d="M209.192 264.496C208.123 259.919 203.01 257.977 198.714 258.561C193.84 259.224 189.778 262.589 186.657 266.299C183.338 270.241 186.234 276.478 179.856 279.055C178.396 279.639 178.97 280.652 180.453 280.2C188.172 277.84 185.225 269.997 188.069 267.247C190.913 264.496 193.922 261.487 198.013 260.497C202.104 259.507 206.379 261.037 208.049 265C208.361 265.754 209.376 265.3 209.192 264.496Z" fill="#191919"/>
<path d="M201.336 272.04C201.952 273.354 202.86 272.875 202.521 271.602C201.704 268.512 198.902 264.132 195.112 264.575C194.35 264.664 194.482 265.845 195.112 266.017C199.496 267.209 200.363 269.951 201.336 272.04Z" fill="#191919"/>
<path d="M190.98 267.558C190.167 267.69 189.949 268.962 190.98 269C192.356 268.982 193.699 269.425 194.794 270.257C195.89 271.09 196.677 272.264 197.029 273.595C197.42 274.389 198.051 274.389 198.059 273.317C198.076 270.164 194.339 267.007 190.98 267.558Z" fill="#191919"/>
<path d="M55.6204 271.308C53.8319 264.351 53.4567 262.256 53.5604 257.809C53.5837 256.778 52.6639 257.025 52.3135 258.376C51.5603 262.993 52.2811 267.731 54.3736 271.916C54.7459 272.657 55.8175 272.07 55.6204 271.308Z" fill="#191919"/>
<path d="M49.5001 262.951C49.5001 261.766 48.3467 262.291 48.3146 263.043C48.1826 268.866 49.763 274.599 52.8596 279.531C54.6273 282.557 55.9858 285.803 56.8994 289.186C57.1666 290.134 58.3375 290.288 58.1871 288.424C57.5538 284.875 56.2282 281.486 54.286 278.449C51.445 273.753 49.8015 268.431 49.5001 262.951Z" fill="#191919"/>
<path d="M69.8613 265.188C69.159 263.973 68.3181 264.842 68.832 265.772C72.1549 271.746 64.9601 279.318 69.8613 284.835C69.9837 284.947 70.1404 285.013 70.3056 285.024C70.4709 285.035 70.6349 284.989 70.7708 284.895C70.9066 284.8 71.0062 284.662 71.0532 284.503C71.1002 284.344 71.0917 284.174 71.0293 284.021C67.829 277.89 73.3565 271.231 69.8613 265.188Z" fill="#191919"/>
<path d="M62.4941 257.742C62.4795 257.062 61.6064 256.443 61.3407 257.742C60.8312 260.224 61.1246 267.636 62.7306 269.695C62.8232 269.808 62.9503 269.888 63.0925 269.923C63.2347 269.957 63.3842 269.944 63.5184 269.886C63.6526 269.828 63.7641 269.727 63.8359 269.6C63.9076 269.472 63.9358 269.325 63.9161 269.18C63.0991 265.418 62.6232 261.59 62.4941 257.742Z" fill="#191919"/>
<path d="M58.2689 255.913C58.2689 255.151 57.3929 255.059 57.1155 255.913C56.0146 259.379 56.4205 266.708 58.4645 269.929C58.9025 270.628 60.1201 270.342 59.9245 269.423C58.6743 265.033 58.1157 260.475 58.2689 255.913Z" fill="#191919"/>
<path d="M229.406 308.842C230.168 309.153 230.371 307.95 229.921 307.528C227.314 305.056 219.616 304.725 215.742 307.632C215.597 307.71 215.487 307.841 215.436 307.998C215.386 308.155 215.397 308.325 215.469 308.474C215.541 308.623 215.667 308.738 215.821 308.796C215.975 308.854 216.146 308.85 216.298 308.785C222.903 306.198 226.324 307.594 229.406 308.842Z" fill="#191919"/>
<path d="M223.697 320.172C230.454 319.058 231.037 320.91 233.167 321.058C233.362 321.074 233.557 321.013 233.708 320.887C233.859 320.761 233.954 320.58 233.973 320.385C234.135 318.59 227.176 317.126 223.274 319.039C222.504 319.415 222.955 320.294 223.697 320.172Z" fill="#191919"/>
<path d="M219.792 316.916C226.709 314.771 229.058 316.126 232.92 317.183C233.691 317.395 233.889 316.254 233.373 315.834C230.655 313.613 223.153 313.635 219.39 315.771C218.72 316.152 218.957 317.174 219.792 316.916Z" fill="#191919"/>
<path d="M217.73 313.308C223.915 311.429 226.655 312.336 230.787 313.016C230.948 313.041 231.113 313.012 231.257 312.935C231.401 312.858 231.516 312.736 231.585 312.588C231.653 312.439 231.672 312.273 231.637 312.113C231.603 311.953 231.518 311.809 231.394 311.702C228.749 309.4 220.31 309.698 217.174 312.187C216.492 312.733 216.948 313.546 217.73 313.308Z" fill="#191919"/>
<path d="M319.291 219.734C316.063 221.333 312.467 222.045 308.874 221.795C304.988 229.358 299.274 242.539 288.908 241.244C285.518 240.822 283.598 238.217 281.571 235.782C281.014 235.113 280.39 235.724 280.696 236.381C281.796 238.731 283.463 240.771 285.549 242.316C284.518 244.506 283.487 250.302 283.962 252.445C283.989 252.576 284.061 252.694 284.165 252.779C284.269 252.863 284.399 252.909 284.533 252.909C284.667 252.909 284.797 252.863 284.901 252.779C285.005 252.694 285.077 252.576 285.105 252.445C285.173 251.434 285.328 250.431 285.569 249.446C292.524 250.889 301.592 255.724 306.529 263.779C321.037 260.688 322.314 244.551 314.081 238.451C324.166 235.881 323.774 223.197 319.291 219.734Z" fill="#191919"/>
<path d="M294.561 226.916C295.729 227.221 296.897 224.546 295.931 223.939C294.646 223.14 292.971 226.498 294.561 226.916Z" fill="#191919"/>
<path d="M301.527 230.148C302.393 230.202 303.353 228.447 303.124 227.757C302.461 225.768 299.477 230.022 301.527 230.148Z" fill="#191919"/>
<path d="M303.835 223.515C304.562 223.949 305.132 224.602 305.463 225.381C305.659 226.082 306.606 226.308 306.596 225.061C306.536 224.41 306.296 223.789 305.903 223.267C305.51 222.744 304.98 222.342 304.371 222.103C303.266 221.689 302.35 222.644 303.835 223.515Z" fill="#191919"/>
<path d="M298.178 221.064C299.506 221.502 299.93 220.362 298.878 219.589C298.077 219.094 297.15 218.842 296.208 218.862C295.266 218.882 294.351 219.174 293.571 219.703C293.076 220.229 293.345 220.734 294.009 220.63C295.409 220.317 296.873 220.469 298.178 221.064Z" fill="#191919"/>
<path d="M287.966 231.754C287.864 232.279 287.869 232.818 287.98 233.341C288.091 233.864 288.306 234.359 288.613 234.797C288.92 235.234 289.312 235.605 289.765 235.888C290.219 236.171 290.725 236.359 291.253 236.442C291.325 236.492 291.408 236.525 291.494 236.538C291.581 236.55 291.67 236.543 291.753 236.515C291.837 236.488 291.913 236.442 291.975 236.38C292.037 236.318 292.084 236.243 292.113 236.159C292.141 236.076 292.15 235.988 292.138 235.901C292.126 235.814 292.094 235.731 292.045 235.658C291.995 235.586 291.93 235.526 291.853 235.483C291.776 235.44 291.691 235.415 291.603 235.411C291.25 235.323 290.919 235.163 290.63 234.942C290.341 234.721 290.1 234.444 289.922 234.126C289.744 233.809 289.634 233.458 289.596 233.096C289.559 232.734 289.596 232.368 289.705 232.021C290.15 229.472 288.257 229.987 287.966 231.754Z" fill="#191919"/>
<path d="M297.652 233.903C298.868 233.326 299.951 228.605 299.341 227.977C298.397 227.006 298.319 231.132 296.972 232.306C296.388 232.811 295.658 231.357 294.912 231.791C293.996 232.322 295.993 234.687 297.652 233.903Z" fill="#191919"/>
<path d="M222.43 366.294C221.142 367.429 223.268 368.938 224.49 368.149C239.09 358.72 255.013 368.53 251.344 385.285C251.227 385.643 251.255 386.032 251.421 386.37C251.588 386.708 251.88 386.967 252.235 387.093C252.59 387.218 252.981 387.199 253.322 387.041C253.664 386.882 253.93 386.596 254.064 386.244C261.543 367.403 237.45 353.042 222.43 366.294Z" fill="#191919"/>
<path d="M255.023 360.884C242.66 349.934 217.194 349.167 204.361 360.019C177.351 382.863 202.142 421.214 236.428 414.508C262.397 409.436 274.512 378.139 255.023 360.884ZM239.875 410.645C211.205 419.91 181.329 389.857 203.243 365.037C214.359 352.443 239.554 351.911 252.344 362.358C270.106 376.868 261.193 403.755 239.875 410.645Z" fill="#191919"/>
<path d="M282.268 221.388C282.725 222.778 282.706 223.245 284.648 222.027C287.679 220.129 290.583 218.452 292.406 212.321C295.456 215.578 299.359 217.913 303.67 219.061C307.981 220.209 312.528 220.125 316.794 218.817C325.604 216.096 333.704 195.858 310.808 194.416C311.57 182.329 291.126 182.247 288.86 191.963C281.501 186.646 272.372 190.941 271.166 195.683C278.38 215.366 272.197 234.737 267.044 245.227C265.602 248.164 267.482 247.709 267.92 246.845C271.229 240.229 273.813 233.735 278.432 227.802C279.238 226.767 278.526 226.37 277.65 225.958C277.328 225.772 277.047 225.523 276.824 225.226C276.601 224.928 276.44 224.589 276.351 224.228C276.262 223.867 276.248 223.492 276.308 223.125C276.368 222.758 276.502 222.407 276.701 222.093C277.897 219.363 281.38 218.7 282.268 221.388Z" fill="#191919"/>
<path d="M132.606 254.666C131.815 256.049 130.717 257.233 129.397 258.126C128.076 259.019 126.569 259.598 124.991 259.818C113.223 261.25 110.457 244.177 108.648 236.036C108.348 234.686 107.504 235.417 107.617 236.182C108.472 245.22 112.058 262.51 124.105 261.666C124.645 264.915 124.738 268.223 124.382 271.497C124.302 272.289 125.135 273.084 125.753 271.393C126.506 269.333 126.423 264.093 125.979 261.357C127.596 260.934 129.106 260.176 130.41 259.132C131.715 258.089 132.786 256.782 133.554 255.298C133.98 254.477 133.034 253.946 132.606 254.666Z" fill="#191919"/>
<path d="M199.43 352.125C206.644 350.665 225.909 344.259 231.529 339.39C232.444 338.595 231.404 336.916 230.292 337.452C216.13 344.262 209.683 345.695 195.37 349.972C179.666 328.466 172.832 302.601 191.795 276.337C192.776 274.977 190.783 273.723 189.733 275.059C173.162 296.163 173.235 322.985 191.021 349.25C193.821 353.385 194.008 353.226 199.43 352.125Z" fill="#191919"/>
<path d="M124.753 170.922C155.912 151.016 193.626 147.34 227.283 163.426C265.015 181.464 278.792 211.715 256.26 249.376C247.278 264.386 226.803 282.728 224.202 298.229C223.91 299.959 226.275 300.643 226.582 298.888C229.111 284.409 247.943 267.45 256.527 254.212C280.23 217.642 272.318 185.162 234.335 164.038C200.423 145.183 154.973 145.76 123.636 169.489C122.468 170.377 123.383 171.798 124.753 170.922Z" fill="#191919"/>
<path d="M214.66 218.992C225.338 230.458 219.139 246.316 207.828 254.769C206.602 255.686 208.065 257.479 209.434 256.469C220.862 248.051 227.976 232.772 219.079 219.807C206.596 201.621 178.573 205.256 161.374 219.515C150.804 208.09 135.024 188.941 125.671 176.229C124.702 174.915 123.373 175.899 124.465 177.397C133.745 190.191 147.605 208.509 158.274 220.674C160.243 222.92 160.796 223.527 163.199 221.623C177.171 210.559 200.781 204.09 214.66 218.992Z" fill="#191919"/>
<path d="M246.974 188.707C228.946 163.029 185.715 154.878 158.356 169.222C157.981 169.393 157.69 169.707 157.545 170.093C157.401 170.479 157.416 170.906 157.586 171.282C157.757 171.657 158.069 171.949 158.455 172.094C158.841 172.24 159.268 172.226 159.644 172.056C193.186 159.227 220.818 168.637 245.099 190.47C246.553 191.778 248.174 190.418 246.974 188.707Z" fill="#191919"/>
<path d="M233.095 334.339C234.689 337.124 237.072 335.653 235.392 332.98C233.711 330.307 231.923 327.362 230.127 324.592C229.458 323.56 227.633 324.592 228.241 325.705C229.83 328.599 231.448 331.478 233.095 334.339Z" fill="#191919"/>
</g>
<path d="M88.147 498.289H73.938V495.823H88.147V498.289ZM91.7725 506.003H71.46V503.538H91.7725V506.003ZM83.1055 509.702H80.0415V505.222H83.1055V509.702ZM89.3677 497.556C89.3677 498.891 89.327 500.087 89.2456 501.145C89.1724 502.195 88.9811 503.354 88.6719 504.624L85.5957 504.368C85.791 503.505 85.9375 502.691 86.0352 501.926C86.1328 501.161 86.1938 500.482 86.2183 499.888C86.2427 499.294 86.259 498.577 86.2671 497.739V497.556V495.823H89.3677V497.556ZM81.5796 508.701C83.1909 508.701 84.5866 508.868 85.7666 509.202C86.9548 509.527 87.8621 510.011 88.4888 510.654C89.1235 511.297 89.4409 512.062 89.4409 512.949C89.4409 513.861 89.1235 514.638 88.4888 515.281C87.8621 515.924 86.9588 516.412 85.7788 516.746C84.5988 517.079 83.1991 517.246 81.5796 517.246C79.952 517.246 78.5441 517.079 77.356 516.746C76.1759 516.412 75.2686 515.924 74.6338 515.281C74.0072 514.638 73.6938 513.861 73.6938 512.949C73.6938 512.062 74.0072 511.297 74.6338 510.654C75.2686 510.011 76.18 509.527 77.3682 509.202C78.5563 508.868 79.9601 508.701 81.5796 508.701ZM81.5796 511.155C80.5298 511.163 79.6509 511.232 78.9429 511.362C78.243 511.493 77.714 511.692 77.356 511.96C77.006 512.221 76.8311 512.55 76.8311 512.949C76.8311 513.364 77.006 513.706 77.356 513.975C77.714 514.243 78.243 514.447 78.9429 514.585C79.6509 514.715 80.5298 514.78 81.5796 514.78C82.6213 514.78 83.488 514.715 84.1797 514.585C84.8714 514.447 85.3963 514.243 85.7544 513.975C86.1125 513.706 86.2915 513.364 86.2915 512.949C86.2915 512.55 86.1125 512.221 85.7544 511.96C85.3963 511.692 84.8674 511.493 84.1675 511.362C83.4757 511.232 82.6131 511.163 81.5796 511.155ZM109.753 498.533H95.5444V496.042H109.753V498.533ZM113.379 506.516H93.0664V504.014H113.379V506.516ZM110.974 497.825C110.974 499.111 110.933 500.258 110.852 501.267C110.779 502.276 110.592 503.424 110.291 504.709L107.166 504.624C107.377 503.77 107.532 502.96 107.629 502.195C107.735 501.422 107.8 500.738 107.825 500.144C107.849 499.55 107.865 498.838 107.874 498.008V497.825V496.042H110.974V497.825ZM110.901 517.002H95.4468V508.884H110.901V517.002ZM98.5229 514.5H107.8V511.301H98.5229V514.5ZM132.288 511.643H129.175V495.054H132.288V511.643ZM135.291 504.404H131.384V501.853H135.291V504.404ZM127.844 499.827H114.648V497.373H127.844V499.827ZM121.265 500.608C122.323 500.608 123.267 500.791 124.097 501.157C124.927 501.515 125.574 502.02 126.038 502.671C126.501 503.322 126.733 504.071 126.733 504.917C126.733 505.755 126.501 506.496 126.038 507.139C125.574 507.782 124.927 508.282 124.097 508.64C123.267 508.99 122.323 509.165 121.265 509.165C120.19 509.165 119.234 508.99 118.396 508.64C117.566 508.282 116.915 507.782 116.443 507.139C115.979 506.496 115.747 505.755 115.747 504.917C115.747 504.071 115.979 503.322 116.443 502.671C116.915 502.02 117.566 501.515 118.396 501.157C119.234 500.791 120.19 500.608 121.265 500.608ZM121.265 503C120.76 503 120.321 503.074 119.946 503.22C119.572 503.367 119.283 503.586 119.08 503.879C118.876 504.164 118.774 504.51 118.774 504.917C118.774 505.316 118.876 505.658 119.08 505.942C119.283 506.219 119.572 506.431 119.946 506.577C120.321 506.724 120.76 506.797 121.265 506.797C121.761 506.797 122.196 506.724 122.571 506.577C122.953 506.431 123.25 506.219 123.462 505.942C123.674 505.658 123.779 505.316 123.779 504.917C123.779 504.51 123.674 504.164 123.462 503.879C123.25 503.586 122.953 503.367 122.571 503.22C122.196 503.074 121.761 503 121.265 503ZM122.815 498.582H119.702V495.017H122.815V498.582ZM133.081 516.868H117.871V514.353H133.081V516.868ZM120.984 515.427H117.871V510.361H120.984V515.427ZM162.329 507.773H142.065V505.271H162.329V507.773ZM152.161 509.006C153.764 509.006 155.143 509.173 156.299 509.507C157.454 509.832 158.341 510.304 158.96 510.923C159.578 511.541 159.892 512.278 159.9 513.132C159.892 514.003 159.578 514.748 158.96 515.366C158.35 515.985 157.463 516.453 156.299 516.77C155.143 517.087 153.764 517.246 152.161 517.246C150.541 517.246 149.15 517.087 147.986 516.77C146.822 516.453 145.927 515.985 145.3 515.366C144.682 514.748 144.373 514.003 144.373 513.132C144.373 512.278 144.682 511.541 145.3 510.923C145.927 510.304 146.822 509.832 147.986 509.507C149.158 509.173 150.549 509.006 152.161 509.006ZM152.161 511.423C151.127 511.431 150.269 511.497 149.585 511.619C148.91 511.741 148.397 511.928 148.047 512.18C147.705 512.432 147.538 512.75 147.546 513.132C147.538 513.515 147.705 513.832 148.047 514.084C148.397 514.329 148.91 514.516 149.585 514.646C150.26 514.768 151.119 514.829 152.161 514.829C153.178 514.829 154.024 514.768 154.7 514.646C155.383 514.516 155.896 514.329 156.238 514.084C156.588 513.832 156.763 513.515 156.763 513.132C156.763 512.75 156.592 512.432 156.25 512.18C155.908 511.928 155.396 511.741 154.712 511.619C154.028 511.497 153.178 511.431 152.161 511.423ZM152.795 497.849C152.787 498.98 152.441 500.01 151.758 500.938C151.082 501.857 150.081 502.63 148.755 503.257C147.437 503.875 145.846 504.27 143.982 504.441L142.957 502.012C144.486 501.865 145.789 501.58 146.863 501.157C147.937 500.726 148.735 500.225 149.255 499.656C149.776 499.078 150.041 498.476 150.049 497.849V497.251H152.795V497.849ZM154.309 497.849C154.309 498.476 154.569 499.078 155.09 499.656C155.619 500.225 156.421 500.726 157.495 501.157C158.569 501.58 159.892 501.865 161.462 502.012L160.364 504.441C158.508 504.27 156.917 503.879 155.591 503.269C154.264 502.651 153.255 501.877 152.563 500.95C151.872 500.014 151.522 498.98 151.514 497.849V497.251H154.309V497.849ZM160.498 498.545H143.896V496.055H160.498V498.545ZM171.167 498.215C171.167 499.729 170.939 501.133 170.483 502.427C170.036 503.721 169.352 504.848 168.433 505.808C167.513 506.76 166.374 507.468 165.015 507.932L163.342 505.491C164.53 505.084 165.519 504.51 166.309 503.77C167.098 503.021 167.68 502.174 168.054 501.23C168.429 500.286 168.62 499.281 168.628 498.215V496.201H171.167V498.215ZM171.753 498.521C171.753 499.456 171.936 500.339 172.302 501.169C172.677 502 173.242 502.74 173.999 503.391C174.764 504.034 175.712 504.535 176.843 504.893L175.183 507.31C173.881 506.878 172.786 506.231 171.899 505.369C171.012 504.498 170.345 503.481 169.897 502.317C169.45 501.153 169.23 499.888 169.238 498.521V496.201H171.753V498.521ZM181.287 508.201H178.174V495.005H181.287V508.201ZM184.29 502.817H180.408V500.217H184.29V502.817ZM173.999 508.652C175.529 508.652 176.855 508.823 177.979 509.165C179.11 509.499 179.976 509.991 180.579 510.642C181.189 511.285 181.494 512.05 181.494 512.937C181.494 513.84 181.189 514.613 180.579 515.256C179.976 515.899 179.11 516.392 177.979 516.733C176.855 517.075 175.529 517.246 173.999 517.246C172.445 517.246 171.094 517.075 169.946 516.733C168.807 516.392 167.928 515.899 167.31 515.256C166.691 514.613 166.382 513.84 166.382 512.937C166.382 512.05 166.691 511.285 167.31 510.642C167.928 509.991 168.807 509.499 169.946 509.165C171.094 508.823 172.445 508.652 173.999 508.652ZM173.999 511.094C173.031 511.086 172.213 511.155 171.545 511.301C170.878 511.44 170.369 511.647 170.02 511.924C169.678 512.201 169.511 512.538 169.519 512.937C169.511 513.352 169.678 513.698 170.02 513.975C170.361 514.251 170.862 514.459 171.521 514.597C172.188 514.736 173.014 514.805 173.999 514.805C174.967 514.805 175.781 514.736 176.44 514.597C177.1 514.459 177.596 514.251 177.93 513.975C178.263 513.698 178.43 513.352 178.43 512.937C178.43 512.538 178.259 512.201 177.917 511.924C177.584 511.639 177.087 511.427 176.428 511.289C175.769 511.151 174.959 511.086 173.999 511.094ZM203.87 517.307H200.708V495.005H203.87V517.307ZM191.797 496.58C192.912 496.58 193.913 496.905 194.8 497.556C195.695 498.199 196.391 499.123 196.887 500.327C197.392 501.523 197.644 502.915 197.644 504.502C197.644 506.097 197.392 507.497 196.887 508.701C196.391 509.897 195.695 510.817 194.8 511.46C193.913 512.103 192.912 512.424 191.797 512.424C190.666 512.432 189.653 512.115 188.757 511.472C187.87 510.821 187.174 509.897 186.67 508.701C186.165 507.497 185.913 506.097 185.913 504.502C185.913 502.915 186.165 501.523 186.67 500.327C187.174 499.123 187.87 498.199 188.757 497.556C189.653 496.905 190.666 496.58 191.797 496.58ZM191.797 499.399C191.219 499.391 190.71 499.587 190.271 499.985C189.84 500.376 189.506 500.958 189.27 501.731C189.042 502.496 188.932 503.42 188.94 504.502C188.932 505.584 189.042 506.508 189.27 507.273C189.506 508.038 189.84 508.62 190.271 509.019C190.71 509.409 191.219 509.604 191.797 509.604C192.358 509.604 192.855 509.409 193.286 509.019C193.717 508.62 194.051 508.038 194.287 507.273C194.523 506.508 194.641 505.584 194.641 504.502C194.641 503.42 194.523 502.496 194.287 501.731C194.051 500.966 193.717 500.384 193.286 499.985C192.855 499.587 192.358 499.391 191.797 499.399ZM227.539 505.991H223.596V503.44H227.539V505.991ZM224.402 517.209H221.277V495.005H224.402V517.209ZM210.693 510.947H207.581V497.141H210.693V510.947ZM209.509 509.214C211.21 509.214 212.911 509.141 214.612 508.994C216.321 508.84 218.042 508.587 219.775 508.237L220.117 510.825C218.384 511.183 216.642 511.431 214.893 511.57C213.143 511.708 211.348 511.777 209.509 511.777H207.581V509.214H209.509ZM252.832 506.431H249.744V495.005H252.832V506.431ZM252.856 513.242H241.052V515.623H238.013V511.021H249.756V509.666H237.964V507.31H252.856V513.242ZM253.467 517.087H238.013V514.695H253.467V517.087ZM242.31 498.032C242.301 499.367 242.053 500.612 241.565 501.768C241.077 502.923 240.344 503.932 239.368 504.795C238.391 505.649 237.199 506.276 235.791 506.675L234.375 504.221C235.555 503.888 236.548 503.399 237.354 502.756C238.167 502.105 238.77 501.377 239.16 500.571C239.559 499.757 239.758 498.911 239.758 498.032V497.104H242.31V498.032ZM242.92 498.032C242.92 498.862 243.115 499.656 243.506 500.413C243.896 501.169 244.491 501.849 245.288 502.451C246.086 503.045 247.07 503.497 248.242 503.806L246.765 506.223C245.382 505.841 244.218 505.247 243.274 504.441C242.33 503.627 241.618 502.671 241.138 501.572C240.666 500.474 240.434 499.294 240.442 498.032V497.104H242.92V498.032ZM247.4 498.533H235.181V496.055H247.4V498.533ZM272.18 500.754H266.65V498.313H272.18V500.754ZM272.18 505.332H266.65V502.842H272.18V505.332ZM259.949 499.375H264.319V496.384H267.407V507.029H256.812V496.384H259.949V499.375ZM264.319 504.6V501.768H259.949V504.6H264.319ZM274.597 508.311H271.497V495.005H274.597V508.311ZM267.004 508.677C268.583 508.685 269.946 508.86 271.094 509.202C272.249 509.535 273.132 510.028 273.743 510.679C274.353 511.322 274.662 512.095 274.67 512.998C274.662 513.885 274.349 514.646 273.73 515.281C273.12 515.924 272.241 516.412 271.094 516.746C269.946 517.079 268.583 517.246 267.004 517.246C265.434 517.246 264.075 517.079 262.927 516.746C261.788 516.412 260.909 515.924 260.291 515.281C259.68 514.646 259.375 513.885 259.375 512.998C259.375 512.095 259.68 511.322 260.291 510.679C260.909 510.028 261.788 509.535 262.927 509.202C264.075 508.86 265.434 508.685 267.004 508.677ZM267.004 511.069C266.012 511.061 265.181 511.13 264.514 511.277C263.847 511.415 263.338 511.627 262.988 511.912C262.638 512.196 262.463 512.559 262.463 512.998C262.463 513.405 262.638 513.751 262.988 514.036C263.338 514.312 263.847 514.52 264.514 514.658C265.181 514.797 266.012 514.87 267.004 514.878C267.997 514.87 268.831 514.797 269.507 514.658C270.19 514.52 270.703 514.312 271.045 514.036C271.387 513.751 271.558 513.405 271.558 512.998C271.558 512.559 271.387 512.196 271.045 511.912C270.703 511.627 270.194 511.415 269.519 511.277C268.844 511.13 268.005 511.061 267.004 511.069Z" fill="#01A4FC"/>
<path d="M290.161 505.735H286.45V503.245H290.161V505.735ZM296.741 517.246H293.75V495.005H296.741V517.246ZM292.114 516.221H289.172V495.347H292.114V516.221ZM282.507 496.604C283.484 496.604 284.342 496.93 285.083 497.581C285.832 498.232 286.405 499.163 286.804 500.376C287.211 501.589 287.415 503.013 287.415 504.648C287.415 506.292 287.211 507.725 286.804 508.945C286.405 510.158 285.832 511.094 285.083 511.753C284.342 512.404 283.484 512.729 282.507 512.729C281.531 512.729 280.68 512.404 279.956 511.753C279.232 511.094 278.666 510.158 278.259 508.945C277.861 507.725 277.661 506.292 277.661 504.648C277.661 503.013 277.861 501.589 278.259 500.376C278.666 499.163 279.232 498.232 279.956 497.581C280.68 496.93 281.531 496.604 282.507 496.604ZM282.507 499.558C282.084 499.558 281.726 499.745 281.433 500.12C281.14 500.494 280.916 501.064 280.762 501.829C280.607 502.585 280.534 503.525 280.542 504.648C280.534 505.771 280.607 506.715 280.762 507.48C280.916 508.237 281.14 508.803 281.433 509.177C281.734 509.552 282.092 509.739 282.507 509.739C282.939 509.739 283.305 509.552 283.606 509.177C283.915 508.803 284.147 508.237 284.302 507.48C284.465 506.724 284.546 505.78 284.546 504.648C284.546 503.525 284.465 502.585 284.302 501.829C284.147 501.064 283.915 500.494 283.606 500.12C283.305 499.745 282.939 499.558 282.507 499.558ZM114.514 552.246H111.584V530.005H114.514V552.246ZM112.292 541.101H108.521V538.611H112.292V541.101ZM109.436 551.172H106.58V530.408H109.436V551.172ZM97.4976 544.617C99.1252 544.617 100.521 544.58 101.685 544.507C102.848 544.434 104.045 544.287 105.273 544.067L105.493 546.594C104.256 546.838 103.04 547.001 101.843 547.083C100.655 547.156 99.2065 547.201 97.4976 547.217H95.9351V544.617H97.4976ZM104.236 535.107H99.0601V545.874H95.9351V532.605H104.236V535.107ZM127.637 535.889H116.882V533.411H127.637V535.889ZM122.302 536.89C123.238 536.89 124.076 537.113 124.817 537.561C125.566 538.009 126.147 538.635 126.562 539.441C126.978 540.238 127.185 541.146 127.185 542.163C127.185 543.188 126.978 544.1 126.562 544.897C126.147 545.695 125.566 546.326 124.817 546.79C124.076 547.245 123.238 547.473 122.302 547.473C121.375 547.473 120.536 547.245 119.788 546.79C119.039 546.326 118.457 545.695 118.042 544.897C117.627 544.092 117.419 543.18 117.419 542.163C117.419 541.154 117.627 540.251 118.042 539.453C118.465 538.647 119.047 538.021 119.788 537.573C120.536 537.118 121.375 536.89 122.302 536.89ZM122.302 539.478C121.871 539.478 121.493 539.583 121.167 539.795C120.85 540.007 120.601 540.316 120.422 540.723C120.243 541.13 120.158 541.61 120.166 542.163C120.158 542.716 120.243 543.193 120.422 543.591C120.601 543.99 120.85 544.295 121.167 544.507C121.493 544.718 121.867 544.824 122.29 544.824C122.721 544.824 123.1 544.718 123.425 544.507C123.751 544.295 124.003 543.99 124.182 543.591C124.369 543.193 124.463 542.716 124.463 542.163C124.463 541.61 124.369 541.13 124.182 540.723C124.003 540.316 123.747 540.007 123.413 539.795C123.088 539.583 122.717 539.478 122.302 539.478ZM136.133 552.246H133.167V530.005H136.133V552.246ZM134.155 541.553H130.42V539.075H134.155V541.553ZM131.372 551.294H128.455V530.469H131.372V551.294ZM123.828 534.973H120.764V530.64H123.828V534.973ZM162.878 541.431H159.79V530.005H162.878V541.431ZM162.903 548.242H151.099V550.623H148.059V546.021H159.802V544.666H148.01V542.31H162.903V548.242ZM163.513 552.087H148.059V549.695H163.513V552.087ZM152.356 533.032C152.348 534.367 152.1 535.612 151.611 536.768C151.123 537.923 150.391 538.932 149.414 539.795C148.438 540.649 147.245 541.276 145.837 541.675L144.421 539.221C145.601 538.888 146.594 538.399 147.4 537.756C148.214 537.105 148.816 536.377 149.207 535.571C149.605 534.757 149.805 533.911 149.805 533.032V532.104H152.356V533.032ZM152.966 533.032C152.966 533.862 153.162 534.656 153.552 535.413C153.943 536.169 154.537 536.849 155.334 537.451C156.132 538.045 157.117 538.497 158.289 538.806L156.812 541.223C155.428 540.841 154.264 540.247 153.32 539.441C152.376 538.627 151.664 537.671 151.184 536.572C150.712 535.474 150.48 534.294 150.488 533.032V532.104H152.966V533.032ZM157.446 533.533H145.227V531.055H157.446V533.533ZM186.218 543.494H165.906V541.003H186.218V543.494ZM177.869 547.327H174.792V542.566H177.869V547.327ZM183.63 539.185H168.433V531.006H183.63V539.185ZM171.484 536.755H180.566V533.411H171.484V536.755ZM183.984 551.868H168.274V549.353H183.984V551.868ZM171.399 550.183H168.274V545.386H171.399V550.183ZM198.242 535.889H187.488V533.411H198.242V535.889ZM192.908 536.89C193.844 536.89 194.682 537.113 195.422 537.561C196.171 538.009 196.753 538.635 197.168 539.441C197.583 540.238 197.791 541.146 197.791 542.163C197.791 543.188 197.583 544.1 197.168 544.897C196.753 545.695 196.171 546.326 195.422 546.79C194.682 547.245 193.844 547.473 192.908 547.473C191.98 547.473 191.142 547.245 190.393 546.79C189.644 546.326 189.062 545.695 188.647 544.897C188.232 544.092 188.025 543.18 188.025 542.163C188.025 541.154 188.232 540.251 188.647 539.453C189.071 538.647 189.653 538.021 190.393 537.573C191.142 537.118 191.98 536.89 192.908 536.89ZM192.908 539.478C192.476 539.478 192.098 539.583 191.772 539.795C191.455 540.007 191.207 540.316 191.028 540.723C190.849 541.13 190.763 541.61 190.771 542.163C190.763 542.716 190.849 543.193 191.028 543.591C191.207 543.99 191.455 544.295 191.772 544.507C192.098 544.718 192.472 544.824 192.896 544.824C193.327 544.824 193.705 544.718 194.031 544.507C194.356 544.295 194.609 543.99 194.788 543.591C194.975 543.193 195.068 542.716 195.068 542.163C195.068 541.61 194.975 541.13 194.788 540.723C194.609 540.316 194.352 540.007 194.019 539.795C193.693 539.583 193.323 539.478 192.908 539.478ZM206.738 552.246H203.772V530.005H206.738V552.246ZM204.761 541.553H201.025V539.075H204.761V541.553ZM201.978 551.294H199.06V530.469H201.978V551.294ZM194.434 534.973H191.37V530.64H194.434V534.973ZM220.178 533.167C220.178 534.485 219.824 535.689 219.116 536.78C218.416 537.862 217.395 538.774 216.052 539.514C214.709 540.247 213.118 540.739 211.279 540.991L210.12 538.562C211.674 538.375 213.005 538.005 214.111 537.451C215.226 536.89 216.064 536.239 216.626 535.498C217.188 534.749 217.468 533.972 217.468 533.167V532.495H220.178V533.167ZM221.069 533.167C221.069 533.972 221.346 534.749 221.899 535.498C222.461 536.239 223.295 536.89 224.402 537.451C225.517 538.005 226.864 538.375 228.442 538.562L227.319 540.991C225.464 540.739 223.861 540.247 222.51 539.514C221.159 538.774 220.129 537.862 219.421 536.78C218.713 535.689 218.359 534.485 218.359 533.167V532.495H221.069V533.167ZM220.752 552.258H217.664V544.067H220.752V552.258ZM229.407 544.775H209.143V542.297H229.407V544.775ZM227.576 533.63H210.962V531.201H227.576V533.63ZM243.347 540.076H239.563V537.524H243.347V540.076ZM237.231 535.767C237.231 537.508 237.052 539.156 236.694 540.71C236.344 542.257 235.795 543.652 235.046 544.897C234.306 546.134 233.366 547.099 232.227 547.791L230.322 545.471C231.372 544.828 232.235 543.994 232.91 542.969C233.586 541.935 234.074 540.812 234.375 539.6C234.684 538.387 234.839 537.109 234.839 535.767V531.934H237.231V535.767ZM237.854 535.62C237.854 536.938 237.984 538.171 238.245 539.319C238.505 540.458 238.936 541.516 239.539 542.493C240.141 543.461 240.926 544.259 241.895 544.885L240.21 547.278C239.079 546.594 238.163 545.65 237.463 544.446C236.764 543.241 236.263 541.903 235.962 540.43C235.661 538.949 235.514 537.345 235.522 535.62V531.934H237.854V535.62ZM250 552.246H247.009V530.005H250V552.246ZM245.349 551.221H242.432V530.347H245.349V551.221ZM259.973 547.571H256.885V541.333H259.973V547.571ZM268.152 547.571H265.015V541.333H268.152V547.571ZM272.668 549.646H252.356V547.095H272.668V549.646ZM262.476 531.104C264.079 531.104 265.511 531.352 266.772 531.848C268.042 532.345 269.035 533.044 269.751 533.948C270.475 534.851 270.837 535.889 270.837 537.061C270.837 538.249 270.479 539.29 269.763 540.186C269.047 541.081 268.054 541.777 266.785 542.273C265.515 542.769 264.079 543.018 262.476 543.018C260.872 543.018 259.436 542.769 258.167 542.273C256.905 541.777 255.916 541.081 255.2 540.186C254.484 539.29 254.126 538.249 254.126 537.061C254.126 535.889 254.484 534.851 255.2 533.948C255.916 533.044 256.905 532.345 258.167 531.848C259.436 531.352 260.872 531.104 262.476 531.104ZM262.476 533.569C261.41 533.561 260.482 533.695 259.692 533.972C258.903 534.249 258.289 534.652 257.849 535.181C257.418 535.71 257.202 536.336 257.202 537.061C257.202 537.785 257.418 538.416 257.849 538.953C258.289 539.482 258.903 539.889 259.692 540.173C260.49 540.458 261.418 540.605 262.476 540.613C263.525 540.605 264.449 540.458 265.247 540.173C266.044 539.88 266.663 539.469 267.102 538.94C267.542 538.411 267.761 537.785 267.761 537.061C267.761 536.336 267.542 535.71 267.102 535.181C266.663 534.652 266.044 534.249 265.247 533.972C264.449 533.695 263.525 533.561 262.476 533.569ZM276.819 550.22C276.453 550.22 276.111 550.13 275.793 549.951C275.476 549.764 275.224 549.512 275.037 549.194C274.858 548.877 274.772 548.531 274.78 548.157C274.772 547.791 274.858 547.453 275.037 547.144C275.224 546.834 275.476 546.59 275.793 546.411C276.111 546.232 276.453 546.143 276.819 546.143C277.177 546.143 277.515 546.232 277.832 546.411C278.149 546.59 278.398 546.838 278.577 547.156C278.764 547.465 278.861 547.799 278.87 548.157C278.861 548.531 278.764 548.877 278.577 549.194C278.398 549.512 278.149 549.764 277.832 549.951C277.515 550.13 277.177 550.22 276.819 550.22Z" fill="#1E1E1E"/>
<path d="M61.0291 580.394H53.9734V579.613H61.0291V580.394ZM62.6526 584.276H52.7161V583.495H62.6526V584.276ZM58.1238 586.302H57.1838V584.044H58.1238V586.302ZM61.3464 580.382C61.3464 581.013 61.3261 581.586 61.2854 582.103C61.2447 582.62 61.1471 583.202 60.9924 583.849L60.0525 583.739C60.1583 583.303 60.2356 582.894 60.2844 582.512C60.3333 582.125 60.3638 581.786 60.376 581.493C60.3882 581.196 60.3943 580.85 60.3943 580.455V580.382V579.613H61.3464V580.382ZM57.6599 585.973C58.4412 585.973 59.1166 586.05 59.6863 586.205C60.2559 586.359 60.6913 586.587 60.9924 586.888C61.2935 587.185 61.4441 587.543 61.4441 587.962C61.4441 588.386 61.2935 588.748 60.9924 589.049C60.6913 589.35 60.2559 589.578 59.6863 589.732C59.1166 589.887 58.4412 589.964 57.6599 589.964C56.8665 589.964 56.1849 589.887 55.6152 589.732C55.0496 589.578 54.6143 589.35 54.3091 589.049C54.0039 588.752 53.8513 588.39 53.8513 587.962C53.8513 587.543 54.0039 587.185 54.3091 586.888C54.6143 586.587 55.0517 586.359 55.6213 586.205C56.191 586.05 56.8705 585.973 57.6599 585.973ZM57.6599 586.742C57.0699 586.746 56.5613 586.797 56.134 586.894C55.7109 586.988 55.3853 587.126 55.1575 587.309C54.9337 587.492 54.8238 587.71 54.8279 587.962C54.8238 588.219 54.9337 588.441 55.1575 588.628C55.3853 588.811 55.7109 588.951 56.134 589.049C56.5613 589.146 57.0699 589.195 57.6599 589.195C58.2377 589.195 58.7382 589.146 59.1614 589.049C59.5846 588.951 59.908 588.811 60.1318 588.628C60.3597 588.441 60.4757 588.219 60.4797 587.962C60.4757 587.71 60.3597 587.492 60.1318 587.309C59.908 587.126 59.5846 586.988 59.1614 586.894C58.7382 586.797 58.2377 586.746 57.6599 586.742ZM71.8323 580.516H64.7766V579.723H71.8323V580.516ZM73.4558 584.508H63.5193V583.714H73.4558V584.508ZM72.1497 580.528C72.1497 581.159 72.1293 581.733 72.0886 582.25C72.0479 582.762 71.9503 583.352 71.7957 584.02L70.8435 583.958C70.9534 583.511 71.0327 583.09 71.0815 582.695C71.1344 582.3 71.167 581.955 71.1792 581.657C71.1914 581.356 71.1975 581.004 71.1975 580.602V580.528V579.723H72.1497V580.528ZM72.1985 589.842H64.74V586.009H72.1985V589.842ZM65.6921 589.061H71.2463V586.766H65.6921V589.061ZM82.8064 587.279H81.8542V579.149H82.8064V587.279ZM84.4421 583.531H82.5012V582.726H84.4421V583.531ZM80.8167 581.261H74.3469V580.479H80.8167V581.261ZM77.5818 581.859C78.0945 581.859 78.5482 581.942 78.9429 582.109C79.3376 582.276 79.6427 582.512 79.8584 582.817C80.0781 583.122 80.19 583.478 80.1941 583.885C80.19 584.288 80.0781 584.642 79.8584 584.947C79.6427 585.248 79.3376 585.48 78.9429 585.643C78.5482 585.806 78.0945 585.887 77.5818 585.887C77.061 585.887 76.6032 585.806 76.2085 585.643C75.8138 585.48 75.5086 585.248 75.293 584.947C75.0773 584.642 74.9695 584.288 74.9695 583.885C74.9695 583.478 75.0773 583.122 75.293 582.817C75.5086 582.512 75.8138 582.276 76.2085 582.109C76.6032 581.942 77.061 581.859 77.5818 581.859ZM77.5818 582.616C77.2441 582.616 76.945 582.667 76.6846 582.768C76.4282 582.87 76.2309 583.019 76.0925 583.214C75.9542 583.405 75.885 583.629 75.885 583.885C75.885 584.138 75.9542 584.357 76.0925 584.544C76.2309 584.732 76.4282 584.878 76.6846 584.984C76.945 585.086 77.2441 585.134 77.5818 585.13C77.9154 585.134 78.2125 585.086 78.4729 584.984C78.7333 584.878 78.9327 584.732 79.071 584.544C79.2135 584.357 79.2867 584.138 79.2908 583.885C79.2867 583.629 79.2135 583.405 79.071 583.214C78.9327 583.019 78.7333 582.87 78.4729 582.768C78.2125 582.667 77.9154 582.616 77.5818 582.616ZM78.0579 580.882H77.1057V579.149H78.0579V580.882ZM83.3069 589.757H76.0193V588.951H83.3069V589.757ZM76.9592 589.281H76.0193V586.632H76.9592V589.281ZM98.1506 585.094H88.2629V584.3H98.1506V585.094ZM93.2068 586.046C93.9799 586.046 94.6452 586.123 95.2026 586.278C95.7601 586.432 96.1873 586.658 96.4844 586.955C96.7855 587.248 96.9381 587.6 96.9421 588.011C96.9381 588.426 96.7875 588.78 96.4905 589.073C96.1975 589.366 95.7703 589.588 95.2087 589.739C94.6472 589.889 93.9799 589.964 93.2068 589.964C92.4255 589.964 91.7542 589.889 91.1926 589.739C90.6311 589.588 90.2018 589.366 89.9048 589.073C89.6077 588.78 89.4592 588.426 89.4592 588.011C89.4592 587.6 89.6077 587.248 89.9048 586.955C90.2018 586.658 90.6311 586.432 91.1926 586.278C91.7582 586.123 92.4296 586.046 93.2068 586.046ZM93.2068 586.803C92.629 586.807 92.1326 586.858 91.7175 586.955C91.3025 587.049 90.9831 587.185 90.7593 587.364C90.5396 587.543 90.4317 587.759 90.4358 588.011C90.4317 588.259 90.5396 588.473 90.7593 588.652C90.9831 588.827 91.3025 588.961 91.7175 589.055C92.1326 589.149 92.629 589.195 93.2068 589.195C93.7805 589.195 94.2729 589.149 94.6838 589.055C95.0989 588.961 95.4183 588.827 95.6421 588.652C95.8659 588.473 95.9778 588.259 95.9778 588.011C95.9778 587.759 95.8679 587.543 95.6482 587.364C95.4285 587.185 95.109 587.049 94.6899 586.955C94.2749 586.858 93.7805 586.807 93.2068 586.803ZM93.4387 580.443C93.4387 581.004 93.2434 581.511 92.8528 581.963C92.4622 582.414 91.9413 582.785 91.2903 583.073C90.6392 583.362 89.9312 583.556 89.1663 583.653L88.8245 582.884C89.4755 582.811 90.0899 582.658 90.6677 582.427C91.2455 582.195 91.7094 581.908 92.0593 581.566C92.4093 581.224 92.5842 580.85 92.5842 580.443V580.113H93.4387V580.443ZM93.8293 580.443C93.8293 580.846 94.0043 581.22 94.3542 581.566C94.7042 581.908 95.1681 582.195 95.7458 582.427C96.3236 582.658 96.9421 582.811 97.6013 582.884L97.2473 583.653C96.4864 583.556 95.7804 583.362 95.1294 583.073C94.4824 582.785 93.9616 582.414 93.5669 581.963C93.1722 581.511 92.9749 581.004 92.9749 580.443V580.113H93.8293V580.443ZM97.2717 580.492H89.1663V579.698H97.2717V580.492ZM102.545 580.821C102.545 581.509 102.421 582.154 102.173 582.756C101.925 583.354 101.573 583.875 101.117 584.319C100.665 584.758 100.14 585.094 99.5422 585.326L99.0295 584.557C99.5667 584.357 100.041 584.07 100.452 583.696C100.863 583.318 101.182 582.882 101.41 582.39C101.638 581.898 101.752 581.375 101.752 580.821V579.698H102.545V580.821ZM102.692 580.895C102.692 581.379 102.808 581.847 103.04 582.298C103.271 582.746 103.591 583.141 103.998 583.482C104.405 583.824 104.869 584.085 105.389 584.264L104.865 585.021C104.287 584.809 103.776 584.498 103.333 584.087C102.889 583.676 102.541 583.196 102.289 582.646C102.037 582.097 101.91 581.513 101.91 580.895V579.698H102.692V580.895ZM107.55 585.741H106.598V579.137H107.55V585.741ZM109.186 582.774H107.281V581.969H109.186V582.774ZM104.071 586.021C104.812 586.021 105.45 586.099 105.988 586.253C106.525 586.408 106.936 586.634 107.22 586.931C107.505 587.224 107.648 587.576 107.648 587.987C107.648 588.406 107.505 588.762 107.22 589.055C106.936 589.352 106.525 589.578 105.988 589.732C105.45 589.887 104.812 589.964 104.071 589.964C103.326 589.964 102.684 589.887 102.142 589.732C101.605 589.578 101.192 589.352 100.903 589.055C100.614 588.758 100.47 588.402 100.47 587.987C100.47 587.576 100.614 587.224 100.903 586.931C101.192 586.634 101.607 586.408 102.148 586.253C102.69 586.099 103.33 586.021 104.071 586.021ZM104.071 586.791C103.53 586.791 103.06 586.839 102.661 586.937C102.266 587.035 101.961 587.173 101.746 587.352C101.534 587.531 101.43 587.743 101.434 587.987C101.43 588.239 101.534 588.457 101.746 588.64C101.961 588.823 102.266 588.963 102.661 589.061C103.056 589.159 103.526 589.208 104.071 589.208C104.616 589.208 105.088 589.159 105.487 589.061C105.886 588.963 106.191 588.823 106.403 588.64C106.614 588.457 106.72 588.239 106.72 587.987C106.72 587.743 106.614 587.529 106.403 587.346C106.191 587.163 105.884 587.024 105.481 586.931C105.082 586.837 104.612 586.791 104.071 586.791ZM118.817 590.013H117.853V579.137H118.817V590.013ZM113.043 579.979C113.58 579.979 114.058 580.134 114.478 580.443C114.897 580.752 115.224 581.194 115.46 581.767C115.696 582.341 115.814 583.006 115.814 583.763C115.814 584.52 115.696 585.183 115.46 585.753C115.224 586.323 114.897 586.762 114.478 587.071C114.058 587.381 113.58 587.535 113.043 587.535C112.506 587.535 112.028 587.381 111.609 587.071C111.19 586.762 110.862 586.323 110.626 585.753C110.39 585.183 110.272 584.52 110.272 583.763C110.272 583.006 110.39 582.341 110.626 581.767C110.862 581.194 111.19 580.752 111.609 580.443C112.028 580.134 112.506 579.979 113.043 579.979ZM113.043 580.833C112.685 580.833 112.366 580.956 112.085 581.2C111.804 581.444 111.587 581.788 111.432 582.231C111.277 582.675 111.2 583.185 111.2 583.763C111.2 584.345 111.277 584.858 111.432 585.301C111.587 585.741 111.804 586.08 112.085 586.321C112.366 586.561 112.685 586.681 113.043 586.681C113.405 586.681 113.725 586.561 114.001 586.321C114.282 586.08 114.5 585.741 114.655 585.301C114.809 584.858 114.886 584.345 114.886 583.763C114.886 583.181 114.809 582.671 114.655 582.231C114.5 581.788 114.282 581.444 114.001 581.2C113.725 580.956 113.405 580.833 113.043 580.833ZM130.829 584.276H128.827V583.47H130.829V584.276ZM129.071 589.989H128.119V579.137H129.071V589.989ZM122.076 586.925H121.124V580.211H122.076V586.925ZM121.991 586.424C122.85 586.428 123.694 586.392 124.524 586.314C125.354 586.237 126.202 586.107 127.069 585.924L127.191 586.742C126.308 586.921 125.444 587.047 124.597 587.12C123.751 587.193 122.882 587.23 121.991 587.23H121.124V586.424H121.991ZM143.561 584.776H142.621V579.137H143.561V584.776ZM143.573 587.889H137.482V589.452H136.542V587.169H142.621V586.058H136.517V585.301H143.573V587.889ZM143.964 589.867H136.542V589.098H143.964V589.867ZM138.336 580.675C138.336 581.306 138.206 581.896 137.946 582.445C137.685 582.99 137.319 583.466 136.847 583.873C136.375 584.276 135.834 584.581 135.223 584.789L134.772 584.032C135.309 583.853 135.789 583.592 136.212 583.25C136.635 582.909 136.965 582.516 137.201 582.073C137.437 581.629 137.555 581.163 137.555 580.675V580.089H138.336V580.675ZM138.519 580.675C138.519 581.139 138.639 581.58 138.879 581.999C139.119 582.418 139.449 582.787 139.868 583.104C140.291 583.417 140.774 583.653 141.315 583.812L140.839 584.557C140.232 584.365 139.695 584.081 139.227 583.702C138.763 583.32 138.399 582.87 138.135 582.353C137.874 581.832 137.746 581.273 137.75 580.675V580.089H138.519V580.675ZM141.022 580.553H135.016V579.759H141.022V580.553ZM153.717 581.7H150.592V580.919H153.717V581.7ZM153.717 583.946H150.592V583.153H153.717V583.946ZM146.918 581.554H149.945V579.808H150.885V584.911H145.966V579.808H146.918V581.554ZM149.945 584.129V582.323H146.918V584.129H149.945ZM154.413 585.716H153.448V579.137H154.413V585.716ZM150.812 585.924C151.56 585.928 152.209 586.011 152.759 586.174C153.308 586.333 153.727 586.565 154.016 586.87C154.305 587.171 154.449 587.535 154.449 587.962C154.449 588.382 154.303 588.74 154.01 589.037C153.717 589.338 153.298 589.568 152.753 589.726C152.207 589.885 151.56 589.964 150.812 589.964C150.059 589.964 149.41 589.885 148.865 589.726C148.324 589.568 147.906 589.338 147.614 589.037C147.321 588.74 147.174 588.382 147.174 587.962C147.174 587.535 147.321 587.171 147.614 586.87C147.906 586.565 148.324 586.333 148.865 586.174C149.41 586.011 150.059 585.928 150.812 585.924ZM150.812 586.681C150.258 586.681 149.78 586.732 149.377 586.833C148.975 586.935 148.665 587.081 148.45 587.273C148.234 587.464 148.126 587.694 148.126 587.962C148.126 588.219 148.234 588.441 148.45 588.628C148.665 588.811 148.975 588.953 149.377 589.055C149.78 589.157 150.258 589.208 150.812 589.208C151.361 589.208 151.837 589.157 152.24 589.055C152.647 588.953 152.958 588.811 153.174 588.628C153.389 588.441 153.497 588.219 153.497 587.962C153.497 587.694 153.389 587.464 153.174 587.273C152.958 587.081 152.649 586.935 152.246 586.833C151.843 586.732 151.365 586.681 150.812 586.681ZM165.167 590.013H164.203V579.137H165.167V590.013ZM159.393 579.979C159.93 579.979 160.409 580.134 160.828 580.443C161.247 580.752 161.574 581.194 161.81 581.767C162.046 582.341 162.164 583.006 162.164 583.763C162.164 584.52 162.046 585.183 161.81 585.753C161.574 586.323 161.247 586.762 160.828 587.071C160.409 587.381 159.93 587.535 159.393 587.535C158.856 587.535 158.378 587.381 157.959 587.071C157.54 586.762 157.212 586.323 156.976 585.753C156.74 585.183 156.622 584.52 156.622 583.763C156.622 583.006 156.74 582.341 156.976 581.767C157.212 581.194 157.54 580.752 157.959 580.443C158.378 580.134 158.856 579.979 159.393 579.979ZM159.393 580.833C159.035 580.833 158.716 580.956 158.435 581.2C158.154 581.444 157.937 581.788 157.782 582.231C157.627 582.675 157.55 583.185 157.55 583.763C157.55 584.345 157.627 584.858 157.782 585.301C157.937 585.741 158.154 586.08 158.435 586.321C158.716 586.561 159.035 586.681 159.393 586.681C159.755 586.681 160.075 586.561 160.352 586.321C160.632 586.08 160.85 585.741 161.005 585.301C161.159 584.858 161.237 584.345 161.237 583.763C161.237 583.181 161.159 582.671 161.005 582.231C160.85 581.788 160.632 581.444 160.352 581.2C160.075 580.956 159.755 580.833 159.393 580.833ZM173.663 586.424C173.659 586.896 173.558 587.358 173.358 587.81C173.163 588.261 172.878 588.664 172.504 589.018C172.133 589.376 171.694 589.651 171.185 589.842L170.697 589.134C171.141 588.967 171.529 588.74 171.863 588.451C172.201 588.158 172.457 587.834 172.632 587.48C172.811 587.126 172.902 586.774 172.906 586.424V585.826H173.663V586.424ZM173.834 586.424C173.83 586.795 173.903 587.159 174.054 587.517C174.209 587.871 174.434 588.196 174.731 588.493C175.028 588.79 175.389 589.024 175.812 589.195L175.409 589.928C174.9 589.736 174.473 589.456 174.127 589.085C173.785 588.719 173.531 588.306 173.364 587.846C173.201 587.387 173.122 586.913 173.126 586.424V585.826H173.834V586.424ZM177.679 586.424C177.675 586.864 177.588 587.313 177.417 587.773C177.25 588.233 176.994 588.656 176.648 589.043C176.306 589.429 175.893 589.724 175.409 589.928L174.994 589.195C175.405 589.008 175.759 588.758 176.056 588.445C176.357 588.131 176.583 587.798 176.733 587.444C176.888 587.086 176.963 586.746 176.959 586.424V585.826H177.679V586.424ZM177.899 586.424C177.895 586.799 177.981 587.163 178.156 587.517C178.335 587.871 178.591 588.19 178.925 588.475C179.258 588.756 179.653 588.976 180.109 589.134L179.633 589.842C179.112 589.659 178.664 589.393 178.29 589.043C177.915 588.697 177.631 588.298 177.435 587.846C177.24 587.395 177.142 586.921 177.142 586.424V585.826H177.899V586.424ZM179.12 585.35H178.168V579.149H179.12V585.35ZM173.26 579.784C173.806 579.784 174.294 579.889 174.725 580.101C175.157 580.313 175.494 580.612 175.739 580.998C175.983 581.385 176.105 581.826 176.105 582.323C176.105 582.811 175.983 583.246 175.739 583.629C175.494 584.011 175.157 584.308 174.725 584.52C174.294 584.732 173.806 584.837 173.26 584.837C172.715 584.837 172.227 584.732 171.796 584.52C171.364 584.308 171.027 584.011 170.782 583.629C170.538 583.246 170.416 582.811 170.416 582.323C170.416 581.826 170.538 581.385 170.782 580.998C171.027 580.612 171.364 580.313 171.796 580.101C172.227 579.889 172.715 579.784 173.26 579.784ZM173.26 580.602C172.894 580.597 172.567 580.669 172.278 580.815C171.989 580.958 171.761 581.161 171.594 581.426C171.431 581.69 171.352 581.989 171.356 582.323C171.352 582.652 171.431 582.947 171.594 583.208C171.761 583.464 171.987 583.668 172.272 583.818C172.561 583.969 172.89 584.044 173.26 584.044C173.627 584.044 173.954 583.969 174.243 583.818C174.532 583.668 174.758 583.464 174.921 583.208C175.083 582.947 175.165 582.652 175.165 582.323C175.165 581.989 175.083 581.69 174.921 581.426C174.758 581.161 174.53 580.958 174.237 580.815C173.948 580.669 173.623 580.597 173.26 580.602ZM189.362 590.013H188.409V579.137H189.362V590.013ZM191.18 584.239H189.142V583.434H191.18V584.239ZM182.294 586.485C183.36 586.481 184.273 586.453 185.034 586.4C185.795 586.343 186.57 586.241 187.36 586.095L187.482 586.925C186.676 587.071 185.887 587.169 185.114 587.218C184.344 587.267 183.405 587.291 182.294 587.291H181.439V586.485H182.294ZM186.505 580.992H182.391V586.852H181.439V580.199H186.505V580.992ZM200.092 581.859H197.015V581.053H200.092V581.859ZM200.116 584.178H197.015V583.385H200.116V584.178ZM197.26 585.155H192.279V580.089H197.26V585.155ZM193.231 584.386H196.32V580.882H193.231V584.386ZM200.763 587.071H199.799V579.149H200.763V587.071ZM201.007 589.757H193.744V588.951H201.007V589.757ZM194.708 589.305H193.744V586.363H194.708V589.305ZM214.166 582.958H211.151V582.164H214.166V582.958ZM214.703 587.145H213.739V579.149H214.703V587.145ZM215.009 589.757H207.733V588.951H215.009V589.757ZM208.698 589.281H207.733V586.327H208.698V589.281ZM208.698 579.845C209.222 579.845 209.696 579.959 210.12 580.187C210.547 580.414 210.883 580.732 211.127 581.139C211.375 581.542 211.501 582.001 211.505 582.518C211.501 583.031 211.375 583.491 211.127 583.897C210.883 584.304 210.547 584.624 210.12 584.856C209.696 585.088 209.222 585.204 208.698 585.204C208.16 585.204 207.678 585.088 207.251 584.856C206.824 584.624 206.488 584.306 206.244 583.904C206 583.497 205.878 583.035 205.878 582.518C205.878 582.001 206 581.542 206.244 581.139C206.488 580.732 206.824 580.414 207.251 580.187C207.678 579.959 208.16 579.845 208.698 579.845ZM208.698 580.687C208.335 580.687 208.01 580.764 207.721 580.919C207.436 581.074 207.21 581.291 207.043 581.572C206.877 581.849 206.793 582.164 206.793 582.518C206.793 582.872 206.877 583.189 207.043 583.47C207.21 583.747 207.436 583.967 207.721 584.129C208.01 584.288 208.335 584.369 208.698 584.374C209.052 584.369 209.371 584.288 209.656 584.129C209.945 583.967 210.17 583.747 210.333 583.47C210.496 583.189 210.577 582.872 210.577 582.518C210.577 582.168 210.496 581.853 210.333 581.572C210.17 581.291 209.945 581.074 209.656 580.919C209.371 580.764 209.052 580.687 208.698 580.687ZM225.787 589.989H224.872V579.137H225.787V589.989ZM222.98 583.836H220.856V583.055H222.98V583.836ZM223.59 589.427H222.687V579.405H223.59V589.427ZM219.525 582.237C219.521 583.019 219.415 583.773 219.208 584.502C219.004 585.23 218.711 585.885 218.329 586.467C217.95 587.045 217.503 587.494 216.986 587.816L216.376 587.096C216.868 586.803 217.295 586.4 217.657 585.887C218.024 585.375 218.3 584.803 218.488 584.172C218.679 583.541 218.772 582.896 218.768 582.237V580.821H219.525V582.237ZM219.696 582.237C219.696 582.868 219.79 583.482 219.977 584.081C220.164 584.675 220.433 585.216 220.782 585.704C221.132 586.188 221.552 586.571 222.04 586.852L221.454 587.56C220.933 587.246 220.487 586.817 220.117 586.272C219.747 585.722 219.462 585.102 219.263 584.41C219.067 583.714 218.972 582.99 218.976 582.237V580.821H219.696V582.237ZM221.686 581.212H216.681V580.418H221.686V581.212ZM237.213 585.399H227.313V584.618H237.213V585.399ZM236.078 583.421H228.571V582.628H236.078V583.421ZM235.98 580.394H229.523V582.896H228.571V579.613H235.98V580.394ZM236.163 589.745H228.595V588.939H236.163V589.745ZM229.547 589.159H228.595V586.571H229.547V589.159ZM241.827 582.469C241.827 583.218 241.685 583.956 241.4 584.685C241.115 585.413 240.733 586.06 240.253 586.626C239.777 587.191 239.256 587.617 238.69 587.901L238.116 587.145C238.633 586.896 239.113 586.522 239.557 586.021C240.004 585.517 240.363 584.951 240.631 584.325C240.9 583.698 241.034 583.08 241.034 582.469V580.675H241.827V582.469ZM241.998 582.469C241.998 583.067 242.133 583.663 242.401 584.258C242.67 584.848 243.028 585.375 243.475 585.838C243.923 586.302 244.411 586.648 244.94 586.876L244.403 587.633C243.813 587.364 243.276 586.965 242.792 586.437C242.312 585.908 241.929 585.299 241.644 584.612C241.364 583.92 241.225 583.206 241.229 582.469V580.675H241.998V582.469ZM244.586 581.053H238.47V580.26H244.586V581.053ZM247.064 589.989H246.1V579.137H247.064V589.989ZM261.005 584.776H260.065V579.137H261.005V584.776ZM261.017 587.889H254.926V589.452H253.986V587.169H260.065V586.058H253.961V585.301H261.017V587.889ZM261.407 589.867H253.986V589.098H261.407V589.867ZM255.78 580.675C255.78 581.306 255.65 581.896 255.389 582.445C255.129 582.99 254.763 583.466 254.291 583.873C253.819 584.276 253.278 584.581 252.667 584.789L252.216 584.032C252.753 583.853 253.233 583.592 253.656 583.25C254.079 582.909 254.409 582.516 254.645 582.073C254.881 581.629 254.999 581.163 254.999 580.675V580.089H255.78V580.675ZM255.963 580.675C255.963 581.139 256.083 581.58 256.323 581.999C256.563 582.418 256.893 582.787 257.312 583.104C257.735 583.417 258.217 583.653 258.759 583.812L258.282 584.557C257.676 584.365 257.139 584.081 256.671 583.702C256.207 583.32 255.843 582.87 255.579 582.353C255.318 581.832 255.19 581.273 255.194 580.675V580.089H255.963V580.675ZM258.466 580.553H252.46V579.759H258.466V580.553ZM272.784 585.484H262.848V584.691H272.784V585.484ZM268.365 587.706H267.413V585.179H268.365V587.706ZM271.49 583.446H264.142V579.674H271.49V583.446ZM265.082 582.677H270.538V580.431H265.082V582.677ZM271.674 589.757H264.117V588.951H271.674V589.757ZM265.082 589.232H264.117V586.632H265.082V589.232ZM279.083 581.798H273.639V581.017H279.083V581.798ZM276.361 582.53C276.813 582.53 277.216 582.636 277.57 582.848C277.928 583.059 278.206 583.352 278.406 583.727C278.609 584.097 278.713 584.52 278.717 584.996C278.713 585.476 278.609 585.903 278.406 586.278C278.206 586.652 277.928 586.947 277.57 587.163C277.216 587.378 276.813 587.486 276.361 587.486C275.918 587.486 275.517 587.378 275.159 587.163C274.805 586.947 274.528 586.652 274.329 586.278C274.129 585.903 274.03 585.476 274.03 584.996C274.03 584.524 274.131 584.101 274.335 583.727C274.538 583.352 274.815 583.059 275.165 582.848C275.519 582.636 275.918 582.53 276.361 582.53ZM276.361 583.336C276.076 583.34 275.822 583.415 275.598 583.562C275.374 583.704 275.199 583.902 275.073 584.154C274.947 584.402 274.884 584.683 274.884 584.996C274.884 585.313 274.947 585.596 275.073 585.844C275.199 586.093 275.374 586.288 275.598 586.43C275.822 586.573 276.076 586.644 276.361 586.644C276.646 586.644 276.902 586.573 277.13 586.43C277.358 586.288 277.537 586.093 277.667 585.844C277.797 585.596 277.863 585.313 277.863 584.996C277.863 584.683 277.797 584.402 277.667 584.154C277.537 583.902 277.358 583.704 277.13 583.562C276.902 583.415 276.646 583.34 276.361 583.336ZM282.904 589.989H281.989V579.137H282.904V589.989ZM282.294 584.508H280.219V583.714H282.294V584.508ZM280.548 589.452H279.645V579.405H280.548V589.452ZM276.849 581.493H275.897V579.466H276.849V581.493ZM292.853 580.675C292.853 581.297 292.651 581.869 292.249 582.39C291.846 582.907 291.317 583.34 290.662 583.69C290.007 584.036 289.309 584.272 288.568 584.398L288.19 583.641C288.829 583.548 289.441 583.356 290.027 583.067C290.617 582.774 291.095 582.418 291.461 581.999C291.827 581.58 292.01 581.139 292.01 580.675V580.211H292.853V580.675ZM293.085 580.675C293.085 581.139 293.268 581.58 293.634 581.999C294 582.418 294.476 582.774 295.062 583.067C295.652 583.356 296.267 583.548 296.906 583.641L296.552 584.398C295.803 584.272 295.101 584.036 294.446 583.69C293.791 583.34 293.262 582.907 292.859 582.39C292.456 581.869 292.255 581.297 292.255 580.675V580.211H293.085V580.675ZM292.999 589.989H292.059V585.838H292.999V589.989ZM297.491 586.119H287.604V585.326H297.491V586.119ZM296.552 580.602H288.531V579.82H296.552V580.602ZM304.852 583.849H302.716V583.031H304.852V583.849ZM301.459 582.262C301.459 583.006 301.355 583.733 301.147 584.441C300.94 585.145 300.641 585.777 300.25 586.339C299.864 586.896 299.412 587.332 298.895 587.645L298.285 586.925C298.773 586.64 299.2 586.249 299.567 585.753C299.933 585.257 300.214 584.707 300.409 584.105C300.604 583.499 300.702 582.884 300.702 582.262V580.162H301.459V582.262ZM301.63 582.225C301.63 582.807 301.721 583.387 301.904 583.965C302.087 584.538 302.35 585.063 302.692 585.539C303.038 586.015 303.444 586.392 303.912 586.668L303.363 587.413C302.85 587.104 302.407 586.675 302.032 586.125C301.658 585.576 301.373 584.964 301.178 584.288C300.987 583.613 300.893 582.925 300.897 582.225V580.162H301.63V582.225ZM307.709 589.989H306.781V579.137H307.709V589.989ZM305.463 589.439H304.559V579.369H305.463V589.439ZM312.616 587.987H311.676V584.74H312.616V587.987ZM316.681 587.987H315.717V584.74H316.681V587.987ZM319.147 588.597H309.21V587.792H319.147V588.597ZM314.154 579.82C314.923 579.824 315.607 579.942 316.205 580.174C316.807 580.402 317.277 580.73 317.615 581.157C317.952 581.58 318.121 582.066 318.121 582.616C318.121 583.169 317.952 583.655 317.615 584.074C317.277 584.494 316.807 584.819 316.205 585.051C315.607 585.283 314.923 585.399 314.154 585.399C313.385 585.399 312.699 585.283 312.097 585.051C311.499 584.819 311.031 584.494 310.693 584.074C310.356 583.655 310.187 583.169 310.187 582.616C310.187 582.066 310.356 581.58 310.693 581.157C311.031 580.73 311.499 580.402 312.097 580.174C312.699 579.942 313.385 579.824 314.154 579.82ZM314.154 580.614C313.564 580.61 313.037 580.691 312.573 580.858C312.113 581.021 311.755 581.255 311.499 581.56C311.243 581.865 311.115 582.217 311.115 582.616C311.115 583.014 311.243 583.366 311.499 583.672C311.755 583.977 312.113 584.215 312.573 584.386C313.037 584.557 313.564 584.642 314.154 584.642C314.74 584.642 315.263 584.557 315.723 584.386C316.182 584.215 316.543 583.977 316.803 583.672C317.063 583.366 317.194 583.014 317.194 582.616C317.194 582.217 317.063 581.865 316.803 581.56C316.543 581.255 316.182 581.021 315.723 580.858C315.263 580.691 314.74 580.61 314.154 580.614ZM321.161 589.073C321.018 589.073 320.886 589.037 320.764 588.963C320.646 588.89 320.551 588.795 320.477 588.677C320.408 588.554 320.376 588.422 320.38 588.28C320.376 588.141 320.408 588.011 320.477 587.889C320.551 587.767 320.646 587.671 320.764 587.602C320.886 587.533 321.018 587.499 321.161 587.499C321.303 587.499 321.434 587.533 321.552 587.602C321.674 587.671 321.769 587.767 321.838 587.889C321.908 588.011 321.942 588.141 321.942 588.28C321.942 588.422 321.908 588.554 321.838 588.677C321.769 588.795 321.674 588.89 321.552 588.963C321.434 589.037 321.303 589.073 321.161 589.073ZM79.0588 602.945H76.2756V602.152H79.0588V602.945ZM79.4739 607.108H78.5095V599.149H79.4739V607.108ZM79.7791 609.757H72.5037V608.951H79.7791V609.757ZM73.468 609.342H72.5037V606.388H73.468V609.342ZM74.0784 601.383C74.0784 602.03 73.9502 602.642 73.6938 603.22C73.4375 603.794 73.0774 604.298 72.6135 604.734C72.1537 605.165 71.6248 605.493 71.0266 605.716L70.5261 604.935C71.0551 604.748 71.5291 604.473 71.9482 604.111C72.3674 603.749 72.6949 603.332 72.9309 602.86C73.1669 602.384 73.2849 601.891 73.2849 601.383V600.492H74.0784V601.383ZM74.2493 601.383C74.2493 601.847 74.3632 602.298 74.5911 602.738C74.8189 603.177 75.1343 603.568 75.5371 603.91C75.9399 604.251 76.4018 604.512 76.9226 604.691L76.4221 605.46C75.8403 605.248 75.3255 604.937 74.8779 604.526C74.4344 604.115 74.0885 603.639 73.8403 603.098C73.5921 602.557 73.468 601.985 73.468 601.383V600.492H74.2493V601.383ZM76.6785 600.821H70.8313V600.028H76.6785V600.821ZM91.2048 605.484H81.2683V604.691H91.2048V605.484ZM86.7859 607.706H85.8337V605.179H86.7859V607.706ZM89.9109 603.446H82.5623V599.674H89.9109V603.446ZM83.5022 602.677H88.9587V600.431H83.5022V602.677ZM90.094 609.757H82.5378V608.951H90.094V609.757ZM83.5022 609.232H82.5378V606.632H83.5022V609.232ZM100.482 609.989H99.53V599.137H100.482V609.989ZM102.24 604.361H100.238V603.556H102.24V604.361ZM97.6746 600.309C97.6705 601.362 97.4955 602.359 97.1497 603.299C96.8079 604.235 96.2667 605.1 95.5261 605.893C94.7856 606.683 93.8416 607.36 92.6941 607.926L92.157 607.169C93.162 606.668 94.0043 606.08 94.6838 605.405C95.3674 604.726 95.8781 603.973 96.2158 603.147C96.5576 602.321 96.7306 601.428 96.7346 600.467V600.309H97.6746ZM97.2229 601.114H92.6575V600.309H97.2229V601.114ZM111.322 600.15C111.322 600.809 111.115 601.413 110.699 601.963C110.284 602.512 109.741 602.968 109.07 603.33C108.403 603.688 107.688 603.93 106.927 604.056L106.537 603.275C107.2 603.181 107.835 602.984 108.441 602.683C109.052 602.378 109.544 602.005 109.918 601.566C110.293 601.122 110.48 600.65 110.48 600.15V599.527H111.322V600.15ZM111.469 600.15C111.469 600.642 111.66 601.112 112.042 601.56C112.425 602.003 112.919 602.378 113.525 602.683C114.132 602.984 114.764 603.181 115.424 603.275L115.033 604.056C114.276 603.93 113.562 603.686 112.891 603.324C112.219 602.958 111.676 602.5 111.261 601.95C110.846 601.401 110.638 600.801 110.638 600.15V599.527H111.469V600.15ZM111.42 609.989H110.48V605.851H111.42V609.989ZM115.912 606.058H106.024V605.252H115.912V606.058ZM122.003 600.492C122.003 601.082 121.81 601.619 121.423 602.103C121.037 602.583 120.522 602.982 119.879 603.299C119.24 603.613 118.545 603.824 117.792 603.934L117.438 603.177C118.081 603.088 118.687 602.913 119.257 602.652C119.826 602.392 120.284 602.075 120.63 601.7C120.976 601.326 121.149 600.923 121.149 600.492V600.162H122.003V600.492ZM122.394 600.492C122.394 600.923 122.569 601.326 122.919 601.7C123.269 602.075 123.728 602.392 124.298 602.652C124.872 602.913 125.482 603.088 126.129 603.177L125.751 603.934C125.002 603.824 124.306 603.613 123.663 603.299C123.02 602.982 122.506 602.583 122.119 602.103C121.733 601.619 121.539 601.082 121.539 600.492V600.162H122.394V600.492ZM125.836 600.467H117.731V599.686H125.836V600.467ZM126.752 605.521H116.815V604.728H126.752V605.521ZM122.333 607.743H121.381V605.216H122.333V607.743ZM125.641 609.757H118.085V608.951H125.641V609.757ZM119.049 609.256H118.085V606.656H119.049V609.256ZM131.183 599.93C131.744 599.93 132.247 600.038 132.69 600.254C133.134 600.469 133.48 600.77 133.728 601.157C133.976 601.544 134.1 601.985 134.1 602.481C134.1 602.978 133.976 603.419 133.728 603.806C133.48 604.192 133.134 604.494 132.69 604.709C132.247 604.925 131.744 605.033 131.183 605.033C130.617 605.033 130.111 604.925 129.663 604.709C129.22 604.494 128.874 604.192 128.625 603.806C128.377 603.419 128.253 602.978 128.253 602.481C128.253 601.985 128.377 601.544 128.625 601.157C128.874 600.77 129.22 600.469 129.663 600.254C130.111 600.038 130.617 599.93 131.183 599.93ZM131.183 600.772C130.8 600.772 130.459 600.844 130.157 600.986C129.856 601.128 129.62 601.332 129.449 601.596C129.279 601.857 129.193 602.152 129.193 602.481C129.193 602.815 129.279 603.11 129.449 603.366C129.62 603.623 129.856 603.824 130.157 603.971C130.459 604.117 130.8 604.19 131.183 604.19C131.561 604.19 131.901 604.117 132.202 603.971C132.507 603.824 132.743 603.623 132.91 603.366C133.077 603.11 133.16 602.815 133.16 602.481C133.16 602.152 133.077 601.857 132.91 601.596C132.743 601.332 132.507 601.128 132.202 600.986C131.901 600.844 131.561 600.772 131.183 600.772ZM136.53 610.013H135.577V599.137H136.53V610.013ZM127.692 606.803C129.047 606.807 130.314 606.786 131.494 606.742C132.674 606.697 133.795 606.595 134.857 606.437L134.93 607.145C134.165 607.287 133.37 607.393 132.544 607.462C131.718 607.527 130.945 607.57 130.225 607.59C129.508 607.61 128.709 607.621 127.826 607.621L127.692 606.803ZM149.896 602.762H147.418V601.969H149.896V602.762ZM150.568 605.606H149.603V599.137H150.568V605.606ZM146.967 605.948C147.715 605.948 148.362 606.028 148.907 606.186C149.453 606.345 149.872 606.575 150.165 606.876C150.458 607.177 150.604 607.539 150.604 607.962C150.604 608.386 150.458 608.748 150.165 609.049C149.872 609.35 149.453 609.58 148.907 609.739C148.362 609.901 147.715 609.985 146.967 609.989C146.214 609.985 145.565 609.901 145.02 609.739C144.478 609.58 144.061 609.35 143.768 609.049C143.475 608.748 143.329 608.386 143.329 607.962C143.329 607.539 143.475 607.177 143.768 606.876C144.061 606.575 144.48 606.345 145.026 606.186C145.571 606.028 146.218 605.948 146.967 605.948ZM146.967 606.693C146.413 606.693 145.935 606.744 145.532 606.845C145.129 606.947 144.82 607.094 144.604 607.285C144.389 607.476 144.281 607.702 144.281 607.962C144.281 608.223 144.389 608.447 144.604 608.634C144.82 608.821 145.129 608.965 145.532 609.067C145.935 609.169 146.413 609.22 146.967 609.22C147.516 609.22 147.992 609.169 148.395 609.067C148.802 608.965 149.113 608.821 149.329 608.634C149.544 608.447 149.652 608.223 149.652 607.962C149.652 607.702 149.544 607.476 149.329 607.285C149.113 607.094 148.802 606.947 148.395 606.845C147.992 606.744 147.516 606.693 146.967 606.693ZM145.172 601.139C145.172 601.79 145.044 602.406 144.788 602.988C144.531 603.57 144.171 604.079 143.707 604.514C143.247 604.949 142.719 605.281 142.12 605.509L141.62 604.74C142.153 604.549 142.627 604.268 143.042 603.897C143.461 603.523 143.789 603.098 144.025 602.622C144.261 602.142 144.379 601.647 144.379 601.139V600.235H145.172V601.139ZM145.343 601.126C145.343 601.594 145.455 602.048 145.679 602.488C145.903 602.923 146.218 603.312 146.625 603.653C147.032 603.995 147.496 604.256 148.016 604.435L147.516 605.204C146.934 604.992 146.419 604.681 145.972 604.27C145.528 603.859 145.182 603.383 144.934 602.842C144.686 602.296 144.562 601.725 144.562 601.126V600.235H145.343V601.126ZM147.772 600.736H141.925V599.93H147.772V600.736ZM162.311 608.597H152.374V607.804H162.311V608.597ZM157.782 608.048H156.842V605.179H157.782V608.048ZM154.51 601.871H160.15V599.906H161.09V605.46H153.546V599.906H154.51V601.871ZM160.15 604.679V602.652H154.51V604.679H160.15ZM173.102 604.935H163.165V604.178H173.102V604.935ZM171.857 608.109H165.338V609.403H164.374V607.45H170.905V606.522H164.362V605.802H171.857V608.109ZM172.211 609.842H164.374V609.146H172.211V609.842ZM171.82 601.712H165.411V602.909H164.459V601.053H170.856V600.162H164.423V599.466H171.82V601.712ZM172.015 603.36H164.459V602.665H172.015V603.36ZM186.078 607.169H185.126V599.149H186.078V607.169ZM186.42 609.757H179.071V608.951H186.42V609.757ZM180.023 609.366H179.071V606.424H180.023V609.366ZM180.902 601.676C180.898 602.315 180.766 602.915 180.505 603.476C180.249 604.034 179.889 604.518 179.425 604.929C178.961 605.336 178.428 605.643 177.826 605.851L177.338 605.094C177.879 604.919 178.359 604.66 178.778 604.319C179.201 603.973 179.529 603.572 179.761 603.116C179.993 602.656 180.109 602.176 180.109 601.676V601.212H180.902V601.676ZM181.061 601.676C181.061 602.148 181.179 602.597 181.415 603.025C181.651 603.452 181.98 603.828 182.404 604.154C182.827 604.479 183.307 604.723 183.844 604.886L183.368 605.655C182.758 605.456 182.218 605.163 181.75 604.776C181.283 604.386 180.918 603.924 180.658 603.391C180.402 602.858 180.275 602.286 180.28 601.676V601.212H181.061V601.676ZM183.551 601.383H177.606V600.614H183.551V601.383ZM181.073 600.992H180.109V599.198H181.073V600.992ZM196.576 602.359H193.768V601.566H196.576V602.359ZM191.51 600.809C191.51 601.403 191.38 601.973 191.119 602.518C190.859 603.063 190.497 603.541 190.033 603.952C189.569 604.359 189.04 604.667 188.446 604.874L187.97 604.117C188.495 603.934 188.965 603.672 189.38 603.33C189.799 602.984 190.127 602.593 190.363 602.158C190.599 601.719 190.717 601.269 190.717 600.809V600.064H191.51V600.809ZM191.681 600.821C191.681 601.244 191.793 601.657 192.017 602.06C192.24 602.463 192.554 602.823 192.957 603.141C193.363 603.454 193.825 603.694 194.342 603.861L193.866 604.618C193.276 604.426 192.755 604.142 192.303 603.763C191.856 603.381 191.508 602.937 191.26 602.433C191.012 601.924 190.887 601.387 190.887 600.821V600.064H191.681V600.821ZM194.11 600.504H188.263V599.71H194.11V600.504ZM196.906 604.752H195.953V599.137H196.906V604.752ZM196.906 607.889H190.851V609.598H189.899V607.157H195.953V606.07H189.874V605.289H196.906V607.889ZM197.321 609.867H189.899V609.098H197.321V609.867ZM207.123 609.989H206.171V599.137H207.123V609.989ZM208.942 604.41H206.903V603.617H208.942V604.41ZM205.121 601.676H198.663V600.882H205.121V601.676ZM201.947 602.579C202.452 602.579 202.905 602.685 203.308 602.896C203.711 603.108 204.026 603.403 204.254 603.781C204.486 604.16 204.604 604.589 204.608 605.069C204.604 605.554 204.486 605.985 204.254 606.363C204.026 606.738 203.711 607.031 203.308 607.242C202.905 607.454 202.452 607.56 201.947 607.56C201.438 607.56 200.981 607.454 200.574 607.242C200.171 607.031 199.856 606.738 199.628 606.363C199.4 605.985 199.286 605.554 199.286 605.069C199.286 604.589 199.4 604.16 199.628 603.781C199.856 603.403 200.171 603.108 200.574 602.896C200.981 602.685 201.438 602.579 201.947 602.579ZM201.947 603.385C201.613 603.385 201.314 603.456 201.05 603.598C200.785 603.741 200.578 603.942 200.427 604.203C200.277 604.459 200.201 604.748 200.201 605.069C200.201 605.395 200.277 605.684 200.427 605.936C200.578 606.188 200.785 606.388 201.05 606.534C201.314 606.677 201.613 606.746 201.947 606.742C202.277 606.746 202.574 606.677 202.838 606.534C203.107 606.388 203.314 606.188 203.461 605.936C203.611 605.684 203.689 605.395 203.693 605.069C203.689 604.748 203.611 604.459 203.461 604.203C203.314 603.942 203.107 603.741 202.838 603.598C202.574 603.456 202.277 603.385 201.947 603.385ZM202.411 601.249H201.459V599.271H202.411V601.249ZM218.817 609.989H217.902V599.137H218.817V609.989ZM215.9 604.374H213.116V603.592H215.9V604.374ZM216.534 609.439H215.619V599.43H216.534V609.439ZM214.215 600.528C214.211 601.497 214.067 602.412 213.782 603.275C213.501 604.138 213.055 604.941 212.445 605.686C211.835 606.43 211.053 607.083 210.101 607.645L209.54 606.949C210.382 606.449 211.082 605.875 211.639 605.228C212.201 604.577 212.614 603.873 212.878 603.116C213.147 602.359 213.283 601.554 213.287 600.699V600.528H214.215ZM213.654 601.322H210.004V600.528H213.654V601.322ZM231.952 607.145H231V599.137H231.952V607.145ZM233.588 603.25H231.647V602.445H233.588V603.25ZM232.452 609.757H225.165V608.951H232.452V609.757ZM226.105 609.269H225.165V606.314H226.105V609.269ZM226.52 599.906C227.057 599.906 227.543 600.02 227.979 600.248C228.414 600.475 228.754 600.793 228.998 601.2C229.246 601.603 229.372 602.062 229.376 602.579C229.372 603.096 229.246 603.558 228.998 603.965C228.754 604.367 228.414 604.683 227.979 604.911C227.543 605.139 227.057 605.252 226.52 605.252C225.987 605.252 225.503 605.139 225.067 604.911C224.636 604.683 224.296 604.365 224.048 603.958C223.8 603.552 223.676 603.092 223.676 602.579C223.676 602.062 223.8 601.603 224.048 601.2C224.296 600.793 224.636 600.475 225.067 600.248C225.498 600.02 225.983 599.906 226.52 599.906ZM226.52 600.748C226.166 600.748 225.842 600.825 225.549 600.98C225.26 601.135 225.033 601.352 224.866 601.633C224.699 601.914 224.615 602.229 224.615 602.579C224.615 602.929 224.699 603.242 224.866 603.519C225.033 603.796 225.26 604.013 225.549 604.172C225.842 604.331 226.166 604.41 226.52 604.41C226.882 604.41 227.207 604.331 227.496 604.172C227.789 604.013 228.019 603.796 228.186 603.519C228.353 603.242 228.436 602.929 228.436 602.579C228.436 602.225 228.353 601.91 228.186 601.633C228.019 601.352 227.789 601.135 227.496 600.98C227.207 600.825 226.882 600.748 226.52 600.748ZM243.536 609.989H242.596V599.137H243.536V609.989ZM242.877 604.374H240.753V603.556H242.877V604.374ZM241.034 609.427H240.131V599.381H241.034V609.427ZM235.773 606.717H234.821V600.467H235.773V606.717ZM235.492 606.327C236.139 606.331 236.772 606.308 237.39 606.26C238.013 606.207 238.658 606.111 239.325 605.973L239.447 606.827C238.731 606.957 238.053 607.049 237.415 607.102C236.78 607.155 236.139 607.181 235.492 607.181H234.821V606.327H235.492ZM250.494 601.798H245.05V601.017H250.494V601.798ZM247.772 602.53C248.224 602.53 248.627 602.636 248.981 602.848C249.339 603.059 249.618 603.352 249.817 603.727C250.02 604.097 250.124 604.52 250.128 604.996C250.124 605.476 250.02 605.903 249.817 606.278C249.618 606.652 249.339 606.947 248.981 607.163C248.627 607.378 248.224 607.486 247.772 607.486C247.329 607.486 246.928 607.378 246.57 607.163C246.216 606.947 245.939 606.652 245.74 606.278C245.54 605.903 245.441 605.476 245.441 604.996C245.441 604.524 245.542 604.101 245.746 603.727C245.949 603.352 246.226 603.059 246.576 602.848C246.93 602.636 247.329 602.53 247.772 602.53ZM247.772 603.336C247.487 603.34 247.233 603.415 247.009 603.562C246.785 603.704 246.611 603.902 246.484 604.154C246.358 604.402 246.295 604.683 246.295 604.996C246.295 605.313 246.358 605.596 246.484 605.844C246.611 606.093 246.785 606.288 247.009 606.43C247.233 606.573 247.487 606.644 247.772 606.644C248.057 606.644 248.313 606.573 248.541 606.43C248.769 606.288 248.948 606.093 249.078 605.844C249.209 605.596 249.274 605.313 249.274 604.996C249.274 604.683 249.209 604.402 249.078 604.154C248.948 603.902 248.769 603.704 248.541 603.562C248.313 603.415 248.057 603.34 247.772 603.336ZM254.315 609.989H253.4V599.137H254.315V609.989ZM253.705 604.508H251.63V603.714H253.705V604.508ZM251.959 609.452H251.056V599.405H251.959V609.452ZM248.26 601.493H247.308V599.466H248.26V601.493ZM267.78 605.155H260.284V604.361H267.78V605.155ZM268.951 608.512H259.015V607.706H268.951V608.512ZM267.67 600.943H261.237V604.715H260.284V600.15H267.67V600.943ZM271.246 603.666C272.369 603.666 273.315 603.645 274.084 603.604C274.858 603.56 275.653 603.474 276.471 603.348L276.556 604.093C275.722 604.227 274.913 604.319 274.127 604.367C273.342 604.412 272.382 604.435 271.246 604.435H270.367V603.666H271.246ZM275.348 602.323H271.32V604.032H270.367V601.615H274.408V600.418H270.331V599.674H275.348V602.323ZM278.778 607.889H272.699V609.452H271.747V607.169H277.802V606.095H271.722V605.338H278.778V607.889ZM279.169 609.867H271.747V609.098H279.169V609.867ZM278.778 604.862H277.826V599.137H278.778V604.862ZM289.911 609.989H288.995V599.137H289.911V609.989ZM286.993 604.374H284.21V603.592H286.993V604.374ZM287.628 609.439H286.713V599.43H287.628V609.439ZM285.309 600.528C285.305 601.497 285.16 602.412 284.875 603.275C284.595 604.138 284.149 604.941 283.539 605.686C282.928 606.43 282.147 607.083 281.195 607.645L280.634 606.949C281.476 606.449 282.176 605.875 282.733 605.228C283.295 604.577 283.708 603.873 283.972 603.116C284.241 602.359 284.377 601.554 284.381 600.699V600.528H285.309ZM284.747 601.322H281.097V600.528H284.747V601.322ZM294.83 607.987H293.89V604.74H294.83V607.987ZM298.895 607.987H297.931V604.74H298.895V607.987ZM301.361 608.597H291.425V607.792H301.361V608.597ZM296.368 599.82C297.137 599.824 297.821 599.942 298.419 600.174C299.021 600.402 299.491 600.73 299.829 601.157C300.167 601.58 300.336 602.066 300.336 602.616C300.336 603.169 300.167 603.655 299.829 604.074C299.491 604.494 299.021 604.819 298.419 605.051C297.821 605.283 297.137 605.399 296.368 605.399C295.599 605.399 294.914 605.283 294.312 605.051C293.713 604.819 293.245 604.494 292.908 604.074C292.57 603.655 292.401 603.169 292.401 602.616C292.401 602.066 292.57 601.58 292.908 601.157C293.245 600.73 293.713 600.402 294.312 600.174C294.914 599.942 295.599 599.824 296.368 599.82ZM296.368 600.614C295.778 600.61 295.251 600.691 294.788 600.858C294.328 601.021 293.97 601.255 293.713 601.56C293.457 601.865 293.329 602.217 293.329 602.616C293.329 603.014 293.457 603.366 293.713 603.672C293.97 603.977 294.328 604.215 294.788 604.386C295.251 604.557 295.778 604.642 296.368 604.642C296.954 604.642 297.477 604.557 297.937 604.386C298.397 604.215 298.757 603.977 299.017 603.672C299.278 603.366 299.408 603.014 299.408 602.616C299.408 602.217 299.278 601.865 299.017 601.56C298.757 601.255 298.397 601.021 297.937 600.858C297.477 600.691 296.954 600.61 296.368 600.614ZM303.375 609.073C303.233 609.073 303.101 609.037 302.979 608.963C302.861 608.89 302.765 608.795 302.692 608.677C302.622 608.554 302.59 608.422 302.594 608.28C302.59 608.141 302.622 608.011 302.692 607.889C302.765 607.767 302.861 607.671 302.979 607.602C303.101 607.533 303.233 607.499 303.375 607.499C303.518 607.499 303.648 607.533 303.766 607.602C303.888 607.671 303.984 607.767 304.053 607.889C304.122 608.011 304.156 608.141 304.156 608.28C304.156 608.422 304.122 608.554 304.053 608.677C303.984 608.795 303.888 608.89 303.766 608.963C303.648 609.037 303.518 609.073 303.375 609.073Z" fill="#626262"/>
<rect x="41.5" y="704.5" width="42" height="42" rx="21" fill="#FCFCFE"/>
<rect x="41.5" y="704.5" width="42" height="42" rx="21" stroke="#01A4FC"/>
<path d="M63.3092 717.087L55 725.5M55 725.5L63.3092 733.913M55 725.5H69.9565" stroke="#01A4FC" stroke-width="2" stroke-linecap="round" stroke-linejoin="round"/>
<circle opacity="0.6" cx="168" cy="728" r="4" fill="#01A4FC"/>
<circle cx="190" cy="728" r="8" fill="#01A4FC"/>
<circle opacity="0.6" cx="212" cy="728" r="4" fill="#01A4FC"/>
<rect x="292.5" y="704.5" width="42" height="42" rx="21" fill="#01A4FC"/>
<rect x="292.5" y="704.5" width="42" height="42" rx="21" stroke="#01A4FC"/>
<path d="M312.647 733.913L320.957 725.5ZM320.957 725.5L312.647 717.087ZM320.957 725.5H306Z" fill="#01A4FC"/>
<path d="M312.647 733.913L320.957 725.5M320.957 725.5L312.647 717.087M320.957 725.5H306" stroke="white" stroke-width="2" stroke-linecap="round" stroke-linejoin="round"/>
<defs>
<clipPath id="clip0_18_633">
<rect width="335" height="293" fill="white" transform="translate(20 141)"/>
</clipPath>
</defs>
</svg>
