<svg width="393" height="852" viewBox="0 0 393 852" fill="none" xmlns="http://www.w3.org/2000/svg">
<rect width="393" height="852" fill="#FAFBFC"/>
<g clip-path="url(#clip0_30_102)">
<path d="M258.336 180.431C251.664 172.275 242.448 166.686 232.22 164.594C222.208 162.513 209.965 162.323 200.86 167.565C200.723 167.642 200.604 167.75 200.512 167.88C200.421 168.01 200.359 168.16 200.332 168.317C179.445 177.657 164.782 214.852 185.564 241.993C187.078 241.439 188.416 241.224 190.052 240.687C188.803 237.036 189.082 233.172 187.765 229.538C186.707 226.621 186.008 223.543 186.374 221.95C186.658 220.716 189.436 221.128 190.493 221.807C192.895 223.349 193.438 227.428 194.258 230.576C194.224 229.717 195.754 228.62 196.617 228.608C197.045 228.63 197.461 228.753 197.834 228.967C198.207 229.181 198.525 229.481 198.765 229.842C199.216 230.328 199.558 230.908 199.767 231.542C199.731 231.177 199.804 230.81 199.977 230.488C200.149 230.166 200.413 229.904 200.734 229.736C201.116 229.471 201.566 229.324 202.029 229.315C202.492 229.305 202.947 229.433 203.339 229.682C204.464 230.17 204.642 230.328 205.504 231.651C205.382 230.435 206.067 230.417 207.264 230.578C208.396 230.787 209.404 231.434 210.076 232.384C214.484 237.672 212.694 251.297 210.217 257.581C219.59 259.507 229.323 258.366 238.02 254.322C246.717 250.278 253.932 243.538 258.631 235.069C268 218.685 270.74 196.003 258.336 180.431ZM243.958 189.01C242.192 192.855 239.275 195.954 236.706 199.283C219.844 221.131 224.481 226.674 219.39 230.063C219.036 230.275 218.623 230.362 218.216 230.311C217.808 230.259 217.429 230.071 217.137 229.777C207.571 218.011 200.347 211.598 198.553 208.707C198.435 208.495 198.389 208.249 198.421 208.007C198.453 207.765 198.563 207.541 198.733 207.368C198.902 207.196 199.123 207.084 199.361 207.051C199.598 207.018 199.84 207.066 200.049 207.186C204.341 209.576 215.243 221.835 218.44 225.583C219.397 223.441 219.92 214.768 234.453 196.127C236.713 192.888 239.435 190.011 242.531 187.59C243.468 186.931 244.344 188.162 243.958 189.004V189.01Z" fill="#38A1FF"/>
<path d="M138.049 282.314C137.205 281.731 135.977 281.761 135.829 283.208C135.681 284.654 137.641 286.419 138.751 285.498C139.861 284.577 138.893 282.895 138.049 282.314Z" fill="#191919"/>
<path d="M192.375 232.903C191.887 229.967 191.55 225.044 188.785 223.328C188.381 223.077 187.699 223.399 187.853 223.93C188.307 225.519 189.185 226.921 189.629 228.529C190.656 233.04 191.386 237.615 191.812 242.225C189.964 241.845 188.044 242.181 186.428 243.168C184.812 244.154 183.618 245.72 183.08 247.557C182.908 248.47 182.944 249.411 183.185 250.307C183.426 251.204 183.865 252.033 184.469 252.73C186.093 255.014 187.9 257.157 189.873 259.137C190.169 259.424 190.78 259.123 190.524 258.708C187.15 253.213 184.604 251.743 184.434 249.115C184.415 248.182 184.652 247.262 185.12 246.459C185.587 245.656 186.266 245.002 187.08 244.571C188.644 243.691 190.213 243.891 191.866 243.551C191.884 244.32 191.878 245.09 191.849 245.859C191.847 245.972 191.887 246.081 191.961 246.164C192.035 246.247 192.137 246.298 192.247 246.307C192.357 246.316 192.467 246.282 192.553 246.212C192.639 246.142 192.696 246.041 192.711 245.93C193.372 241.603 193.258 237.189 192.375 232.903Z" fill="#191919"/>
<path d="M195.685 233.815C195.743 233.627 195.855 233.462 196.006 233.339C196.158 233.217 196.342 233.143 196.535 233.127C196.728 233.112 196.921 233.156 197.089 233.253C197.258 233.35 197.394 233.496 197.48 233.672C198.133 234.998 198.697 236.367 199.169 237.77C199.587 239.275 199.465 241.382 200.471 242.603C200.53 242.675 200.605 242.732 200.69 242.77C200.775 242.807 200.867 242.824 200.96 242.819C201.052 242.814 201.142 242.787 201.222 242.74C201.302 242.693 201.37 242.627 201.421 242.549C202.266 241.23 201.707 239.272 201.316 237.883C200.852 236.201 200.159 234.593 199.257 233.106C198.655 232.123 197.814 231.017 196.528 231.15C195.98 231.256 195.488 231.562 195.144 232.01C194.801 232.458 194.63 233.018 194.663 233.585C194.641 234.157 195.617 234.458 195.685 233.815Z" fill="#191919"/>
<path d="M201.651 233.514C204.13 231.095 204.759 236.95 204.941 238.238C205.573 242.765 205.089 243.126 205.909 244.162C205.962 244.225 206.028 244.274 206.103 244.307C206.177 244.34 206.258 244.356 206.34 244.352C206.421 244.349 206.501 244.326 206.572 244.287C206.644 244.248 206.706 244.193 206.754 244.126C207.661 242.886 207.158 240.834 207.001 239.383C206.875 237.535 206.532 235.709 205.98 233.943C205.142 231.633 202.522 230.414 200.859 232.763C200.498 233.267 201.192 233.965 201.651 233.514Z" fill="#191919"/>
<path d="M207.264 234.245C209.336 234.634 209.301 238.11 209.43 239.721C209.725 243.592 209.428 247.486 208.549 251.264C207.925 252.962 207.527 254.738 207.365 256.543C207.384 257.027 207.964 257.51 208.386 257.079C209.987 255.451 210.377 252.767 210.815 250.584C211.318 248.021 211.542 245.411 211.484 242.798C211.426 239.788 211.621 232.771 207.207 233.064C206.507 233.111 206.684 234.136 207.264 234.245Z" fill="#191919"/>
<path d="M192.429 327.93C192.537 328.022 192.519 328.003 192.429 327.93Z" fill="#191919"/>
<path d="M91.5001 395.72C93.6535 383.853 95.2563 371.64 93.507 359.624C93.3812 358.765 92.0122 358.98 92.027 359.821C92.4991 384.494 87.7024 400.95 83.3853 422.128C82.8465 424.778 81.7439 427.838 81.8194 430.556C81.8949 433.237 84.3354 432.743 84.4938 431.289L84.6891 429.465C84.4982 428.111 89.3141 407.763 91.5001 395.72Z" fill="#191919"/>
<path d="M217.84 311.912C216.461 297.633 215.052 282.965 210.96 269.196C210.535 267.765 208.318 268.121 208.654 269.647C211.057 281.165 212.872 292.801 214.093 304.509C215.462 316.302 216.628 328.275 215.237 340.122C214.041 350.287 211.294 361.293 202.442 367.287C195.069 372.281 185.866 375.357 177.417 373.068C166.382 370.078 163.549 366.964 155.454 359.145C155.342 359.019 155.187 358.942 155.02 358.93C154.854 358.918 154.689 358.972 154.561 359.081C154.433 359.191 154.352 359.346 154.335 359.515C154.317 359.684 154.365 359.853 154.468 359.987C159.256 366.67 164.64 371.425 170.729 373.983C171.049 378.159 171.607 382.312 172.401 386.422C177.069 419.389 174.589 423.468 176.026 431.93C176.152 432.665 177.26 432.594 177.435 431.93C178.678 427.209 178.274 422.017 178.086 417.181C177.547 403.335 175.022 382.808 172.823 374.767C180.655 377.381 189.537 376.582 199.539 372.12C209.918 367.488 214.131 359.495 216.609 348.89C219.436 336.787 219.032 324.244 217.84 311.912Z" fill="#191919"/>
<path d="M324.348 159.278C323.05 155.43 320.071 150.941 316.235 149.901C313.577 149.366 310.882 149.043 308.175 148.935C271.216 145.119 244.338 146.939 214.655 147.038C214.48 147.033 214.308 147.083 214.162 147.181C182.094 148.181 155.09 146.177 120.332 151.583C117.693 151.994 115.004 152.1 112.8 153.928C109.259 156.875 107.58 161.498 106.905 166.15C104.339 183.814 105.304 225.941 106.377 245.966C106.879 255.335 107.117 267.026 114.138 273.079C112.747 274.443 111.838 276.236 111.551 278.179C109.985 287.146 115.041 291.441 117.887 297.99C119.11 300.175 121.125 301.787 123.501 302.482C123.758 304.881 123.413 307.307 122.497 309.533C107.854 311.038 99.1739 315.193 87.4212 323.045C81.3694 326.881 75.6577 331.246 70.3509 336.09C60.6021 345.432 54.546 357.889 57.0117 371.703C59.6845 386.682 71.2004 399.863 84.0069 407.155C85.1701 407.817 86.0182 406.165 85.0281 405.384C79.9309 401.361 74.7169 397.616 70.3509 392.731C59.3841 380.459 56.8385 366.624 60.1789 355.812C64.2015 342.795 75.2171 334.102 86.3127 326.57C92.0881 322.342 98.3095 318.782 104.862 315.958C117.547 311.025 131.419 310.69 144.793 311.894C152.695 312.608 161.531 315.401 169.114 317.854C176.63 320.286 189.74 328.502 192.52 328.824C192.52 328.824 195.236 329.536 193.629 327.608C192.418 326.154 188.473 324.011 183.439 321.63C183.597 321.58 183.74 321.489 183.854 321.367C183.968 321.245 184.049 321.095 184.09 320.932C184.381 318.448 184.398 315.94 184.144 313.452C183.768 287.82 189.213 270.35 190.814 262.449C190.84 262.348 190.836 262.24 190.801 262.141C190.767 262.042 190.704 261.956 190.62 261.894C193.611 262.055 196.622 261.894 199.613 262.001C202.534 262.108 205.738 262.884 208.623 262.452C208.768 262.421 208.9 262.342 208.998 262.229C209.096 262.115 209.156 261.972 209.168 261.821C209.18 261.671 209.144 261.52 209.065 261.392C208.986 261.263 208.868 261.165 208.729 261.11C205.935 259.952 202.324 260.196 199.349 260.144C196.194 259.984 193.03 260.176 189.916 260.715C189.79 260.744 189.678 260.816 189.597 260.918C189.517 261.021 189.473 261.148 189.473 261.279C189.473 261.41 189.517 261.537 189.597 261.64C189.678 261.742 189.79 261.814 189.916 261.843C188.498 262.667 181.748 287.879 182.138 314.6C182.156 315.901 182.063 319.889 182.754 321.293C172.582 316.533 158.116 311.193 150.249 310.234C146.253 309.747 142.189 309.375 138.123 309.181C137.391 307.161 137.067 305.01 137.173 302.86C139.303 303.161 141.573 302.876 142.664 301.016C144.459 297.955 142.266 294.108 142.101 290.904C142.097 290.772 142.047 290.645 141.959 290.547C141.872 290.449 141.753 290.386 141.624 290.369C141.495 290.352 141.364 290.382 141.254 290.454C141.145 290.525 141.064 290.634 141.027 290.761C139.961 293.46 141.962 296.113 141.52 298.851C140.889 302.753 136.683 299.879 134.358 300.783C134.217 300.827 134.094 300.917 134.006 301.037C133.919 301.158 133.872 301.304 133.872 301.454C133.872 301.604 133.919 301.75 134.006 301.871C134.094 301.992 134.217 302.081 134.358 302.125C134.921 302.335 135.497 302.508 136.082 302.645C135.825 304.13 135.825 305.65 136.082 307.136C136.172 307.794 136.295 308.447 136.452 309.092C132.485 308.954 128.513 309.031 124.554 309.324C124.732 308.606 124.862 307.876 124.942 307.14C125.147 305.714 125.117 304.263 124.853 302.846C126.097 303.194 127.385 303.346 128.673 303.298C132.509 303.06 134.741 298.377 133.073 294.816C135.207 294.816 137.09 292.385 135.518 290.913C135.439 290.838 135.341 290.788 135.235 290.768C135.129 290.749 135.019 290.76 134.919 290.802C134.819 290.843 134.733 290.913 134.671 291.002C134.609 291.092 134.573 291.198 134.568 291.308C134.093 295.354 129.637 291.13 129.113 289.142C128.58 287.121 130.571 284.457 132.739 286.153C133.266 286.565 133.81 285.599 133.671 285.044C133.492 284.329 133.354 283.594 133.161 282.878C133.483 282.612 133.784 282.319 134.057 282.002C135.566 281.188 136.997 280.236 138.335 279.156C139.635 282.663 141.771 285.787 144.551 288.248C144.181 288.488 143.765 288.644 143.331 288.705C142.897 288.767 142.455 288.732 142.035 288.605C141.822 288.545 141.595 288.573 141.403 288.683C141.212 288.794 141.071 288.977 141.012 289.193C140.953 289.409 140.981 289.64 141.09 289.835C141.198 290.03 141.378 290.173 141.591 290.233C142.437 290.475 143.333 290.473 144.179 290.227C145.024 289.98 145.785 289.499 146.377 288.838C146.53 288.68 146.615 288.468 146.615 288.247C146.615 288.026 146.53 287.814 146.377 287.656C141.197 283.211 139.788 278.551 139.249 278.325C139.425 278.164 139.602 277.985 139.778 277.824C147.997 278.197 156.231 278.054 164.433 277.395C170.824 276.855 177.149 277.672 183.862 277.556C183.985 277.073 184.09 276.572 184.215 276.071C177.851 276.071 174.2 275.755 168.287 275.57C163.287 275.419 161.352 276.614 141.361 276.107C145.618 270.84 145.741 264.519 143.315 260.876C142.4 259.411 141.069 258.263 139.497 257.585C137.925 256.907 136.188 256.732 134.516 257.082C131.188 257.985 129.348 261.221 127.688 264.005C124.378 269.56 123.379 269.41 118.43 270.752C117.433 271.011 116.479 271.416 115.597 271.956C110.654 268.007 109.432 261.451 108.769 254.95C107.224 239.787 106.549 193.957 107.941 174.507C108.237 170.321 108.334 165.478 109.913 161.551C110.828 158.876 112.53 156.552 114.788 154.894C115.802 154.271 116.247 154.149 124.01 153.015C154.129 148.614 180.936 150.029 209.486 149.365C249.067 148.444 277.68 147.509 312.772 151.513C315.482 151.821 317.421 152.208 319.371 154.411C322.157 157.557 323.141 161.39 323.842 165.56C326.802 183.169 328.315 236.16 327.344 252.248C327.036 257.349 326.249 263.197 323.261 267.352C321.217 270.195 318.035 270.737 314.955 271.235C302.72 273.217 251.096 273.735 225.695 274.847C224.767 274.888 223.436 275.02 215.699 275.148C215.768 275.525 215.716 276.169 215.786 276.527C215.934 276.527 292.894 274.996 302.724 274.452C306.032 274.266 309.359 274.044 312.667 273.645C315.708 273.496 318.699 272.8 321.501 271.588C324.866 269.824 326.66 265.879 327.766 262.192C329.407 256.718 329.5 250.775 329.542 245.048C329.645 230.885 328.833 172.586 324.348 159.278Z" fill="#191919"/>
</g>
<path d="M104.472 506.223H93.8032V496.458H104.472V506.223ZM96.8916 503.745H101.408V498.936H96.8916V503.745ZM110.771 507.48H107.658V495.005H110.771V507.48ZM113.774 502.402H109.892V499.851H113.774V502.402ZM104.521 510.203C104.521 511.375 104.2 512.445 103.557 513.413C102.914 514.373 101.97 515.179 100.725 515.83C99.4876 516.489 97.9984 516.929 96.2568 517.148L95.1216 514.792C96.6027 514.605 97.8519 514.28 98.8691 513.816C99.8945 513.344 100.655 512.799 101.152 512.18C101.656 511.554 101.909 510.894 101.909 510.203V509.653H104.521V510.203ZM105.241 510.203C105.233 510.87 105.485 511.517 105.998 512.144C106.511 512.77 107.276 513.328 108.293 513.816C109.318 514.296 110.559 514.63 112.016 514.817L110.917 517.197C109.168 516.969 107.662 516.518 106.401 515.842C105.148 515.175 104.191 514.357 103.532 513.389C102.881 512.412 102.56 511.35 102.568 510.203V509.653H105.241V510.203ZM111.052 510.996H96.0737V508.518H111.052V510.996ZM126.396 510.972H123.308V507.676H126.396V510.972ZM135.026 508.164H114.763V505.71H135.026V508.164ZM126.396 498.276H123.308V495.029H126.396V498.276ZM125.847 498.875C125.847 499.989 125.485 500.97 124.76 501.816C124.044 502.663 122.986 503.35 121.586 503.879C120.187 504.4 118.49 504.73 116.496 504.868L115.593 502.573C117.31 502.467 118.73 502.231 119.853 501.865C120.984 501.499 121.81 501.06 122.331 500.547C122.852 500.034 123.112 499.477 123.112 498.875V498.447H125.847V498.875ZM126.604 498.875C126.595 499.477 126.856 500.034 127.385 500.547C127.914 501.06 128.74 501.499 129.863 501.865C130.994 502.231 132.41 502.467 134.111 502.573L133.22 504.868C131.218 504.73 129.517 504.4 128.117 503.879C126.726 503.35 125.668 502.663 124.943 501.816C124.219 500.97 123.861 499.989 123.869 498.875V498.447H126.604V498.875ZM133.061 499.375H116.704V496.934H133.061V499.375ZM132.597 517.002H117.106V509.885H132.597V517.002ZM120.17 514.5H129.545V512.339H120.17V514.5ZM153.166 502.402H149.003V499.9H153.166V502.402ZM153.081 506.833H148.955V504.343H153.081V506.833ZM148.747 499.546H136.406V497.08H148.747V499.546ZM142.705 500.291C143.714 500.291 144.617 500.465 145.415 500.815C146.212 501.165 146.835 501.658 147.282 502.292C147.738 502.919 147.966 503.635 147.966 504.441C147.966 505.263 147.738 505.987 147.282 506.614C146.835 507.232 146.212 507.721 145.415 508.079C144.617 508.429 143.714 508.604 142.705 508.604C141.687 508.604 140.784 508.429 139.995 508.079C139.205 507.721 138.591 507.232 138.151 506.614C137.712 505.987 137.496 505.263 137.504 504.441C137.496 503.635 137.712 502.919 138.151 502.292C138.591 501.658 139.205 501.165 139.995 500.815C140.784 500.465 141.687 500.291 142.705 500.291ZM142.705 502.598C142.233 502.606 141.826 502.683 141.484 502.83C141.142 502.968 140.874 503.175 140.678 503.452C140.491 503.729 140.397 504.058 140.397 504.441C140.397 504.84 140.491 505.177 140.678 505.454C140.874 505.723 141.142 505.93 141.484 506.077C141.826 506.215 142.233 506.284 142.705 506.284C143.177 506.284 143.588 506.215 143.938 506.077C144.296 505.93 144.572 505.723 144.768 505.454C144.971 505.177 145.073 504.84 145.073 504.441C145.073 504.058 144.971 503.729 144.768 503.452C144.572 503.175 144.296 502.968 143.938 502.83C143.579 502.683 143.168 502.606 142.705 502.598ZM144.292 498.777H141.179V494.834H144.292V498.777ZM155.083 509.189H151.982V495.005H155.083V509.189ZM147.539 509.446C149.109 509.446 150.468 509.6 151.616 509.91C152.771 510.219 153.658 510.671 154.277 511.265C154.895 511.851 155.205 512.546 155.205 513.352C155.205 514.158 154.895 514.854 154.277 515.439C153.658 516.025 152.771 516.473 151.616 516.782C150.468 517.091 149.109 517.246 147.539 517.246C145.968 517.246 144.605 517.091 143.449 516.782C142.302 516.473 141.419 516.025 140.8 515.439C140.182 514.854 139.873 514.158 139.873 513.352C139.873 512.546 140.182 511.851 140.8 511.265C141.419 510.671 142.302 510.219 143.449 509.91C144.605 509.6 145.968 509.446 147.539 509.446ZM147.539 511.814C146.578 511.814 145.773 511.871 145.122 511.985C144.479 512.091 143.986 512.262 143.645 512.498C143.311 512.725 143.144 513.01 143.144 513.352C143.144 513.694 143.311 513.979 143.645 514.207C143.986 514.434 144.483 514.609 145.134 514.731C145.785 514.845 146.586 514.902 147.539 514.902C148.474 514.902 149.264 514.845 149.907 514.731C150.55 514.609 151.034 514.434 151.359 514.207C151.693 513.979 151.86 513.694 151.86 513.352C151.86 513.01 151.693 512.725 151.359 512.498C151.034 512.262 150.55 512.091 149.907 511.985C149.272 511.879 148.483 511.822 147.539 511.814ZM180.18 502.964H175.908V500.437H180.18V502.964ZM182.475 508.225H179.375V495.005H182.475V508.225ZM174.882 508.713C176.461 508.713 177.824 508.884 178.972 509.226C180.119 509.568 180.998 510.06 181.608 510.703C182.227 511.338 182.54 512.103 182.548 512.998C182.54 513.885 182.227 514.646 181.608 515.281C180.998 515.924 180.119 516.416 178.972 516.758C177.824 517.1 176.461 517.275 174.882 517.283C173.312 517.275 171.953 517.1 170.805 516.758C169.666 516.416 168.787 515.924 168.168 515.281C167.558 514.646 167.253 513.885 167.253 512.998C167.253 512.103 167.558 511.338 168.168 510.703C168.787 510.06 169.666 509.568 170.805 509.226C171.953 508.884 173.312 508.713 174.882 508.713ZM174.882 511.082C173.889 511.082 173.059 511.155 172.392 511.301C171.725 511.44 171.216 511.651 170.866 511.936C170.516 512.221 170.341 512.575 170.341 512.998C170.341 513.413 170.516 513.763 170.866 514.048C171.216 514.333 171.725 514.548 172.392 514.695C173.068 514.833 173.898 514.902 174.882 514.902C175.875 514.902 176.709 514.833 177.385 514.695C178.068 514.548 178.581 514.333 178.923 514.048C179.265 513.763 179.436 513.413 179.436 512.998C179.436 512.575 179.265 512.221 178.923 511.936C178.581 511.651 178.068 511.44 177.385 511.301C176.709 511.155 175.875 511.082 174.882 511.082ZM171.501 498.716C171.501 500.156 171.269 501.507 170.805 502.769C170.349 504.03 169.65 505.141 168.706 506.101C167.77 507.053 166.614 507.765 165.239 508.237L163.615 505.759C164.795 505.361 165.784 504.791 166.582 504.05C167.387 503.31 167.981 502.484 168.364 501.572C168.754 500.653 168.954 499.701 168.962 498.716V497.251H171.501V498.716ZM172.136 498.691C172.136 499.603 172.319 500.482 172.685 501.328C173.059 502.166 173.629 502.927 174.394 503.611C175.159 504.294 176.111 504.827 177.25 505.21L175.712 507.651C174.37 507.212 173.238 506.545 172.319 505.649C171.407 504.746 170.724 503.7 170.268 502.512C169.82 501.316 169.601 500.042 169.609 498.691V497.251H172.136V498.691ZM176.567 498.875H164.506V496.36H176.567V498.875ZM205.681 514.658H185.368V512.144H205.681V514.658ZM197.014 512.766H193.95V507.322H197.014V512.766ZM190.642 499.9H200.322V496.433H203.422V508.018H187.517V496.433H190.642V499.9ZM200.322 505.527V502.366H190.642V505.527H200.322ZM231.95 517.246H229.021V495.005H231.95V517.246ZM225.31 505.161H221.562V502.659H225.31V505.161ZM227.409 516.233H224.492V495.396H227.409V516.233ZM219.133 500.974C219.125 502.708 218.946 504.355 218.596 505.918C218.246 507.48 217.701 508.888 216.96 510.142C216.228 511.395 215.296 512.367 214.165 513.059L212.285 510.764C213.326 510.121 214.185 509.283 214.86 508.25C215.536 507.208 216.024 506.073 216.325 504.844C216.626 503.607 216.777 502.317 216.777 500.974V498.643H219.133V500.974ZM219.78 500.974C219.78 502.284 219.926 503.525 220.219 504.697C220.512 505.869 220.984 506.943 221.635 507.92C222.294 508.888 223.141 509.67 224.174 510.264L222.355 512.546C221.216 511.879 220.284 510.955 219.56 509.775C218.836 508.595 218.307 507.265 217.973 505.784C217.648 504.294 217.485 502.691 217.485 500.974V498.643H219.78V500.974ZM223.149 499.778H213.127V497.288H223.149V499.778ZM244.365 508.872C245.976 508.872 247.376 509.035 248.564 509.36C249.76 509.686 250.68 510.166 251.323 510.801C251.966 511.436 252.291 512.192 252.299 513.071C252.291 513.934 251.966 514.679 251.323 515.305C250.68 515.932 249.76 516.412 248.564 516.746C247.376 517.079 245.976 517.246 244.365 517.246C242.762 517.246 241.362 517.079 240.166 516.746C238.977 516.412 238.062 515.932 237.419 515.305C236.776 514.679 236.455 513.934 236.455 513.071C236.455 512.192 236.776 511.436 237.419 510.801C238.062 510.166 238.977 509.686 240.166 509.36C241.354 509.035 242.753 508.872 244.365 508.872ZM244.365 511.179C243.339 511.179 242.469 511.252 241.752 511.399C241.036 511.537 240.491 511.749 240.117 512.034C239.742 512.319 239.555 512.664 239.555 513.071C239.555 513.462 239.742 513.796 240.117 514.072C240.491 514.341 241.032 514.54 241.74 514.67C242.456 514.801 243.331 514.87 244.365 514.878C245.398 514.87 246.273 514.801 246.989 514.67C247.705 514.54 248.251 514.341 248.625 514.072C249.007 513.796 249.199 513.462 249.199 513.071C249.199 512.664 249.007 512.319 248.625 512.034C248.251 511.749 247.701 511.537 246.977 511.399C246.253 511.252 245.382 511.179 244.365 511.179ZM250.859 498.472H236.674V496.018H250.859V498.472ZM254.582 507.468H234.404V504.954H254.582V507.468ZM245.048 505.625H241.96V501.06H245.048V505.625ZM252.189 497.947C252.181 499.127 252.141 500.148 252.067 501.011C251.994 501.873 251.823 502.801 251.555 503.794L248.491 503.489C248.735 502.504 248.889 501.621 248.955 500.84C249.028 500.059 249.069 499.127 249.077 498.044V497.837V496.018H252.189V497.837V497.947ZM74.1011 544.226H71.0127V540.393H74.1011V544.226ZM71.269 545.618H80.3999V543.738H83.4639V552.002H68.1929V543.738H71.269V545.618ZM80.3999 549.536V547.974H71.269V549.536H80.3999ZM83.4639 542.859H80.3633V530.054H83.4639V542.859ZM64.8604 539.38C67.7819 539.388 70.3698 539.36 72.624 539.294C74.8783 539.221 77.0511 539.054 79.1426 538.794L79.3135 540.991C77.1813 541.357 74.9881 541.597 72.7339 541.711C70.4878 541.817 67.9854 541.87 65.2266 541.87L64.8604 539.38ZM73.2588 531.482C73.2507 532.613 73.0106 533.655 72.5386 534.607C72.0747 535.551 71.3748 536.365 70.439 537.048C69.5031 537.732 68.3556 538.22 66.9966 538.513L65.6294 536.121C66.7687 535.893 67.7209 535.547 68.4858 535.083C69.259 534.611 69.8327 534.07 70.207 533.459C70.5814 532.841 70.7686 532.182 70.7686 531.482V530.591H73.2588V531.482ZM73.979 531.482C73.979 532.125 74.1621 532.735 74.5283 533.313C74.9027 533.891 75.4683 534.399 76.2251 534.839C76.9901 535.278 77.9259 535.604 79.0327 535.815L77.7021 538.147C76.3512 537.878 75.2119 537.427 74.2842 536.792C73.3564 536.157 72.6566 535.388 72.1846 534.485C71.7126 533.582 71.4806 532.581 71.4888 531.482V530.591H73.979V531.482ZM102.751 534.412H88.5176V531.946H102.751V534.412ZM106.706 549.524H86.4424V546.997H106.706V549.524ZM96.7817 548.291H93.6934V539.355H96.7817V548.291ZM104.729 534.302C104.729 536.133 104.676 537.813 104.57 539.343C104.472 540.873 104.236 542.655 103.862 544.69L100.7 544.36C100.977 543.026 101.18 541.764 101.311 540.576C101.441 539.38 101.522 538.326 101.555 537.415C101.587 536.503 101.604 535.433 101.604 534.204V534.058V531.946H104.729V534.058V534.302ZM110.612 555.151H108.024L109.233 548.206H112.724L110.612 555.151ZM127.739 536.072C127.739 537.781 127.495 539.433 127.006 541.028C126.526 542.615 125.814 544.031 124.87 545.276C123.934 546.521 122.811 547.453 121.501 548.071L119.67 545.618C120.866 545.056 121.883 544.263 122.722 543.237C123.568 542.212 124.203 541.081 124.626 539.844C125.049 538.607 125.265 537.349 125.273 536.072V533.484H127.739V536.072ZM128.398 536.072C128.39 537.252 128.593 538.424 129.008 539.587C129.423 540.751 130.038 541.821 130.852 542.798C131.674 543.766 132.67 544.519 133.842 545.056L132.109 547.498C130.799 546.903 129.68 546.012 128.752 544.824C127.832 543.636 127.132 542.285 126.652 540.771C126.172 539.25 125.932 537.683 125.932 536.072V533.484H128.398V536.072ZM132.878 534.717H120.561V532.178H132.878V534.717ZM137.724 552.246H134.599V530.005H137.724V552.246ZM141.02 541.113H137.041V538.513H141.02V541.113ZM154.411 540.076H150.627V537.524H154.411V540.076ZM148.295 535.767C148.295 537.508 148.116 539.156 147.758 540.71C147.408 542.257 146.859 543.652 146.11 544.897C145.37 546.134 144.43 547.099 143.291 547.791L141.386 545.471C142.436 544.828 143.299 543.994 143.974 542.969C144.65 541.935 145.138 540.812 145.439 539.6C145.748 538.387 145.903 537.109 145.903 535.767V531.934H148.295V535.767ZM148.918 535.62C148.918 536.938 149.048 538.171 149.309 539.319C149.569 540.458 150 541.516 150.603 542.493C151.205 543.461 151.99 544.259 152.958 544.885L151.274 547.278C150.143 546.594 149.227 545.65 148.527 544.446C147.827 543.241 147.327 541.903 147.026 540.43C146.725 538.949 146.578 537.345 146.586 535.62V531.934H148.918V535.62ZM161.064 552.246H158.073V530.005H161.064V552.246ZM156.413 551.221H153.496V530.347H156.413V551.221ZM180.937 552.246H177.861V530.005H180.937V552.246ZM184.233 541.284H180.253V538.733H184.233V541.284ZM176.347 535.84H163.298V533.337H176.347V535.84ZM169.877 537.073C170.944 537.073 171.908 537.301 172.771 537.756C173.641 538.204 174.321 538.831 174.809 539.636C175.306 540.442 175.558 541.353 175.566 542.371C175.558 543.396 175.306 544.312 174.809 545.117C174.321 545.915 173.641 546.541 172.771 546.997C171.908 547.445 170.944 547.668 169.877 547.668C168.795 547.668 167.823 547.445 166.96 546.997C166.097 546.541 165.422 545.915 164.934 545.117C164.445 544.312 164.201 543.396 164.201 542.371C164.201 541.353 164.445 540.442 164.934 539.636C165.422 538.831 166.097 538.204 166.96 537.756C167.823 537.301 168.795 537.073 169.877 537.073ZM169.877 539.612C169.357 539.62 168.893 539.734 168.486 539.954C168.079 540.173 167.757 540.495 167.521 540.918C167.294 541.333 167.18 541.817 167.18 542.371C167.18 542.94 167.294 543.433 167.521 543.848C167.757 544.255 168.079 544.568 168.486 544.788C168.893 545.007 169.357 545.121 169.877 545.129C170.398 545.121 170.862 545.007 171.269 544.788C171.684 544.568 172.001 544.255 172.221 543.848C172.449 543.433 172.563 542.94 172.563 542.371C172.563 541.817 172.449 541.333 172.221 540.918C172.001 540.495 171.684 540.173 171.269 539.954C170.862 539.734 170.398 539.62 169.877 539.612ZM171.428 534.29H168.327V530.359H171.428V534.29ZM204.265 552.246H201.335V530.005H204.265V552.246ZM197.209 541.064H192.351V538.586H197.209V541.064ZM199.541 551.27H196.611V530.53H199.541V551.27ZM194.731 532.666C194.723 534.871 194.458 536.869 193.938 538.66C193.425 540.45 192.562 542.102 191.35 543.616C190.145 545.121 188.53 546.456 186.503 547.62L184.746 545.435C186.43 544.434 187.781 543.339 188.798 542.151C189.824 540.955 190.564 539.636 191.02 538.196C191.476 536.755 191.708 535.124 191.716 533.301V532.666H194.731ZM192.717 535.168H185.966V532.666H192.717V535.168Z" fill="#01A4FC"/>
<path d="M266.093 496.165C267.656 496.165 269.072 496.433 270.341 496.97C271.619 497.499 272.624 498.248 273.356 499.216C274.089 500.185 274.455 501.296 274.455 502.549C274.455 503.81 274.089 504.929 273.356 505.906C272.624 506.874 271.619 507.627 270.341 508.164C269.072 508.693 267.656 508.953 266.093 508.945C264.531 508.953 263.115 508.693 261.845 508.164C260.576 507.627 259.575 506.874 258.842 505.906C258.11 504.929 257.744 503.81 257.744 502.549C257.744 501.296 258.11 500.185 258.842 499.216C259.575 498.248 260.576 497.499 261.845 496.97C263.115 496.433 264.531 496.165 266.093 496.165ZM266.093 498.679C265.068 498.679 264.152 498.838 263.347 499.155C262.541 499.465 261.91 499.912 261.455 500.498C260.999 501.084 260.775 501.768 260.783 502.549C260.775 503.338 260.999 504.026 261.455 504.612C261.91 505.19 262.537 505.633 263.334 505.942C264.14 506.243 265.06 506.398 266.093 506.406C267.119 506.398 268.03 506.243 268.828 505.942C269.633 505.633 270.26 505.19 270.708 504.612C271.155 504.026 271.379 503.338 271.379 502.549C271.379 501.768 271.151 501.084 270.695 500.498C270.248 499.912 269.621 499.465 268.815 499.155C268.018 498.838 267.111 498.679 266.093 498.679ZM276.286 514.548H255.974V512.034H276.286V514.548ZM297.893 514.78H277.58V512.229H297.893V514.78ZM289.226 513.291H286.162V508.018H289.226V513.291ZM295.549 503.831H283.024V507.627H279.924V501.389H292.473V498.972H279.887V496.47H295.549V503.831ZM296.074 508.86H279.924V506.333H296.074V508.86ZM230.034 541.125H226.921V530.005H230.034V541.125ZM233.037 536.89H228.74V534.326H233.037V536.89ZM230.034 548.071H218.4V550.769H215.336V545.813H226.933V544.409H215.3V542.017H230.034V548.071ZM230.681 552.002H215.336V549.548H230.681V552.002ZM218.547 530.688C219.67 530.688 220.683 530.904 221.586 531.335C222.498 531.759 223.21 532.353 223.723 533.118C224.235 533.883 224.496 534.749 224.504 535.718C224.496 536.678 224.235 537.541 223.723 538.306C223.21 539.071 222.498 539.669 221.586 540.1C220.675 540.531 219.662 540.747 218.547 540.747C217.416 540.747 216.394 540.531 215.483 540.1C214.571 539.669 213.855 539.071 213.334 538.306C212.814 537.541 212.553 536.678 212.553 535.718C212.553 534.749 212.814 533.883 213.334 533.118C213.855 532.353 214.567 531.759 215.471 531.335C216.382 530.904 217.408 530.688 218.547 530.688ZM218.547 533.228C217.969 533.228 217.456 533.329 217.009 533.533C216.569 533.728 216.223 534.013 215.971 534.387C215.719 534.762 215.593 535.205 215.593 535.718C215.593 536.239 215.719 536.69 215.971 537.073C216.223 537.455 216.569 537.752 217.009 537.964C217.456 538.175 217.969 538.281 218.547 538.281C219.108 538.281 219.613 538.175 220.061 537.964C220.508 537.752 220.854 537.455 221.098 537.073C221.35 536.69 221.477 536.239 221.477 535.718C221.477 535.205 221.35 534.762 221.098 534.387C220.854 534.013 220.508 533.728 220.061 533.533C219.613 533.329 219.108 533.228 218.547 533.228ZM252.727 552.307H249.638V530.005H252.727V552.307ZM250.175 537.268H245.915V534.741H250.175V537.268ZM236.552 544.775C238.351 544.775 239.97 544.735 241.411 544.653C242.851 544.572 244.34 544.417 245.878 544.189L246.123 546.729C244.593 546.973 243.107 547.135 241.667 547.217C240.227 547.29 238.522 547.327 236.552 547.327H234.794V544.775H236.552ZM244.731 540.417H237.907V545.374H234.794V538H241.679V534.363H234.746V531.873H244.731V540.417ZM250.102 543.323H245.842V540.771H250.102V543.323ZM273.723 542.81H258.024V540.32H273.723V542.81ZM275.944 549.548H255.632V546.985H275.944V549.548ZM273.564 534.399H261.101V541.357H258.024V531.885H273.564V534.399ZM295.939 552.307H292.851V530.005H295.939V552.307ZM293.388 537.268H289.128V534.741H293.388V537.268ZM279.765 544.775C281.564 544.775 283.183 544.735 284.624 544.653C286.064 544.572 287.553 544.417 289.091 544.189L289.335 546.729C287.806 546.973 286.32 547.135 284.88 547.217C283.439 547.29 281.735 547.327 279.765 547.327H278.007V544.775H279.765ZM287.944 540.417H281.12V545.374H278.007V538H284.892V534.363H277.958V531.873H287.944V540.417ZM293.315 543.323H289.055V540.771H293.315V543.323ZM306.462 547.571H303.374V541.333H306.462V547.571ZM314.641 547.571H311.503V541.333H314.641V547.571ZM319.157 549.646H298.845V547.095H319.157V549.646ZM308.964 531.104C310.568 531.104 312 531.352 313.261 531.848C314.531 532.345 315.524 533.044 316.24 533.948C316.964 534.851 317.326 535.889 317.326 537.061C317.326 538.249 316.968 539.29 316.252 540.186C315.536 541.081 314.543 541.777 313.273 542.273C312.004 542.769 310.568 543.018 308.964 543.018C307.361 543.018 305.925 542.769 304.655 542.273C303.394 541.777 302.405 541.081 301.689 540.186C300.973 539.29 300.615 538.249 300.615 537.061C300.615 535.889 300.973 534.851 301.689 533.948C302.405 533.044 303.394 532.345 304.655 531.848C305.925 531.352 307.361 531.104 308.964 531.104ZM308.964 533.569C307.898 533.561 306.971 533.695 306.181 533.972C305.392 534.249 304.777 534.652 304.338 535.181C303.907 535.71 303.691 536.336 303.691 537.061C303.691 537.785 303.907 538.416 304.338 538.953C304.777 539.482 305.392 539.889 306.181 540.173C306.979 540.458 307.906 540.605 308.964 540.613C310.014 540.605 310.938 540.458 311.735 540.173C312.533 539.88 313.151 539.469 313.591 538.94C314.03 538.411 314.25 537.785 314.25 537.061C314.25 536.336 314.03 535.71 313.591 535.181C313.151 534.652 312.533 534.249 311.735 533.972C310.938 533.695 310.014 533.561 308.964 533.569ZM323.308 550.22C322.941 550.22 322.6 550.13 322.282 549.951C321.965 549.764 321.713 549.512 321.525 549.194C321.346 548.877 321.261 548.531 321.269 548.157C321.261 547.791 321.346 547.453 321.525 547.144C321.713 546.834 321.965 546.59 322.282 546.411C322.6 546.232 322.941 546.143 323.308 546.143C323.666 546.143 324.003 546.232 324.321 546.411C324.638 546.59 324.886 546.838 325.065 547.156C325.253 547.465 325.35 547.799 325.358 548.157C325.35 548.531 325.253 548.877 325.065 549.194C324.886 549.512 324.638 549.764 324.321 549.951C324.003 550.13 323.666 550.22 323.308 550.22Z" fill="#1E1E1E"/>
<path d="M79.8018 582.372H76.457V581.566H79.8018V582.372ZM79.8018 585.802H76.457V585.008H79.8018V585.802ZM74.4429 579.979C74.9678 579.979 75.4357 580.134 75.8467 580.443C76.2617 580.752 76.5832 581.194 76.811 581.767C77.0389 582.341 77.1528 583.006 77.1528 583.763C77.1528 584.524 77.0389 585.189 76.811 585.759C76.5832 586.325 76.2617 586.762 75.8467 587.071C75.4357 587.381 74.9678 587.535 74.4429 587.535C73.9098 587.535 73.4358 587.381 73.0208 587.071C72.6098 586.762 72.2904 586.325 72.0625 585.759C71.8346 585.189 71.7207 584.524 71.7207 583.763C71.7207 583.006 71.8346 582.341 72.0625 581.767C72.2904 581.194 72.6098 580.752 73.0208 580.443C73.4358 580.134 73.9098 579.979 74.4429 579.979ZM74.4429 580.833C74.0889 580.833 73.7756 580.956 73.5029 581.2C73.2344 581.444 73.0228 581.788 72.8682 582.231C72.7135 582.671 72.6362 583.181 72.6362 583.763C72.6362 584.345 72.7135 584.858 72.8682 585.301C73.0228 585.741 73.2344 586.08 73.5029 586.321C73.7756 586.561 74.0889 586.681 74.4429 586.681C74.7928 586.681 75.1061 586.561 75.3828 586.321C75.6595 586.08 75.8731 585.739 76.0237 585.295C76.1742 584.852 76.2495 584.341 76.2495 583.763C76.2495 583.185 76.1742 582.675 76.0237 582.231C75.8731 581.788 75.6595 581.444 75.3828 581.2C75.1061 580.956 74.7928 580.833 74.4429 580.833ZM80.522 590.013H79.5698V579.137H80.522V590.013ZM91.313 590.013H90.3608V579.137H91.313V590.013ZM90.605 584.117H88.249V583.312H90.605V584.117ZM83.5737 586.583C84.6317 586.583 85.5269 586.561 86.2593 586.516C86.9958 586.467 87.7445 586.371 88.5054 586.229L88.5786 587.035C87.8055 587.173 87.0405 587.269 86.2837 587.322C85.5309 587.37 84.6276 587.397 83.5737 587.401H82.7437V586.583H83.5737ZM87.5898 583.946H83.6958V586.839H82.7437V583.153H86.6621V580.943H82.707V580.15H87.5898V583.946ZM103.056 585.667H93.1196V584.886H103.056V585.667ZM98.6372 587.792H97.6851V585.265H98.6372V587.792ZM101.945 589.757H94.3892V588.951H101.945V589.757ZM95.3413 589.256H94.3892V586.791H95.3413V589.256ZM95.4023 580.882H100.773V579.491H101.726V583.824H94.4502V579.491H95.4023V580.882ZM100.773 583.043V581.615H95.4023V583.043H100.773ZM110.466 584.166H108.378V583.373H110.466V584.166ZM113.237 589.989H112.309V579.137H113.237V589.989ZM111.052 589.439H110.136V579.369H111.052V589.439ZM106.401 580.052C106.869 580.052 107.278 580.207 107.628 580.516C107.982 580.825 108.256 581.265 108.452 581.834C108.647 582.4 108.745 583.063 108.745 583.824C108.745 584.585 108.647 585.25 108.452 585.82C108.256 586.386 107.982 586.823 107.628 587.132C107.278 587.442 106.869 587.596 106.401 587.596C105.933 587.596 105.524 587.442 105.174 587.132C104.828 586.823 104.558 586.386 104.362 585.82C104.167 585.25 104.069 584.585 104.069 583.824C104.069 583.063 104.167 582.4 104.362 581.834C104.558 581.265 104.828 580.825 105.174 580.516C105.524 580.207 105.933 580.052 106.401 580.052ZM106.401 580.956C106.108 580.956 105.854 581.072 105.638 581.303C105.422 581.535 105.255 581.869 105.137 582.304C105.024 582.736 104.969 583.242 104.973 583.824C104.969 584.406 105.024 584.913 105.137 585.344C105.255 585.771 105.422 586.103 105.638 586.339C105.858 586.571 106.112 586.685 106.401 586.681C106.694 586.685 106.95 586.571 107.17 586.339C107.39 586.103 107.556 585.771 107.67 585.344C107.784 584.913 107.841 584.406 107.841 583.824C107.841 583.242 107.784 582.736 107.67 582.304C107.556 581.869 107.39 581.535 107.17 581.303C106.95 581.072 106.694 580.956 106.401 580.956ZM124.028 589.989H123.112V579.137H124.028V589.989ZM121.11 584.374H118.327V583.592H121.11V584.374ZM121.745 589.439H120.83V579.43H121.745V589.439ZM119.426 580.528C119.422 581.497 119.277 582.412 118.992 583.275C118.712 584.138 118.266 584.941 117.656 585.686C117.045 586.43 116.264 587.083 115.312 587.645L114.75 586.949C115.593 586.449 116.293 585.875 116.85 585.228C117.412 584.577 117.825 583.873 118.089 583.116C118.358 582.359 118.494 581.554 118.498 580.699V580.528H119.426ZM118.864 581.322H115.214V580.528H118.864V581.322ZM137.077 589.989H136.125V579.137H137.077V589.989ZM138.835 584.361H136.833V583.556H138.835V584.361ZM134.27 580.309C134.265 581.362 134.09 582.359 133.745 583.299C133.403 584.235 132.862 585.1 132.121 585.893C131.381 586.683 130.437 587.36 129.289 587.926L128.752 587.169C129.757 586.668 130.599 586.08 131.279 585.405C131.962 584.726 132.473 583.973 132.811 583.147C133.153 582.321 133.326 581.428 133.33 580.467V580.309H134.27ZM133.818 581.114H129.252V580.309H133.818V581.114ZM142.985 581.2C142.985 581.855 142.859 582.469 142.607 583.043C142.355 583.613 141.997 584.109 141.533 584.532C141.073 584.951 140.54 585.269 139.934 585.484L139.445 584.715C139.982 584.532 140.461 584.264 140.88 583.91C141.299 583.552 141.624 583.141 141.856 582.677C142.092 582.209 142.212 581.716 142.216 581.2V580.309H142.985V581.2ZM143.156 581.2C143.156 581.668 143.268 582.115 143.492 582.542C143.716 582.966 144.027 583.34 144.426 583.666C144.829 583.991 145.292 584.239 145.817 584.41L145.366 585.167C144.764 584.968 144.239 584.673 143.791 584.282C143.343 583.887 142.996 583.425 142.747 582.896C142.499 582.368 142.375 581.802 142.375 581.2V580.309H143.156V581.2ZM145.598 580.736H139.738V579.942H145.598V580.736ZM147.966 585.692H147.014V579.137H147.966V585.692ZM149.602 582.713H147.697V581.908H149.602V582.713ZM144.487 585.985C145.227 585.985 145.866 586.062 146.403 586.217C146.94 586.371 147.351 586.597 147.636 586.894C147.921 587.191 148.063 587.547 148.063 587.962C148.063 588.382 147.921 588.74 147.636 589.037C147.351 589.338 146.94 589.568 146.403 589.726C145.866 589.885 145.227 589.964 144.487 589.964C143.746 589.964 143.105 589.885 142.564 589.726C142.023 589.568 141.608 589.338 141.319 589.037C141.03 588.74 140.886 588.382 140.886 587.962C140.886 587.547 141.03 587.191 141.319 586.894C141.608 586.597 142.023 586.371 142.564 586.217C143.105 586.062 143.746 585.985 144.487 585.985ZM144.487 586.754C143.946 586.754 143.476 586.801 143.077 586.894C142.682 586.988 142.377 587.128 142.161 587.315C141.95 587.499 141.846 587.714 141.85 587.962C141.846 588.219 141.95 588.441 142.161 588.628C142.377 588.811 142.682 588.951 143.077 589.049C143.476 589.146 143.946 589.195 144.487 589.195C145.032 589.195 145.504 589.146 145.903 589.049C146.302 588.951 146.607 588.811 146.818 588.628C147.03 588.441 147.136 588.219 147.136 587.962C147.136 587.71 147.03 587.492 146.818 587.309C146.607 587.126 146.302 586.988 145.903 586.894C145.504 586.801 145.032 586.754 144.487 586.754ZM158.879 580.785H154.033V579.979H158.879V580.785ZM156.645 585.106H155.693V582.384H156.645V585.106ZM159.44 580.626C159.436 581.163 159.418 581.672 159.385 582.152C159.353 582.628 159.278 583.165 159.16 583.763L158.195 583.69C158.317 583.092 158.397 582.569 158.433 582.121C158.47 581.674 158.492 581.192 158.5 580.675V580.553V579.979H159.44V580.553V580.626ZM161.931 587.303H160.954V579.137H161.931V587.303ZM163.518 583.495H161.491V582.677H163.518V583.495ZM162.285 589.757H155.034V588.951H162.285V589.757ZM155.998 589.208H155.034V586.571H155.998V589.208ZM153.361 584.776C154.655 584.772 155.874 584.748 157.017 584.703C158.161 584.654 159.229 584.561 160.222 584.422L160.283 585.13C159.27 585.305 158.199 585.421 157.072 585.478C155.945 585.535 154.741 585.566 153.459 585.57L153.361 584.776ZM165.458 584.874C166.569 584.874 167.446 584.856 168.089 584.819C168.736 584.782 169.385 584.707 170.036 584.593L170.134 585.387C169.462 585.501 168.799 585.576 168.144 585.613C167.493 585.649 166.598 585.667 165.458 585.667H164.677V584.874H165.458ZM169.377 583.08H165.642V585.338H164.677V582.323H168.4V580.699H164.653V579.918H169.377V583.08ZM173.222 587.132H172.258V579.149H173.222V587.132ZM172.502 581.761H170.109V580.98H172.502V581.761ZM173.552 589.696H166.167V588.902H173.552V589.696ZM167.131 589.269H166.167V586.546H167.131V589.269ZM172.502 584.203H170.109V583.409H172.502V584.203ZM178.593 580.882C178.593 581.574 178.467 582.219 178.215 582.817C177.963 583.415 177.607 583.934 177.147 584.374C176.687 584.813 176.152 585.147 175.542 585.375L175.017 584.593C175.57 584.398 176.058 584.115 176.481 583.745C176.905 583.375 177.23 582.943 177.458 582.451C177.69 581.959 177.808 581.436 177.812 580.882V579.759H178.593V580.882ZM178.764 580.846C178.76 581.354 178.87 581.839 179.094 582.298C179.322 582.754 179.639 583.157 180.046 583.507C180.453 583.857 180.921 584.121 181.45 584.3L180.913 585.045C180.331 584.825 179.818 584.51 179.375 584.099C178.935 583.688 178.591 583.206 178.343 582.652C178.095 582.095 177.971 581.493 177.971 580.846V579.759H178.764V580.846ZM184.025 585.57H183.061V579.137H184.025V585.57ZM180.424 585.887C181.173 585.887 181.82 585.967 182.365 586.125C182.91 586.284 183.33 586.518 183.623 586.827C183.916 587.136 184.062 587.507 184.062 587.938C184.062 588.365 183.916 588.729 183.623 589.031C183.33 589.336 182.91 589.568 182.365 589.726C181.82 589.885 181.173 589.964 180.424 589.964C179.672 589.964 179.023 589.885 178.477 589.726C177.936 589.568 177.519 589.336 177.226 589.031C176.933 588.729 176.787 588.365 176.787 587.938C176.787 587.507 176.933 587.136 177.226 586.827C177.519 586.518 177.936 586.284 178.477 586.125C179.023 585.967 179.672 585.887 180.424 585.887ZM180.424 586.644C179.871 586.644 179.393 586.695 178.99 586.797C178.587 586.898 178.278 587.047 178.062 587.242C177.847 587.438 177.739 587.669 177.739 587.938C177.739 588.198 177.847 588.422 178.062 588.609C178.278 588.797 178.587 588.941 178.99 589.043C179.393 589.144 179.871 589.195 180.424 589.195C180.974 589.195 181.45 589.144 181.853 589.043C182.259 588.941 182.571 588.797 182.786 588.609C183.002 588.422 183.11 588.198 183.11 587.938C183.11 587.669 183.002 587.438 182.786 587.242C182.571 587.047 182.259 586.898 181.853 586.797C181.45 586.695 180.974 586.644 180.424 586.644ZM183.269 582.262H180.644V581.468H183.269V582.262ZM197.758 582.713H190.324V581.944H197.758V582.713ZM191.276 582.445H190.324V579.381H191.276V582.445ZM198.857 584.886H188.969V584.093H198.857V584.886ZM194.389 584.618H193.437V582.433H194.389V584.618ZM197.771 586.742H190.08V585.973H197.771V586.742ZM197.856 589.842H189.982V589.061H197.856V589.842ZM192.705 589.427H191.752V586.192H192.705V589.427ZM196.086 589.427H195.146V586.192H196.086V589.427ZM209.66 585.643H199.772V584.862H209.66V585.643ZM208.562 589.757H201.054V588.951H208.562V589.757ZM202.019 589.195H201.054V586.595H202.019V589.195ZM204.716 579.527C205.489 579.523 206.165 579.607 206.743 579.778C207.32 579.944 207.766 580.191 208.079 580.516C208.393 580.842 208.549 581.228 208.549 581.676C208.549 582.119 208.393 582.504 208.079 582.829C207.766 583.151 207.32 583.399 206.743 583.574C206.165 583.749 205.489 583.836 204.716 583.836C203.935 583.836 203.256 583.749 202.678 583.574C202.1 583.399 201.654 583.151 201.341 582.829C201.028 582.504 200.871 582.119 200.871 581.676C200.871 581.228 201.028 580.842 201.341 580.516C201.654 580.191 202.1 579.944 202.678 579.778C203.256 579.607 203.935 579.523 204.716 579.527ZM204.716 580.296C204.139 580.296 203.634 580.351 203.203 580.461C202.771 580.571 202.44 580.732 202.208 580.943C201.976 581.151 201.86 581.395 201.86 581.676C201.86 581.961 201.976 582.207 202.208 582.414C202.44 582.622 202.769 582.781 203.197 582.89C203.628 583 204.134 583.055 204.716 583.055C205.294 583.055 205.799 583 206.23 582.89C206.661 582.781 206.993 582.622 207.225 582.414C207.457 582.207 207.573 581.961 207.573 581.676C207.573 581.395 207.457 581.151 207.225 580.943C206.993 580.732 206.659 580.571 206.224 580.461C205.793 580.351 205.29 580.296 204.716 580.296ZM222.038 582.762H219.56V581.969H222.038V582.762ZM222.709 585.606H221.745V579.137H222.709V585.606ZM219.108 585.948C219.857 585.948 220.504 586.028 221.049 586.186C221.595 586.345 222.014 586.575 222.307 586.876C222.6 587.177 222.746 587.539 222.746 587.962C222.746 588.386 222.6 588.748 222.307 589.049C222.014 589.35 221.595 589.58 221.049 589.739C220.504 589.901 219.857 589.985 219.108 589.989C218.356 589.985 217.707 589.901 217.161 589.739C216.62 589.58 216.203 589.35 215.91 589.049C215.617 588.748 215.471 588.386 215.471 587.962C215.471 587.539 215.617 587.177 215.91 586.876C216.203 586.575 216.622 586.345 217.167 586.186C217.713 586.028 218.36 585.948 219.108 585.948ZM219.108 586.693C218.555 586.693 218.077 586.744 217.674 586.845C217.271 586.947 216.962 587.094 216.746 587.285C216.531 587.476 216.423 587.702 216.423 587.962C216.423 588.223 216.531 588.447 216.746 588.634C216.962 588.821 217.271 588.965 217.674 589.067C218.077 589.169 218.555 589.22 219.108 589.22C219.658 589.22 220.134 589.169 220.537 589.067C220.944 588.965 221.255 588.821 221.47 588.634C221.686 588.447 221.794 588.223 221.794 587.962C221.794 587.702 221.686 587.476 221.47 587.285C221.255 587.094 220.944 586.947 220.537 586.845C220.134 586.744 219.658 586.693 219.108 586.693ZM217.314 581.139C217.314 581.79 217.186 582.406 216.929 582.988C216.673 583.57 216.313 584.079 215.849 584.514C215.389 584.949 214.86 585.281 214.262 585.509L213.762 584.74C214.295 584.549 214.769 584.268 215.184 583.897C215.603 583.523 215.931 583.098 216.167 582.622C216.403 582.142 216.521 581.647 216.521 581.139V580.235H217.314V581.139ZM217.485 581.126C217.485 581.594 217.597 582.048 217.821 582.488C218.044 582.923 218.36 583.312 218.767 583.653C219.174 583.995 219.637 584.256 220.158 584.435L219.658 585.204C219.076 584.992 218.561 584.681 218.114 584.27C217.67 583.859 217.324 583.383 217.076 582.842C216.828 582.296 216.704 581.725 216.704 581.126V580.235H217.485V581.126ZM219.914 580.736H214.067V579.93H219.914V580.736ZM234.453 588.597H224.516V587.804H234.453V588.597ZM229.924 588.048H228.984V585.179H229.924V588.048ZM226.652 581.871H232.292V579.906H233.232V585.46H225.688V579.906H226.652V581.871ZM232.292 584.679V582.652H226.652V584.679H232.292ZM245.244 584.935H235.307V584.178H245.244V584.935ZM243.999 588.109H237.48V589.403H236.516V587.45H243.046V586.522H236.503V585.802H243.999V588.109ZM244.353 589.842H236.516V589.146H244.353V589.842ZM243.962 581.712H237.553V582.909H236.601V581.053H242.998V580.162H236.564V579.466H243.962V581.712ZM244.157 583.36H236.601V582.665H244.157V583.36ZM253.52 586.229H252.568V584.178H253.52V586.229ZM251.945 587.083H257.207V585.899H258.146V589.842H250.993V585.899H251.945V587.083ZM257.207 589.061V587.84H251.945V589.061H257.207ZM258.146 585.375H257.194V579.149H258.146V585.375ZM249.272 583.897C250.757 583.897 252.061 583.881 253.184 583.849C254.311 583.812 255.4 583.727 256.45 583.592L256.511 584.276C255.437 584.455 254.338 584.569 253.215 584.618C252.096 584.667 250.826 584.691 249.406 584.691L249.272 583.897ZM253.227 579.955C253.223 580.467 253.093 580.943 252.836 581.383C252.584 581.822 252.23 582.203 251.774 582.524C251.319 582.842 250.794 583.076 250.2 583.226L249.76 582.469C250.285 582.347 250.749 582.162 251.152 581.914C251.559 581.666 251.876 581.373 252.104 581.035C252.332 580.697 252.446 580.337 252.446 579.955V579.405H253.227V579.955ZM253.422 579.955C253.422 580.317 253.536 580.659 253.764 580.98C253.992 581.297 254.307 581.572 254.71 581.804C255.113 582.036 255.575 582.209 256.096 582.323L255.681 583.055C255.078 582.917 254.549 582.701 254.094 582.408C253.638 582.115 253.282 581.759 253.026 581.34C252.769 580.921 252.641 580.459 252.641 579.955V579.405H253.422V579.955ZM268.168 581.029H261.113V580.235H268.168V581.029ZM269.951 588.451H260.063V587.657H269.951V588.451ZM264.885 588.072H263.945V583.775H264.885V588.072ZM268.767 581.456C268.758 582.355 268.73 583.159 268.681 583.867C268.636 584.575 268.531 585.395 268.364 586.327L267.387 586.217C267.513 585.59 267.605 584.996 267.662 584.435C267.723 583.873 267.76 583.385 267.772 582.97C267.788 582.551 267.798 582.026 267.802 581.395V581.322V580.235H268.767V581.322V581.456ZM277.495 582.469C277.495 583.206 277.356 583.938 277.08 584.667C276.803 585.391 276.427 586.04 275.95 586.614C275.474 587.187 274.96 587.617 274.406 587.901L273.82 587.145C274.337 586.892 274.817 586.514 275.261 586.009C275.708 585.505 276.064 584.939 276.329 584.312C276.597 583.686 276.734 583.071 276.738 582.469V580.675H277.495V582.469ZM277.678 582.469C277.674 583.039 277.796 583.617 278.044 584.203C278.296 584.789 278.638 585.32 279.069 585.796C279.501 586.268 279.977 586.628 280.498 586.876L279.948 587.633C279.383 587.356 278.868 586.947 278.404 586.406C277.944 585.865 277.58 585.25 277.312 584.563C277.043 583.871 276.909 583.173 276.909 582.469V580.675H277.678V582.469ZM280.119 581.053H274.211V580.26H280.119V581.053ZM282.402 589.989H281.45V579.137H282.402V589.989ZM284.221 584.349H282.182V583.531H284.221V584.349ZM291.252 583.849H289.116V583.031H291.252V583.849ZM287.858 582.262C287.858 583.006 287.755 583.733 287.547 584.441C287.34 585.145 287.041 585.777 286.65 586.339C286.263 586.896 285.812 587.332 285.295 587.645L284.685 586.925C285.173 586.64 285.6 586.249 285.966 585.753C286.333 585.257 286.613 584.707 286.809 584.105C287.004 583.499 287.102 582.884 287.102 582.262V580.162H287.858V582.262ZM288.029 582.225C288.029 582.807 288.121 583.387 288.304 583.965C288.487 584.538 288.75 585.063 289.091 585.539C289.437 586.015 289.844 586.392 290.312 586.668L289.763 587.413C289.25 587.104 288.806 586.675 288.432 586.125C288.058 585.576 287.773 584.964 287.578 584.288C287.386 583.613 287.293 582.925 287.297 582.225V580.162H288.029V582.225ZM294.108 589.989H293.181V579.137H294.108V589.989ZM291.862 589.439H290.959V579.369H291.862V589.439ZM304.008 589.989H303.056V579.137H304.008V589.989ZM305.827 584.41H303.789V583.617H305.827V584.41ZM302.006 581.676H295.549V580.882H302.006V581.676ZM298.833 582.579C299.337 582.579 299.791 582.685 300.194 582.896C300.596 583.108 300.912 583.403 301.14 583.781C301.372 584.16 301.49 584.589 301.494 585.069C301.49 585.554 301.372 585.985 301.14 586.363C300.912 586.738 300.596 587.031 300.194 587.242C299.791 587.454 299.337 587.56 298.833 587.56C298.324 587.56 297.866 587.454 297.459 587.242C297.056 587.031 296.741 586.738 296.513 586.363C296.285 585.985 296.171 585.554 296.171 585.069C296.171 584.589 296.285 584.16 296.513 583.781C296.741 583.403 297.056 583.108 297.459 582.896C297.866 582.685 298.324 582.579 298.833 582.579ZM298.833 583.385C298.499 583.385 298.2 583.456 297.935 583.598C297.671 583.741 297.463 583.942 297.313 584.203C297.162 584.459 297.087 584.748 297.087 585.069C297.087 585.395 297.162 585.684 297.313 585.936C297.463 586.188 297.671 586.388 297.935 586.534C298.2 586.677 298.499 586.746 298.833 586.742C299.162 586.746 299.459 586.677 299.724 586.534C299.992 586.388 300.2 586.188 300.346 585.936C300.497 585.684 300.574 585.395 300.578 585.069C300.574 584.748 300.497 584.459 300.346 584.203C300.2 583.942 299.992 583.741 299.724 583.598C299.459 583.456 299.162 583.385 298.833 583.385ZM299.296 581.249H298.344V579.271H299.296V581.249ZM315.703 589.989H314.787V579.137H315.703V589.989ZM312.785 584.374H310.002V583.592H312.785V584.374ZM313.42 589.439H312.504V579.43H313.42V589.439ZM311.101 580.528C311.097 581.497 310.952 582.412 310.667 583.275C310.386 584.138 309.941 584.941 309.331 585.686C308.72 586.43 307.939 587.083 306.987 587.645L306.425 586.949C307.268 586.449 307.967 585.875 308.525 585.228C309.086 584.577 309.499 583.873 309.764 583.116C310.032 582.359 310.169 581.554 310.173 580.699V580.528H311.101ZM310.539 581.322H306.889V580.528H310.539V581.322ZM164.262 609.989H163.347V599.137H164.262V609.989ZM161.455 603.836H159.331V603.055H161.455V603.836ZM162.065 609.427H161.162V599.405H162.065V609.427ZM158 602.237C157.996 603.019 157.89 603.773 157.683 604.502C157.479 605.23 157.186 605.885 156.804 606.467C156.425 607.045 155.978 607.494 155.461 607.816L154.851 607.096C155.343 606.803 155.77 606.4 156.132 605.887C156.499 605.375 156.775 604.803 156.962 604.172C157.154 603.541 157.247 602.896 157.243 602.237V600.821H158V602.237ZM158.171 602.237C158.171 602.868 158.264 603.482 158.452 604.081C158.639 604.675 158.907 605.216 159.257 605.704C159.607 606.188 160.026 606.571 160.515 606.852L159.929 607.56C159.408 607.246 158.962 606.817 158.592 606.272C158.222 605.722 157.937 605.102 157.738 604.41C157.542 603.714 157.447 602.99 157.451 602.237V600.821H158.171V602.237ZM160.161 601.212H155.156V600.418H160.161V601.212ZM170.695 605.997C171.468 605.997 172.142 606.074 172.716 606.229C173.289 606.384 173.731 606.611 174.04 606.913C174.349 607.214 174.504 607.572 174.504 607.987C174.504 608.398 174.349 608.75 174.04 609.043C173.731 609.34 173.289 609.568 172.716 609.726C172.142 609.885 171.468 609.964 170.695 609.964C169.922 609.964 169.251 609.885 168.681 609.726C168.111 609.568 167.672 609.34 167.363 609.043C167.054 608.75 166.899 608.398 166.899 607.987C166.899 607.572 167.054 607.214 167.363 606.913C167.672 606.611 168.111 606.384 168.681 606.229C169.251 606.074 169.922 605.997 170.695 605.997ZM170.695 606.729C170.122 606.729 169.619 606.78 169.188 606.882C168.76 606.984 168.431 607.13 168.199 607.322C167.967 607.509 167.851 607.73 167.851 607.987C167.851 608.235 167.967 608.453 168.199 608.64C168.431 608.823 168.76 608.963 169.188 609.061C169.619 609.159 170.122 609.208 170.695 609.208C171.269 609.208 171.77 609.159 172.197 609.061C172.628 608.963 172.96 608.823 173.192 608.64C173.428 608.453 173.548 608.235 173.552 607.987C173.548 607.73 173.428 607.509 173.192 607.322C172.96 607.13 172.628 606.984 172.197 606.882C171.77 606.78 171.269 606.729 170.695 606.729ZM174.016 600.479H166.972V599.698H174.016V600.479ZM175.676 604.984H165.8V604.203H175.676V604.984ZM170.83 604.447H169.89V602.103H170.83V604.447ZM174.418 600.663C174.414 601.24 174.394 601.735 174.357 602.146C174.325 602.557 174.243 603.006 174.113 603.495L173.173 603.385C173.299 602.901 173.379 602.463 173.411 602.073C173.448 601.682 173.466 601.228 173.466 600.711V600.614V599.698H174.418V600.614V600.663ZM182.011 601.798H176.567V601.017H182.011V601.798ZM179.289 602.53C179.741 602.53 180.144 602.636 180.498 602.848C180.856 603.059 181.134 603.352 181.334 603.727C181.537 604.097 181.641 604.52 181.645 604.996C181.641 605.476 181.537 605.903 181.334 606.278C181.134 606.652 180.856 606.947 180.498 607.163C180.144 607.378 179.741 607.486 179.289 607.486C178.846 607.486 178.445 607.378 178.087 607.163C177.733 606.947 177.456 606.652 177.257 606.278C177.057 605.903 176.958 605.476 176.958 604.996C176.958 604.524 177.059 604.101 177.263 603.727C177.466 603.352 177.743 603.059 178.093 602.848C178.447 602.636 178.846 602.53 179.289 602.53ZM179.289 603.336C179.004 603.34 178.75 603.415 178.526 603.562C178.302 603.704 178.127 603.902 178.001 604.154C177.875 604.402 177.812 604.683 177.812 604.996C177.812 605.313 177.875 605.596 178.001 605.844C178.127 606.093 178.302 606.288 178.526 606.43C178.75 606.573 179.004 606.644 179.289 606.644C179.574 606.644 179.83 606.573 180.058 606.43C180.286 606.288 180.465 606.093 180.595 605.844C180.725 605.596 180.791 605.313 180.791 604.996C180.791 604.683 180.725 604.402 180.595 604.154C180.465 603.902 180.286 603.704 180.058 603.562C179.83 603.415 179.574 603.34 179.289 603.336ZM185.832 609.989H184.917V599.137H185.832V609.989ZM185.222 604.508H183.146V603.714H185.222V604.508ZM183.476 609.452H182.573V599.405H183.476V609.452ZM179.777 601.493H178.825V599.466H179.777V601.493ZM199.296 605.155H191.801V604.361H199.296V605.155ZM200.468 608.512H190.532V607.706H200.468V608.512ZM199.187 600.943H192.753V604.715H191.801V600.15H199.187V600.943ZM202.763 603.666C203.886 603.666 204.832 603.645 205.601 603.604C206.374 603.56 207.17 603.474 207.988 603.348L208.073 604.093C207.239 604.227 206.429 604.319 205.644 604.367C204.859 604.412 203.898 604.435 202.763 604.435H201.884V603.666H202.763ZM206.865 602.323H202.836V604.032H201.884V601.615H205.925V600.418H201.848V599.674H206.865V602.323ZM210.295 607.889H204.216V609.452H203.264V607.169H209.318V606.095H203.239V605.338H210.295V607.889ZM210.686 609.867H203.264V609.098H210.686V609.867ZM210.295 604.862H209.343V599.137H210.295V604.862ZM221.428 609.989H220.512V599.137H221.428V609.989ZM218.51 604.374H215.727V603.592H218.51V604.374ZM219.145 609.439H218.229V599.43H219.145V609.439ZM216.826 600.528C216.822 601.497 216.677 602.412 216.392 603.275C216.112 604.138 215.666 604.941 215.056 605.686C214.445 606.43 213.664 607.083 212.712 607.645L212.15 606.949C212.993 606.449 213.693 605.875 214.25 605.228C214.812 604.577 215.225 603.873 215.489 603.116C215.758 602.359 215.894 601.554 215.898 600.699V600.528H216.826ZM216.264 601.322H212.614V600.528H216.264V601.322ZM226.347 607.987H225.407V604.74H226.347V607.987ZM230.412 607.987H229.448V604.74H230.412V607.987ZM232.878 608.597H222.941V607.792H232.878V608.597ZM227.885 599.82C228.654 599.824 229.338 599.942 229.936 600.174C230.538 600.402 231.008 600.73 231.346 601.157C231.684 601.58 231.853 602.066 231.853 602.616C231.853 603.169 231.684 603.655 231.346 604.074C231.008 604.494 230.538 604.819 229.936 605.051C229.338 605.283 228.654 605.399 227.885 605.399C227.116 605.399 226.431 605.283 225.828 605.051C225.23 604.819 224.762 604.494 224.425 604.074C224.087 603.655 223.918 603.169 223.918 602.616C223.918 602.066 224.087 601.58 224.425 601.157C224.762 600.73 225.23 600.402 225.828 600.174C226.431 599.942 227.116 599.824 227.885 599.82ZM227.885 600.614C227.295 600.61 226.768 600.691 226.304 600.858C225.845 601.021 225.487 601.255 225.23 601.56C224.974 601.865 224.846 602.217 224.846 602.616C224.846 603.014 224.974 603.366 225.23 603.672C225.487 603.977 225.845 604.215 226.304 604.386C226.768 604.557 227.295 604.642 227.885 604.642C228.471 604.642 228.994 604.557 229.454 604.386C229.914 604.215 230.274 603.977 230.534 603.672C230.795 603.366 230.925 603.014 230.925 602.616C230.925 602.217 230.795 601.865 230.534 601.56C230.274 601.255 229.914 601.021 229.454 600.858C228.994 600.691 228.471 600.61 227.885 600.614ZM234.892 609.073C234.75 609.073 234.617 609.037 234.495 608.963C234.377 608.89 234.282 608.795 234.208 608.677C234.139 608.554 234.107 608.422 234.111 608.28C234.107 608.141 234.139 608.011 234.208 607.889C234.282 607.767 234.377 607.671 234.495 607.602C234.617 607.533 234.75 607.499 234.892 607.499C235.035 607.499 235.165 607.533 235.283 607.602C235.405 607.671 235.5 607.767 235.57 607.889C235.639 608.011 235.673 608.141 235.673 608.28C235.673 608.422 235.639 608.554 235.57 608.677C235.5 608.795 235.405 608.89 235.283 608.963C235.165 609.037 235.035 609.073 234.892 609.073Z" fill="#626262"/>
<rect x="48.5" y="706" width="42" height="42" rx="21" fill="#FCFCFE"/>
<rect x="48.5" y="706" width="42" height="42" rx="21" stroke="#01A4FC"/>
<path d="M70.3092 718.587L62 727M62 727L70.3092 735.413M62 727H76.9565" stroke="#01A4FC" stroke-width="2" stroke-linecap="round" stroke-linejoin="round"/>
<circle opacity="0.6" cx="175" cy="727.5" r="4" fill="#01A4FC"/>
<circle opacity="0.6" cx="193" cy="727.5" r="4" fill="#01A4FC"/>
<circle cx="213" cy="727.5" r="6" fill="#01A4FC"/>
<rect x="253.75" y="704.75" width="86.5" height="44.5" rx="22.25" fill="white"/>
<rect x="253.75" y="704.75" width="86.5" height="44.5" rx="22.25" stroke="#01A4FC" stroke-width="1.5"/>
<path d="M268.402 722.037C268.402 723.6 268.21 725.055 267.826 726.402C267.449 727.75 266.872 728.938 266.098 729.967C265.329 730.989 264.376 731.764 263.236 732.291L261.723 730.211C262.725 729.788 263.575 729.16 264.271 728.326C264.968 727.486 265.486 726.529 265.824 725.455C266.169 724.374 266.345 723.235 266.352 722.037V719.381H268.402V722.037ZM268.881 722.037C268.874 723.17 269.04 724.251 269.379 725.279C269.717 726.301 270.222 727.216 270.893 728.023C271.57 728.831 272.396 729.439 273.373 729.85L271.908 731.852C270.795 731.344 269.857 730.602 269.096 729.625C268.34 728.642 267.771 727.506 267.387 726.217C267.009 724.921 266.824 723.528 266.83 722.037V719.381H268.881V722.037ZM276.84 735.846H274.311V718.004H276.84V735.846ZM285.326 720.992C285.32 722.132 285.131 723.196 284.76 724.186C284.389 725.169 283.826 726.031 283.07 726.773C282.315 727.509 281.391 728.059 280.297 728.424L278.988 726.5C279.939 726.188 280.733 725.745 281.371 725.172C282.016 724.599 282.494 723.954 282.807 723.238C283.119 722.516 283.279 721.767 283.285 720.992V719.84H285.326V720.992ZM285.805 721.012C285.805 721.741 285.951 722.441 286.244 723.111C286.544 723.782 286.999 724.391 287.611 724.938C288.23 725.478 289.005 725.898 289.936 726.197L288.686 728.121C287.605 727.77 286.697 727.239 285.961 726.529C285.232 725.813 284.685 724.986 284.32 724.049C283.956 723.105 283.773 722.092 283.773 721.012V719.84H285.805V721.012ZM289.35 721.051H279.662V719.059H289.35V721.051ZM293.344 728.746H290.854V718.004H293.344V728.746ZM295.746 724.4H292.641V722.33H295.746V724.4ZM293.344 735.797H290.854V731.49H281.381V729.508H293.344V735.797ZM310.551 735.797H308.09V718.004H310.551V735.797ZM313.188 727.027H310.004V724.986H313.188V727.027ZM306.879 722.672H296.439V720.67H306.879V722.672ZM301.703 723.658C302.556 723.658 303.327 723.84 304.018 724.205C304.714 724.563 305.258 725.064 305.648 725.709C306.046 726.354 306.247 727.083 306.254 727.896C306.247 728.717 306.046 729.449 305.648 730.094C305.258 730.732 304.714 731.233 304.018 731.598C303.327 731.956 302.556 732.135 301.703 732.135C300.837 732.135 300.059 731.956 299.369 731.598C298.679 731.233 298.139 730.732 297.748 730.094C297.357 729.449 297.162 728.717 297.162 727.896C297.162 727.083 297.357 726.354 297.748 725.709C298.139 725.064 298.679 724.563 299.369 724.205C300.059 723.84 300.837 723.658 301.703 723.658ZM301.703 725.689C301.286 725.696 300.915 725.787 300.59 725.963C300.264 726.139 300.007 726.396 299.818 726.734C299.636 727.066 299.545 727.454 299.545 727.896C299.545 728.352 299.636 728.746 299.818 729.078C300.007 729.404 300.264 729.654 300.59 729.83C300.915 730.006 301.286 730.097 301.703 730.104C302.12 730.097 302.491 730.006 302.816 729.83C303.148 729.654 303.402 729.404 303.578 729.078C303.76 728.746 303.852 728.352 303.852 727.896C303.852 727.454 303.76 727.066 303.578 726.734C303.402 726.396 303.148 726.139 302.816 725.963C302.491 725.787 302.12 725.696 301.703 725.689ZM302.943 721.432H300.463V718.287H302.943V721.432ZM328.754 735.797H326.225V718.004H328.754V735.797ZM323.432 719.879C323.425 721.786 323.168 723.518 322.66 725.074C322.152 726.624 321.29 728.049 320.072 729.352C318.855 730.654 317.224 731.786 315.18 732.75L313.871 730.758C315.577 729.951 316.947 729.042 317.982 728.033C319.024 727.024 319.779 725.891 320.248 724.635C320.717 723.378 320.951 721.939 320.951 720.318V719.879H323.432ZM322.094 721.842H314.818V719.879H322.094V721.842Z" fill="#01A4FC"/>
<defs>
<clipPath id="clip0_30_102">
<rect width="335" height="293" fill="white" transform="translate(28 141)"/>
</clipPath>
</defs>
</svg>
