<svg width="393" height="852" viewBox="0 0 393 852" fill="none" xmlns="http://www.w3.org/2000/svg">
<rect width="393" height="852" fill="#FAFBFC"/>
<g clip-path="url(#clip0_30_380)">
<path d="M319.398 291.37C318.072 278.408 313.637 259.643 295.553 252.972C288.783 261.566 275.274 255.713 271.755 249.88C264.677 260.947 252.65 271.329 244.696 284.774C240.857 291.268 236.228 298.913 240.924 306.043C255.055 304.747 269.274 304.716 283.41 305.95C287.779 298.366 288.29 295.563 288.228 288.868C288.228 288.157 289.25 287.846 289.341 288.713C290.02 294.796 288.641 300.93 285.425 306.138C287.161 306.248 288.884 306.503 290.578 306.9C292.038 307.254 291.608 308.251 290.319 308.127C274.416 306.597 258.405 306.57 242.497 308.045C247.556 314.454 247.289 318.349 246.031 324.981C254.368 330.7 284.867 338.267 298.591 334.09C311.209 330.25 320.957 306.621 319.398 291.37Z" fill="#38A1FF"/>
<path d="M190.613 264.506C182.802 259.777 166.336 258.53 157.258 263.373C155.3 271.133 148.756 280.397 145.521 283.333C140.719 282.165 132.362 278.254 129.239 272.256C115.369 276.687 101.808 297.78 97.8006 311.928C92.2365 306.075 81.4982 290.845 79.2586 285.672C74.5301 288.894 69.1132 290.966 63.4409 291.721C67.8414 322.381 87.8828 350.575 102.103 349.519C113.439 348.677 120.775 336.68 125.103 328.694C122.457 325.745 120.171 322.494 118.292 319.007C117.911 318.291 118.438 316.936 119.322 318.079C136.696 340.563 160.962 354.352 193.198 356.206C177.073 334.227 171.601 286.157 190.613 264.506Z" fill="#38A1FF"/>
<path d="M146.036 245.938C150.508 245.341 150.796 238.416 146.994 236.354C147.583 232.42 147.801 228.439 147.644 224.464C147.429 218.817 144.303 216.326 139.132 215.726C134.573 215.194 130.311 213.19 126.993 210.018C121.245 204.524 121.676 213.18 126.993 216.953C122.126 216.41 117.389 215.033 112.989 212.882C109.97 211.069 108.499 211.691 109.146 214.314C109.46 215.664 110.067 216.928 110.925 218.016C111.783 219.105 112.871 219.99 114.11 220.61C109.165 221.262 104.14 220.93 99.3234 219.632C95.1741 218.464 93.1417 218.848 95.3157 222.465C97.103 225.06 99.4169 227.248 102.107 228.889C104.796 230.529 107.801 231.585 110.926 231.986C118.087 232.767 125.805 230.76 134.152 227.535C135.139 232.244 137.755 236.454 141.539 239.426C141.988 239.781 142.63 239.838 142.853 239.188C144.182 235.246 149.286 239.188 147.356 242.878C146.683 244.164 145.718 244.073 144.78 244.084C143.843 244.094 144.151 244.66 144.286 245.506C144.833 248.967 150.771 262.204 153.323 264.445C153.932 264.979 154.5 264.278 154.126 263.673C150.689 258.127 147.971 252.168 146.036 245.938Z" fill="#191919"/>
<path d="M120.914 235.902C120.199 236.014 119.526 236.312 118.963 236.766C118.399 237.219 117.964 237.813 117.702 238.488C117.223 239.74 117.877 240.28 118.731 239.178C119.485 238.382 120.423 237.784 121.463 237.438C122.314 237.098 122.387 235.664 120.914 235.902Z" fill="#191919"/>
<path d="M119.172 242.919C118.947 243.558 119.464 243.866 120.017 243.393C120.323 243.13 120.682 242.934 121.069 242.818C121.456 242.703 121.863 242.67 122.263 242.723C123.057 242.723 123.114 242.051 122.479 241.692C122.187 241.524 121.862 241.423 121.527 241.395C121.191 241.367 120.854 241.413 120.538 241.53C120.222 241.647 119.936 241.832 119.7 242.072C119.464 242.312 119.284 242.601 119.172 242.919Z" fill="#191919"/>
<path d="M131.382 239.426C131.069 239.231 130.718 239.105 130.352 239.058C129.986 239.01 129.615 239.041 129.262 239.15C128.909 239.258 128.584 239.441 128.308 239.686C128.033 239.931 127.813 240.232 127.663 240.57C127.436 241.189 127.845 241.507 128.247 241.219C129.053 240.627 130.029 240.313 131.029 240.323C131.537 240.26 132.042 239.784 131.382 239.426Z" fill="#191919"/>
<path d="M130.28 251.379C129.757 251.682 129.696 252.482 130.703 252.245C134.083 251.442 135.924 249.429 134.587 246.897C134.203 246.167 133.156 246.773 133.484 247.504C134.537 249.843 131.543 250.648 130.28 251.379Z" fill="#191919"/>
<path d="M130.344 234.325C129.56 233.944 128.692 233.768 127.822 233.813C126.952 233.859 126.107 234.124 125.367 234.583C125.225 234.692 125.125 234.847 125.085 235.02C125.044 235.194 125.065 235.377 125.144 235.537C125.223 235.698 125.355 235.826 125.517 235.9C125.68 235.973 125.863 235.989 126.036 235.943C127.292 235.445 128.65 235.258 129.994 235.397C130.878 235.55 131.236 234.835 130.344 234.325Z" fill="#191919"/>
<path d="M124.324 242.208C123.948 243.685 123.356 248.468 125.138 248.957C126.066 249.213 128.834 248.124 128.291 247.175C127.866 246.434 125.884 247.843 125.633 247.423C125.122 245.72 124.988 243.926 125.241 242.167C125.262 241.354 124.722 240.645 124.324 242.208Z" fill="#191919"/>
<path d="M213.386 269.648C213.233 266.227 209.264 261.776 206.007 261.755C205.245 261.755 204.658 262.868 205.423 263.069C207.087 263.513 208.603 264.391 209.816 265.613C211.029 266.836 211.896 268.358 212.327 270.025C212.58 270.913 213.447 271.04 213.386 269.648Z" fill="#191919"/>
<path d="M216.192 264.496C215.123 259.919 210.01 257.977 205.714 258.561C200.84 259.224 196.778 262.589 193.657 266.299C190.338 270.241 193.234 276.478 186.856 279.055C185.396 279.639 185.97 280.652 187.453 280.2C195.172 277.84 192.225 269.997 195.069 267.247C197.913 264.496 200.922 261.487 205.013 260.497C209.104 259.507 213.379 261.037 215.049 265C215.361 265.754 216.376 265.3 216.192 264.496Z" fill="#191919"/>
<path d="M208.336 272.04C208.952 273.354 209.86 272.875 209.521 271.602C208.704 268.512 205.902 264.132 202.112 264.575C201.35 264.664 201.482 265.845 202.112 266.017C206.496 267.209 207.363 269.95 208.336 272.04Z" fill="#191919"/>
<path d="M197.98 267.558C197.167 267.69 196.949 268.962 197.98 269C199.356 268.982 200.699 269.425 201.794 270.257C202.89 271.09 203.677 272.264 204.029 273.595C204.42 274.389 205.051 274.389 205.059 273.317C205.076 270.164 201.339 267.007 197.98 267.558Z" fill="#191919"/>
<path d="M62.6204 271.308C60.8319 264.351 60.4567 262.256 60.5604 257.809C60.5837 256.778 59.6639 257.025 59.3135 258.376C58.5604 262.993 59.2812 267.731 61.3736 271.916C61.7459 272.657 62.8175 272.07 62.6204 271.308Z" fill="#191919"/>
<path d="M56.5001 262.951C56.5001 261.766 55.3467 262.291 55.3146 263.043C55.1827 268.866 56.763 274.599 59.8596 279.531C61.6273 282.556 62.9858 285.803 63.8994 289.186C64.1666 290.134 65.3375 290.288 65.1871 288.424C64.5538 284.875 63.2282 281.486 61.286 278.449C58.445 273.753 56.8015 268.431 56.5001 262.951Z" fill="#191919"/>
<path d="M76.8613 265.188C76.159 263.973 75.3181 264.842 75.832 265.772C79.1549 271.746 71.9601 279.318 76.8613 284.835C76.9837 284.947 77.1404 285.014 77.3056 285.024C77.4709 285.035 77.6349 284.989 77.7708 284.895C77.9066 284.8 78.0062 284.662 78.0532 284.503C78.1002 284.344 78.0917 284.174 78.0293 284.021C74.829 277.89 80.3565 271.231 76.8613 265.188Z" fill="#191919"/>
<path d="M69.4941 257.742C69.4795 257.062 68.6065 256.443 68.3407 257.742C67.8312 260.224 68.1247 267.636 69.7307 269.695C69.8232 269.808 69.9503 269.888 70.0925 269.923C70.2347 269.957 70.3843 269.944 70.5184 269.886C70.6526 269.828 70.7641 269.727 70.8359 269.6C70.9077 269.472 70.9359 269.325 70.9162 269.18C70.0992 265.418 69.6232 261.59 69.4941 257.742Z" fill="#191919"/>
<path d="M65.2689 255.913C65.2689 255.15 64.3929 255.059 64.1155 255.913C63.0146 259.379 63.4205 266.708 65.4645 269.929C65.9025 270.628 67.1202 270.342 66.9245 269.423C65.6743 265.033 65.1157 260.475 65.2689 255.913Z" fill="#191919"/>
<path d="M236.406 308.842C237.168 309.153 237.371 307.95 236.921 307.528C234.314 305.056 226.616 304.725 222.742 307.632C222.597 307.71 222.487 307.841 222.436 307.998C222.386 308.155 222.397 308.326 222.469 308.474C222.541 308.623 222.667 308.738 222.821 308.796C222.975 308.854 223.146 308.85 223.298 308.785C229.903 306.198 233.324 307.594 236.406 308.842Z" fill="#191919"/>
<path d="M230.697 320.172C237.454 319.058 238.037 320.91 240.167 321.058C240.362 321.074 240.557 321.013 240.708 320.887C240.859 320.761 240.954 320.58 240.973 320.385C241.135 318.59 234.176 317.126 230.274 319.039C229.504 319.415 229.955 320.294 230.697 320.172Z" fill="#191919"/>
<path d="M226.792 316.916C233.709 314.771 236.058 316.126 239.92 317.183C240.691 317.395 240.889 316.254 240.373 315.834C237.655 313.613 230.153 313.635 226.39 315.771C225.72 316.152 225.957 317.174 226.792 316.916Z" fill="#191919"/>
<path d="M224.73 313.308C230.915 311.429 233.655 312.336 237.787 313.016C237.948 313.041 238.113 313.012 238.257 312.935C238.401 312.858 238.516 312.736 238.585 312.588C238.653 312.439 238.672 312.273 238.637 312.113C238.603 311.953 238.518 311.809 238.394 311.702C235.749 309.4 227.31 309.698 224.174 312.187C223.492 312.733 223.948 313.546 224.73 313.308Z" fill="#191919"/>
<path d="M326.291 219.734C323.063 221.333 319.467 222.045 315.874 221.795C311.988 229.358 306.274 242.539 295.908 241.244C292.518 240.822 290.598 238.217 288.571 235.782C288.014 235.114 287.39 235.724 287.696 236.381C288.796 238.731 290.463 240.771 292.549 242.316C291.518 244.506 290.487 250.302 290.962 252.445C290.989 252.576 291.061 252.694 291.165 252.779C291.269 252.863 291.399 252.909 291.533 252.909C291.667 252.909 291.797 252.863 291.901 252.779C292.005 252.694 292.077 252.576 292.105 252.445C292.173 251.434 292.328 250.431 292.569 249.446C299.524 250.889 308.592 255.724 313.529 263.779C328.037 260.688 329.314 244.551 321.081 238.451C331.166 235.881 330.774 223.197 326.291 219.734Z" fill="#191919"/>
<path d="M301.561 226.916C302.729 227.221 303.897 224.546 302.931 223.939C301.646 223.14 299.971 226.498 301.561 226.916Z" fill="#191919"/>
<path d="M308.527 230.148C309.393 230.202 310.353 228.447 310.124 227.757C309.461 225.768 306.477 230.022 308.527 230.148Z" fill="#191919"/>
<path d="M310.835 223.515C311.562 223.949 312.132 224.602 312.463 225.381C312.659 226.082 313.606 226.308 313.596 225.061C313.536 224.41 313.296 223.789 312.903 223.267C312.51 222.744 311.98 222.342 311.371 222.103C310.266 221.689 309.35 222.644 310.835 223.515Z" fill="#191919"/>
<path d="M305.178 221.064C306.506 221.502 306.93 220.362 305.878 219.589C305.077 219.094 304.15 218.842 303.208 218.862C302.266 218.882 301.351 219.174 300.571 219.703C300.076 220.229 300.345 220.734 301.009 220.63C302.409 220.317 303.873 220.469 305.178 221.064Z" fill="#191919"/>
<path d="M294.966 231.754C294.864 232.279 294.869 232.818 294.98 233.341C295.091 233.864 295.306 234.359 295.613 234.797C295.92 235.234 296.312 235.605 296.765 235.888C297.219 236.171 297.725 236.359 298.253 236.442C298.325 236.492 298.408 236.525 298.494 236.538C298.581 236.55 298.67 236.543 298.753 236.515C298.837 236.488 298.913 236.441 298.975 236.38C299.037 236.318 299.084 236.243 299.113 236.159C299.141 236.076 299.15 235.988 299.138 235.901C299.126 235.814 299.094 235.731 299.045 235.658C298.995 235.586 298.93 235.526 298.853 235.483C298.776 235.44 298.691 235.415 298.603 235.411C298.25 235.323 297.919 235.163 297.63 234.942C297.341 234.721 297.1 234.443 296.922 234.126C296.744 233.808 296.634 233.458 296.596 233.096C296.559 232.734 296.596 232.368 296.705 232.021C297.15 229.472 295.257 229.987 294.966 231.754Z" fill="#191919"/>
<path d="M304.652 233.903C305.868 233.326 306.951 228.605 306.341 227.977C305.397 227.006 305.319 231.132 303.972 232.306C303.388 232.811 302.658 231.357 301.912 231.79C300.996 232.322 302.993 234.687 304.652 233.903Z" fill="#191919"/>
<path d="M229.43 366.294C228.142 367.429 230.268 368.938 231.49 368.149C246.09 358.72 262.013 368.53 258.344 385.285C258.227 385.643 258.255 386.032 258.421 386.37C258.588 386.708 258.88 386.967 259.235 387.093C259.59 387.218 259.981 387.199 260.322 387.041C260.664 386.882 260.93 386.596 261.064 386.244C268.543 367.403 244.45 353.042 229.43 366.294Z" fill="#191919"/>
<path d="M262.023 360.884C249.66 349.934 224.194 349.167 211.361 360.019C184.351 382.863 209.142 421.214 243.428 414.508C269.397 409.436 281.512 378.139 262.023 360.884ZM246.875 410.645C218.205 419.91 188.329 389.857 210.242 365.037C221.359 352.443 246.554 351.911 259.344 362.358C277.106 376.868 268.193 403.755 246.875 410.645Z" fill="#191919"/>
<path d="M289.268 221.388C289.725 222.778 289.706 223.245 291.648 222.027C294.679 220.129 297.583 218.452 299.406 212.321C302.456 215.578 306.359 217.913 310.67 219.061C314.981 220.209 319.528 220.125 323.794 218.817C332.604 216.095 340.704 195.858 317.808 194.416C318.57 182.329 298.126 182.247 295.86 191.963C288.501 186.646 279.372 190.941 278.166 195.683C285.38 215.365 279.197 234.737 274.044 245.227C272.602 248.164 274.482 247.709 274.92 246.845C278.229 240.229 280.813 233.735 285.432 227.802C286.238 226.767 285.526 226.369 284.65 225.958C284.328 225.772 284.047 225.523 283.824 225.226C283.601 224.928 283.44 224.589 283.351 224.228C283.262 223.867 283.248 223.492 283.308 223.125C283.368 222.758 283.502 222.407 283.701 222.093C284.897 219.363 288.38 218.7 289.268 221.388Z" fill="#191919"/>
<path d="M139.606 254.666C138.815 256.049 137.717 257.233 136.397 258.126C135.076 259.019 133.569 259.598 131.991 259.818C120.223 261.25 117.457 244.177 115.648 236.036C115.348 234.686 114.504 235.417 114.617 236.182C115.472 245.22 119.058 262.51 131.105 261.666C131.645 264.915 131.738 268.223 131.382 271.497C131.302 272.289 132.135 273.084 132.753 271.393C133.506 269.333 133.423 264.093 132.979 261.357C134.596 260.934 136.106 260.176 137.41 259.132C138.715 258.089 139.786 256.782 140.554 255.298C140.98 254.477 140.034 253.946 139.606 254.666Z" fill="#191919"/>
<path d="M206.43 352.125C213.644 350.665 232.909 344.259 238.529 339.39C239.444 338.595 238.404 336.916 237.292 337.452C223.13 344.262 216.683 345.695 202.37 349.972C186.666 328.466 179.832 302.601 198.795 276.337C199.776 274.977 197.783 273.723 196.733 275.059C180.162 296.163 180.235 322.985 198.021 349.25C200.821 353.385 201.008 353.226 206.43 352.125Z" fill="#191919"/>
<path d="M131.753 170.922C162.912 151.016 200.625 147.34 234.283 163.426C272.015 181.464 285.792 211.716 263.259 249.376C254.278 264.386 233.803 282.728 231.202 298.229C230.91 299.959 233.275 300.643 233.582 298.888C236.111 284.409 254.943 267.45 263.527 254.212C287.23 217.642 279.318 185.162 241.335 164.038C207.423 145.183 161.973 145.76 130.636 169.489C129.468 170.377 130.383 171.798 131.753 170.922Z" fill="#191919"/>
<path d="M221.66 218.992C232.338 230.458 226.139 246.316 214.828 254.769C213.602 255.686 215.065 257.479 216.434 256.469C227.862 248.051 234.976 232.772 226.079 219.807C213.596 201.621 185.573 205.256 168.374 219.515C157.804 208.09 142.024 188.941 132.671 176.229C131.702 174.915 130.373 175.899 131.465 177.397C140.745 190.191 154.605 208.509 165.274 220.674C167.243 222.92 167.796 223.527 170.199 221.623C184.171 210.559 207.781 204.09 221.66 218.992Z" fill="#191919"/>
<path d="M253.974 188.707C235.946 163.029 192.715 154.878 165.356 169.222C164.981 169.394 164.69 169.707 164.545 170.093C164.401 170.479 164.416 170.906 164.586 171.282C164.757 171.657 165.069 171.949 165.455 172.094C165.841 172.24 166.268 172.226 166.644 172.056C200.186 159.227 227.818 168.637 252.099 190.47C253.553 191.778 255.174 190.418 253.974 188.707Z" fill="#191919"/>
<path d="M240.095 334.339C241.689 337.124 244.072 335.653 242.392 332.98C240.711 330.307 238.923 327.362 237.127 324.592C236.458 323.56 234.633 324.592 235.241 325.705C236.83 328.599 238.448 331.478 240.095 334.339Z" fill="#191919"/>
</g>
<path d="M95.147 498.289H80.938V495.823H95.147V498.289ZM98.7725 506.003H78.46V503.538H98.7725V506.003ZM90.1055 509.702H87.0415V505.222H90.1055V509.702ZM96.3677 497.556C96.3677 498.891 96.327 500.087 96.2456 501.145C96.1724 502.195 95.9811 503.354 95.6719 504.624L92.5957 504.368C92.791 503.505 92.9375 502.691 93.0352 501.926C93.1328 501.161 93.1938 500.482 93.2183 499.888C93.2427 499.294 93.259 498.577 93.2671 497.739V497.556V495.823H96.3677V497.556ZM88.5796 508.701C90.1909 508.701 91.5866 508.868 92.7666 509.202C93.9548 509.527 94.8621 510.011 95.4888 510.654C96.1235 511.297 96.4409 512.062 96.4409 512.949C96.4409 513.861 96.1235 514.638 95.4888 515.281C94.8621 515.924 93.9588 516.412 92.7788 516.746C91.5988 517.079 90.1991 517.246 88.5796 517.246C86.952 517.246 85.5441 517.079 84.356 516.746C83.1759 516.412 82.2686 515.924 81.6338 515.281C81.0072 514.638 80.6938 513.861 80.6938 512.949C80.6938 512.062 81.0072 511.297 81.6338 510.654C82.2686 510.011 83.18 509.527 84.3682 509.202C85.5563 508.868 86.9601 508.701 88.5796 508.701ZM88.5796 511.155C87.5298 511.163 86.6509 511.232 85.9429 511.362C85.243 511.493 84.714 511.692 84.356 511.96C84.006 512.221 83.8311 512.55 83.8311 512.949C83.8311 513.364 84.006 513.706 84.356 513.975C84.714 514.243 85.243 514.447 85.9429 514.585C86.6509 514.715 87.5298 514.78 88.5796 514.78C89.6213 514.78 90.488 514.715 91.1797 514.585C91.8714 514.447 92.3963 514.243 92.7544 513.975C93.1125 513.706 93.2915 513.364 93.2915 512.949C93.2915 512.55 93.1125 512.221 92.7544 511.96C92.3963 511.692 91.8674 511.493 91.1675 511.362C90.4757 511.232 89.6131 511.163 88.5796 511.155ZM116.753 498.533H102.544V496.042H116.753V498.533ZM120.379 506.516H100.066V504.014H120.379V506.516ZM117.974 497.825C117.974 499.111 117.933 500.258 117.852 501.267C117.779 502.276 117.592 503.424 117.291 504.709L114.166 504.624C114.377 503.77 114.532 502.96 114.629 502.195C114.735 501.422 114.8 500.738 114.825 500.144C114.849 499.55 114.865 498.838 114.874 498.008V497.825V496.042H117.974V497.825ZM117.901 517.002H102.447V508.884H117.901V517.002ZM105.523 514.5H114.8V511.301H105.523V514.5ZM139.288 511.643H136.175V495.054H139.288V511.643ZM142.291 504.404H138.384V501.853H142.291V504.404ZM134.844 499.827H121.648V497.373H134.844V499.827ZM128.265 500.608C129.323 500.608 130.267 500.791 131.097 501.157C131.927 501.515 132.574 502.02 133.038 502.671C133.501 503.322 133.733 504.071 133.733 504.917C133.733 505.755 133.501 506.496 133.038 507.139C132.574 507.782 131.927 508.282 131.097 508.64C130.267 508.99 129.323 509.165 128.265 509.165C127.19 509.165 126.234 508.99 125.396 508.64C124.566 508.282 123.915 507.782 123.443 507.139C122.979 506.496 122.747 505.755 122.747 504.917C122.747 504.071 122.979 503.322 123.443 502.671C123.915 502.02 124.566 501.515 125.396 501.157C126.234 500.791 127.19 500.608 128.265 500.608ZM128.265 503C127.76 503 127.321 503.074 126.946 503.22C126.572 503.367 126.283 503.586 126.08 503.879C125.876 504.164 125.774 504.51 125.774 504.917C125.774 505.316 125.876 505.658 126.08 505.942C126.283 506.219 126.572 506.431 126.946 506.577C127.321 506.724 127.76 506.797 128.265 506.797C128.761 506.797 129.196 506.724 129.571 506.577C129.953 506.431 130.25 506.219 130.462 505.942C130.674 505.658 130.779 505.316 130.779 504.917C130.779 504.51 130.674 504.164 130.462 503.879C130.25 503.586 129.953 503.367 129.571 503.22C129.196 503.074 128.761 503 128.265 503ZM129.815 498.582H126.702V495.017H129.815V498.582ZM140.081 516.868H124.871V514.353H140.081V516.868ZM127.984 515.427H124.871V510.361H127.984V515.427ZM169.329 507.773H149.065V505.271H169.329V507.773ZM159.161 509.006C160.764 509.006 162.143 509.173 163.299 509.507C164.454 509.832 165.341 510.304 165.96 510.923C166.578 511.541 166.892 512.278 166.9 513.132C166.892 514.003 166.578 514.748 165.96 515.366C165.35 515.985 164.463 516.453 163.299 516.77C162.143 517.087 160.764 517.246 159.161 517.246C157.541 517.246 156.15 517.087 154.986 516.77C153.822 516.453 152.927 515.985 152.3 515.366C151.682 514.748 151.373 514.003 151.373 513.132C151.373 512.278 151.682 511.541 152.3 510.923C152.927 510.304 153.822 509.832 154.986 509.507C156.158 509.173 157.549 509.006 159.161 509.006ZM159.161 511.423C158.127 511.431 157.269 511.497 156.585 511.619C155.91 511.741 155.397 511.928 155.047 512.18C154.705 512.432 154.538 512.75 154.546 513.132C154.538 513.515 154.705 513.832 155.047 514.084C155.397 514.329 155.91 514.516 156.585 514.646C157.26 514.768 158.119 514.829 159.161 514.829C160.178 514.829 161.024 514.768 161.7 514.646C162.383 514.516 162.896 514.329 163.238 514.084C163.588 513.832 163.763 513.515 163.763 513.132C163.763 512.75 163.592 512.432 163.25 512.18C162.908 511.928 162.396 511.741 161.712 511.619C161.028 511.497 160.178 511.431 159.161 511.423ZM159.795 497.849C159.787 498.98 159.441 500.01 158.758 500.938C158.082 501.857 157.081 502.63 155.755 503.257C154.437 503.875 152.846 504.27 150.982 504.441L149.957 502.012C151.486 501.865 152.789 501.58 153.863 501.157C154.937 500.726 155.735 500.225 156.255 499.656C156.776 499.078 157.041 498.476 157.049 497.849V497.251H159.795V497.849ZM161.309 497.849C161.309 498.476 161.569 499.078 162.09 499.656C162.619 500.225 163.421 500.726 164.495 501.157C165.569 501.58 166.892 501.865 168.462 502.012L167.364 504.441C165.508 504.27 163.917 503.879 162.591 503.269C161.264 502.651 160.255 501.877 159.563 500.95C158.872 500.014 158.522 498.98 158.514 497.849V497.251H161.309V497.849ZM167.498 498.545H150.896V496.055H167.498V498.545ZM178.167 498.215C178.167 499.729 177.939 501.133 177.483 502.427C177.036 503.721 176.352 504.848 175.433 505.808C174.513 506.76 173.374 507.468 172.015 507.932L170.342 505.491C171.53 505.084 172.519 504.51 173.309 503.77C174.098 503.021 174.68 502.174 175.054 501.23C175.429 500.286 175.62 499.281 175.628 498.215V496.201H178.167V498.215ZM178.753 498.521C178.753 499.456 178.936 500.339 179.302 501.169C179.677 502 180.242 502.74 180.999 503.391C181.764 504.034 182.712 504.535 183.843 504.893L182.183 507.31C180.881 506.878 179.786 506.231 178.899 505.369C178.012 504.498 177.345 503.481 176.897 502.317C176.45 501.153 176.23 499.888 176.238 498.521V496.201H178.753V498.521ZM188.287 508.201H185.174V495.005H188.287V508.201ZM191.29 502.817H187.408V500.217H191.29V502.817ZM180.999 508.652C182.529 508.652 183.855 508.823 184.979 509.165C186.11 509.499 186.976 509.991 187.579 510.642C188.189 511.285 188.494 512.05 188.494 512.937C188.494 513.84 188.189 514.613 187.579 515.256C186.976 515.899 186.11 516.392 184.979 516.733C183.855 517.075 182.529 517.246 180.999 517.246C179.445 517.246 178.094 517.075 176.946 516.733C175.807 516.392 174.928 515.899 174.31 515.256C173.691 514.613 173.382 513.84 173.382 512.937C173.382 512.05 173.691 511.285 174.31 510.642C174.928 509.991 175.807 509.499 176.946 509.165C178.094 508.823 179.445 508.652 180.999 508.652ZM180.999 511.094C180.031 511.086 179.213 511.155 178.545 511.301C177.878 511.44 177.369 511.647 177.02 511.924C176.678 512.201 176.511 512.538 176.519 512.937C176.511 513.352 176.678 513.698 177.02 513.975C177.361 514.251 177.862 514.459 178.521 514.597C179.188 514.736 180.014 514.805 180.999 514.805C181.967 514.805 182.781 514.736 183.44 514.597C184.1 514.459 184.596 514.251 184.93 513.975C185.263 513.698 185.43 513.352 185.43 512.937C185.43 512.538 185.259 512.201 184.917 511.924C184.584 511.639 184.087 511.427 183.428 511.289C182.769 511.151 181.959 511.086 180.999 511.094ZM210.87 517.307H207.708V495.005H210.87V517.307ZM198.797 496.58C199.912 496.58 200.913 496.905 201.8 497.556C202.695 498.199 203.391 499.123 203.887 500.327C204.392 501.523 204.644 502.915 204.644 504.502C204.644 506.097 204.392 507.497 203.887 508.701C203.391 509.897 202.695 510.817 201.8 511.46C200.913 512.103 199.912 512.424 198.797 512.424C197.666 512.432 196.653 512.115 195.757 511.472C194.87 510.821 194.174 509.897 193.67 508.701C193.165 507.497 192.913 506.097 192.913 504.502C192.913 502.915 193.165 501.523 193.67 500.327C194.174 499.123 194.87 498.199 195.757 497.556C196.653 496.905 197.666 496.58 198.797 496.58ZM198.797 499.399C198.219 499.391 197.71 499.587 197.271 499.985C196.84 500.376 196.506 500.958 196.27 501.731C196.042 502.496 195.932 503.42 195.94 504.502C195.932 505.584 196.042 506.508 196.27 507.273C196.506 508.038 196.84 508.62 197.271 509.019C197.71 509.409 198.219 509.604 198.797 509.604C199.358 509.604 199.855 509.409 200.286 509.019C200.717 508.62 201.051 508.038 201.287 507.273C201.523 506.508 201.641 505.584 201.641 504.502C201.641 503.42 201.523 502.496 201.287 501.731C201.051 500.966 200.717 500.384 200.286 499.985C199.855 499.587 199.358 499.391 198.797 499.399ZM234.539 505.991H230.596V503.44H234.539V505.991ZM231.402 517.209H228.277V495.005H231.402V517.209ZM217.693 510.947H214.581V497.141H217.693V510.947ZM216.509 509.214C218.21 509.214 219.911 509.141 221.612 508.994C223.321 508.84 225.042 508.587 226.775 508.237L227.117 510.825C225.384 511.183 223.642 511.431 221.893 511.57C220.143 511.708 218.348 511.777 216.509 511.777H214.581V509.214H216.509ZM259.832 506.431H256.744V495.005H259.832V506.431ZM259.856 513.242H248.052V515.623H245.013V511.021H256.756V509.666H244.964V507.31H259.856V513.242ZM260.467 517.087H245.013V514.695H260.467V517.087ZM249.31 498.032C249.301 499.367 249.053 500.612 248.565 501.768C248.077 502.923 247.344 503.932 246.368 504.795C245.391 505.649 244.199 506.276 242.791 506.675L241.375 504.221C242.555 503.888 243.548 503.399 244.354 502.756C245.167 502.105 245.77 501.377 246.16 500.571C246.559 499.757 246.758 498.911 246.758 498.032V497.104H249.31V498.032ZM249.92 498.032C249.92 498.862 250.115 499.656 250.506 500.413C250.896 501.169 251.491 501.849 252.288 502.451C253.086 503.045 254.07 503.497 255.242 503.806L253.765 506.223C252.382 505.841 251.218 505.247 250.274 504.441C249.33 503.627 248.618 502.671 248.138 501.572C247.666 500.474 247.434 499.294 247.442 498.032V497.104H249.92V498.032ZM254.4 498.533H242.181V496.055H254.4V498.533ZM279.18 500.754H273.65V498.313H279.18V500.754ZM279.18 505.332H273.65V502.842H279.18V505.332ZM266.949 499.375H271.319V496.384H274.407V507.029H263.812V496.384H266.949V499.375ZM271.319 504.6V501.768H266.949V504.6H271.319ZM281.597 508.311H278.497V495.005H281.597V508.311ZM274.004 508.677C275.583 508.685 276.946 508.86 278.094 509.202C279.249 509.535 280.132 510.028 280.743 510.679C281.353 511.322 281.662 512.095 281.67 512.998C281.662 513.885 281.349 514.646 280.73 515.281C280.12 515.924 279.241 516.412 278.094 516.746C276.946 517.079 275.583 517.246 274.004 517.246C272.434 517.246 271.075 517.079 269.927 516.746C268.788 516.412 267.909 515.924 267.291 515.281C266.68 514.646 266.375 513.885 266.375 512.998C266.375 512.095 266.68 511.322 267.291 510.679C267.909 510.028 268.788 509.535 269.927 509.202C271.075 508.86 272.434 508.685 274.004 508.677ZM274.004 511.069C273.012 511.061 272.181 511.13 271.514 511.277C270.847 511.415 270.338 511.627 269.988 511.912C269.638 512.196 269.463 512.559 269.463 512.998C269.463 513.405 269.638 513.751 269.988 514.036C270.338 514.312 270.847 514.52 271.514 514.658C272.181 514.797 273.012 514.87 274.004 514.878C274.997 514.87 275.831 514.797 276.507 514.658C277.19 514.52 277.703 514.312 278.045 514.036C278.387 513.751 278.558 513.405 278.558 512.998C278.558 512.559 278.387 512.196 278.045 511.912C277.703 511.627 277.194 511.415 276.519 511.277C275.844 511.13 275.005 511.061 274.004 511.069Z" fill="#01A4FC"/>
<path d="M297.161 505.735H293.45V503.245H297.161V505.735ZM303.741 517.246H300.75V495.005H303.741V517.246ZM299.114 516.221H296.172V495.347H299.114V516.221ZM289.507 496.604C290.484 496.604 291.342 496.93 292.083 497.581C292.832 498.232 293.405 499.163 293.804 500.376C294.211 501.589 294.415 503.013 294.415 504.648C294.415 506.292 294.211 507.725 293.804 508.945C293.405 510.158 292.832 511.094 292.083 511.753C291.342 512.404 290.484 512.729 289.507 512.729C288.531 512.729 287.68 512.404 286.956 511.753C286.232 511.094 285.666 510.158 285.259 508.945C284.861 507.725 284.661 506.292 284.661 504.648C284.661 503.013 284.861 501.589 285.259 500.376C285.666 499.163 286.232 498.232 286.956 497.581C287.68 496.93 288.531 496.604 289.507 496.604ZM289.507 499.558C289.084 499.558 288.726 499.745 288.433 500.12C288.14 500.494 287.916 501.064 287.762 501.829C287.607 502.585 287.534 503.525 287.542 504.648C287.534 505.771 287.607 506.715 287.762 507.48C287.916 508.237 288.14 508.803 288.433 509.177C288.734 509.552 289.092 509.739 289.507 509.739C289.939 509.739 290.305 509.552 290.606 509.177C290.915 508.803 291.147 508.237 291.302 507.48C291.465 506.724 291.546 505.78 291.546 504.648C291.546 503.525 291.465 502.585 291.302 501.829C291.147 501.064 290.915 500.494 290.606 500.12C290.305 499.745 289.939 499.558 289.507 499.558ZM121.514 552.246H118.584V530.005H121.514V552.246ZM119.292 541.101H115.521V538.611H119.292V541.101ZM116.436 551.172H113.58V530.408H116.436V551.172ZM104.498 544.617C106.125 544.617 107.521 544.58 108.685 544.507C109.848 544.434 111.045 544.287 112.273 544.067L112.493 546.594C111.256 546.838 110.04 547.001 108.843 547.083C107.655 547.156 106.207 547.201 104.498 547.217H102.935V544.617H104.498ZM111.236 535.107H106.06V545.874H102.935V532.605H111.236V535.107ZM134.637 535.889H123.882V533.411H134.637V535.889ZM129.302 536.89C130.238 536.89 131.076 537.113 131.817 537.561C132.566 538.009 133.147 538.635 133.562 539.441C133.978 540.238 134.185 541.146 134.185 542.163C134.185 543.188 133.978 544.1 133.562 544.897C133.147 545.695 132.566 546.326 131.817 546.79C131.076 547.245 130.238 547.473 129.302 547.473C128.375 547.473 127.536 547.245 126.788 546.79C126.039 546.326 125.457 545.695 125.042 544.897C124.627 544.092 124.419 543.18 124.419 542.163C124.419 541.154 124.627 540.251 125.042 539.453C125.465 538.647 126.047 538.021 126.788 537.573C127.536 537.118 128.375 536.89 129.302 536.89ZM129.302 539.478C128.871 539.478 128.493 539.583 128.167 539.795C127.85 540.007 127.601 540.316 127.422 540.723C127.243 541.13 127.158 541.61 127.166 542.163C127.158 542.716 127.243 543.193 127.422 543.591C127.601 543.99 127.85 544.295 128.167 544.507C128.493 544.718 128.867 544.824 129.29 544.824C129.721 544.824 130.1 544.718 130.425 544.507C130.751 544.295 131.003 543.99 131.182 543.591C131.369 543.193 131.463 542.716 131.463 542.163C131.463 541.61 131.369 541.13 131.182 540.723C131.003 540.316 130.747 540.007 130.413 539.795C130.088 539.583 129.717 539.478 129.302 539.478ZM143.133 552.246H140.167V530.005H143.133V552.246ZM141.155 541.553H137.42V539.075H141.155V541.553ZM138.372 551.294H135.455V530.469H138.372V551.294ZM130.828 534.973H127.764V530.64H130.828V534.973ZM169.878 541.431H166.79V530.005H169.878V541.431ZM169.903 548.242H158.099V550.623H155.059V546.021H166.802V544.666H155.01V542.31H169.903V548.242ZM170.513 552.087H155.059V549.695H170.513V552.087ZM159.356 533.032C159.348 534.367 159.1 535.612 158.611 536.768C158.123 537.923 157.391 538.932 156.414 539.795C155.438 540.649 154.245 541.276 152.837 541.675L151.421 539.221C152.601 538.888 153.594 538.399 154.4 537.756C155.214 537.105 155.816 536.377 156.207 535.571C156.605 534.757 156.805 533.911 156.805 533.032V532.104H159.356V533.032ZM159.966 533.032C159.966 533.862 160.162 534.656 160.552 535.413C160.943 536.169 161.537 536.849 162.334 537.451C163.132 538.045 164.117 538.497 165.289 538.806L163.812 541.223C162.428 540.841 161.264 540.247 160.32 539.441C159.376 538.627 158.664 537.671 158.184 536.572C157.712 535.474 157.48 534.294 157.488 533.032V532.104H159.966V533.032ZM164.446 533.533H152.227V531.055H164.446V533.533ZM193.218 543.494H172.906V541.003H193.218V543.494ZM184.869 547.327H181.792V542.566H184.869V547.327ZM190.63 539.185H175.433V531.006H190.63V539.185ZM178.484 536.755H187.566V533.411H178.484V536.755ZM190.984 551.868H175.274V549.353H190.984V551.868ZM178.399 550.183H175.274V545.386H178.399V550.183ZM205.242 535.889H194.488V533.411H205.242V535.889ZM199.908 536.89C200.844 536.89 201.682 537.113 202.422 537.561C203.171 538.009 203.753 538.635 204.168 539.441C204.583 540.238 204.791 541.146 204.791 542.163C204.791 543.188 204.583 544.1 204.168 544.897C203.753 545.695 203.171 546.326 202.422 546.79C201.682 547.245 200.844 547.473 199.908 547.473C198.98 547.473 198.142 547.245 197.393 546.79C196.644 546.326 196.062 545.695 195.647 544.897C195.232 544.092 195.025 543.18 195.025 542.163C195.025 541.154 195.232 540.251 195.647 539.453C196.071 538.647 196.653 538.021 197.393 537.573C198.142 537.118 198.98 536.89 199.908 536.89ZM199.908 539.478C199.476 539.478 199.098 539.583 198.772 539.795C198.455 540.007 198.207 540.316 198.028 540.723C197.849 541.13 197.763 541.61 197.771 542.163C197.763 542.716 197.849 543.193 198.028 543.591C198.207 543.99 198.455 544.295 198.772 544.507C199.098 544.718 199.472 544.824 199.896 544.824C200.327 544.824 200.705 544.718 201.031 544.507C201.356 544.295 201.609 543.99 201.788 543.591C201.975 543.193 202.068 542.716 202.068 542.163C202.068 541.61 201.975 541.13 201.788 540.723C201.609 540.316 201.352 540.007 201.019 539.795C200.693 539.583 200.323 539.478 199.908 539.478ZM213.738 552.246H210.772V530.005H213.738V552.246ZM211.761 541.553H208.025V539.075H211.761V541.553ZM208.978 551.294H206.06V530.469H208.978V551.294ZM201.434 534.973H198.37V530.64H201.434V534.973ZM227.178 533.167C227.178 534.485 226.824 535.689 226.116 536.78C225.416 537.862 224.395 538.774 223.052 539.514C221.709 540.247 220.118 540.739 218.279 540.991L217.12 538.562C218.674 538.375 220.005 538.005 221.111 537.451C222.226 536.89 223.064 536.239 223.626 535.498C224.188 534.749 224.468 533.972 224.468 533.167V532.495H227.178V533.167ZM228.069 533.167C228.069 533.972 228.346 534.749 228.899 535.498C229.461 536.239 230.295 536.89 231.402 537.451C232.517 538.005 233.864 538.375 235.442 538.562L234.319 540.991C232.464 540.739 230.861 540.247 229.51 539.514C228.159 538.774 227.129 537.862 226.421 536.78C225.713 535.689 225.359 534.485 225.359 533.167V532.495H228.069V533.167ZM227.752 552.258H224.664V544.067H227.752V552.258ZM236.407 544.775H216.143V542.297H236.407V544.775ZM234.576 533.63H217.962V531.201H234.576V533.63ZM250.347 540.076H246.563V537.524H250.347V540.076ZM244.231 535.767C244.231 537.508 244.052 539.156 243.694 540.71C243.344 542.257 242.795 543.652 242.046 544.897C241.306 546.134 240.366 547.099 239.227 547.791L237.322 545.471C238.372 544.828 239.235 543.994 239.91 542.969C240.586 541.935 241.074 540.812 241.375 539.6C241.684 538.387 241.839 537.109 241.839 535.767V531.934H244.231V535.767ZM244.854 535.62C244.854 536.938 244.984 538.171 245.245 539.319C245.505 540.458 245.936 541.516 246.539 542.493C247.141 543.461 247.926 544.259 248.895 544.885L247.21 547.278C246.079 546.594 245.163 545.65 244.463 544.446C243.764 543.241 243.263 541.903 242.962 540.43C242.661 538.949 242.514 537.345 242.522 535.62V531.934H244.854V535.62ZM257 552.246H254.009V530.005H257V552.246ZM252.349 551.221H249.432V530.347H252.349V551.221ZM266.973 547.571H263.885V541.333H266.973V547.571ZM275.152 547.571H272.015V541.333H275.152V547.571ZM279.668 549.646H259.356V547.095H279.668V549.646ZM269.476 531.104C271.079 531.104 272.511 531.352 273.772 531.848C275.042 532.345 276.035 533.044 276.751 533.948C277.475 534.851 277.837 535.889 277.837 537.061C277.837 538.249 277.479 539.29 276.763 540.186C276.047 541.081 275.054 541.777 273.785 542.273C272.515 542.769 271.079 543.018 269.476 543.018C267.872 543.018 266.436 542.769 265.167 542.273C263.905 541.777 262.916 541.081 262.2 540.186C261.484 539.29 261.126 538.249 261.126 537.061C261.126 535.889 261.484 534.851 262.2 533.948C262.916 533.044 263.905 532.345 265.167 531.848C266.436 531.352 267.872 531.104 269.476 531.104ZM269.476 533.569C268.41 533.561 267.482 533.695 266.692 533.972C265.903 534.249 265.289 534.652 264.849 535.181C264.418 535.71 264.202 536.336 264.202 537.061C264.202 537.785 264.418 538.416 264.849 538.953C265.289 539.482 265.903 539.889 266.692 540.173C267.49 540.458 268.418 540.605 269.476 540.613C270.525 540.605 271.449 540.458 272.247 540.173C273.044 539.88 273.663 539.469 274.102 538.94C274.542 538.411 274.761 537.785 274.761 537.061C274.761 536.336 274.542 535.71 274.102 535.181C273.663 534.652 273.044 534.249 272.247 533.972C271.449 533.695 270.525 533.561 269.476 533.569ZM283.819 550.22C283.453 550.22 283.111 550.13 282.793 549.951C282.476 549.764 282.224 549.512 282.037 549.194C281.858 548.877 281.772 548.531 281.78 548.157C281.772 547.791 281.858 547.453 282.037 547.144C282.224 546.834 282.476 546.59 282.793 546.411C283.111 546.232 283.453 546.143 283.819 546.143C284.177 546.143 284.515 546.232 284.832 546.411C285.149 546.59 285.398 546.838 285.577 547.156C285.764 547.465 285.861 547.799 285.87 548.157C285.861 548.531 285.764 548.877 285.577 549.194C285.398 549.512 285.149 549.764 284.832 549.951C284.515 550.13 284.177 550.22 283.819 550.22Z" fill="#1E1E1E"/>
<path d="M68.0291 580.394H60.9734V579.613H68.0291V580.394ZM69.6526 584.276H59.7161V583.495H69.6526V584.276ZM65.1238 586.302H64.1838V584.044H65.1238V586.302ZM68.3464 580.382C68.3464 581.013 68.3261 581.586 68.2854 582.103C68.2447 582.62 68.1471 583.202 67.9924 583.849L67.0525 583.739C67.1583 583.303 67.2356 582.894 67.2844 582.512C67.3333 582.125 67.3638 581.786 67.376 581.493C67.3882 581.196 67.3943 580.85 67.3943 580.455V580.382V579.613H68.3464V580.382ZM64.6599 585.973C65.4412 585.973 66.1166 586.05 66.6863 586.205C67.2559 586.359 67.6913 586.587 67.9924 586.888C68.2935 587.185 68.4441 587.543 68.4441 587.962C68.4441 588.386 68.2935 588.748 67.9924 589.049C67.6913 589.35 67.2559 589.578 66.6863 589.732C66.1166 589.887 65.4412 589.964 64.6599 589.964C63.8665 589.964 63.1849 589.887 62.6152 589.732C62.0496 589.578 61.6143 589.35 61.3091 589.049C61.0039 588.752 60.8513 588.39 60.8513 587.962C60.8513 587.543 61.0039 587.185 61.3091 586.888C61.6143 586.587 62.0517 586.359 62.6213 586.205C63.191 586.05 63.8705 585.973 64.6599 585.973ZM64.6599 586.742C64.0699 586.746 63.5613 586.797 63.134 586.894C62.7109 586.988 62.3853 587.126 62.1575 587.309C61.9337 587.492 61.8238 587.71 61.8279 587.962C61.8238 588.219 61.9337 588.441 62.1575 588.628C62.3853 588.811 62.7109 588.951 63.134 589.049C63.5613 589.146 64.0699 589.195 64.6599 589.195C65.2377 589.195 65.7382 589.146 66.1614 589.049C66.5846 588.951 66.908 588.811 67.1318 588.628C67.3597 588.441 67.4757 588.219 67.4797 587.962C67.4757 587.71 67.3597 587.492 67.1318 587.309C66.908 587.126 66.5846 586.988 66.1614 586.894C65.7382 586.797 65.2377 586.746 64.6599 586.742ZM78.8323 580.516H71.7766V579.723H78.8323V580.516ZM80.4558 584.508H70.5193V583.714H80.4558V584.508ZM79.1497 580.528C79.1497 581.159 79.1293 581.733 79.0886 582.25C79.0479 582.762 78.9503 583.352 78.7957 584.02L77.8435 583.958C77.9534 583.511 78.0327 583.09 78.0815 582.695C78.1344 582.3 78.167 581.955 78.1792 581.657C78.1914 581.356 78.1975 581.004 78.1975 580.602V580.528V579.723H79.1497V580.528ZM79.1985 589.842H71.74V586.009H79.1985V589.842ZM72.6921 589.061H78.2463V586.766H72.6921V589.061ZM89.8064 587.279H88.8542V579.149H89.8064V587.279ZM91.4421 583.531H89.5012V582.726H91.4421V583.531ZM87.8167 581.261H81.3469V580.479H87.8167V581.261ZM84.5818 581.859C85.0945 581.859 85.5482 581.942 85.9429 582.109C86.3376 582.276 86.6427 582.512 86.8584 582.817C87.0781 583.122 87.19 583.478 87.1941 583.885C87.19 584.288 87.0781 584.642 86.8584 584.947C86.6427 585.248 86.3376 585.48 85.9429 585.643C85.5482 585.806 85.0945 585.887 84.5818 585.887C84.061 585.887 83.6032 585.806 83.2085 585.643C82.8138 585.48 82.5086 585.248 82.293 584.947C82.0773 584.642 81.9695 584.288 81.9695 583.885C81.9695 583.478 82.0773 583.122 82.293 582.817C82.5086 582.512 82.8138 582.276 83.2085 582.109C83.6032 581.942 84.061 581.859 84.5818 581.859ZM84.5818 582.616C84.2441 582.616 83.945 582.667 83.6846 582.768C83.4282 582.87 83.2309 583.019 83.0925 583.214C82.9542 583.405 82.885 583.629 82.885 583.885C82.885 584.138 82.9542 584.357 83.0925 584.544C83.2309 584.732 83.4282 584.878 83.6846 584.984C83.945 585.086 84.2441 585.134 84.5818 585.13C84.9154 585.134 85.2125 585.086 85.4729 584.984C85.7333 584.878 85.9327 584.732 86.071 584.544C86.2135 584.357 86.2867 584.138 86.2908 583.885C86.2867 583.629 86.2135 583.405 86.071 583.214C85.9327 583.019 85.7333 582.87 85.4729 582.768C85.2125 582.667 84.9154 582.616 84.5818 582.616ZM85.0579 580.882H84.1057V579.149H85.0579V580.882ZM90.3069 589.757H83.0193V588.951H90.3069V589.757ZM83.9592 589.281H83.0193V586.632H83.9592V589.281ZM105.151 585.094H95.2629V584.3H105.151V585.094ZM100.207 586.046C100.98 586.046 101.645 586.123 102.203 586.278C102.76 586.432 103.187 586.658 103.484 586.955C103.785 587.248 103.938 587.6 103.942 588.011C103.938 588.426 103.788 588.78 103.49 589.073C103.198 589.366 102.77 589.588 102.209 589.739C101.647 589.889 100.98 589.964 100.207 589.964C99.4255 589.964 98.7542 589.889 98.1926 589.739C97.6311 589.588 97.2018 589.366 96.9048 589.073C96.6077 588.78 96.4592 588.426 96.4592 588.011C96.4592 587.6 96.6077 587.248 96.9048 586.955C97.2018 586.658 97.6311 586.432 98.1926 586.278C98.7582 586.123 99.4296 586.046 100.207 586.046ZM100.207 586.803C99.629 586.807 99.1326 586.858 98.7175 586.955C98.3025 587.049 97.9831 587.185 97.7593 587.364C97.5396 587.543 97.4317 587.759 97.4358 588.011C97.4317 588.259 97.5396 588.473 97.7593 588.652C97.9831 588.827 98.3025 588.961 98.7175 589.055C99.1326 589.149 99.629 589.195 100.207 589.195C100.781 589.195 101.273 589.149 101.684 589.055C102.099 588.961 102.418 588.827 102.642 588.652C102.866 588.473 102.978 588.259 102.978 588.011C102.978 587.759 102.868 587.543 102.648 587.364C102.428 587.185 102.109 587.049 101.69 586.955C101.275 586.858 100.781 586.807 100.207 586.803ZM100.439 580.443C100.439 581.004 100.243 581.511 99.8528 581.963C99.4622 582.414 98.9413 582.785 98.2903 583.073C97.6392 583.362 96.9312 583.556 96.1663 583.653L95.8245 582.884C96.4755 582.811 97.0899 582.658 97.6677 582.427C98.2455 582.195 98.7094 581.908 99.0593 581.566C99.4093 581.224 99.5842 580.85 99.5842 580.443V580.113H100.439V580.443ZM100.829 580.443C100.829 580.846 101.004 581.22 101.354 581.566C101.704 581.908 102.168 582.195 102.746 582.427C103.324 582.658 103.942 582.811 104.601 582.884L104.247 583.653C103.486 583.556 102.78 583.362 102.129 583.073C101.482 582.785 100.962 582.414 100.567 581.963C100.172 581.511 99.9749 581.004 99.9749 580.443V580.113H100.829V580.443ZM104.272 580.492H96.1663V579.698H104.272V580.492ZM109.545 580.821C109.545 581.509 109.421 582.154 109.173 582.756C108.925 583.354 108.573 583.875 108.117 584.319C107.665 584.758 107.14 585.094 106.542 585.326L106.03 584.557C106.567 584.357 107.041 584.07 107.452 583.696C107.863 583.318 108.182 582.882 108.41 582.39C108.638 581.898 108.752 581.375 108.752 580.821V579.698H109.545V580.821ZM109.692 580.895C109.692 581.379 109.808 581.847 110.04 582.298C110.271 582.746 110.591 583.141 110.998 583.482C111.405 583.824 111.869 584.085 112.389 584.264L111.865 585.021C111.287 584.809 110.776 584.498 110.333 584.087C109.889 583.676 109.541 583.196 109.289 582.646C109.037 582.097 108.91 581.513 108.91 580.895V579.698H109.692V580.895ZM114.55 585.741H113.598V579.137H114.55V585.741ZM116.186 582.774H114.281V581.969H116.186V582.774ZM111.071 586.021C111.812 586.021 112.45 586.099 112.988 586.253C113.525 586.408 113.936 586.634 114.22 586.931C114.505 587.224 114.648 587.576 114.648 587.987C114.648 588.406 114.505 588.762 114.22 589.055C113.936 589.352 113.525 589.578 112.988 589.732C112.45 589.887 111.812 589.964 111.071 589.964C110.326 589.964 109.684 589.887 109.142 589.732C108.605 589.578 108.192 589.352 107.903 589.055C107.614 588.758 107.47 588.402 107.47 587.987C107.47 587.576 107.614 587.224 107.903 586.931C108.192 586.634 108.607 586.408 109.148 586.253C109.69 586.099 110.33 586.021 111.071 586.021ZM111.071 586.791C110.53 586.791 110.06 586.839 109.661 586.937C109.266 587.035 108.961 587.173 108.746 587.352C108.534 587.531 108.43 587.743 108.434 587.987C108.43 588.239 108.534 588.457 108.746 588.64C108.961 588.823 109.266 588.963 109.661 589.061C110.056 589.159 110.526 589.208 111.071 589.208C111.616 589.208 112.088 589.159 112.487 589.061C112.886 588.963 113.191 588.823 113.403 588.64C113.614 588.457 113.72 588.239 113.72 587.987C113.72 587.743 113.614 587.529 113.403 587.346C113.191 587.163 112.884 587.024 112.481 586.931C112.082 586.837 111.612 586.791 111.071 586.791ZM125.817 590.013H124.853V579.137H125.817V590.013ZM120.043 579.979C120.58 579.979 121.058 580.134 121.478 580.443C121.897 580.752 122.224 581.194 122.46 581.767C122.696 582.341 122.814 583.006 122.814 583.763C122.814 584.52 122.696 585.183 122.46 585.753C122.224 586.323 121.897 586.762 121.478 587.071C121.058 587.381 120.58 587.535 120.043 587.535C119.506 587.535 119.028 587.381 118.609 587.071C118.19 586.762 117.862 586.323 117.626 585.753C117.39 585.183 117.272 584.52 117.272 583.763C117.272 583.006 117.39 582.341 117.626 581.767C117.862 581.194 118.19 580.752 118.609 580.443C119.028 580.134 119.506 579.979 120.043 579.979ZM120.043 580.833C119.685 580.833 119.366 580.956 119.085 581.2C118.804 581.444 118.587 581.788 118.432 582.231C118.277 582.675 118.2 583.185 118.2 583.763C118.2 584.345 118.277 584.858 118.432 585.301C118.587 585.741 118.804 586.08 119.085 586.321C119.366 586.561 119.685 586.681 120.043 586.681C120.405 586.681 120.725 586.561 121.001 586.321C121.282 586.08 121.5 585.741 121.655 585.301C121.809 584.858 121.886 584.345 121.886 583.763C121.886 583.181 121.809 582.671 121.655 582.231C121.5 581.788 121.282 581.444 121.001 581.2C120.725 580.956 120.405 580.833 120.043 580.833ZM137.829 584.276H135.827V583.47H137.829V584.276ZM136.071 589.989H135.119V579.137H136.071V589.989ZM129.076 586.925H128.124V580.211H129.076V586.925ZM128.991 586.424C129.85 586.428 130.694 586.392 131.524 586.314C132.354 586.237 133.202 586.107 134.069 585.924L134.191 586.742C133.308 586.921 132.444 587.047 131.597 587.12C130.751 587.193 129.882 587.23 128.991 587.23H128.124V586.424H128.991ZM150.561 584.776H149.621V579.137H150.561V584.776ZM150.573 587.889H144.482V589.452H143.542V587.169H149.621V586.058H143.517V585.301H150.573V587.889ZM150.964 589.867H143.542V589.098H150.964V589.867ZM145.336 580.675C145.336 581.306 145.206 581.896 144.946 582.445C144.685 582.99 144.319 583.466 143.847 583.873C143.375 584.276 142.834 584.581 142.223 584.789L141.772 584.032C142.309 583.853 142.789 583.592 143.212 583.25C143.635 582.909 143.965 582.516 144.201 582.073C144.437 581.629 144.555 581.163 144.555 580.675V580.089H145.336V580.675ZM145.519 580.675C145.519 581.139 145.639 581.58 145.879 581.999C146.119 582.418 146.449 582.787 146.868 583.104C147.291 583.417 147.774 583.653 148.315 583.812L147.839 584.557C147.232 584.365 146.695 584.081 146.227 583.702C145.763 583.32 145.399 582.87 145.135 582.353C144.874 581.832 144.746 581.273 144.75 580.675V580.089H145.519V580.675ZM148.022 580.553H142.016V579.759H148.022V580.553ZM160.717 581.7H157.592V580.919H160.717V581.7ZM160.717 583.946H157.592V583.153H160.717V583.946ZM153.918 581.554H156.945V579.808H157.885V584.911H152.966V579.808H153.918V581.554ZM156.945 584.129V582.323H153.918V584.129H156.945ZM161.413 585.716H160.448V579.137H161.413V585.716ZM157.812 585.924C158.56 585.928 159.209 586.011 159.759 586.174C160.308 586.333 160.727 586.565 161.016 586.87C161.305 587.171 161.449 587.535 161.449 587.962C161.449 588.382 161.303 588.74 161.01 589.037C160.717 589.338 160.298 589.568 159.753 589.726C159.207 589.885 158.56 589.964 157.812 589.964C157.059 589.964 156.41 589.885 155.865 589.726C155.324 589.568 154.906 589.338 154.614 589.037C154.321 588.74 154.174 588.382 154.174 587.962C154.174 587.535 154.321 587.171 154.614 586.87C154.906 586.565 155.324 586.333 155.865 586.174C156.41 586.011 157.059 585.928 157.812 585.924ZM157.812 586.681C157.258 586.681 156.78 586.732 156.377 586.833C155.975 586.935 155.665 587.081 155.45 587.273C155.234 587.464 155.126 587.694 155.126 587.962C155.126 588.219 155.234 588.441 155.45 588.628C155.665 588.811 155.975 588.953 156.377 589.055C156.78 589.157 157.258 589.208 157.812 589.208C158.361 589.208 158.837 589.157 159.24 589.055C159.647 588.953 159.958 588.811 160.174 588.628C160.389 588.441 160.497 588.219 160.497 587.962C160.497 587.694 160.389 587.464 160.174 587.273C159.958 587.081 159.649 586.935 159.246 586.833C158.843 586.732 158.365 586.681 157.812 586.681ZM172.167 590.013H171.203V579.137H172.167V590.013ZM166.393 579.979C166.93 579.979 167.409 580.134 167.828 580.443C168.247 580.752 168.574 581.194 168.81 581.767C169.046 582.341 169.164 583.006 169.164 583.763C169.164 584.52 169.046 585.183 168.81 585.753C168.574 586.323 168.247 586.762 167.828 587.071C167.409 587.381 166.93 587.535 166.393 587.535C165.856 587.535 165.378 587.381 164.959 587.071C164.54 586.762 164.212 586.323 163.976 585.753C163.74 585.183 163.622 584.52 163.622 583.763C163.622 583.006 163.74 582.341 163.976 581.767C164.212 581.194 164.54 580.752 164.959 580.443C165.378 580.134 165.856 579.979 166.393 579.979ZM166.393 580.833C166.035 580.833 165.716 580.956 165.435 581.2C165.154 581.444 164.937 581.788 164.782 582.231C164.627 582.675 164.55 583.185 164.55 583.763C164.55 584.345 164.627 584.858 164.782 585.301C164.937 585.741 165.154 586.08 165.435 586.321C165.716 586.561 166.035 586.681 166.393 586.681C166.755 586.681 167.075 586.561 167.352 586.321C167.632 586.08 167.85 585.741 168.005 585.301C168.159 584.858 168.237 584.345 168.237 583.763C168.237 583.181 168.159 582.671 168.005 582.231C167.85 581.788 167.632 581.444 167.352 581.2C167.075 580.956 166.755 580.833 166.393 580.833ZM180.663 586.424C180.659 586.896 180.558 587.358 180.358 587.81C180.163 588.261 179.878 588.664 179.504 589.018C179.133 589.376 178.694 589.651 178.185 589.842L177.697 589.134C178.141 588.967 178.529 588.74 178.863 588.451C179.201 588.158 179.457 587.834 179.632 587.48C179.811 587.126 179.902 586.774 179.906 586.424V585.826H180.663V586.424ZM180.834 586.424C180.83 586.795 180.903 587.159 181.054 587.517C181.209 587.871 181.434 588.196 181.731 588.493C182.028 588.79 182.389 589.024 182.812 589.195L182.409 589.928C181.9 589.736 181.473 589.456 181.127 589.085C180.785 588.719 180.531 588.306 180.364 587.846C180.201 587.387 180.122 586.913 180.126 586.424V585.826H180.834V586.424ZM184.679 586.424C184.675 586.864 184.588 587.313 184.417 587.773C184.25 588.233 183.994 588.656 183.648 589.043C183.306 589.429 182.893 589.724 182.409 589.928L181.994 589.195C182.405 589.008 182.759 588.758 183.056 588.445C183.357 588.131 183.583 587.798 183.733 587.444C183.888 587.086 183.963 586.746 183.959 586.424V585.826H184.679V586.424ZM184.899 586.424C184.895 586.799 184.981 587.163 185.156 587.517C185.335 587.871 185.591 588.19 185.925 588.475C186.258 588.756 186.653 588.976 187.109 589.134L186.633 589.842C186.112 589.659 185.664 589.393 185.29 589.043C184.915 588.697 184.631 588.298 184.435 587.846C184.24 587.395 184.142 586.921 184.142 586.424V585.826H184.899V586.424ZM186.12 585.35H185.168V579.149H186.12V585.35ZM180.26 579.784C180.806 579.784 181.294 579.889 181.725 580.101C182.157 580.313 182.494 580.612 182.739 580.998C182.983 581.385 183.105 581.826 183.105 582.323C183.105 582.811 182.983 583.246 182.739 583.629C182.494 584.011 182.157 584.308 181.725 584.52C181.294 584.732 180.806 584.837 180.26 584.837C179.715 584.837 179.227 584.732 178.796 584.52C178.364 584.308 178.027 584.011 177.782 583.629C177.538 583.246 177.416 582.811 177.416 582.323C177.416 581.826 177.538 581.385 177.782 580.998C178.027 580.612 178.364 580.313 178.796 580.101C179.227 579.889 179.715 579.784 180.26 579.784ZM180.26 580.602C179.894 580.597 179.567 580.669 179.278 580.815C178.989 580.958 178.761 581.161 178.594 581.426C178.431 581.69 178.352 581.989 178.356 582.323C178.352 582.652 178.431 582.947 178.594 583.208C178.761 583.464 178.987 583.668 179.272 583.818C179.561 583.969 179.89 584.044 180.26 584.044C180.627 584.044 180.954 583.969 181.243 583.818C181.532 583.668 181.758 583.464 181.921 583.208C182.083 582.947 182.165 582.652 182.165 582.323C182.165 581.989 182.083 581.69 181.921 581.426C181.758 581.161 181.53 580.958 181.237 580.815C180.948 580.669 180.623 580.597 180.26 580.602ZM196.362 590.013H195.409V579.137H196.362V590.013ZM198.18 584.239H196.142V583.434H198.18V584.239ZM189.294 586.485C190.36 586.481 191.273 586.453 192.034 586.4C192.795 586.343 193.57 586.241 194.36 586.095L194.482 586.925C193.676 587.071 192.887 587.169 192.114 587.218C191.344 587.267 190.405 587.291 189.294 587.291H188.439V586.485H189.294ZM193.505 580.992H189.391V586.852H188.439V580.199H193.505V580.992ZM207.092 581.859H204.015V581.053H207.092V581.859ZM207.116 584.178H204.015V583.385H207.116V584.178ZM204.26 585.155H199.279V580.089H204.26V585.155ZM200.231 584.386H203.32V580.882H200.231V584.386ZM207.763 587.071H206.799V579.149H207.763V587.071ZM208.007 589.757H200.744V588.951H208.007V589.757ZM201.708 589.305H200.744V586.363H201.708V589.305ZM221.166 582.958H218.151V582.164H221.166V582.958ZM221.703 587.145H220.739V579.149H221.703V587.145ZM222.009 589.757H214.733V588.951H222.009V589.757ZM215.698 589.281H214.733V586.327H215.698V589.281ZM215.698 579.845C216.222 579.845 216.696 579.959 217.12 580.187C217.547 580.414 217.883 580.732 218.127 581.139C218.375 581.542 218.501 582.001 218.505 582.518C218.501 583.031 218.375 583.491 218.127 583.897C217.883 584.304 217.547 584.624 217.12 584.856C216.696 585.088 216.222 585.204 215.698 585.204C215.16 585.204 214.678 585.088 214.251 584.856C213.824 584.624 213.488 584.306 213.244 583.904C213 583.497 212.878 583.035 212.878 582.518C212.878 582.001 213 581.542 213.244 581.139C213.488 580.732 213.824 580.414 214.251 580.187C214.678 579.959 215.16 579.845 215.698 579.845ZM215.698 580.687C215.335 580.687 215.01 580.764 214.721 580.919C214.436 581.074 214.21 581.291 214.043 581.572C213.877 581.849 213.793 582.164 213.793 582.518C213.793 582.872 213.877 583.189 214.043 583.47C214.21 583.747 214.436 583.967 214.721 584.129C215.01 584.288 215.335 584.369 215.698 584.374C216.052 584.369 216.371 584.288 216.656 584.129C216.945 583.967 217.17 583.747 217.333 583.47C217.496 583.189 217.577 582.872 217.577 582.518C217.577 582.168 217.496 581.853 217.333 581.572C217.17 581.291 216.945 581.074 216.656 580.919C216.371 580.764 216.052 580.687 215.698 580.687ZM232.787 589.989H231.872V579.137H232.787V589.989ZM229.98 583.836H227.856V583.055H229.98V583.836ZM230.59 589.427H229.687V579.405H230.59V589.427ZM226.525 582.237C226.521 583.019 226.415 583.773 226.208 584.502C226.004 585.23 225.711 585.885 225.329 586.467C224.95 587.045 224.503 587.494 223.986 587.816L223.376 587.096C223.868 586.803 224.295 586.4 224.657 585.887C225.024 585.375 225.3 584.803 225.488 584.172C225.679 583.541 225.772 582.896 225.768 582.237V580.821H226.525V582.237ZM226.696 582.237C226.696 582.868 226.79 583.482 226.977 584.081C227.164 584.675 227.433 585.216 227.782 585.704C228.132 586.188 228.552 586.571 229.04 586.852L228.454 587.56C227.933 587.246 227.487 586.817 227.117 586.272C226.747 585.722 226.462 585.102 226.263 584.41C226.067 583.714 225.972 582.99 225.976 582.237V580.821H226.696V582.237ZM228.686 581.212H223.681V580.418H228.686V581.212ZM244.213 585.399H234.313V584.618H244.213V585.399ZM243.078 583.421H235.571V582.628H243.078V583.421ZM242.98 580.394H236.523V582.896H235.571V579.613H242.98V580.394ZM243.163 589.745H235.595V588.939H243.163V589.745ZM236.547 589.159H235.595V586.571H236.547V589.159ZM248.827 582.469C248.827 583.218 248.685 583.956 248.4 584.685C248.115 585.413 247.733 586.06 247.253 586.626C246.777 587.191 246.256 587.617 245.69 587.901L245.116 587.145C245.633 586.896 246.113 586.522 246.557 586.021C247.004 585.517 247.363 584.951 247.631 584.325C247.9 583.698 248.034 583.08 248.034 582.469V580.675H248.827V582.469ZM248.998 582.469C248.998 583.067 249.133 583.663 249.401 584.258C249.67 584.848 250.028 585.375 250.475 585.838C250.923 586.302 251.411 586.648 251.94 586.876L251.403 587.633C250.813 587.364 250.276 586.965 249.792 586.437C249.312 585.908 248.929 585.299 248.644 584.612C248.364 583.92 248.225 583.206 248.229 582.469V580.675H248.998V582.469ZM251.586 581.053H245.47V580.26H251.586V581.053ZM254.064 589.989H253.1V579.137H254.064V589.989ZM268.005 584.776H267.065V579.137H268.005V584.776ZM268.017 587.889H261.926V589.452H260.986V587.169H267.065V586.058H260.961V585.301H268.017V587.889ZM268.407 589.867H260.986V589.098H268.407V589.867ZM262.78 580.675C262.78 581.306 262.65 581.896 262.389 582.445C262.129 582.99 261.763 583.466 261.291 583.873C260.819 584.276 260.278 584.581 259.667 584.789L259.216 584.032C259.753 583.853 260.233 583.592 260.656 583.25C261.079 582.909 261.409 582.516 261.645 582.073C261.881 581.629 261.999 581.163 261.999 580.675V580.089H262.78V580.675ZM262.963 580.675C262.963 581.139 263.083 581.58 263.323 581.999C263.563 582.418 263.893 582.787 264.312 583.104C264.735 583.417 265.217 583.653 265.759 583.812L265.282 584.557C264.676 584.365 264.139 584.081 263.671 583.702C263.207 583.32 262.843 582.87 262.579 582.353C262.318 581.832 262.19 581.273 262.194 580.675V580.089H262.963V580.675ZM265.466 580.553H259.46V579.759H265.466V580.553ZM279.784 585.484H269.848V584.691H279.784V585.484ZM275.365 587.706H274.413V585.179H275.365V587.706ZM278.49 583.446H271.142V579.674H278.49V583.446ZM272.082 582.677H277.538V580.431H272.082V582.677ZM278.674 589.757H271.117V588.951H278.674V589.757ZM272.082 589.232H271.117V586.632H272.082V589.232ZM286.083 581.798H280.639V581.017H286.083V581.798ZM283.361 582.53C283.813 582.53 284.216 582.636 284.57 582.848C284.928 583.059 285.206 583.352 285.406 583.727C285.609 584.097 285.713 584.52 285.717 584.996C285.713 585.476 285.609 585.903 285.406 586.278C285.206 586.652 284.928 586.947 284.57 587.163C284.216 587.378 283.813 587.486 283.361 587.486C282.918 587.486 282.517 587.378 282.159 587.163C281.805 586.947 281.528 586.652 281.329 586.278C281.129 585.903 281.03 585.476 281.03 584.996C281.03 584.524 281.131 584.101 281.335 583.727C281.538 583.352 281.815 583.059 282.165 582.848C282.519 582.636 282.918 582.53 283.361 582.53ZM283.361 583.336C283.076 583.34 282.822 583.415 282.598 583.562C282.374 583.704 282.199 583.902 282.073 584.154C281.947 584.402 281.884 584.683 281.884 584.996C281.884 585.313 281.947 585.596 282.073 585.844C282.199 586.093 282.374 586.288 282.598 586.43C282.822 586.573 283.076 586.644 283.361 586.644C283.646 586.644 283.902 586.573 284.13 586.43C284.358 586.288 284.537 586.093 284.667 585.844C284.797 585.596 284.863 585.313 284.863 584.996C284.863 584.683 284.797 584.402 284.667 584.154C284.537 583.902 284.358 583.704 284.13 583.562C283.902 583.415 283.646 583.34 283.361 583.336ZM289.904 589.989H288.989V579.137H289.904V589.989ZM289.294 584.508H287.219V583.714H289.294V584.508ZM287.548 589.452H286.645V579.405H287.548V589.452ZM283.849 581.493H282.897V579.466H283.849V581.493ZM299.853 580.675C299.853 581.297 299.651 581.869 299.249 582.39C298.846 582.907 298.317 583.34 297.662 583.69C297.007 584.036 296.309 584.272 295.568 584.398L295.19 583.641C295.829 583.548 296.441 583.356 297.027 583.067C297.617 582.774 298.095 582.418 298.461 581.999C298.827 581.58 299.01 581.139 299.01 580.675V580.211H299.853V580.675ZM300.085 580.675C300.085 581.139 300.268 581.58 300.634 581.999C301 582.418 301.476 582.774 302.062 583.067C302.652 583.356 303.267 583.548 303.906 583.641L303.552 584.398C302.803 584.272 302.101 584.036 301.446 583.69C300.791 583.34 300.262 582.907 299.859 582.39C299.456 581.869 299.255 581.297 299.255 580.675V580.211H300.085V580.675ZM299.999 589.989H299.059V585.838H299.999V589.989ZM304.491 586.119H294.604V585.326H304.491V586.119ZM303.552 580.602H295.531V579.82H303.552V580.602ZM311.852 583.849H309.716V583.031H311.852V583.849ZM308.459 582.262C308.459 583.006 308.355 583.733 308.147 584.441C307.94 585.145 307.641 585.777 307.25 586.339C306.864 586.896 306.412 587.332 305.895 587.645L305.285 586.925C305.773 586.64 306.2 586.249 306.567 585.753C306.933 585.257 307.214 584.707 307.409 584.105C307.604 583.499 307.702 582.884 307.702 582.262V580.162H308.459V582.262ZM308.63 582.225C308.63 582.807 308.721 583.387 308.904 583.965C309.087 584.538 309.35 585.063 309.692 585.539C310.038 586.015 310.444 586.392 310.912 586.668L310.363 587.413C309.85 587.104 309.407 586.675 309.032 586.125C308.658 585.576 308.373 584.964 308.178 584.288C307.987 583.613 307.893 582.925 307.897 582.225V580.162H308.63V582.225ZM314.709 589.989H313.781V579.137H314.709V589.989ZM312.463 589.439H311.559V579.369H312.463V589.439ZM319.616 587.987H318.676V584.74H319.616V587.987ZM323.681 587.987H322.717V584.74H323.681V587.987ZM326.147 588.597H316.21V587.792H326.147V588.597ZM321.154 579.82C321.923 579.824 322.607 579.942 323.205 580.174C323.807 580.402 324.277 580.73 324.615 581.157C324.952 581.58 325.121 582.066 325.121 582.616C325.121 583.169 324.952 583.655 324.615 584.074C324.277 584.494 323.807 584.819 323.205 585.051C322.607 585.283 321.923 585.399 321.154 585.399C320.385 585.399 319.699 585.283 319.097 585.051C318.499 584.819 318.031 584.494 317.693 584.074C317.356 583.655 317.187 583.169 317.187 582.616C317.187 582.066 317.356 581.58 317.693 581.157C318.031 580.73 318.499 580.402 319.097 580.174C319.699 579.942 320.385 579.824 321.154 579.82ZM321.154 580.614C320.564 580.61 320.037 580.691 319.573 580.858C319.113 581.021 318.755 581.255 318.499 581.56C318.243 581.865 318.115 582.217 318.115 582.616C318.115 583.014 318.243 583.366 318.499 583.672C318.755 583.977 319.113 584.215 319.573 584.386C320.037 584.557 320.564 584.642 321.154 584.642C321.74 584.642 322.263 584.557 322.723 584.386C323.182 584.215 323.543 583.977 323.803 583.672C324.063 583.366 324.194 583.014 324.194 582.616C324.194 582.217 324.063 581.865 323.803 581.56C323.543 581.255 323.182 581.021 322.723 580.858C322.263 580.691 321.74 580.61 321.154 580.614ZM328.161 589.073C328.018 589.073 327.886 589.037 327.764 588.963C327.646 588.89 327.551 588.795 327.477 588.677C327.408 588.554 327.376 588.422 327.38 588.28C327.376 588.141 327.408 588.011 327.477 587.889C327.551 587.767 327.646 587.671 327.764 587.602C327.886 587.533 328.018 587.499 328.161 587.499C328.303 587.499 328.434 587.533 328.552 587.602C328.674 587.671 328.769 587.767 328.838 587.889C328.908 588.011 328.942 588.141 328.942 588.28C328.942 588.422 328.908 588.554 328.838 588.677C328.769 588.795 328.674 588.89 328.552 588.963C328.434 589.037 328.303 589.073 328.161 589.073ZM86.0588 602.945H83.2756V602.152H86.0588V602.945ZM86.4739 607.108H85.5095V599.149H86.4739V607.108ZM86.7791 609.757H79.5037V608.951H86.7791V609.757ZM80.468 609.342H79.5037V606.388H80.468V609.342ZM81.0784 601.383C81.0784 602.03 80.9502 602.642 80.6938 603.22C80.4375 603.794 80.0774 604.298 79.6135 604.734C79.1537 605.165 78.6248 605.493 78.0266 605.716L77.5261 604.935C78.0551 604.748 78.5291 604.473 78.9482 604.111C79.3674 603.749 79.6949 603.332 79.9309 602.86C80.1669 602.384 80.2849 601.891 80.2849 601.383V600.492H81.0784V601.383ZM81.2493 601.383C81.2493 601.847 81.3632 602.298 81.5911 602.738C81.8189 603.177 82.1343 603.568 82.5371 603.91C82.9399 604.251 83.4018 604.512 83.9226 604.691L83.4221 605.46C82.8403 605.248 82.3255 604.937 81.8779 604.526C81.4344 604.115 81.0885 603.639 80.8403 603.098C80.5921 602.557 80.468 601.985 80.468 601.383V600.492H81.2493V601.383ZM83.6785 600.821H77.8313V600.028H83.6785V600.821ZM98.2048 605.484H88.2683V604.691H98.2048V605.484ZM93.7859 607.706H92.8337V605.179H93.7859V607.706ZM96.9109 603.446H89.5623V599.674H96.9109V603.446ZM90.5022 602.677H95.9587V600.431H90.5022V602.677ZM97.094 609.757H89.5378V608.951H97.094V609.757ZM90.5022 609.232H89.5378V606.632H90.5022V609.232ZM107.482 609.989H106.53V599.137H107.482V609.989ZM109.24 604.361H107.238V603.556H109.24V604.361ZM104.675 600.309C104.67 601.362 104.496 602.359 104.15 603.299C103.808 604.235 103.267 605.1 102.526 605.893C101.786 606.683 100.842 607.36 99.6941 607.926L99.157 607.169C100.162 606.668 101.004 606.08 101.684 605.405C102.367 604.726 102.878 603.973 103.216 603.147C103.558 602.321 103.731 601.428 103.735 600.467V600.309H104.675ZM104.223 601.114H99.6575V600.309H104.223V601.114ZM118.322 600.15C118.322 600.809 118.115 601.413 117.699 601.963C117.284 602.512 116.741 602.968 116.07 603.33C115.403 603.688 114.688 603.93 113.927 604.056L113.537 603.275C114.2 603.181 114.835 602.984 115.441 602.683C116.052 602.378 116.544 602.005 116.918 601.566C117.293 601.122 117.48 600.65 117.48 600.15V599.527H118.322V600.15ZM118.469 600.15C118.469 600.642 118.66 601.112 119.042 601.56C119.425 602.003 119.919 602.378 120.525 602.683C121.132 602.984 121.764 603.181 122.424 603.275L122.033 604.056C121.276 603.93 120.562 603.686 119.891 603.324C119.219 602.958 118.676 602.5 118.261 601.95C117.846 601.401 117.638 600.801 117.638 600.15V599.527H118.469V600.15ZM118.42 609.989H117.48V605.851H118.42V609.989ZM122.912 606.058H113.024V605.252H122.912V606.058ZM129.003 600.492C129.003 601.082 128.81 601.619 128.423 602.103C128.037 602.583 127.522 602.982 126.879 603.299C126.24 603.613 125.545 603.824 124.792 603.934L124.438 603.177C125.081 603.088 125.687 602.913 126.257 602.652C126.826 602.392 127.284 602.075 127.63 601.7C127.976 601.326 128.149 600.923 128.149 600.492V600.162H129.003V600.492ZM129.394 600.492C129.394 600.923 129.569 601.326 129.919 601.7C130.269 602.075 130.728 602.392 131.298 602.652C131.872 602.913 132.482 603.088 133.129 603.177L132.751 603.934C132.002 603.824 131.306 603.613 130.663 603.299C130.02 602.982 129.506 602.583 129.119 602.103C128.733 601.619 128.539 601.082 128.539 600.492V600.162H129.394V600.492ZM132.836 600.467H124.731V599.686H132.836V600.467ZM133.752 605.521H123.815V604.728H133.752V605.521ZM129.333 607.743H128.381V605.216H129.333V607.743ZM132.641 609.757H125.085V608.951H132.641V609.757ZM126.049 609.256H125.085V606.656H126.049V609.256ZM138.183 599.93C138.744 599.93 139.247 600.038 139.69 600.254C140.134 600.469 140.48 600.77 140.728 601.157C140.976 601.544 141.1 601.985 141.1 602.481C141.1 602.978 140.976 603.419 140.728 603.806C140.48 604.192 140.134 604.494 139.69 604.709C139.247 604.925 138.744 605.033 138.183 605.033C137.617 605.033 137.111 604.925 136.663 604.709C136.22 604.494 135.874 604.192 135.625 603.806C135.377 603.419 135.253 602.978 135.253 602.481C135.253 601.985 135.377 601.544 135.625 601.157C135.874 600.77 136.22 600.469 136.663 600.254C137.111 600.038 137.617 599.93 138.183 599.93ZM138.183 600.772C137.8 600.772 137.459 600.844 137.157 600.986C136.856 601.128 136.62 601.332 136.449 601.596C136.279 601.857 136.193 602.152 136.193 602.481C136.193 602.815 136.279 603.11 136.449 603.366C136.62 603.623 136.856 603.824 137.157 603.971C137.459 604.117 137.8 604.19 138.183 604.19C138.561 604.19 138.901 604.117 139.202 603.971C139.507 603.824 139.743 603.623 139.91 603.366C140.077 603.11 140.16 602.815 140.16 602.481C140.16 602.152 140.077 601.857 139.91 601.596C139.743 601.332 139.507 601.128 139.202 600.986C138.901 600.844 138.561 600.772 138.183 600.772ZM143.53 610.013H142.577V599.137H143.53V610.013ZM134.692 606.803C136.047 606.807 137.314 606.786 138.494 606.742C139.674 606.697 140.795 606.595 141.857 606.437L141.93 607.145C141.165 607.287 140.37 607.393 139.544 607.462C138.718 607.527 137.945 607.57 137.225 607.59C136.508 607.61 135.709 607.621 134.826 607.621L134.692 606.803ZM156.896 602.762H154.418V601.969H156.896V602.762ZM157.568 605.606H156.603V599.137H157.568V605.606ZM153.967 605.948C154.715 605.948 155.362 606.028 155.907 606.186C156.453 606.345 156.872 606.575 157.165 606.876C157.458 607.177 157.604 607.539 157.604 607.962C157.604 608.386 157.458 608.748 157.165 609.049C156.872 609.35 156.453 609.58 155.907 609.739C155.362 609.901 154.715 609.985 153.967 609.989C153.214 609.985 152.565 609.901 152.02 609.739C151.478 609.58 151.061 609.35 150.768 609.049C150.475 608.748 150.329 608.386 150.329 607.962C150.329 607.539 150.475 607.177 150.768 606.876C151.061 606.575 151.48 606.345 152.026 606.186C152.571 606.028 153.218 605.948 153.967 605.948ZM153.967 606.693C153.413 606.693 152.935 606.744 152.532 606.845C152.129 606.947 151.82 607.094 151.604 607.285C151.389 607.476 151.281 607.702 151.281 607.962C151.281 608.223 151.389 608.447 151.604 608.634C151.82 608.821 152.129 608.965 152.532 609.067C152.935 609.169 153.413 609.22 153.967 609.22C154.516 609.22 154.992 609.169 155.395 609.067C155.802 608.965 156.113 608.821 156.329 608.634C156.544 608.447 156.652 608.223 156.652 607.962C156.652 607.702 156.544 607.476 156.329 607.285C156.113 607.094 155.802 606.947 155.395 606.845C154.992 606.744 154.516 606.693 153.967 606.693ZM152.172 601.139C152.172 601.79 152.044 602.406 151.788 602.988C151.531 603.57 151.171 604.079 150.707 604.514C150.247 604.949 149.719 605.281 149.12 605.509L148.62 604.74C149.153 604.549 149.627 604.268 150.042 603.897C150.461 603.523 150.789 603.098 151.025 602.622C151.261 602.142 151.379 601.647 151.379 601.139V600.235H152.172V601.139ZM152.343 601.126C152.343 601.594 152.455 602.048 152.679 602.488C152.903 602.923 153.218 603.312 153.625 603.653C154.032 603.995 154.496 604.256 155.016 604.435L154.516 605.204C153.934 604.992 153.419 604.681 152.972 604.27C152.528 603.859 152.182 603.383 151.934 602.842C151.686 602.296 151.562 601.725 151.562 601.126V600.235H152.343V601.126ZM154.772 600.736H148.925V599.93H154.772V600.736ZM169.311 608.597H159.374V607.804H169.311V608.597ZM164.782 608.048H163.842V605.179H164.782V608.048ZM161.51 601.871H167.15V599.906H168.09V605.46H160.546V599.906H161.51V601.871ZM167.15 604.679V602.652H161.51V604.679H167.15ZM180.102 604.935H170.165V604.178H180.102V604.935ZM178.857 608.109H172.338V609.403H171.374V607.45H177.905V606.522H171.362V605.802H178.857V608.109ZM179.211 609.842H171.374V609.146H179.211V609.842ZM178.82 601.712H172.411V602.909H171.459V601.053H177.856V600.162H171.423V599.466H178.82V601.712ZM179.015 603.36H171.459V602.665H179.015V603.36ZM193.078 607.169H192.126V599.149H193.078V607.169ZM193.42 609.757H186.071V608.951H193.42V609.757ZM187.023 609.366H186.071V606.424H187.023V609.366ZM187.902 601.676C187.898 602.315 187.766 602.915 187.505 603.476C187.249 604.034 186.889 604.518 186.425 604.929C185.961 605.336 185.428 605.643 184.826 605.851L184.338 605.094C184.879 604.919 185.359 604.66 185.778 604.319C186.201 603.973 186.529 603.572 186.761 603.116C186.993 602.656 187.109 602.176 187.109 601.676V601.212H187.902V601.676ZM188.061 601.676C188.061 602.148 188.179 602.597 188.415 603.025C188.651 603.452 188.98 603.828 189.404 604.154C189.827 604.479 190.307 604.723 190.844 604.886L190.368 605.655C189.758 605.456 189.218 605.163 188.75 604.776C188.283 604.386 187.918 603.924 187.658 603.391C187.402 602.858 187.275 602.286 187.28 601.676V601.212H188.061V601.676ZM190.551 601.383H184.606V600.614H190.551V601.383ZM188.073 600.992H187.109V599.198H188.073V600.992ZM203.576 602.359H200.768V601.566H203.576V602.359ZM198.51 600.809C198.51 601.403 198.38 601.973 198.119 602.518C197.859 603.063 197.497 603.541 197.033 603.952C196.569 604.359 196.04 604.667 195.446 604.874L194.97 604.117C195.495 603.934 195.965 603.672 196.38 603.33C196.799 602.984 197.127 602.593 197.363 602.158C197.599 601.719 197.717 601.269 197.717 600.809V600.064H198.51V600.809ZM198.681 600.821C198.681 601.244 198.793 601.657 199.017 602.06C199.24 602.463 199.554 602.823 199.957 603.141C200.363 603.454 200.825 603.694 201.342 603.861L200.866 604.618C200.276 604.426 199.755 604.142 199.303 603.763C198.856 603.381 198.508 602.937 198.26 602.433C198.012 601.924 197.887 601.387 197.887 600.821V600.064H198.681V600.821ZM201.11 600.504H195.263V599.71H201.11V600.504ZM203.906 604.752H202.953V599.137H203.906V604.752ZM203.906 607.889H197.851V609.598H196.899V607.157H202.953V606.07H196.874V605.289H203.906V607.889ZM204.321 609.867H196.899V609.098H204.321V609.867ZM214.123 609.989H213.171V599.137H214.123V609.989ZM215.942 604.41H213.903V603.617H215.942V604.41ZM212.121 601.676H205.663V600.882H212.121V601.676ZM208.947 602.579C209.452 602.579 209.905 602.685 210.308 602.896C210.711 603.108 211.026 603.403 211.254 603.781C211.486 604.16 211.604 604.589 211.608 605.069C211.604 605.554 211.486 605.985 211.254 606.363C211.026 606.738 210.711 607.031 210.308 607.242C209.905 607.454 209.452 607.56 208.947 607.56C208.438 607.56 207.981 607.454 207.574 607.242C207.171 607.031 206.856 606.738 206.628 606.363C206.4 605.985 206.286 605.554 206.286 605.069C206.286 604.589 206.4 604.16 206.628 603.781C206.856 603.403 207.171 603.108 207.574 602.896C207.981 602.685 208.438 602.579 208.947 602.579ZM208.947 603.385C208.613 603.385 208.314 603.456 208.05 603.598C207.785 603.741 207.578 603.942 207.427 604.203C207.277 604.459 207.201 604.748 207.201 605.069C207.201 605.395 207.277 605.684 207.427 605.936C207.578 606.188 207.785 606.388 208.05 606.534C208.314 606.677 208.613 606.746 208.947 606.742C209.277 606.746 209.574 606.677 209.838 606.534C210.107 606.388 210.314 606.188 210.461 605.936C210.611 605.684 210.689 605.395 210.693 605.069C210.689 604.748 210.611 604.459 210.461 604.203C210.314 603.942 210.107 603.741 209.838 603.598C209.574 603.456 209.277 603.385 208.947 603.385ZM209.411 601.249H208.459V599.271H209.411V601.249ZM225.817 609.989H224.902V599.137H225.817V609.989ZM222.9 604.374H220.116V603.592H222.9V604.374ZM223.534 609.439H222.619V599.43H223.534V609.439ZM221.215 600.528C221.211 601.497 221.067 602.412 220.782 603.275C220.501 604.138 220.055 604.941 219.445 605.686C218.835 606.43 218.053 607.083 217.101 607.645L216.54 606.949C217.382 606.449 218.082 605.875 218.639 605.228C219.201 604.577 219.614 603.873 219.878 603.116C220.147 602.359 220.283 601.554 220.287 600.699V600.528H221.215ZM220.654 601.322H217.004V600.528H220.654V601.322ZM238.952 607.145H238V599.137H238.952V607.145ZM240.588 603.25H238.647V602.445H240.588V603.25ZM239.452 609.757H232.165V608.951H239.452V609.757ZM233.105 609.269H232.165V606.314H233.105V609.269ZM233.52 599.906C234.057 599.906 234.543 600.02 234.979 600.248C235.414 600.475 235.754 600.793 235.998 601.2C236.246 601.603 236.372 602.062 236.376 602.579C236.372 603.096 236.246 603.558 235.998 603.965C235.754 604.367 235.414 604.683 234.979 604.911C234.543 605.139 234.057 605.252 233.52 605.252C232.987 605.252 232.503 605.139 232.067 604.911C231.636 604.683 231.296 604.365 231.048 603.958C230.8 603.552 230.676 603.092 230.676 602.579C230.676 602.062 230.8 601.603 231.048 601.2C231.296 600.793 231.636 600.475 232.067 600.248C232.498 600.02 232.983 599.906 233.52 599.906ZM233.52 600.748C233.166 600.748 232.842 600.825 232.549 600.98C232.26 601.135 232.033 601.352 231.866 601.633C231.699 601.914 231.615 602.229 231.615 602.579C231.615 602.929 231.699 603.242 231.866 603.519C232.033 603.796 232.26 604.013 232.549 604.172C232.842 604.331 233.166 604.41 233.52 604.41C233.882 604.41 234.207 604.331 234.496 604.172C234.789 604.013 235.019 603.796 235.186 603.519C235.353 603.242 235.436 602.929 235.436 602.579C235.436 602.225 235.353 601.91 235.186 601.633C235.019 601.352 234.789 601.135 234.496 600.98C234.207 600.825 233.882 600.748 233.52 600.748ZM250.536 609.989H249.596V599.137H250.536V609.989ZM249.877 604.374H247.753V603.556H249.877V604.374ZM248.034 609.427H247.131V599.381H248.034V609.427ZM242.773 606.717H241.821V600.467H242.773V606.717ZM242.492 606.327C243.139 606.331 243.772 606.308 244.39 606.26C245.013 606.207 245.658 606.111 246.325 605.973L246.447 606.827C245.731 606.957 245.053 607.049 244.415 607.102C243.78 607.155 243.139 607.181 242.492 607.181H241.821V606.327H242.492ZM257.494 601.798H252.05V601.017H257.494V601.798ZM254.772 602.53C255.224 602.53 255.627 602.636 255.981 602.848C256.339 603.059 256.618 603.352 256.817 603.727C257.02 604.097 257.124 604.52 257.128 604.996C257.124 605.476 257.02 605.903 256.817 606.278C256.618 606.652 256.339 606.947 255.981 607.163C255.627 607.378 255.224 607.486 254.772 607.486C254.329 607.486 253.928 607.378 253.57 607.163C253.216 606.947 252.939 606.652 252.74 606.278C252.54 605.903 252.441 605.476 252.441 604.996C252.441 604.524 252.542 604.101 252.746 603.727C252.949 603.352 253.226 603.059 253.576 602.848C253.93 602.636 254.329 602.53 254.772 602.53ZM254.772 603.336C254.487 603.34 254.233 603.415 254.009 603.562C253.785 603.704 253.611 603.902 253.484 604.154C253.358 604.402 253.295 604.683 253.295 604.996C253.295 605.313 253.358 605.596 253.484 605.844C253.611 606.093 253.785 606.288 254.009 606.43C254.233 606.573 254.487 606.644 254.772 606.644C255.057 606.644 255.313 606.573 255.541 606.43C255.769 606.288 255.948 606.093 256.078 605.844C256.209 605.596 256.274 605.313 256.274 604.996C256.274 604.683 256.209 604.402 256.078 604.154C255.948 603.902 255.769 603.704 255.541 603.562C255.313 603.415 255.057 603.34 254.772 603.336ZM261.315 609.989H260.4V599.137H261.315V609.989ZM260.705 604.508H258.63V603.714H260.705V604.508ZM258.959 609.452H258.056V599.405H258.959V609.452ZM255.26 601.493H254.308V599.466H255.26V601.493ZM274.78 605.155H267.284V604.361H274.78V605.155ZM275.951 608.512H266.015V607.706H275.951V608.512ZM274.67 600.943H268.237V604.715H267.284V600.15H274.67V600.943ZM278.246 603.666C279.369 603.666 280.315 603.645 281.084 603.604C281.858 603.56 282.653 603.474 283.471 603.348L283.556 604.093C282.722 604.227 281.913 604.319 281.127 604.367C280.342 604.412 279.382 604.435 278.246 604.435H277.367V603.666H278.246ZM282.348 602.323H278.32V604.032H277.367V601.615H281.408V600.418H277.331V599.674H282.348V602.323ZM285.778 607.889H279.699V609.452H278.747V607.169H284.802V606.095H278.722V605.338H285.778V607.889ZM286.169 609.867H278.747V609.098H286.169V609.867ZM285.778 604.862H284.826V599.137H285.778V604.862ZM296.911 609.989H295.995V599.137H296.911V609.989ZM293.993 604.374H291.21V603.592H293.993V604.374ZM294.628 609.439H293.713V599.43H294.628V609.439ZM292.309 600.528C292.305 601.497 292.16 602.412 291.875 603.275C291.595 604.138 291.149 604.941 290.539 605.686C289.928 606.43 289.147 607.083 288.195 607.645L287.634 606.949C288.476 606.449 289.176 605.875 289.733 605.228C290.295 604.577 290.708 603.873 290.972 603.116C291.241 602.359 291.377 601.554 291.381 600.699V600.528H292.309ZM291.747 601.322H288.097V600.528H291.747V601.322ZM301.83 607.987H300.89V604.74H301.83V607.987ZM305.895 607.987H304.931V604.74H305.895V607.987ZM308.361 608.597H298.425V607.792H308.361V608.597ZM303.368 599.82C304.137 599.824 304.821 599.942 305.419 600.174C306.021 600.402 306.491 600.73 306.829 601.157C307.167 601.58 307.336 602.066 307.336 602.616C307.336 603.169 307.167 603.655 306.829 604.074C306.491 604.494 306.021 604.819 305.419 605.051C304.821 605.283 304.137 605.399 303.368 605.399C302.599 605.399 301.914 605.283 301.312 605.051C300.713 604.819 300.245 604.494 299.908 604.074C299.57 603.655 299.401 603.169 299.401 602.616C299.401 602.066 299.57 601.58 299.908 601.157C300.245 600.73 300.713 600.402 301.312 600.174C301.914 599.942 302.599 599.824 303.368 599.82ZM303.368 600.614C302.778 600.61 302.251 600.691 301.788 600.858C301.328 601.021 300.97 601.255 300.713 601.56C300.457 601.865 300.329 602.217 300.329 602.616C300.329 603.014 300.457 603.366 300.713 603.672C300.97 603.977 301.328 604.215 301.788 604.386C302.251 604.557 302.778 604.642 303.368 604.642C303.954 604.642 304.477 604.557 304.937 604.386C305.397 604.215 305.757 603.977 306.017 603.672C306.278 603.366 306.408 603.014 306.408 602.616C306.408 602.217 306.278 601.865 306.017 601.56C305.757 601.255 305.397 601.021 304.937 600.858C304.477 600.691 303.954 600.61 303.368 600.614ZM310.375 609.073C310.233 609.073 310.101 609.037 309.979 608.963C309.861 608.89 309.765 608.795 309.692 608.677C309.622 608.554 309.59 608.422 309.594 608.28C309.59 608.141 309.622 608.011 309.692 607.889C309.765 607.767 309.861 607.671 309.979 607.602C310.101 607.533 310.233 607.499 310.375 607.499C310.518 607.499 310.648 607.533 310.766 607.602C310.888 607.671 310.984 607.767 311.053 607.889C311.122 608.011 311.156 608.141 311.156 608.28C311.156 608.422 311.122 608.554 311.053 608.677C310.984 608.795 310.888 608.89 310.766 608.963C310.648 609.037 310.518 609.073 310.375 609.073Z" fill="#626262"/>
<rect x="47.5" y="704.5" width="42" height="42" rx="21" fill="#FCFCFE"/>
<rect x="47.5" y="704.5" width="42" height="42" rx="21" stroke="#01A4FC"/>
<path d="M69.3092 717.087L61 725.5M61 725.5L69.3092 733.913M61 725.5H75.9565" stroke="#01A4FC" stroke-width="2" stroke-linecap="round" stroke-linejoin="round"/>
<circle opacity="0.6" cx="174" cy="728" r="4" fill="#01A4FC"/>
<circle cx="196" cy="728" r="8" fill="#01A4FC"/>
<circle opacity="0.6" cx="218" cy="728" r="4" fill="#01A4FC"/>
<rect x="298.5" y="704.5" width="42" height="42" rx="21" fill="#01A4FC"/>
<rect x="298.5" y="704.5" width="42" height="42" rx="21" stroke="#01A4FC"/>
<path d="M318.647 733.913L326.957 725.5ZM326.957 725.5L318.647 717.087ZM326.957 725.5H312Z" fill="#01A4FC"/>
<path d="M318.647 733.913L326.957 725.5M326.957 725.5L318.647 717.087M326.957 725.5H312" stroke="white" stroke-width="2" stroke-linecap="round" stroke-linejoin="round"/>
<defs>
<clipPath id="clip0_30_380">
<rect width="335" height="293" fill="white" transform="translate(27 141)"/>
</clipPath>
</defs>
</svg>
