<svg viewBox="0 0 375 812" preserveAspectRatio="xMidYMid slice" fill="none" xmlns="http://www.w3.org/2000/svg">
<rect width="375" height="812" fill="#FAFBFC"/>
<g clip-path="url(#clip0_18_487)">
<path d="M70.714 277.26C100.029 276.992 129.229 277.328 158.584 276.748C158.747 276.72 158.913 276.726 159.073 276.766C159.233 276.806 159.383 276.879 159.513 276.981C159.643 277.083 159.75 277.211 159.828 277.357C159.905 277.502 159.951 277.663 159.962 277.828C159.974 277.992 159.95 278.157 159.894 278.312C159.837 278.468 159.749 278.609 159.634 278.728C159.52 278.846 159.381 278.94 159.228 279.002C159.075 279.064 158.911 279.093 158.746 279.087C129.728 279.664 99.8808 280.323 70.8761 279.555C69.2005 279.511 68.9975 277.275 70.714 277.26ZM136.603 232.825C141.492 254.597 111.522 266.753 97.8855 252.974C91.624 246.651 90.6484 236.359 94.051 228.401C102.605 208.405 132.412 214.154 136.603 232.825ZM133.889 230.374C132.964 227.993 131.547 225.834 129.731 224.037C127.915 222.241 125.74 220.847 123.35 219.947C110.568 215.471 98.19 218.036 94.4904 232.325C92.536 239.868 94.6419 249.005 101.267 253.641C116.491 264.292 141.749 249.501 133.889 230.374ZM71.7866 211.685C71.7866 210.957 70.6064 210.976 70.5398 211.676C68.949 228.418 69.7368 245.958 69.7959 262.796C69.805 265.319 70.6867 265.504 72.2653 265.608C97.3583 267.259 131.814 266.334 156.857 265.223C157.766 265.182 157.787 263.646 156.857 263.628C128.878 263.105 99.446 265.029 71.9169 263.378C72.3502 246.492 71.876 228.669 71.7866 211.685ZM159.361 263.914C159.457 264.66 160.935 264.76 160.92 263.925C160.593 246.342 160.743 228.625 160.288 211.098C160.226 208.689 160.184 208.892 157.57 208.791C130.764 207.747 100.869 208.262 74.1727 209.8C73.97 209.809 73.7794 209.899 73.6427 210.049C73.506 210.199 73.4346 210.397 73.444 210.6C73.4535 210.803 73.543 210.993 73.6931 211.13C73.8431 211.267 74.0412 211.338 74.2439 211.329C102.243 211.232 130.543 210.101 158.51 211.007C157.49 224.938 157.625 250.258 159.361 263.914ZM123.937 236.968C120.648 235.04 116.026 232.019 112.34 229.999C109.88 228.653 109.687 230.496 111.449 231.714C113.932 233.432 118.541 235.635 121.724 237.858C118.073 240.109 114.573 242.482 110.857 244.724C110.325 239.827 110.078 235.007 109.377 230.095C109.253 229.215 108.028 229.472 108.051 230.307C108.203 235.746 108.947 241.088 109.131 246.454C109.155 246.598 109.212 246.736 109.297 246.855C109.382 246.974 109.493 247.072 109.622 247.142C109.75 247.212 109.893 247.252 110.04 247.258C110.186 247.264 110.332 247.237 110.466 247.178C115.261 244.666 119.844 241.766 124.168 238.509C124.281 238.405 124.367 238.275 124.418 238.13C124.469 237.985 124.484 237.83 124.461 237.678C124.439 237.526 124.379 237.382 124.288 237.258C124.196 237.134 124.076 237.035 123.937 236.968ZM214.775 223.424C218.781 223.167 218.643 220.578 214.515 220.866C201.892 221.747 188.97 221.506 176.32 221.182C170.754 221.04 170.201 223.352 175.914 223.568C188.269 224.036 202.484 224.214 214.775 223.424ZM227.163 267.591C227.383 263.43 227.357 259.259 227.086 255.1C227.029 254.467 225.874 254.38 225.767 255.023C225.226 258.259 225.911 264.146 225.779 267.661C225.753 268.417 227.12 268.352 227.163 267.591ZM72.3184 180.42C88.3137 180.373 207.497 179.605 213.803 179.859C227.673 180.421 228.498 196.676 226.832 196.933C225.059 197.209 59.8484 196.135 58.1062 195.994C56.8911 195.897 56.3215 180.467 72.3184 180.42ZM214.939 192.274C215.386 192.206 215.813 192.04 216.189 191.789C216.565 191.537 216.881 191.205 217.115 190.818C217.348 190.43 217.493 189.996 217.54 189.546C217.586 189.095 217.533 188.641 217.384 188.213C217.235 187.786 216.994 187.397 216.677 187.073C216.361 186.75 215.977 186.5 215.553 186.342C215.129 186.183 214.676 186.12 214.225 186.157C213.774 186.193 213.336 186.329 212.944 186.554C212.372 186.941 211.944 187.507 211.726 188.163C211.509 188.819 211.514 189.529 211.742 190.181C211.97 190.834 212.407 191.393 212.985 191.771C213.563 192.15 214.25 192.327 214.939 192.274ZM201.136 191.258C201.6 191.807 202.24 192.179 202.947 192.31C203.655 192.441 204.385 192.324 205.016 191.978C205.595 191.584 206.031 191.014 206.26 190.352C206.489 189.69 206.498 188.973 206.287 188.305C206.04 187.642 205.577 187.081 204.972 186.713C204.367 186.345 203.656 186.192 202.954 186.278C202.419 186.362 201.917 186.588 201.499 186.931C201.081 187.275 200.763 187.724 200.577 188.232C200.392 188.741 200.346 189.289 200.444 189.821C200.542 190.353 200.781 190.849 201.136 191.258ZM189.72 191.447C190.231 191.877 190.861 192.139 191.526 192.198C192.19 192.257 192.857 192.11 193.435 191.778C193.911 191.498 194.299 191.092 194.558 190.605C194.817 190.118 194.935 189.569 194.901 189.018C194.866 188.468 194.679 187.938 194.361 187.487C194.043 187.037 193.606 186.683 193.099 186.466C192.423 186.266 191.702 186.278 191.033 186.5C190.364 186.722 189.779 187.144 189.357 187.708C188.968 188.275 188.791 188.96 188.857 189.644C188.924 190.328 189.229 190.966 189.72 191.447ZM225.752 200.612C226.018 213.897 224.843 227.188 225.547 240.567C225.588 241.35 226.91 241.295 226.895 240.536C226.682 227.356 228.071 213.721 227.127 200.581C227.071 199.79 225.736 199.833 225.752 200.612ZM216.166 210.064C201.275 210.759 186.681 209.77 171.855 209.761C171.272 209.761 171.163 210.821 171.731 211.062C176.29 213.031 209.482 212.806 216.23 212.298C216.511 212.268 216.77 212.134 216.956 211.921C217.141 211.709 217.24 211.434 217.232 211.151C217.224 210.869 217.11 210.6 216.912 210.399C216.715 210.197 216.448 210.077 216.166 210.064ZM68.6248 298.493C79.2434 298.549 90.3772 299.524 98.8354 298.906C99.605 298.85 99.7081 297.55 98.9021 297.528C88.891 297.24 79.3056 296.596 69.8323 296.387C63.4208 296.244 59.8514 293.695 59.197 287.001C57.1184 265.717 59.7196 204.078 59.2727 198.828C59.2618 198.645 59.1856 198.471 59.0577 198.339C58.9298 198.207 58.7589 198.125 58.5757 198.107C58.3925 198.09 58.2093 198.14 58.0593 198.246C57.9092 198.352 57.8022 198.509 57.7577 198.687C57.3365 200.778 56.6881 226.295 56.4609 246.039C56.3185 258.548 55.764 275.828 57.076 287.874C57.7729 294.261 62.0694 298.458 68.6248 298.493ZM183.892 296.428C165.721 297.547 144.82 296.811 126.075 297.284C125.269 297.305 125.266 298.684 126.084 298.705C144.647 299.2 165.383 298.362 183.906 298.382C185.015 298.379 185.016 296.358 183.892 296.428ZM174.534 234.01C172.387 234.519 172.669 235.906 174.837 235.908C178.267 235.908 181.973 235.522 185.527 235.481C187.799 235.455 188.772 233.663 185.072 233.375C181.547 233.21 178.014 233.423 174.534 234.011V234.01ZM232.769 325.455C231.156 320.683 228.705 316.236 225.529 312.326C225.074 311.72 225.832 310.791 226.467 311.317C230.453 314.961 233.224 319.741 234.407 325.011C239.139 323.74 244.118 323.7 248.869 324.896C253.621 326.092 257.988 328.485 261.554 331.845C262.493 307.546 242.135 291.034 221.861 289.534C218.873 296.476 205.734 299.196 203.283 292.004C193.056 294.036 178.32 301.397 173.034 310.164C178.014 309.944 183.005 310.147 187.951 310.77C189.46 310.946 190.864 311.63 191.933 312.71C193.002 313.789 193.672 315.2 193.833 316.711C194.084 322.267 194.753 327.797 195.835 333.253C198.432 326.531 204.561 324.842 210.033 324.717C214.78 324.607 226.274 327.003 232.769 325.455ZM228.877 276.725C237.763 274.865 246.886 274.414 255.912 275.387C264.732 276.312 270.314 277.481 272.397 287.16C275.504 301.607 272.268 324.843 267.291 338.749C263.007 350.718 255.159 349.586 244.687 350.381C243.883 350.442 243.668 351.828 244.553 351.857C254.515 352.183 262.93 351.789 267.499 343.676C274.542 331.174 277.095 303.225 275.03 288.922C273.675 279.551 269.697 275.04 260.139 273.795C250.34 272.518 237.891 272.241 228.444 275.293C228.254 275.351 228.095 275.483 228.002 275.658C227.908 275.833 227.889 276.038 227.947 276.228C228.005 276.418 228.136 276.577 228.311 276.67C228.487 276.763 228.692 276.783 228.881 276.725H228.877ZM273.859 279.248C280.267 281.564 287.2 284.052 291.859 289.28C302.345 301.05 296.738 320.39 294.131 334.145C291.228 349.422 288.457 364.724 285.567 380.001C284.658 384.778 286.476 386.263 287.321 381.992C290.351 366.749 293.199 351.433 296.108 336.165C298.873 321.671 304.548 302.4 294.923 289.351C290.019 282.703 281.97 280.126 274.356 277.989C273.541 277.76 273.029 278.945 273.863 279.248H273.859ZM236.817 414.537C236.458 416.026 238.688 416.446 239.056 414.875C242.365 400.825 246.858 384.12 248.458 370.182C249.726 359.141 248.822 352.028 236.338 350.842C226.315 349.891 218.022 353.917 216.198 364.454C213.813 378.227 215.236 400.481 215.731 415.182C215.737 415.362 215.813 415.532 215.941 415.657C216.069 415.782 216.241 415.853 216.42 415.855C216.6 415.857 216.773 415.79 216.904 415.668C217.035 415.545 217.114 415.377 217.124 415.198C217.548 400.493 216.878 385.363 217.758 370.798C218.364 360.82 220.752 353.433 232.302 352.849C244.989 352.21 247.525 357.047 246.412 368.866C244.992 383.863 239.156 404.874 236.822 414.534L236.817 414.537ZM298.326 392.57C299.69 389.952 304.242 385.298 306.89 385.279C309.095 385.267 307.678 389.597 308.377 392.038C314.064 392.538 315.114 392.47 318.927 396.19C319.415 396.665 320.001 396.416 319.585 395.721C318.716 394.224 317.492 392.965 316.02 392.055C317.959 389.138 321.019 387.438 321.943 387.564C323.678 387.802 321.509 393.662 322.624 398.308C323.381 401.446 324.728 405.091 323.425 408.771C322.412 411.633 320.78 414.239 315.85 415.798C311.323 417.228 302.753 416.14 298.893 413.998C304.53 410.575 302.482 402.169 293.836 404.932C282.114 408.679 276.21 409.524 263.875 407.453C263.005 407.301 262.802 408.271 263.708 408.442C273.602 410.542 283.875 409.98 293.481 406.814C298.159 405.337 301.458 408.27 299.217 411.383C296.944 414.539 290.862 415.705 287.174 416.266C277.846 417.416 268.409 417.359 259.095 416.096C249.551 414.946 254.43 390.605 279.305 387.281C285.696 386.424 292.189 387.719 297.762 390.961C295.852 394.173 294.669 397.766 294.299 401.485C294.248 402.208 295.04 402.04 295.208 401.334C295.866 398.287 296.919 395.34 298.338 392.565L298.326 392.57ZM273.366 390.244C271.245 391.358 269.205 395.589 270.174 399.442C270.37 400.216 271.15 400.292 271.148 399.475C271.148 395.839 272.474 394.362 274.153 391.615C274.704 390.729 274.247 389.784 273.379 390.24L273.366 390.244ZM280.758 388.515C278.791 389.872 277.378 391.891 276.778 394.204C276.054 396.462 275.987 398.879 276.586 401.173C276.754 401.913 277.548 401.857 277.596 401.125C277.771 398.449 278.221 394.653 280.164 392.168C280.767 391.392 281.318 390.576 281.811 389.726C282.381 388.776 281.494 388.12 280.77 388.511L280.758 388.515ZM287.033 390.002C285.595 391.252 284.493 392.842 283.826 394.627C283.16 396.412 282.95 398.335 283.215 400.222C283.367 400.979 284.168 401.107 284.259 400.278C284.678 397.019 286.206 394.004 288.586 391.739C290.739 389.565 289.033 388.246 287.045 389.997L287.033 390.002ZM316.708 403.906C317.082 403.685 317.526 403.608 317.953 403.692C318.38 403.776 318.762 404.014 319.026 404.361C319.619 405.179 320.253 404.718 319.915 403.706C319.764 403.359 319.53 403.053 319.233 402.816C318.937 402.58 318.587 402.42 318.214 402.349C317.841 402.279 317.457 402.302 317.095 402.414C316.733 402.527 316.404 402.727 316.136 402.996C316.042 403.083 315.981 403.201 315.965 403.329C315.948 403.456 315.978 403.586 316.047 403.694C316.117 403.802 316.223 403.882 316.346 403.92C316.469 403.958 316.601 403.952 316.72 403.902L316.708 403.906ZM310.785 405.741C310.881 406.45 312.141 407.894 312.94 407.862C313.878 407.818 315.193 406.835 315.1 405.893C315.008 404.95 310.658 404.696 310.791 405.736L310.785 405.741ZM306.109 403.555C306.441 403.202 306.885 402.975 307.365 402.911C307.845 402.846 308.333 402.949 308.746 403.202C309.528 403.782 310.226 403.059 309.56 402.388C309.264 402.081 308.9 401.848 308.497 401.707C308.094 401.567 307.664 401.523 307.241 401.58C306.818 401.637 306.415 401.792 306.063 402.034C305.712 402.276 305.422 402.597 305.218 402.972C304.815 403.646 305.663 403.988 306.121 403.55L306.109 403.555ZM139.416 331.618C139.736 328.944 139.898 327.629 137.047 327.491C128.857 327.094 123.035 329.158 118.008 333.074C115.168 335.244 112.812 337.981 111.087 341.11C109.363 344.24 108.309 347.695 107.992 351.254C107.97 351.426 108.015 351.6 108.119 351.74C108.222 351.879 108.375 351.974 108.546 352.003C108.717 352.033 108.892 351.996 109.036 351.899C109.181 351.802 109.282 351.654 109.319 351.484C110.391 344.849 113.863 338.838 119.076 334.595C124.465 330.388 131.288 328.461 138.081 329.226C137.59 336.322 134.675 343.034 129.825 348.238C124.068 354.372 119.291 355.737 111.652 357.467C111.499 357.512 111.367 357.61 111.279 357.744C111.192 357.877 111.155 358.038 111.175 358.196C111.195 358.355 111.271 358.501 111.39 358.608C111.508 358.716 111.661 358.777 111.82 358.782C118.468 358.699 126.501 354.176 131.014 349.444C135.607 344.525 138.545 338.292 139.416 331.618ZM196.963 415.236C194.724 410.325 189.16 404.025 183.101 405.249C179.314 406.006 175.146 410.059 173.296 413.342C172.324 415.067 172.761 417.049 174.944 417.323C180.005 417.779 185.09 417.911 190.167 417.719C195.893 417.788 201.61 417.256 207.225 416.132C208.102 415.902 207.667 414.707 206.899 414.692C203.599 414.628 200.272 414.998 196.963 415.236ZM152.648 417.307C158.354 417.629 166.132 417.61 171.537 416.273C172.377 416.066 172.002 414.875 171.234 414.875C170.466 414.875 169.665 414.902 168.881 414.93C167.654 411.924 166.154 408.87 163.191 407.247C158.422 404.641 153.386 408.403 150.109 411.718C145.879 416.002 148.279 417.06 152.648 417.307ZM91.3483 349.851C91.5381 349.841 91.7165 349.757 91.8462 349.618C91.976 349.479 92.0471 349.295 92.0448 349.105C92.0424 348.915 91.9668 348.733 91.8337 348.598C91.7005 348.462 91.5201 348.383 91.3301 348.377C83.6962 348.58 76.1321 346.876 69.3217 343.421C59.2576 338.01 53.2415 329.891 49.5146 319.347C55.6988 318.579 65.6569 318.107 74.3606 320.583C87.5411 324.329 92.9421 333.309 95.4267 345.912C95.5782 346.686 96.9023 346.595 96.8311 345.777C94.6434 320.447 71.9063 315.209 50.1857 317.541C47.786 317.8 47.2906 317.935 48.245 320.453C50.4126 326.642 53.7824 332.342 58.1607 337.225C66.2144 345.629 79.5873 351.356 91.3483 349.851ZM342.563 418.952C307.087 418.043 71.2836 419.008 55.8382 419.57C55.1019 419.597 55.0807 420.846 55.8276 420.868C74.5015 421.446 93.2314 421.083 111.911 421.044C130.591 421.005 321.587 421.139 342.55 420.491C343.423 420.465 343.438 418.973 342.563 418.952ZM116.885 415.605C118.945 405.451 120.48 395.198 121.483 384.886C123.627 384.722 123.874 384.492 124.312 382.243C124.722 380.399 125.013 378.531 125.184 376.65C125.351 373.971 125.739 372.802 122.677 372.737C110.063 372.459 94.7086 372.341 82.2431 373.191C82.0727 373.203 81.9134 373.28 81.7985 373.406C81.6836 373.533 81.6222 373.699 81.6271 373.869C81.632 374.04 81.7029 374.202 81.8248 374.322C81.9467 374.441 82.1102 374.509 82.281 374.511C95.8675 375.367 110.351 373.678 123.489 374.837C123.47 377.586 123.149 380.325 122.532 383.004C109.048 383.939 96.2326 383.805 82.7522 383.64C81.8601 380.838 81.1889 377.97 80.7448 375.062C80.6145 374.293 79.3162 374.32 79.3358 375.138C79.4441 378.099 79.9936 381.027 80.966 383.825C81.4553 385.292 82.5295 385.523 84.0945 385.513C96.2145 385.431 107.744 385.775 119.915 384.998C118.658 396.84 116.734 404.629 115.446 413.664C114.99 416.852 116.532 417.485 116.885 415.605ZM148.927 354.467C149.639 354.482 149.927 353.334 149.167 353.18C144.584 352.246 139.415 351.924 135.548 355.061C130.72 358.979 132.541 367.018 133.399 372.494C135.015 382.807 140.368 405.088 144.44 415.769C144.778 416.655 146.223 416.072 145.975 415.208C142.734 403.879 137.962 387.62 135.421 372.296C134.798 368.536 133.427 362.133 135.118 358.681C137.604 353.636 144.293 354.363 148.927 354.467ZM84.0505 388.137C84.452 393.936 87.3275 410.256 89.456 415.296C89.5395 415.456 89.6765 415.582 89.8431 415.652C90.0097 415.722 90.1955 415.732 90.3684 415.679C90.5412 415.626 90.6902 415.515 90.7895 415.364C90.8887 415.213 90.9321 415.032 90.912 414.852C88.7137 405.921 87.1729 399.248 85.3989 387.905C85.2656 387.052 83.996 387.3 84.0505 388.137ZM101.322 332.459C101.415 332.604 101.56 332.708 101.728 332.749C101.895 332.789 102.072 332.764 102.221 332.677C102.371 332.591 102.481 332.45 102.529 332.284C102.577 332.118 102.559 331.941 102.479 331.788C98.8437 325.305 97.6608 317.73 99.146 310.448C100.285 305.309 102.783 300.572 106.379 296.729C109.975 292.886 114.537 290.079 119.588 288.601C121.397 295.105 121.865 301.909 120.964 308.599C119.2 320.136 114.622 326.264 107.365 334.634C106.827 335.256 107.697 336.215 108.36 335.695C113.045 332.083 117.315 325.282 119.585 319.848C123.56 310.332 124.51 298.388 121.136 288.519C120.504 286.668 120.312 286.532 118.49 287.101C112.022 289.152 106.387 293.232 102.421 298.738C98.9239 303.621 96.9524 309.432 96.7561 315.435C96.5598 321.438 98.1475 327.365 101.318 332.467L101.322 332.459ZM101.602 370.879C101.618 371.728 103.068 371.74 103.099 370.879C103.126 370.131 103.155 369.382 103.186 368.631C109.896 354.382 116.555 346.608 128.748 336.795C129.323 336.331 128.596 335.244 127.917 335.583C118.702 340.208 107.63 354.866 103.388 364.416C104.364 343.458 106.083 328.39 111.371 307.401C111.564 306.634 110.272 306.277 110.019 307.042C105.054 322.105 102.503 342.426 101.743 358.297C96.0342 345.382 84.3853 335.045 71.526 329.606C70.7155 329.264 70.2761 330.515 71.0609 330.882C84.9989 337.245 95.2282 348.666 101.6 362.412C101.535 365.23 101.546 368.048 101.599 370.879H101.602Z" fill="#38A1FF"/>
<path d="M205.976 334.359C204.734 335.978 203.696 336.162 202.896 338.47C202.295 340.271 202.374 342.229 203.117 343.976C203.186 344.132 203.191 344.308 203.133 344.468C203.074 344.628 202.957 344.759 202.804 344.834C202.651 344.909 202.475 344.922 202.313 344.871C202.15 344.819 202.014 344.707 201.933 344.558C201.357 343.568 200.993 342.469 200.864 341.331C200.736 340.192 200.845 339.04 201.186 337.946C201.719 336.234 203.396 333.654 205.255 333.265C205.392 333.241 205.534 333.257 205.662 333.312C205.789 333.367 205.899 333.458 205.975 333.575C206.052 333.691 206.093 333.827 206.093 333.967C206.093 334.106 206.053 334.242 205.976 334.359ZM210.267 337.895C210.343 337.8 210.393 337.687 210.411 337.567C210.43 337.447 210.416 337.325 210.371 337.212C210.326 337.099 210.252 337 210.156 336.926C210.06 336.851 209.946 336.803 209.826 336.787C207.875 336.716 206.244 339.389 205.952 341.079C205.769 342.117 205.892 343.186 206.308 344.155C206.723 345.124 207.413 345.951 208.291 346.533C208.431 346.633 208.605 346.676 208.775 346.652C208.946 346.627 209.101 346.539 209.208 346.404C209.315 346.269 209.367 346.099 209.352 345.927C209.337 345.755 209.256 345.596 209.127 345.482C208.568 344.956 208.141 344.304 207.885 343.58C207.628 342.856 207.548 342.081 207.652 341.32C208.052 339.025 209.638 338.511 210.267 337.895ZM259.262 331.467C259.11 330.586 257.747 330.686 257.747 331.527C257.785 337.304 255.836 343.312 245.804 345.3C234.778 347.333 223.393 345.026 214.028 338.861C213.892 338.765 213.723 338.727 213.558 338.754C213.393 338.782 213.246 338.873 213.147 339.008C213.049 339.144 213.008 339.312 213.033 339.477C213.059 339.643 213.148 339.791 213.282 339.892C222.362 346.891 234.946 349.309 246.134 347.215C254.499 345.647 260.851 340.932 259.262 331.467ZM216.893 348.548C215.718 348.659 199.192 349.142 198.066 348.579C196.941 348.015 192.461 333.644 191.375 319.744C191.063 315.739 190.435 313.894 185.557 313.176C181.606 312.593 150.471 312.884 147.703 313.176C145.325 313.426 143.517 314.361 143.714 319.121C144.182 330.438 150.156 351.693 153.377 353.425C156.88 355.302 212.601 354.82 216.752 353.987C220.176 353.299 219.552 348.298 216.893 348.548ZM167.685 329.124C163.246 329.285 164.418 338.669 169.75 338.46C174.516 338.278 173.299 328.921 167.685 329.124ZM176.293 394.532C176.088 393.774 174.91 394.068 174.963 394.822C175.093 396.648 176.334 402.959 176.9 405.906C177.014 406.5 178.035 406.188 178.135 405.643C178.37 404.356 176.758 396.26 176.293 394.532ZM184.589 394.38C184.203 393.774 183.156 394.198 183.416 394.91C184.693 397.907 185.712 401.007 186.46 404.178C186.611 404.915 187.801 404.73 187.774 403.955C187.409 400.571 186.325 397.305 184.592 394.375L184.589 394.38ZM201.792 403.846C200.753 400.857 200.202 397.72 200.16 394.556C200.146 394.4 200.077 394.254 199.966 394.145C199.854 394.035 199.707 393.969 199.551 393.958C199.395 393.947 199.24 393.992 199.115 394.085C198.989 394.178 198.9 394.313 198.865 394.465C198.485 397.412 198.764 400.406 199.683 403.232C200.592 406.145 202.627 408.612 202.146 411.716C202.112 411.888 202.141 412.067 202.228 412.22C202.315 412.373 202.454 412.489 202.62 412.547C202.786 412.605 202.967 412.602 203.13 412.538C203.294 412.473 203.428 412.352 203.51 412.196C205.029 409.506 202.719 406.318 201.792 403.841V403.846ZM162.502 394.778C162.422 394.643 162.297 394.541 162.149 394.49C162.001 394.439 161.84 394.442 161.694 394.499C161.548 394.556 161.427 394.663 161.353 394.801C161.279 394.94 161.256 395.1 161.29 395.253C161.838 397.828 164.155 402.781 162.603 405.1C162.534 405.218 162.501 405.353 162.508 405.489C162.515 405.625 162.562 405.755 162.643 405.865C162.723 405.975 162.834 406.059 162.962 406.106C163.089 406.153 163.228 406.162 163.361 406.132C166.541 405.102 163.779 396.716 162.502 394.774V394.778ZM176.417 381.365C174.64 374.385 172.584 362.609 178.394 357.049C169.321 356.914 161.758 356.746 159.884 356.746C156.443 356.746 152.241 357.561 151.188 362.471C149.899 368.489 154.44 382.142 158.881 392.086C164.774 392.433 170.683 392.412 176.573 392.024C176.287 388.477 176.232 384.915 176.411 381.36L176.417 381.365ZM181.744 357.096C172.048 363.398 179.032 384.133 181.939 392.395C188.226 392.748 194.529 392.727 200.813 392.33C200.1 389.265 199.974 380.947 201.349 379.195C202.725 377.444 206.859 377.612 213.03 377.694C213.076 370.564 212.736 359.835 217.051 356.457C213.204 357.326 196.267 357.282 181.744 357.091V357.096ZM237.496 325.319C228.295 328.893 223.478 327.667 214.165 327.234C207.758 326.931 198.93 328.621 197.18 335.99C197.135 336.158 197.157 336.336 197.242 336.487C197.326 336.638 197.466 336.751 197.632 336.8C197.798 336.85 197.977 336.832 198.13 336.752C198.284 336.672 198.4 336.535 198.454 336.371C201.369 328.768 210.271 328.608 217.125 329.224C223.979 329.841 232.027 330.403 238.138 326.531C238.299 326.447 238.421 326.302 238.475 326.128C238.53 325.955 238.513 325.766 238.429 325.605C238.345 325.444 238.2 325.322 238.026 325.268C237.853 325.213 237.665 325.23 237.503 325.314L237.496 325.319ZM235.087 290.989C227.932 285.123 225.892 272.21 223.056 266.087C217.418 253.906 205.314 250.107 192.797 252.92C183.041 255.112 183.175 265.555 197.544 264.352C205.208 263.71 208.861 261.777 208.888 261.763C209.749 265.125 213.5 270.265 213.942 269.315C215.024 266.985 217.31 267.97 217.683 270.112C218.223 273.221 216.525 274.787 214.762 274.719C214.133 274.695 217.266 285.605 218.046 287.641C218.251 288.174 218.933 288.085 219.423 288.095C224.772 288.154 230.07 289.133 235.087 290.989ZM233.084 249.158C225.255 243.024 211.464 236.169 201.484 235.584C200.831 235.503 200.168 235.589 199.557 235.834C190.467 238.341 177.547 244.683 170.318 250.693C169.872 251.063 170.222 251.702 170.681 251.84C175.544 253.104 180.339 254.618 185.047 256.376C185.921 256.742 186.287 255.348 185.454 254.989C181.233 253.23 176.86 251.857 172.39 250.888C180.502 245.506 191.426 238.885 200.954 236.906C210.255 237.487 223.574 243.866 231.03 249.498C225.585 250.649 220.221 252.152 214.971 253.999C214.817 254.058 214.691 254.173 214.62 254.322C214.548 254.471 214.537 254.641 214.587 254.799C214.638 254.956 214.746 255.088 214.891 255.167C215.035 255.246 215.205 255.267 215.365 255.226C221.534 253.582 226.544 251.838 232.813 250.597C232.955 250.551 233.083 250.467 233.182 250.355C233.281 250.242 233.347 250.105 233.375 249.958C233.403 249.811 233.39 249.659 233.339 249.518C233.288 249.378 233.2 249.253 233.084 249.158ZM169.554 274.583C170.715 277.128 171.322 279.891 171.333 282.688C171.254 283.406 170.228 283.374 170.007 282.775C169.66 281.829 169.53 280.626 169.218 279.604C169.104 281.432 169.147 283.256 169.047 285.082C169.053 285.256 168.991 285.427 168.874 285.556C168.757 285.685 168.593 285.764 168.419 285.775C168.245 285.786 168.073 285.728 167.941 285.614C167.808 285.5 167.726 285.339 167.71 285.165C167.495 283.365 167.397 281.553 167.419 279.74C166.9 280.997 166.5 282.3 166.227 283.632C166.193 283.795 166.096 283.937 165.957 284.028C165.818 284.119 165.649 284.151 165.486 284.117C165.324 284.083 165.181 283.986 165.091 283.847C165 283.708 164.968 283.538 165.002 283.376C165.311 280.749 165.948 278.17 166.897 275.701C167.307 274.953 168.768 273.318 169.554 274.583ZM169.716 253.329C169.768 253.185 169.869 253.064 170.002 252.988C170.134 252.912 170.29 252.886 170.44 252.914C170.59 252.943 170.725 253.024 170.821 253.143C170.917 253.262 170.967 253.411 170.963 253.564C170.006 259.587 169.554 265.68 169.613 271.779C169.613 272.676 168.28 272.563 168.25 271.698C168.054 265.54 168.546 259.379 169.716 253.329ZM194.752 246.263C194.621 245.668 193.593 245.542 193.515 246.198C193.399 247.186 193.318 250.413 193.343 251.361C193.34 251.544 193.408 251.72 193.532 251.854C193.657 251.987 193.828 252.068 194.011 252.077C194.193 252.087 194.372 252.026 194.51 251.906C194.648 251.787 194.735 251.619 194.752 251.437C194.868 249.714 194.868 247.986 194.752 246.263ZM209.093 245.354C205.016 243.464 200.406 243.062 196.064 244.219C195.981 244.24 195.903 244.278 195.835 244.33C195.768 244.382 195.711 244.447 195.67 244.521C195.628 244.596 195.602 244.678 195.594 244.763C195.585 244.848 195.594 244.934 195.62 245.015C195.646 245.096 195.688 245.172 195.744 245.236C195.8 245.301 195.868 245.353 195.945 245.39C196.022 245.427 196.106 245.448 196.191 245.451C196.276 245.455 196.361 245.441 196.441 245.41C200.599 244.619 204.9 245.119 208.765 246.843C208.551 248.535 208.528 250.246 208.694 251.943C208.7 252.126 208.778 252.3 208.911 252.425C209.044 252.551 209.222 252.619 209.405 252.613C209.589 252.608 209.762 252.53 209.888 252.396C210.014 252.263 210.081 252.085 210.076 251.902C209.811 246.281 210.676 246.224 209.093 245.354ZM206.382 287.956C208.708 286.937 210.768 285.399 212.404 283.458C212.889 282.905 212.015 282.134 211.474 282.594C208.78 284.879 205.963 287.58 202.128 287.17C198.045 286.732 196.859 282.571 196.012 279.195C195.811 278.389 194.555 278.589 194.726 279.426C195.544 283.394 197.06 287.789 201.612 288.544C202.762 288.729 203.939 288.674 205.067 288.38C205.275 289.724 205.037 291.025 205.143 292.168C205.17 292.321 205.251 292.46 205.372 292.559C205.493 292.657 205.646 292.709 205.802 292.704C205.958 292.699 206.107 292.639 206.221 292.533C206.336 292.427 206.409 292.283 206.426 292.128C206.583 290.74 206.568 289.338 206.382 287.954V287.956ZM208.537 277.82C208.495 277.665 208.4 277.53 208.267 277.44C208.134 277.35 207.974 277.31 207.814 277.328C207.655 277.347 207.507 277.422 207.399 277.54C207.29 277.658 207.228 277.812 207.223 277.972C207.464 280.37 205.135 280.926 203.322 281.414C203.165 281.459 203.032 281.563 202.951 281.704C202.869 281.845 202.846 282.012 202.885 282.17C202.924 282.328 203.023 282.465 203.161 282.551C203.299 282.638 203.466 282.667 203.625 282.634C205.911 282.42 209.215 281.287 208.537 277.819V277.82ZM201.289 277.419C200.803 277.557 200.292 277.574 199.798 277.469C200.004 276.748 200.218 276.033 200.386 275.303C200.434 275.144 200.417 274.972 200.339 274.825C200.261 274.679 200.128 274.569 199.97 274.52C199.811 274.471 199.639 274.487 199.492 274.564C199.345 274.641 199.234 274.773 199.184 274.931C198.927 275.629 198.699 276.336 198.5 277.052C198.414 277.236 198.375 277.438 198.385 277.641C198.396 277.843 198.455 278.04 198.558 278.214C198.662 278.389 198.806 278.535 198.979 278.641C199.151 278.748 199.347 278.81 199.55 278.823C200.29 278.965 201.055 278.923 201.775 278.701C201.868 278.675 201.954 278.631 202.029 278.57C202.103 278.51 202.164 278.434 202.208 278.349C202.252 278.263 202.277 278.169 202.282 278.073C202.287 277.977 202.273 277.881 202.239 277.791C202.204 277.701 202.152 277.62 202.084 277.551C202.017 277.483 201.936 277.429 201.846 277.394C201.757 277.359 201.661 277.343 201.565 277.347C201.469 277.351 201.375 277.375 201.289 277.417V277.419ZM195.811 274.465C195.776 273.915 195.547 273.298 194.912 273.253C193.315 273.144 193.932 276.081 195.18 275.933C195.851 275.856 195.844 274.963 195.811 274.463V274.465ZM204.893 271.457C204.852 271.311 204.779 271.175 204.678 271.061C204.578 270.946 204.453 270.856 204.313 270.797C204.172 270.737 204.02 270.71 203.868 270.718C203.716 270.726 203.568 270.768 203.434 270.841C203.188 271.044 203.021 271.327 202.963 271.641C202.906 271.955 202.961 272.279 203.119 272.556C203.795 274.124 205.779 273.747 204.893 271.457ZM211.226 268.2C210.055 267.886 208.823 267.884 207.652 268.193C205.193 263.173 199.698 263.97 200.13 269.949C199.79 269.898 199.444 269.919 199.113 270.009C198.782 270.099 198.473 270.256 198.206 270.471C197.954 269.705 197.511 269.015 196.919 268.466C196.327 267.918 195.606 267.529 194.823 267.335C191.213 266.747 190.544 271.548 191.187 274.153C191.688 276.178 193.244 278.32 195.591 278.03C199.116 277.593 198.432 272.229 198.535 272.091C198.708 271.8 198.973 271.576 199.288 271.454C199.603 271.332 199.95 271.319 200.274 271.417C200.728 273.909 202.698 276.846 205.605 276.157C208.397 275.495 208.787 271.741 208.131 269.45C209.121 269.344 210.119 269.336 211.111 269.429C211.246 269.401 211.369 269.33 211.461 269.227C211.554 269.123 211.61 268.993 211.622 268.855C211.635 268.717 211.602 268.579 211.529 268.461C211.457 268.343 211.348 268.252 211.22 268.2H211.226ZM205.602 274.634C207.622 273.688 206.966 269.902 206.216 268.517C205.625 267.42 204.167 265.726 202.748 266.403C201.513 266.991 201.172 268.779 201.536 270.524C202.107 273.36 203.333 275.695 205.596 274.634H205.602ZM197.098 271.877C196.836 270.23 195.994 268.741 194.352 268.696C192.262 268.641 192.099 272.204 192.412 273.678C192.694 274.993 193.737 276.771 195.318 276.654C197.236 276.515 197.279 273.057 197.092 271.877H197.098Z" fill="#191919"/>
</g>
<path d="M94.7632 507.542H84.0942V496.86H94.7632V507.542ZM87.1826 505.088H91.6992V499.351H87.1826V505.088ZM101.062 511.252H97.9492V495.042H101.062V511.252ZM104.065 504.001H100.159V501.438H104.065V504.001ZM101.855 516.868H86.6455V514.353H101.855V516.868ZM89.7583 515.598H86.6455V509.641H89.7583V515.598ZM112.842 498.203C112.842 499.725 112.606 501.137 112.134 502.439C111.67 503.741 110.962 504.876 110.01 505.845C109.066 506.805 107.894 507.521 106.494 507.993L104.834 505.491C106.063 505.1 107.084 504.535 107.898 503.794C108.72 503.045 109.322 502.195 109.705 501.243C110.095 500.291 110.295 499.277 110.303 498.203V496.189H112.842V498.203ZM113.44 498.044C113.432 499.078 113.607 500.042 113.965 500.938C114.331 501.825 114.893 502.614 115.649 503.306C116.414 503.997 117.375 504.522 118.53 504.88L116.858 507.31C115.523 506.846 114.417 506.166 113.538 505.271C112.659 504.376 112.004 503.322 111.572 502.109C111.149 500.889 110.938 499.534 110.938 498.044V496.189H113.44V498.044ZM123.767 508.042H120.667V495.005H123.767V508.042ZM116.174 508.628C117.753 508.628 119.116 508.799 120.264 509.141C121.411 509.474 122.29 509.967 122.9 510.618C123.519 511.269 123.832 512.046 123.84 512.949C123.832 513.853 123.519 514.626 122.9 515.269C122.29 515.92 121.411 516.412 120.264 516.746C119.116 517.079 117.753 517.246 116.174 517.246C114.604 517.246 113.245 517.079 112.097 516.746C110.958 516.412 110.079 515.92 109.46 515.269C108.85 514.626 108.545 513.853 108.545 512.949C108.545 512.046 108.85 511.269 109.46 510.618C110.079 509.967 110.958 509.474 112.097 509.141C113.245 508.799 114.604 508.628 116.174 508.628ZM116.174 511.033C115.181 511.041 114.351 511.114 113.684 511.252C113.017 511.391 112.508 511.602 112.158 511.887C111.808 512.172 111.633 512.526 111.633 512.949C111.633 513.356 111.808 513.698 112.158 513.975C112.508 514.251 113.017 514.463 113.684 514.609C114.36 514.756 115.19 514.829 116.174 514.829C117.167 514.829 118.001 514.756 118.677 514.609C119.352 514.463 119.861 514.251 120.203 513.975C120.553 513.698 120.728 513.356 120.728 512.949C120.728 512.526 120.557 512.172 120.215 511.887C119.873 511.602 119.36 511.391 118.677 511.252C118.001 511.114 117.167 511.041 116.174 511.033ZM121.094 501.646H116.492V499.106H121.094V501.646ZM145.215 506.431H142.126V495.005H145.215V506.431ZM145.239 513.242H133.435V515.623H130.396V511.021H142.139V509.666H130.347V507.31H145.239V513.242ZM145.85 517.087H130.396V514.695H145.85V517.087ZM134.692 498.032C134.684 499.367 134.436 500.612 133.948 501.768C133.459 502.923 132.727 503.932 131.75 504.795C130.774 505.649 129.582 506.276 128.174 506.675L126.758 504.221C127.938 503.888 128.931 503.399 129.736 502.756C130.55 502.105 131.152 501.377 131.543 500.571C131.942 499.757 132.141 498.911 132.141 498.032V497.104H134.692V498.032ZM135.303 498.032C135.303 498.862 135.498 499.656 135.889 500.413C136.279 501.169 136.873 501.849 137.671 502.451C138.468 503.045 139.453 503.497 140.625 503.806L139.148 506.223C137.764 505.841 136.601 505.247 135.657 504.441C134.713 503.627 134.001 502.671 133.521 501.572C133.049 500.474 132.817 499.294 132.825 498.032V497.104H135.303V498.032ZM139.783 498.533H127.563V496.055H139.783V498.533ZM166.028 512.375H162.891V495.005H166.028V512.375ZM168.872 504.893H164.917V502.329H168.872V504.893ZM166.785 516.868H151.123V514.353H166.785V516.868ZM154.272 515.098H151.123V511.228H154.272V515.098ZM156.506 508.945H153.406V505.686H156.506V508.945ZM148.022 507.798C150.594 507.798 153.035 507.749 155.347 507.651C157.658 507.546 159.831 507.346 161.865 507.053L162.097 509.189C160.144 509.564 158.13 509.816 156.055 509.946C153.979 510.076 151.615 510.162 148.962 510.203C148.84 510.203 148.735 510.203 148.645 510.203C148.556 510.203 148.45 510.203 148.328 510.203L148.022 507.798ZM161.304 499.07H148.584V496.824H161.304V499.07ZM154.944 499.68C156.026 499.68 156.978 499.819 157.8 500.095C158.622 500.364 159.257 500.763 159.705 501.292C160.152 501.812 160.38 502.435 160.388 503.159C160.38 503.843 160.152 504.441 159.705 504.954C159.257 505.458 158.622 505.853 157.8 506.138C156.978 506.414 156.026 506.553 154.944 506.553C153.853 506.553 152.897 506.414 152.075 506.138C151.253 505.861 150.614 505.47 150.159 504.966C149.711 504.453 149.487 503.851 149.487 503.159C149.487 502.435 149.711 501.812 150.159 501.292C150.614 500.763 151.249 500.364 152.063 500.095C152.885 499.819 153.845 499.68 154.944 499.68ZM154.944 501.768C154.407 501.768 153.955 501.816 153.589 501.914C153.223 502.012 152.942 502.166 152.747 502.378C152.559 502.59 152.466 502.85 152.466 503.159C152.466 503.428 152.559 503.664 152.747 503.867C152.942 504.062 153.223 504.213 153.589 504.319C153.963 504.417 154.415 504.465 154.944 504.465C155.457 504.465 155.896 504.417 156.262 504.319C156.637 504.213 156.917 504.062 157.104 503.867C157.3 503.664 157.397 503.428 157.397 503.159C157.397 502.85 157.304 502.59 157.117 502.378C156.93 502.166 156.649 502.012 156.274 501.914C155.908 501.816 155.465 501.768 154.944 501.768ZM156.506 497.825H153.406V494.944H156.506V497.825ZM173.743 509.434C173.743 508.457 173.828 507.668 173.999 507.065C174.178 506.455 174.426 505.967 174.744 505.601C175.061 505.234 175.492 504.88 176.038 504.539C176.444 504.286 176.782 504.038 177.051 503.794C177.319 503.542 177.527 503.269 177.673 502.976C177.828 502.675 177.905 502.341 177.905 501.975C177.905 501.584 177.812 501.235 177.625 500.925C177.445 500.616 177.189 500.38 176.855 500.217C176.53 500.046 176.168 499.965 175.769 499.973C175.387 499.965 175.024 500.046 174.683 500.217C174.349 500.388 174.076 500.64 173.865 500.974C173.653 501.308 173.539 501.707 173.523 502.17H170.056C170.072 501.064 170.337 500.128 170.85 499.363C171.362 498.598 172.046 498.028 172.9 497.654C173.755 497.271 174.715 497.08 175.781 497.08C176.929 497.08 177.942 497.271 178.821 497.654C179.7 498.028 180.383 498.577 180.872 499.302C181.368 500.018 181.616 500.868 181.616 501.853C181.616 502.821 181.388 503.647 180.933 504.331C180.477 505.007 179.818 505.601 178.955 506.113C178.483 506.398 178.105 506.687 177.82 506.98C177.543 507.265 177.332 507.607 177.185 508.005C177.039 508.396 176.965 508.872 176.965 509.434V509.714H173.743V509.434ZM175.427 515.22C175.061 515.22 174.719 515.13 174.402 514.951C174.084 514.764 173.832 514.512 173.645 514.194C173.466 513.877 173.381 513.531 173.389 513.157C173.381 512.791 173.466 512.453 173.645 512.144C173.832 511.834 174.084 511.59 174.402 511.411C174.719 511.232 175.061 511.143 175.427 511.143C175.785 511.143 176.119 511.232 176.428 511.411C176.746 511.59 176.998 511.838 177.185 512.156C177.372 512.465 177.47 512.799 177.478 513.157C177.47 513.531 177.372 513.877 177.185 514.194C176.998 514.512 176.746 514.764 176.428 514.951C176.119 515.13 175.785 515.22 175.427 515.22ZM70.874 542.334H67.9077V530.054H70.874V542.334ZM65.1611 537.915H61.8286V535.461H65.1611V537.915ZM66.5771 542.163H63.6597V530.396H66.5771V542.163ZM70.874 548.596H58.7891V550.476H55.6885V546.472H67.7856V545.312H55.6763V543.091H70.874V548.596ZM71.5332 552.087H55.6885V549.805H71.5332V552.087ZM62.3047 534.131H51.6724V531.787H62.3047V534.131ZM57.0068 534.668C57.8939 534.668 58.6914 534.823 59.3994 535.132C60.1074 535.433 60.6608 535.864 61.0596 536.426C61.4583 536.979 61.6577 537.618 61.6577 538.342C61.6577 539.067 61.4583 539.705 61.0596 540.259C60.6608 540.804 60.1074 541.231 59.3994 541.541C58.6995 541.842 57.902 541.988 57.0068 541.98C56.1035 541.988 55.2979 541.842 54.5898 541.541C53.89 541.231 53.3407 540.804 52.9419 540.259C52.5431 539.705 52.3438 539.067 52.3438 538.342C52.3438 537.618 52.5431 536.979 52.9419 536.426C53.3407 535.864 53.894 535.433 54.6021 535.132C55.3101 534.823 56.1117 534.668 57.0068 534.668ZM57.0068 536.816C56.6162 536.816 56.2744 536.877 55.9814 537C55.6885 537.113 55.4565 537.288 55.2856 537.524C55.1229 537.76 55.0415 538.033 55.0415 538.342C55.0415 538.66 55.1229 538.936 55.2856 539.172C55.4565 539.4 55.6885 539.571 55.9814 539.685C56.2744 539.799 56.6162 539.86 57.0068 539.868C57.3893 539.86 57.7271 539.799 58.02 539.685C58.3211 539.571 58.5531 539.4 58.7158 539.172C58.8786 538.936 58.96 538.66 58.96 538.342C58.96 538.033 58.8786 537.76 58.7158 537.524C58.5531 537.288 58.3211 537.113 58.02 537C57.7189 536.877 57.3812 536.816 57.0068 536.816ZM58.5083 533.704H55.4321V529.993H58.5083V533.704ZM84.4971 532.947C84.4971 534.558 84.1187 536.068 83.3618 537.476C82.6131 538.883 81.5389 540.088 80.1392 541.089C78.7394 542.082 77.1037 542.765 75.2319 543.14L73.9014 540.552C75.4883 540.267 76.8758 539.73 78.064 538.94C79.2603 538.151 80.1717 537.231 80.7983 536.182C81.4331 535.132 81.7546 534.054 81.7627 532.947V531.36H84.4971V532.947ZM85.0708 532.947C85.0708 534.07 85.3841 535.16 86.0107 536.218C86.6455 537.268 87.561 538.184 88.7573 538.965C89.9536 539.746 91.3615 540.275 92.981 540.552L91.6138 543.14C89.7502 542.765 88.1185 542.086 86.7188 541.101C85.3271 540.108 84.257 538.912 83.5083 537.512C82.7677 536.104 82.3975 534.583 82.3975 532.947V531.36H85.0708V532.947ZM93.7134 549.524H73.4009V546.973H93.7134V549.524ZM104.456 546.667H95.6177V532.324H104.456V546.667ZM98.5352 544.214H101.55V534.778H98.5352V544.214ZM114.258 552.246H111.267V530.005H114.258V552.246ZM107.947 540.601H102.905V538.123H107.947V540.601ZM109.631 551.221H106.689V530.347H109.631V551.221ZM135.205 552.307H132.043V530.005H135.205V552.307ZM123.132 531.58C124.247 531.58 125.248 531.905 126.135 532.556C127.03 533.199 127.726 534.123 128.223 535.327C128.727 536.523 128.979 537.915 128.979 539.502C128.979 541.097 128.727 542.497 128.223 543.701C127.726 544.897 127.03 545.817 126.135 546.46C125.248 547.103 124.247 547.424 123.132 547.424C122.001 547.432 120.988 547.115 120.093 546.472C119.206 545.821 118.51 544.897 118.005 543.701C117.501 542.497 117.249 541.097 117.249 539.502C117.249 537.915 117.501 536.523 118.005 535.327C118.51 534.123 119.206 533.199 120.093 532.556C120.988 531.905 122.001 531.58 123.132 531.58ZM123.132 534.399C122.555 534.391 122.046 534.587 121.606 534.985C121.175 535.376 120.841 535.958 120.605 536.731C120.378 537.496 120.268 538.42 120.276 539.502C120.268 540.584 120.378 541.508 120.605 542.273C120.841 543.038 121.175 543.62 121.606 544.019C122.046 544.409 122.555 544.604 123.132 544.604C123.694 544.604 124.19 544.409 124.622 544.019C125.053 543.62 125.387 543.038 125.623 542.273C125.859 541.508 125.977 540.584 125.977 539.502C125.977 538.42 125.859 537.496 125.623 536.731C125.387 535.966 125.053 535.384 124.622 534.985C124.19 534.587 123.694 534.391 123.132 534.399ZM156.323 543.97H140.601V541.516H156.323V543.97ZM158.533 549.658H138.22V547.131H158.533V549.658ZM156.152 534.192H143.774V542.175H140.601V531.653H156.152V534.192ZM155.627 538.965H142.847V536.536H155.627V538.965ZM172.498 540.735H168.787V538.245H172.498V540.735ZM179.077 552.246H176.086V530.005H179.077V552.246ZM174.451 551.221H171.509V530.347H174.451V551.221ZM164.844 531.604C165.82 531.604 166.679 531.93 167.419 532.581C168.168 533.232 168.742 534.163 169.141 535.376C169.548 536.589 169.751 538.013 169.751 539.648C169.751 541.292 169.548 542.725 169.141 543.945C168.742 545.158 168.168 546.094 167.419 546.753C166.679 547.404 165.82 547.729 164.844 547.729C163.867 547.729 163.017 547.404 162.292 546.753C161.568 546.094 161.003 545.158 160.596 543.945C160.197 542.725 159.998 541.292 159.998 539.648C159.998 538.013 160.197 536.589 160.596 535.376C161.003 534.163 161.568 533.232 162.292 532.581C163.017 531.93 163.867 531.604 164.844 531.604ZM164.844 534.558C164.421 534.558 164.062 534.745 163.77 535.12C163.477 535.494 163.253 536.064 163.098 536.829C162.944 537.585 162.87 538.525 162.878 539.648C162.87 540.771 162.944 541.715 163.098 542.48C163.253 543.237 163.477 543.803 163.77 544.177C164.071 544.552 164.429 544.739 164.844 544.739C165.275 544.739 165.641 544.552 165.942 544.177C166.252 543.803 166.484 543.237 166.638 542.48C166.801 541.724 166.882 540.78 166.882 539.648C166.882 538.525 166.801 537.585 166.638 536.829C166.484 536.064 166.252 535.494 165.942 535.12C165.641 534.745 165.275 534.558 164.844 534.558ZM200.671 552.246H197.742V530.005H200.671V552.246ZM193.616 541.064H188.757V538.586H193.616V541.064ZM195.947 551.27H193.018V530.53H195.947V551.27ZM191.138 532.666C191.13 534.871 190.865 536.869 190.344 538.66C189.832 540.45 188.969 542.102 187.756 543.616C186.552 545.121 184.937 546.456 182.91 547.62L181.152 545.435C182.837 544.434 184.188 543.339 185.205 542.151C186.23 540.955 186.971 539.636 187.427 538.196C187.882 536.755 188.114 535.124 188.123 533.301V532.666H191.138ZM189.124 535.168H182.373V532.666H189.124V535.168ZM220.471 543.799H217.346V540.674H220.471V543.799ZM229.089 541.309H208.826V538.855H229.089V541.309ZM226.514 537.683H211.316V530.676H226.514V537.683ZM214.38 535.266H223.401V533.093H214.38V535.266ZM226.611 548.425H214.233V550.464H211.169V546.228H223.535V545.068H211.157V542.725H226.611V548.425ZM227.197 552.087H211.169V549.756H227.197V552.087ZM236.548 531.58C237.655 531.58 238.643 531.905 239.514 532.556C240.393 533.199 241.077 534.123 241.565 535.327C242.053 536.523 242.297 537.915 242.297 539.502C242.297 541.097 242.053 542.497 241.565 543.701C241.077 544.897 240.393 545.817 239.514 546.46C238.643 547.103 237.655 547.424 236.548 547.424C235.425 547.424 234.428 547.103 233.557 546.46C232.686 545.817 232.003 544.897 231.506 543.701C231.01 542.497 230.762 541.097 230.762 539.502C230.762 537.915 231.01 536.523 231.506 535.327C232.003 534.123 232.686 533.199 233.557 532.556C234.428 531.905 235.425 531.58 236.548 531.58ZM236.548 534.399C235.986 534.391 235.498 534.587 235.083 534.985C234.668 535.384 234.342 535.966 234.106 536.731C233.87 537.496 233.757 538.42 233.765 539.502C233.757 540.584 233.87 541.508 234.106 542.273C234.342 543.038 234.668 543.62 235.083 544.019C235.498 544.409 235.986 544.604 236.548 544.604C237.109 544.604 237.602 544.409 238.025 544.019C238.448 543.62 238.774 543.038 239.001 542.273C239.229 541.508 239.343 540.584 239.343 539.502C239.343 538.42 239.229 537.496 239.001 536.731C238.774 535.958 238.448 535.376 238.025 534.985C237.602 534.587 237.109 534.391 236.548 534.399ZM249.17 552.307H246.082V530.005H249.17V552.307ZM247.412 540.552H241.37V538.049H247.412V540.552ZM272.351 549.658H252.039V547.144H272.351V549.658ZM263.684 547.766H260.62V542.322H263.684V547.766ZM257.312 534.9H266.992V531.433H270.093V543.018H254.187V531.433H257.312V534.9ZM266.992 540.527V537.366H257.312V540.527H266.992ZM286.243 540.076H282.458V537.524H286.243V540.076ZM280.127 535.767C280.127 537.508 279.948 539.156 279.59 540.71C279.24 542.257 278.691 543.652 277.942 544.897C277.201 546.134 276.261 547.099 275.122 547.791L273.218 545.471C274.268 544.828 275.13 543.994 275.806 542.969C276.481 541.935 276.969 540.812 277.271 539.6C277.58 538.387 277.734 537.109 277.734 535.767V531.934H280.127V535.767ZM280.75 535.62C280.75 536.938 280.88 538.171 281.14 539.319C281.401 540.458 281.832 541.516 282.434 542.493C283.036 543.461 283.822 544.259 284.79 544.885L283.105 547.278C281.974 546.594 281.059 545.65 280.359 544.446C279.659 543.241 279.159 541.903 278.857 540.43C278.556 538.949 278.41 537.345 278.418 535.62V531.934H280.75V535.62ZM292.896 552.246H289.905V530.005H292.896V552.246ZM288.245 551.221H285.327V530.347H288.245V551.221ZM302.869 547.571H299.78V541.333H302.869V547.571ZM311.047 547.571H307.91V541.333H311.047V547.571ZM315.564 549.646H295.251V547.095H315.564V549.646ZM305.371 531.104C306.974 531.104 308.407 531.352 309.668 531.848C310.938 532.345 311.93 533.044 312.646 533.948C313.371 534.851 313.733 535.889 313.733 537.061C313.733 538.249 313.375 539.29 312.659 540.186C311.943 541.081 310.95 541.777 309.68 542.273C308.411 542.769 306.974 543.018 305.371 543.018C303.768 543.018 302.332 542.769 301.062 542.273C299.801 541.777 298.812 541.081 298.096 540.186C297.38 539.29 297.021 538.249 297.021 537.061C297.021 535.889 297.38 534.851 298.096 533.948C298.812 533.044 299.801 532.345 301.062 531.848C302.332 531.352 303.768 531.104 305.371 531.104ZM305.371 533.569C304.305 533.561 303.377 533.695 302.588 533.972C301.799 534.249 301.184 534.652 300.745 535.181C300.313 535.71 300.098 536.336 300.098 537.061C300.098 537.785 300.313 538.416 300.745 538.953C301.184 539.482 301.799 539.889 302.588 540.173C303.385 540.458 304.313 540.605 305.371 540.613C306.421 540.605 307.345 540.458 308.142 540.173C308.94 539.88 309.558 539.469 309.998 538.94C310.437 538.411 310.657 537.785 310.657 537.061C310.657 536.336 310.437 535.71 309.998 535.181C309.558 534.652 308.94 534.249 308.142 533.972C307.345 533.695 306.421 533.561 305.371 533.569ZM321.57 544.714H318.457L318.127 532.324H321.912L321.57 544.714ZM320.02 550.22C319.645 550.22 319.299 550.13 318.982 549.951C318.673 549.764 318.424 549.512 318.237 549.194C318.05 548.877 317.961 548.531 317.969 548.157C317.961 547.791 318.05 547.453 318.237 547.144C318.424 546.834 318.673 546.59 318.982 546.411C319.299 546.232 319.645 546.143 320.02 546.143C320.378 546.143 320.711 546.232 321.021 546.411C321.338 546.59 321.59 546.838 321.777 547.156C321.965 547.465 322.062 547.799 322.07 548.157C322.062 548.531 321.965 548.877 321.777 549.194C321.59 549.512 321.338 549.764 321.021 549.951C320.711 550.13 320.378 550.22 320.02 550.22Z" fill="#01A4FC"/>
<path d="M200.671 496.335C200.671 498.256 200.277 499.981 199.487 501.511C198.706 503.041 197.55 504.351 196.021 505.442C194.499 506.524 192.651 507.367 190.479 507.969L189.258 505.54C191.032 505.068 192.525 504.445 193.738 503.672C194.958 502.899 195.874 502.016 196.484 501.023C197.103 500.03 197.412 498.956 197.412 497.8V496.335H200.671ZM199.573 498.801H190.479V496.335H199.573V498.801ZM207.825 517.185H204.724V511.313H192.566V508.811H207.825V517.185ZM207.825 507.957H204.724V495.054H207.825V507.957ZM205.273 502.988H200.891V500.437H205.273V502.988ZM227.136 502.964H222.864V500.437H227.136V502.964ZM229.431 508.225H226.331V495.005H229.431V508.225ZM221.838 508.713C223.417 508.713 224.78 508.884 225.928 509.226C227.075 509.568 227.954 510.06 228.564 510.703C229.183 511.338 229.496 512.103 229.504 512.998C229.496 513.885 229.183 514.646 228.564 515.281C227.954 515.924 227.075 516.416 225.928 516.758C224.78 517.1 223.417 517.275 221.838 517.283C220.268 517.275 218.909 517.1 217.761 516.758C216.622 516.416 215.743 515.924 215.125 515.281C214.514 514.646 214.209 513.885 214.209 512.998C214.209 512.103 214.514 511.338 215.125 510.703C215.743 510.06 216.622 509.568 217.761 509.226C218.909 508.884 220.268 508.713 221.838 508.713ZM221.838 511.082C220.846 511.082 220.015 511.155 219.348 511.301C218.681 511.44 218.172 511.651 217.822 511.936C217.472 512.221 217.297 512.575 217.297 512.998C217.297 513.413 217.472 513.763 217.822 514.048C218.172 514.333 218.681 514.548 219.348 514.695C220.024 514.833 220.854 514.902 221.838 514.902C222.831 514.902 223.665 514.833 224.341 514.695C225.024 514.548 225.537 514.333 225.879 514.048C226.221 513.763 226.392 513.413 226.392 512.998C226.392 512.575 226.221 512.221 225.879 511.936C225.537 511.651 225.024 511.44 224.341 511.301C223.665 511.155 222.831 511.082 221.838 511.082ZM218.457 498.716C218.457 500.156 218.225 501.507 217.761 502.769C217.306 504.03 216.606 505.141 215.662 506.101C214.726 507.053 213.57 507.765 212.195 508.237L210.571 505.759C211.751 505.361 212.74 504.791 213.538 504.05C214.343 503.31 214.937 502.484 215.32 501.572C215.71 500.653 215.91 499.701 215.918 498.716V497.251H218.457V498.716ZM219.092 498.691C219.092 499.603 219.275 500.482 219.641 501.328C220.015 502.166 220.585 502.927 221.35 503.611C222.115 504.294 223.067 504.827 224.207 505.21L222.668 507.651C221.326 507.212 220.194 506.545 219.275 505.649C218.363 504.746 217.68 503.7 217.224 502.512C216.777 501.316 216.557 500.042 216.565 498.691V497.251H219.092V498.691ZM223.523 498.875H211.462V496.36H223.523V498.875ZM255.725 506.125H252.612V495.005H255.725V506.125ZM258.728 501.89H254.431V499.326H258.728V501.89ZM249.426 505.295H238.757V496.067H249.426V505.295ZM241.846 502.842H246.362V498.521H241.846V502.842ZM255.725 513.071H244.092V515.769H241.028V510.813H252.625V509.409H240.991V507.017H255.725V513.071ZM256.372 517.002H241.028V514.548H256.372V517.002ZM276.025 499.412H261.792V496.946H276.025V499.412ZM279.98 514.524H259.717V511.997H279.98V514.524ZM270.056 513.291H266.968V504.355H270.056V513.291ZM278.003 499.302C278.003 501.133 277.95 502.813 277.844 504.343C277.747 505.873 277.511 507.655 277.136 509.69L273.975 509.36C274.251 508.026 274.455 506.764 274.585 505.576C274.715 504.38 274.797 503.326 274.829 502.415C274.862 501.503 274.878 500.433 274.878 499.204V499.058V496.946H278.003V499.058V499.302Z" fill="#191919"/>
<path d="M92.511 580.162H93.6096V584.093H98.2849V580.162H99.3958V589H98.2849V585.057H93.6096V589H92.511V580.162ZM103.986 589.134C103.355 589.134 102.806 588.994 102.338 588.713C101.874 588.432 101.516 588.036 101.263 587.523C101.011 587.01 100.885 586.416 100.885 585.741C100.885 585.065 101.011 584.465 101.263 583.94C101.516 583.415 101.868 583.008 102.319 582.719C102.771 582.431 103.294 582.286 103.888 582.286C104.388 582.286 104.854 582.396 105.286 582.616C105.721 582.835 106.073 583.194 106.342 583.69C106.61 584.186 106.744 584.821 106.744 585.594V586.034H101.617V585.143H105.682C105.682 584.776 105.609 584.447 105.463 584.154C105.316 583.861 105.107 583.631 104.834 583.464C104.561 583.297 104.246 583.214 103.888 583.214C103.497 583.214 103.156 583.309 102.863 583.501C102.57 583.692 102.342 583.948 102.179 584.27C102.02 584.591 101.939 584.935 101.935 585.301V585.899C101.935 586.388 102.022 586.805 102.197 587.151C102.372 587.497 102.612 587.759 102.917 587.938C103.223 588.117 103.579 588.207 103.986 588.207C104.238 588.207 104.466 588.172 104.669 588.103C104.873 588.034 105.044 587.944 105.182 587.834C105.324 587.72 105.438 587.592 105.524 587.45H106.647C106.541 587.787 106.366 588.084 106.122 588.341C105.878 588.593 105.573 588.788 105.206 588.927C104.84 589.065 104.433 589.134 103.986 589.134ZM112.164 585.924C111.928 585.94 111.751 585.952 111.633 585.96C111.519 585.969 111.346 585.981 111.115 585.997C110.878 586.013 110.642 586.03 110.406 586.046C109.91 586.078 109.526 586.186 109.253 586.369C108.984 586.552 108.848 586.819 108.844 587.169C108.844 587.397 108.905 587.59 109.027 587.749C109.149 587.907 109.312 588.028 109.515 588.109C109.723 588.186 109.963 588.223 110.236 588.219C110.614 588.219 110.942 588.143 111.218 587.993C111.499 587.842 111.713 587.643 111.859 587.395C112.006 587.147 112.079 586.88 112.079 586.595V584.532C112.079 584.251 112.024 584.011 111.914 583.812C111.804 583.609 111.635 583.456 111.407 583.354C111.184 583.253 110.907 583.202 110.577 583.202C110.175 583.202 109.845 583.285 109.589 583.452C109.332 583.615 109.165 583.828 109.088 584.093H107.99C108.034 583.739 108.173 583.425 108.405 583.153C108.641 582.876 108.95 582.663 109.332 582.512C109.715 582.361 110.146 582.286 110.626 582.286C111.009 582.286 111.385 582.343 111.755 582.457C112.126 582.571 112.445 582.803 112.714 583.153C112.982 583.499 113.116 583.991 113.116 584.63V589H112.079V588.097H112.03C111.896 588.373 111.662 588.62 111.328 588.835C110.999 589.047 110.573 589.155 110.052 589.159C109.629 589.155 109.247 589.073 108.905 588.915C108.563 588.752 108.293 588.518 108.093 588.213C107.894 587.903 107.794 587.539 107.794 587.12C107.794 586.437 108.028 585.954 108.496 585.674C108.968 585.389 109.564 585.22 110.284 585.167C110.476 585.151 110.695 585.136 110.944 585.124C111.192 585.108 111.436 585.094 111.676 585.082C111.835 585.077 111.993 585.073 112.152 585.069L112.164 585.924ZM115.851 589H114.801V580.162H115.851V589ZM120.416 583.25H116.962V582.372H120.416V583.25ZM119.025 580.785V587.096C119.025 587.36 119.063 587.566 119.141 587.712C119.218 587.855 119.32 587.952 119.446 588.005C119.572 588.058 119.72 588.084 119.891 588.084C119.965 588.084 120.04 588.082 120.117 588.078C120.199 588.074 120.278 588.072 120.355 588.072L120.514 588.06V589.037C120.294 589.069 120.05 589.085 119.781 589.085C119.472 589.085 119.179 589.02 118.903 588.89C118.626 588.76 118.4 588.567 118.225 588.31C118.05 588.05 117.963 587.735 117.963 587.364V580.785H119.025ZM122.968 589H121.918V580.162H122.968V583.409H123.053C123.216 583.051 123.456 582.774 123.773 582.579C124.091 582.384 124.502 582.286 125.006 582.286C125.466 582.286 125.865 582.378 126.202 582.561C126.544 582.744 126.807 583.023 126.99 583.397C127.173 583.771 127.264 584.235 127.264 584.789V589H126.215V584.862C126.215 584.516 126.154 584.221 126.031 583.977C125.909 583.729 125.734 583.541 125.507 583.415C125.279 583.289 125.006 583.226 124.689 583.226C124.355 583.226 124.06 583.295 123.804 583.434C123.547 583.572 123.344 583.777 123.193 584.05C123.043 584.323 122.968 584.646 122.968 585.021V589ZM133.539 580.162L136.517 587.438H136.627L139.606 580.162H140.924V589H139.886V582.323H139.801L137.054 589H136.078L133.331 582.323H133.258V589H132.22V580.162H133.539ZM146.796 585.924C146.56 585.94 146.383 585.952 146.265 585.96C146.151 585.969 145.978 585.981 145.746 585.997C145.51 586.013 145.274 586.03 145.038 586.046C144.541 586.078 144.157 586.186 143.884 586.369C143.616 586.552 143.479 586.819 143.475 587.169C143.475 587.397 143.536 587.59 143.658 587.749C143.781 587.907 143.943 588.028 144.147 588.109C144.354 588.186 144.594 588.223 144.867 588.219C145.245 588.219 145.573 588.143 145.85 587.993C146.13 587.842 146.344 587.643 146.49 587.395C146.637 587.147 146.71 586.88 146.71 586.595V584.532C146.71 584.251 146.655 584.011 146.545 583.812C146.436 583.609 146.267 583.456 146.039 583.354C145.815 583.253 145.538 583.202 145.209 583.202C144.806 583.202 144.476 583.285 144.22 583.452C143.964 583.615 143.797 583.828 143.719 584.093H142.621C142.666 583.739 142.804 583.425 143.036 583.153C143.272 582.876 143.581 582.663 143.964 582.512C144.346 582.361 144.777 582.286 145.258 582.286C145.64 582.286 146.016 582.343 146.387 582.457C146.757 582.571 147.076 582.803 147.345 583.153C147.614 583.499 147.748 583.991 147.748 584.63V589H146.71V588.097H146.661C146.527 588.373 146.293 588.62 145.959 588.835C145.63 589.047 145.205 589.155 144.684 589.159C144.261 589.155 143.878 589.073 143.536 588.915C143.195 588.752 142.924 588.518 142.725 588.213C142.525 587.903 142.426 587.539 142.426 587.12C142.426 586.437 142.66 585.954 143.127 585.674C143.599 585.389 144.196 585.22 144.916 585.167C145.107 585.151 145.327 585.136 145.575 585.124C145.823 585.108 146.067 585.094 146.307 585.082C146.466 585.077 146.625 585.073 146.783 585.069L146.796 585.924ZM152.325 583.25H148.871V582.372H152.325V583.25ZM150.934 580.785V587.096C150.934 587.36 150.972 587.566 151.05 587.712C151.127 587.855 151.229 587.952 151.355 588.005C151.481 588.058 151.63 588.084 151.801 588.084C151.874 588.084 151.949 588.082 152.026 588.078C152.108 588.074 152.187 588.072 152.264 588.072L152.423 588.06V589.037C152.203 589.069 151.959 589.085 151.691 589.085C151.381 589.085 151.088 589.02 150.812 588.89C150.535 588.76 150.309 588.567 150.134 588.31C149.959 588.05 149.872 587.735 149.872 587.364V580.785H150.934ZM156.39 589.134C155.76 589.134 155.21 588.994 154.742 588.713C154.279 588.432 153.92 588.036 153.668 587.523C153.416 587.01 153.29 586.416 153.29 585.741C153.29 585.065 153.416 584.465 153.668 583.94C153.92 583.415 154.272 583.008 154.724 582.719C155.176 582.431 155.699 582.286 156.293 582.286C156.793 582.286 157.259 582.396 157.69 582.616C158.126 582.835 158.478 583.194 158.746 583.69C159.015 584.186 159.149 584.821 159.149 585.594V586.034H154.022V585.143H158.087C158.087 584.776 158.014 584.447 157.867 584.154C157.721 583.861 157.511 583.631 157.239 583.464C156.966 583.297 156.651 583.214 156.293 583.214C155.902 583.214 155.56 583.309 155.267 583.501C154.974 583.692 154.747 583.948 154.584 584.27C154.425 584.591 154.344 584.935 154.34 585.301V585.899C154.34 586.388 154.427 586.805 154.602 587.151C154.777 587.497 155.017 587.759 155.322 587.938C155.627 588.117 155.983 588.207 156.39 588.207C156.643 588.207 156.871 588.172 157.074 588.103C157.277 588.034 157.448 587.944 157.587 587.834C157.729 587.72 157.843 587.592 157.928 587.45H159.052C158.946 587.787 158.771 588.084 158.527 588.341C158.282 588.593 157.977 588.788 157.611 588.927C157.245 589.065 156.838 589.134 156.39 589.134ZM166.644 584.166H164.557V583.373H166.644V584.166ZM169.415 589.989H168.488V579.137H169.415V589.989ZM167.23 589.439H166.315V579.369H167.23V589.439ZM162.579 580.052C163.047 580.052 163.456 580.207 163.806 580.516C164.16 580.825 164.435 581.265 164.63 581.834C164.825 582.4 164.923 583.063 164.923 583.824C164.923 584.585 164.825 585.25 164.63 585.82C164.435 586.386 164.16 586.823 163.806 587.132C163.456 587.442 163.047 587.596 162.579 587.596C162.111 587.596 161.702 587.442 161.353 587.132C161.007 586.823 160.736 586.386 160.541 585.82C160.345 585.25 160.248 584.585 160.248 583.824C160.248 583.063 160.345 582.4 160.541 581.834C160.736 581.265 161.007 580.825 161.353 580.516C161.702 580.207 162.111 580.052 162.579 580.052ZM162.579 580.956C162.286 580.956 162.032 581.072 161.816 581.303C161.601 581.535 161.434 581.869 161.316 582.304C161.202 582.736 161.147 583.242 161.151 583.824C161.147 584.406 161.202 584.913 161.316 585.344C161.434 585.771 161.601 586.103 161.816 586.339C162.036 586.571 162.29 586.685 162.579 586.681C162.872 586.685 163.129 586.571 163.348 586.339C163.568 586.103 163.735 585.771 163.849 585.344C163.963 584.913 164.02 584.406 164.02 583.824C164.02 583.242 163.963 582.736 163.849 582.304C163.735 581.869 163.568 581.535 163.348 581.303C163.129 581.072 162.872 580.956 162.579 580.956ZM179.462 587.987H178.522V585.265H179.462V587.987ZM178.998 579.845C179.763 579.849 180.446 579.969 181.049 580.205C181.651 580.437 182.121 580.768 182.458 581.2C182.796 581.631 182.965 582.127 182.965 582.689C182.965 583.259 182.796 583.757 182.458 584.184C182.121 584.612 181.651 584.943 181.049 585.179C180.446 585.415 179.763 585.533 178.998 585.533C178.233 585.533 177.551 585.415 176.953 585.179C176.355 584.943 175.885 584.612 175.543 584.184C175.201 583.753 175.031 583.255 175.031 582.689C175.031 582.127 175.201 581.631 175.543 581.2C175.885 580.768 176.355 580.437 176.953 580.205C177.551 579.969 178.233 579.849 178.998 579.845ZM178.998 580.638C178.416 580.638 177.893 580.724 177.429 580.895C176.969 581.065 176.609 581.308 176.349 581.621C176.088 581.93 175.958 582.286 175.958 582.689C175.958 583.1 176.088 583.462 176.349 583.775C176.609 584.085 176.969 584.327 177.429 584.502C177.889 584.673 178.412 584.76 178.998 584.764C179.584 584.76 180.107 584.673 180.566 584.502C181.026 584.327 181.386 584.085 181.647 583.775C181.907 583.462 182.037 583.1 182.037 582.689C182.037 582.286 181.907 581.93 181.647 581.621C181.386 581.308 181.024 581.065 180.56 580.895C180.101 580.724 179.58 580.638 178.998 580.638ZM183.99 588.597H174.054V587.792H183.99V588.597ZM193.817 587.108H192.865V579.149H193.817V587.108ZM194.159 589.757H186.81V588.951H194.159V589.757ZM187.762 589.342H186.81V586.375H187.762V589.342ZM188.531 580.846C188.527 581.546 188.397 582.209 188.141 582.835C187.889 583.462 187.533 584.009 187.073 584.477C186.617 584.941 186.09 585.293 185.492 585.533L184.967 584.789C185.508 584.577 185.986 584.27 186.401 583.867C186.82 583.464 187.146 583.002 187.378 582.481C187.61 581.957 187.726 581.411 187.726 580.846V579.759H188.531V580.846ZM188.702 580.846C188.698 581.387 188.81 581.908 189.038 582.408C189.27 582.905 189.594 583.34 190.009 583.714C190.424 584.089 190.9 584.374 191.437 584.569L190.936 585.338C190.334 585.106 189.805 584.77 189.349 584.331C188.894 583.887 188.538 583.366 188.281 582.768C188.025 582.17 187.897 581.529 187.897 580.846V579.759H188.702V580.846ZM207.794 586.498H206.83V579.149H207.794V586.498ZM207.037 583.006H204.449V582.201H207.037V583.006ZM204.401 580.003C204.401 580.919 204.203 581.753 203.809 582.506C203.414 583.255 202.842 583.906 202.094 584.459C201.349 585.008 200.454 585.452 199.408 585.79L198.981 585.021C199.904 584.736 200.696 584.365 201.355 583.91C202.018 583.454 202.525 582.927 202.875 582.329C203.225 581.731 203.4 581.082 203.4 580.382V580.003H204.401ZM204.071 580.785H199.518V580.003H204.071V580.785ZM204.62 586.046C204.62 586.717 204.433 587.324 204.059 587.865C203.684 588.402 203.186 588.847 202.563 589.201C201.941 589.555 201.255 589.806 200.507 589.952L200.116 589.195C200.767 589.081 201.373 588.876 201.935 588.579C202.496 588.282 202.946 587.914 203.284 587.474C203.625 587.035 203.798 586.559 203.802 586.046V585.545H204.62V586.046ZM204.742 586.046C204.742 586.555 204.911 587.024 205.249 587.456C205.587 587.883 206.032 588.245 206.586 588.542C207.139 588.835 207.741 589.041 208.392 589.159L207.99 589.928C207.253 589.785 206.576 589.537 205.957 589.183C205.343 588.833 204.85 588.39 204.48 587.853C204.11 587.315 203.925 586.713 203.925 586.046V585.545H204.742V586.046ZM214.545 579.332C215.346 579.332 216.034 579.403 216.608 579.546C217.185 579.688 217.625 579.9 217.926 580.18C218.227 580.461 218.378 580.801 218.378 581.2C218.378 581.607 218.227 581.952 217.926 582.237C217.625 582.522 217.188 582.738 216.614 582.884C216.04 583.027 215.35 583.1 214.545 583.104C213.735 583.1 213.043 583.027 212.469 582.884C211.9 582.738 211.462 582.522 211.157 582.237C210.852 581.952 210.699 581.607 210.699 581.2C210.699 580.801 210.852 580.461 211.157 580.18C211.462 579.9 211.902 579.688 212.476 579.546C213.049 579.403 213.739 579.332 214.545 579.332ZM214.545 580.052C213.947 580.052 213.434 580.099 213.007 580.193C212.583 580.286 212.258 580.418 212.03 580.589C211.806 580.76 211.696 580.964 211.7 581.2C211.696 581.448 211.806 581.662 212.03 581.841C212.258 582.016 212.583 582.148 213.007 582.237C213.434 582.327 213.947 582.372 214.545 582.372C215.143 582.372 215.656 582.327 216.083 582.237C216.514 582.148 216.842 582.016 217.065 581.841C217.289 581.666 217.401 581.452 217.401 581.2C217.401 580.964 217.289 580.76 217.065 580.589C216.842 580.418 216.514 580.286 216.083 580.193C215.651 580.099 215.139 580.052 214.545 580.052ZM219.489 584.618H209.601V583.836H219.489V584.618ZM218.219 587.987H211.774V589.305H210.822V587.279H217.279V586.29H210.797V585.558H218.219V587.987ZM218.549 589.867H210.822V589.11H218.549V589.867ZM232.013 587.633H231.049V579.137H232.013V587.633ZM233.636 583.751H231.61V582.945H233.636V583.751ZM232.404 589.757H225.116V588.951H232.404V589.757ZM226.08 589.208H225.116V587.059H226.08V589.208ZM227.386 585.924H226.434V584.447H227.386V585.924ZM223.492 585.594C224.819 585.59 226.048 585.564 227.179 585.515C228.314 585.462 229.38 585.358 230.377 585.204L230.463 585.887C229.49 586.07 228.477 586.194 227.423 586.26C226.373 586.321 225.201 586.359 223.907 586.375C223.838 586.375 223.787 586.375 223.755 586.375C223.722 586.375 223.671 586.375 223.602 586.375L223.492 585.594ZM230.048 580.931H223.761V580.211H230.048V580.931ZM226.898 581.407C227.407 581.407 227.852 581.472 228.235 581.603C228.621 581.733 228.918 581.926 229.126 582.182C229.338 582.435 229.445 582.734 229.449 583.08C229.445 583.417 229.338 583.712 229.126 583.965C228.918 584.213 228.621 584.404 228.235 584.538C227.852 584.673 227.407 584.74 226.898 584.74C226.39 584.74 225.944 584.671 225.562 584.532C225.183 584.394 224.888 584.203 224.677 583.958C224.465 583.71 224.359 583.417 224.359 583.08C224.359 582.738 224.465 582.439 224.677 582.182C224.888 581.926 225.183 581.733 225.562 581.603C225.944 581.472 226.39 581.407 226.898 581.407ZM226.898 582.091C226.569 582.091 226.28 582.129 226.031 582.207C225.787 582.284 225.6 582.398 225.47 582.549C225.34 582.699 225.275 582.876 225.275 583.08C225.275 583.275 225.34 583.446 225.47 583.592C225.6 583.739 225.787 583.853 226.031 583.934C226.28 584.015 226.569 584.056 226.898 584.056C227.228 584.056 227.515 584.015 227.759 583.934C228.007 583.853 228.198 583.739 228.333 583.592C228.467 583.446 228.534 583.275 228.534 583.08C228.534 582.876 228.469 582.699 228.339 582.549C228.208 582.398 228.017 582.284 227.765 582.207C227.517 582.129 227.228 582.091 226.898 582.091ZM227.386 580.553H226.434V579.112H227.386V580.553ZM242.67 581.493H239.349V580.711H242.67V581.493ZM242.67 584.02H239.349V583.226H242.67V584.02ZM237.335 579.796C237.864 579.796 238.342 579.904 238.77 580.119C239.197 580.335 239.53 580.64 239.771 581.035C240.015 581.426 240.139 581.871 240.143 582.372C240.139 582.868 240.015 583.309 239.771 583.696C239.53 584.083 239.197 584.386 238.77 584.605C238.342 584.825 237.864 584.935 237.335 584.935C236.798 584.935 236.316 584.825 235.889 584.605C235.461 584.386 235.126 584.083 234.882 583.696C234.637 583.309 234.515 582.868 234.515 582.372C234.515 581.871 234.637 581.426 234.882 581.035C235.126 580.64 235.461 580.335 235.889 580.119C236.316 579.904 236.798 579.796 237.335 579.796ZM237.335 580.626C236.969 580.626 236.641 580.699 236.353 580.846C236.064 580.992 235.838 581.2 235.675 581.468C235.512 581.733 235.431 582.034 235.431 582.372C235.431 582.705 235.512 583.004 235.675 583.269C235.838 583.533 236.064 583.741 236.353 583.891C236.641 584.042 236.969 584.117 237.335 584.117C237.689 584.117 238.009 584.042 238.293 583.891C238.582 583.741 238.808 583.533 238.971 583.269C239.134 583 239.215 582.701 239.215 582.372C239.215 582.034 239.134 581.733 238.971 581.468C238.808 581.2 238.582 580.992 238.293 580.846C238.009 580.699 237.689 580.626 237.335 580.626ZM243.341 585.57H242.377V579.137H243.341V585.57ZM239.74 585.826C240.489 585.826 241.136 585.908 241.681 586.07C242.226 586.233 242.645 586.469 242.938 586.778C243.231 587.088 243.378 587.458 243.378 587.889C243.378 588.325 243.231 588.697 242.938 589.006C242.645 589.319 242.226 589.557 241.681 589.72C241.136 589.883 240.489 589.964 239.74 589.964C238.991 589.964 238.344 589.883 237.799 589.72C237.254 589.557 236.835 589.319 236.542 589.006C236.249 588.697 236.102 588.325 236.102 587.889C236.102 587.458 236.249 587.088 236.542 586.778C236.835 586.469 237.254 586.233 237.799 586.07C238.344 585.908 238.991 585.826 239.74 585.826ZM239.74 586.571C239.187 586.571 238.706 586.624 238.3 586.729C237.893 586.835 237.581 586.988 237.366 587.187C237.15 587.383 237.042 587.617 237.042 587.889C237.042 588.158 237.152 588.39 237.372 588.585C237.592 588.78 237.903 588.931 238.306 589.037C238.708 589.142 239.187 589.195 239.74 589.195C240.293 589.195 240.774 589.142 241.18 589.037C241.587 588.931 241.899 588.78 242.114 588.585C242.33 588.39 242.438 588.158 242.438 587.889C242.438 587.617 242.33 587.383 242.114 587.187C241.899 586.988 241.587 586.835 241.18 586.729C240.774 586.624 240.293 586.571 239.74 586.571ZM253.632 585.448H252.679V579.137H253.632V585.448ZM255.267 582.738H253.217V581.92H255.267V582.738ZM247.723 587.083H252.679V585.924H253.632V589.842H246.771V585.924H247.723V587.083ZM252.679 589.073V587.84H247.723V589.073H252.679ZM251.642 581.053H245.172V580.26H251.642V581.053ZM248.407 581.554C248.924 581.554 249.377 581.631 249.768 581.786C250.163 581.94 250.468 582.162 250.684 582.451C250.903 582.74 251.015 583.076 251.019 583.458C251.015 583.84 250.903 584.176 250.684 584.465C250.468 584.754 250.163 584.976 249.768 585.13C249.373 585.285 248.92 585.362 248.407 585.362C247.886 585.362 247.428 585.285 247.034 585.13C246.639 584.976 246.334 584.754 246.118 584.465C245.903 584.176 245.795 583.84 245.795 583.458C245.795 583.076 245.903 582.74 246.118 582.451C246.334 582.162 246.639 581.94 247.034 581.786C247.428 581.631 247.886 581.554 248.407 581.554ZM248.407 582.298C248.069 582.294 247.772 582.341 247.516 582.439C247.264 582.532 247.066 582.669 246.924 582.848C246.781 583.023 246.71 583.226 246.71 583.458C246.71 583.69 246.779 583.895 246.918 584.074C247.056 584.249 247.253 584.386 247.51 584.483C247.77 584.581 248.069 584.63 248.407 584.63C248.741 584.63 249.038 584.581 249.298 584.483C249.559 584.386 249.758 584.249 249.896 584.074C250.039 583.895 250.112 583.69 250.116 583.458C250.112 583.226 250.037 583.023 249.89 582.848C249.748 582.669 249.548 582.532 249.292 582.439C249.036 582.341 248.741 582.294 248.407 582.298ZM248.883 580.687H247.931V579.039H248.883V580.687ZM264.899 589.989H263.947V579.137H264.899V589.989ZM257.599 586.925H256.659V580.211H257.599V586.925ZM257.538 586.363C258.441 586.359 259.322 586.319 260.181 586.241C261.043 586.16 261.912 586.026 262.787 585.838L262.921 586.656C261.997 586.847 261.098 586.986 260.223 587.071C259.353 587.153 258.457 587.193 257.538 587.193H256.659V586.363H257.538ZM275.153 590.013H274.2V579.137H275.153V590.013ZM276.971 584.239H274.933V583.434H276.971V584.239ZM268.085 586.485C269.151 586.481 270.064 586.453 270.825 586.4C271.586 586.343 272.361 586.241 273.151 586.095L273.273 586.925C272.467 587.071 271.678 587.169 270.905 587.218C270.135 587.267 269.196 587.291 268.085 587.291H267.23V586.485H268.085ZM272.296 580.992H268.182V586.852H267.23V580.199H272.296V580.992ZM279.23 586.51H278.204L278.119 580.162H279.315L279.23 586.51ZM278.717 589.073C278.575 589.073 278.442 589.037 278.32 588.963C278.202 588.89 278.107 588.795 278.033 588.677C277.964 588.554 277.932 588.422 277.936 588.28C277.932 588.141 277.964 588.011 278.033 587.889C278.107 587.767 278.202 587.671 278.32 587.602C278.442 587.533 278.575 587.499 278.717 587.499C278.859 587.499 278.99 587.533 279.108 587.602C279.23 587.671 279.325 587.767 279.395 587.889C279.464 588.011 279.498 588.141 279.498 588.28C279.498 588.422 279.464 588.554 279.395 588.677C279.325 588.795 279.23 588.89 279.108 588.963C278.99 589.037 278.859 589.073 278.717 589.073ZM97.2473 607.169H96.283V599.149H97.2473V607.169ZM96.4783 603.299H93.8782V602.494H96.4783V603.299ZM93.927 599.979C93.9229 600.895 93.7134 601.739 93.2983 602.512C92.8874 603.281 92.2994 603.954 91.5344 604.532C90.7694 605.106 89.8702 605.562 88.8367 605.899L88.4216 605.13C89.3168 604.833 90.1021 604.449 90.7776 603.977C91.453 603.501 91.9759 602.958 92.3462 602.347C92.7165 601.733 92.9016 601.074 92.9016 600.37V599.979H93.927ZM93.5242 600.785H88.9709V599.979H93.5242V600.785ZM97.5281 609.757H90.3381V608.951H97.5281V609.757ZM91.3147 609.342H90.3381V606.351H91.3147V609.342ZM107.538 605.655H106.586V599.137H107.538V605.655ZM109.174 602.762H107.269V601.969H109.174V602.762ZM104.584 599.942C104.584 600.854 104.378 601.684 103.967 602.433C103.556 603.181 102.968 603.83 102.203 604.38C101.438 604.925 100.527 605.354 99.469 605.667L99.0662 604.886C99.9939 604.618 100.795 604.26 101.471 603.812C102.146 603.364 102.663 602.85 103.021 602.268C103.383 601.686 103.566 601.057 103.571 600.382V599.942H104.584ZM104.108 600.736H99.5422V599.942H104.108V600.736ZM104.108 605.777C104.828 605.777 105.455 605.861 105.988 606.028C106.525 606.194 106.938 606.434 107.227 606.748C107.515 607.061 107.66 607.433 107.66 607.865C107.66 608.3 107.515 608.677 107.227 608.994C106.938 609.307 106.527 609.547 105.994 609.714C105.461 609.881 104.832 609.964 104.108 609.964C103.387 609.964 102.759 609.881 102.222 609.714C101.689 609.547 101.278 609.307 100.989 608.994C100.7 608.677 100.555 608.3 100.555 607.865C100.555 607.438 100.7 607.067 100.989 606.754C101.278 606.437 101.691 606.194 102.228 606.028C102.765 605.861 103.392 605.777 104.108 605.777ZM104.108 606.546C103.579 606.546 103.119 606.599 102.728 606.705C102.338 606.811 102.035 606.963 101.819 607.163C101.607 607.362 101.503 607.596 101.508 607.865C101.503 608.133 101.607 608.367 101.819 608.567C102.035 608.766 102.338 608.921 102.728 609.031C103.123 609.14 103.583 609.195 104.108 609.195C104.633 609.195 105.092 609.14 105.487 609.031C105.886 608.921 106.193 608.766 106.409 608.567C106.624 608.367 106.732 608.133 106.732 607.865C106.732 607.596 106.624 607.362 106.409 607.163C106.193 606.963 105.888 606.811 105.493 606.705C105.098 606.599 104.637 606.546 104.108 606.546ZM118.451 600.785H113.605V599.979H118.451V600.785ZM116.217 605.106H115.265V602.384H116.217V605.106ZM119.012 600.626C119.008 601.163 118.99 601.672 118.958 602.152C118.925 602.628 118.85 603.165 118.732 603.763L117.767 603.69C117.889 603.092 117.969 602.569 118.005 602.121C118.042 601.674 118.064 601.192 118.073 600.675V600.553V599.979H119.012V600.553V600.626ZM121.503 607.303H120.526V599.137H121.503V607.303ZM123.09 603.495H121.063V602.677H123.09V603.495ZM121.857 609.757H114.606V608.951H121.857V609.757ZM115.57 609.208H114.606V606.571H115.57V609.208ZM112.933 604.776C114.227 604.772 115.446 604.748 116.589 604.703C117.733 604.654 118.801 604.561 119.794 604.422L119.855 605.13C118.842 605.305 117.771 605.421 116.644 605.478C115.517 605.535 114.313 605.566 113.031 605.57L112.933 604.776ZM132.758 610.013H131.805V599.137H132.758V610.013ZM125.336 606.571C126.32 606.575 127.236 606.548 128.082 606.491C128.933 606.434 129.824 606.331 130.756 606.18L130.853 606.986C129.909 607.132 129.006 607.234 128.143 607.291C127.281 607.348 126.345 607.376 125.336 607.376H124.432V606.571H125.336ZM129.462 604.007H125.409V606.876H124.432V603.226H128.497V600.943H124.408V600.15H129.462V604.007ZM138.153 599.93C138.715 599.93 139.217 600.038 139.661 600.254C140.104 600.469 140.45 600.77 140.698 601.157C140.946 601.544 141.071 601.985 141.071 602.481C141.071 602.978 140.946 603.419 140.698 603.806C140.45 604.192 140.104 604.494 139.661 604.709C139.217 604.925 138.715 605.033 138.153 605.033C137.587 605.033 137.081 604.925 136.633 604.709C136.19 604.494 135.844 604.192 135.596 603.806C135.347 603.419 135.223 602.978 135.223 602.481C135.223 601.985 135.347 601.544 135.596 601.157C135.844 600.77 136.19 600.469 136.633 600.254C137.081 600.038 137.587 599.93 138.153 599.93ZM138.153 600.772C137.771 600.772 137.429 600.844 137.128 600.986C136.827 601.128 136.591 601.332 136.42 601.596C136.249 601.857 136.163 602.152 136.163 602.481C136.163 602.815 136.249 603.11 136.42 603.366C136.591 603.623 136.827 603.824 137.128 603.971C137.429 604.117 137.771 604.19 138.153 604.19C138.531 604.19 138.871 604.117 139.172 603.971C139.478 603.824 139.714 603.623 139.88 603.366C140.047 603.11 140.131 602.815 140.131 602.481C140.131 602.152 140.047 601.857 139.88 601.596C139.714 601.332 139.478 601.128 139.172 600.986C138.871 600.844 138.531 600.772 138.153 600.772ZM143.5 610.013H142.548V599.137H143.5V610.013ZM134.662 606.803C136.017 606.807 137.284 606.786 138.464 606.742C139.644 606.697 140.765 606.595 141.827 606.437L141.901 607.145C141.136 607.287 140.34 607.393 139.514 607.462C138.688 607.527 137.915 607.57 137.195 607.59C136.479 607.61 135.679 607.621 134.796 607.621L134.662 606.803ZM151.63 602.262C151.626 603.006 151.518 603.733 151.306 604.441C151.099 605.145 150.8 605.775 150.409 606.333C150.018 606.89 149.563 607.324 149.042 607.633L148.419 606.925C148.912 606.644 149.343 606.257 149.713 605.765C150.087 605.269 150.372 604.717 150.568 604.111C150.767 603.501 150.865 602.884 150.861 602.262V600.162H151.63V602.262ZM151.788 602.201C151.788 602.799 151.882 603.389 152.069 603.971C152.256 604.549 152.523 605.069 152.869 605.533C153.215 605.997 153.623 606.355 154.095 606.607L153.522 607.364C153.001 607.067 152.553 606.652 152.179 606.119C151.805 605.582 151.518 604.976 151.318 604.3C151.123 603.625 151.027 602.925 151.031 602.201V600.162H151.788V602.201ZM157.843 609.989H156.915V599.137H157.843V609.989ZM157.269 604.3H155.145V603.507H157.269V604.3ZM155.426 609.439H154.498V599.369H155.426V609.439ZM169.281 608.646H159.344V607.84H169.281V608.646ZM164.752 608.194H163.812V605.509H164.752V608.194ZM168.024 603.226H161.542V605.423H160.59V602.445H167.084V600.736H160.565V599.942H168.024V603.226ZM168.28 605.79H160.59V604.996H168.28V605.79ZM180.072 605.448H170.135V604.654H180.072V605.448ZM175.665 607.669H174.701V605.155H175.665V607.669ZM178.961 609.757H171.417V608.939H178.961V609.757ZM172.382 609.183H171.417V606.583H172.382V609.183ZM175.092 599.417C175.861 599.417 176.532 599.505 177.106 599.68C177.684 599.855 178.129 600.109 178.442 600.443C178.756 600.772 178.912 601.159 178.912 601.603C178.912 602.042 178.756 602.424 178.442 602.75C178.129 603.076 177.684 603.326 177.106 603.501C176.532 603.676 175.861 603.763 175.092 603.763C174.323 603.763 173.649 603.676 173.071 603.501C172.498 603.326 172.052 603.076 171.735 602.75C171.417 602.424 171.259 602.042 171.259 601.603C171.259 601.159 171.415 600.772 171.729 600.443C172.042 600.109 172.487 599.855 173.065 599.68C173.647 599.505 174.323 599.417 175.092 599.417ZM175.092 600.199C174.53 600.199 174.038 600.256 173.615 600.37C173.191 600.484 172.862 600.646 172.626 600.858C172.394 601.069 172.28 601.318 172.284 601.603C172.28 601.879 172.394 602.121 172.626 602.329C172.862 602.536 173.191 602.697 173.615 602.811C174.038 602.925 174.53 602.982 175.092 602.982C175.649 602.982 176.139 602.925 176.562 602.811C176.99 602.697 177.319 602.536 177.551 602.329C177.783 602.121 177.899 601.879 177.899 601.603C177.899 601.318 177.783 601.069 177.551 600.858C177.319 600.646 176.992 600.484 176.569 600.37C176.145 600.256 175.653 600.199 175.092 600.199ZM193.988 605.277H184.088V604.508H193.988V605.277ZM189.496 604.837H188.568V602.762H189.496V604.837ZM192.828 603.238H185.345V602.457H192.828V603.238ZM192.755 600.418H186.285V602.933H185.345V599.649H192.755V600.418ZM189.032 606.07C189.805 606.07 190.47 606.148 191.028 606.302C191.585 606.457 192.013 606.681 192.31 606.974C192.611 607.263 192.763 607.612 192.767 608.023C192.763 608.438 192.613 608.79 192.316 609.079C192.023 609.368 191.595 609.59 191.034 609.745C190.472 609.903 189.805 609.985 189.032 609.989C188.251 609.985 187.579 609.903 187.018 609.745C186.456 609.59 186.027 609.366 185.73 609.073C185.433 608.784 185.284 608.434 185.284 608.023C185.284 607.612 185.433 607.263 185.73 606.974C186.027 606.681 186.456 606.457 187.018 606.302C187.579 606.148 188.251 606.07 189.032 606.07ZM189.032 606.827C188.454 606.827 187.958 606.874 187.543 606.968C187.128 607.061 186.808 607.199 186.584 607.383C186.365 607.562 186.257 607.775 186.261 608.023C186.257 608.276 186.365 608.491 186.584 608.67C186.808 608.849 187.128 608.986 187.543 609.079C187.958 609.173 188.454 609.22 189.032 609.22C189.602 609.22 190.094 609.173 190.509 609.079C190.924 608.986 191.243 608.849 191.467 608.67C191.691 608.491 191.803 608.276 191.803 608.023C191.803 607.775 191.691 607.562 191.467 607.383C191.243 607.199 190.924 607.061 190.509 606.968C190.094 606.874 189.602 606.827 189.032 606.827ZM203.375 607.12H202.423V599.149H203.375V607.12ZM205.011 603.238H203.07V602.433H205.011V603.238ZM203.876 609.757H196.588V608.951H203.876V609.757ZM197.528 609.134H196.588V606.339H197.528V609.134ZM196.295 601.761H199.457V599.93H200.409V605.289H195.355V599.93H196.295V601.761ZM199.457 604.508V602.518H196.295V604.508H199.457ZM209.186 602.469C209.186 603.206 209.047 603.938 208.771 604.667C208.494 605.391 208.118 606.04 207.642 606.614C207.166 607.187 206.651 607.617 206.097 607.901L205.511 607.145C206.028 606.892 206.508 606.514 206.952 606.009C207.399 605.505 207.756 604.939 208.02 604.312C208.289 603.686 208.425 603.071 208.429 602.469V600.675H209.186V602.469ZM209.369 602.469C209.365 603.039 209.487 603.617 209.735 604.203C209.987 604.789 210.329 605.32 210.76 605.796C211.192 606.268 211.668 606.628 212.189 606.876L211.639 607.633C211.074 607.356 210.559 606.947 210.095 606.406C209.635 605.865 209.271 605.25 209.003 604.563C208.734 603.871 208.6 603.173 208.6 602.469V600.675H209.369V602.469ZM211.81 601.053H205.902V600.26H211.81V601.053ZM214.093 609.989H213.141V599.137H214.093V609.989ZM215.912 604.349H213.873V603.531H215.912V604.349ZM226.422 604.935H216.486V604.178H226.422V604.935ZM225.177 608.109H218.658V609.403H217.694V607.45H224.225V606.522H217.682V605.802H225.177V608.109ZM225.531 609.842H217.694V609.146H225.531V609.842ZM225.14 601.712H218.732V602.909H217.78V601.053H224.176V600.162H217.743V599.466H225.14V601.712ZM225.336 603.36H217.78V602.665H225.336V603.36ZM235.919 605.118H230.902V600.125H235.919V605.118ZM231.842 604.349H234.991V600.907H231.842V604.349ZM238.922 607.096H237.97V599.137H238.922V607.096ZM240.558 603.25H238.617V602.445H240.558V603.25ZM239.423 609.757H232.135V608.951H239.423V609.757ZM233.075 609.281H232.135V606.339H233.075V609.281ZM251.398 604.276H249.396V603.47H251.398V604.276ZM249.64 609.989H248.688V599.137H249.64V609.989ZM242.645 606.925H241.693V600.211H242.645V606.925ZM242.56 606.424C243.418 606.428 244.263 606.392 245.093 606.314C245.923 606.237 246.771 606.107 247.638 605.924L247.76 606.742C246.877 606.921 246.012 607.047 245.166 607.12C244.32 607.193 243.451 607.23 242.56 607.23H241.693V606.424H242.56ZM261.981 608.597H252.045V607.804H261.981V608.597ZM257.452 608.048H256.512V605.179H257.452V608.048ZM254.181 601.871H259.821V599.906H260.76V605.46H253.217V599.906H254.181V601.871ZM259.821 604.679V602.652H254.181V604.679H259.821ZM269.293 603.849H267.157V603.031H269.293V603.849ZM265.9 602.262C265.9 603.006 265.796 603.733 265.588 604.441C265.381 605.145 265.082 605.777 264.691 606.339C264.305 606.896 263.853 607.332 263.336 607.645L262.726 606.925C263.214 606.64 263.641 606.249 264.008 605.753C264.374 605.257 264.655 604.707 264.85 604.105C265.045 603.499 265.143 602.884 265.143 602.262V600.162H265.9V602.262ZM266.071 602.225C266.071 602.807 266.162 603.387 266.345 603.965C266.528 604.538 266.791 605.063 267.133 605.539C267.478 606.015 267.885 606.392 268.353 606.668L267.804 607.413C267.291 607.104 266.848 606.675 266.473 606.125C266.099 605.576 265.814 604.964 265.619 604.288C265.428 603.613 265.334 602.925 265.338 602.225V600.162H266.071V602.225ZM272.15 609.989H271.222V599.137H272.15V609.989ZM269.904 609.439H269V599.369H269.904V609.439ZM277.057 607.987H276.117V604.74H277.057V607.987ZM281.122 607.987H280.157V604.74H281.122V607.987ZM283.588 608.597H273.651V607.792H283.588V608.597ZM278.595 599.82C279.364 599.824 280.048 599.942 280.646 600.174C281.248 600.402 281.718 600.73 282.056 601.157C282.393 601.58 282.562 602.066 282.562 602.616C282.562 603.169 282.393 603.655 282.056 604.074C281.718 604.494 281.248 604.819 280.646 605.051C280.048 605.283 279.364 605.399 278.595 605.399C277.826 605.399 277.14 605.283 276.538 605.051C275.94 604.819 275.472 604.494 275.134 604.074C274.797 603.655 274.628 603.169 274.628 602.616C274.628 602.066 274.797 601.58 275.134 601.157C275.472 600.73 275.94 600.402 276.538 600.174C277.14 599.942 277.826 599.824 278.595 599.82ZM278.595 600.614C278.005 600.61 277.478 600.691 277.014 600.858C276.554 601.021 276.196 601.255 275.94 601.56C275.684 601.865 275.555 602.217 275.555 602.616C275.555 603.014 275.684 603.366 275.94 603.672C276.196 603.977 276.554 604.215 277.014 604.386C277.478 604.557 278.005 604.642 278.595 604.642C279.181 604.642 279.704 604.557 280.164 604.386C280.623 604.215 280.983 603.977 281.244 603.672C281.504 603.366 281.635 603.014 281.635 602.616C281.635 602.217 281.504 601.865 281.244 601.56C280.983 601.255 280.623 601.021 280.164 600.858C279.704 600.691 279.181 600.61 278.595 600.614ZM285.602 609.073C285.459 609.073 285.327 609.037 285.205 608.963C285.087 608.89 284.991 608.795 284.918 608.677C284.849 608.554 284.816 608.422 284.821 608.28C284.816 608.141 284.849 608.011 284.918 607.889C284.991 607.767 285.087 607.671 285.205 607.602C285.327 607.533 285.459 607.499 285.602 607.499C285.744 607.499 285.874 607.533 285.992 607.602C286.115 607.671 286.21 607.767 286.279 607.889C286.348 608.011 286.383 608.141 286.383 608.28C286.383 608.422 286.348 608.554 286.279 608.677C286.21 608.795 286.115 608.89 285.992 608.963C285.874 609.037 285.744 609.073 285.602 609.073Z" fill="#626262"/>
<circle cx="170" cy="726" r="6" fill="#01A4FC"/>
<circle opacity="0.6" cx="189" cy="726" r="4" fill="#01A4FC"/>
<circle opacity="0.6" cx="207" cy="726" r="4" fill="#01A4FC"/>
<rect x="292.5" y="704.5" width="42" height="42" rx="21" fill="#01A4FC"/>
<rect x="292.5" y="704.5" width="42" height="42" rx="21" stroke="#01A4FC"/>
<path d="M312.647 733.913L320.957 725.5ZM320.957 725.5L312.647 717.087ZM320.957 725.5H306Z" fill="#01A4FC"/>
<path d="M312.647 733.913L320.957 725.5M320.957 725.5L312.647 717.087M320.957 725.5H306" stroke="white" stroke-width="2" stroke-linecap="round" stroke-linejoin="round"/>
<defs>
<clipPath id="clip0_18_487">
<rect width="335" height="293" fill="white" transform="translate(20 141)"/>
</clipPath>
</defs>
</svg>
